<?xml version="1.0" encoding="UTF-8"?>
<svg id="Layer_1" data-name="Layer 1" xmlns="http://www.w3.org/2000/svg" viewBox="0 0 1920 1080">
  <defs>
    <style>
      .cls-1 {
        fill: #231f20;
        stroke: #fff;
        stroke-width: 1.05px;
      }
    </style>
  </defs>
  <g id="Proxima_Nova" data-name="Proxima Nova">
    <path class="cls-1" d="M162.92,1029.02c15.14-15.13,27.75-38.47,27.75-67.16,0-18.6-7.88-29.96-17.97-29.96-11.98,0-16.71,13.56-21.44,35.95-6.94,34.69-15.77,83.24-65.59,83.24-35.32,0-65.9-29.96-65.9-83.88,0-33.74,10.09-63.06,29.33-85.45l38.78,29.64c-14.5,17.66-21.76,40.68-21.76,59.28s7.25,24.91,16.4,24.91c11.04,0,14.82-12.93,19.24-36.26,7.25-34.69,17.34-82.62,64.96-82.62,42.25,0,70.32,31.22,70.32,87.66,0,42.57-13.24,72.21-33.42,93.34l-40.68-28.7Z"/>
    <path class="cls-1" d="M233.24,718.75l-31.85,10.72v87.34l31.85,10.72v58.97l-210.32-79.15v-68.11l210.32-79.46v58.97ZM70.21,773.3l85.45,29.33v-58.96l-85.45,29.64Z"/>
    <path class="cls-1" d="M233.24,513.78l-127.08,88.92h127.08v54.24H22.92v-55.81l121.08-85.14H22.92v-54.55h210.32v52.34Z"/>
    <path class="cls-1" d="M233.24,436.21H22.92v-88.29c0-66.22,39.73-113.83,105-113.83s105.32,47.61,105.32,113.52v88.61ZM185.94,381.98v-34.06c0-36.89-26.8-58.33-58.02-58.33s-57.7,19.55-57.7,58.02v34.37h115.72Z"/>
    <path class="cls-1" d="M233.24,162.2h-84.82L22.92,241.98v-61.17l77.57-45.72L22.92,89.99V28.5l125.5,79.46h84.82v54.24Z"/>
    <path class="cls-1" d="M433.24,901h-84.51v87.35h84.51v54.23h-210.32v-54.23h78.52v-87.35h-78.52v-54.23h210.32v54.23Z"/>
    <path class="cls-1" d="M222.92,821.54v-55.18h123.29c24.91,0,42.88-13.24,42.88-42.57s-17.97-42.25-42.88-42.25h-123.29v-55.18h124.87c52.34,0,89.24,29.96,89.24,97.44s-37.21,97.75-88.92,97.75h-125.18Z"/>
    <path class="cls-1" d="M219.45,498.01c0-46.04,22.7-74.42,48.88-89.87l23.96,45.41c-13.87,8.51-24.91,24.59-24.91,44.46,0,34.37,26.49,58.65,60.86,58.65s60.86-24.28,60.86-58.65c0-16.4-5.68-31.22-12.61-39.73h-17.66v48.24h-45.09v-101.53h82.3c24.91,22.7,40.99,53.29,40.99,93.02,0,62.75-41.94,113.83-108.79,113.83s-108.79-51.08-108.79-113.83Z"/>
    <path class="cls-1" d="M433.24,244.18h-84.51v87.34h84.51v54.24h-210.32v-54.24h78.52v-87.34h-78.52v-54.24h210.32v54.24Z"/>
    <path class="cls-1" d="M633.24,1042.58h-210.32v-154.19h45.72v99.96h35v-97.75h46.04v97.75h37.84v-99.96h45.72v154.19Z"/>
    <path class="cls-1" d="M562.92,855.91c15.14-15.13,27.75-38.47,27.75-67.16,0-18.6-7.88-29.96-17.97-29.96-11.98,0-16.71,13.56-21.44,35.95-6.94,34.69-15.77,83.24-65.59,83.24-35.32,0-65.9-29.96-65.9-83.88,0-33.74,10.09-63.06,29.33-85.45l38.78,29.64c-14.5,17.66-21.76,40.68-21.76,59.28s7.25,24.91,16.4,24.91c11.04,0,14.82-12.93,19.24-36.26,7.25-34.69,17.34-82.62,64.96-82.62,42.25,0,70.32,31.22,70.32,87.66,0,42.57-13.24,72.21-33.42,93.34l-40.68-28.7Z"/>
  </g>
</svg>