<?xml version="1.0" encoding="UTF-8"?>
<svg id="Layer_2" data-name="Layer 2" xmlns="http://www.w3.org/2000/svg" viewBox="0 0 623.35 1021.36">
  <defs>
    <style>
      .cls-1 {
        fill: #fff;
      }
    </style>
  </defs>
  <g id="Home_Page_Text_copy" data-name="Home Page Text copy">
    <g id="Basteleur">
      <g>
        <path d="M205.71,926.51c0-28.48-12.57-45.8-29.88-45.8-21.5,0-36.3,18.15-56.69,65.34-18.71,43.56-39.09,61.71-66.18,61.71-34.91,0-52.5-34.91-52.5-68.42,0-27.09,7.26-33.51,7.26-69.25,22.9,2.23,43.28,1.95,65.9-.56l1.4,6.42c-46.91,13.68-63.39,41.89-63.39,67.02,0,20.67,12.29,40.21,30.16,40.21,21.78,0,36.86-18.71,55.01-59.2,21.78-48.59,38.26-67.3,66.74-67.3,31.56,0,53.34,22.9,53.34,77.63,0,24.29-2.23,48.87-11.45,78.19-16.2-6.42-50.54-7.54-69.25-3.63l-2.23-6.98c54.17-17.04,71.77-46.08,71.77-75.4Z"/>
        <path class="cls-1" d="M205.73,1013.14l-.47-.18c-16.49-6.54-51.22-7.32-68.99-3.61l-.41.08-2.5-7.83.45-.14c25.23-7.93,44.07-19.02,55.99-32.95,10.26-11.99,15.46-26.12,15.46-42,0-27.11-11.82-45.33-29.41-45.33-20.79,0-35.51,17.03-56.26,65.06-18.41,42.88-38.96,62-66.61,62-34.77,0-52.96-34.65-52.96-68.88,0-12.65,1.58-20.84,3.26-29.52,1.97-10.16,4-20.67,4-39.74v-.51l.51.05c22.38,2.18,42.68,2.01,65.81-.56l.42-.05,1.58,7.26-.42.12c-56.91,16.6-63.06,52.08-63.06,66.57,0,19.12,11.35,39.75,29.69,39.75,23.46,0,38.28-22.55,54.59-58.93,22.65-50.52,39.6-67.58,67.17-67.58,16.63,0,29.71,6.22,38.87,18.48,9.91,13.26,14.93,33.31,14.93,59.62,0,29.32-3.43,52.75-11.47,78.33l-.15.48ZM163.08,1006.14c15.37,0,31.77,1.83,42.06,5.77,7.9-25.3,11.28-48.54,11.28-77.58,0-26.1-4.96-45.97-14.74-59.06-8.98-12.01-21.8-18.1-38.13-18.1-27.12,0-43.85,16.91-66.32,67.02-16.46,36.72-31.48,59.48-55.44,59.48-18.92,0-30.62-21.12-30.62-40.68,0-14.66,6.18-50.52,63.31-67.34l-1.21-5.59c-22.85,2.51-42.96,2.69-65.07.56-.04,18.83-2.06,29.29-4.01,39.4-1.67,8.63-3.25,16.78-3.25,29.34,0,33.77,17.87,67.95,52.03,67.95,27.23,0,47.51-18.95,65.75-61.43,20.93-48.45,35.88-65.63,57.12-65.63,18.15,0,30.35,18.59,30.35,46.26,0,16.11-5.28,30.45-15.68,42.61-11.96,13.98-30.79,25.12-55.97,33.09l1.96,6.14c7.14-1.45,16.65-2.21,26.58-2.21Z"/>
      </g>
      <g>
        <path d="M2.42,772.09c0-27.09,8.94-46.63,27.92-59.48-6.98-15.36-12.01-29.32-15.08-40.77l6.14-5.03c16.2,25.41,35.74,34.91,92.15,27.37,39.1-5.31,77.91-20.67,91.87-38.82l7.26,3.63v44.68c-20.66,1.4-38.82,3.63-83.78,10.05,82.1,25.97,98.3,99.41,81.26,123.15-13.68,18.43-65.34,19.83-118.96-33.51-17.31-17.87-35.19-41.89-49.15-67.3-26.53,19.83-30.44,54.73-8.38,100.53l-7.82,3.91c-14.8-19.55-23.46-40.21-23.46-68.42ZM154.89,741.65c-18.99-14.52-39.93-25.69-69.53-21.78-13.4,1.95-24.57,5.31-34.07,10.33,14.8,24.57,31.56,46.63,47.47,61.71,27.65,26.25,76.52,37.42,87.96,20.11,12.01-17.87-5.03-49.71-31.83-70.37Z"/>
        <path class="cls-1" d="M179.92,848.91c-27.4,0-60.27-16.6-89.03-45.21-17.79-18.36-35.61-42.73-48.97-66.93-26.34,20.04-29.12,55.4-7.81,99.63l.2.41-8.57,4.29-.23-.31c-16.29-21.51-23.55-42.7-23.55-68.7,0-27.32,9.1-46.84,27.8-59.64-6.55-14.45-11.71-28.44-14.94-40.49l-.08-.29,6.78-5.55.28.44c15.35,24.09,33.75,34.9,91.7,27.16,40.66-5.52,78.31-21.41,91.57-38.64l.23-.3,7.86,3.93v45.4l-.43.03c-19.9,1.34-36.9,3.37-81.75,9.76,57.28,18.86,76,58.47,81.42,74.75,6.34,19.07,5.62,38.1-1.84,48.49-4.9,6.59-14.06,10.71-25.8,11.58-1.59.12-3.21.18-4.84.18ZM42.22,735.37l.26.47c13.35,24.29,31.23,48.78,49.08,67.2,30.28,30.12,65.1,46.87,93.14,44.76,11.3-.84,20.46-4.93,25.11-11.2,7.28-10.15,7.96-28.86,1.71-47.65-5.43-16.33-24.36-56.32-82.74-74.78l.07-.9c46.03-6.58,63.35-8.66,83.38-10.03v-43.96l-6.66-3.33c-13.6,17.29-51.3,33.17-91.94,38.69-58.09,7.77-76.82-3.03-92.33-27.14l-5.51,4.51c3.25,12.03,8.43,26,14.98,40.41l.16.36-.33.22c-18.65,12.62-27.72,31.95-27.72,59.09,0,25.66,7.14,46.59,23.13,67.83l7.06-3.53c-21.42-44.73-18.33-80.48,8.72-100.69l.43-.32ZM165.21,820.81c-20.99,0-49.14-11.82-66.77-28.56-15.5-14.69-32.39-36.64-47.55-61.81l-.25-.42.43-.23c9.46-5.01,20.65-8.4,34.22-10.38,31.03-4.09,52.73,8.76,69.88,21.87h0c25.23,19.45,44.62,52.13,31.94,71-2.98,4.5-8.62,7.35-16.32,8.23-1.79.2-3.66.3-5.58.3ZM51.94,730.38c15.05,24.93,31.78,46.64,47.14,61.19,19.07,18.11,50.52,30.4,71.6,28.01,7.42-.85,12.83-3.55,15.65-7.82,12.38-18.43-6.83-50.55-31.73-69.75-17.85-13.65-38.59-25.73-69.19-21.69-13.25,1.93-24.2,5.22-33.48,10.05Z"/>
      </g>
      <g>
        <path d="M161.87,614.59h-95.22c-35.19,0-46.08,7.26-56.13,29.6l-7.82-1.12c1.12-11.17,1.95-17.87,1.95-25.41,0-6.98-1.12-13.96-2.23-20.38l165.04-139.91H55.48c-24.02,0-34.91,5.86-44.96,33.79l-7.82-1.12c1.68-18.71,1.96-29.6,1.96-38.26s-.56-18.99-1.95-32.67l7.82-1.12c10.33,22.34,20.94,28.2,44.96,28.2h157.5l5.03,8.66-175.37,148.56h119.24c24.02,0,34.63-5.86,44.96-33.79l7.82,1.12c-1.4,18.15-1.95,31-1.95,40.77,0,10.61.56,15.92,1.95,31.56l-7.82,1.12c-10.05-22.34-20.94-29.6-44.96-29.6Z"/>
        <path class="cls-1" d="M206.55,644.7l-.14-.32c-9.99-22.2-20.81-29.33-44.54-29.33h-95.22c-31.37,0-44.5,4.43-55.71,29.33l-.14.32-8.61-1.23.04-.44c.18-1.82.36-3.52.52-5.12.83-8.1,1.43-13.96,1.43-20.24,0-6.92-1.1-13.82-2.23-20.3l-.05-.26.2-.17,164.07-139.08H55.48c-22.9,0-34.14,4.65-44.52,33.48l-.13.36-8.63-1.23.04-.44c1.72-19.22,1.95-30.1,1.95-38.22,0-9.2-.62-19.57-1.95-32.62l-.05-.44,8.6-1.23.15.31c10.02,21.67,20.01,27.93,44.54,27.93h157.77l5.36,9.23-174.7,147.99h117.97c22.66,0,33.85-4.65,44.52-33.49l.13-.35,8.62,1.23-.03.44c-1.31,17.09-1.95,30.41-1.95,40.73,0,9.75.48,15.08,1.63,27.96l.36,3.99-8.6,1.23ZM3.21,642.68l7.03,1c10.52-23.19,22.72-29.56,56.41-29.56h95.22c24.06,0,35.1,7.19,45.24,29.56l7.04-1.01-.28-3.11c-1.16-12.92-1.64-18.26-1.64-28.05s.63-23.47,1.92-40.37l-7.02-1c-10.82,29.04-22.24,33.74-45.27,33.74H41.36l.97-.82,175.07-148.31-4.7-8.09H55.48c-24.57,0-35.19-6.59-45.24-28.16l-7.03,1c1.3,12.88,1.91,23.14,1.91,32.27,0,8.07-.23,18.88-1.92,37.86l7.01,1c10.47-28.86,22.46-33.74,45.27-33.74h113.25L2.92,597.46c1.12,6.45,2.2,13.3,2.2,20.2,0,6.34-.6,12.21-1.44,20.34-.15,1.47-.31,3.02-.48,4.68Z"/>
      </g>
      <g>
        <path d="M212.7,362.99c0,8.94.56,22.9,1.95,39.93l-7.82,1.12c-7.26-22.34-18.15-28.2-39.37-28.2H49.89c-21.22,0-32.11,5.86-39.37,28.2l-7.82-1.12c1.4-17.03,1.95-31,1.95-39.93s0-25.97-1.12-44.96c-4.19-76.24,36.02-120.64,98.58-123.43,62.83-2.79,113.38,37.42,113.38,110.86,0,21.78-2.79,48.59-2.79,57.53ZM98.76,228.39c-58.64,6.42-85.45,42.73-84.05,89.08.84,25.97,13.96,33.23,35.19,33.23h109.19c29.6,0,45.24-7.54,45.24-44.68,0-59.2-46.64-84.05-105.56-77.63Z"/>
        <path class="cls-1" d="M206.51,404.55l-.12-.37c-6.78-20.85-16.6-27.88-38.93-27.88H49.89c-22.33,0-32.16,7.04-38.93,27.88l-.12.37-8.64-1.23.04-.44c1.24-15.15,1.95-29.69,1.95-39.9,0-9.07,0-25.96-1.12-44.93-2.13-38.73,7.21-70.76,27.01-92.64,17.32-19.14,42.22-29.96,72.01-31.29,32.3-1.44,61.38,8.57,81.87,28.17,20.93,20.02,31.99,48.78,31.99,83.16,0,13.29-1.02,28.26-1.85,40.28-.53,7.69-.94,13.77-.94,17.25,0,10.21.71,24.75,1.95,39.9l.04.44-8.64,1.23ZM49.89,375.37h117.56c22.7,0,32.77,7.12,39.7,28.15l7-1c-1.22-15.01-1.92-29.4-1.92-39.53,0-3.5.42-9.6.95-17.31.82-12.01,1.85-26.96,1.85-40.22,0-34.12-10.96-62.64-31.71-82.48-20.31-19.42-49.14-29.33-81.18-27.91-29.53,1.32-54.21,12.03-71.36,30.98-19.63,21.68-28.88,53.48-26.77,91.96,1.12,19,1.12,35.9,1.12,44.98,0,10.13-.7,24.52-1.92,39.53l7,1c6.93-21.04,16.99-28.15,39.7-28.15ZM159.08,351.17H49.89c-24.23,0-34.89-10.07-35.65-33.68-.72-23.81,6.07-44.5,19.63-59.84,14.69-16.62,36.51-26.62,64.84-29.72h0c34.66-3.78,64.07,3.4,82.82,20.22,15.43,13.84,23.25,33.31,23.25,57.87,0,18.15-3.71,29.78-11.68,36.62-6.97,5.98-17.14,8.52-34.02,8.52ZM98.81,228.85c-28.09,3.08-49.71,12.97-64.24,29.41-13.4,15.15-20.11,35.62-19.4,59.19.75,23.28,10.81,32.78,34.72,32.78h109.19c29.04,0,44.77-7.05,44.77-44.21,0-24.29-7.72-43.52-22.95-57.18-18.55-16.64-47.71-23.74-82.1-19.99h0Z"/>
      </g>
      <g>
        <path d="M4.65,173.93c0-9.49-.56-31.83-1.68-57.8l8.1-.84c3.35,32.11,18.15,34.63,38.26,22.62l67.58-39.93L47.66,56.09c-19.83-12.01-33.23-2.51-36.58,20.94l-8.1-1.12c1.12-14.8,1.68-25.69,1.68-35.19S4.1,19.23,2.98,1.92L11.08.52c8.1,17.87,21.78,32.95,42.17,45.52l74.84,45.8h39.37c21.22,0,31.83-5.86,39.37-33.79l7.82,1.12c-1.4,19.27-1.95,36.02-1.95,44.96s.56,22.9,1.95,45.52l-7.82,1.12c-7.26-27.92-18.15-33.79-39.37-33.79h-34.35l-83.5,50.54c-17.59,10.61-29.6,27.37-38.54,49.43l-8.1-1.12c.84-18.15,1.68-32.67,1.68-41.89Z"/>
        <path class="cls-1" d="M11.37,217.45l-8.88-1.23.02-.42c.19-4.22.39-8.24.57-12.04.62-12.72,1.1-22.76,1.1-29.83,0-9.07-.52-31.03-1.68-57.78l-.02-.44,9-.93.05.46c1.55,14.83,5.69,24.04,12.32,27.36,6.12,3.06,14.37,1.4,25.23-5.09l66.91-39.54L47.42,56.49c-8.66-5.24-16.45-6.49-22.53-3.61-6.94,3.28-11.55,11.66-13.35,24.22l-.07.46-8.99-1.24.03-.44c1.17-15.55,1.67-26.06,1.67-35.15S3.67,19.9,2.51,1.95l-.03-.42L11.35,0l.15.33c8.22,18.14,21.96,32.97,41.99,45.31l74.73,45.73h39.24c20.26,0,31.25-5,38.93-33.45l.11-.4,8.66,1.24-.03.43c-1.44,19.9-1.95,36.64-1.95,44.93,0,9.44.62,23.89,1.95,45.49l.03.43-8.66,1.24-.1-.4c-7.39-28.44-18.44-33.44-38.92-33.44h-34.22l-83.38,50.48c-16.63,10.03-28.81,25.66-38.35,49.2l-.14.34ZM3.46,215.42l7.32,1.01c9.59-23.55,21.86-39.23,38.59-49.31l83.61-50.61h34.48c20.43,0,32.21,5.23,39.72,33.73l6.98-1c-1.32-21.38-1.93-35.72-1.93-45.12,0-8.24.5-24.83,1.92-44.56l-6.98-1c-7.83,28.68-19.07,33.74-39.72,33.74h-39.51l-.11-.07L53,46.43C32.93,34.06,19.12,19.21,10.8,1.04l-7.33,1.26c1.14,17.74,1.65,29.6,1.65,38.43s-.49,19.45-1.64,34.78l7.21.99c1.89-12.63,6.66-21.09,13.8-24.48,6.38-3.02,14.47-1.76,23.41,3.66l69.92,42.29-68.25,40.33c-11.16,6.66-19.7,8.34-26.13,5.12-6.96-3.48-11.14-12.52-12.78-27.63l-7.2.75c1.14,26.57,1.66,48.35,1.66,57.39,0,7.09-.49,17.14-1.1,29.87-.18,3.67-.37,7.55-.55,11.61Z"/>
      </g>
      <g>
        <path d="M370.46,833.24h-52.5v125.94h52.5c21.22,0,31.83-5.86,39.37-28.21l7.82,1.12c-1.4,13.68-1.95,30.44-1.95,39.38s.56,22.9,1.95,39.93l-7.82,1.12c-7.26-22.34-18.15-28.2-39.37-28.2h-117.56c-21.22,0-32.11,5.86-39.37,28.2l-7.82-1.12c1.4-17.03,1.96-31,1.96-39.93s-.56-25.69-1.95-39.38l7.82-1.12c7.54,22.34,18.15,28.21,39.37,28.21h51.1v-125.94h-51.1c-21.22,0-32.11,5.86-39.37,28.2l-7.82-1.12c1.4-17.03,1.96-31,1.96-39.93s-.56-25.69-1.95-39.37l7.82-1.12c7.54,22.34,18.15,28.2,39.37,28.2h117.56c21.22,0,31.83-5.86,39.37-28.2l7.82,1.12c-1.4,13.68-1.95,30.44-1.95,39.37s.56,22.9,1.95,39.93l-7.82,1.12c-7.26-22.34-18.15-28.2-39.37-28.2Z"/>
        <path class="cls-1" d="M409.51,1013.04l-.12-.37c-6.78-20.85-16.6-27.88-38.93-27.88h-117.56c-22.33,0-32.16,7.04-38.93,27.88l-.12.37-8.64-1.24.04-.44c1.24-15.14,1.95-29.68,1.95-39.89s-.61-26.18-1.95-39.33l-.05-.44,8.64-1.24.12.37c7.12,21.11,16.59,27.89,38.93,27.89h50.64v-125.01h-50.64c-22.33,0-32.16,7.04-38.93,27.88l-.12.37-8.64-1.23.04-.44c1.24-15.14,1.95-29.68,1.95-39.89s-.61-26.18-1.95-39.33l-.05-.44,8.64-1.24.12.37c7.12,21.11,16.59,27.89,38.93,27.89h117.56c22.35,0,31.81-6.78,38.93-27.89l.12-.37,8.64,1.24-.05.44c-1.34,13.15-1.95,29.6-1.95,39.33,0,10.21.71,24.75,1.95,39.89l.04.44-8.64,1.23-.12-.37c-6.78-20.85-16.6-27.88-38.93-27.88h-52.03v125.01h52.03c22.35,0,31.81-6.78,38.93-27.89l.12-.37,8.64,1.24-.05.44c-1.34,13.15-1.95,29.6-1.95,39.33,0,10.21.71,24.75,1.95,39.89l.04.44-8.64,1.24ZM206.2,1011.01l7,1c6.93-21.04,16.99-28.15,39.7-28.15h117.56c22.7,0,32.77,7.12,39.7,28.15l7-1c-1.22-15.01-1.92-29.4-1.92-39.53s.6-25.87,1.91-38.98l-6.99-1c-7.19,21.04-17.25,28.16-39.69,28.16h-52.96v-126.87h52.96c22.7,0,32.77,7.12,39.7,28.15l7-1c-1.22-15.01-1.92-29.4-1.92-39.53s.6-25.87,1.91-38.98l-6.99-1c-7.19,21.04-17.25,28.15-39.69,28.15h-117.56c-22.44,0-32.5-7.11-39.69-28.15l-6.99,1c1.31,13.1,1.91,29.34,1.91,38.98,0,10.14-.7,24.52-1.92,39.53l7,1c6.93-21.04,16.99-28.15,39.7-28.15h51.57v126.87h-51.57c-22.44,0-32.5-7.11-39.69-28.16l-6.99,1c1.31,13.1,1.91,29.34,1.91,38.98,0,10.14-.7,24.52-1.92,39.53Z"/>
      </g>
      <g>
        <path d="M322.98,748.91h-70.09c-21.22,0-31.83,5.86-39.37,28.2l-7.82-1.12c1.68-22.34,1.96-33.51,1.96-45.24s-.84-24.02-1.95-43.84l8.38-1.12c7.26,33.51,17.59,37.98,38.82,37.98h63.95c49.99,0,77.91-23.74,77.91-65.9s-26.25-64.23-73.44-64.23h-48.87c-32.39,0-51.1,8.66-58.36,42.17l-8.38-1.12c1.12-19.83,1.96-33.79,1.96-42.73s-.56-22.9-1.95-36.58l7.82-1.12c7.54,22.34,26.53,28.21,58.92,28.21h54.45c60.32,0,93.55,29.04,92.99,80.98-.56,54.73-35.46,85.45-96.9,85.45Z"/>
        <path class="cls-1" d="M213.84,777.63l-8.63-1.23.03-.43c1.63-21.78,1.95-33.07,1.95-45.2,0-9.82-.6-20.28-1.44-34.76-.16-2.84-.34-5.85-.52-9.06l-.02-.43,9.23-1.23.09.42c7.34,33.9,17.82,37.61,38.36,37.61h63.95c24.75,0,44.06-5.73,57.4-17.03,13.3-11.27,20.05-27.55,20.05-48.41,0-41.12-25.92-63.76-72.98-63.76h-48.87c-30.16,0-50.37,6.99-57.91,41.8l-.09.42-9.23-1.23.31-5.45c.97-17.14,1.67-29.53,1.67-37.68s-.51-22.43-1.95-36.54l-.05-.44,8.64-1.24.12.37c7.84,23.22,28.19,27.89,58.48,27.89h54.45c32.5,0,57.12,8.23,73.18,24.46,13.71,13.86,20.53,33.04,20.28,56.99-.28,27.37-8.95,48.76-25.78,63.59-16.8,14.81-40.89,22.32-71.59,22.32h-70.09c-22.35,0-31.81,6.78-38.93,27.89l-.12.37ZM206.2,775.6l7.01,1c7.19-21.04,17.25-28.15,39.69-28.15h70.09c30.47,0,54.34-7.43,70.97-22.08,16.62-14.65,25.19-35.81,25.46-62.91.25-23.7-6.48-42.65-20.01-56.33-15.88-16.05-40.27-24.18-72.52-24.18h-54.45c-30.55,0-51.13-4.72-59.24-28.16l-6.99,1c1.41,13.99,1.91,27.84,1.91,36.18s-.7,20.57-1.67,37.73l-.26,4.59,7.53,1c7.74-35.05,28.22-42.12,58.73-42.12h48.87c47.66,0,73.91,22.98,73.91,64.69,0,21.14-6.85,37.67-20.38,49.12-13.51,11.45-33.03,17.25-58,17.25h-63.95c-21.74,0-32.03-5.29-39.18-37.93l-7.53,1c.17,3.04.34,5.91.49,8.62.83,14.5,1.44,24.97,1.44,34.81,0,12.07-.32,23.31-1.92,44.84Z"/>
      </g>
      <g>
        <path d="M311.54,554.27c-59.48,0-108.07-48.87-108.07-105.28,0-37.14,17.31-67.58,5.58-88.24l2.79-5.03c20.94,5.31,46.08,10.89,68.7,10.05l.84,6.98c-46.36,12.85-66.46,43.56-66.46,78.75,0,43,36.86,73.72,86.29,73.72,53.06,0,94.11-35.19,94.11-88.52,0-34.07-20.66-65.07-47.19-65.07-16.76,0-35.19,10.61-35.19,77.63h-11.17v-94.39l113.93-1.96v11.17l-41.05,4.47c26.25,12.29,45.24,46.36,45.24,83.22,0,58.92-47.75,102.48-108.35,102.48Z"/>
        <path class="cls-1" d="M311.54,554.74c-58.83,0-108.54-48.42-108.54-105.74,0-15.23,2.93-29.49,5.52-42.07,3.74-18.18,6.97-33.88.12-45.94l-.13-.23,3.09-5.57.35.09c21.42,5.43,46.31,10.86,68.56,10.04l.43-.02.94,7.8-.39.11c-42.64,11.81-66.12,39.62-66.12,78.3,0,42.45,36.09,73.26,85.82,73.26,25.96,0,49.63-8.57,66.64-24.14,17.67-16.17,27.01-38.27,27.01-63.92,0-35.02-21.4-64.6-46.73-64.6-14.9,0-34.72,8-34.72,77.17v.47h-12.1v-95.31l114.87-1.97v12.06l-39.86,4.34c26.01,13.09,44.05,46.9,44.05,82.93,0,28.45-11.22,54.61-31.6,73.68-20.18,18.88-47.6,29.27-77.22,29.27ZM209.58,360.75c6.85,12.33,3.61,28.11-.15,46.36-2.58,12.54-5.5,26.75-5.5,41.89,0,56.81,49.28,104.81,107.6,104.81,29.38,0,56.58-10.31,76.58-29.02,20.19-18.89,31.3-44.81,31.3-73,0-36.35-18.49-70.4-44.97-82.8l-1.5-.7,42.29-4.6v-10.28l-113,1.94v93.46h10.24c.09-69.58,20.38-77.63,35.65-77.63,25.83,0,47.66,30.01,47.66,65.53,0,25.91-9.44,48.25-27.31,64.61-17.18,15.72-41.07,24.38-67.27,24.38-50.27,0-86.75-31.2-86.75-74.19,0-18.5,5.37-34.66,15.95-48.04,11.4-14.42,28.38-24.86,50.47-31.05l-.74-6.16c-22.12.75-46.78-4.61-68.05-9.99l-2.49,4.49Z"/>
      </g>
      <g>
        <path d="M370.46,154.11h-52.5v125.94h52.5c21.22,0,31.83-5.86,39.37-28.2l7.82,1.12c-1.4,13.68-1.95,30.44-1.95,39.37s.56,22.9,1.95,39.93l-7.82,1.12c-7.26-22.34-18.15-28.2-39.37-28.2h-117.56c-21.22,0-32.11,5.86-39.37,28.2l-7.82-1.12c1.4-17.03,1.96-31,1.96-39.93s-.56-25.69-1.95-39.37l7.82-1.12c7.54,22.34,18.15,28.2,39.37,28.2h51.1v-125.94h-51.1c-21.22,0-32.11,5.86-39.37,28.2l-7.82-1.12c1.4-17.03,1.96-31,1.96-39.93s-.56-25.69-1.95-39.37l7.82-1.12c7.54,22.34,18.15,28.2,39.37,28.2h117.56c21.22,0,31.83-5.86,39.37-28.2l7.82,1.12c-1.4,13.68-1.95,30.44-1.95,39.37s.56,22.9,1.95,39.93l-7.82,1.12c-7.26-22.34-18.15-28.2-39.37-28.2Z"/>
        <path class="cls-1" d="M409.51,333.91l-.12-.37c-6.78-20.85-16.6-27.88-38.93-27.88h-117.56c-22.33,0-32.16,7.04-38.93,27.88l-.12.37-8.64-1.23.04-.44c1.24-15.14,1.95-29.68,1.95-39.9s-.61-26.18-1.95-39.33l-.05-.44,8.64-1.24.12.37c7.12,21.11,16.59,27.89,38.93,27.89h50.64v-125.01h-50.64c-22.33,0-32.16,7.04-38.93,27.88l-.12.37-8.64-1.23.04-.44c1.24-15.14,1.95-29.68,1.95-39.89s-.61-26.18-1.95-39.33l-.05-.44,8.64-1.23.12.37c7.12,21.11,16.59,27.89,38.93,27.89h117.56c22.35,0,31.81-6.78,38.93-27.89l.12-.37,8.64,1.23-.05.44c-1.34,13.15-1.95,29.6-1.95,39.33,0,10.21.71,24.75,1.95,39.9l.04.44-8.64,1.23-.12-.37c-6.78-20.85-16.6-27.88-38.93-27.88h-52.03v125.01h52.03c22.35,0,31.81-6.78,38.93-27.89l.12-.37,8.64,1.23-.05.44c-1.34,13.15-1.95,29.6-1.95,39.33,0,10.21.71,24.75,1.95,39.9l.04.44-8.64,1.23ZM206.2,331.87l7,1c6.93-21.04,16.99-28.15,39.7-28.15h117.56c22.7,0,32.77,7.12,39.7,28.15l7-1c-1.22-15.01-1.92-29.4-1.92-39.53s.6-25.87,1.91-38.98l-6.99-1c-7.19,21.04-17.25,28.15-39.69,28.15h-52.96v-126.87h52.96c22.7,0,32.77,7.12,39.7,28.15l7-1c-1.22-15.01-1.92-29.4-1.92-39.53s.6-25.87,1.91-38.98l-6.99-1c-7.19,21.04-17.25,28.15-39.69,28.15h-117.56c-22.44,0-32.5-7.11-39.69-28.15l-6.99,1c1.31,13.1,1.91,29.34,1.91,38.98,0,10.14-.7,24.52-1.92,39.53l7,1c6.93-21.04,16.99-28.15,39.7-28.15h51.57v126.87h-51.57c-22.44,0-32.5-7.11-39.69-28.15l-6.99,1c1.31,13.1,1.91,29.34,1.91,38.98,0,10.14-.7,24.52-1.92,39.53Z"/>
      </g>
      <g>
        <path d="M514.54,1020.9c-59.48,0-108.07-48.87-108.07-105.28,0-34.35,17.31-60.6,5.58-81.26l2.79-3.91c20.94,5.31,46.08,9.77,68.7,8.94l.84,6.98c-46.36,12.85-66.46,39.37-66.46,74.56,0,40.21,36.86,70.93,86.29,70.93h.56v-56.97c0-20.11-7.26-36.02-33.79-39.1v-6.98c32.11-3.63,55.29-6.7,83.5-13.12l2.51,6.98c-32.95,13.12-41.05,27.37-41.05,49.43v59.2c47.19-5.31,82.38-41.05,82.38-85.17s-20.66-62.83-62.55-77.63l1.12-6.7c52.22,10.61,86.01,41.33,86.01,93.83,0,58.92-47.75,105.28-108.35,105.28Z"/>
        <path class="cls-1" d="M514.54,1021.36c-58.83,0-108.54-48.42-108.54-105.74,0-14.07,2.93-26.94,5.51-38.29,3.75-16.46,6.98-30.67.13-42.74l-.15-.26,3.15-4.41.31.08c18.01,4.56,44.52,9.81,68.56,8.92l.43-.02.94,7.8-.39.11c-43.88,12.16-66.12,37.09-66.12,74.11,0,40.17,36.9,70.46,85.82,70.46h.09v-56.5c0-23.72-10.61-36-33.38-38.63l-.41-.05v-7.81l.41-.05c34.05-3.85,56.3-6.93,83.44-13.12l.4-.09,2.81,7.79-.42.17c-34.09,13.58-40.76,28.25-40.76,48.99v58.68c47.23-5.54,81.45-41.07,81.45-84.65,0-39.72-17.45-61.37-62.24-77.19l-.37-.13,1.26-7.56.47.1c26.96,5.48,48.1,16.02,62.83,31.34,15.63,16.25,23.55,37.42,23.55,62.94,0,59.29-47.8,105.74-108.81,105.74ZM412.6,834.39c6.84,12.33,3.58,26.62-.18,43.15-2.57,11.3-5.49,24.11-5.49,38.08,0,56.81,49.28,104.81,107.6,104.81s107.88-46.04,107.88-104.81c0-25.27-7.84-46.23-23.29-62.3-14.51-15.09-35.33-25.51-61.87-30.98l-.97,5.84c44.96,15.97,62.49,37.85,62.49,77.94,0,44.23-34.82,80.24-82.79,85.63l-.52.06v-59.72c0-12.2,2.55-20.94,8.27-28.35,6.28-8.14,16.67-14.93,32.66-21.34l-2.22-6.17c-26.9,6.11-49.05,9.18-82.73,13v6.15c23.05,2.8,33.79,15.37,33.79,39.51v57.43h-1.02c-49.46,0-86.75-30.69-86.75-71.4,0-37.38,22.35-62.58,66.42-74.9l-.74-6.16c-23.9.82-50.14-4.36-68.09-8.89l-2.44,3.41Z"/>
      </g>
      <g>
        <path d="M611.71,721.83c0-28.48-12.57-45.8-29.88-45.8-21.5,0-36.3,18.15-56.69,65.34-18.71,43.56-39.09,61.71-66.18,61.71-34.91,0-52.5-34.91-52.5-68.42,0-27.09,7.26-33.51,7.26-69.25,22.9,2.23,43.28,1.95,65.9-.56l1.4,6.42c-46.91,13.68-63.39,41.89-63.39,67.02,0,20.67,12.29,40.21,30.16,40.21,21.78,0,36.86-18.71,55.01-59.2,21.78-48.59,38.26-67.3,66.74-67.3,31.56,0,53.34,22.9,53.34,77.63,0,24.29-2.23,48.87-11.45,78.19-16.2-6.42-50.54-7.54-69.25-3.63l-2.23-6.98c54.17-17.04,71.77-46.08,71.77-75.4Z"/>
        <path class="cls-1" d="M611.73,808.45l-.47-.18c-16.49-6.54-51.22-7.32-68.99-3.61l-.41.08-2.5-7.83.45-.14c25.23-7.93,44.07-19.02,55.99-32.95,10.26-11.99,15.46-26.12,15.46-42,0-27.11-11.82-45.33-29.41-45.33-20.79,0-35.51,17.03-56.26,65.06-18.41,42.88-38.96,62-66.61,62-34.77,0-52.96-34.65-52.96-68.88,0-12.65,1.58-20.84,3.26-29.52,1.97-10.16,4-20.67,4-39.74v-.51l.51.05c22.38,2.18,42.68,2.01,65.81-.56l.42-.05,1.58,7.26-.42.12c-56.91,16.6-63.06,52.08-63.06,66.57,0,19.12,11.35,39.75,29.69,39.75,23.46,0,38.28-22.55,54.59-58.93,22.65-50.52,39.6-67.58,67.17-67.58,16.63,0,29.71,6.22,38.87,18.48,9.91,13.26,14.93,33.31,14.93,59.62,0,29.32-3.43,52.75-11.47,78.33l-.15.48ZM569.08,801.45c15.37,0,31.77,1.83,42.06,5.77,7.9-25.3,11.28-48.54,11.28-77.58,0-26.1-4.96-45.97-14.74-59.06-8.98-12.01-21.8-18.1-38.13-18.1-27.12,0-43.85,16.91-66.32,67.02-16.46,36.72-31.48,59.48-55.44,59.48-18.92,0-30.62-21.12-30.62-40.68,0-14.66,6.18-50.52,63.31-67.34l-1.21-5.59c-22.85,2.51-42.96,2.69-65.07.56-.04,18.83-2.06,29.29-4.01,39.4-1.67,8.63-3.25,16.78-3.25,29.34,0,33.77,17.87,67.95,52.03,67.95,27.23,0,47.51-18.95,65.75-61.43,20.93-48.45,35.88-65.63,57.12-65.63,18.15,0,30.35,18.59,30.35,46.26,0,16.11-5.28,30.45-15.68,42.61-11.96,13.98-30.79,25.12-55.97,33.09l1.96,6.14c7.14-1.45,16.65-2.21,26.58-2.21Z"/>
      </g>
    </g>
  </g>
</svg>