<?xml version="1.0" encoding="UTF-8"?>
<svg id="Layer_2" data-name="Layer 2" xmlns="http://www.w3.org/2000/svg" viewBox="0 0 622.33 1013.71">
  <defs>
    <style>
      .cls-1 {
        fill: #fff;
      }
    </style>
  </defs>
  <g id="Home_Page_Text_copy" data-name="Home Page Text copy">
    <g id="Beast">
      <g>
        <path d="M169.03,1005.67v-76.21c0-4.79-3.91-7.62-10.54-7.62h-21.08c-6.62,0-10.54,2.83-10.54,7.62v45.72c0,4.79-3.91,7.62-10.54,7.62h-21.08c-6.62,0-10.54,2.83-10.54,7.62v15.24c0,4.79-3.91,7.62-10.54,7.62h-21.08c-6.62,0-10.54-2.83-10.54-7.62v-15.24c0-4.79-3.91-7.62-10.54-7.62H10.96c-6.62,0-10.54-2.83-10.54-7.62v-45.72c0-4.79,3.91-7.62,10.54-7.62h21.08c6.62,0,10.54-2.83,10.54-7.62v-15.24c0-4.79-3.91-7.62-10.54-7.62H10.96c-6.62,0-10.54-2.83-10.54-7.62v-15.24c0-4.79,3.91-7.62,10.54-7.62h63.23c6.62,0,10.54,2.83,10.54,7.62v47.25c0,3.92-4.82,6.1-10.54,6.1h-21.08c-6.62,0-10.54,2.83-10.54,7.62v45.72c0,4.79,3.91,7.62,10.54,7.62h21.08c6.62,0,10.54-2.83,10.54-7.62v-45.72c0-4.79,3.91-7.62,10.54-7.62h21.08c6.62,0,10.54-2.83,10.54-7.62v-45.72c0-4.79,3.91-7.62,10.54-7.62h21.08c6.62,0,10.54,2.83,10.54,7.62v15.24c0,4.79,3.91,7.62,10.54,7.62h21.08c6.62,0,10.54,2.83,10.54,7.62v106.69c0,4.79-3.91,7.62-10.54,7.62h-21.08c-6.62,0-10.54-2.83-10.54-7.62Z"/>
        <path class="cls-1" d="M200.65,1013.71h-21.08c-6.86,0-10.96-3.01-10.96-8.04v-76.21c0-4.57-3.69-7.2-10.11-7.2h-21.08c-6.43,0-10.11,2.62-10.11,7.2v45.72c0,5.04-4.1,8.04-10.96,8.04h-21.08c-6.43,0-10.11,2.62-10.11,7.2v15.24c0,5.04-4.1,8.04-10.96,8.04h-21.08c-6.86,0-10.96-3.01-10.96-8.04v-15.24c0-4.57-3.69-7.2-10.11-7.2H10.96c-6.86,0-10.96-3.01-10.96-8.04v-45.72c0-5.04,4.1-8.04,10.96-8.04h21.08c6.43,0,10.11-2.62,10.11-7.2v-15.24c0-4.57-3.69-7.2-10.11-7.2H10.96c-6.86,0-10.96-3.01-10.96-8.04v-15.24c0-5.04,4.1-8.04,10.96-8.04h63.23c6.86,0,10.96,3.01,10.96,8.04v47.25c0,3.9-4.41,6.52-10.96,6.52h-21.08c-6.43,0-10.11,2.62-10.11,7.2v45.72c0,4.57,3.69,7.2,10.11,7.2h21.08c6.43,0,10.11-2.62,10.11-7.2v-45.72c0-5.04,4.1-8.04,10.96-8.04h21.08c6.43,0,10.11-2.62,10.11-7.2v-45.72c0-5.04,4.1-8.04,10.96-8.04h21.08c6.86,0,10.96,3.01,10.96,8.04v15.24c0,4.57,3.69,7.2,10.11,7.2h21.08c6.86,0,10.96,3.01,10.96,8.04v106.69c0,5.04-4.1,8.04-10.96,8.04ZM137.42,921.42h21.08c6.86,0,10.96,3.01,10.96,8.04v76.21c0,4.57,3.69,7.2,10.11,7.2h21.08c6.43,0,10.11-2.62,10.11-7.2v-106.69c0-4.57-3.69-7.2-10.11-7.2h-21.08c-6.86,0-10.96-3.01-10.96-8.04v-15.24c0-4.57-3.69-7.2-10.11-7.2h-21.08c-6.43,0-10.11,2.62-10.11,7.2v45.72c0,5.04-4.1,8.04-10.96,8.04h-21.08c-6.43,0-10.11,2.62-10.11,7.2v45.72c0,5.04-4.1,8.04-10.96,8.04h-21.08c-6.86,0-10.96-3.01-10.96-8.04v-45.72c0-5.04,4.1-8.04,10.96-8.04h21.08c4.87,0,10.11-1.78,10.11-5.67v-47.25c0-4.57-3.69-7.2-10.11-7.2H10.96c-6.43,0-10.11,2.62-10.11,7.2v15.24c0,4.57,3.69,7.2,10.11,7.2h21.08c6.86,0,10.96,3.01,10.96,8.04v15.24c0,5.04-4.1,8.04-10.96,8.04H10.96c-6.43,0-10.11,2.62-10.11,7.2v45.72c0,4.57,3.69,7.2,10.11,7.2h21.08c6.86,0,10.96,3.01,10.96,8.04v15.24c0,4.57,3.69,7.2,10.11,7.2h21.08c6.43,0,10.11-2.62,10.11-7.2v-15.24c0-5.04,4.1-8.04,10.96-8.04h21.08c6.43,0,10.11-2.62,10.11-7.2v-45.72c0-5.04,4.1-8.04,10.96-8.04Z"/>
      </g>
      <g>
        <path d="M200.65,841.72h-63.23c-6.62,0-10.54-2.83-10.54-7.62v-15.24c0-4.79-3.91-7.62-10.54-7.62h-63.23c-6.62,0-10.54-2.83-10.54-7.62v-15.02c0-4.79-3.91-7.84-10.54-7.84H10.96c-6.62,0-10.54-2.61-10.54-7.4v-45.94c0-4.79,3.91-7.62,10.54-7.62h63.23c6.62,0,10.54-2.83,10.54-7.62v-15.02c0-4.79,3.91-7.84,10.54-7.84h63.23c6.62,0,10.54-2.61,10.54-7.4v-15.46c0-4.79,3.91-7.62,10.54-7.62h21.08c6.62,0,10.54,2.83,10.54,7.62v106.9c0,4.79-3.91,7.4-10.54,7.4h-21.08c-6.62,0-10.54-2.61-10.54-7.4v-15.46c0-4.79-3.91-7.62-10.54-7.62h-21.08c-6.62,0-10.54,2.83-10.54,7.62v15.46c0,4.79,3.91,7.4,10.54,7.4h21.08c6.62,0,10.54,3.05,10.54,7.84v15.02c0,4.79,3.91,7.62,10.54,7.62h21.08c6.62,0,10.54,2.83,10.54,7.62v15.24c0,4.79-3.91,7.62-10.54,7.62Z"/>
        <path class="cls-1" d="M200.65,842.15h-63.23c-6.86,0-10.96-3.01-10.96-8.04v-15.24c0-4.57-3.69-7.2-10.11-7.2h-63.23c-6.86,0-10.96-3.01-10.96-8.04v-15.02c0-4.64-3.78-7.42-10.11-7.42H10.96c-6.97,0-10.96-2.85-10.96-7.83v-45.94c0-5.04,4.1-8.04,10.96-8.04h63.23c6.43,0,10.11-2.62,10.11-7.2v-15.02c0-5.1,4.2-8.26,10.96-8.26h63.23c6.52,0,10.11-2.48,10.11-6.98v-15.46c0-5.04,4.1-8.04,10.96-8.04h21.08c6.86,0,10.96,3.01,10.96,8.04v106.9c0,4.97-4,7.83-10.96,7.83h-21.08c-6.97,0-10.96-2.85-10.96-7.83v-15.46c0-4.57-3.69-7.2-10.11-7.2h-21.08c-6.43,0-10.11,2.62-10.11,7.2v15.46c0,4.5,3.59,6.98,10.11,6.98h21.08c6.76,0,10.96,3.17,10.96,8.26v15.02c0,4.57,3.69,7.2,10.11,7.2h21.08c6.86,0,10.96,3.01,10.96,8.04v15.24c0,5.04-4.1,8.04-10.96,8.04ZM10.96,720.22c-6.43,0-10.11,2.62-10.11,7.2v45.94c0,4.5,3.59,6.98,10.11,6.98h21.08c6.76,0,10.96,3.17,10.96,8.26v15.02c0,4.57,3.69,7.2,10.11,7.2h63.23c6.86,0,10.96,3.01,10.96,8.04v15.24c0,4.57,3.69,7.2,10.11,7.2h63.23c6.43,0,10.11-2.62,10.11-7.2v-15.24c0-4.57-3.69-7.2-10.11-7.2h-21.08c-6.86,0-10.96-3.01-10.96-8.04v-15.02c0-4.64-3.78-7.42-10.11-7.42h-21.08c-6.97,0-10.96-2.85-10.96-7.83v-15.46c0-5.04,4.1-8.04,10.96-8.04h21.08c6.86,0,10.96,3.01,10.96,8.04v15.46c0,4.5,3.59,6.98,10.11,6.98h21.08c6.52,0,10.11-2.48,10.11-6.98v-106.9c0-4.57-3.69-7.2-10.11-7.2h-21.08c-6.43,0-10.11,2.62-10.11,7.2v15.46c0,4.97-4,7.83-10.96,7.83h-63.23c-6.33,0-10.11,2.77-10.11,7.41v15.02c0,5.04-4.1,8.04-10.96,8.04H10.96Z"/>
      </g>
      <g>
        <path d="M200.65,639.67h-21.08c-6.62,0-10.54-2.83-10.54-7.62v-15.24c0-4.79-3.91-7.62-10.54-7.62H53.11c-6.62,0-10.54,2.83-10.54,7.62v15.24c0,4.79-3.91,7.62-10.54,7.62H10.96c-6.62,0-10.54-2.83-10.54-7.62v-45.72c0-4.79,3.91-7.62,10.54-7.62h21.08c6.62,0,10.54-2.83,10.54-7.62v-15.24c0-4.79,3.91-7.62,10.54-7.62h21.08c6.62,0,10.54-2.83,10.54-7.62v-15.24c0-4.79,3.91-7.62,10.54-7.62h21.08c6.62,0,10.54-2.83,10.54-7.62v-15.24c0-4.79-3.91-7.62-10.54-7.62h-63.23c-6.62,0-10.54,2.83-10.54,7.62v15.24c0,4.79-3.91,7.62-10.54,7.62H10.96c-6.62,0-10.54-2.83-10.54-7.62v-76.2c0-4.79,3.91-7.62,10.54-7.62h21.08c6.62,0,10.54,2.83,10.54,7.62v15.24c0,4.79,3.91,7.62,10.54,7.62h105.38c6.62,0,10.54-2.83,10.54-7.62v-15.24c0-4.79,3.91-7.62,10.54-7.62h21.08c6.62,0,10.54,2.83,10.54,7.62v45.72c0,4.79-3.91,7.62-10.54,7.62h-21.08c-6.62,0-10.54,2.83-10.54,7.62v15.24c0,4.79-3.91,7.62-10.54,7.62h-21.08c-6.62,0-10.54,2.83-10.54,7.62v15.24c0,4.79,3.91,7.62,10.54,7.62h63.23c6.62,0,10.54,2.83,10.54,7.62v76.21c0,4.79-3.91,7.62-10.54,7.62Z"/>
        <path class="cls-1" d="M200.65,640.1h-21.08c-6.86,0-10.96-3.01-10.96-8.04v-15.24c0-4.57-3.69-7.2-10.11-7.2H53.11c-6.43,0-10.11,2.62-10.11,7.2v15.24c0,5.04-4.1,8.04-10.96,8.04H10.96c-6.86,0-10.96-3.01-10.96-8.04v-45.72c0-5.04,4.1-8.04,10.96-8.04h21.08c6.43,0,10.11-2.62,10.11-7.2v-15.24c0-5.04,4.1-8.04,10.96-8.04h21.08c6.43,0,10.11-2.62,10.11-7.2v-15.24c0-5.04,4.1-8.04,10.96-8.04h21.08c6.43,0,10.11-2.62,10.11-7.2v-15.24c0-4.57-3.69-7.2-10.11-7.2h-63.23c-6.43,0-10.11,2.62-10.11,7.2v15.24c0,5.04-4.1,8.04-10.96,8.04H10.96c-6.86,0-10.96-3.01-10.96-8.04v-76.2c0-5.04,4.1-8.04,10.96-8.04h21.08c6.86,0,10.96,3.01,10.96,8.04v15.24c0,4.57,3.69,7.2,10.11,7.2h105.38c6.43,0,10.11-2.62,10.11-7.2v-15.24c0-5.04,4.1-8.04,10.96-8.04h21.08c6.86,0,10.96,3.01,10.96,8.04v45.72c0,5.04-4.1,8.04-10.96,8.04h-21.08c-6.43,0-10.11,2.62-10.11,7.2v15.24c0,5.04-4.1,8.04-10.96,8.04h-21.08c-6.43,0-10.11,2.62-10.11,7.2v15.24c0,4.57,3.69,7.2,10.11,7.2h63.23c6.86,0,10.96,3.01,10.96,8.04v76.21c0,5.04-4.1,8.04-10.96,8.04ZM53.11,608.77h105.38c6.86,0,10.96,3.01,10.96,8.04v15.24c0,4.57,3.69,7.2,10.11,7.2h21.08c6.43,0,10.11-2.62,10.11-7.2v-76.21c0-4.57-3.69-7.2-10.11-7.2h-63.23c-6.86,0-10.96-3.01-10.96-8.04v-15.24c0-5.04,4.1-8.04,10.96-8.04h21.08c6.43,0,10.11-2.62,10.11-7.2v-15.24c0-5.04,4.1-8.04,10.96-8.04h21.08c6.43,0,10.11-2.62,10.11-7.2v-45.72c0-4.57-3.69-7.2-10.11-7.2h-21.08c-6.43,0-10.11,2.62-10.11,7.2v15.24c0,5.04-4.1,8.04-10.96,8.04H53.11c-6.86,0-10.96-3.01-10.96-8.04v-15.24c0-4.57-3.69-7.2-10.11-7.2H10.96c-6.43,0-10.11,2.62-10.11,7.2v76.2c0,4.57,3.69,7.2,10.11,7.2h21.08c6.43,0,10.11-2.62,10.11-7.2v-15.24c0-5.04,4.1-8.04,10.96-8.04h63.23c6.86,0,10.96,3.01,10.96,8.04v15.24c0,5.04-4.1,8.04-10.96,8.04h-21.08c-6.43,0-10.11,2.62-10.11,7.2v15.24c0,5.04-4.1,8.04-10.96,8.04h-21.08c-6.43,0-10.11,2.62-10.11,7.2v15.24c0,5.04-4.1,8.04-10.96,8.04H10.96c-6.43,0-10.11,2.62-10.11,7.2v45.72c0,4.57,3.69,7.2,10.11,7.2h21.08c6.43,0,10.11-2.62,10.11-7.2v-15.24c0-5.04,4.1-8.04,10.96-8.04Z"/>
      </g>
      <g>
        <path d="M200.65,407.14h-21.08c-6.62,0-10.54-2.83-10.54-7.62v-15.24c0-4.79-3.91-7.62-10.54-7.62H53.11c-6.62,0-10.54,2.83-10.54,7.62v15.24c0,4.79-3.91,7.62-10.54,7.62H10.96c-6.62,0-10.54-2.83-10.54-7.62v-137.17c0-4.79,3.91-7.62,10.54-7.62h21.08c6.62,0,10.54-2.83,10.54-7.62v-15.24c0-4.79,3.91-7.62,10.54-7.62h105.38c6.62,0,10.54,2.83,10.54,7.62v15.24c0,4.79,3.91,7.62,10.54,7.62h21.08c6.62,0,10.54,2.83,10.54,7.62v137.17c0,4.79-3.91,7.62-10.54,7.62ZM169.03,308.07v-45.72c0-4.79-3.91-7.62-10.54-7.62H53.11c-6.62,0-10.54,2.83-10.54,7.62v45.72c0,4.79,3.91,7.62,10.54,7.62h105.38c6.62,0,10.54-2.83,10.54-7.62Z"/>
        <path class="cls-1" d="M200.65,407.56h-21.08c-6.86,0-10.96-3.01-10.96-8.04v-15.24c0-4.57-3.69-7.2-10.11-7.2H53.11c-6.43,0-10.11,2.62-10.11,7.2v15.24c0,5.04-4.1,8.04-10.96,8.04H10.96c-6.86,0-10.96-3.01-10.96-8.04v-137.17c0-5.04,4.1-8.04,10.96-8.04h21.08c6.43,0,10.11-2.62,10.11-7.2v-15.24c0-5.04,4.1-8.04,10.96-8.04h105.38c6.86,0,10.96,3.01,10.96,8.04v15.24c0,4.57,3.69,7.2,10.11,7.2h21.08c6.86,0,10.96,3.01,10.96,8.04v137.17c0,5.04-4.1,8.04-10.96,8.04ZM53.11,376.23h105.38c6.86,0,10.96,3.01,10.96,8.04v15.24c0,4.57,3.69,7.2,10.11,7.2h21.08c6.43,0,10.11-2.62,10.11-7.2v-137.17c0-4.57-3.69-7.2-10.11-7.2h-21.08c-6.86,0-10.96-3.01-10.96-8.04v-15.24c0-4.57-3.69-7.2-10.11-7.2H53.11c-6.43,0-10.11,2.62-10.11,7.2v15.24c0,5.04-4.1,8.04-10.96,8.04H10.96c-6.43,0-10.11,2.62-10.11,7.2v137.17c0,4.57,3.69,7.2,10.11,7.2h21.08c6.43,0,10.11-2.62,10.11-7.2v-15.24c0-5.04,4.1-8.04,10.96-8.04ZM158.5,316.12H53.11c-6.86,0-10.96-3.01-10.96-8.04v-45.72c0-5.04,4.1-8.04,10.96-8.04h105.38c6.86,0,10.96,3.01,10.96,8.04v45.72c0,5.04-4.1,8.04-10.96,8.04ZM53.11,255.15c-6.43,0-10.11,2.62-10.11,7.2v45.72c0,4.57,3.69,7.2,10.11,7.2h105.38c6.43,0,10.11-2.62,10.11-7.2v-45.72c0-4.57-3.69-7.2-10.11-7.2H53.11Z"/>
      </g>
      <g>
        <path d="M200.65,152.83h-21.08c-6.62,0-10.54-2.83-10.54-7.62v-15.24c0-4.79-3.91-7.62-10.54-7.62h-21.08c-6.62,0-10.54,2.83-10.54,7.62v15.24c0,4.79-3.91,7.62-10.54,7.62h-21.08c-6.62,0-10.54,2.83-10.54,7.62v15.24c0,4.79-3.91,7.62-10.54,7.62h-21.08c-6.62,0-10.54,2.83-10.54,7.62v15.24c0,4.79-3.91,7.62-10.54,7.62H10.96c-6.62,0-10.54-2.83-10.54-7.62v-76.2c0-4.79,3.91-7.62,10.54-7.62h21.08c6.62,0,10.54,2.83,10.54,7.62v15.24c0,4.79,3.91,7.62,10.54,7.62h21.08c6.62,0,10.54-2.83,10.54-7.62v-45.72c0-4.79-3.91-7.62-10.54-7.62H10.96c-6.62,0-10.54-2.83-10.54-7.62V8.04C.42,3.25,4.34.42,10.96.42h21.08c6.62,0,10.54,2.83,10.54,7.62v15.24c0,4.79,3.91,7.62,10.54,7.62h21.08c6.62,0,10.54,2.83,10.54,7.62v15.24c0,4.79,3.91,7.62,10.54,7.62h21.08c6.62,0,10.54,2.83,10.54,7.62v15.24c0,4.79,3.91,7.62,10.54,7.62h21.08c6.62,0,10.54-2.83,10.54-7.62v-15.24c0-4.79,3.91-7.62,10.54-7.62h21.08c6.62,0,10.54,2.83,10.54,7.62v76.2c0,4.79-3.91,7.62-10.54,7.62Z"/>
        <path class="cls-1" d="M32.04,214.22H10.96c-6.86,0-10.96-3.01-10.96-8.04v-76.2c0-5.04,4.1-8.04,10.96-8.04h21.08c6.86,0,10.96,3.01,10.96,8.04v15.24c0,4.57,3.69,7.2,10.11,7.2h21.08c6.43,0,10.11-2.62,10.11-7.2v-45.72c0-4.57-3.69-7.2-10.11-7.2H10.96c-6.86,0-10.96-3.01-10.96-8.04V8.04C0,3.01,4.1,0,10.96,0h21.08c6.86,0,10.96,3.01,10.96,8.04v15.24c0,4.57,3.69,7.2,10.11,7.2h21.08c6.86,0,10.96,3.01,10.96,8.04v15.24c0,4.57,3.69,7.2,10.11,7.2h21.08c6.86,0,10.96,3.01,10.96,8.04v15.24c0,4.57,3.69,7.2,10.11,7.2h21.08c6.43,0,10.11-2.62,10.11-7.2v-15.24c0-5.04,4.1-8.04,10.96-8.04h21.08c6.86,0,10.96,3.01,10.96,8.04v76.2c0,5.04-4.1,8.04-10.96,8.04h-21.08c-6.86,0-10.96-3.01-10.96-8.04v-15.24c0-4.57-3.69-7.2-10.11-7.2h-21.08c-6.43,0-10.11,2.62-10.11,7.2v15.24c0,5.04-4.1,8.04-10.96,8.04h-21.08c-6.43,0-10.11,2.62-10.11,7.2v15.24c0,5.04-4.1,8.04-10.96,8.04h-21.08c-6.43,0-10.11,2.62-10.11,7.2v15.24c0,5.04-4.1,8.04-10.96,8.04ZM10.96,122.78c-6.43,0-10.11,2.62-10.11,7.2v76.2c0,4.57,3.69,7.2,10.11,7.2h21.08c6.43,0,10.11-2.62,10.11-7.2v-15.24c0-5.04,4.1-8.04,10.96-8.04h21.08c6.43,0,10.11-2.62,10.11-7.2v-15.24c0-5.04,4.1-8.04,10.96-8.04h21.08c6.43,0,10.11-2.62,10.11-7.2v-15.24c0-5.04,4.1-8.04,10.96-8.04h21.08c6.86,0,10.96,3.01,10.96,8.04v15.24c0,4.57,3.69,7.2,10.11,7.2h21.08c6.43,0,10.11-2.62,10.11-7.2v-76.2c0-4.57-3.69-7.2-10.11-7.2h-21.08c-6.43,0-10.11,2.62-10.11,7.2v15.24c0,5.04-4.1,8.04-10.96,8.04h-21.08c-6.86,0-10.96-3.01-10.96-8.04v-15.24c0-4.57-3.69-7.2-10.11-7.2h-21.08c-6.86,0-10.96-3.01-10.96-8.04v-15.24c0-4.57-3.69-7.2-10.11-7.2h-21.08c-6.86,0-10.96-3.01-10.96-8.04v-15.24c0-4.57-3.69-7.2-10.11-7.2H10.96C4.54.85.85,3.47.85,8.04v76.2c0,4.57,3.69,7.2,10.11,7.2h63.23c6.86,0,10.96,3.01,10.96,8.04v45.72c0,5.04-4.1,8.04-10.96,8.04h-21.08c-6.86,0-10.96-3.01-10.96-8.04v-15.24c0-4.57-3.69-7.2-10.11-7.2H10.96Z"/>
      </g>
      <g>
        <path d="M406.01,1013.29h-21.08c-6.62,0-10.54-2.83-10.54-7.62v-15.24c0-4.79-3.91-7.62-10.54-7.62h-105.38c-6.62,0-10.54,2.83-10.54,7.62v15.24c0,4.79-3.91,7.62-10.54,7.62h-21.08c-6.62,0-10.54-2.83-10.54-7.62v-45.72c0-4.79,3.91-7.62,10.54-7.62h63.23c6.62,0,10.54-2.83,10.54-7.62v-45.72c0-4.79-3.91-7.62-10.54-7.62h-21.08c-6.62,0-10.54,2.83-10.54,7.62v15.24c0,4.79-3.91,7.62-10.54,7.62h-21.08c-6.62,0-10.54-2.83-10.54-7.62v-106.69c0-4.79,3.91-7.62,10.54-7.62h21.08c6.62,0,10.54,2.83,10.54,7.62v15.24c0,4.79,3.91,7.62,10.54,7.62h105.38c6.62,0,10.54-2.83,10.54-7.62v-15.24c0-4.79,3.91-7.62,10.54-7.62h21.08c6.62,0,10.54,2.83,10.54,7.62v106.69c0,4.79-3.91,7.62-10.54,7.62h-21.08c-6.62,0-10.54-2.83-10.54-7.62v-15.24c0-4.79-3.91-7.62-10.54-7.62h-21.08c-6.62,0-10.54,2.83-10.54,7.62v45.72c0,4.79,3.91,7.62,10.54,7.62h63.23c6.62,0,10.54,2.83,10.54,7.62v45.72c0,4.79-3.91,7.62-10.54,7.62Z"/>
        <path class="cls-1" d="M406.01,1013.71h-21.08c-6.86,0-10.96-3.01-10.96-8.04v-15.24c0-4.57-3.69-7.2-10.11-7.2h-105.38c-6.43,0-10.11,2.62-10.11,7.2v15.24c0,5.04-4.1,8.04-10.96,8.04h-21.08c-6.86,0-10.96-3.01-10.96-8.04v-45.72c0-5.04,4.1-8.04,10.96-8.04h63.23c6.43,0,10.11-2.62,10.11-7.2v-45.72c0-4.57-3.69-7.2-10.11-7.2h-21.08c-6.43,0-10.11,2.62-10.11,7.2v15.24c0,5.04-4.1,8.04-10.96,8.04h-21.08c-6.86,0-10.96-3.01-10.96-8.04v-106.69c0-5.04,4.1-8.04,10.96-8.04h21.08c6.86,0,10.96,3.01,10.96,8.04v15.24c0,4.57,3.69,7.2,10.11,7.2h105.38c6.43,0,10.11-2.62,10.11-7.2v-15.24c0-5.04,4.1-8.04,10.96-8.04h21.08c6.86,0,10.96,3.01,10.96,8.04v106.69c0,5.04-4.1,8.04-10.96,8.04h-21.08c-6.86,0-10.96-3.01-10.96-8.04v-15.24c0-4.57-3.69-7.2-10.11-7.2h-21.08c-6.43,0-10.11,2.62-10.11,7.2v45.72c0,4.57,3.69,7.2,10.11,7.2h63.23c6.86,0,10.96,3.01,10.96,8.04v45.72c0,5.04-4.1,8.04-10.96,8.04ZM258.48,982.39h105.38c6.86,0,10.96,3.01,10.96,8.04v15.24c0,4.57,3.69,7.2,10.11,7.2h21.08c6.43,0,10.11-2.62,10.11-7.2v-45.72c0-4.57-3.69-7.2-10.11-7.2h-63.23c-6.86,0-10.96-3.01-10.96-8.04v-45.72c0-5.04,4.1-8.04,10.96-8.04h21.08c6.86,0,10.96,3.01,10.96,8.04v15.24c0,4.57,3.69,7.2,10.11,7.2h21.08c6.43,0,10.11-2.62,10.11-7.2v-106.69c0-4.57-3.69-7.2-10.11-7.2h-21.08c-6.43,0-10.11,2.62-10.11,7.2v15.24c0,5.04-4.1,8.04-10.96,8.04h-105.38c-6.86,0-10.96-3.01-10.96-8.04v-15.24c0-4.57-3.69-7.2-10.11-7.2h-21.08c-6.43,0-10.11,2.62-10.11,7.2v106.69c0,4.57,3.69,7.2,10.11,7.2h21.08c6.43,0,10.11-2.62,10.11-7.2v-15.24c0-5.04,4.1-8.04,10.96-8.04h21.08c6.86,0,10.96,3.01,10.96,8.04v45.72c0,5.04-4.1,8.04-10.96,8.04h-63.23c-6.43,0-10.11,2.62-10.11,7.2v45.72c0,4.57,3.69,7.2,10.11,7.2h21.08c6.43,0,10.11-2.62,10.11-7.2v-15.24c0-5.04,4.1-8.04,10.96-8.04Z"/>
      </g>
      <g>
        <path d="M216.32,698.02h21.08c6.62,0,10.54,2.83,10.54,7.62v15.24c0,4.79,3.91,7.62,10.54,7.62h105.38c6.62,0,10.54-2.83,10.54-7.62v-45.72c0-4.79-3.91-7.62-10.54-7.62h-147.53c-6.62,0-10.54-2.83-10.54-7.62v-76.2c0-4.79,3.91-7.62,10.54-7.62h21.08c6.62,0,10.54,2.83,10.54,7.62v15.24c0,4.79,3.91,7.62,10.54,7.62h105.38c6.62,0,10.54,2.83,10.54,7.62v15.24c0,4.79,3.91,7.62,10.54,7.62h21.08c6.62,0,10.54,2.83,10.54,7.62v76.21c0,4.79-3.91,7.62-10.54,7.62h-21.08c-6.62,0-10.54,2.83-10.54,7.62v15.24c0,4.79-3.91,7.62-10.54,7.62h-105.38c-6.62,0-10.54,2.83-10.54,7.62v15.24c0,4.79-3.91,7.62-10.54,7.62h-21.08c-6.62,0-10.54-3.05-10.54-7.84v-75.99c0-4.79,3.91-7.62,10.54-7.62Z"/>
        <path class="cls-1" d="M237.4,789.89h-21.08c-6.76,0-10.96-3.17-10.96-8.26v-75.99c0-5.04,4.1-8.04,10.96-8.04h21.08c6.86,0,10.96,3.01,10.96,8.04v15.24c0,4.57,3.69,7.2,10.11,7.2h105.38c6.43,0,10.11-2.62,10.11-7.2v-45.72c0-4.57-3.69-7.2-10.11-7.2h-147.53c-6.86,0-10.96-3.01-10.96-8.04v-76.2c0-5.04,4.1-8.04,10.96-8.04h21.08c6.86,0,10.96,3.01,10.96,8.04v15.24c0,4.57,3.69,7.2,10.11,7.2h105.38c6.86,0,10.96,3.01,10.96,8.04v15.24c0,4.57,3.69,7.2,10.11,7.2h21.08c6.86,0,10.96,3.01,10.96,8.04v76.21c0,5.04-4.1,8.04-10.96,8.04h-21.08c-6.43,0-10.11,2.62-10.11,7.2v15.24c0,5.04-4.1,8.04-10.96,8.04h-105.38c-6.43,0-10.11,2.62-10.11,7.2v15.24c0,5.04-4.1,8.04-10.96,8.04ZM216.32,698.45c-6.43,0-10.11,2.62-10.11,7.2v75.99c0,4.64,3.78,7.41,10.11,7.41h21.08c6.43,0,10.11-2.62,10.11-7.2v-15.24c0-5.04,4.1-8.04,10.96-8.04h105.38c6.43,0,10.11-2.62,10.11-7.2v-15.24c0-5.04,4.1-8.04,10.96-8.04h21.08c6.43,0,10.11-2.62,10.11-7.2v-76.21c0-4.57-3.69-7.2-10.11-7.2h-21.08c-6.86,0-10.96-3.01-10.96-8.04v-15.24c0-4.57-3.69-7.2-10.11-7.2h-105.38c-6.86,0-10.96-3.01-10.96-8.04v-15.24c0-4.57-3.69-7.2-10.11-7.2h-21.08c-6.43,0-10.11,2.62-10.11,7.2v76.2c0,4.57,3.69,7.2,10.11,7.2h147.53c6.86,0,10.96,3.01,10.96,8.04v45.72c0,5.04-4.1,8.04-10.96,8.04h-105.38c-6.86,0-10.96-3.01-10.96-8.04v-15.24c0-4.57-3.69-7.2-10.11-7.2h-21.08Z"/>
      </g>
      <g>
        <path d="M363.56,574.35h-104.78c-6.02,0-10.84-3.48-10.84-7.84v-14.81c0-4.35-4.82-7.84-10.84-7.84h-20.47c-6.02,0-10.84-3.48-10.84-7.84v-45.29c0-4.35,4.82-7.84,10.84-7.84h20.47c6.02,0,10.84-3.48,10.84-7.84v-14.81c0-4.35-4.82-7.84-10.84-7.84h-20.47c-6.02,0-10.84-3.48-10.84-7.84v-14.81c0-4.35,4.82-7.84,10.84-7.84h62.63c6.02,0,10.84,3.48,10.84,7.84v45.29c0,4.35-4.82,7.84-10.84,7.84h-20.47c-6.02,0-10.84,3.48-10.84,7.84v14.81c0,4.35,4.82,7.84,10.84,7.84h104.78c6.02,0,10.84-3.48,10.84-7.84v-14.81c0-4.35-4.82-7.84-10.84-7.84h-20.47c-6.02,0-10.84-3.48-10.84-7.84v-75.77c0-4.35,4.82-7.84,10.84-7.84h20.47c6.02,0,10.84,3.48,10.84,7.84v14.81c0,4.35,4.82,7.84,10.84,7.84h20.47c6.02,0,10.84,3.48,10.84,7.84v106.25c0,4.35-4.82,7.84-10.84,7.84h-20.47c-6.02,0-10.84,3.48-10.84,7.84v14.81c0,4.35-4.82,7.84-10.84,7.84Z"/>
        <path class="cls-1" d="M363.56,574.78h-104.78c-6.32,0-11.26-3.63-11.26-8.26v-14.81c0-4.09-4.67-7.41-10.41-7.41h-20.47c-6.32,0-11.26-3.63-11.26-8.26v-45.29c0-4.63,4.95-8.26,11.26-8.26h20.47c5.74,0,10.41-3.33,10.41-7.41v-14.81c0-4.09-4.67-7.41-10.41-7.41h-20.47c-6.32,0-11.26-3.63-11.26-8.26v-14.81c0-4.63,4.95-8.26,11.26-8.26h62.63c6.32,0,11.26,3.63,11.26,8.26v45.29c0,4.63-4.95,8.26-11.26,8.26h-20.47c-5.74,0-10.41,3.33-10.41,7.41v14.81c0,4.09,4.67,7.41,10.41,7.41h104.78c5.74,0,10.41-3.33,10.41-7.41v-14.81c0-4.09-4.67-7.41-10.41-7.41h-20.47c-6.32,0-11.26-3.63-11.26-8.26v-75.77c0-4.63,4.95-8.26,11.26-8.26h20.47c6.32,0,11.26,3.63,11.26,8.26v14.81c0,4.09,4.67,7.41,10.42,7.41h20.47c6.32,0,11.26,3.63,11.26,8.26v106.25c0,4.63-4.95,8.26-11.26,8.26h-20.47c-5.74,0-10.42,3.33-10.42,7.41v14.81c0,4.63-4.95,8.26-11.26,8.26ZM216.63,483.33c-5.74,0-10.42,3.33-10.42,7.41v45.29c0,4.09,4.67,7.41,10.42,7.41h20.47c6.32,0,11.26,3.63,11.26,8.26v14.81c0,4.09,4.67,7.41,10.41,7.41h104.78c5.74,0,10.41-3.33,10.41-7.41v-14.81c0-4.63,4.95-8.26,11.26-8.26h20.47c5.74,0,10.41-3.33,10.41-7.41v-106.25c0-4.09-4.67-7.41-10.41-7.41h-20.47c-6.32,0-11.26-3.63-11.26-8.26v-14.81c0-4.09-4.67-7.41-10.41-7.41h-20.47c-5.74,0-10.42,3.33-10.42,7.41v75.77c0,4.09,4.67,7.41,10.42,7.41h20.47c6.32,0,11.26,3.63,11.26,8.26v14.81c0,4.63-4.95,8.26-11.26,8.26h-104.78c-6.32,0-11.26-3.63-11.26-8.26v-14.81c0-4.63,4.95-8.26,11.26-8.26h20.47c5.74,0,10.42-3.33,10.42-7.41v-45.29c0-4.09-4.67-7.41-10.42-7.41h-62.63c-5.74,0-10.42,3.33-10.42,7.41v14.81c0,4.09,4.67,7.41,10.42,7.41h20.47c6.32,0,11.26,3.63,11.26,8.26v14.81c0,4.63-4.95,8.26-11.26,8.26h-20.47Z"/>
      </g>
      <g>
        <path d="M406.01,381.01h-21.08c-6.62,0-10.54-2.83-10.54-7.62v-15.24c0-4.79-3.91-7.62-10.54-7.62h-105.38c-6.62,0-10.54,2.83-10.54,7.62v15.24c0,4.79-3.91,7.62-10.54,7.62h-21.08c-6.62,0-10.54-2.83-10.54-7.62v-45.72c0-4.79,3.91-7.62,10.54-7.62h63.23c6.62,0,10.54-2.83,10.54-7.62v-45.72c0-4.79-3.91-7.62-10.54-7.62h-21.08c-6.62,0-10.54,2.83-10.54,7.62v15.24c0,4.79-3.91,7.62-10.54,7.62h-21.08c-6.62,0-10.54-2.83-10.54-7.62v-106.69c0-4.79,3.91-7.62,10.54-7.62h21.08c6.62,0,10.54,2.83,10.54,7.62v15.24c0,4.79,3.91,7.62,10.54,7.62h105.38c6.62,0,10.54-2.83,10.54-7.62v-15.24c0-4.79,3.91-7.62,10.54-7.62h21.08c6.62,0,10.54,2.83,10.54,7.62v106.69c0,4.79-3.91,7.62-10.54,7.62h-21.08c-6.62,0-10.54-2.83-10.54-7.62v-15.24c0-4.79-3.91-7.62-10.54-7.62h-21.08c-6.62,0-10.54,2.83-10.54,7.62v45.72c0,4.79,3.91,7.62,10.54,7.62h63.23c6.62,0,10.54,2.83,10.54,7.62v45.72c0,4.79-3.91,7.62-10.54,7.62Z"/>
        <path class="cls-1" d="M406.01,381.44h-21.08c-6.86,0-10.96-3.01-10.96-8.04v-15.24c0-4.57-3.69-7.2-10.11-7.2h-105.38c-6.43,0-10.11,2.62-10.11,7.2v15.24c0,5.04-4.1,8.04-10.96,8.04h-21.08c-6.86,0-10.96-3.01-10.96-8.04v-45.72c0-5.04,4.1-8.04,10.96-8.04h63.23c6.43,0,10.11-2.62,10.11-7.2v-45.72c0-4.57-3.69-7.2-10.11-7.2h-21.08c-6.43,0-10.11,2.62-10.11,7.2v15.24c0,5.04-4.1,8.04-10.96,8.04h-21.08c-6.86,0-10.96-3.01-10.96-8.04v-106.69c0-5.04,4.1-8.04,10.96-8.04h21.08c6.86,0,10.96,3.01,10.96,8.04v15.24c0,4.57,3.69,7.2,10.11,7.2h105.38c6.43,0,10.11-2.62,10.11-7.2v-15.24c0-5.04,4.1-8.04,10.96-8.04h21.08c6.86,0,10.96,3.01,10.96,8.04v106.69c0,5.04-4.1,8.04-10.96,8.04h-21.08c-6.86,0-10.96-3.01-10.96-8.04v-15.24c0-4.57-3.69-7.2-10.11-7.2h-21.08c-6.43,0-10.11,2.62-10.11,7.2v45.72c0,4.57,3.69,7.2,10.11,7.2h63.23c6.86,0,10.96,3.01,10.96,8.04v45.72c0,5.04-4.1,8.04-10.96,8.04ZM258.48,350.11h105.38c6.86,0,10.96,3.01,10.96,8.04v15.24c0,4.57,3.69,7.2,10.11,7.2h21.08c6.43,0,10.11-2.62,10.11-7.2v-45.72c0-4.57-3.69-7.2-10.11-7.2h-63.23c-6.86,0-10.96-3.01-10.96-8.04v-45.72c0-5.04,4.1-8.04,10.96-8.04h21.08c6.86,0,10.96,3.01,10.96,8.04v15.24c0,4.57,3.69,7.2,10.11,7.2h21.08c6.43,0,10.11-2.62,10.11-7.2v-106.69c0-4.57-3.69-7.2-10.11-7.2h-21.08c-6.43,0-10.11,2.62-10.11,7.2v15.24c0,5.04-4.1,8.04-10.96,8.04h-105.38c-6.86,0-10.96-3.01-10.96-8.04v-15.24c0-4.57-3.69-7.2-10.11-7.2h-21.08c-6.43,0-10.11,2.62-10.11,7.2v106.69c0,4.57,3.69,7.2,10.11,7.2h21.08c6.43,0,10.11-2.62,10.11-7.2v-15.24c0-5.04,4.1-8.04,10.96-8.04h21.08c6.86,0,10.96,3.01,10.96,8.04v45.72c0,5.04-4.1,8.04-10.96,8.04h-63.23c-6.43,0-10.11,2.62-10.11,7.2v45.72c0,4.57,3.69,7.2,10.11,7.2h21.08c6.43,0,10.11-2.62,10.11-7.2v-15.24c0-5.04,4.1-8.04,10.96-8.04Z"/>
      </g>
      <g>
        <path d="M611.37,1013.29h-21.08c-6.62,0-10.54-2.83-10.54-7.62v-15.24c0-4.79-3.91-7.62-10.54-7.62h-105.38c-6.62,0-10.54,2.83-10.54,7.62v15.24c0,4.79-3.91,7.62-10.54,7.62h-21.08c-6.62,0-10.54-2.83-10.54-7.62v-167.65c0-4.79,3.91-7.62,10.54-7.62h63.23c6.62,0,10.54,2.83,10.54,7.62v15.24c0,4.79-3.91,7.62-10.54,7.62h-21.08c-6.62,0-10.54,2.83-10.54,7.62v45.72c0,4.79,3.91,7.62,10.54,7.62h21.08c6.62,0,10.54-2.83,10.54-7.62v-15.24c0-4.79,3.91-7.62,10.54-7.62h21.08c6.62,0,10.54,2.83,10.54,7.62v15.24c0,4.79,3.91,7.62,10.54,7.62h21.08c6.62,0,10.54-2.83,10.54-7.62v-45.72c0-4.79-3.91-7.62-10.54-7.62h-21.08c-6.62,0-10.54-2.83-10.54-7.62v-15.24c0-4.79,3.91-7.62,10.54-7.62h63.23c6.62,0,10.54,2.83,10.54,7.62v167.65c0,4.79-3.91,7.62-10.54,7.62Z"/>
        <path class="cls-1" d="M611.37,1013.71h-21.08c-6.86,0-10.96-3.01-10.96-8.04v-15.24c0-4.57-3.69-7.2-10.11-7.2h-105.38c-6.43,0-10.11,2.62-10.11,7.2v15.24c0,5.04-4.1,8.04-10.96,8.04h-21.08c-6.86,0-10.96-3.01-10.96-8.04v-167.65c0-5.04,4.1-8.04,10.96-8.04h63.23c6.86,0,10.96,3.01,10.96,8.04v15.24c0,5.04-4.1,8.04-10.96,8.04h-21.08c-6.43,0-10.11,2.62-10.11,7.2v45.72c0,4.57,3.69,7.2,10.11,7.2h21.08c6.43,0,10.11-2.62,10.11-7.2v-15.24c0-5.04,4.1-8.04,10.96-8.04h21.08c6.86,0,10.96,3.01,10.96,8.04v15.24c0,4.57,3.69,7.2,10.11,7.2h21.08c6.43,0,10.11-2.62,10.11-7.2v-45.72c0-4.57-3.69-7.2-10.11-7.2h-21.08c-6.86,0-10.96-3.01-10.96-8.04v-15.24c0-5.04,4.1-8.04,10.96-8.04h63.23c6.86,0,10.96,3.01,10.96,8.04v167.65c0,5.04-4.1,8.04-10.96,8.04ZM463.84,982.39h105.38c6.86,0,10.96,3.01,10.96,8.04v15.24c0,4.57,3.69,7.2,10.11,7.2h21.08c6.43,0,10.11-2.62,10.11-7.2v-167.65c0-4.57-3.69-7.2-10.11-7.2h-63.23c-6.43,0-10.11,2.62-10.11,7.2v15.24c0,4.57,3.69,7.2,10.11,7.2h21.08c6.86,0,10.96,3.01,10.96,8.04v45.72c0,5.04-4.1,8.04-10.96,8.04h-21.08c-6.86,0-10.96-3.01-10.96-8.04v-15.24c0-4.57-3.69-7.2-10.11-7.2h-21.08c-6.43,0-10.11,2.62-10.11,7.2v15.24c0,5.04-4.1,8.04-10.96,8.04h-21.08c-6.86,0-10.96-3.01-10.96-8.04v-45.72c0-5.04,4.1-8.04,10.96-8.04h21.08c6.43,0,10.11-2.62,10.11-7.2v-15.24c0-4.57-3.69-7.2-10.11-7.2h-63.23c-6.43,0-10.11,2.62-10.11,7.2v167.65c0,4.57,3.69,7.2,10.11,7.2h21.08c6.43,0,10.11-2.62,10.11-7.2v-15.24c0-5.04,4.1-8.04,10.96-8.04Z"/>
      </g>
      <g>
        <path d="M579.76,812.33v-76.21c0-4.79-3.91-7.62-10.54-7.62h-21.08c-6.62,0-10.54,2.83-10.54,7.62v45.72c0,4.79-3.91,7.62-10.54,7.62h-21.08c-6.62,0-10.54,2.83-10.54,7.62v15.24c0,4.79-3.91,7.62-10.54,7.62h-21.08c-6.62,0-10.54-2.83-10.54-7.62v-15.24c0-4.79-3.91-7.62-10.54-7.62h-21.08c-6.62,0-10.54-2.83-10.54-7.62v-45.72c0-4.79,3.91-7.62,10.54-7.62h21.08c6.62,0,10.54-2.83,10.54-7.62v-15.24c0-4.79-3.91-7.62-10.54-7.62h-21.08c-6.62,0-10.54-2.83-10.54-7.62v-15.24c0-4.79,3.91-7.62,10.54-7.62h63.23c6.62,0,10.54,2.83,10.54,7.62v47.25c0,3.92-4.82,6.1-10.54,6.1h-21.08c-6.62,0-10.54,2.83-10.54,7.62v45.72c0,4.79,3.91,7.62,10.54,7.62h21.08c6.62,0,10.54-2.83,10.54-7.62v-45.72c0-4.79,3.91-7.62,10.54-7.62h21.08c6.62,0,10.54-2.83,10.54-7.62v-45.72c0-4.79,3.91-7.62,10.54-7.62h21.08c6.62,0,10.54,2.83,10.54,7.62v15.24c0,4.79,3.91,7.62,10.54,7.62h21.08c6.62,0,10.54,2.83,10.54,7.62v106.69c0,4.79-3.91,7.62-10.54,7.62h-21.08c-6.62,0-10.54-2.83-10.54-7.62Z"/>
        <path class="cls-1" d="M611.37,820.37h-21.08c-6.86,0-10.96-3.01-10.96-8.04v-76.21c0-4.57-3.69-7.2-10.11-7.2h-21.08c-6.43,0-10.11,2.62-10.11,7.2v45.72c0,5.04-4.1,8.04-10.96,8.04h-21.08c-6.43,0-10.11,2.62-10.11,7.2v15.24c0,5.04-4.1,8.04-10.96,8.04h-21.08c-6.86,0-10.96-3.01-10.96-8.04v-15.24c0-4.57-3.69-7.2-10.11-7.2h-21.08c-6.86,0-10.96-3.01-10.96-8.04v-45.72c0-5.04,4.1-8.04,10.96-8.04h21.08c6.43,0,10.11-2.62,10.11-7.2v-15.24c0-4.57-3.69-7.2-10.11-7.2h-21.08c-6.86,0-10.96-3.01-10.96-8.04v-15.24c0-5.04,4.1-8.04,10.96-8.04h63.23c6.86,0,10.96,3.01,10.96,8.04v47.25c0,3.9-4.41,6.52-10.96,6.52h-21.08c-6.43,0-10.11,2.62-10.11,7.2v45.72c0,4.57,3.69,7.2,10.11,7.2h21.08c6.43,0,10.11-2.62,10.11-7.2v-45.72c0-5.04,4.1-8.04,10.96-8.04h21.08c6.43,0,10.11-2.62,10.11-7.2v-45.72c0-5.04,4.1-8.04,10.96-8.04h21.08c6.86,0,10.96,3.01,10.96,8.04v15.24c0,4.57,3.69,7.2,10.11,7.2h21.08c6.86,0,10.96,3.01,10.96,8.04v106.69c0,5.04-4.1,8.04-10.96,8.04ZM548.14,728.08h21.08c6.86,0,10.96,3.01,10.96,8.04v76.21c0,4.57,3.69,7.2,10.11,7.2h21.08c6.43,0,10.11-2.62,10.11-7.2v-106.69c0-4.57-3.69-7.2-10.11-7.2h-21.08c-6.86,0-10.96-3.01-10.96-8.04v-15.24c0-4.57-3.69-7.2-10.11-7.2h-21.08c-6.43,0-10.11,2.62-10.11,7.2v45.72c0,5.04-4.1,8.04-10.96,8.04h-21.08c-6.43,0-10.11,2.62-10.11,7.2v45.72c0,5.04-4.1,8.04-10.96,8.04h-21.08c-6.86,0-10.96-3.01-10.96-8.04v-45.72c0-5.04,4.1-8.04,10.96-8.04h21.08c4.87,0,10.11-1.78,10.11-5.67v-47.25c0-4.57-3.69-7.2-10.11-7.2h-63.23c-6.43,0-10.11,2.62-10.11,7.2v15.24c0,4.57,3.69,7.2,10.11,7.2h21.08c6.86,0,10.96,3.01,10.96,8.04v15.24c0,5.04-4.1,8.04-10.96,8.04h-21.08c-6.43,0-10.11,2.62-10.11,7.2v45.72c0,4.57,3.69,7.2,10.11,7.2h21.08c6.86,0,10.96,3.01,10.96,8.04v15.24c0,4.57,3.69,7.2,10.11,7.2h21.08c6.43,0,10.11-2.62,10.11-7.2v-15.24c0-5.04,4.1-8.04,10.96-8.04h21.08c6.43,0,10.11-2.62,10.11-7.2v-45.72c0-5.04,4.1-8.04,10.96-8.04Z"/>
      </g>
    </g>
  </g>
</svg>