<?xml version="1.0" encoding="UTF-8"?>
<svg id="Layer_2" data-name="Layer 2" xmlns="http://www.w3.org/2000/svg" viewBox="0 0 628.37 1019.46">
  <defs>
    <style>
      .cls-1 {
        fill: #fff;
      }
    </style>
  </defs>
  <g id="Home_Page_Text_copy" data-name="Home Page Text copy">
    <g id="Inter">
      <g>
        <path d="M228.37,926.75c0,18.47-2.78,34.55-8.34,48.25-5.56,13.7-14,24.38-25.32,32.02-11.32,7.65-25.52,11.62-42.59,11.92v-50.49c7.15-.5,13.16-2.46,18.02-5.88,4.87-3.43,8.51-8.14,10.95-14.15,2.43-6.01,3.65-13.03,3.65-21.07,0-7.25-.99-13.5-2.98-18.77-1.99-5.26-4.77-9.31-8.34-12.14s-7.74-4.24-12.51-4.24c-4.27,0-7.89,1.32-10.87,3.95-2.98,2.63-5.61,6.58-7.89,11.84-2.28,5.26-4.32,11.97-6.11,20.11l-5.51,23.53c-4.37,19.16-11.52,34.21-21.45,45.13-9.93,10.92-23.23,16.38-39.91,16.38-13.7,0-25.71-3.72-36.04-11.17-10.33-7.45-18.34-17.65-24.05-30.6-5.71-12.96-8.56-27.82-8.56-44.6s2.9-32.07,8.71-44.68c5.81-12.61,13.9-22.39,24.28-29.34,10.38-6.95,22.41-10.52,36.12-10.72v50.49c-8.04.7-14.3,3.97-18.77,9.83-4.47,5.86-6.7,14.05-6.7,24.57,0,6.95.92,12.81,2.76,17.57,1.84,4.77,4.37,8.34,7.6,10.72,3.23,2.38,6.93,3.57,11.1,3.57,4.57,0,8.41-1.34,11.54-4.02s5.73-6.5,7.82-11.47c2.08-4.96,3.87-10.72,5.36-17.28l4.47-19.21c2.29-10.72,5.39-20.28,9.31-28.67,3.92-8.39,8.61-15.49,14.07-21.3,5.46-5.81,11.77-10.23,18.91-13.25,7.15-3.03,15.14-4.54,23.98-4.54,14,0,26.04,3.5,36.12,10.5,10.08,7,17.8,17.03,23.16,30.08,5.36,13.06,8.04,28.77,8.04,47.14Z"/>
        <path class="cls-1" d="M151.61,1019.46v-51.48l.47-.03c7.02-.49,13-2.44,17.76-5.79,4.76-3.35,8.39-8.04,10.77-13.92,2.4-5.91,3.61-12.94,3.61-20.88,0-7.16-.99-13.41-2.95-18.59-1.94-5.15-4.7-9.16-8.18-11.92-3.46-2.74-7.57-4.13-12.19-4.13-4.12,0-7.67,1.28-10.54,3.82-2.91,2.57-5.52,6.49-7.76,11.66-2.26,5.21-4.31,11.95-6.08,20.01l-5.51,23.54c-4.37,19.16-11.62,34.42-21.57,45.35-9.98,10.98-23.54,16.55-40.29,16.55-13.74,0-25.97-3.79-36.34-11.27-10.35-7.46-18.5-17.83-24.22-30.81-5.71-12.96-8.61-28.04-8.61-44.81s2.95-32.27,8.76-44.89c5.82-12.63,14.05-22.58,24.45-29.55,10.41-6.97,22.65-10.61,36.39-10.81h.52s0,51.46,0,51.46l-.46.04c-7.86.68-14.05,3.92-18.41,9.63-4.38,5.74-6.6,13.91-6.6,24.26,0,6.85.92,12.7,2.72,17.39,1.79,4.65,4.29,8.18,7.42,10.5,3.12,2.31,6.75,3.47,10.79,3.47,4.42,0,8.19-1.31,11.21-3.9,3.05-2.62,5.64-6.41,7.68-11.28,2.06-4.91,3.86-10.7,5.33-17.19l4.47-19.21c2.28-10.7,5.42-20.38,9.34-28.77,3.93-8.4,8.69-15.61,14.16-21.43,5.48-5.83,11.9-10.33,19.09-13.37,7.18-3.04,15.31-4.58,24.18-4.58,14.04,0,26.29,3.56,36.41,10.59,10.11,7.02,17.96,17.22,23.34,30.31,5.36,13.06,8.08,28.98,8.08,47.33s-2.82,34.74-8.38,48.44c-5.57,13.73-14.15,24.58-25.5,32.25-11.35,7.67-25.77,11.7-42.87,12h-.52ZM152.63,968.92v49.5c16.67-.37,30.73-4.34,41.8-11.82,11.18-7.55,19.64-18.25,25.13-31.79,5.51-13.58,8.3-29.75,8.3-48.06s-2.69-34.01-8-46.94c-5.3-12.9-13.03-22.95-22.98-29.86-9.94-6.91-22-10.41-35.83-10.41-8.73,0-16.73,1.51-23.78,4.5-7.05,2.99-13.36,7.41-18.74,13.14-5.4,5.74-10.1,12.86-13.98,21.16-3.89,8.32-7,17.92-9.27,28.56l-4.47,19.22c-1.49,6.55-3.3,12.39-5.39,17.36-2.1,5.01-4.78,8.93-7.96,11.66-3.21,2.75-7.2,4.14-11.87,4.14-4.26,0-8.1-1.24-11.4-3.67-3.29-2.43-5.9-6.11-7.77-10.95-1.85-4.8-2.79-10.78-2.79-17.76,0-10.59,2.29-18.96,6.81-24.88,4.45-5.83,10.73-9.19,18.66-9.98v-49.51c-13.33.28-25.21,3.85-35.32,10.63-10.25,6.87-18.36,16.67-24.1,29.13-5.75,12.48-8.67,27.44-8.67,44.47s2.87,31.57,8.52,44.4c5.65,12.81,13.68,23.04,23.88,30.4,10.19,7.35,22.22,11.07,35.74,11.07,16.46,0,29.76-5.46,39.54-16.21,9.82-10.8,17-25.91,21.33-44.9l5.51-23.53c1.78-8.12,3.85-14.92,6.14-20.19,2.31-5.31,5-9.35,8.02-12.02,3.06-2.7,6.83-4.07,11.21-4.07,4.86,0,9.18,1.46,12.83,4.35,3.63,2.88,6.49,7.03,8.5,12.36,2,5.29,3.01,11.67,3.01,18.95,0,8.08-1.24,15.23-3.69,21.26-2.46,6.07-6.2,10.9-11.12,14.37-4.81,3.39-10.8,5.38-17.81,5.94Z"/>
      </g>
      <g>
        <path d="M225.39,832.29L3.49,758.27v-70.44l221.91-76.25v58.98l-96.95,30.83c-16.18,4.97-33.38,9.75-51.6,14.37-18.22,4.62-37.11,9.26-56.67,13.92v-11.77c19.66,4.47,38.6,8.79,56.82,12.96,18.22,4.17,35.37,8.59,51.46,13.25l96.95,29.79v58.38ZM178.18,781.95h-40.21v-120.19h40.21v120.19Z"/>
        <path class="cls-1" d="M225.9,832.99l-.67-.22L2.98,758.64v-71.17l.34-.12,222.58-76.48v60.06l-.35.11-46.86,14.9v73.09l47.21,14.5v59.46ZM4,757.9l220.89,73.68v-57.3l-46.19-14.19v22.37h-41.23v-35.03l-9.17-2.82c-16.01-4.64-33.31-9.1-51.42-13.25-10.31-2.36-20.85-4.77-31.62-7.22-8.23,2.01-16.56,4.03-24.96,6.03l-.63.15v-13.05l.62.14c8.45,1.92,16.77,3.81,24.96,5.68,10.7-2.62,21.22-5.24,31.47-7.84,18.16-4.6,35.51-9.43,51.58-14.37l9.17-2.92v-36.72h41.23v23.61l46.19-14.69v-57.89L4,688.19v69.71ZM138.48,781.44h39.19v-21.66l-39.19-12.04v33.7ZM138.48,746.67l39.19,12.04v-72.46l-39.19,12.46v47.96ZM47.45,723.6c10.09,2.3,19.97,4.56,29.65,6.77,18.13,4.15,35.45,8.61,51.48,13.26l8.88,2.73v-47.32l-8.87,2.82c-16.09,4.94-33.46,9.77-51.63,14.38-9.62,2.44-19.48,4.9-29.51,7.36ZM20.68,718.55v10.49c7.51-1.79,14.97-3.59,22.35-5.4-7.35-1.67-14.8-3.37-22.35-5.09ZM138.48,662.27v35.38l39.19-12.46v-22.92h-39.19Z"/>
      </g>
      <g>
        <path d="M225.39,595.23H3.49v-57.79l100.23-61.96c6.65-3.97,13.53-7.87,20.63-11.69,7.1-3.82,14.97-7.62,23.61-11.39,8.64-3.77,18.57-7.6,29.79-11.47v4.92c-8.14.6-17.18,1.22-27.11,1.86-9.93.65-19.58,1.22-28.97,1.71-9.38.5-17.3.74-23.75.74H3.49v-53.91h221.91v57.93l-91.89,56.74c-8.44,5.06-16.43,9.66-23.98,13.78-7.54,4.12-15.74,8.24-24.57,12.36-8.84,4.12-19.21,8.96-31.13,14.52v-6.11c10.62-.69,20.98-1.36,31.05-2.01,10.08-.64,19.31-1.17,27.7-1.56,8.39-.4,15.37-.6,20.92-.6h91.89v53.91Z"/>
        <path class="cls-1" d="M225.9,595.74H2.98v-58.58l.24-.15,100.23-61.96c6.64-3.96,13.59-7.9,20.65-11.71,7.08-3.81,15.04-7.65,23.64-11.41,3.17-1.38,6.53-2.78,10.07-4.19-2.34.16-4.73.31-7.16.47-9.82.64-19.57,1.22-28.97,1.71-9.32.49-17.32.75-23.78.75H2.98v-54.93h222.92v58.73l-92.13,56.89c-8.44,5.06-16.51,9.7-24,13.79-7.53,4.11-15.81,8.28-24.6,12.38l-13.47,6.28c4.43-.29,8.81-.57,13.15-.85,10.05-.64,19.38-1.17,27.71-1.56,8.39-.4,15.44-.6,20.95-.6h92.4v54.93ZM4,594.72h220.89v-52.9h-91.38c-5.49,0-12.52.2-20.9.59-8.33.39-17.65.92-27.69,1.56-5.18.33-10.43.67-15.75,1.02l-15.85,7.39v-7.38l.48-.03c5.1-.33,10.14-.66,15.11-.98l15.83-7.38c8.78-4.09,17.04-8.24,24.54-12.35,7.48-4.08,15.54-8.71,23.96-13.77l91.64-56.59v-57.14H4v52.9h93.91c6.45,0,14.43-.25,23.73-.74,9.4-.5,19.14-1.07,28.96-1.71,3.55-.23,7-.46,10.36-.69,5.2-2.01,10.75-4.04,16.62-6.06l.67-.23v6.1l-.47.03c-5.17.38-10.73.77-16.6,1.17-4.63,1.8-8.99,3.58-13.02,5.35-8.58,3.75-16.51,7.58-23.57,11.38-7.05,3.8-13.98,7.73-20.61,11.68L4,537.73v56.99ZM54.33,545.96v4.83l12.04-5.62c-3.97.26-7.98.52-12.04.78ZM177.23,441.65c-4.46,1.55-8.74,3.09-12.81,4.63,4.48-.31,8.76-.61,12.81-.91v-3.73Z"/>
      </g>
      <g>
        <path d="M225.39,300.22v58.98h-44.98v-56.74c0-12.71-2.13-23.46-6.4-32.24-4.27-8.79-11.27-15.41-21-19.88-9.73-4.47-22.59-6.7-38.57-6.7s-28.82,2.29-38.5,6.85c-9.68,4.57-16.68,11.24-21,20.03-4.32,8.79-6.48,19.68-6.48,32.69v57.04H3.49v-60.02c0-22.54,4.44-41.95,13.33-58.23,8.89-16.28,21.62-28.84,38.2-37.68,16.58-8.84,36.39-13.25,59.42-13.25s42.87,4.39,59.5,13.18c16.63,8.79,29.36,21.35,38.2,37.68,8.84,16.33,13.25,35.77,13.25,58.31ZM3.49,329.26h221.91v52.57H3.49v-52.57Z"/>
        <path class="cls-1" d="M225.9,382.34H2.98v-82.12c0-22.51,4.51-42.19,13.39-58.48,8.89-16.29,21.82-29.04,38.41-37.88,16.58-8.83,36.65-13.31,59.66-13.31s43.11,4.45,59.74,13.24c16.64,8.79,29.57,21.54,38.41,37.89,8.84,16.33,13.32,36.03,13.32,58.55v82.12ZM4,381.33h220.89v-21.62h-44.98v-29.94H48.97v30.98H4v20.58ZM4,359.73h43.96v-29.96H4v29.96ZM180.93,358.69h43.96v-28.92h-43.96v28.92ZM180.93,328.76h43.96v-28.53c0-22.35-4.44-41.89-13.19-58.06-8.75-16.17-21.53-28.77-37.99-37.47-16.48-8.71-36.42-13.12-59.26-13.12s-42.75,4.44-59.18,13.2c-16.41,8.75-29.2,21.36-37.99,37.47-8.8,16.14-13.27,35.65-13.27,57.99v28.53h43.96v-25.55c0-13.02,2.2-24.1,6.53-32.91,4.35-8.85,11.5-15.67,21.24-20.27,9.71-4.58,22.73-6.9,38.72-6.9s29.04,2.27,38.79,6.75c9.8,4.5,16.94,11.27,21.24,20.12,4.28,8.81,6.46,19.74,6.46,32.47v26.3ZM48.97,328.76h130.94v-26.3c0-12.57-2.14-23.35-6.35-32.02-4.2-8.64-11.18-15.25-20.75-19.64-9.62-4.42-22.52-6.66-38.36-6.66s-28.71,2.29-38.28,6.8c-9.53,4.5-16.51,11.16-20.76,19.79-4.26,8.68-6.43,19.6-6.43,32.47v25.55Z"/>
      </g>
      <g>
        <path d="M225.39,133.72h-80.42L3.49,216.23v-61.66l68.06-34.85c6.55-3.37,13.16-6.4,19.81-9.08,6.65-2.68,14.4-5.41,23.23-8.19v9.38c-8.94-2.58-16.73-5.14-23.38-7.67-6.65-2.53-13.2-5.44-19.66-8.71L3.49,62.23V.87l141.48,80.57h80.42v52.27Z"/>
        <path class="cls-1" d="M2.98,217.11v-62.85l68.34-34.99c6.54-3.37,13.22-6.43,19.85-9.1,2.31-.93,4.77-1.88,7.37-2.83-2.65-.91-5.16-1.81-7.51-2.7-6.64-2.53-13.27-5.46-19.71-8.73L2.98,62.55V0l142.13,80.94h80.8v53.29h-80.79L2.98,217.11ZM4,154.88v60.46l140.84-82.13h80.05v-51.26h-80.05l-.12-.07L4,1.75v60.17l67.78,33.07c6.42,3.26,13.01,6.18,19.62,8.69,2.69,1.02,5.59,2.06,8.68,3.1,4.42-1.59,9.23-3.2,14.37-4.82l.66-.21v10.75l-.65-.19c-5.14-1.49-9.95-2.98-14.37-4.46-3.03,1.09-5.88,2.18-8.54,3.25-6.6,2.66-13.25,5.71-19.77,9.06L4,154.88ZM101.63,107.3c3.87,1.28,8.03,2.57,12.45,3.85v-8.01c-4.41,1.4-8.57,2.79-12.45,4.16Z"/>
      </g>
      <g>
        <path d="M425.14,1012.39h-221.91v-52.57h87.12v-88.61h-87.12v-52.42h221.91v52.42h-91.89v88.61h91.89v52.57Z"/>
        <path class="cls-1" d="M425.65,1012.89h-222.92v-53.59h87.12v-87.6h-87.12v-53.44h222.92v53.44h-91.89v87.6h91.89v53.59ZM203.74,1011.88h220.89v-51.55h-91.89v-89.63h91.89v-51.41h-220.89v51.41h87.12v89.63h-87.12v51.55Z"/>
      </g>
      <g>
        <path d="M427.97,710.68c0,18.67-3.35,35.02-10.05,49.07-6.7,14.05-16.18,24.97-28.45,32.76-12.26,7.8-26.63,11.69-43.12,11.69h-143.12v-52.57h138.8c7.74,0,14.65-1.74,20.7-5.21,6.06-3.47,10.8-8.27,14.22-14.37,3.43-6.11,5.14-13.23,5.14-21.37s-1.71-15.31-5.14-21.52c-3.43-6.2-8.17-11.02-14.22-14.45-6.05-3.43-12.96-5.14-20.7-5.14h-138.8v-52.57h143.12c16.48,0,30.85,3.92,43.12,11.77,12.26,7.84,21.74,18.79,28.45,32.84,6.7,14.05,10.05,30.41,10.05,49.07Z"/>
        <path class="cls-1" d="M346.36,804.72h-143.63v-53.59h139.31c7.62,0,14.5-1.73,20.45-5.14,5.95-3.41,10.67-8.18,14.03-14.18,3.37-6,5.07-13.11,5.07-21.12s-1.71-15.17-5.07-21.27c-3.36-6.09-8.08-10.89-14.03-14.25-5.95-3.37-12.83-5.07-20.45-5.07h-139.31v-53.59h143.63c16.5,0,31.1,3.99,43.39,11.85,12.28,7.86,21.92,18.98,28.63,33.05,6.7,14.05,10.1,30.64,10.1,49.29s-3.4,35.24-10.1,49.29c-6.71,14.07-16.35,25.17-28.63,32.97-12.28,7.81-26.88,11.77-43.39,11.77ZM203.74,803.7h142.61c16.31,0,30.72-3.91,42.84-11.61,12.12-7.7,21.63-18.66,28.26-32.55,6.64-13.91,10-30.35,10-48.85s-3.37-34.94-10-48.85c-6.63-13.9-16.14-24.88-28.26-32.63-12.12-7.75-26.54-11.69-42.84-11.69h-142.61v51.55h138.3c7.8,0,14.85,1.75,20.95,5.2,6.11,3.46,10.96,8.38,14.42,14.64,3.45,6.25,5.2,13.58,5.2,21.77s-1.75,15.47-5.2,21.62c-3.46,6.16-8.3,11.06-14.41,14.56-6.1,3.5-13.15,5.28-20.95,5.28h-138.3v51.55Z"/>
      </g>
      <g>
        <path d="M428.12,495.06c0,21.05-4.59,39.57-13.78,55.55-9.18,15.99-22.27,28.47-39.24,37.46-16.98,8.99-37.13,13.48-60.47,13.48s-44.85-4.74-61.88-14.22c-17.03-9.48-30.03-22.19-39.02-38.13-8.98-15.94-13.48-33.78-13.48-53.54,0-12.81,1.84-24.7,5.51-35.67,3.67-10.97,8.89-20.75,15.64-29.34,6.75-8.59,14.72-15.54,23.9-20.85,9.18-5.31,19.29-8.66,30.31-10.05v53.17c-4.57,1.29-8.66,3.15-12.29,5.58-3.62,2.43-6.7,5.44-9.23,9.01-2.53,3.57-4.44,7.62-5.73,12.14-1.29,4.52-1.94,9.56-1.94,15.12,0,10.72,2.63,20.08,7.89,28.07,5.26,7.99,12.93,14.15,23.01,18.47,10.08,4.32,22.27,6.48,36.56,6.48s26.66-2.11,36.79-6.33c10.13-4.22,17.87-10.3,23.23-18.24,5.36-7.94,8.04-17.47,8.04-28.59,0-10.03-1.64-18.49-4.92-25.39-3.28-6.9-7.97-12.14-14.07-15.71-6.11-3.57-13.28-5.36-21.52-5.36l1.34-9.98v54.36h-38.57v-95.17h29.19c19.76,0,36.71,4.17,50.86,12.51,14.15,8.34,25,19.88,32.54,34.63,7.55,14.74,11.32,31.6,11.32,50.56Z"/>
        <path class="cls-1" d="M314.63,602.05c-24.2,0-45.1-4.81-62.13-14.29-17.03-9.48-30.22-22.37-39.22-38.32-8.99-15.94-13.54-34.04-13.54-53.79,0-12.8,1.86-24.85,5.54-35.83,3.68-10.98,8.96-20.9,15.72-29.49,6.76-8.6,14.85-15.66,24.05-20.98,9.2-5.32,19.46-8.72,30.5-10.12l.57-.07v54.13l-.37.1c-4.49,1.27-8.58,3.13-12.14,5.52-3.56,2.39-6.62,5.38-9.1,8.88-2.49,3.51-4.39,7.54-5.66,11.98-1.27,4.46-1.92,9.5-1.92,14.98,0,10.57,2.63,19.92,7.81,27.79,5.18,7.87,12.85,14.02,22.79,18.28,9.97,4.27,22.2,6.44,36.36,6.44s26.58-2.12,36.59-6.29c9.99-4.16,17.73-10.24,23.01-18.06,5.28-7.82,7.96-17.34,7.96-28.31,0-9.9-1.64-18.37-4.87-25.17-3.22-6.77-7.88-11.99-13.87-15.49-5.54-3.24-12.06-5.01-19.42-5.26v44.35h-39.59v-96.18h29.7c19.76,0,36.96,4.23,51.12,12.58,14.17,8.35,25.18,20.07,32.74,34.83,7.55,14.75,11.37,31.83,11.37,50.79,0,21.04-4.66,39.82-13.84,55.8-9.19,16-22.46,28.66-39.45,37.65-16.97,8.98-37.39,13.54-60.7,13.54ZM275.1,400.32c-10.68,1.42-20.62,4.75-29.54,9.91-9.08,5.25-17.08,12.23-23.76,20.72-6.68,8.5-11.92,18.32-15.56,29.19-3.64,10.87-5.48,22.82-5.48,35.51,0,19.58,4.51,37.51,13.41,53.29,8.9,15.78,21.96,28.54,38.82,37.93,16.87,9.4,37.61,14.16,61.63,14.16s43.41-4.51,60.23-13.42c16.82-8.9,29.95-21.43,39.04-37.26,9.1-15.83,13.71-34.44,13.71-55.3,0-18.8-3.79-35.73-11.26-50.33-7.46-14.59-18.35-26.17-32.35-34.42-14-8.25-31.03-12.44-50.6-12.44h-28.68v94.15h37.56v-43.36c-.28,0-.55,0-.83,0h-.58l1.42-10.55,1.01.07v9.5c7.54.25,14.23,2.07,19.93,5.4,6.17,3.61,10.97,8.97,14.28,15.93,3.29,6.94,4.96,15.55,4.96,25.61,0,11.17-2.74,20.89-8.13,28.88-5.39,7.99-13.28,14.19-23.46,18.43-10.14,4.23-22.58,6.37-36.98,6.37s-26.67-2.19-36.76-6.52c-10.12-4.34-17.94-10.62-23.23-18.66-5.29-8.04-7.98-17.58-7.98-28.35,0-5.57.66-10.71,1.96-15.26,1.3-4.55,3.26-8.69,5.81-12.29,2.55-3.6,5.7-6.68,9.37-9.14,3.55-2.38,7.61-4.25,12.06-5.55v-52.21ZM342.02,447.64c.08,0,.17,0,.25,0v-1.87l-.25,1.87Z"/>
      </g>
      <g>
        <path d="M425.14,381.01h-221.91v-52.57h87.12v-88.61h-87.12v-52.42h221.91v52.42h-91.89v88.61h91.89v52.57Z"/>
        <path class="cls-1" d="M425.65,381.52h-222.92v-53.59h87.12v-87.6h-87.12v-53.44h222.92v53.44h-91.89v87.6h91.89v53.59ZM203.74,380.5h220.89v-51.56h-91.89v-89.63h91.89v-51.41h-220.89v51.41h87.12v89.63h-87.12v51.56Z"/>
      </g>
      <g>
        <path d="M624.89,1012.39h-221.91v-153.99h42.89v101.42h45.87v-93.38h42v93.38h48.25v-101.27h42.89v153.84Z"/>
        <path class="cls-1" d="M625.39,1012.89h-222.92v-155.01h43.91v101.42h44.85v-93.38h43.02v93.38h47.24v-101.27h43.91v154.86ZM403.49,1011.88h220.89v-152.83h-41.88v101.27h-49.27v-93.38h-40.98v93.38h-46.89v-101.42h-41.88v152.98Z"/>
      </g>
      <g>
        <path d="M627.86,748.67c0,18.47-2.78,34.55-8.34,48.25-5.56,13.7-14,24.38-25.32,32.02-11.32,7.65-25.52,11.62-42.59,11.92v-50.49c7.15-.5,13.16-2.46,18.02-5.88,4.87-3.43,8.51-8.14,10.95-14.15,2.43-6.01,3.65-13.03,3.65-21.07,0-7.25-.99-13.5-2.98-18.77-1.99-5.26-4.77-9.31-8.34-12.14s-7.74-4.24-12.51-4.24c-4.27,0-7.89,1.32-10.87,3.95-2.98,2.63-5.61,6.58-7.89,11.84-2.28,5.26-4.32,11.97-6.11,20.11l-5.51,23.53c-4.37,19.16-11.52,34.21-21.45,45.13-9.93,10.92-23.23,16.38-39.91,16.38-13.7,0-25.71-3.72-36.04-11.17-10.33-7.45-18.34-17.65-24.05-30.6-5.71-12.96-8.56-27.82-8.56-44.6s2.9-32.07,8.71-44.68c5.81-12.61,13.9-22.39,24.28-29.34,10.38-6.95,22.41-10.52,36.12-10.72v50.49c-8.04.7-14.3,3.97-18.77,9.83-4.47,5.86-6.7,14.05-6.7,24.57,0,6.95.92,12.81,2.76,17.57,1.84,4.77,4.37,8.34,7.6,10.72,3.23,2.38,6.93,3.57,11.1,3.57,4.57,0,8.41-1.34,11.54-4.02s5.73-6.5,7.82-11.47c2.08-4.96,3.87-10.72,5.36-17.28l4.47-19.21c2.29-10.72,5.39-20.28,9.31-28.67,3.92-8.39,8.61-15.49,14.07-21.3,5.46-5.81,11.77-10.23,18.91-13.25,7.15-3.03,15.14-4.54,23.98-4.54,14,0,26.04,3.5,36.12,10.5,10.08,7,17.8,17.03,23.16,30.08,5.36,13.06,8.04,28.77,8.04,47.14Z"/>
        <path class="cls-1" d="M551.1,841.37v-51.48l.47-.03c7.02-.49,13-2.44,17.76-5.79,4.76-3.35,8.39-8.04,10.77-13.92,2.4-5.91,3.61-12.94,3.61-20.88,0-7.16-.99-13.41-2.95-18.59-1.94-5.15-4.7-9.16-8.18-11.92-3.46-2.74-7.57-4.13-12.19-4.13-4.12,0-7.67,1.28-10.54,3.82-2.91,2.57-5.52,6.49-7.76,11.66-2.26,5.21-4.31,11.95-6.08,20.01l-5.51,23.54c-4.37,19.16-11.62,34.42-21.57,45.35-9.98,10.98-23.54,16.55-40.29,16.55-13.74,0-25.97-3.79-36.34-11.27-10.35-7.46-18.5-17.83-24.22-30.81-5.71-12.96-8.61-28.04-8.61-44.81s2.95-32.27,8.76-44.89c5.82-12.63,14.05-22.58,24.46-29.55,10.41-6.97,22.65-10.61,36.39-10.81h.52s0,51.46,0,51.46l-.46.04c-7.86.68-14.05,3.92-18.41,9.63-4.38,5.74-6.6,13.91-6.6,24.26,0,6.85.92,12.7,2.72,17.39,1.79,4.65,4.29,8.18,7.42,10.5,3.12,2.31,6.75,3.47,10.79,3.47,4.42,0,8.19-1.31,11.21-3.9,3.05-2.62,5.64-6.41,7.68-11.28,2.06-4.91,3.86-10.7,5.33-17.19l4.47-19.21c2.28-10.7,5.42-20.38,9.34-28.77,3.93-8.4,8.69-15.61,14.16-21.43,5.48-5.83,11.9-10.33,19.09-13.37,7.18-3.04,15.31-4.58,24.18-4.58,14.04,0,26.29,3.56,36.41,10.59,10.11,7.02,17.96,17.22,23.34,30.31,5.36,13.06,8.08,28.98,8.08,47.33s-2.82,34.74-8.38,48.44c-5.57,13.73-14.15,24.58-25.5,32.25-11.35,7.67-25.77,11.7-42.87,12h-.52ZM552.12,790.84v49.5c16.67-.37,30.73-4.34,41.8-11.82,11.18-7.55,19.64-18.25,25.13-31.79,5.51-13.58,8.3-29.75,8.3-48.06s-2.69-34.01-8-46.94c-5.3-12.9-13.03-22.95-22.98-29.86-9.94-6.91-21.99-10.41-35.83-10.41-8.73,0-16.73,1.51-23.78,4.5-7.05,2.99-13.36,7.41-18.74,13.14-5.4,5.74-10.1,12.86-13.98,21.16-3.89,8.32-7,17.92-9.27,28.56l-4.47,19.22c-1.49,6.55-3.3,12.39-5.39,17.36-2.1,5.01-4.78,8.93-7.96,11.66-3.21,2.75-7.2,4.14-11.87,4.14-4.26,0-8.1-1.24-11.4-3.67-3.29-2.43-5.9-6.11-7.77-10.95-1.85-4.8-2.79-10.78-2.79-17.76,0-10.59,2.29-18.96,6.81-24.88,4.45-5.83,10.73-9.19,18.66-9.98v-49.51c-13.33.28-25.21,3.85-35.32,10.63-10.25,6.87-18.36,16.67-24.1,29.13-5.75,12.48-8.67,27.44-8.67,44.47s2.87,31.57,8.52,44.4c5.65,12.81,13.68,23.04,23.88,30.4,10.19,7.35,22.22,11.07,35.74,11.07,16.46,0,29.76-5.46,39.54-16.21,9.82-10.8,17-25.91,21.33-44.9l5.51-23.53c1.78-8.12,3.85-14.92,6.14-20.19,2.31-5.31,5-9.35,8.02-12.02,3.06-2.7,6.83-4.07,11.21-4.07,4.86,0,9.18,1.46,12.83,4.35,3.63,2.88,6.49,7.03,8.5,12.36,2,5.29,3.01,11.67,3.01,18.95,0,8.08-1.24,15.23-3.69,21.26-2.46,6.07-6.2,10.9-11.12,14.37-4.81,3.39-10.8,5.38-17.81,5.94Z"/>
      </g>
    </g>
  </g>
</svg>