<?xml version="1.0" encoding="UTF-8"?>
<svg id="Layer_2" data-name="Layer 2" xmlns="http://www.w3.org/2000/svg" viewBox="0 0 658.79 1029.74">
  <defs>
    <style>
      .cls-1 {
        fill: #fff;
      }
    </style>
  </defs>
  <g id="Home_Page_Text_copy" data-name="Home Page Text copy">
    <g id="Lovelace_Script" data-name="Lovelace Script">
      <g>
        <path d="M234.08,966.48c-1.18,7.86-1.77,13.75-1.77,17.68,0,3.28,1.18,6.14,3.54,8.59,2.36,2.46,6.19,5.08,11.49,7.86.59.33.93.82,1.03,1.47.1.66-.25.9-1.03.74l-101.66-13.26c-.78-.16-1.13-.45-1.03-.86.1-.41.44-.7,1.03-.86,30.06-.98,51.96-6.75,65.71-17.31,13.75-10.56,20.63-23.86,20.63-39.9,0-7.69-1.62-14.73-4.86-21.12-3.24-6.38-7.61-11.38-13.11-14.98-5.5-3.6-11.49-5.4-17.98-5.4-5.3,0-10.31,1.88-15.03,5.65-4.71,3.77-9.38,9.09-14,15.96-4.61,6.88-10.46,16.62-17.53,29.22-5.5,9.82-10.36,17.35-14.59,22.59-4.22,5.24-8.99,9.13-14.29,11.66-5.3,2.54-11.79,3.81-19.45,3.81-15.13,0-28.73-3.52-40.81-10.56-12.08-7.04-21.61-17.11-28.58-30.2-6.97-13.1-10.46-28.32-10.46-45.67,0-7.86.79-17.02,2.36-27.5,1.18-7.86,1.77-13.26,1.77-16.21,0-3.76-1.08-6.67-3.24-8.72-2.16-2.04-4.42-3.68-6.78-4.91-2.36-1.23-4.02-2.09-5.01-2.58-.78-.33-1.13-.74-1.03-1.23.1-.49.44-.74,1.03-.74l98.13,13.01c.79.33,1.18.74,1.18,1.23s-.39.74-1.18.74c-16.3,1.8-30.74,5.32-43.32,10.56-12.57,5.24-22.29,11.58-29.17,19.03-6.87,7.45-10.31,15.35-10.31,23.7,0,6.55,1.62,12.61,4.86,18.17,3.24,5.57,7.56,9.95,12.97,13.14,5.41,3.19,11.05,4.79,16.94,4.79,6.29,0,11.35-1.35,15.18-4.05,3.83-2.7,7.42-6.75,10.76-12.16,3.34-5.4,8.65-15.22,15.91-29.47,7.86-15.22,16.31-26.4,25.34-33.52,9.04-7.12,18.86-10.68,29.47-10.68,15.32,0,29.03,4.79,41.11,14.37,12.08,9.58,21.47,21.49,28.14,35.73s10.02,27.99,10.02,41.25c0,10.15-.79,20.47-2.36,30.94Z"/>
        <path class="cls-1" d="M247.76,1003.27c-.15,0-.32-.02-.5-.06l-101.63-13.25c-.66-.13-1.06-.35-1.26-.66-.13-.2-.17-.44-.11-.69.14-.56.58-.95,1.31-1.15,29.93-.99,51.96-6.79,65.58-17.24,13.58-10.43,20.47-23.75,20.47-39.59,0-7.59-1.62-14.64-4.82-20.94-3.19-6.29-7.56-11.28-12.98-14.83-5.41-3.54-11.38-5.34-17.76-5.34-5.18,0-10.16,1.87-14.78,5.56-4.66,3.72-9.34,9.06-13.91,15.87-4.6,6.85-10.49,16.68-17.52,29.19-5.49,9.8-10.41,17.42-14.62,22.65-4.24,5.26-9.09,9.22-14.43,11.77-5.33,2.55-11.93,3.84-19.62,3.84-15.13,0-28.93-3.57-41.01-10.61-12.09-7.04-21.76-17.26-28.74-30.36-6.97-13.1-10.51-28.53-10.51-45.86,0-7.83.79-17.1,2.36-27.56,1.17-7.8,1.76-13.23,1.76-16.15,0-3.63-1.05-6.47-3.12-8.43-2.12-2.01-4.37-3.64-6.69-4.85-2.35-1.23-4.02-2.08-5-2.58-1.2-.5-1.34-1.18-1.25-1.66.08-.4.37-1.06,1.42-1.06l98.23,13.02.05.02c.94.4,1.42.93,1.42,1.6,0,.42-.21,1.14-1.58,1.14-16.15,1.79-30.69,5.33-43.16,10.53-12.46,5.2-22.23,11.57-29.03,18.93-6.77,7.34-10.21,15.22-10.21,23.43,0,6.45,1.62,12.5,4.81,17.97,3.19,5.48,7.5,9.85,12.82,12.99,5.32,3.14,10.95,4.73,16.74,4.73,6.17,0,11.2-1.34,14.95-3.98,3.77-2.66,7.35-6.71,10.65-12.04,3.32-5.37,8.67-15.27,15.9-29.44,7.85-15.2,16.41-26.53,25.45-33.65,9.07-7.15,19.07-10.77,29.71-10.77,15.34,0,29.26,4.86,41.36,14.45,12.08,9.58,21.59,21.64,28.26,35.87,6.67,14.24,10.06,28.17,10.06,41.42,0,10.12-.79,20.55-2.36,31h0c-1.17,7.8-1.76,13.73-1.76,17.62,0,3.15,1.15,5.95,3.42,8.32,2.32,2.42,6.15,5.03,11.39,7.78.71.4,1.12.99,1.24,1.77.06.44-.02.77-.26.99-.18.17-.43.26-.74.26ZM196.07,888.73c6.53,0,12.65,1.84,18.19,5.47,5.54,3.62,9.99,8.71,13.25,15.13,3.25,6.41,4.91,13.58,4.91,21.3,0,16.1-6.99,29.63-20.78,40.22-13.75,10.56-35.94,16.41-65.94,17.39-.56.17-.63.46-.66.56.03.1.15.25.72.37l101.63,13.25c.46.1.56,0,.57,0,.01-.01.05-.09.02-.29-.08-.53-.35-.92-.83-1.18-5.3-2.78-9.21-5.45-11.59-7.93-2.42-2.52-3.65-5.51-3.65-8.87,0-3.93.6-9.9,1.77-17.74h0c1.56-10.41,2.35-20.8,2.35-30.88,0-13.13-3.36-26.96-9.98-41.08-6.62-14.12-16.05-26.09-28.03-35.59-11.95-9.47-25.7-14.28-40.86-14.28-10.47,0-20.3,3.57-29.22,10.6-8.95,7.05-17.44,18.29-25.23,33.39-7.23,14.18-12.59,24.11-15.93,29.49-3.35,5.42-7.01,9.55-10.87,12.27-3.88,2.74-9.06,4.12-15.41,4.12-5.94,0-11.7-1.63-17.15-4.84-5.44-3.21-9.85-7.68-13.11-13.28-3.26-5.6-4.92-11.78-4.92-18.37,0-8.41,3.51-16.47,10.42-23.97,6.88-7.45,16.75-13.89,29.31-19.13,12.55-5.23,27.16-8.79,43.43-10.59.82,0,.82-.25.82-.34,0-.3-.3-.58-.89-.84l-98.07-13.01c-.46,0-.55.22-.59.42-.05.27.21.54.79.78,1.01.5,2.68,1.36,5.04,2.59,2.38,1.24,4.69,2.92,6.87,4.98,2.23,2.11,3.37,5.15,3.37,9.01,0,2.95-.6,8.43-1.77,16.27-1.56,10.42-2.35,19.65-2.35,27.44,0,17.2,3.5,32.51,10.41,45.49,6.91,12.97,16.47,23.08,28.43,30.05,11.96,6.97,25.63,10.5,40.61,10.5,7.57,0,14.06-1.27,19.28-3.77,5.23-2.5,9.99-6.39,14.15-11.55,4.19-5.19,9.08-12.77,14.55-22.54,7.03-12.54,12.94-22.38,17.55-29.25,4.62-6.88,9.35-12.28,14.08-16.05,4.77-3.81,9.91-5.73,15.28-5.73Z"/>
      </g>
      <g>
        <path d="M231.57,660.88c.88-.25,1.33-.04,1.33.61,0,4.91-.2,9.82-.59,14.73-.2,1.64-.29,3.6-.29,5.89v64.83c0,3.11.1,5.65.29,7.61.39,6.22.59,12.28.59,18.17,0,.49-.29.74-.88.74-1.18,0-1.77-.49-1.77-1.47-.78-17.68-19.74-26.52-56.87-26.52l.59.25.29,34.38-.29,32.42c5.3,3.28,10.95,5.81,16.94,7.61,5.99,1.8,11.74,2.7,17.24,2.7,6.48,0,11.74-1.31,15.77-3.93,4.03-2.62,6.14-6.54,6.34-11.79,0-.82.44-1.35,1.33-1.6.88-.25,1.33.04,1.33.86,0,6.55-.2,15.22-.59,26.03-.2,3.6-.29,7.61-.29,12.03v4.91c0,2.46.1,4.75.29,6.88.39,6.54.59,11.87.59,15.96,0,.49-.44.65-1.33.49-.88-.17-1.33-.49-1.33-.98-.19-5.73-6.23-14.2-18.12-25.42-11.88-11.21-24.02-20.91-36.39-29.1l-99.31-64.58c-14.73,1.8-27.8,4.09-39.19,6.88-.19,0-.54.04-1.03.12-.49.08-.83-.2-1.03-.86-2.55-10.8-7.12-22.26-13.7-34.38-6.58-12.11-13.41-20.95-20.48-26.52-.39-.16-.59-.41-.59-.74s.2-.57.59-.74l163.84-8.84c23.38-1.31,40.03-4.17,49.95-8.59,9.92-4.42,15.08-9.98,15.47-16.7,0-.65.44-1.11,1.33-1.35ZM169.84,745.48l-6.19.25c-34.57,1.47-61.68,3.44-81.33,5.89l87.52,58.2-.29-31.19.29-33.15Z"/>
        <path class="cls-1" d="M232.16,873.14c-.19,0-.41-.02-.65-.07-1.1-.21-1.65-.67-1.65-1.38-.19-5.58-6.24-14.04-18-25.12-11.81-11.14-24.03-20.92-36.34-29.06l-99.18-64.5c-14.6,1.79-27.72,4.1-39,6.85-.21.01-.47.03-1.06.13-.4.07-1.13.01-1.48-1.14-2.54-10.74-7.13-22.27-13.67-34.3-6.51-11.98-13.35-20.85-20.33-26.36-.68-.3-.78-.81-.78-1.08s.11-.8.83-1.11l.13-.03,163.84-8.84c23.22-1.3,39.98-4.18,49.81-8.56,9.73-4.33,14.85-9.84,15.23-16.36,0-.56.28-1.34,1.62-1.71h0c.65-.18,1.12-.15,1.44.1.18.13.39.4.39.9,0,4.88-.2,9.85-.59,14.77-.19,1.62-.29,3.59-.29,5.86v64.83c0,3.1.1,5.64.29,7.57.39,6.24.59,12.36.59,18.21,0,.71-.48,1.14-1.28,1.14-1.89,0-2.17-1.17-2.17-1.87-.76-17.17-19.43-25.96-55.48-26.12l.29,34.22-.29,32.2c5.19,3.18,10.79,5.69,16.66,7.45,5.92,1.78,11.68,2.68,17.12,2.68,6.38,0,11.61-1.3,15.55-3.87,3.9-2.53,5.97-6.39,6.15-11.47,0-.68.28-1.59,1.62-1.97.59-.16,1.06-.12,1.38.12.3.23.45.6.45,1.12,0,6.49-.2,15.25-.59,26.04-.2,3.56-.29,7.6-.29,12.02v4.91c0,2.45.1,4.75.29,6.84.39,6.56.59,11.94.59,16,0,.37-.17.59-.31.7-.2.17-.47.25-.84.25ZM76.52,752.19l.12.08,99.31,64.58c12.35,8.17,24.61,17.97,36.45,29.14,12.08,11.39,18.05,19.8,18.25,25.69,0,.35.54.52,1,.6.65.12.82,0,.83,0,.02-4.14-.18-9.5-.57-16.03-.2-2.1-.3-4.43-.3-6.9v-4.91c0-4.43.1-8.49.3-12.05.39-10.78.59-19.53.59-26.01,0-.25-.05-.42-.14-.48-.11-.08-.36-.08-.68,0-.71.2-1.03.57-1.03,1.21-.2,5.37-2.39,9.44-6.52,12.12-4.07,2.65-9.45,3.99-15.98,3.99-5.52,0-11.36-.91-17.35-2.72-6-1.8-11.73-4.38-17.04-7.66l-.19-.12.3-32.64-.29-34.11-.35-.14.15-.77c37.21,0,56.48,9.05,57.27,26.9,0,.55.16,1.09,1.37,1.09.48,0,.48-.17.48-.34,0-5.83-.2-11.94-.59-18.15-.2-1.94-.3-4.51-.3-7.64v-64.83c0-2.31.1-4.31.3-5.94.39-4.88.59-9.82.59-14.69,0-.08,0-.22-.07-.26-.03-.02-.19-.12-.75.04h0c-.93.26-1.03.67-1.03.97-.4,6.87-5.68,12.6-15.71,17.06-9.92,4.42-26.77,7.32-50.09,8.63L1.08,696.76c-.29.14-.29.28-.29.34,0,.07,0,.23.34.37l.09.05c7.08,5.58,14.01,14.54,20.58,26.64,6.57,12.09,11.19,23.69,13.74,34.48.19.62.45.58.57.56.54-.09.88-.13,1.1-.13,11.26-2.76,24.46-5.08,39.14-6.87l.14-.02ZM170.25,810.57l-89.04-59.21,1.07-.13c19.57-2.45,46.94-4.43,81.36-5.9l6.61-.26-.3,33.57.3,31.93ZM83.44,751.88l85.99,57.18-.29-30.43.29-32.74-5.77.23c-33.77,1.44-60.76,3.38-80.23,5.76Z"/>
      </g>
      <g>
        <path d="M162.77,599.86c6.68,1.96,13.85,2.95,21.51,2.95,12.38,0,23.09-2.33,32.12-7,9.04-4.67,13.66-11.09,13.85-19.28,0-.82.44-1.39,1.33-1.72.88-.33,1.33,0,1.33.98,0,7.21-.2,16.7-.59,28.49-.2,3.93-.29,8.43-.29,13.51v4.42c0,3.44.1,6.55.29,9.33.39,8.51.59,15.55.59,21.12,0,.65-.4.86-1.18.61-.78-.25-1.18-.7-1.18-1.35-.19-5.24-3.44-11.01-9.72-17.31-6.28-6.3-14.04-12.16-23.28-17.56-9.23-5.4-17.98-9.33-26.23-11.79l-88.99-26.52c-10.61-3.27-19.74-4.91-27.41-4.91-9.82,0-16.8,2.38-20.92,7.12-4.13,4.75-6.28,10.8-6.48,18.17,0,.98-.44,1.6-1.33,1.84-.88.25-1.33-.12-1.33-1.11,0-6.38.2-12.36.59-17.93.2-1.8.29-4.17.29-7.12v-61.64l120.23-66.06-50.68-15.96c-6.87-1.96-14.04-2.95-21.51-2.95-12.18,0-22.88,2.38-32.12,7.12-9.23,4.75-13.95,11.13-14.14,19.15,0,.98-.44,1.6-1.33,1.84-.88.25-1.33-.04-1.33-.86,0-7.37.2-16.94.59-28.73.2-3.93.29-8.35.29-13.26v-4.42c0-3.44-.1-6.55-.29-9.33-.39-8.51-.59-15.55-.59-21.12,0-.65.4-.86,1.18-.61.79.25,1.18.7,1.18,1.35.2,5.24,3.44,11.01,9.72,17.31,6.29,6.3,14.05,12.16,23.28,17.56,9.24,5.4,17.98,9.33,26.23,11.79l144.98,43.71c.78.17,1.22.53,1.33,1.1.1.58-.15,1.02-.74,1.35l-167.08,97.49,97.83,30.2Z"/>
        <path class="cls-1" d="M232.28,653.77c-.2,0-.42-.04-.67-.12-1.21-.38-1.46-1.15-1.46-1.73-.19-5.1-3.42-10.83-9.61-17.03-6.24-6.25-14.05-12.14-23.2-17.5-9.16-5.36-17.95-9.31-26.14-11.75l-88.99-26.52c-10.53-3.25-19.71-4.89-27.29-4.89-9.65,0-16.59,2.35-20.62,6.98-4.04,4.65-6.19,10.68-6.39,17.92,0,1.15-.56,1.92-1.62,2.22-.55.15-1,.11-1.32-.14-.34-.26-.51-.71-.51-1.35,0-6.34.2-12.38.59-17.95.2-1.78.29-4.16.29-7.09v-61.87l.21-.11,119.41-65.61-49.79-15.68c-6.8-1.94-14-2.93-21.39-2.93-12.05,0-22.8,2.38-31.94,7.08-9.05,4.66-13.73,10.98-13.93,18.81,0,1.15-.56,1.92-1.62,2.22-.59.17-1.06.12-1.38-.12-.3-.23-.45-.61-.45-1.12,0-7.3.2-16.97.59-28.74.2-3.88.29-8.34.29-13.25v-4.42c0-3.43-.1-6.56-.29-9.3-.39-8.51-.59-15.63-.59-21.15,0-.42.13-.73.4-.93.31-.23.73-.25,1.3-.07,1.21.38,1.46,1.15,1.46,1.73.19,5.1,3.42,10.83,9.61,17.03,6.23,6.25,14.04,12.14,23.2,17.49,9.17,5.36,17.96,9.32,26.14,11.75l144.98,43.71c1.16.24,1.51.91,1.6,1.42.09.52,0,1.25-.94,1.77l-166.29,97.02,96.96,29.93c6.61,1.94,13.81,2.93,21.4,2.93,12.26,0,23-2.34,31.94-6.96,8.86-4.57,13.44-10.94,13.63-18.93,0-.67.27-1.59,1.59-2.08.56-.21,1.02-.2,1.35.04.34.24.52.68.52,1.32,0,7.13-.2,16.72-.59,28.5-.2,3.88-.29,8.42-.29,13.49v4.42c0,3.43.1,6.56.29,9.3.39,8.52.59,15.63.59,21.15,0,.42-.13.73-.4.93-.17.12-.38.19-.63.19ZM54.92,573.43c7.66,0,16.92,1.66,27.52,4.93l88.99,26.52c8.25,2.46,17.1,6.43,26.31,11.83,9.21,5.39,17.07,11.32,23.36,17.62,6.33,6.34,9.64,12.26,9.84,17.58,0,.31.09.73.9.98.45.14.58.06.59.05.03-.02.07-.11.07-.28,0-5.5-.2-12.6-.59-21.1-.2-2.75-.29-5.9-.29-9.35v-4.42c0-5.09.1-9.64.29-13.53.39-11.76.59-21.34.59-28.46,0-.34-.06-.59-.17-.66-.1-.07-.33-.05-.61.06-.73.27-1.06.7-1.06,1.34-.2,8.31-4.93,14.92-14.07,19.63-9.05,4.67-19.92,7.04-32.3,7.04-7.66,0-14.94-1-21.62-2.96h0s-98.7-30.47-98.7-30.47l.79-.46,167.08-97.49c.57-.32.59-.67.54-.94-.04-.25-.2-.61-1.01-.78l-145.01-43.72c-8.24-2.45-17.09-6.43-26.31-11.82-9.22-5.39-17.08-11.32-23.36-17.62-6.33-6.34-9.64-12.26-9.84-17.58,0-.31-.09-.73-.9-.98-.45-.14-.58-.06-.59-.05-.03.02-.07.11-.07.28,0,5.51.2,12.61.59,21.1.2,2.75.29,5.9.29,9.35v4.42c0,4.92-.1,9.39-.29,13.28-.39,11.76-.59,21.42-.59,28.71,0,.25.05.42.14.49.11.08.36.08.68-.01.71-.2,1.03-.66,1.03-1.46.2-8.15,5.03-14.71,14.36-19.51,9.25-4.75,20.12-7.17,32.3-7.17,7.47,0,14.74,1,21.62,2.96l51.59,16.25-.82.45-120.02,65.94v61.4c0,2.96-.1,5.37-.3,7.17-.39,5.53-.59,11.56-.59,17.88,0,.36.07.62.2.71.14.11.42.06.62,0,.71-.2,1.03-.65,1.03-1.46.2-7.44,2.41-13.64,6.58-18.43,4.19-4.82,11.33-7.26,21.22-7.26Z"/>
      </g>
      <g>
        <path d="M232.31,412.25c.39,5.56.59,11.54.59,17.93,0,.33-.1.61-.29.86-.2.25-.4.37-.59.37-.39,0-.78-.17-1.18-.49-.39-.33-.59-.82-.59-1.47-.19-5.89-1.81-10.85-4.86-14.86-3.04-4.01-8.4-7.9-16.06-11.66-7.66-3.76-18.96-7.94-33.89-12.52l-104.32-31.68c-8.84-2.78-16.5-4.17-22.98-4.17-7.27,0-12.47,1.68-15.62,5.03-3.14,3.36-4.81,7.57-5.01,12.65,0,.66-.34,1.07-1.03,1.23-.69.17-1.03-.08-1.03-.74l.29-12.52c.2-1.31.29-3.03.29-5.16l-.29-81.53c-.19-13.75,2.21-27.13,7.22-40.15,5.01-13.01,12.92-23.78,23.72-32.29,10.81-8.51,24.27-12.77,40.37-12.77,24.95,0,47.74,6.96,68.36,20.87,20.63,13.92,36.89,31.8,48.77,53.66,11.89,21.85,17.83,43.83,17.83,65.93v76.37c0,2.95.1,5.32.29,7.12ZM202.25,290.58c-16.89-15.63-37.13-27.58-60.7-35.85-23.57-8.26-44.4-12.4-62.47-12.4-15.12,0-27.01,3.6-35.66,10.8-8.64,7.21-12.97,18.83-12.97,34.87v.74c6.09,2.79,12.72,5.4,19.89,7.86,7.17,2.46,17.53,5.73,31.09,9.82l95.18,28.73c12.57,3.93,22.64,6.88,30.2,8.84,7.56,1.96,14.49,3.44,20.77,4.42v-3.19c0-20.79-8.44-39-25.34-54.64Z"/>
        <path class="cls-1" d="M232.02,431.81c-.48,0-.96-.2-1.43-.58-.49-.41-.74-1.01-.74-1.78-.19-5.77-1.8-10.69-4.78-14.61-2.99-3.94-8.34-7.82-15.92-11.55-7.61-3.74-18.99-7.94-33.83-12.5l-104.31-31.68c-8.77-2.76-16.46-4.16-22.87-4.16-7.12,0-12.27,1.65-15.33,4.91-3.06,3.27-4.71,7.44-4.9,12.39,0,.83-.48,1.4-1.34,1.6-.48.12-.86.06-1.13-.15-.26-.2-.39-.53-.39-.98l.29-12.53c.2-1.32.29-3.04.29-5.15l-.29-81.52c-.19-13.74,2.25-27.3,7.25-40.29,5.01-13.02,13.03-23.94,23.85-32.46,10.83-8.53,24.5-12.85,40.62-12.85,24.91,0,47.99,7.05,68.59,20.94,20.59,13.89,37.04,31.99,48.9,53.8,11.86,21.81,17.88,44.05,17.88,66.12v76.37c0,2.93.1,5.31.29,7.08v.02c.39,5.56.59,11.61.59,17.95,0,.41-.13.79-.38,1.11-.28.35-.58.52-.9.52ZM48.14,354.15c6.49,0,14.26,1.41,23.1,4.19l104.31,31.68c14.88,4.57,26.3,8.79,33.95,12.55,7.69,3.78,13.14,7.74,16.2,11.78,3.08,4.06,4.75,9.13,4.94,15.08,0,.54.15.93.45,1.18.32.27.63.4.92.4.05,0,.15-.06.28-.22.14-.18.21-.38.21-.61,0-6.33-.2-12.35-.59-17.89-.2-1.79-.3-4.2-.3-7.16v-76.37c0-21.94-5.98-44.06-17.78-65.74-11.8-21.69-28.16-39.7-48.64-53.51-20.47-13.8-43.39-20.8-68.14-20.8-15.94,0-29.44,4.27-40.12,12.68-10.7,8.43-18.64,19.24-23.6,32.12-4.96,12.9-7.38,26.36-7.19,40l.29,81.53c0,2.15-.1,3.91-.3,5.22l-.29,12.47c0,.17.03.3.09.34.05.04.2.06.45,0,.51-.12.72-.37.72-.84.2-5.16,1.92-9.5,5.12-12.92,3.21-3.42,8.56-5.16,15.91-5.16ZM228,348.87l-.46-.07c-6.27-.98-13.27-2.47-20.81-4.43-7.54-1.96-17.71-4.93-30.22-8.85l-95.18-28.73c-13.4-4.04-23.87-7.35-31.1-9.83-7.17-2.46-13.88-5.11-19.93-7.87l-.23-.11v-.99c0-16.09,4.41-27.92,13.11-35.18,8.68-7.23,20.76-10.9,35.91-10.9,18.03,0,39.09,4.18,62.6,12.42,23.52,8.25,43.99,20.34,60.84,35.94,16.9,15.64,25.47,34.12,25.47,54.93v3.66ZM30.86,288.48c5.97,2.72,12.57,5.32,19.62,7.74,7.23,2.47,17.68,5.78,31.07,9.82l95.18,28.73c12.51,3.91,22.66,6.88,30.19,8.84,7.33,1.9,14.15,3.36,20.27,4.34v-2.72c0-20.58-8.48-38.86-25.21-54.34-16.78-15.52-37.15-27.56-60.56-35.77-23.43-8.21-44.4-12.38-62.34-12.38-14.96,0-26.87,3.6-35.4,10.71-8.51,7.09-12.82,18.72-12.82,34.56v.48Z"/>
      </g>
      <g>
        <path d="M26.18.45c.88.17,1.33.49,1.33.98.2,5.73,6.14,14.28,17.83,25.66,11.69,11.38,23.62,21.33,35.8,29.84l75.14,51.32,13.56,4.17c12.18,3.6,22.2,5.4,30.06,5.4,10.81,0,18.47-2.62,22.98-7.86,4.52-5.24,6.88-11.87,7.07-19.89,0-1.14.49-1.88,1.47-2.21.98-.33,1.47.08,1.47,1.23,0,7.21-.2,13.75-.59,19.65-.2,1.96-.29,4.58-.29,7.86v68.02c0,3.6.1,6.47.29,8.59.39,6.55.59,13.75.59,21.61,0,.82-.4,1.23-1.18,1.23-1.18,0-1.77-.74-1.77-2.21-.19-7.04-1.96-13.01-5.3-17.93-3.34-4.91-9.28-9.58-17.83-14-8.55-4.42-20.97-9.09-37.28-14l-8.84-2.7-68.66,9.58c-23.38,3.44-39.88,7.33-49.51,11.66-9.62,4.34-14.63,9.37-15.03,15.1,0,.49-.44.82-1.33.98-.88.17-1.33,0-1.33-.49,0-4.26.2-8.51.59-12.77.2-1.31.29-3.03.29-5.16v-66.3c0-3.11-.1-5.65-.29-7.61l-.29-18.17c0-.82.35-1.1,1.03-.86.69.25,1.03.78,1.03,1.6.2,7.53,3.44,13.59,9.72,18.17,6.29,4.58,16.6,6.88,30.94,6.88,4.13,0,8.74-.25,13.85-.74l70.72-6.88-68.66-47.64c-5.3-3.6-11.05-6.38-17.24-8.35-6.19-1.96-12.03-2.95-17.53-2.95-6.28,0-11.39,1.27-15.32,3.81-3.93,2.54-5.99,6.43-6.19,11.66,0,.82-.44,1.35-1.33,1.6-.88.25-1.33-.04-1.33-.86,0-6.55.2-15.23.59-26.03.2-3.6.29-7.61.29-12.03v-5.4c0-2.78-.1-5.24-.29-7.37-.39-6.55-.59-11.7-.59-15.47,0-.65.44-.9,1.33-.74Z"/>
        <path class="cls-1" d="M231.72,216.45c-.81,0-2.17-.34-2.17-2.61-.19-6.92-1.95-12.88-5.23-17.7-3.28-4.83-9.23-9.5-17.68-13.87-8.49-4.39-21.01-9.09-37.21-13.97l-8.76-2.68-68.57,9.56c-23.22,3.42-39.84,7.33-49.4,11.63-9.43,4.25-14.41,9.22-14.79,14.77,0,.46-.29,1.1-1.65,1.35-.71.13-1.18.08-1.49-.18-.14-.12-.31-.34-.31-.71,0-4.23.2-8.54.59-12.81.2-1.3.29-3.01.29-5.12v-66.3c0-3.1-.1-5.65-.29-7.57l-.3-18.21c0-.57.15-.97.46-1.19.28-.2.66-.22,1.11-.06.59.21,1.3.72,1.3,1.97.19,7.36,3.41,13.37,9.56,17.85,6.19,4.51,16.52,6.8,30.71,6.8,4.09,0,8.74-.25,13.81-.73l69.64-6.77-67.77-47.02c-5.25-3.56-11.02-6.35-17.13-8.3-6.12-1.94-11.98-2.93-17.41-2.93-6.17,0-11.26,1.26-15.11,3.74-3.79,2.45-5.81,6.27-6.01,11.34,0,.68-.28,1.59-1.62,1.97-.59.17-1.06.12-1.38-.12-.3-.23-.45-.61-.45-1.12,0-6.49.2-15.25.59-26.04.2-3.56.29-7.6.29-12.02v-5.4c0-2.77-.1-5.24-.29-7.33-.39-6.56-.59-11.77-.59-15.51,0-.49.21-.77.38-.91.31-.26.78-.33,1.42-.22h0c1.1.2,1.65.67,1.65,1.38.19,5.58,6.15,14.12,17.71,25.37,11.62,11.31,23.65,21.34,35.75,29.79l75.09,51.29,13.5,4.16c12.08,3.57,22.15,5.38,29.94,5.38,10.64,0,18.27-2.6,22.68-7.72,4.44-5.14,6.78-11.75,6.98-19.64,0-1.3.6-2.19,1.75-2.58.59-.2,1.07-.17,1.43.09.39.28.57.77.57,1.52,0,7.16-.2,13.78-.59,19.67-.2,1.94-.29,4.57-.29,7.83v68.02c0,3.59.1,6.47.29,8.56.39,6.56.59,13.84.59,21.65,0,1.03-.58,1.63-1.58,1.63ZM160.74,164.81l8.92,2.73c16.25,4.89,28.81,9.61,37.34,14.02,8.57,4.43,14.62,9.18,17.98,14.13,3.37,4.95,5.18,11.06,5.37,18.14,0,1.62.73,1.82,1.37,1.82.56,0,.78-.23.78-.83,0-7.79-.2-15.05-.59-21.59-.2-2.1-.3-5-.3-8.62v-68.02c0-3.29.1-5.94.3-7.9.39-5.86.59-12.46.59-19.6,0-.45-.09-.76-.24-.87-.17-.12-.48-.05-.71.02-.82.28-1.2.86-1.2,1.83-.2,8.09-2.61,14.87-7.17,20.15-4.57,5.31-12.41,8-23.29,8-7.86,0-18.01-1.82-30.17-5.42l-13.67-4.23-75.14-51.32c-12.14-8.48-24.2-18.54-35.86-29.88C33.19,15.82,27.31,7.34,27.11,1.44c0-.35-.54-.52-1-.6-.53-.1-.71,0-.76.04-.06.05-.09.15-.09.3,0,3.72.2,8.92.59,15.45.2,2.1.3,4.59.3,7.39v5.4c0,4.44-.1,8.49-.3,12.05-.39,10.78-.59,19.53-.59,26.01,0,.25.05.42.14.49.11.08.36.08.68-.01.71-.2,1.03-.57,1.03-1.21.2-5.36,2.35-9.4,6.37-12,3.98-2.57,9.21-3.87,15.54-3.87,5.52,0,11.46,1,17.65,2.97,6.19,1.96,12.02,4.79,17.34,8.4l69.56,48.26-71.81,6.98c-5.1.49-9.77.74-13.89.74-14.36,0-24.85-2.34-31.18-6.95-6.36-4.64-9.69-10.86-9.89-18.48,0-.67-.24-1.04-.77-1.23-.21-.08-.34-.07-.38-.04-.01,0-.12.1-.12.52l.29,18.17c.19,1.92.29,4.5.29,7.62v66.3c0,2.15-.1,3.9-.3,5.22-.39,4.22-.58,8.5-.58,12.71.04.1.2.22.85.1.46-.08,1-.25,1-.59.41-5.89,5.54-11.08,15.26-15.47,9.62-4.33,26.32-8.27,49.61-11.7l68.75-9.59Z"/>
      </g>
      <g>
        <path d="M230.74,744c.4,0,.79.16,1.18.49.4.33.59.74.59,1.23.2,5.57,1.82,10.28,4.86,14.12,3.05,3.85,8.4,7.57,16.06,11.17,7.66,3.6,18.86,7.7,33.59,12.28l104.91,31.92c9.24,2.62,16.8,3.93,22.69,3.93,13.56,0,20.53-5.81,20.92-17.44,0-.82.35-1.31,1.03-1.47.69-.16,1.03.17,1.03.98l-.29,12.28c-.2,1.31-.29,3.03-.29,5.16v62.86c0,2.95.1,5.24.29,6.88.39,5.24.59,10.89.59,16.94,0,.66-.29.98-.88.98-.39,0-.78-.16-1.18-.49-.39-.33-.59-.74-.59-1.23-.19-5.56-1.81-10.27-4.86-14.12-3.04-3.84-8.4-7.57-16.06-11.17-7.66-3.6-18.86-7.69-33.59-12.28l-47.44-14.49.29,32.66-.29,32.66,58.64,17.93c9.24,2.62,16.8,3.93,22.69,3.93,13.56,0,20.53-5.81,20.92-17.43,0-.82.35-1.31,1.03-1.47.69-.16,1.03.17,1.03.98l-.29,12.28c-.2,1.31-.29,3.03-.29,5.16v62.86c0,2.95.1,5.24.29,6.88.39,5.24.59,10.88.59,16.94,0,.65-.29.98-.88.98-.39,0-.78-.17-1.18-.49-.39-.33-.59-.74-.59-1.23-.19-5.57-1.81-10.28-4.86-14.12-3.04-3.84-8.4-7.57-16.06-11.17-7.66-3.6-18.86-7.69-33.59-12.28l-104.91-31.92c-9.23-2.62-16.8-3.93-22.69-3.93-13.56,0-20.53,5.81-20.92,17.43,0,.66-.34,1.07-1.03,1.23-.69.17-1.03-.08-1.03-.74l.29-12.28c.2-1.31.29-3.03.29-5.16v-62.86c0-2.95-.1-5.24-.29-6.88-.39-5.24-.59-10.88-.59-16.94,0-.65.29-.98.88-.98.4,0,.79.17,1.18.49.4.33.59.74.59,1.23.2,5.57,1.82,10.28,4.86,14.12,3.05,3.85,8.4,7.57,16.06,11.17,7.66,3.6,18.86,7.7,33.59,12.28l42.14,12.77-.29-32.9.29-32.42-53.34-16.21c-9.23-2.62-16.8-3.93-22.69-3.93-13.56,0-20.53,5.81-20.92,17.43,0,.66-.34,1.07-1.03,1.23-.69.17-1.03-.08-1.03-.74l.29-12.28c.2-1.31.29-3.03.29-5.16v-62.86c0-2.95-.1-5.24-.29-6.88-.39-5.24-.59-10.89-.59-16.94,0-.65.29-.98.88-.98Z"/>
        <path class="cls-1" d="M437.02,1027.29c-.48,0-.96-.2-1.43-.58-.49-.41-.73-.93-.73-1.54-.19-5.44-1.8-10.11-4.78-13.87-2.99-3.78-8.35-7.5-15.92-11.06-7.62-3.58-18.9-7.7-33.54-12.26l-104.9-31.92c-9.15-2.59-16.75-3.91-22.57-3.91-13.42,0-20.13,5.58-20.52,17.05,0,.83-.48,1.4-1.34,1.6-.48.11-.86.06-1.13-.15-.26-.2-.39-.53-.39-.98l.3-12.29c.2-1.32.29-3.04.29-5.15v-62.86c0-2.93-.1-5.22-.29-6.83-.39-5.26-.59-10.97-.59-16.99,0-.88.47-1.38,1.28-1.38.49,0,.97.2,1.43.58.49.41.73.92.73,1.53.19,5.44,1.8,10.11,4.78,13.87,3,3.79,8.35,7.51,15.92,11.06,7.62,3.58,18.91,7.71,33.54,12.26l41.62,12.61-.29-32.36.29-32.12-53.05-16.12c-9.16-2.59-16.75-3.91-22.57-3.91-13.42,0-20.13,5.58-20.52,17.05,0,.83-.48,1.4-1.34,1.6-.48.11-.86.06-1.13-.15-.26-.21-.39-.53-.39-.98l.3-12.29c.2-1.32.29-3.04.29-5.15v-62.86c0-2.93-.1-5.22-.29-6.83-.39-5.26-.59-10.97-.59-16.99,0-.88.47-1.38,1.28-1.38.49,0,.97.2,1.43.58.49.41.73.92.73,1.54.19,5.44,1.8,10.11,4.78,13.87,3,3.79,8.35,7.51,15.92,11.06,7.62,3.58,18.9,7.71,33.54,12.26l104.9,31.92c9.15,2.59,16.74,3.91,22.57,3.91,13.42,0,20.14-5.58,20.52-17.05,0-.98.47-1.64,1.34-1.85.44-.1.81-.05,1.08.17.3.24.45.64.45,1.21l-.3,12.29c-.2,1.33-.29,3.04-.29,5.15v62.86c0,2.93.1,5.23.29,6.83.39,5.26.59,10.97.59,16.99,0,.88-.47,1.38-1.28,1.38-.49,0-.97-.2-1.43-.58-.49-.4-.73-.92-.73-1.53-.19-5.44-1.8-10.11-4.78-13.87-2.99-3.78-8.35-7.5-15.92-11.06-7.62-3.58-18.9-7.7-33.54-12.26l-46.92-14.33.29,32.11-.29,32.37,58.35,17.84c9.15,2.59,16.74,3.91,22.57,3.91,13.42,0,20.14-5.58,20.52-17.05,0-1.26.73-1.7,1.34-1.85.44-.1.81-.05,1.08.17.3.24.45.64.45,1.21l-.3,12.29c-.2,1.33-.29,3.04-.29,5.15v62.86c0,2.93.1,5.23.29,6.83.39,5.26.59,10.97.59,16.99,0,.88-.47,1.38-1.28,1.38ZM253.14,951.35c5.9,0,13.57,1.33,22.8,3.94l104.91,31.92c14.68,4.57,26,8.71,33.65,12.3,7.68,3.61,13.13,7.41,16.2,11.29,3.09,3.89,4.75,8.72,4.95,14.35,0,.39.14.68.45.94.32.27.63.4.92.4.26,0,.48-.04.48-.58,0-6-.2-11.69-.59-16.91-.2-1.61-.3-3.94-.3-6.91v-62.86c0-2.14.1-3.9.3-5.22l.29-12.23c0-.41-.1-.53-.15-.57-.09-.07-.29-.04-.4-.02-.34.08-.72.28-.72,1.08-.4,11.84-7.57,17.83-21.32,17.83-5.9,0-13.57-1.33-22.8-3.94l-58.93-18.02.3-32.96-.3-33.2.52.16,47.44,14.49c14.68,4.57,26,8.7,33.65,12.3,7.68,3.61,13.13,7.41,16.2,11.29,3.09,3.9,4.75,8.73,4.95,14.35,0,.38.15.68.45.93.32.27.62.4.92.4.26,0,.48-.04.48-.58,0-6-.2-11.69-.59-16.92-.2-1.61-.3-3.94-.3-6.91v-62.86c0-2.15.1-3.9.3-5.22l.29-12.23c0-.41-.1-.53-.15-.57-.09-.07-.29-.04-.4-.02-.34.08-.72.28-.72,1.08-.4,11.84-7.57,17.83-21.32,17.83-5.9,0-13.57-1.33-22.8-3.94l-104.91-31.93c-14.68-4.56-26-8.7-33.65-12.3-7.68-3.61-13.13-7.4-16.2-11.29-3.08-3.89-4.75-8.72-4.95-14.35,0-.39-.14-.68-.45-.94-.32-.27-.62-.4-.92-.4-.26,0-.48.04-.48.58,0,6,.2,11.69.59,16.91.2,1.64.3,3.9.3,6.91v62.86c0,2.15-.1,3.9-.3,5.22l-.29,12.23c0,.17.03.3.09.34.05.04.2.06.45,0,.51-.12.73-.37.73-.84.4-11.84,7.58-17.83,21.32-17.83,5.89,0,13.56,1.33,22.8,3.94l53.63,16.3-.3,32.71.3,33.44-42.66-12.93c-14.67-4.56-25.99-8.7-33.65-12.3-7.68-3.61-13.13-7.4-16.2-11.29-3.08-3.89-4.75-8.72-4.95-14.35,0-.39-.14-.68-.45-.94-.32-.27-.62-.4-.92-.4-.26,0-.48.04-.48.58,0,6,.2,11.69.59,16.91.2,1.64.3,3.91.3,6.91v62.86c0,2.15-.1,3.9-.3,5.22l-.29,12.23c0,.17.03.29.09.34.05.04.2.06.45,0,.51-.12.73-.37.73-.84.4-11.84,7.58-17.83,21.32-17.83Z"/>
      </g>
      <g>
        <path d="M426.56,724.48c-8.74,13.18-23.62,19.77-44.64,19.77-11.2,0-24.46-2.29-39.78-6.88l-61-18.66c-10.61-3.11-19.45-4.67-26.52-4.67-7.85,0-13.5,1.68-16.94,5.03-3.43,3.36-5.25,7.49-5.45,12.4,0,.66-.39,1.07-1.18,1.23-.78.17-1.18-.08-1.18-.74,0-4.42.2-8.59.59-12.52.2-1.31.29-3.03.29-5.16v-63.85c0-2.95-.1-5.32-.29-7.12-.39-5.56-.59-11.54-.59-17.93,0-.33.1-.61.29-.86.2-.25.4-.37.59-.37.4,0,.79.17,1.18.49.4.33.59.82.59,1.47.2,5.89,1.82,10.85,4.86,14.86,3.05,4.01,8.4,7.9,16.06,11.66,7.66,3.77,18.96,7.94,33.89,12.52l55.1,16.7,7.07,2.21c10.81,3.44,20.33,6.18,28.58,8.23,8.25,2.05,16.01,3.07,23.28,3.07,20.04,0,30.06-10.23,30.06-30.7,0-11.46-3.83-22.59-11.49-33.4s-18.27-20.46-31.83-28.98c-13.56-8.51-28.88-15.31-45.97-20.38l-42.14-13.26c-6.87-1.96-14.04-2.95-21.51-2.95-12.38,0-23.08,2.33-32.12,7-9.03,4.67-13.65,11.09-13.85,19.28,0,.82-.44,1.39-1.33,1.72-.88.33-1.33,0-1.33-.98,0-7.2.2-16.7.59-28.49.2-3.93.29-8.43.29-13.51v-4.67c0-3.11-.1-5.89-.29-8.35l-.29-18.17c0-.65.35-.9,1.03-.74.69.17,1.03.58,1.03,1.23,0,4.58,2.85,9.66,8.55,15.22,5.7,5.57,12.62,10.72,20.77,15.47,8.15,4.75,15.87,8.19,23.13,10.31l56.58,16.7c19.45,5.89,36.59,13.84,51.42,23.82,14.84,9.99,26.37,21.24,34.62,33.76s12.38,25.42,12.38,38.68c0,20.47-4.37,37.29-13.11,50.46Z"/>
        <path class="cls-1" d="M381.91,744.65c-11.19,0-24.61-2.32-39.9-6.89l-61-18.66c-10.53-3.08-19.41-4.65-26.4-4.65-7.71,0-13.32,1.66-16.67,4.92-3.34,3.27-5.14,7.35-5.33,12.13,0,.47-.19,1.34-1.5,1.6-.55.12-.98.06-1.27-.18-.26-.21-.39-.53-.39-.95,0-4.4.2-8.63.59-12.56.2-1.29.29-3.01.29-5.12v-63.85c0-2.93-.1-5.31-.29-7.08-.39-5.58-.59-11.62-.59-17.97,0-.41.13-.79.38-1.11.28-.35.58-.52.9-.52.49,0,.97.2,1.43.58.49.41.73,1,.73,1.78.19,5.77,1.8,10.69,4.78,14.62,3,3.95,8.35,7.83,15.92,11.55,7.6,3.74,18.98,7.94,33.83,12.5l55.1,16.7,7.08,2.21c10.77,3.43,20.38,6.19,28.56,8.22,8.17,2.03,15.97,3.06,23.18,3.06,19.96,0,29.66-9.91,29.66-30.3,0-11.32-3.84-22.48-11.42-33.17-7.59-10.71-18.26-20.42-31.71-28.87-13.46-8.45-28.9-15.3-45.87-20.34l-42.15-13.26c-6.8-1.94-14-2.93-21.39-2.93-12.25,0-23,2.34-31.94,6.95-8.85,4.57-13.44,10.94-13.63,18.93,0,.68-.27,1.6-1.59,2.08-.56.21-1.01.2-1.35-.04-.34-.24-.52-.68-.52-1.32,0-7.13.2-16.72.59-28.5.2-3.88.29-8.42.29-13.49v-4.67c0-3.1-.1-5.9-.29-8.32l-.3-18.2c0-.45.13-.77.39-.98.27-.21.65-.27,1.13-.15.86.21,1.34.78,1.34,1.62,0,4.45,2.83,9.48,8.42,14.94,5.65,5.52,12.61,10.71,20.7,15.41,8.09,4.71,15.84,8.17,23.04,10.28l56.58,16.7c19.4,5.88,36.73,13.91,51.53,23.87,14.81,9.97,26.49,21.37,34.74,33.88,8.26,12.53,12.44,25.62,12.44,38.9,0,20.45-4.43,37.51-13.18,50.68h0c-8.78,13.24-23.91,19.95-44.98,19.95ZM254.61,713.65c7.07,0,16.03,1.57,26.63,4.68l61,18.67c15.21,4.55,28.56,6.86,39.67,6.86,20.78,0,35.69-6.59,44.31-19.59h0c8.66-13.05,13.05-29.95,13.05-50.24,0-13.12-4.14-26.06-12.31-38.46-8.18-12.42-19.8-23.75-34.51-33.65-14.73-9.92-32-17.92-51.31-23.77l-56.58-16.7c-7.27-2.13-15.08-5.61-23.22-10.35-8.14-4.74-15.15-9.96-20.85-15.53-5.75-5.62-8.67-10.84-8.67-15.51,0-.47-.22-.72-.72-.84-.26-.06-.4-.04-.45,0-.05.04-.09.17-.09.34l.29,18.17c.19,2.41.29,5.23.29,8.36v4.67c0,5.09-.1,9.64-.29,13.53-.39,11.76-.59,21.34-.59,28.46,0,.49.12.63.17.67.1.07.33.05.61-.06.73-.27,1.07-.7,1.07-1.35.2-8.31,4.93-14.91,14.07-19.63,9.05-4.67,19.92-7.04,32.3-7.04,7.47,0,14.74,1,21.62,2.96l42.15,13.26c17.04,5.06,32.54,11.93,46.06,20.42,13.54,8.5,24.28,18.29,31.94,29.08,7.67,10.82,11.57,22.14,11.57,33.63,0,20.63-10.25,31.09-30.46,31.09-7.28,0-15.14-1.04-23.38-3.08-8.2-2.03-17.83-4.8-28.61-8.23l-7.07-2.21-55.1-16.7c-14.89-4.57-26.31-8.79-33.95-12.55-7.68-3.77-13.13-7.74-16.2-11.78-3.08-4.06-4.74-9.13-4.94-15.08,0-.55-.15-.93-.45-1.18-.32-.27-.62-.4-.92-.4-.05,0-.15.06-.28.22-.14.17-.21.38-.21.61,0,6.33.2,12.35.59,17.9.2,1.78.3,4.19.3,7.15v63.85c0,2.15-.1,3.9-.3,5.22-.39,3.89-.58,8.09-.58,12.46,0,.09.01.26.09.33.03.03.18.11.61.02.76-.16.86-.51.86-.84.2-5.01,2.08-9.27,5.57-12.69,3.5-3.42,9.3-5.15,17.22-5.15Z"/>
      </g>
      <g>
        <path d="M431.86,535.53c-5.79,11.46-14.04,20.3-24.75,26.52-10.71,6.22-23.33,9.33-37.87,9.33-22.2,0-44.39-6.1-66.6-18.29-22.2-12.19-40.42-28.65-54.66-49.36-14.24-20.71-21.36-43.1-21.36-67.16,0-10.8.88-21.77,2.65-32.91.79-5.89,1.18-9.82,1.18-11.79,0-4.91-1.28-8.92-3.83-12.03-2.55-3.11-6.28-6.05-11.2-8.84-.78-.65-1.18-1.19-1.18-1.6s.4-.53,1.18-.37l104.91,16.7c.59.17.88.45.88.86s-.29.7-.88.86c-18.66.49-34.77,3.28-48.33,8.35-13.56,5.08-23.77,11.38-30.65,18.91-6.87,7.53-10.31,15.31-10.31,23.33,0,13.75,9.19,26.69,27.55,38.8,18.37,12.12,40.13,21.82,65.27,29.1,25.15,7.29,46.46,10.93,63.94,10.93,14.73,0,26.42-2.74,35.07-8.23,8.65-5.48,12.97-14.28,12.97-26.4,0-3.44-.44-6.91-1.33-10.44-.88-3.52-2.31-8.39-4.27-14.61l-31.24-9.58c-10.41-3.11-19.15-4.67-26.23-4.67-18.86,0-28.68,10.31-29.47,30.94,0,1.15-.44,1.88-1.33,2.21-.88.33-1.33-.08-1.33-1.23,0-7.86.2-15.06.59-21.61.2-2.13.29-4.99.29-8.59v-61.39c0-2.46-.1-4.34-.29-5.65-.39-4.58-.59-9.33-.59-14.24,0-.65.29-.98.88-.98,1.18,0,1.77.49,1.77,1.47.2,4.59,1.82,8.47,4.86,11.66,3.05,3.19,8.3,6.38,15.77,9.58,7.47,3.19,18.67,7.08,33.59,11.66l45.97,14c.59.17.93.49,1.03.98.1.49-.25.74-1.03.74-3.14,0-6.39,1.39-9.72,4.17-3.34,2.79-5.01,6.71-5.01,11.79,0,6.38,1.77,15.8,5.3,28.24,2.16,8.84,3.78,16,4.86,21.49,1.08,5.49,1.62,11.26,1.62,17.31,0,15.23-2.9,28.57-8.69,40.03Z"/>
        <path class="cls-1" d="M369.24,571.78c-22.16,0-44.63-6.17-66.79-18.34-22.15-12.17-40.58-28.81-54.8-49.48-14.22-20.68-21.43-43.35-21.43-67.39,0-10.77.89-21.86,2.66-32.97.78-5.83,1.17-9.78,1.17-11.72,0-4.79-1.26-8.76-3.74-11.78-2.51-3.05-6.24-6-11.09-8.75-.96-.79-1.38-1.4-1.38-1.94,0-.33.15-.52.28-.62.28-.23.72-.27,1.38-.14l104.89,16.69c1.02.28,1.22.84,1.22,1.25s-.2.98-1.18,1.25c-18.62.5-34.83,3.3-48.29,8.34-13.43,5.03-23.68,11.35-30.49,18.8-6.77,7.42-10.21,15.18-10.21,23.06,0,13.54,9.21,26.49,27.37,38.47,18.25,12.04,40.18,21.81,65.16,29.05,24.99,7.24,46.47,10.91,63.83,10.91,14.59,0,26.32-2.75,34.85-8.16,8.48-5.38,12.78-14.15,12.78-26.06,0-3.39-.44-6.87-1.31-10.34-.87-3.47-2.29-8.31-4.2-14.39l-31.04-9.52c-10.33-3.08-19.12-4.65-26.11-4.65-18.51,0-28.29,10.28-29.07,30.56,0,1.64-.86,2.3-1.59,2.57-.52.2-.96.18-1.29-.05-.38-.27-.57-.77-.57-1.55,0-7.81.2-15.08.59-21.63.2-2.1.29-4.98.29-8.57v-61.39c0-2.43-.1-4.31-.29-5.59-.4-4.61-.59-9.42-.59-14.3,0-.88.47-1.38,1.28-1.38,1.89,0,2.17,1.17,2.17,1.87.19,4.45,1.79,8.28,4.75,11.39,3,3.14,8.26,6.33,15.63,9.48,7.44,3.18,18.73,7.1,33.55,11.65l45.97,14c.91.26,1.22.84,1.31,1.28.08.39-.05.65-.17.8-.23.28-.64.42-1.25.42-3.03,0-6.22,1.37-9.47,4.08-3.23,2.69-4.87,6.56-4.87,11.48,0,6.32,1.78,15.78,5.29,28.13,2.13,8.72,3.77,15.95,4.87,21.52,1.08,5.5,1.63,11.35,1.63,17.39,0,15.21-2.94,28.74-8.74,40.21h0c-5.8,11.48-14.18,20.46-24.91,26.69-10.71,6.23-23.52,9.38-38.07,9.38ZM214.84,369.37c-.17,0-.22.03-.22.03.01.13.11.51,1.05,1.29,4.88,2.76,8.68,5.76,11.25,8.89,2.6,3.17,3.92,7.3,3.92,12.29,0,1.98-.4,5.97-1.18,11.84-1.76,11.07-2.65,22.12-2.65,32.85,0,23.87,7.16,46.39,21.29,66.93,14.14,20.56,32.49,37.13,54.53,49.23,22.04,12.11,44.38,18.25,66.4,18.25,14.4,0,27.08-3.12,37.67-9.28,10.59-6.15,18.87-15.02,24.6-26.36h0c5.74-11.35,8.65-24.76,8.65-39.85,0-5.98-.54-11.78-1.61-17.23-1.1-5.55-2.73-12.78-4.86-21.47-3.53-12.4-5.32-21.94-5.32-28.33,0-5.17,1.73-9.24,5.15-12.09,3.4-2.83,6.76-4.27,9.98-4.27.42,0,.6-.08.63-.13.02-.03,0-.11,0-.13-.05-.23-.18-.51-.75-.67l-45.98-14c-14.85-4.56-26.17-8.49-33.63-11.68-7.48-3.2-12.82-6.45-15.9-9.67-3.1-3.25-4.77-7.26-4.97-11.92,0-.55-.16-1.09-1.37-1.09-.26,0-.48.04-.48.58,0,4.86.2,9.64.59,14.21.2,1.31.3,3.18.3,5.68v61.39c0,3.62-.1,6.52-.3,8.63-.39,6.52-.59,13.78-.59,21.57,0,.66.16.85.23.89.13.09.41.01.56-.04.73-.27,1.07-.85,1.07-1.84.79-20.8,10.84-31.34,29.87-31.34,7.07,0,15.93,1.58,26.34,4.68l31.44,9.64.06.2c1.95,6.19,3.39,11.11,4.28,14.63.89,3.54,1.34,7.08,1.34,10.53,0,12.21-4.42,21.2-13.15,26.74-8.66,5.5-20.53,8.29-35.28,8.29-17.44,0-39-3.68-64.06-10.94-25.06-7.26-47.06-17.07-65.38-29.15-18.4-12.14-27.73-25.3-27.73-39.13,0-8.08,3.51-16.02,10.42-23.6,6.89-7.54,17.26-13.94,30.8-19.01,13.54-5.07,29.84-7.88,48.46-8.37.49-.15.49-.37.49-.46,0-.08,0-.31-.59-.48l-104.86-16.69c-.24-.05-.4-.06-.51-.06Z"/>
      </g>
      <g>
        <path d="M230.74,118.32c.4,0,.79.17,1.18.49.4.33.59.74.59,1.23.2,5.57,1.82,10.28,4.86,14.12,3.05,3.85,8.4,7.57,16.06,11.17,7.66,3.6,18.86,7.7,33.59,12.28l104.91,31.92c9.24,2.62,16.8,3.93,22.69,3.93,13.56,0,20.53-5.81,20.92-17.44,0-.82.35-1.31,1.03-1.47.69-.16,1.03.17,1.03.98l-.29,12.28c-.2,1.31-.29,3.03-.29,5.16v62.86c0,2.95.1,5.24.29,6.88.39,5.24.59,10.89.59,16.94,0,.66-.29.98-.88.98-.39,0-.78-.16-1.18-.49-.39-.33-.59-.74-.59-1.23-.19-5.56-1.81-10.27-4.86-14.12-3.04-3.84-8.4-7.57-16.06-11.17-7.66-3.6-18.86-7.69-33.59-12.28l-47.44-14.49.29,32.66-.29,32.66,58.64,17.93c9.24,2.62,16.8,3.93,22.69,3.93,13.56,0,20.53-5.81,20.92-17.44,0-.82.35-1.31,1.03-1.47.69-.16,1.03.17,1.03.98l-.29,12.28c-.2,1.31-.29,3.03-.29,5.16v62.86c0,2.95.1,5.24.29,6.88.39,5.24.59,10.89.59,16.94,0,.65-.29.98-.88.98-.39,0-.78-.17-1.18-.49-.39-.33-.59-.74-.59-1.23-.19-5.57-1.81-10.27-4.86-14.12-3.04-3.84-8.4-7.57-16.06-11.17-7.66-3.6-18.86-7.69-33.59-12.28l-104.91-31.92c-9.23-2.62-16.8-3.93-22.69-3.93-13.56,0-20.53,5.81-20.92,17.44,0,.66-.34,1.07-1.03,1.23-.69.17-1.03-.08-1.03-.74l.29-12.28c.2-1.31.29-3.03.29-5.16v-62.86c0-2.95-.1-5.24-.29-6.88-.39-5.24-.59-10.89-.59-16.94,0-.65.29-.98.88-.98.4,0,.79.17,1.18.49.4.33.59.74.59,1.23.2,5.57,1.82,10.28,4.86,14.12,3.05,3.85,8.4,7.57,16.06,11.17,7.66,3.6,18.86,7.7,33.59,12.28l42.14,12.77-.29-32.91.29-32.41-53.34-16.21c-9.23-2.62-16.8-3.93-22.69-3.93-13.56,0-20.53,5.81-20.92,17.44,0,.66-.34,1.07-1.03,1.23-.69.17-1.03-.08-1.03-.74l.29-12.28c.2-1.31.29-3.03.29-5.16v-62.86c0-2.95-.1-5.24-.29-6.88-.39-5.24-.59-10.89-.59-16.94,0-.65.29-.98.88-.98Z"/>
        <path class="cls-1" d="M437.02,401.61c-.48,0-.96-.2-1.43-.58-.49-.41-.73-.93-.73-1.54-.19-5.44-1.8-10.11-4.78-13.87-2.99-3.78-8.35-7.5-15.92-11.06-7.62-3.58-18.9-7.7-33.54-12.26l-104.9-31.92c-9.16-2.59-16.75-3.91-22.57-3.91-13.42,0-20.13,5.58-20.52,17.05,0,.83-.48,1.4-1.34,1.6-.48.11-.86.06-1.13-.15-.26-.2-.39-.53-.39-.98l.3-12.29c.2-1.32.29-3.04.29-5.15v-62.86c0-2.93-.1-5.23-.29-6.83-.39-5.26-.59-10.97-.59-16.99,0-.88.47-1.38,1.28-1.38.49,0,.97.2,1.43.58.49.41.73.92.73,1.53.19,5.44,1.8,10.11,4.78,13.87,3,3.79,8.35,7.51,15.92,11.06,7.62,3.58,18.9,7.71,33.54,12.26l41.62,12.61-.29-32.36.29-32.12-53.05-16.12c-9.16-2.59-16.75-3.91-22.57-3.91-13.42,0-20.13,5.58-20.52,17.05,0,.83-.48,1.4-1.34,1.6-.48.12-.86.06-1.13-.15-.26-.2-.39-.53-.39-.98l.3-12.29c.2-1.32.29-3.04.29-5.15v-62.86c0-2.93-.1-5.23-.29-6.83-.39-5.26-.59-10.97-.59-16.99,0-.88.47-1.38,1.28-1.38.49,0,.97.2,1.43.58.49.41.73.92.73,1.53.19,5.44,1.8,10.11,4.78,13.87,3,3.79,8.35,7.51,15.92,11.06,7.62,3.58,18.9,7.71,33.54,12.26l104.9,31.92c9.15,2.59,16.74,3.91,22.57,3.91,13.42,0,20.14-5.58,20.52-17.05,0-1.26.73-1.7,1.34-1.85.44-.1.81-.05,1.08.17.3.24.45.64.45,1.2l-.3,12.29c-.2,1.33-.29,3.04-.29,5.15v62.86c0,2.93.1,5.23.29,6.83.39,5.26.59,10.97.59,16.99,0,.88-.47,1.38-1.28,1.38-.49,0-.97-.2-1.43-.58-.49-.41-.73-.92-.73-1.54-.19-5.44-1.8-10.11-4.78-13.87-2.99-3.78-8.35-7.5-15.92-11.06-7.62-3.58-18.9-7.7-33.54-12.26l-46.92-14.33.29,32.11-.29,32.37,58.35,17.84c9.15,2.59,16.74,3.91,22.57,3.91,13.42,0,20.14-5.58,20.52-17.05,0-1.26.73-1.7,1.34-1.85.44-.1.81-.05,1.08.17.3.24.45.64.45,1.2l-.3,12.29c-.2,1.33-.29,3.04-.29,5.15v62.86c0,2.93.1,5.23.29,6.83.39,5.26.59,10.97.59,16.99,0,.88-.47,1.38-1.28,1.38ZM253.14,325.66c5.89,0,13.57,1.33,22.8,3.94l104.91,31.93c14.68,4.57,26,8.7,33.65,12.3,7.68,3.61,13.13,7.41,16.2,11.29,3.09,3.89,4.75,8.72,4.95,14.35,0,.39.14.68.45.94.32.27.63.4.92.4.26,0,.48-.04.48-.58,0-6-.2-11.69-.59-16.91-.2-1.61-.3-3.94-.3-6.91v-62.86c0-2.15.1-3.9.3-5.22l.29-12.23c0-.41-.1-.53-.15-.57-.09-.07-.29-.04-.4-.02-.34.08-.72.28-.72,1.08-.4,11.84-7.57,17.83-21.32,17.83-5.9,0-13.57-1.33-22.8-3.94l-58.93-18.02.3-32.96-.3-33.2,47.96,14.65c14.68,4.57,26,8.7,33.65,12.3,7.68,3.61,13.13,7.41,16.2,11.29,3.09,3.9,4.75,8.73,4.95,14.35,0,.38.15.69.45.93.32.27.62.4.92.4.26,0,.48-.04.48-.58,0-6-.2-11.69-.59-16.91-.2-1.61-.3-3.94-.3-6.91v-62.86c0-2.15.1-3.9.3-5.22l.29-12.23c0-.41-.1-.53-.15-.57-.09-.07-.29-.04-.4-.02-.34.08-.72.28-.72,1.08-.4,11.84-7.57,17.83-21.32,17.83-5.9,0-13.57-1.33-22.8-3.94l-104.91-31.93c-14.68-4.56-26-8.7-33.65-12.3-7.68-3.61-13.13-7.4-16.2-11.29-3.08-3.89-4.75-8.72-4.95-14.35,0-.39-.14-.68-.45-.93-.32-.27-.62-.4-.92-.4-.26,0-.48.04-.48.58,0,6,.2,11.69.59,16.91.2,1.64.3,3.9.3,6.91v62.86c0,2.15-.1,3.9-.3,5.22l-.29,12.23c0,.17.03.29.09.34.05.04.2.06.45,0,.51-.12.73-.37.73-.84.4-11.84,7.58-17.83,21.32-17.83,5.89,0,13.57,1.33,22.8,3.94l53.63,16.3-.3,32.71.3,33.44-42.66-12.93c-14.68-4.56-26-8.7-33.65-12.3-7.68-3.61-13.13-7.4-16.2-11.29-3.08-3.89-4.75-8.72-4.95-14.35,0-.39-.14-.68-.45-.93-.32-.27-.62-.4-.92-.4-.26,0-.48.04-.48.58,0,6,.2,11.69.59,16.91.2,1.64.3,3.9.3,6.91v62.86c0,2.15-.1,3.9-.3,5.22l-.29,12.23c0,.17.03.29.09.34.05.04.2.06.45,0,.51-.12.73-.37.73-.84.4-11.84,7.58-17.83,21.32-17.83Z"/>
      </g>
      <g>
        <path d="M553.17,813.62c.1-.41.35-.53.74-.37l103.43,50.34c.59.17.83.45.74.86-.1.41-.35.7-.74.86-3.34.98-6.73,3.4-10.17,7.24-3.44,3.85-5.16,9.29-5.16,16.33v114.19c0,2.95.1,5.32.29,7.12.39,5.56.59,11.54.59,17.93,0,.33-.1.61-.29.86-.2.25-.4.37-.59.37-.39,0-.78-.17-1.18-.49-.39-.33-.59-.82-.59-1.47-.19-5.89-1.81-10.85-4.86-14.86-3.04-4.01-8.4-7.9-16.06-11.66-7.66-3.76-18.96-7.94-33.89-12.52l-104.9-31.92c-8.44-2.62-16.01-3.93-22.69-3.93-13.36,0-20.23,5.65-20.63,16.94,0,.66-.34,1.07-1.03,1.23-.69.17-1.03-.08-1.03-.74,0-3.93.1-7.37.29-10.31.2-2.95.29-5.16.29-6.63v-109.28c0-8.18-1.37-15.8-4.13-22.84-2.75-7.04-6.48-12.03-11.2-14.98-.39-.33-.64-.69-.74-1.1-.1-.41.15-.61.74-.61l107.56,12.03c.59.17.88.49.88.98s-.29.82-.88.98c-17.28.98-32.61,4.83-45.97,11.54-13.36,6.71-23.67,15.06-30.94,25.05-7.27,9.99-10.9,20.22-10.9,30.7v3.19l96.36,29.22v-.74c0-17.02-2.6-30-7.81-38.92-5.2-8.92-11.93-14.53-20.19-16.82-1.18-.33-1.77-.94-1.77-1.84s.59-1.19,1.77-.86l66.6,20.14c1.38.49,2.02,1.15,1.92,1.96-.1.82-.74,1.07-1.92.74-2.95-.82-5.5-1.23-7.66-1.23-7.27,0-13.26,3.28-17.98,9.82-4.71,6.55-7.46,16.29-8.25,29.22l96.36,29.22v-2.7c0-7.53-2.95-19.52-8.84-35.98-5.89-16.45-15.07-33.56-27.55-51.32-12.47-17.76-28.24-32.29-47.3-43.59-.59-.49-.83-.94-.74-1.35Z"/>
        <path class="cls-1" d="M642.02,1029.74c-.48,0-.96-.2-1.43-.58-.49-.41-.74-1.01-.74-1.78-.19-5.77-1.8-10.69-4.78-14.61-2.99-3.94-8.34-7.82-15.92-11.55-7.6-3.74-18.99-7.94-33.83-12.5l-104.9-31.92c-8.38-2.6-15.97-3.91-22.57-3.91-13.22,0-19.84,5.42-20.23,16.56,0,.83-.48,1.4-1.34,1.6-.48.11-.86.06-1.13-.15-.26-.21-.39-.53-.39-.98,0-3.87.1-7.35.3-10.34.19-2.9.29-5.12.29-6.6v-109.28c0-8.1-1.38-15.74-4.1-22.69-2.7-6.92-6.42-11.9-11.04-14.79-.5-.41-.79-.85-.91-1.35-.09-.37.02-.61.13-.75.19-.24.52-.36.99-.36l107.6,12.03c1.09.3,1.24.99,1.24,1.38s-.15,1.09-1.18,1.37c-17.23.99-32.64,4.86-45.9,11.51-13.24,6.65-23.6,15.04-30.8,24.93-7.18,9.88-10.83,20.12-10.83,30.46v2.9l95.56,28.98v-.2c0-16.87-2.61-29.9-7.75-38.72-5.12-8.78-11.83-14.38-19.95-16.64-1.7-.47-2.06-1.47-2.06-2.23,0-.51.16-.89.48-1.13.4-.3.99-.34,1.8-.11l66.61,20.14c1.59.57,2.32,1.37,2.2,2.4-.05.45-.24.78-.55,1-.42.28-1.03.31-1.87.08-2.9-.8-5.45-1.21-7.55-1.21-7.1,0-13.04,3.25-17.65,9.66-4.61,6.4-7.35,16.06-8.16,28.7l95.54,28.97v-2.16c0-7.45-2.97-19.51-8.82-35.84-5.85-16.34-15.11-33.58-27.5-51.23-12.38-17.63-28.25-32.26-47.17-43.47-.76-.63-1.06-1.22-.92-1.79h0c.08-.32.24-.55.47-.66.23-.12.5-.11.81.01l103.45,50.35c1.06.29,1.02,1.01.95,1.31-.13.54-.47.93-.97,1.14-3.29.97-6.65,3.37-10.02,7.14-3.35,3.75-5.06,9.16-5.06,16.06v114.19c0,2.93.1,5.31.29,7.08.39,5.58.59,11.62.59,17.97,0,.42-.13.79-.38,1.11-.28.35-.58.52-.9.52ZM457.84,952.09c6.68,0,14.36,1.33,22.81,3.95l104.9,31.92c14.88,4.57,26.31,8.79,33.95,12.55,7.69,3.78,13.14,7.74,16.2,11.78,3.08,4.06,4.75,9.13,4.94,15.08,0,.54.15.93.45,1.18.32.27.63.4.92.4.05,0,.15-.06.28-.22.14-.18.21-.38.21-.61,0-6.33-.2-12.35-.59-17.9-.2-1.78-.3-4.19-.3-7.15v-114.19c0-7.11,1.77-12.69,5.26-16.6,3.47-3.89,6.96-6.36,10.35-7.36.23-.1.39-.28.46-.57.02-.07.06-.24-.46-.38l-103.5-50.37c-.07-.03-.12-.03-.13-.03,0,0-.02.04-.04.13-.07.31.29.69.6.95,18.96,11.23,34.92,25.94,47.37,43.66,12.44,17.71,21.72,35,27.6,51.42,5.88,16.42,8.86,28.57,8.86,36.11v3.24l-97.18-29.47.02-.32c.79-12.95,3.59-22.85,8.33-29.43,4.77-6.63,10.93-9.99,18.3-9.99,2.18,0,4.79.42,7.77,1.24.57.16,1,.17,1.21.03.04-.03.17-.11.21-.43.07-.61-.48-1.12-1.65-1.54l-66.58-20.13c-.71-.2-.99-.1-1.09-.02-.11.08-.16.25-.16.49,0,.45.15,1.09,1.47,1.46,8.32,2.32,15.19,8.04,20.42,17.01,5.22,8.94,7.86,22.1,7.86,39.12v1.28l-97.16-29.46v-3.49c0-10.51,3.69-20.92,10.98-30.93,7.27-9.99,17.73-18.46,31.08-25.17,13.35-6.71,28.87-10.6,46.13-11.58.44-.13.51-.37.51-.58s-.07-.45-.59-.6l-107.49-12.02c-.25,0-.32.06-.32.06.1.39.3.68.62.95,4.72,2.95,8.55,8.05,11.31,15.14,2.76,7.05,4.15,14.78,4.15,22.98v109.28c0,1.5-.1,3.74-.3,6.66-.2,2.97-.29,6.44-.29,10.29,0,.17.03.31.09.35.05.04.19.06.45,0,.51-.12.73-.37.73-.84.4-11.51,7.48-17.34,21.03-17.34Z"/>
      </g>
      <g>
        <path d="M644.08,781.82c-1.18,7.86-1.77,13.75-1.77,17.68,0,3.28,1.18,6.14,3.54,8.59,2.36,2.46,6.19,5.08,11.49,7.86.59.33.93.82,1.03,1.47.1.66-.25.9-1.03.74l-101.66-13.26c-.78-.16-1.13-.45-1.03-.86.1-.41.44-.7,1.03-.86,30.06-.98,51.96-6.75,65.71-17.31,13.75-10.56,20.63-23.86,20.63-39.9,0-7.69-1.62-14.73-4.86-21.12-3.24-6.38-7.61-11.38-13.11-14.98-5.5-3.6-11.49-5.4-17.98-5.4-5.3,0-10.31,1.88-15.03,5.65-4.71,3.77-9.38,9.09-14,15.96-4.61,6.88-10.46,16.62-17.53,29.22-5.5,9.82-10.36,17.35-14.59,22.59-4.22,5.24-8.99,9.13-14.29,11.66-5.3,2.54-11.79,3.81-19.45,3.81-15.13,0-28.73-3.52-40.81-10.56-12.08-7.04-21.61-17.11-28.58-30.2-6.97-13.1-10.46-28.32-10.46-45.67,0-7.86.79-17.02,2.36-27.5,1.18-7.86,1.77-13.26,1.77-16.21,0-3.76-1.08-6.67-3.24-8.72-2.16-2.04-4.42-3.68-6.78-4.91-2.36-1.23-4.02-2.09-5.01-2.58-.78-.33-1.13-.74-1.03-1.23.1-.49.44-.74,1.03-.74l98.13,13.01c.79.33,1.18.74,1.18,1.23s-.39.74-1.18.74c-16.3,1.8-30.74,5.32-43.32,10.56-12.57,5.24-22.29,11.58-29.17,19.03-6.87,7.45-10.31,15.35-10.31,23.7,0,6.55,1.62,12.61,4.86,18.17,3.24,5.57,7.56,9.95,12.97,13.14,5.41,3.19,11.05,4.79,16.94,4.79,6.29,0,11.35-1.35,15.18-4.05,3.83-2.7,7.42-6.75,10.76-12.16,3.34-5.4,8.65-15.22,15.91-29.47,7.86-15.22,16.31-26.4,25.34-33.52,9.04-7.12,18.86-10.68,29.47-10.68,15.32,0,29.03,4.79,41.11,14.37,12.08,9.58,21.47,21.49,28.14,35.73s10.02,27.99,10.02,41.25c0,10.15-.79,20.47-2.36,30.94Z"/>
        <path class="cls-1" d="M657.76,818.61c-.15,0-.32-.02-.5-.06l-101.63-13.25c-.66-.13-1.06-.35-1.26-.66-.13-.2-.17-.44-.11-.69.14-.56.58-.95,1.31-1.15,29.93-.99,51.96-6.79,65.58-17.24,13.58-10.43,20.47-23.75,20.47-39.59,0-7.59-1.62-14.64-4.82-20.94-3.19-6.29-7.56-11.28-12.98-14.83-5.41-3.54-11.38-5.34-17.76-5.34-5.18,0-10.16,1.87-14.78,5.56-4.66,3.72-9.34,9.06-13.91,15.87-4.6,6.85-10.49,16.68-17.52,29.19-5.49,9.8-10.41,17.42-14.62,22.65-4.24,5.26-9.09,9.22-14.43,11.77-5.33,2.55-11.93,3.84-19.62,3.84-15.13,0-28.93-3.57-41.01-10.61-12.09-7.04-21.76-17.26-28.74-30.36-6.97-13.1-10.51-28.53-10.51-45.86,0-7.83.79-17.1,2.36-27.56,1.17-7.8,1.76-13.23,1.76-16.15,0-3.63-1.05-6.47-3.12-8.43-2.12-2.01-4.37-3.64-6.69-4.85-2.35-1.23-4.02-2.08-5-2.58-1.2-.5-1.34-1.18-1.25-1.66.08-.4.37-1.06,1.42-1.06l98.23,13.02.05.02c.94.4,1.42.93,1.42,1.6,0,.42-.21,1.14-1.58,1.14-16.15,1.79-30.69,5.33-43.16,10.53-12.46,5.2-22.23,11.57-29.03,18.93-6.77,7.34-10.21,15.22-10.21,23.43,0,6.45,1.62,12.5,4.81,17.97,3.19,5.48,7.5,9.85,12.82,12.99,5.32,3.14,10.95,4.73,16.74,4.73,6.17,0,11.2-1.34,14.95-3.98,3.77-2.66,7.35-6.71,10.65-12.04,3.32-5.37,8.67-15.27,15.9-29.44,7.85-15.2,16.41-26.53,25.45-33.65,9.07-7.15,19.07-10.77,29.71-10.77,15.34,0,29.26,4.86,41.36,14.45,12.08,9.58,21.59,21.64,28.26,35.87,6.67,14.24,10.06,28.17,10.06,41.42,0,10.12-.79,20.55-2.36,31h0c-1.17,7.8-1.76,13.73-1.76,17.62,0,3.15,1.15,5.95,3.42,8.32,2.32,2.42,6.15,5.03,11.39,7.78.71.4,1.12.99,1.24,1.77.06.44-.02.77-.26.99-.18.17-.43.26-.74.26ZM606.07,704.07c6.53,0,12.65,1.84,18.19,5.47,5.54,3.62,9.99,8.71,13.25,15.13,3.25,6.41,4.91,13.58,4.91,21.3,0,16.1-6.99,29.63-20.78,40.22-13.75,10.56-35.94,16.41-65.94,17.39-.56.17-.63.46-.66.56.03.1.15.25.72.37l101.63,13.25c.46.1.57,0,.57,0,.01-.01.05-.09.02-.29-.08-.53-.35-.92-.83-1.18-5.3-2.78-9.21-5.45-11.59-7.93-2.42-2.52-3.65-5.51-3.65-8.87,0-3.93.6-9.9,1.77-17.74h0c1.56-10.41,2.35-20.8,2.35-30.88,0-13.13-3.36-26.96-9.98-41.08-6.62-14.12-16.05-26.09-28.03-35.59-11.95-9.47-25.7-14.28-40.86-14.28-10.47,0-20.3,3.57-29.22,10.6-8.95,7.05-17.44,18.29-25.23,33.39-7.23,14.18-12.59,24.11-15.93,29.49-3.35,5.42-7.01,9.55-10.87,12.27-3.88,2.74-9.06,4.12-15.41,4.12-5.94,0-11.7-1.63-17.15-4.84-5.44-3.21-9.85-7.68-13.11-13.28-3.26-5.6-4.92-11.78-4.92-18.37,0-8.41,3.51-16.47,10.42-23.97,6.88-7.45,16.75-13.89,29.31-19.13,12.55-5.23,27.16-8.79,43.43-10.59.82,0,.82-.25.82-.34,0-.3-.3-.58-.89-.84l-98.07-13.01c-.46,0-.55.22-.59.42-.05.27.21.54.79.78,1.01.5,2.68,1.36,5.04,2.59,2.38,1.24,4.69,2.92,6.87,4.98,2.23,2.11,3.37,5.15,3.37,9.01,0,2.95-.6,8.43-1.77,16.27-1.56,10.42-2.35,19.65-2.35,27.44,0,17.2,3.5,32.51,10.41,45.49,6.91,12.97,16.47,23.08,28.43,30.05,11.96,6.97,25.63,10.5,40.61,10.5,7.57,0,14.06-1.27,19.28-3.77,5.23-2.5,9.99-6.39,14.15-11.55,4.19-5.19,9.08-12.77,14.55-22.54,7.03-12.54,12.94-22.38,17.55-29.25,4.62-6.88,9.35-12.28,14.08-16.05,4.77-3.81,9.91-5.73,15.28-5.73Z"/>
      </g>
    </g>
  </g>
</svg>