<?xml version="1.0" encoding="UTF-8"?>
<svg id="Layer_2" data-name="Layer 2" xmlns="http://www.w3.org/2000/svg" viewBox="0 0 628.51 1009.61">
  <defs>
    <style>
      .cls-1 {
        fill: #fff;
      }
    </style>
  </defs>
  <g id="Home_Page_Text_copy" data-name="Home Page Text copy">
    <g id="Pilowlava">
      <g>
        <path d="M157.74,1009.15c-15.79,0-34.15-5.68-34.15-21.15,0-12.38,11.77-20.12,23.82-20.12h48.79c13.78,0,20.95-7.74,12.63-23.22l-48.5-90.29c-5.74-10.84-10.33-20.12-20.95-17.54-10.62,2.58-12.05,10.58-7.46,19.35l28.13,54.69c12.63,24.51-5.74,41.28-26.4,41.79l-10.91.26c-10.62.26-12.05,4.39-14.64,14.71l-4.31,16.25c-2.87,10.58-14.35,17.54-26.12,17.54-49.94,0-77.2-45.92-77.2-91.33s21.24-88.75,72.9-88.75c20.38,0,34.44,6.96,34.44,22.19,0,10.06-10.91,25.28-34.15,11.35l-18.94-11.35c-5.17-3.1-10.33-2.32-12.34.26-3.16,4.13-2.87,9.54-.86,18.06l26.69,111.19c2.58,11.09,8.04,13.67,14.06,12.9,6.31-.77,8.9-4.13,10.62-12.38l26.4-131.31c2.87-14.71,14.35-21.93,28.13-21.93,39.89,0,80.07,46.69,80.07,105.77s-36.45,83.07-69.74,83.07Z"/>
        <path class="cls-1" d="M157.74,1009.61c-8.88,0-17.12-1.71-23.21-4.82-7.46-3.81-11.41-9.62-11.41-16.79,0-12.88,12.35-20.58,24.28-20.58h48.79c7.01,0,12.11-2.07,14.36-5.82,2.36-3.95,1.62-9.73-2.13-16.72l-48.95-91.14c-5.58-10.56-9.99-18.9-19.99-16.47-4.45,1.08-7.4,3.15-8.75,6.14-1.51,3.34-.96,7.67,1.59,12.55l28.13,54.69c6.71,13.02,4.17,22.4.87,27.98-5.12,8.64-15.72,14.19-27.67,14.49l-10.91.26c-10.16.25-11.58,3.88-14.2,14.36l-4.31,16.26c-2.81,10.37-13.98,17.89-26.56,17.89-23.39,0-43.34-9.96-57.7-28.82-12.69-16.67-19.97-39.62-19.97-62.97s6.09-45.76,17.16-61.38c12.9-18.21,32.33-27.83,56.2-27.83,22.18,0,34.9,8.25,34.9,22.65,0,5.08-2.73,11.76-8.83,15.21-4.75,2.69-13.11,4.27-26.02-3.46l-18.94-11.35c-4.96-2.97-9.87-2.26-11.74.15-3.16,4.13-2.68,9.61-.78,17.67l26.69,111.19c2.17,9.34,6.61,13.44,13.56,12.55,5.92-.73,8.5-3.76,10.23-12.02l26.4-131.31c2.73-13.96,13.41-22.3,28.58-22.3,19.69,0,39.87,11.27,55.36,30.91,16.23,20.58,25.18,47.33,25.18,75.33s-7.58,50.41-22.52,65.08c-12.12,11.9-29.05,18.45-47.68,18.45ZM147.4,968.33c-11.48,0-23.36,7.35-23.36,19.66,0,9.55,8.82,20.69,33.69,20.69,51.08,0,69.28-42.67,69.28-82.61,0-27.78-8.87-54.33-24.98-74.75-15.32-19.42-35.23-30.56-54.63-30.56-14.69,0-25.04,8.06-27.67,21.56l-26.4,131.31c-1.8,8.64-4.68,11.97-11.02,12.75-7.51.96-12.27-3.37-14.57-13.25l-26.69-111.19c-1.92-8.12-2.43-14.04.94-18.45,2.12-2.73,7.54-3.61,12.94-.37l18.94,11.35c12.53,7.51,20.56,6.02,25.09,3.45,5.78-3.27,8.36-9.6,8.36-14.41,0-14.01-12.07-21.72-33.98-21.72-23.55,0-42.73,9.49-55.45,27.44-10.96,15.46-16.99,37.07-16.99,60.84s7.21,45.89,19.78,62.41c14.17,18.61,33.87,28.45,56.96,28.45,12.17,0,22.97-7.23,25.67-17.2l4.3-16.25c2.63-10.51,4.13-14.78,15.07-15.05l10.91-.26c11.63-.29,21.94-5.67,26.9-14.04,3.19-5.38,5.62-14.44-.89-27.09l-28.13-54.69c-2.69-5.13-3.24-9.75-1.61-13.35,1.48-3.26,4.63-5.5,9.38-6.66,10.69-2.59,15.48,6.45,21.02,16.93l.45.84,48.5,90.29c3.92,7.29,4.65,13.38,2.11,17.62-2.42,4.04-7.8,6.27-15.15,6.27h-48.79Z"/>
      </g>
      <g>
        <path d="M138.51,675.84l-101.6-11.09c-15.79-1.81-25.83,5.16-23.53,16s24.11,20.12,33,23.99l71.18,31.22c18.94,8.25,22.67,22.7,22.67,32.25,0,15.22-14.06,27.6-31.86,27.6-12.34,0-23.53-7.74-34.15-19.61l-45.92-51.85c-19.8-22.44-27.27-31.73-27.27-48.5,0-15.48,12.34-26.06,31.86-29.41l138.05-23.48c32.14-5.42,56.83,3.35,56.83,29.93,0,21.15-14.92,31.22-32.43,31.22h-14.92c-15.79,0-17.79,7.48-9.18,16.51l24.11,25.28c11.19,11.87,32.43,30.96,32.43,52.11,0,14.96-9.47,31.73-36.45,31.73-22.96,0-32.43-18.58-33-41.28l-1.72-66.56c-.29-14.71-3.44-24.51-18.08-26.06Z"/>
        <path class="cls-1" d="M191.32,810.19c-20.6,0-32.79-15.21-33.47-41.73l-1.72-66.56c-.29-14.69-3.34-24.09-17.67-25.61h0l-101.6-11.09c-9.12-1.04-16.6.84-20.52,5.15-2.49,2.74-3.36,6.29-2.51,10.29,2.2,10.39,23.23,19.53,32.21,23.44l.53.23,71.18,31.22c19.97,8.7,22.95,24.2,22.95,32.67,0,15.48-14.5,28.07-32.32,28.07-11.31,0-22.6-6.46-34.5-19.76l-45.92-51.86c-19.48-22.08-27.38-31.71-27.38-48.81,0-15.23,12.05-26.4,32.24-29.86l138.05-23.48c20.91-3.52,37.81-.9,47.6,7.37,6.48,5.48,9.76,13.22,9.76,23.01,0,19.24-12.91,31.68-32.89,31.68h-14.92c-7.32,0-12.07,1.68-13.38,4.74-1.19,2.78.42,6.68,4.53,10.99l24.11,25.28c1.29,1.37,2.71,2.82,4.21,4.37,11.96,12.3,28.35,29.15,28.35,48.06,0,15.56-9.7,32.19-36.91,32.19ZM138.56,675.38c14.95,1.58,18.21,11.74,18.49,26.5l1.72,66.56c.66,25.95,12.52,40.83,32.54,40.83,26.53,0,35.99-16.15,35.99-31.27,0-18.54-16.23-35.23-28.09-47.42-1.51-1.55-2.93-3.01-4.22-4.38l-24.11-25.28c-4.38-4.6-6.06-8.86-4.71-11.99,1.48-3.47,6.4-5.3,14.23-5.3h14.92c19.42,0,31.97-12.07,31.97-30.75,0-9.5-3.17-17.01-9.44-22.3-9.58-8.1-26.22-10.65-46.85-7.17l-138.05,23.48c-19.71,3.39-31.47,14.21-31.47,28.96,0,16.76,7.84,26.31,27.15,48.2l45.92,51.85c11.71,13.09,22.77,19.45,33.81,19.45,17.31,0,31.4-12.18,31.4-27.14,0-8.24-2.91-23.33-22.4-31.82l-71.7-31.44c-9.11-3.96-30.44-13.23-32.75-24.09-.91-4.3.03-8.13,2.73-11.1,4.13-4.54,11.9-6.53,21.31-5.45l101.59,11.09Z"/>
      </g>
      <g>
        <path d="M157.45,608.26h-77.49c-64.57,0-78.92-12.12-78.92-39.73,0-20.38,17.79-31.73,44.77-47.21l106.48-61.14c10.91-6.19,14.92-9.8,14.92-14.45,0-6.45-3.16-9.55-9.47-9.55-5.17,0-11.77,2.06-21.24,5.42l-68.02,23.73c-18.37,6.45-27.55,5.93-34.44,5.93-14.64,0-33.29-6.71-33.29-28.38,0-25.54,27.55-33.28,53.96-30.7l132.88,13.16c27.55,2.84,40.18,11.35,40.18,28.12,0,15.74-12.34,23.73-40.47,42.05l-66.01,42.82c-15.79,10.32-41.33,21.15-65.15,17.8l-16.36-2.32c-14.64-2.06-22.1,5.93-22.1,15.22,0,14.45,12.05,22.96,28.41,22.96,8.04,0,20.95-2.32,27.27-4.64l95.57-35.09c31.86-11.61,58.83-6.45,58.83,21.41,0,33.79-28.7,34.57-70.32,34.57Z"/>
        <path class="cls-1" d="M157.45,608.72h-77.49c-67.11,0-79.39-13.53-79.39-40.19,0-20.32,17-31.54,45-47.61l106.48-61.14c11.12-6.31,14.69-9.73,14.69-14.05,0-6.11-2.95-9.08-9.01-9.08-4.93,0-11.21,1.89-21.08,5.39l-68.02,23.73c-17.21,6.04-26.43,6-33.17,5.96h-1.42c-15.57,0-33.75-7.56-33.75-28.84,0-8.45,2.96-15.42,8.81-20.73,9.42-8.54,26.06-12.35,45.65-10.43l132.88,13.16c28.08,2.89,40.6,11.71,40.6,28.58,0,15.95-12.68,24.21-40.46,42.3l-66.22,42.96c-8,5.23-36.35,21.98-65.46,17.87l-16.36-2.32c-7.02-.99-12.8.29-16.73,3.71-3.12,2.71-4.84,6.64-4.84,11.06,0,13.67,10.97,22.5,27.95,22.5,7.62,0,20.54-2.2,27.11-4.62l95.57-35.09c20.86-7.6,38.83-7.77,49.28-.45,6.75,4.72,10.17,12.22,10.17,22.29,0,35.03-31.23,35.03-70.78,35.03ZM157.74,435.72c6.59,0,9.93,3.37,9.93,10.01,0,4.73-3.68,8.33-15.16,14.85l-106.48,61.14c-27.71,15.9-44.54,26.99-44.54,46.81,0,26.04,12.14,39.27,78.46,39.27h77.49c43.31,0,69.85-1.65,69.85-34.11,0-9.75-3.29-16.99-9.78-21.54-10.21-7.14-27.86-6.94-48.44.56l-95.57,35.08c-6.65,2.45-19.72,4.67-27.42,4.67-17.27,0-28.87-9.41-28.87-23.42,0-4.69,1.83-8.86,5.16-11.75,2.88-2.51,8.25-5.23,17.46-3.92l16.36,2.32c28.79,4.05,56.9-12.55,64.83-17.73l66.22-42.96c27.5-17.91,40.05-26.08,40.05-41.53,0-16.3-12.26-24.83-39.77-27.66l-132.88-13.16c-19.34-1.89-35.71,1.83-44.94,10.2-5.65,5.12-8.51,11.87-8.51,20.04,0,13.5,8.62,27.92,32.83,27.92h1.42c6.67.03,15.81.08,32.86-5.91l68.02-23.73c9.97-3.53,16.33-5.44,21.39-5.44Z"/>
      </g>
      <g>
        <path d="M115.83,201.17c73.76,0,111.93,37.67,111.64,116.35-.29,66.56-69.17,79.97-126.85,54.43l-21.52-9.55c-10.04-4.39-14.35-.52-16.65,11.09-2.87,14.45-13.78,21.15-26.98,21.15-14.92,0-30.14-9.03-30.14-26.06v-89.52c0-55.98,40.18-77.91,110.5-77.91ZM38.06,260.76l13.78,64.5c4.59,21.93,17.51,29.41,37.02,24.51l103.89-26.57c29.56-7.48,24.11-36.12,2.87-44.11l-119.68-44.63c-27.84-10.32-42.19,6.71-37.88,26.31Z"/>
        <path class="cls-1" d="M35.48,395.12c-7.78,0-15.41-2.46-20.95-6.74-6.31-4.88-9.65-11.72-9.65-19.78v-89.52c0-27.63,9.51-47.36,29.09-60.33,18.32-12.14,45.1-18.04,81.87-18.04s64.65,9.46,83.24,28.12c19.3,19.37,29.01,49.21,28.86,88.69-.11,24.46-9.57,43.48-27.36,55.01-24.61,15.94-63.92,15.88-100.15-.16l-21.53-9.55c-4.35-1.9-7.63-2.21-10.02-.96-2.79,1.46-4.69,5.19-5.99,11.72-2.72,13.68-12.72,21.53-27.43,21.53ZM115.83,201.63c-36.58,0-63.2,5.85-81.36,17.89-19.29,12.78-28.67,32.27-28.67,59.56v89.52c0,12.72,10.19,25.6,29.67,25.6,14.23,0,23.9-7.58,26.53-20.78,1.37-6.93,3.36-10.74,6.46-12.36,2.66-1.39,6.19-1.08,10.82.94l21.53,9.55c35.95,15.92,74.91,16,99.27.23,17.52-11.35,26.83-30.1,26.94-54.24.14-39.23-9.48-68.85-28.59-88.04-18.41-18.48-46.2-27.85-82.59-27.85ZM78.24,351.66c-5.21,0-9.74-1.19-13.54-3.57-6.53-4.09-11.01-11.74-13.31-22.73l-13.78-64.49c-2.16-9.84.34-19.01,6.68-24.53,7.33-6.38,18.63-7.2,31.81-2.32l119.68,44.63c11.11,4.18,18.47,14.25,17.9,24.47-.55,9.83-8.14,17.31-20.81,20.52l-103.89,26.57c-3.84.96-7.42,1.45-10.73,1.45ZM60.3,231.79c-6.14,0-11.4,1.75-15.41,5.24-6.09,5.29-8.47,14.13-6.39,23.63h0s13.78,64.5,13.78,64.5c2.25,10.74,6.59,18.19,12.9,22.14,6,3.75,13.93,4.43,23.56,2.01l103.89-26.57c12.26-3.1,19.59-10.28,20.12-19.68.55-9.83-6.56-19.51-17.3-23.56l-119.68-44.63c-5.57-2.06-10.78-3.09-15.48-3.09Z"/>
      </g>
      <g>
        <path d="M31.46.47c11.77.26,26.98,8.51,39.89,15.74l115.37,63.21c18.94,10.32,41.04,25.28,41.04,43.86,0,37.92-61.42,42.31-61.42,1.29v-24.25c0-17.54-8.61-15.99-14.35-12.12l-118.24,79.46c-10.62,7.22-2.87,16.51,7.75,12.9l33.58-11.61c14.35-4.9,22.39-1.29,25.54,6.97,1.44,3.61-1.72,10.32-10.04,13.16-27.27,9.29-89.54,4.13-89.54-33.54,0-14.71,8.04-21.67,26.12-33.02l83.23-51.85c15.5-9.8,5.45-15.22-3.73-14.96l-76.92,2.06C-10.16,58.77-7.57-.31,31.46.47Z"/>
        <path class="cls-1" d="M62.44,193.55c-17.4,0-36.09-3.89-48.06-12.46-9.16-6.56-13.8-15.16-13.8-25.58,0-15.22,8.43-22.17,26.33-33.41l83.23-51.85c5.76-3.64,8.49-7.08,7.7-9.69-.93-3.05-6.45-4.56-11.17-4.43l-76.92,2.06c-11.26.3-20.24-4.22-25.25-12.7C-.9,36.38-.77,23.81,4.83,14.21,10.31,4.82,19.75-.22,31.47,0h0c11.41.25,25.48,7.61,40.11,15.8l115.37,63.2c17.72,9.65,41.28,24.75,41.28,44.26s-16.91,30.75-32.82,30.75c-7.88,0-15.12-2.56-20.38-7.2-5.98-5.27-9.14-12.97-9.14-22.26v-24.25c0-7.4-1.51-11.96-4.5-13.55-3.26-1.73-7.47.68-9.13,1.8l-118.24,79.46c-4.19,2.85-5.81,6.29-4.36,9.21,1.42,2.84,6,4.81,11.7,2.87l33.58-11.61c17.08-5.83,23.63.72,26.12,7.24.62,1.56.44,3.63-.5,5.67-1.65,3.57-5.23,6.52-9.82,8.09-7.79,2.65-17.8,4.07-28.29,4.07ZM107.28,55.21c4.88,0,10.36,1.55,11.44,5.09.66,2.15-.22,5.75-8.09,10.73L27.4,122.88c-17.6,11.05-25.9,17.87-25.9,32.63,0,10.1,4.51,18.46,13.42,24.83,18.96,13.57,55.02,15.25,75.52,8.27,4.36-1.49,7.74-4.26,9.28-7.6.84-1.81,1.01-3.62.48-4.95-3.37-8.81-12-11.13-24.97-6.7l-33.58,11.61c-6.27,2.13-11.2-.06-12.82-3.33-1.3-2.6-.76-6.7,4.67-10.39l118.25-79.46c2.23-1.51,6.51-3.75,10.08-1.85,3.31,1.76,4.99,6.59,4.99,14.36v24.25c0,9.02,3.05,16.47,8.83,21.57,5.09,4.49,12.11,6.97,19.77,6.97,15.46,0,31.9-10.45,31.9-29.83,0-14.28-13.35-28.5-40.8-43.45L71.13,16.61C56.6,8.49,42.64,1.17,31.45.93h0c-.25,0-.5,0-.75,0C19.7.92,10.81,5.79,5.62,14.68.19,23.99.05,36.19,5.29,45.04c4.84,8.18,13.52,12.52,24.44,12.24l76.92-2.06c.21,0,.42,0,.64,0Z"/>
      </g>
      <g>
        <path d="M228.87,812.05l159.57,15.48c20.66,2.06,39.32,8.51,39.32,36.12,0,17.28-14.92,26.57-29.56,26.57-9.18,0-19.8-2.06-32.43-14.19l-25.26-23.99c-5.74-5.68-12.34-7.74-16.93-7.74-8.04,0-8.61,9.29-6.31,18.06l21.52,98.03c2.58,11.35,5.74,13.42,10.04,13.42,6.89,0,12.05-6.96,19.8-13.42,10.04-8.25,20.38-12.64,29.56-12.64,16.65,0,29.56,14.96,29.56,30.44s-10.05,28.64-37.31,26.06l-141.49-13.67c-20.66-2.06-47.93-9.29-47.93-36.89,0-17.54,10.91-27.6,26.4-27.6,12.92,0,23.82,6.45,29.56,15.48l18.66,29.41c4.88,7.74,9.18,9.03,14.64,9.03,7.75,0,11.77-6.19,11.77-14.96v-109.64c0-10.58-2.87-16.25-11.19-17.8-9.47-1.81-12.91,3.35-18.94,8.26l-14.06,11.09c-10.33,8-19.52,12.64-28.41,12.64-15.79,0-28.41-9.55-28.41-30.44,0-14.71,10.62-28.64,27.84-27.09Z"/>
        <path class="cls-1" d="M396.85,1005.02c-2.06,0-4.2-.11-6.44-.32l-141.49-13.67c-32.08-3.2-48.35-15.77-48.35-37.35,0-17.05,10.54-28.07,26.86-28.07,12.32,0,23.8,6.01,29.95,15.69l18.66,29.41c4.65,7.37,8.74,8.82,14.25,8.82,7.08,0,11.31-5.42,11.31-14.5v-109.64c0-10.89-3.13-15.92-10.82-17.35-7.62-1.46-11.16,1.68-15.64,5.64-.93.82-1.89,1.67-2.93,2.52l-14.07,11.1c-11.23,8.69-20.35,12.74-28.7,12.74-18.08,0-28.87-11.55-28.87-30.9,0-8.34,3.27-16.11,8.97-21.32,5.19-4.75,11.89-6.91,19.38-6.23h0l159.57,15.48c19.65,1.96,39.74,7.84,39.74,36.58,0,8.18-3.27,15.14-9.46,20.13-5.44,4.39-12.94,6.91-20.56,6.91-15.72,0-25.38-7.24-32.75-14.32l-25.25-23.99c-7.14-7.06-14.52-7.61-16.62-7.61-2.25,0-3.99.77-5.16,2.3-2.22,2.88-2.48,8.41-.7,15.18l21.53,98.05c2.48,10.92,5.4,13.05,9.59,13.05,4.96,0,9.16-3.9,14.02-8.41,1.73-1.6,3.51-3.26,5.49-4.9,10.15-8.34,20.47-12.75,29.86-12.75,15.99,0,30.02,14.44,30.02,30.9,0,5.5-1.38,13.32-7.94,19.28-5.52,5.02-13.38,7.55-23.44,7.55ZM227.44,926.54c-16,0-25.94,10.4-25.94,27.14,0,21.03,15.99,33.28,47.51,36.43l141.49,13.67c12.91,1.22,22.73-1.13,29.17-7,6.31-5.74,7.63-13.29,7.63-18.6,0-15.97-13.6-29.98-29.1-29.98-9.17,0-19.29,4.33-29.27,12.54-1.95,1.63-3.73,3.27-5.45,4.87-5,4.64-9.33,8.65-14.65,8.65-4.54,0-7.88-2.3-10.49-13.77l-21.53-98.04c-1.84-7.03-1.53-12.86.87-15.96,1.36-1.76,3.34-2.65,5.89-2.65,2.18,0,9.87.57,17.26,7.87l25.25,23.99c12.91,12.39,23.48,14.06,32.11,14.06,19.1,0,29.1-13.14,29.1-26.11,0-28-19.67-33.74-38.9-35.66l-159.57-15.48c-7.22-.64-13.67,1.42-18.67,5.99-5.51,5.04-8.67,12.56-8.67,20.64,0,18.77,10.45,29.98,27.95,29.98,8.14,0,17.07-3.99,28.13-12.54l14.06-11.09c1.02-.83,1.97-1.67,2.9-2.49,4.48-3.97,8.35-7.39,16.42-5.86,8.22,1.53,11.57,6.82,11.57,18.25v109.64c0,9.51-4.69,15.42-12.23,15.42-5.83,0-10.15-1.51-15.03-9.24l-18.65-29.41c-5.99-9.42-17.16-15.27-29.17-15.27Z"/>
      </g>
      <g>
        <path d="M264.17,679.19l26.98-29.93c4.88-5.42,2.87-10.06.57-12.12-3.16-2.84-8.04-4.64-14.64.52l-19.23,14.96c-14.64,11.35-22.1,17.03-32.72,17.03-13.78,0-24.11-8.77-24.11-23.48,0-18.57,12.92-25.8,37.88-25.8h107.62c55.39,0,81.22,29.67,81.22,85.65,0,52.11-34.44,87.71-88.97,87.71h-92.99c-31.86,0-44.77-10.58-44.77-30.18,0-27.6,33-34.31,53.38-21.93l52.23,31.73c17.51,10.58,33,6.97,41.61-8.25l41.9-73.27c12.63-22.19,10.91-35.86-1.15-43.6-12.05-7.74-25.26-1.55-32.14,4.39l-63.43,52.63c-24.97,20.64-52.23-.52-29.27-26.06Z"/>
        <path class="cls-1" d="M338.79,794.2h-92.99c-30.86,0-45.23-9.74-45.23-30.64,0-10.46,4.83-18.93,13.59-23.86,11.6-6.53,28.25-5.89,40.49,1.54l52.23,31.73c8.88,5.36,17.51,7.17,24.96,5.22,6.52-1.71,12.06-6.31,16.02-13.31l41.9-73.27c11.88-20.87,11.55-34.93-1-42.98-11.23-7.21-24.04-2.16-31.59,4.35l-63.43,52.63c-13.71,11.33-27.71,10.15-34.46,3.12-8.49-8.85-2.86-21.6,4.54-29.84h0l26.98-29.93c2.09-2.33,3.06-4.67,2.86-6.97-.21-2.42-1.64-3.96-2.25-4.5-4.12-3.71-8.85-3.53-14.04.54l-19.23,14.96c-14.24,11.04-22.08,17.12-33,17.12-14.7,0-24.57-9.62-24.57-23.94,0-18.16,11.83-26.26,38.35-26.26h107.62c27.42,0,48.18,7.39,61.72,21.98,13.25,14.27,19.96,35.85,19.96,64.13,0,25.89-8.36,47.92-24.17,63.73-16.01,16-38.57,24.45-65.26,24.45ZM232.51,736.11c-6.41,0-12.67,1.45-17.89,4.38-8.46,4.76-13.12,12.95-13.12,23.06,0,20.28,14.08,29.72,44.31,29.72h92.99c26.44,0,48.78-8.36,64.61-24.18,15.64-15.62,23.9-37.43,23.9-63.07,0-28.05-6.63-49.41-19.72-63.5-13.36-14.39-33.9-21.68-61.04-21.68h-107.62c-25.88,0-37.42,7.81-37.42,25.34,0,13.77,9.5,23.02,23.65,23.02,10.6,0,18.36-6.01,32.44-16.93l19.23-14.96c6.98-5.45,12.13-3.28,15.23-.5,1.46,1.31,2.39,3.17,2.56,5.11.22,2.56-.82,5.14-3.09,7.67l-26.98,29.93c-7.14,7.94-12.62,20.19-4.56,28.58,6.45,6.72,19.93,7.79,33.2-3.19l63.43-52.63c7.79-6.71,21.03-11.9,32.69-4.42,13.04,8.37,13.47,22.84,1.3,44.21l-41.9,73.27c-4.08,7.22-9.82,11.97-16.58,13.74-7.69,2.02-16.57.18-25.67-5.32l-52.23-31.73c-6.45-3.92-14.16-5.91-21.66-5.91Z"/>
      </g>
      <g>
        <path d="M311.53,539.38l31.57,41.54c14.64,19.35,49.65,2.32,36.45-17.54l-72.32-109.12c-16.36-24.77-6.6-43.34,16.93-44.37l60.27-2.58c31-1.29,43.34,11.35,43.34,30.44s-22.1,34.31-51.09,17.28l-47.35-27.6c-9.18-5.42-15.79,1.03-15.79,6.71,0,4.9.57,8.77,14.35,18.06l61.42,42.31c28.99,19.86,38.46,30.7,38.46,53.92,0,30.44-36.74,58.82-109.35,58.82s-117.38-40.5-117.38-99.06c0-49.02,17.79-81.52,48.22-89.52,26.98-7.22,43.91,28.12,20.09,44.37l-41.9,28.64c-12.34,8.51-18.37,25.28-10.91,40.76,8.61,18.06,30.42,17.03,43.62,7.48l10.62-7.48c13.78-9.8,28.99-8.77,40.75,6.96Z"/>
        <path class="cls-1" d="M318.42,607.69c-36.12,0-66.19-9.57-86.98-27.69-20.19-17.6-30.87-42.44-30.87-71.84,0-49.06,17.7-81.85,48.56-89.96,14.38-3.85,25.27,4.13,29.68,13.74,4.38,9.54,3.23,22.97-9.21,31.45l-41.9,28.64c-11.23,7.75-18.53,24.04-10.75,40.18,3.24,6.8,8.66,11.34,15.68,13.13,8.76,2.24,19.2,0,27.26-5.82l10.62-7.48c14.98-10.66,30.06-8.08,41.39,7.06l31.57,41.53c7.95,10.51,22.5,10.17,31.42,3.84,5.96-4.23,10.21-11.92,4.27-20.85l-72.32-109.12c-8.25-12.49-10.36-24.12-5.96-32.76,3.8-7.46,12.06-11.84,23.25-12.33l60.27-2.58c16.41-.69,28.42,2.51,35.69,9.48,5.4,5.18,8.13,12.38,8.13,21.43s-4.68,16.89-12.51,21.37c-10.62,6.08-24.93,4.73-39.27-3.69l-47.35-27.6c-3.9-2.3-7.73-2.6-10.78-.86-2.58,1.47-4.31,4.35-4.31,7.17,0,4.37,0,8.14,14.15,17.68l61.42,42.31c13.53,9.27,23.84,17.21,30.21,25.81,5.92,8,8.45,16.52,8.45,28.49,0,15.93-9.83,30.57-27.67,41.22-19.79,11.81-48.2,18.06-82.14,18.06ZM256.37,418.13c-2.22,0-4.56.3-7,.95-30.43,8-47.87,40.46-47.87,89.07,0,29.13,10.56,53.73,30.55,71.15,20.61,17.96,50.48,27.46,86.37,27.46,33.78,0,62.02-6.2,81.67-17.93,17.55-10.48,27.22-24.84,27.22-40.43,0-23.37-9.55-33.87-38.26-53.54l-61.42-42.31c-13.57-9.15-14.55-13.07-14.55-18.44,0-3.18,1.87-6.31,4.78-7.97,3.35-1.92,7.51-1.61,11.7.86l47.35,27.6c14.05,8.25,28.02,9.6,38.35,3.69,7.54-4.32,12.05-12.01,12.05-20.57s-2.64-15.77-7.85-20.76c-7.08-6.79-18.85-9.89-35.01-9.22l-60.27,2.58c-10.84.48-18.83,4.68-22.47,11.83-4.25,8.33-2.15,19.63,5.9,31.83l72.32,109.12c4.13,6.21,5.11,15.28-4.51,22.11-9.28,6.58-24.41,6.91-32.69-4.03l-31.57-41.54c-10.98-14.69-25.61-17.19-40.12-6.87l-10.62,7.48c-8.27,5.98-19.01,8.27-28.02,5.96-7.29-1.86-12.92-6.57-16.28-13.62-8.01-16.61-.5-33.37,11.06-41.34l41.9-28.64c12-8.19,13.11-21.12,8.9-30.31-3.5-7.63-11.24-14.19-21.61-14.19Z"/>
      </g>
      <g>
        <path d="M228.87,191.37l159.57,15.48c20.66,2.06,39.32,8.51,39.32,36.12,0,17.28-14.92,26.57-29.56,26.57-9.18,0-19.8-2.06-32.43-14.19l-25.26-23.99c-5.74-5.68-12.34-7.74-16.93-7.74-8.04,0-8.61,9.29-6.31,18.06l21.52,98.03c2.58,11.35,5.74,13.41,10.04,13.41,6.89,0,12.05-6.97,19.8-13.41,10.04-8.26,20.38-12.64,29.56-12.64,16.65,0,29.56,14.96,29.56,30.44s-10.05,28.64-37.31,26.06l-141.49-13.67c-20.66-2.06-47.93-9.29-47.93-36.89,0-17.54,10.91-27.6,26.4-27.6,12.92,0,23.82,6.45,29.56,15.48l18.66,29.41c4.88,7.74,9.18,9.03,14.64,9.03,7.75,0,11.77-6.19,11.77-14.96v-109.64c0-10.58-2.87-16.25-11.19-17.8-9.47-1.81-12.91,3.35-18.94,8.26l-14.06,11.09c-10.33,8-19.52,12.64-28.41,12.64-15.79,0-28.41-9.55-28.41-30.44,0-14.71,10.62-28.64,27.84-27.09Z"/>
        <path class="cls-1" d="M396.85,384.34c-2.06,0-4.2-.11-6.44-.32l-141.49-13.67c-32.08-3.2-48.35-15.77-48.35-37.35,0-17.05,10.54-28.06,26.86-28.06,12.32,0,23.8,6.01,29.95,15.69l18.66,29.41c4.65,7.37,8.74,8.82,14.25,8.82,7.08,0,11.31-5.42,11.31-14.5v-109.64c0-10.89-3.13-15.92-10.82-17.35-7.63-1.45-11.16,1.68-15.64,5.64-.93.82-1.89,1.67-2.93,2.52l-14.07,11.1c-11.23,8.69-20.35,12.74-28.7,12.74-18.08,0-28.87-11.55-28.87-30.9,0-8.34,3.27-16.11,8.96-21.32,5.19-4.75,11.9-6.9,19.38-6.23h0l159.57,15.48c19.65,1.96,39.74,7.84,39.74,36.58,0,8.18-3.27,15.14-9.46,20.13-5.44,4.39-12.94,6.91-20.56,6.91-15.72,0-25.38-7.24-32.75-14.32l-25.25-23.99c-7.14-7.06-14.52-7.61-16.62-7.61-2.25,0-3.99.77-5.16,2.3-2.22,2.88-2.48,8.41-.7,15.19l21.53,98.05c2.48,10.92,5.4,13.05,9.59,13.05,4.96,0,9.16-3.89,14.02-8.4,1.73-1.6,3.51-3.26,5.49-4.9,10.15-8.34,20.47-12.75,29.86-12.75,15.99,0,30.02,14.44,30.02,30.9,0,5.5-1.38,13.32-7.94,19.28-5.52,5.02-13.38,7.55-23.44,7.55ZM227.44,305.86c-16,0-25.94,10.4-25.94,27.14,0,21.03,15.99,33.28,47.51,36.43l141.49,13.67c12.91,1.22,22.73-1.13,29.17-7,6.31-5.74,7.63-13.28,7.63-18.6,0-15.97-13.6-29.98-29.1-29.98-9.17,0-19.29,4.33-29.27,12.54-1.95,1.63-3.73,3.28-5.45,4.87-5,4.64-9.32,8.65-14.65,8.65-4.54,0-7.88-2.3-10.49-13.77l-21.53-98.04c-1.84-7.04-1.53-12.86.87-15.96,1.36-1.76,3.34-2.65,5.89-2.65,2.18,0,9.87.57,17.26,7.87l25.25,23.99c12.91,12.39,23.48,14.06,32.11,14.06,19.1,0,29.1-13.14,29.1-26.11,0-28-19.67-33.74-38.9-35.66l-159.57-15.48c-7.21-.65-13.67,1.42-18.67,5.99-5.51,5.03-8.67,12.56-8.67,20.64,0,18.77,10.45,29.98,27.95,29.98,8.13,0,17.07-3.99,28.13-12.54l14.06-11.09c1.02-.83,1.97-1.67,2.9-2.49,4.48-3.97,8.35-7.39,16.42-5.86,8.22,1.53,11.57,6.82,11.57,18.25v109.64c0,9.51-4.69,15.42-12.23,15.42-5.83,0-10.15-1.51-15.03-9.24l-18.65-29.41c-5.99-9.42-17.16-15.27-29.17-15.27Z"/>
      </g>
      <g>
        <path d="M598.2,822.89c18.08,0,29.85,15.74,29.85,61.92,0,66.04-29.56,122.28-81.79,122.28-26.12,0-39.89-21.93-28.41-47.21l23.53-51.6c5.45-11.87-5.17-17.03-13.2-6.71l-59.41,76.88c-9.18,11.61-19.52,18.06-30.14,18.06-28.7,0-37.31-30.96-37.31-65.27-.29-34.57,6.31-73.27,14.06-88.23,7.17-13.67,16.36-20.9,32.72-20.12,17.22.77,24.11,12.38,15.5,34.57l-41.04,105.51c-4.88,12.64,6.89,19.61,13.2,19.61,7.18,0,12.92-2.06,17.22-14.19l35.59-100.61c8.04-22.7,21.52-26.31,32.14-26.31,13.78,0,26.98,6.71,29.56,26.31l12.63,92.36c2.3,15.74,8.04,21.67,16.36,21.67s15.78-6.71,14.35-21.67l-11.19-113.51c-2.01-19.35,6.6-23.73,15.79-23.73Z"/>
        <path class="cls-1" d="M546.25,1007.54c-12.37,0-22.7-5.02-28.34-13.77-5.95-9.24-6.13-21.67-.49-34.09l23.53-51.6c2.24-4.88,1.85-9.15-.99-10.88-2.55-1.55-7.22-.76-11.43,4.65l-59.41,76.88c-9.44,11.93-19.99,18.24-30.5,18.24-17.23,0-37.77-11.4-37.77-65.73-.28-33.21,6.06-72.88,14.12-88.44,7.87-15.01,17.79-21.09,33.15-20.37,8.04.36,13.73,3,16.89,7.85,4.01,6.14,3.68,15.35-.98,27.35l-41.04,105.51c-1.77,4.6-1.43,8.9,1,12.44,2.91,4.25,8.24,6.54,11.77,6.54,7.32,0,12.68-2.32,16.79-13.88l35.59-100.61c9.42-26.62,26.85-26.62,32.58-26.62,16.84,0,27.78,9.74,30.02,26.71l12.63,92.35c2.12,14.51,7.17,21.27,15.9,21.27,3.76,0,7.2-1.51,9.69-4.24,2.4-2.65,5.08-7.73,4.2-16.92l-11.19-113.51c-.94-9.07.39-15.69,3.97-19.65,2.74-3.04,6.88-4.59,12.28-4.59,20.4,0,30.31,20.4,30.31,62.38,0,33.45-7.59,64.05-21.38,86.15-14.93,23.94-35.98,36.59-60.88,36.59ZM537.29,895.59c1.21,0,2.29.3,3.16.83,2.48,1.51,4.33,5.57,1.35,12.05l-23.53,51.59c-5.51,12.13-5.35,24.23.43,33.21,5.47,8.49,15.51,13.35,27.57,13.35,24.56,0,45.34-12.5,60.09-36.16,13.7-21.96,21.24-52.38,21.24-85.66,0-41.93-9.34-61.45-29.39-61.45-5.2,0-8.99,1.4-11.59,4.28-3.39,3.76-4.65,10.13-3.73,18.94l11.19,113.51c.91,9.53-1.91,14.85-4.44,17.63-2.66,2.93-6.35,4.55-10.37,4.55-9.28,0-14.62-7.01-16.82-22.07l-12.63-92.36c-2.97-22.55-19.51-25.92-29.1-25.92-20.17,0-27.76,14.84-31.71,26.01l-35.59,100.61c-4.29,12.07-9.93,14.5-17.65,14.5-3.77,0-9.44-2.43-12.53-6.94-1.82-2.65-3.49-7.11-1.1-13.29l41.04-105.51c4.48-11.54,4.85-20.71,1.07-26.51-2.99-4.58-8.43-7.08-16.16-7.43-14.96-.73-24.61,5.24-32.29,19.88-8,15.45-14.29,54.93-14.01,88.01,0,29.57,6.39,64.81,36.85,64.81,10.22,0,20.52-6.18,29.77-17.88l59.41-76.87c3.19-4.09,6.68-5.7,9.48-5.7Z"/>
      </g>
      <g>
        <path d="M557.73,810.51c-15.79,0-34.15-5.68-34.15-21.15,0-12.38,11.77-20.12,23.82-20.12h48.79c13.78,0,20.95-7.74,12.63-23.22l-48.5-90.29c-5.74-10.84-10.33-20.12-20.95-17.54-10.62,2.58-12.05,10.58-7.46,19.35l28.13,54.69c12.63,24.51-5.74,41.28-26.4,41.79l-10.91.26c-10.62.26-12.05,4.39-14.64,14.71l-4.31,16.25c-2.87,10.58-14.35,17.54-26.12,17.54-49.94,0-77.2-45.92-77.2-91.33s21.24-88.75,72.9-88.75c20.38,0,34.44,6.96,34.44,22.19,0,10.06-10.91,25.28-34.15,11.35l-18.94-11.35c-5.17-3.1-10.33-2.32-12.34.26-3.16,4.13-2.87,9.54-.86,18.06l26.69,111.19c2.58,11.09,8.04,13.67,14.06,12.9,6.31-.77,8.9-4.13,10.62-12.38l26.4-131.31c2.87-14.71,14.35-21.93,28.13-21.93,39.89,0,80.07,46.69,80.07,105.77s-36.45,83.07-69.74,83.07Z"/>
        <path class="cls-1" d="M557.73,810.97c-8.88,0-17.12-1.71-23.21-4.82-7.46-3.81-11.41-9.62-11.41-16.79,0-12.88,12.35-20.58,24.28-20.58h48.79c7.01,0,12.11-2.07,14.36-5.82,2.36-3.95,1.62-9.73-2.13-16.72l-48.95-91.14c-5.58-10.56-10-18.9-19.99-16.47-4.45,1.08-7.4,3.15-8.75,6.14-1.51,3.34-.96,7.67,1.59,12.55l28.13,54.69c6.71,13.02,4.17,22.4.87,27.98-5.12,8.64-15.72,14.19-27.67,14.49l-10.91.26c-10.16.25-11.58,3.88-14.2,14.36l-4.31,16.26c-2.81,10.37-13.98,17.89-26.56,17.89-23.39,0-43.34-9.96-57.7-28.82-12.69-16.67-19.97-39.62-19.97-62.97s6.09-45.76,17.16-61.38c12.9-18.21,32.33-27.83,56.2-27.83,22.18,0,34.9,8.25,34.9,22.65,0,5.08-2.73,11.76-8.83,15.21-4.75,2.69-13.11,4.27-26.02-3.46l-18.94-11.35c-4.96-2.97-9.87-2.26-11.74.15-3.16,4.13-2.68,9.61-.78,17.67l26.69,111.19c2.17,9.34,6.61,13.44,13.56,12.55,5.92-.73,8.5-3.76,10.23-12.02l26.4-131.31c2.73-13.96,13.41-22.3,28.58-22.3,19.69,0,39.87,11.27,55.36,30.91,16.23,20.58,25.18,47.33,25.18,75.33s-7.58,50.41-22.52,65.08c-12.12,11.9-29.05,18.45-47.68,18.45ZM547.4,769.69c-11.48,0-23.36,7.35-23.36,19.66,0,9.55,8.82,20.69,33.69,20.69,51.08,0,69.28-42.67,69.28-82.61,0-27.78-8.87-54.33-24.98-74.75-15.32-19.42-35.23-30.56-54.63-30.56-14.69,0-25.04,8.06-27.67,21.56l-26.4,131.31c-1.8,8.64-4.68,11.97-11.01,12.75-7.51.96-12.27-3.37-14.57-13.25l-26.69-111.19c-1.92-8.12-2.43-14.04.94-18.45,2.12-2.73,7.54-3.61,12.94-.37l18.94,11.35c12.53,7.51,20.56,6.02,25.09,3.45,5.78-3.27,8.36-9.6,8.36-14.41,0-14.01-12.07-21.72-33.98-21.72-23.55,0-42.73,9.49-55.45,27.44-10.96,15.46-16.99,37.07-16.99,60.84s7.21,45.89,19.78,62.41c14.17,18.61,33.87,28.45,56.96,28.45,12.17,0,22.97-7.23,25.67-17.2l4.3-16.25c2.63-10.51,4.13-14.78,15.07-15.05l10.91-.26c11.63-.29,21.94-5.67,26.9-14.04,3.19-5.38,5.62-14.44-.89-27.09l-28.13-54.69c-2.69-5.13-3.24-9.75-1.61-13.35,1.48-3.26,4.63-5.5,9.38-6.65,10.69-2.59,15.48,6.45,21.02,16.93l.45.84,48.5,90.29c3.92,7.29,4.65,13.38,2.11,17.62-2.42,4.04-7.8,6.27-15.15,6.27h-48.79Z"/>
      </g>
    </g>
  </g>
</svg>