<?xml version="1.0" encoding="UTF-8"?>
<svg id="Layer_2" data-name="Layer 2" xmlns="http://www.w3.org/2000/svg" viewBox="0 0 625.79 1028.64">
  <defs>
    <style>
      .cls-1 {
        fill: #fff;
      }
    </style>
  </defs>
  <g id="Home_Page_Text_copy" data-name="Home Page Text copy">
    <g id="Proxima_Nova" data-name="Proxima Nova">
      <g>
        <path d="M145.42,998.9c15.32-15.32,28.08-38.93,28.08-67.98,0-18.83-7.98-30.32-18.19-30.32-12.13,0-16.91,13.72-21.7,36.38-7.02,35.11-15.96,84.25-66.38,84.25-35.74,0-66.7-30.32-66.7-84.89,0-34.15,10.21-63.83,29.68-86.49l39.25,30c-14.68,17.87-22.02,41.17-22.02,60s7.34,25.21,16.6,25.21c11.17,0,15-13.08,19.47-36.7,7.34-35.11,17.55-83.61,65.74-83.61,42.76,0,71.17,31.59,71.17,88.72,0,43.08-13.4,73.08-33.83,94.46l-41.17-29.04Z"/>
        <path class="cls-1" d="M186.66,1028.64l-42.06-29.67.45-.45c17.75-17.75,27.93-42.39,27.93-67.6,0-17.54-7.26-29.79-17.66-29.79-11.42,0-16.25,12.64-21.18,35.96l-.36,1.8c-6.98,34.98-16.54,82.88-66.54,82.88-18.29,0-35.04-7.87-47.16-22.17-13.13-15.49-20.07-37.36-20.07-63.25,0-34.11,10.31-64.14,29.81-86.83l.33-.38,40.09,30.64-.35.43c-13.51,16.44-21.9,39.3-21.9,59.66,0,15.92,5.71,24.68,16.06,24.68,11.24,0,14.8-14.36,18.94-36.27,7.42-35.48,17.57-84.05,66.27-84.05,21.52,0,39.51,8,52.03,23.13,12.87,15.55,19.67,38.41,19.67,66.12,0,39.32-11.43,71.23-33.98,94.83l-.32.33ZM146.24,998.83l40.28,28.41c22.45-23.68,33.37-54.36,33.37-93.76,0-27.46-6.72-50.09-19.43-65.44-12.31-14.88-30.02-22.75-51.21-22.75-47.83,0-57.88,48.08-65.22,83.19-4.24,22.42-7.93,37.12-19.99,37.12-6.4,0-17.13-3.34-17.13-25.74,0-20.41,8.34-43.31,21.79-59.91l-38.42-29.36c-19.12,22.46-29.23,52.1-29.23,85.76,0,25.63,6.85,47.27,19.82,62.57,11.91,14.05,28.37,21.79,46.35,21.79,49.13,0,58.59-47.41,65.5-82.02l.36-1.8c5.04-23.87,10.08-36.81,22.22-36.81,11.02,0,18.72,12.69,18.72,30.85,0,25.28-10.12,49.99-27.79,67.9Z"/>
      </g>
      <g>
        <path d="M216.59,681.36l-32.23,10.85v88.4l32.23,10.85v59.68L3.72,771.04v-68.93l212.86-80.42v59.68ZM51.59,736.57l86.49,29.68v-59.68l-86.49,30Z"/>
        <path class="cls-1" d="M217.12,851.91L3.19,771.41v-69.67l.34-.13,213.58-80.69v60.83l-32.23,10.85v87.64l32.23,10.85v60.83ZM4.25,770.67l211.8,79.7v-58.53l-32.23-10.85v-89.17l32.23-10.85v-58.53L4.25,702.47v68.2ZM138.61,767l-88.65-30.42,88.65-30.75v61.17ZM53.22,736.57l84.32,28.94v-58.19l-84.32,29.25Z"/>
      </g>
      <g>
        <path d="M216.59,467.22l-128.61,90h128.61v54.89H3.72v-56.49l122.55-86.17H3.72v-55.21h212.86v52.98Z"/>
        <path class="cls-1" d="M217.12,612.64H3.19v-57.3l.23-.16,121.17-85.2H3.19v-56.27h213.93v53.79l-.23.16-127.23,89.03h127.46v55.96ZM4.25,611.58h211.8v-53.83H86.29l129.77-90.81v-52.17H4.25v54.15h123.7L4.25,555.9v55.68Z"/>
      </g>
      <g>
        <path d="M216.59,394.78H3.72v-89.36c0-67.02,40.21-115.21,106.27-115.21s106.59,48.19,106.59,114.89v89.68ZM168.72,339.89v-34.47c0-37.34-27.13-59.04-58.72-59.04s-58.4,19.79-58.4,58.72v34.79h117.12Z"/>
        <path class="cls-1" d="M217.12,395.31H3.19v-89.89c0-33.56,9.85-62.29,28.5-83.09,19.15-21.36,46.23-32.65,78.31-32.65s59.22,11.28,78.46,32.61c18.75,20.78,28.66,49.42,28.66,82.81v90.21ZM4.25,394.25h211.8v-89.15c0-33.13-9.82-61.52-28.39-82.1-19.04-21.1-45.9-32.26-77.67-32.26s-58.57,11.17-77.51,32.3c-18.47,20.6-28.23,49.09-28.23,82.38v88.83ZM169.25,340.42H51.06v-35.32c0-18.58,5.89-33.92,17.04-44.35,10.42-9.75,24.91-14.9,41.89-14.9,16.07,0,30.83,5.56,41.57,15.66,11.57,10.88,17.68,26.06,17.68,43.91v35ZM52.13,339.36h116.06v-33.94c0-17.55-6-32.46-17.35-43.13-10.54-9.91-25.05-15.37-40.84-15.37-16.71,0-30.94,5.05-41.16,14.62-10.93,10.22-16.71,25.29-16.71,43.57v34.25Z"/>
      </g>
      <g>
        <path d="M216.59,136.28h-85.85L3.72,217.02v-61.91l78.51-46.27L3.72,63.2V.97l127.02,80.42h85.85v54.89Z"/>
        <path class="cls-1" d="M3.19,217.99v-63.19l77.99-45.97L3.19,63.5V0l127.7,80.86h86.23v55.96h-86.23L3.19,217.99ZM4.25,155.41v60.64l126.33-80.31h85.47v-53.83h-85.47L4.25,1.93v60.96l79.03,45.94L4.25,155.41Z"/>
      </g>
      <g>
        <path d="M419.01,869.33h-85.53v88.4h85.53v54.89h-212.86v-54.89h79.47v-88.4h-79.47v-54.89h212.86v54.89Z"/>
        <path class="cls-1" d="M419.54,1013.16h-213.93v-55.96h79.47v-87.34h-79.47v-55.96h213.93v55.96h-85.53v87.34h85.53v55.96ZM206.67,1012.09h211.8v-53.83h-85.53v-89.47h85.53v-53.83h-211.8v53.83h79.47v89.47h-79.47v53.83Z"/>
      </g>
      <g>
        <path d="M206.14,794.97v-55.85h124.78c25.21,0,43.4-13.4,43.4-43.08s-18.19-42.76-43.4-42.76h-124.78v-55.85h126.38c52.98,0,90.32,30.32,90.32,98.61s-37.66,98.93-90,98.93h-126.7Z"/>
        <path class="cls-1" d="M332.84,795.5h-127.23v-56.91h125.31c27.25,0,42.87-15.51,42.87-42.55s-15.63-42.23-42.87-42.23h-125.31v-56.91h126.91c27.34,0,49.95,8.25,65.4,23.85,16.88,17.05,25.45,42.38,25.45,75.29,0,63.21-33,99.46-90.53,99.46ZM206.67,794.44h126.17c26.76,0,48.97-8.19,64.25-23.7,16.73-16.98,25.22-42.12,25.22-74.7s-8.46-57.7-25.14-74.54c-15.46-15.62-37.21-23.54-64.65-23.54h-125.85v54.78h124.25c27.92,0,43.93,15.78,43.93,43.3s-16.01,43.62-43.93,43.62h-124.25v54.78Z"/>
      </g>
      <g>
        <path d="M202.63,467.22c0-46.59,22.98-75.32,49.47-90.95l24.25,45.96c-14.04,8.62-25.21,24.89-25.21,45,0,34.79,26.81,59.36,61.59,59.36s61.59-24.57,61.59-59.36c0-16.6-5.74-31.59-12.77-40.21h-17.87v48.83h-45.64v-102.76h83.29c25.21,22.98,41.49,53.93,41.49,94.15,0,63.51-42.45,115.21-110.1,115.21s-110.1-51.7-110.1-115.21Z"/>
        <path class="cls-1" d="M312.73,582.96c-32.56,0-60.51-11.74-80.82-33.96-19.23-21.04-29.82-50.08-29.82-81.78,0-21.75,5.01-41.05,14.88-57.36,8.42-13.92,20.15-25.37,34.85-34.05l.48-.28,24.75,46.89-.42.26c-15.4,9.45-24.96,26.52-24.96,44.55,0,16.54,6.25,31.57,17.59,42.34,11.2,10.63,26.64,16.49,43.48,16.49s32.28-5.86,43.48-16.49c11.34-10.77,17.59-25.8,17.59-42.34,0-17.8-6.42-32.12-12.49-39.68h-17.09v48.83h-46.7v-103.83h84.03l.15.14c27.64,25.19,41.66,57,41.66,94.54,0,31.7-10.59,60.74-29.82,81.78-20.31,22.22-48.25,33.96-80.82,33.96ZM251.89,377c-22.35,13.35-48.73,39.79-48.73,90.21,0,31.43,10.49,60.22,29.54,81.06,20.1,21.99,47.77,33.62,80.03,33.62s59.93-11.62,80.03-33.62c19.05-20.84,29.54-49.63,29.54-81.06,0-37.16-13.85-68.65-41.16-93.61h-82.56v101.7h44.57v-48.83h18.66l.16.2c6.23,7.64,12.89,22.31,12.89,40.55,0,16.83-6.36,32.14-17.92,43.11-11.4,10.82-27.1,16.78-44.21,16.78s-32.81-5.96-44.21-16.78c-11.55-10.97-17.92-26.28-17.92-43.11,0-18.23,9.58-35.5,25.04-45.19l-23.76-45.02Z"/>
      </g>
      <g>
        <path d="M419.01,209.99h-85.53v88.4h85.53v54.89h-212.86v-54.89h79.47v-88.4h-79.47v-54.89h212.86v54.89Z"/>
        <path class="cls-1" d="M419.54,353.82h-213.93v-55.96h79.47v-87.34h-79.47v-55.96h213.93v55.96h-85.53v87.34h85.53v55.96ZM206.67,352.75h211.8v-53.83h-85.53v-89.46h85.53v-53.83h-211.8v53.83h79.47v89.46h-79.47v53.83Z"/>
      </g>
      <g>
        <path d="M621.43,1012.62h-212.86v-156.06h46.27v101.17h35.42v-98.93h46.59v98.93h38.3v-101.17h46.27v156.06Z"/>
        <path class="cls-1" d="M621.96,1013.16h-213.93v-157.12h47.34v101.17h34.36v-98.93h47.66v98.93h37.23v-101.17h47.34v157.12ZM409.09,1012.09h211.8v-154.99h-45.21v101.17h-39.36v-98.93h-45.53v98.93h-36.49v-101.17h-45.21v154.99Z"/>
      </g>
      <g>
        <path d="M550.26,817c15.32-15.32,28.08-38.93,28.08-67.98,0-18.83-7.98-30.32-18.19-30.32-12.13,0-16.91,13.72-21.7,36.38-7.02,35.11-15.96,84.25-66.38,84.25-35.74,0-66.7-30.32-66.7-84.89,0-34.15,10.21-63.83,29.68-86.49l39.25,30c-14.68,17.87-22.02,41.17-22.02,60s7.34,25.21,16.6,25.21c11.17,0,15-13.08,19.47-36.7,7.34-35.11,17.55-83.61,65.74-83.61,42.76,0,71.17,31.59,71.17,88.72,0,43.08-13.4,73.08-33.83,94.46l-41.17-29.04Z"/>
        <path class="cls-1" d="M591.5,846.74l-42.06-29.67.45-.45c17.75-17.75,27.93-42.39,27.93-67.6,0-17.54-7.26-29.79-17.66-29.79-11.42,0-16.25,12.64-21.18,35.96l-.36,1.8c-6.98,34.98-16.54,82.88-66.54,82.88-18.29,0-35.04-7.87-47.16-22.17-13.13-15.49-20.07-37.36-20.07-63.25,0-34.11,10.31-64.14,29.81-86.83l.33-.38,40.09,30.64-.35.43c-13.51,16.44-21.9,39.3-21.9,59.66,0,15.92,5.71,24.68,16.06,24.68,11.24,0,14.8-14.36,18.94-36.27,7.42-35.48,17.57-84.05,66.27-84.05,21.52,0,39.51,8,52.03,23.13,12.87,15.55,19.67,38.41,19.67,66.12,0,39.32-11.43,71.23-33.98,94.83l-.32.33ZM551.08,816.92l40.28,28.41c22.45-23.68,33.37-54.36,33.37-93.76,0-27.46-6.72-50.09-19.43-65.44-12.31-14.88-30.02-22.75-51.21-22.75-47.83,0-57.88,48.08-65.22,83.19-4.24,22.42-7.93,37.12-19.99,37.12-6.4,0-17.13-3.34-17.13-25.74,0-20.41,8.34-43.31,21.79-59.91l-38.42-29.36c-19.12,22.46-29.23,52.1-29.23,85.76,0,25.63,6.85,47.27,19.82,62.57,11.91,14.05,28.37,21.79,46.35,21.79,49.13,0,58.59-47.41,65.5-82.02l.36-1.8c5.04-23.87,10.08-36.81,22.22-36.81,11.02,0,18.72,12.69,18.72,30.85,0,25.28-10.12,49.99-27.79,67.9Z"/>
      </g>
    </g>
  </g>
</svg>