<?xml version="1.0" encoding="UTF-8"?>
<svg id="Layer_2" data-name="Layer 2" xmlns="http://www.w3.org/2000/svg" viewBox="0 0 628.09 1022.99">
  <defs>
    <style>
      .cls-1 {
        fill: #fff;
      }
    </style>
  </defs>
  <g id="Home_Page_Text_copy" data-name="Home Page Text copy">
    <g id="Times_New_Roman" data-name="Times New Roman">
      <g>
        <path d="M.53,879.01l70.4-1.71v6.39c-17.65,3.01-31.85,10.41-42.6,22.2-10.75,11.79-16.12,24.53-16.12,38.24,0,10.59,2.83,18.98,8.49,25.16,5.66,6.18,12.18,9.27,19.55,9.27,4.67,0,8.83-1.09,12.46-3.27,4.88-3.01,9.71-7.84,14.49-14.49,3.43-4.88,9.5-16.15,18.22-33.8,12.15-24.71,23.62-41.38,34.42-50,10.8-8.51,23.16-12.77,37.07-12.77,17.65,0,32.84,6.88,45.56,20.64,12.72,13.76,19.08,31.23,19.08,52.41,0,6.65-.68,12.93-2.02,18.85-1.35,5.92-3.89,13.34-7.63,22.27-2.08,4.98-3.12,9.09-3.12,12.3,0,2.7,1.04,5.56,3.12,8.57,2.08,3.01,5.24,5.45,9.5,7.32v5.76h-79.75v-5.76c22.43-4.57,39.54-13.37,51.32-26.4,11.79-13.03,17.68-27.08,17.68-42.13,0-11.63-3.17-20.9-9.5-27.8-6.33-6.9-13.71-10.36-22.12-10.36-4.98,0-9.81,1.32-14.49,3.97-4.67,2.65-9.11,6.67-13.32,12.07-4.21,5.4-9.68,14.95-16.43,28.66-9.45,19.21-17.5,33.02-24.14,41.43-6.64,8.41-14.07,14.88-22.27,19.39-8.2,4.52-17.24,6.78-27.1,6.78-16.82,0-31.15-6.18-42.99-18.54-11.84-12.36-17.76-27.93-17.76-46.73,0-6.85.83-13.5,2.49-19.94,1.25-4.88,3.56-10.83,6.93-17.83,3.38-7.01,5.06-11.92,5.06-14.72s-.83-4.83-2.49-6.39c-1.66-1.56-5.66-3.01-11.99-4.36v-4.67Z"/>
        <path class="cls-1" d="M221.93,1012.87h-80.81v-6.73l.43-.09c22.21-4.52,39.38-13.35,51.04-26.24,11.64-12.87,17.54-26.92,17.54-41.78,0-11.44-3.15-20.67-9.36-27.44-6.2-6.76-13.51-10.19-21.73-10.19-4.87,0-9.65,1.31-14.22,3.9-4.59,2.6-9.02,6.62-13.16,11.94-4.16,5.34-9.67,14.95-16.38,28.57-9.42,19.15-17.56,33.12-24.2,41.53-6.66,8.43-14.2,15-22.44,19.53-8.24,4.54-17.45,6.84-27.36,6.84-16.9,0-31.49-6.29-43.37-18.7-11.88-12.4-17.9-28.25-17.9-47.1,0-6.86.84-13.61,2.51-20.07,1.25-4.88,3.59-10.92,6.97-17.93,3.32-6.9,5.01-11.78,5.01-14.49,0-2.54-.78-4.55-2.32-6-1.58-1.48-5.53-2.9-11.74-4.23l-.42-.09v-5.62l71.47-1.74v7.38l-.44.08c-17.45,2.98-31.68,10.39-42.3,22.03-10.6,11.63-15.98,24.38-15.98,37.88,0,10.41,2.81,18.75,8.35,24.8,5.53,6.04,11.97,9.09,19.16,9.09,4.55,0,8.65-1.07,12.19-3.19,4.79-2.96,9.62-7.78,14.33-14.34,3.39-4.83,9.51-16.18,18.18-33.72,12.13-24.67,23.76-41.55,34.57-50.18,10.85-8.55,23.43-12.89,37.4-12.89,17.73,0,33.19,7,45.95,20.81,12.75,13.8,19.22,31.55,19.22,52.77,0,6.65-.69,13.03-2.04,18.96-1.35,5.93-3.93,13.45-7.66,22.36-2.04,4.9-3.07,8.97-3.07,12.1,0,2.58,1.02,5.36,3.02,8.26,2.01,2.92,5.13,5.32,9.28,7.14l.32.14v6.64ZM142.18,1011.8h78.69v-4.88c-4.17-1.88-7.33-4.36-9.41-7.37-2.13-3.09-3.21-6.07-3.21-8.87,0-3.27,1.06-7.48,3.16-12.51,3.71-8.86,6.27-16.32,7.6-22.19,1.33-5.86,2.01-12.16,2.01-18.73,0-20.95-6.37-38.46-18.94-52.05-12.56-13.58-27.75-20.47-45.17-20.47-13.72,0-26.09,4.26-36.74,12.66-10.68,8.53-22.22,25.29-34.27,49.82-8.69,17.59-14.84,28.99-18.27,33.87-4.8,6.68-9.72,11.6-14.64,14.63-3.71,2.22-7.99,3.35-12.74,3.35-7.49,0-14.2-3.18-19.94-9.44-5.73-6.25-8.63-14.83-8.63-25.51,0-13.78,5.47-26.76,16.26-38.6,10.69-11.72,24.97-19.22,42.46-22.29v-5.39l-69.34,1.69v3.72c6.25,1.36,10.12,2.8,11.83,4.4,1.77,1.65,2.66,3.93,2.66,6.77s-1.67,7.8-5.12,14.95c-3.35,6.95-5.67,12.92-6.9,17.74-1.64,6.37-2.48,13.04-2.48,19.81,0,18.57,5.92,34.16,17.61,46.36,11.68,12.19,26.01,18.37,42.61,18.37,9.73,0,18.76-2.26,26.85-6.71,8.11-4.46,15.55-10.94,22.11-19.26,6.6-8.35,14.7-22.26,24.08-41.34,6.74-13.68,12.29-23.35,16.49-28.75,4.23-5.43,8.76-9.54,13.47-12.21,4.73-2.68,9.69-4.04,14.75-4.04,8.53,0,16.1,3.54,22.51,10.53,6.4,6.98,9.64,16.45,9.64,28.16,0,15.12-5.99,29.42-17.82,42.49-11.73,12.97-28.95,21.88-51.19,26.48v4.8Z"/>
      </g>
      <g>
        <path d="M156.45,741.06v74.61l20.56,8.88c6.85,2.91,12.51,4.36,16.98,4.36,5.92,0,10.28-2.39,13.08-7.16,1.66-2.8,2.91-9.71,3.74-20.72h5.76v70.25h-5.76c-1.14-7.58-4.28-13.81-9.42-18.69-5.14-4.88-15.76-10.9-31.85-18.07L1,758.97v-2.96l173.21-76.17c16.41-7.27,26.74-13.24,31-17.91,3.22-3.53,5.09-8.51,5.61-14.95h5.76v102.18h-5.76v-4.21c0-8.2-1.14-13.96-3.43-17.29-1.66-2.28-4.05-3.43-7.17-3.43-1.87,0-3.79.31-5.76.93-.93.21-4.83,1.77-11.68,4.67l-26.32,11.21ZM144.92,746.35l-72.74,31.46,72.74,32.4v-63.86Z"/>
        <path class="cls-1" d="M217.1,871.81h-6.75l-.07-.45c-1.12-7.42-4.23-13.61-9.26-18.38-5.08-4.82-15.74-10.86-31.7-17.97L.47,759.32v-3.65l.32-.14,173.21-76.17c16.26-7.2,26.63-13.18,30.82-17.78,3.12-3.42,4.96-8.35,5.47-14.64l.04-.49h6.79v103.24h-6.83v-4.74c0-8.05-1.12-13.77-3.33-16.99-1.56-2.15-3.76-3.19-6.73-3.19-1.81,0-3.69.31-5.6.91-.94.21-4.84,1.77-11.63,4.65l-26,11.08v73.91l20.24,8.74c6.75,2.86,12.39,4.32,16.77,4.32,5.77,0,9.9-2.26,12.63-6.9,1.61-2.72,2.85-9.61,3.67-20.49l.04-.49h6.79v71.31ZM211.27,870.74h4.78v-69.18h-4.74c-.84,10.9-2.08,17.6-3.77,20.46-2.89,4.93-7.45,7.42-13.54,7.42-4.52,0-10.3-1.48-17.19-4.4l-20.88-9.02v-75.31l26.65-11.35c6.95-2.95,10.8-4.48,11.77-4.7,1.97-.62,3.97-.95,5.88-.95,3.28,0,5.84,1.23,7.6,3.65,2.34,3.41,3.53,9.33,3.53,17.6v3.67h4.7v-101.11h-4.74c-.58,6.3-2.5,11.27-5.7,14.78-4.29,4.71-14.78,10.78-31.17,18.04L1.53,756.36v2.27l168.22,75.4c16.07,7.15,26.84,13.27,32,18.17,5.1,4.85,8.3,11.08,9.51,18.54ZM145.45,811.04l-74.6-33.22,74.6-32.27v65.49ZM73.51,777.83l70.89,31.57v-62.23l-70.89,30.66Z"/>
      </g>
      <g>
        <path d="M5.36,563.96l131-104.2H45.55c-12.67,0-21.23,1.82-25.7,5.45-6.02,4.98-8.93,13.34-8.72,25.08h-5.76v-69.78h5.76c1.14,8.93,2.62,14.93,4.44,17.99,1.82,3.06,4.78,5.45,8.88,7.17,4.1,1.71,11.14,2.57,21.11,2.57h175.85v5.3l-175.85,142.83h134.27c12.15,0,20.35-2.78,24.61-8.33,4.26-5.55,6.39-11.92,6.39-19.08v-4.98h5.76v74.92h-5.76c-.1-11.63-2.49-19.73-7.17-24.3-4.67-4.57-12.62-6.85-23.83-6.85H30.75l-5.61,4.52c-5.61,4.47-9.29,8.41-11.06,11.84-1.76,3.43-2.75,8.36-2.96,14.8h-5.76v-74.92Z"/>
        <path class="cls-1" d="M217.1,639.41h-6.82v-.53c-.1-11.43-2.46-19.48-7.01-23.92-4.55-4.45-12.44-6.7-23.46-6.7H30.94l-5.46,4.4c-5.52,4.4-9.19,8.32-10.92,11.67-1.72,3.34-2.69,8.24-2.9,14.57l-.02.51h-6.81v-75.71l.2-.16,129.8-103.26H45.55c-12.48,0-21.02,1.79-25.36,5.33-5.86,4.85-8.73,13.15-8.53,24.66v.54s-6.83,0-6.83,0v-70.84h6.76l.06.46c1.13,8.82,2.6,14.8,4.37,17.79,1.75,2.95,4.65,5.29,8.63,6.95,4.02,1.68,11.05,2.53,20.9,2.53h176.39v6.08l-.2.16-174.69,141.89h132.77c11.92,0,20.06-2.73,24.19-8.12,4.17-5.43,6.28-11.74,6.28-18.76v-5.52h6.83v75.99ZM211.34,638.35h4.71v-73.86h-4.7v4.45c0,7.25-2.19,13.78-6.5,19.4-4.34,5.67-12.76,8.54-25.03,8.54H44.05l1.16-.95,175.66-142.67v-4.51H45.55c-9.99,0-17.16-.88-21.31-2.61-4.19-1.75-7.26-4.23-9.13-7.38-1.84-3.1-3.29-8.9-4.45-17.73h-4.76v68.72h4.69c-.11-11.57,2.89-19.96,8.92-24.96,4.55-3.7,13.31-5.57,26.04-5.57h92.33L5.89,564.22v74.13h4.72c.25-6.24,1.26-11.12,3-14.51,1.79-3.48,5.56-7.52,11.2-12.01l5.75-4.63h149.25c11.31,0,19.45,2.36,24.2,7.01,4.69,4.58,7.15,12.71,7.32,24.15Z"/>
      </g>
      <g>
        <path d="M216.57,415.2h-5.76v-7.01c0-6.13-.96-10.83-2.88-14.1-1.92-3.27-4.54-5.69-7.87-7.24-2.18-.93-8.72-1.4-19.63-1.4H41.5c-10.8,0-17.55.57-20.25,1.71-2.7,1.14-5.06,3.45-7.09,6.93-2.03,3.48-3.04,8.18-3.04,14.1v7.01h-5.76v-94.55c0-25.23,3.43-45.53,10.28-60.9,8.41-18.79,21.13-33.05,38.16-42.76,17.03-9.71,36.29-14.56,57.79-14.56,14.85,0,28.53,2.39,41.04,7.17,12.51,4.78,22.85,10.96,31,18.54,8.15,7.58,14.69,16.33,19.63,26.25,4.93,9.92,8.75,22.04,11.45,36.37,1.25,6.33,1.87,16.3,1.87,29.91v94.55ZM17.35,334.67h164.8c8.72,0,14.07-.41,16.04-1.25,1.97-.83,3.48-2.23,4.52-4.21,1.56-2.8,2.34-6.85,2.34-12.15,0-17.34-5.92-30.58-17.76-39.72-15.99-12.46-40.81-18.69-74.45-18.69-27.1,0-48.75,4.26-64.95,12.77-12.67,6.75-21.29,15.42-25.86,26.01-3.22,7.48-4.77,19.89-4.67,37.23Z"/>
        <path class="cls-1" d="M217.1,415.73h-6.83v-7.54c0-6-.94-10.66-2.81-13.83-1.86-3.16-4.42-5.53-7.63-7.03-2.09-.89-8.62-1.35-19.4-1.35H41.5c-10.67,0-17.42.56-20.04,1.67-2.58,1.09-4.88,3.35-6.83,6.71-1.97,3.38-2.97,8.03-2.97,13.83v7.54h-6.83v-95.08c0-25.19,3.47-45.75,10.33-61.12,8.42-18.81,21.33-33.28,38.38-43,17.04-9.71,36.57-14.63,58.05-14.63,14.84,0,28.71,2.42,41.23,7.2,12.52,4.78,23,11.05,31.17,18.64,8.16,7.59,14.8,16.47,19.74,26.4,4.93,9.92,8.8,22.2,11.5,36.51,1.25,6.33,1.88,16.43,1.88,30v95.08ZM211.34,414.67h4.7v-94.01c0-13.5-.63-23.53-1.86-29.8-2.68-14.22-6.51-26.41-11.4-36.24-4.88-9.81-11.45-18.59-19.51-26.09-8.06-7.5-18.44-13.7-30.82-18.43-12.4-4.73-26.14-7.13-40.85-7.13-21.3,0-40.65,4.88-57.52,14.49-16.85,9.61-29.61,23.91-37.94,42.51-6.79,15.23-10.23,35.65-10.23,60.69v94.01h4.7v-6.48c0-5.99,1.05-10.82,3.11-14.36,2.07-3.56,4.54-5.97,7.34-7.15,2.8-1.18,9.49-1.76,20.46-1.76h138.94c11.08,0,17.57.47,19.84,1.44,3.42,1.6,6.15,4.11,8.12,7.46,1.96,3.34,2.95,8.17,2.95,14.37v6.48ZM182.15,335.21H16.83v-.53c-.1-17.33,1.48-29.93,4.71-37.44,4.6-10.65,13.38-19.49,26.1-26.27,16.21-8.52,38.14-12.83,65.2-12.83,16.79,0,31.58,1.58,43.98,4.69,12.42,3.12,22.79,7.87,30.8,14.12,11.92,9.2,17.96,22.71,17.96,40.14,0,5.36-.81,9.54-2.4,12.41-1.08,2.06-2.69,3.56-4.78,4.44-2.05.87-7.37,1.29-16.25,1.29ZM17.88,334.14h164.27c8.62,0,13.94-.41,15.84-1.2,1.85-.78,3.28-2.11,4.25-3.96,1.51-2.72,2.28-6.72,2.28-11.9,0-17.09-5.9-30.31-17.55-39.3-15.82-12.33-40.76-18.58-74.13-18.58-26.89,0-48.66,4.28-64.71,12.71-12.5,6.66-21.12,15.33-25.62,25.75-3.14,7.3-4.7,19.57-4.63,36.48Z"/>
      </g>
      <g>
        <path d="M5.36.53h5.76c.93,6.96,2.96,12.3,6.07,16.04,4.36,5.19,16.25,13.4,35.67,24.61l76.48,45.79h51.09c10.9,0,17.68-.57,20.33-1.71,2.65-1.14,4.98-3.4,7.01-6.78,2.03-3.37,3.04-7.87,3.04-13.47v-11.84h5.76v118.53h-5.76v-11.06c0-6.23-1.09-11.16-3.27-14.8-1.45-2.7-3.95-4.83-7.48-6.39-2.49-1.14-9.03-1.71-19.63-1.71h-42.37l-90.5,49.69c-17.86,9.87-28.37,16.82-31.54,20.87-3.17,4.05-4.8,9.45-4.91,16.2h-5.76v-101.24h5.76v4.52c0,6.13.88,10.41,2.65,12.85,1.77,2.44,3.64,3.66,5.61,3.66,3.74,0,13.14-4.15,28.19-12.46l69.94-38.16-63.71-38.01c-15.58-9.45-25.91-14.17-31-14.17-2.8,0-5.14,1.35-7.01,4.05-2.59,3.53-4.15,10.02-4.67,19.47h-5.76V.53Z"/>
        <path class="cls-1" d="M11.65,225.05h-6.82v-102.31h6.83v5.05c0,5.98.86,10.2,2.55,12.54,1.65,2.28,3.39,3.44,5.18,3.44,3.63,0,13.03-4.17,27.94-12.4l69.12-37.72-62.91-37.53c-15.42-9.36-25.76-14.1-30.72-14.1-2.64,0-4.79,1.25-6.57,3.82-2.53,3.44-4.07,9.9-4.58,19.2l-.03.5h-6.8V0h6.76l.06.46c.92,6.82,2.92,12.13,5.96,15.77,4.29,5.11,16.25,13.35,35.53,24.49l76.36,45.72h50.94c10.78,0,17.55-.56,20.12-1.67,2.53-1.09,4.81-3.3,6.76-6.56,1.97-3.27,2.96-7.71,2.96-13.2v-12.37h6.83v119.6h-6.83v-11.59c0-6.1-1.08-10.99-3.2-14.52-1.4-2.6-3.83-4.67-7.24-6.17-2.42-1.11-8.95-1.67-19.41-1.67h-42.23l-90.38,49.62c-17.71,9.79-28.27,16.76-31.38,20.73-3.08,3.94-4.69,9.28-4.79,15.88v.52ZM5.89,223.98h4.71c.18-6.6,1.87-11.98,5.01-16,3.24-4.14,13.61-11.01,31.7-21.01l90.62-49.75h42.5c10.77,0,17.26.58,19.85,1.76,3.62,1.6,6.22,3.82,7.72,6.62,2.21,3.68,3.33,8.75,3.33,15.05v10.53h4.7V53.71h-4.7v11.31c0,5.68-1.05,10.31-3.11,13.75-2.07,3.46-4.51,5.81-7.25,6.99-2.74,1.18-9.45,1.76-20.54,1.76h-51.24l-.13-.08L52.59,41.64c-19.38-11.19-31.43-19.51-35.8-24.73-3.1-3.72-5.16-9.05-6.13-15.85h-4.77v63.42h4.73c.55-9.24,2.15-15.72,4.75-19.25,1.96-2.83,4.46-4.27,7.44-4.27,5.23,0,15.46,4.66,31.27,14.25l64.5,38.48-70.75,38.61c-15.27,8.43-24.58,12.53-28.45,12.53-2.14,0-4.17-1.31-6.04-3.88-1.85-2.56-2.75-6.86-2.75-13.16v-3.99h-4.7v100.18Z"/>
      </g>
      <g>
        <path d="M318.02,941.62h65.42c10.8,0,17.55-.6,20.25-1.79,2.7-1.19,5.06-3.53,7.09-7.01,2.03-3.48,3.04-8.18,3.04-14.1v-7.01h5.76v110.43h-5.76v-7.01c0-6.13-1.09-11.06-3.27-14.8-1.45-2.7-3.95-4.78-7.48-6.23-2.49-1.14-9.03-1.71-19.63-1.71h-138.94c-10.8,0-17.55.57-20.25,1.71-2.7,1.14-5.06,3.45-7.09,6.93-2.03,3.48-3.04,8.18-3.04,14.1v7.01h-5.76v-110.43h5.76v7.01c0,6.13,1.09,11.06,3.27,14.8,1.46,2.7,3.95,4.83,7.48,6.39,2.49,1.14,9.03,1.71,19.63,1.71h59.81v-74.61h-59.81c-10.8,0-17.55.57-20.25,1.71-2.7,1.14-5.06,3.48-7.09,7.01-2.03,3.53-3.04,8.25-3.04,14.17v6.85h-5.76v-110.28h5.76v6.85c0,6.23,1.09,11.16,3.27,14.8,1.46,2.7,3.95,4.83,7.48,6.39,2.49,1.14,9.03,1.71,19.63,1.71h138.94c10.8,0,17.55-.57,20.25-1.71,2.7-1.14,5.06-3.48,7.09-7.01,2.03-3.53,3.04-8.26,3.04-14.17v-6.85h5.76v110.28h-5.76v-6.85c0-6.23-1.09-11.16-3.27-14.8-1.45-2.7-3.95-4.83-7.48-6.39-2.49-1.14-9.03-1.71-19.63-1.71h-65.42v74.61Z"/>
        <path class="cls-1" d="M420.1,1022.68h-6.83v-7.54c0-6-1.08-10.89-3.2-14.53-1.4-2.59-3.82-4.61-7.22-6.01-2.43-1.11-8.96-1.67-19.42-1.67h-138.94c-10.67,0-17.42.56-20.04,1.67-2.58,1.09-4.88,3.35-6.83,6.71-1.97,3.38-2.97,8.03-2.97,13.83v7.54h-6.83v-111.5h6.83v7.54c0,6,1.08,10.89,3.2,14.53,1.4,2.59,3.83,4.67,7.23,6.17,2.41,1.11,8.94,1.67,19.41,1.67h59.28v-73.54h-59.28c-10.67,0-17.42.56-20.04,1.67-2.58,1.09-4.88,3.37-6.83,6.78-1.97,3.43-2.97,8.11-2.97,13.91v7.39h-6.83v-111.34h6.83v7.39c0,6.1,1.08,10.99,3.2,14.52,1.4,2.6,3.83,4.67,7.24,6.17,2.41,1.11,8.94,1.67,19.41,1.67h138.94c10.68,0,17.43-.56,20.04-1.67,2.58-1.09,4.88-3.37,6.83-6.78,1.97-3.43,2.97-8.11,2.97-13.91v-7.39h6.83v111.34h-6.83v-7.39c0-6.1-1.08-10.99-3.2-14.52-1.4-2.6-3.83-4.67-7.24-6.17-2.42-1.11-8.95-1.67-19.41-1.67h-64.89v73.54h64.89c10.68,0,17.42-.59,20.03-1.75,2.58-1.14,4.88-3.42,6.84-6.79,1.97-3.38,2.97-8.03,2.97-13.83v-7.54h6.83v111.5ZM414.34,1021.62h4.7v-109.37h-4.7v6.48c0,5.99-1.05,10.82-3.11,14.36-2.07,3.56-4.54,6-7.33,7.23-2.79,1.24-9.49,1.84-20.46,1.84h-65.95v-75.67h65.95c10.77,0,17.26.58,19.85,1.76,3.62,1.6,6.22,3.82,7.72,6.62,2.21,3.68,3.33,8.75,3.33,15.05v6.32h4.7v-109.21h-4.7v6.32c0,5.99-1.05,10.85-3.11,14.44-2.07,3.62-4.54,6.05-7.34,7.23-2.79,1.18-9.48,1.76-20.46,1.76h-138.94c-10.77,0-17.27-.58-19.85-1.76-3.62-1.6-6.22-3.82-7.72-6.62-2.21-3.68-3.33-8.75-3.33-15.05v-6.32h-4.7v109.21h4.7v-6.32c0-5.99,1.05-10.84,3.11-14.44,2.07-3.62,4.54-6.05,7.34-7.23,2.8-1.18,9.49-1.76,20.46-1.76h60.34v75.67h-60.34c-10.77,0-17.27-.58-19.85-1.76-3.62-1.6-6.22-3.82-7.72-6.62-2.21-3.79-3.33-8.86-3.33-15.05v-6.48h-4.7v109.37h4.7v-6.48c0-5.99,1.05-10.82,3.11-14.36,2.07-3.56,4.54-5.97,7.34-7.15,2.8-1.18,9.49-1.76,20.46-1.76h138.94c10.77,0,17.26.58,19.85,1.76,3.61,1.49,6.22,3.67,7.72,6.46,2.21,3.79,3.33,8.86,3.33,15.05v6.48Z"/>
      </g>
      <g>
        <path d="M208.36,779.62v-109.03h5.76v5.45c0,8.2.86,13.84,2.57,16.9,1.71,3.06,4.08,5.25,7.09,6.54,3.01,1.3,10.54,1.95,22.59,1.95h103.43c18.9,0,31.41-1.43,37.54-4.28,6.13-2.86,11.21-7.55,15.26-14.1s6.07-14.8,6.07-24.77c0-11.42-2.57-21.16-7.71-29.21-5.14-8.05-12.23-14.07-21.26-18.07-9.03-4-24.77-6-47.2-6h-86.14c-9.45,0-16.2.99-20.25,2.96-4.05,1.97-6.85,4.47-8.41,7.48-2.39,4.67-3.58,11.27-3.58,19.78h-5.76v-73.05h5.76v4.36c0,5.92,1.19,10.85,3.58,14.8,2.39,3.95,5.97,6.8,10.75,8.57,3.32,1.35,9.29,2.02,17.91,2.02h80.22c24.82,0,42.73,1.64,53.74,4.91,11.01,3.27,21.13,11.24,30.37,23.91,9.24,12.67,13.86,29.96,13.86,51.87,0,18.28-2.44,32.4-7.32,42.37-6.64,13.6-15.16,23.21-25.54,28.82-10.38,5.61-24.35,8.41-41.9,8.41h-103.43c-12.15,0-19.7.68-22.66,2.03-2.96,1.35-5.32,3.69-7.09,7.01-1.76,3.33-2.59,9.45-2.49,18.38h-5.76Z"/>
        <path class="cls-1" d="M214.66,780.16h-6.83v-110.1h6.83v5.98c0,8.07.84,13.67,2.5,16.64,1.65,2.95,3.95,5.07,6.83,6.31,2.93,1.26,10.46,1.9,22.38,1.9h103.43c18.74,0,31.29-1.42,37.31-4.23,6-2.8,11.06-7.47,15.04-13.89,3.98-6.43,6-14.66,6-24.49,0-11.27-2.57-21-7.63-28.92-5.06-7.92-12.14-13.93-21.03-17.87-8.93-3.95-24.73-5.95-46.98-5.95h-86.14c-9.32,0-16.06.98-20.02,2.91-3.93,1.91-6.67,4.35-8.17,7.24-2.34,4.57-3.52,11.15-3.52,19.54v.53h-6.83v-74.12h6.83v4.89c0,5.79,1.18,10.68,3.51,14.52,2.31,3.82,5.84,6.63,10.48,8.34,3.26,1.32,9.22,1.99,17.73,1.99h80.22c24.76,0,42.89,1.66,53.89,4.93,11.07,3.29,21.38,11.4,30.65,24.11,9.27,12.7,13.96,30.26,13.96,52.18,0,18.27-2.48,32.6-7.38,42.6-6.66,13.64-15.33,23.42-25.77,29.05-10.41,5.62-24.59,8.48-42.15,8.48h-103.43c-12.01,0-19.56.67-22.44,1.98-2.83,1.29-5.14,3.57-6.84,6.77-1.71,3.23-2.53,9.33-2.43,18.12v.54ZM208.89,779.09h4.69c-.07-8.81.77-14.73,2.56-18.1,1.82-3.41,4.28-5.85,7.34-7.24,3.06-1.39,10.55-2.07,22.88-2.07h103.43c17.38,0,31.39-2.81,41.65-8.35,10.24-5.53,18.76-15.14,25.32-28.58,4.82-9.85,7.27-24.03,7.27-42.13,0-21.69-4.63-39.04-13.76-51.55-9.13-12.51-19.25-20.49-30.1-23.71-10.9-3.24-28.93-4.88-53.59-4.88h-80.22c-8.77,0-14.69-.68-18.11-2.06-4.85-1.79-8.56-4.75-11-8.78-2.43-4.01-3.66-9.08-3.66-15.07v-3.83h-4.7v71.99h4.7c.05-8.31,1.27-14.86,3.64-19.49,1.61-3.1,4.52-5.7,8.65-7.71,4.11-2,11-3.01,20.48-3.01h86.14c22.4,0,38.35,2.03,47.41,6.04,9.09,4.02,16.32,10.17,21.49,18.27,5.17,8.1,7.79,18.02,7.79,29.49,0,10.02-2.07,18.45-6.15,25.05-4.09,6.6-9.3,11.41-15.49,14.3-6.17,2.88-18.87,4.33-37.76,4.33h-103.43c-12.23,0-19.69-.65-22.8-1.99-3.11-1.34-5.58-3.62-7.34-6.77-1.77-3.17-2.64-8.79-2.64-17.16v-4.92h-4.7v107.97Z"/>
      </g>
      <g>
        <path d="M203.53,362.16h74.45v5.76c-20.35,6.96-35.83,17.39-46.42,31.31-10.59,13.92-15.89,29.13-15.89,45.64s4.44,28.92,13.32,39.41c8.88,10.49,21.26,17.91,37.15,22.27s32.19,6.54,48.91,6.54c20.25,0,38.01-2.39,53.27-7.17,15.26-4.78,26.48-12.49,33.64-23.13,7.17-10.64,10.75-23.29,10.75-37.93,0-5.09-.54-10.3-1.64-15.65-1.09-5.35-2.67-10.83-4.75-16.43h-43.92c-8.31,0-13.68.57-16.12,1.71-2.44,1.14-4.65,3.5-6.62,7.09-1.97,3.58-2.96,7.92-2.96,13.01v5.45h-5.76v-102.65h5.76c.52,7.79,1.58,13.22,3.19,16.28,1.61,3.06,4.28,5.43,8.02,7.09,1.97.93,6.8,1.4,14.49,1.4h43.92c6.02,13.5,10.57,27.54,13.63,42.13,3.06,14.59,4.59,29.73,4.59,45.4,0,20.04-2.73,36.68-8.18,49.92-5.45,13.24-12.62,24.92-21.5,35.05-8.88,10.12-18.87,18.04-29.98,23.75-14.33,7.27-30.37,10.9-48.13,10.9-31.78,0-58.62-11.16-80.53-33.49-21.91-22.32-32.87-50.41-32.87-84.27,0-10.49.83-19.94,2.49-28.35.83-4.57,3.19-11.97,7.09-22.2,3.89-10.23,5.84-16.28,5.84-18.15,0-2.91-1.06-5.61-3.19-8.1-2.13-2.49-6.15-4.77-12.07-6.85v-5.76Z"/>
        <path class="cls-1" d="M316.77,569.86c-31.78,0-59-11.32-80.91-33.65-21.91-22.32-33.02-50.8-33.02-84.64,0-10.46.84-20.04,2.5-28.45.83-4.58,3.23-12.08,7.11-22.28,3.85-10.12,5.81-16.16,5.81-17.96,0-2.76-1.03-5.37-3.07-7.75-2.05-2.41-6.04-4.66-11.84-6.7l-.36-.12v-6.67h75.52v6.67l-.36.12c-20.16,6.89-35.69,17.36-46.17,31.13-10.47,13.76-15.78,29-15.78,45.32s4.44,28.72,13.19,39.06c8.76,10.35,21.17,17.79,36.88,22.1,15.77,4.33,32.18,6.52,48.77,6.52,20.1,0,37.97-2.4,53.11-7.14,15.08-4.72,26.3-12.43,33.36-22.92,7.07-10.5,10.66-23.17,10.66-37.63,0-5.03-.55-10.26-1.62-15.55-1.06-5.2-2.61-10.58-4.6-16.01h-43.55c-8.19,0-13.54.56-15.9,1.66-2.32,1.09-4.47,3.4-6.38,6.86-1.92,3.49-2.89,7.78-2.89,12.75v5.98h-6.83v-103.71h6.79l.03.5c.51,7.68,1.57,13.09,3.13,16.06,1.55,2.94,4.16,5.25,7.77,6.85,1.9.9,6.7,1.36,14.27,1.36h44.27l.14.31c6.01,13.47,10.61,27.69,13.66,42.24,3.06,14.57,4.61,29.88,4.61,45.51,0,20.02-2.76,36.88-8.22,50.12-5.45,13.23-12.71,25.07-21.59,35.19-8.88,10.13-19.02,18.17-30.14,23.88-14.34,7.27-30.61,10.96-48.37,10.96ZM204.06,367.55c5.79,2.07,9.81,4.39,11.94,6.88,2.2,2.58,3.32,5.42,3.32,8.44,0,1.96-1.92,7.95-5.88,18.34-3.86,10.14-6.24,17.58-7.06,22.1-1.65,8.35-2.48,17.86-2.48,28.25,0,33.55,11.01,61.77,32.71,83.89,21.7,22.12,48.67,33.33,80.15,33.33,17.59,0,33.7-3.65,47.89-10.85,10.99-5.65,21.03-13.6,29.82-23.63,8.8-10.03,16-21.77,21.4-34.9,5.4-13.11,8.14-29.84,8.14-49.72,0-15.56-1.54-30.8-4.58-45.29-3.02-14.37-7.54-28.4-13.45-41.71h-43.58c-7.84,0-12.65-.48-14.71-1.45-3.82-1.7-6.6-4.16-8.26-7.32-1.6-3.04-2.68-8.42-3.22-15.99h-4.73v101.58h4.7v-4.92c0-5.15,1.02-9.61,3.03-13.26,2.02-3.66,4.33-6.12,6.86-7.31,2.54-1.19,7.89-1.76,16.35-1.76h44.29l.13.35c2.07,5.6,3.68,11.15,4.77,16.51,1.09,5.36,1.65,10.66,1.65,15.76,0,14.68-3.65,27.54-10.84,38.22-7.2,10.7-18.62,18.55-33.93,23.34-15.24,4.77-33.22,7.19-53.43,7.19-16.69,0-33.19-2.21-49.05-6.56-15.92-4.37-28.51-11.92-37.41-22.44-8.92-10.54-13.44-23.91-13.44-39.75s5.38-32.01,16-45.96c10.54-13.85,26.12-24.4,46.31-31.37v-4.85h-73.39v4.85Z"/>
      </g>
      <g>
        <path d="M318.02,259.66h65.42c10.8,0,17.55-.6,20.25-1.79,2.7-1.19,5.06-3.53,7.09-7.01,2.03-3.48,3.04-8.18,3.04-14.1v-7.01h5.76v110.43h-5.76v-7.01c0-6.13-1.09-11.06-3.27-14.8-1.45-2.7-3.95-4.78-7.48-6.23-2.49-1.14-9.03-1.71-19.63-1.71h-138.94c-10.8,0-17.55.57-20.25,1.71-2.7,1.14-5.06,3.45-7.09,6.93-2.03,3.48-3.04,8.18-3.04,14.1v7.01h-5.76v-110.43h5.76v7.01c0,6.13,1.09,11.06,3.27,14.8,1.46,2.7,3.95,4.83,7.48,6.39,2.49,1.14,9.03,1.71,19.63,1.71h59.81v-74.61h-59.81c-10.8,0-17.55.57-20.25,1.71-2.7,1.14-5.06,3.48-7.09,7.01-2.03,3.53-3.04,8.26-3.04,14.17v6.85h-5.76v-110.28h5.76v6.85c0,6.23,1.09,11.16,3.27,14.8,1.46,2.7,3.95,4.83,7.48,6.39,2.49,1.14,9.03,1.71,19.63,1.71h138.94c10.8,0,17.55-.57,20.25-1.71,2.7-1.14,5.06-3.48,7.09-7.01,2.03-3.53,3.04-8.26,3.04-14.17v-6.85h5.76v110.28h-5.76v-6.85c0-6.23-1.09-11.16-3.27-14.8-1.45-2.7-3.95-4.83-7.48-6.39-2.49-1.14-9.03-1.71-19.63-1.71h-65.42v74.61Z"/>
        <path class="cls-1" d="M420.1,340.72h-6.83v-7.54c0-6-1.08-10.89-3.2-14.53-1.4-2.59-3.82-4.61-7.22-6.01-2.43-1.11-8.96-1.67-19.42-1.67h-138.94c-10.67,0-17.42.56-20.04,1.67-2.58,1.09-4.88,3.35-6.83,6.71-1.97,3.38-2.97,8.03-2.97,13.83v7.54h-6.83v-111.5h6.83v7.54c0,6,1.08,10.89,3.2,14.53,1.4,2.6,3.83,4.67,7.23,6.17,2.41,1.11,8.94,1.67,19.41,1.67h59.28v-73.55h-59.28c-10.67,0-17.42.56-20.04,1.67-2.58,1.09-4.88,3.38-6.83,6.78-1.97,3.43-2.97,8.11-2.97,13.91v7.39h-6.83v-111.34h6.83v7.39c0,6.1,1.08,10.99,3.2,14.52,1.4,2.6,3.83,4.67,7.24,6.17,2.41,1.11,8.94,1.67,19.41,1.67h138.94c10.68,0,17.43-.56,20.04-1.67,2.58-1.09,4.88-3.37,6.83-6.78,1.97-3.43,2.97-8.11,2.97-13.91v-7.39h6.83v111.34h-6.83v-7.39c0-6.1-1.08-10.99-3.2-14.52-1.4-2.6-3.83-4.67-7.24-6.17-2.42-1.11-8.95-1.67-19.41-1.67h-64.89v73.55h64.89c10.68,0,17.42-.59,20.03-1.75,2.58-1.14,4.88-3.42,6.84-6.79,1.97-3.38,2.97-8.03,2.97-13.83v-7.54h6.83v111.5ZM414.34,339.66h4.7v-109.37h-4.7v6.48c0,5.99-1.05,10.82-3.11,14.36-2.07,3.56-4.54,6-7.33,7.23-2.79,1.24-9.48,1.84-20.46,1.84h-65.95v-75.67h65.95c10.77,0,17.26.58,19.85,1.76,3.62,1.6,6.22,3.82,7.72,6.62,2.21,3.68,3.33,8.75,3.33,15.05v6.32h4.7v-109.21h-4.7v6.32c0,5.99-1.05,10.85-3.11,14.44-2.07,3.62-4.54,6.05-7.34,7.23-2.79,1.18-9.48,1.76-20.46,1.76h-138.94c-10.77,0-17.27-.58-19.85-1.76-3.62-1.6-6.22-3.82-7.72-6.62-2.21-3.68-3.33-8.75-3.33-15.05v-6.32h-4.7v109.21h4.7v-6.32c0-5.99,1.05-10.84,3.11-14.44,2.07-3.61,4.54-6.05,7.34-7.23,2.8-1.18,9.49-1.76,20.46-1.76h60.34v75.67h-60.34c-10.77,0-17.26-.58-19.85-1.76-3.62-1.6-6.22-3.82-7.72-6.62-2.21-3.79-3.33-8.86-3.33-15.05v-6.48h-4.7v109.37h4.7v-6.48c0-5.99,1.05-10.82,3.11-14.36,2.07-3.56,4.54-5.97,7.34-7.15,2.8-1.18,9.49-1.76,20.46-1.76h138.94c10.77,0,17.26.58,19.85,1.76,3.61,1.49,6.22,3.67,7.72,6.46,2.21,3.79,3.33,8.86,3.33,15.05v6.48Z"/>
      </g>
      <g>
        <path d="M423.51,941.93h85.98v-4.21c0-13.39-4.21-23.1-12.62-29.13-8.41-6.02-20.82-9.86-37.23-11.53v-5.92h110.59v5.92c-12.04,1.25-21.91,3.87-29.59,7.87-7.68,4-12.85,8.64-15.5,13.94-2.65,5.3-3.97,12.98-3.97,23.05h59.5c11.63,0,18.75-.49,21.34-1.48,2.6-.99,4.73-2.83,6.39-5.53,1.66-2.7,2.49-7.06,2.49-13.08v-12.62c0-19.73-4.57-35.54-13.71-47.43-9.14-11.89-23.05-20.43-41.74-25.62v-5.76l67.13,9.5v182.55h-5.76v-7.01c0-6.13-1.09-11.06-3.27-14.8-1.45-2.7-3.95-4.78-7.48-6.23-2.49-1.14-9.03-1.71-19.63-1.71h-138.94c-9.55,0-15.42.26-17.6.78-3.63,1.04-6.44,2.96-8.41,5.76-2.91,3.95-4.36,9.35-4.36,16.2v7.01h-5.76v-176.79h62.46v5.92c-15.26,3.01-26.22,7.24-32.87,12.69-6.64,5.45-11.53,13.16-14.64,23.13-1.87,5.82-2.8,16.72-2.8,32.71v21.81Z"/>
        <path class="cls-1" d="M623.1,1022.99h-6.83v-7.54c0-6-1.08-10.89-3.2-14.53-1.4-2.59-3.82-4.61-7.22-6.01-2.43-1.11-8.96-1.67-19.42-1.67h-138.94c-9.46,0-15.34.26-17.48.76-3.47.99-6.21,2.86-8.1,5.55-2.83,3.85-4.26,9.19-4.26,15.89v7.54h-6.83v-177.85h63.52v6.89l-.43.08c-15.11,2.98-26.09,7.22-32.63,12.58-6.53,5.36-11.4,13.06-14.47,22.88-1.84,5.74-2.78,16.69-2.78,32.55v21.27h84.92v-3.67c0-13.15-4.17-22.8-12.39-28.69-8.3-5.94-20.74-9.79-36.97-11.43l-.48-.05v-6.93h111.65v6.93l-.48.05c-11.92,1.23-21.81,3.86-29.4,7.81-7.55,3.93-12.69,8.54-15.27,13.71-2.55,5.1-3.87,12.6-3.91,22.28h58.97c11.52,0,18.63-.49,21.15-1.44,2.48-.94,4.53-2.73,6.12-5.31,1.6-2.6,2.41-6.91,2.41-12.8v-12.62c0-19.52-4.57-35.36-13.6-47.1-9.02-11.74-22.97-20.29-41.46-25.43l-.39-.11v-6.78l68.2,9.65v183.55ZM617.34,1021.93h4.7v-181.56l-66.07-9.35v4.75c18.53,5.21,32.53,13.86,41.63,25.7,9.17,11.93,13.82,28,13.82,47.75v12.62c0,6.1-.86,10.59-2.57,13.36-1.71,2.79-3.95,4.72-6.65,5.75-2.68,1.02-9.72,1.51-21.53,1.51h-60.03v-.53c0-10.11,1.35-17.95,4.03-23.29,2.69-5.37,7.98-10.14,15.73-14.17,7.61-3.96,17.47-6.61,29.31-7.87v-4.91h-109.53v4.91c16.19,1.69,28.64,5.58,37,11.57,8.52,6.1,12.84,16.05,12.84,29.56v4.74h-87.04v-22.34c0-15.97.95-27.03,2.83-32.87,3.13-10.02,8.11-17.88,14.81-23.38,6.62-5.43,17.61-9.71,32.67-12.72v-4.95h-61.4v175.72h4.7v-6.48c0-6.93,1.5-12.49,4.46-16.51,2.03-2.88,4.96-4.89,8.69-5.96,2.27-.54,8.07-.8,17.75-.8h138.94c10.77,0,17.26.58,19.85,1.76,3.61,1.49,6.22,3.67,7.72,6.46,2.21,3.79,3.33,8.86,3.33,15.05v6.48Z"/>
      </g>
      <g>
        <path d="M406.53,672.62l70.4-1.71v6.39c-17.65,3.01-31.85,10.41-42.6,22.2-10.75,11.79-16.12,24.53-16.12,38.24,0,10.59,2.83,18.98,8.49,25.16,5.66,6.18,12.18,9.27,19.55,9.27,4.67,0,8.83-1.09,12.46-3.27,4.88-3.01,9.71-7.84,14.49-14.49,3.43-4.88,9.5-16.15,18.22-33.8,12.15-24.71,23.62-41.38,34.42-50,10.8-8.51,23.16-12.77,37.07-12.77,17.65,0,32.84,6.88,45.56,20.64,12.72,13.76,19.08,31.23,19.08,52.41,0,6.65-.68,12.93-2.02,18.85-1.35,5.92-3.89,13.34-7.63,22.27-2.08,4.98-3.12,9.09-3.12,12.3,0,2.7,1.04,5.56,3.12,8.57,2.08,3.01,5.24,5.45,9.5,7.32v5.76h-79.75v-5.76c22.43-4.57,39.54-13.37,51.32-26.4,11.79-13.03,17.68-27.08,17.68-42.13,0-11.63-3.17-20.9-9.5-27.8-6.33-6.9-13.71-10.36-22.12-10.36-4.98,0-9.81,1.32-14.49,3.97-4.67,2.65-9.11,6.67-13.32,12.07-4.21,5.4-9.68,14.95-16.43,28.66-9.45,19.21-17.5,33.02-24.14,41.43-6.64,8.41-14.07,14.88-22.27,19.39-8.2,4.52-17.24,6.78-27.1,6.78-16.82,0-31.15-6.18-42.99-18.54-11.84-12.36-17.76-27.93-17.76-46.73,0-6.85.83-13.5,2.49-19.94,1.25-4.88,3.56-10.83,6.93-17.83,3.38-7.01,5.06-11.92,5.06-14.72s-.83-4.83-2.49-6.39c-1.66-1.56-5.66-3.01-11.99-4.36v-4.67Z"/>
        <path class="cls-1" d="M627.93,806.48h-80.81v-6.73l.43-.09c22.21-4.52,39.38-13.35,51.04-26.24,11.64-12.87,17.54-26.92,17.54-41.78,0-11.44-3.15-20.67-9.36-27.44-6.2-6.76-13.51-10.19-21.73-10.19-4.87,0-9.65,1.31-14.22,3.9-4.59,2.6-9.02,6.62-13.16,11.94-4.16,5.34-9.67,14.95-16.38,28.57-9.42,19.15-17.56,33.12-24.2,41.53-6.66,8.43-14.2,15-22.44,19.53-8.24,4.54-17.45,6.84-27.36,6.84-16.9,0-31.49-6.29-43.37-18.7-11.88-12.4-17.9-28.25-17.9-47.1,0-6.86.84-13.61,2.51-20.07,1.25-4.88,3.59-10.92,6.97-17.93,3.32-6.9,5.01-11.78,5.01-14.49,0-2.54-.78-4.55-2.32-6-1.58-1.48-5.53-2.9-11.74-4.23l-.42-.09v-5.62l71.47-1.74v7.38l-.44.08c-17.45,2.98-31.68,10.39-42.3,22.03-10.6,11.63-15.98,24.38-15.98,37.88,0,10.41,2.81,18.75,8.35,24.8,5.53,6.04,11.97,9.09,19.16,9.09,4.55,0,8.65-1.07,12.19-3.19,4.79-2.96,9.62-7.78,14.33-14.34,3.39-4.83,9.51-16.18,18.18-33.72,12.13-24.67,23.76-41.55,34.57-50.18,10.85-8.55,23.43-12.89,37.4-12.89,17.73,0,33.19,7,45.95,20.81,12.75,13.8,19.22,31.55,19.22,52.77,0,6.65-.69,13.03-2.04,18.96-1.35,5.93-3.93,13.45-7.66,22.36-2.04,4.9-3.07,8.97-3.07,12.1,0,2.58,1.02,5.36,3.02,8.26,2.01,2.92,5.13,5.32,9.28,7.14l.32.14v6.64ZM548.18,805.42h78.69v-4.88c-4.17-1.88-7.33-4.36-9.41-7.37-2.13-3.09-3.21-6.07-3.21-8.87,0-3.27,1.06-7.48,3.16-12.51,3.71-8.86,6.27-16.32,7.6-22.19,1.33-5.86,2.01-12.16,2.01-18.73,0-20.95-6.37-38.46-18.94-52.05-12.56-13.58-27.75-20.47-45.17-20.47-13.72,0-26.09,4.26-36.74,12.66-10.68,8.53-22.22,25.29-34.27,49.82-8.69,17.59-14.84,28.99-18.27,33.87-4.8,6.68-9.72,11.6-14.64,14.63-3.71,2.22-7.99,3.35-12.74,3.35-7.49,0-14.2-3.18-19.94-9.44-5.73-6.25-8.63-14.83-8.63-25.51,0-13.78,5.47-26.76,16.26-38.6,10.69-11.72,24.97-19.22,42.46-22.29v-5.39l-69.34,1.69v3.72c6.25,1.36,10.12,2.8,11.83,4.4,1.77,1.65,2.66,3.93,2.66,6.77s-1.67,7.8-5.12,14.95c-3.35,6.95-5.67,12.92-6.9,17.74-1.64,6.37-2.48,13.04-2.48,19.81,0,18.57,5.92,34.16,17.61,46.36,11.68,12.19,26.01,18.37,42.61,18.37,9.73,0,18.76-2.26,26.85-6.71,8.11-4.46,15.55-10.94,22.11-19.26,6.6-8.35,14.7-22.26,24.08-41.34,6.74-13.68,12.29-23.35,16.49-28.75,4.23-5.43,8.76-9.54,13.47-12.21,4.73-2.68,9.69-4.04,14.75-4.04,8.53,0,16.1,3.54,22.51,10.53,6.4,6.98,9.64,16.45,9.64,28.16,0,15.12-5.99,29.42-17.82,42.49-11.73,12.97-28.95,21.88-51.19,26.48v4.8Z"/>
      </g>
    </g>
  </g>
</svg>