<?xml version="1.0" encoding="UTF-8"?>
<svg id="Layer_2" data-name="Layer 2" xmlns="http://www.w3.org/2000/svg" viewBox="0 0 628.76 1019.72">
  <defs>
    <style>
      .cls-1 {
        fill: #fff;
      }
    </style>
  </defs>
  <g id="Home_Page_Text_copy" data-name="Home Page Text copy">
    <g id="_ヒラギノ角ゴ_StdN" data-name="ヒラギノ角ゴ StdN">
      <g>
        <path d="M151.49,965.15c9.36-1.04,14.04-2.86,19.24-6.76,7.8-6.24,12.22-17.16,12.22-30.42,0-20.02-8.84-31.98-23.4-31.98-8.06,0-15.08,4.16-18.2,10.92-2.6,5.46-4.42,11.96-10.66,39-5.2,23.92-8.32,32.24-15.08,41.86-11.44,16.38-28.86,25.22-49.92,25.22-40.04,0-65.26-32.24-65.26-83.46,0-33.02,10.14-58.24,29.64-72.28,8.58-6.5,16.38-9.62,31.2-13l5.98,55.12c-16.9,3.12-23.92,12.48-23.92,32.24,0,15.86,8.58,27.56,20.54,27.56,7.28,0,12.74-3.9,16.64-12.22q2.34-5.2,8.58-35.88c4.16-19.76,8.58-32.24,14.82-42.12,11.7-18.72,29.12-28.08,53.04-28.08,19.5,0,36.14,6.24,47.84,18.2,14.56,15.08,22.1,37.96,22.1,68.38,0,22.1-4.68,43.94-12.74,57.98-7.28,13-18.46,22.62-33.28,28.08-6.24,2.6-12.22,3.9-24.18,5.72l-5.2-54.08Z"/>
        <path class="cls-1" d="M156.3,1019.72l-5.29-54.96.43-.05c8.89-.99,13.69-2.67,19.03-6.68,7.76-6.21,12.05-16.89,12.05-30.07,0-19.75-8.58-31.55-22.97-31.55-7.95,0-14.77,4.09-17.81,10.67-2.63,5.53-4.52,12.44-10.63,38.92-5.11,23.53-8.23,32.17-15.15,42.01-11.61,16.62-28.99,25.4-50.27,25.4-19.79,0-36.38-7.85-47.99-22.69-11.58-14.81-17.71-35.98-17.71-61.2,0-33.47,10.31-58.58,29.82-72.63,8.46-6.41,16.08-9.59,31.36-13.07l.48-.11,6.08,56-.4.07c-16.74,3.09-23.56,12.31-23.56,31.81,0,15.72,8.46,27.13,20.11,27.13,7.16,0,12.47-3.92,16.25-11.97q2.32-5.15,8.55-35.78c4.14-19.67,8.59-32.31,14.88-42.26,11.89-19.03,29.36-28.28,53.41-28.28,19.77,0,36.42,6.34,48.15,18.33,14.75,15.27,22.22,38.38,22.22,68.68,0,22.48-4.78,44.24-12.8,58.19-7.46,13.31-18.73,22.83-33.51,28.27-5.93,2.47-11.6,3.82-24.26,5.74l-.45.07ZM151.96,965.53l5.12,53.2c12.26-1.88,17.82-3.2,23.62-5.62,14.59-5.38,25.71-14.76,33.07-27.89,7.94-13.84,12.68-35.43,12.68-57.77,0-30.07-7.39-52.97-21.98-68.08-11.56-11.82-28-18.07-47.53-18.07-23.72,0-40.95,9.12-52.67,27.88-6.23,9.86-10.65,22.42-14.76,41.98q-6.25,30.72-8.61,35.97c-3.94,8.4-9.51,12.48-17.04,12.48-12.15,0-20.97-11.77-20.97-27.99,0-19.87,6.93-29.34,23.88-32.59l-5.88-54.23c-14.82,3.41-22.29,6.55-30.56,12.81-19.28,13.88-29.47,38.75-29.47,71.93,0,25.03,6.06,46.01,17.52,60.67,11.44,14.62,27.79,22.36,47.3,22.36,20.99,0,38.12-8.66,49.56-25.03,6.84-9.73,9.93-18.31,15.01-41.7,6.13-26.55,8.03-33.49,10.69-39.09,3.18-6.89,10.3-11.17,18.59-11.17,14.92,0,23.83,12.12,23.83,32.41,0,13.45-4.4,24.37-12.38,30.76-5.4,4.05-10.24,5.79-19.04,6.8Z"/>
      </g>
      <g>
        <path d="M221.95,673.69c-12.48,2.08-19.24,3.64-28.08,6.24l-22.1,7.02v74.1l22.1,7.02c10.4,3.38,18.46,5.2,28.08,6.5v60.84c-7.8-3.9-14.04-6.24-31.72-12.48l-156.52-56.16c-12.74-4.68-20.54-7.02-28.08-8.32v-67.86c7.54-1.82,14.3-3.64,28.08-8.84l156.52-56.42c13.78-4.94,24.44-9.1,31.72-12.48v60.84ZM50.09,724.39l78,24.18v-48.88l-78,24.7Z"/>
        <path class="cls-1" d="M222.38,836.11l-.63-.31c-7.63-3.81-13.6-6.08-31.67-12.46l-156.52-56.16c-12.98-4.77-20.57-7.02-28.01-8.3l-.36-.06v-68.57l.33-.08c7.31-1.76,14.01-3.53,28.03-8.82l156.52-56.42c14.28-5.12,24.64-9.19,31.68-12.46l.62-.29v61.89l-.36.06c-11.97,1.99-18.78,3.51-28.03,6.23l-21.79,6.92v73.46l21.8,6.92c10.09,3.28,18.21,5.16,28.01,6.48l.38.05v61.92ZM6.07,758.09c7.37,1.3,14.97,3.57,27.79,8.28l156.51,56.16c17.61,6.21,23.76,8.54,31.14,12.19v-59.76c-9.69-1.33-17.77-3.21-27.78-6.47l-22.4-7.12v-74.73l22.4-7.12c9.21-2.71,16-4.22,27.78-6.19v-59.79c-7.05,3.23-17.25,7.23-31.14,12.21l-156.52,56.42c-13.85,5.23-20.58,7.03-27.79,8.77v67.15ZM128.53,749.16l-.56-.17-79.32-24.59,79.88-25.3v50.06ZM51.54,724.39l76.11,23.6v-47.7l-76.11,24.1Z"/>
      </g>
      <g>
        <path d="M111.97,475.06c11.18-7.54,19.5-12.48,30.94-18.72-11.96,1.04-23.92,1.56-38.48,1.56h-59.28c-17.16,0-27.56.52-39.52,2.08v-55.38c11.7,1.56,22.62,2.08,39.52,2.08h138.06c15.86,0,27.82-.78,38.74-2.08v56.94c-9.88,4.68-19.5,10.66-33.02,19.5l-72.54,48.1c-10.4,7.02-18.2,11.44-31.98,18.72,11.7-1.3,26-1.82,38.74-1.82h58.24c17.94,0,29.38-.52,40.56-2.08v55.38c-10.14-1.56-21.58-2.08-40.82-2.08H44.37c-15.08,0-26.78.52-38.74,2.08v-56.42c7.02-2.6,17.42-8.32,32.5-18.46l73.84-49.4Z"/>
        <path class="cls-1" d="M222.38,599.84l-.5-.08c-9.83-1.51-20.88-2.07-40.75-2.07H44.37c-16.17,0-27.38.6-38.68,2.08l-.49.06v-57.21l.28-.11c7.42-2.75,18.33-8.95,32.41-18.41l73.84-49.4c10.04-6.77,17.86-11.54,29.17-17.75-11.69.96-23.03,1.39-36.47,1.39h-59.28c-17.38,0-27.71.54-39.46,2.08l-.49.06v-56.37l.49.07c11.35,1.51,22.05,2.08,39.46,2.08h138.06c14.49,0,26.78-.66,38.69-2.08l.49-.06v57.7l-.25.12c-9.73,4.61-19.09,10.4-32.97,19.47l-72.54,48.1c-10.13,6.84-17.7,11.15-30.03,17.69,10.25-1.03,23.12-1.59,36.55-1.59h58.24c18.68,0,29.66-.56,40.5-2.08l.49-.07v56.38ZM6.07,543.22v55.62c11.18-1.43,22.33-2.02,38.3-2.02h136.76c19.59,0,30.63.55,40.39,2.01v-54.38c-10.73,1.47-21.69,2.01-40.13,2.01h-58.24c-14.4,0-28.14.65-38.69,1.82l-.25-.82c13.5-7.13,21.31-11.52,31.94-18.7l72.54-48.1c13.79-9.02,23.14-14.8,32.83-19.41v-56.18c-11.79,1.38-23.98,2.03-38.31,2.03H45.15c-17.21,0-27.87-.55-39.08-2.02v54.39c11.59-1.49,21.9-2.02,39.08-2.02h59.28c14.19,0,26.05-.48,38.44-1.56l.25.81c-12.28,6.7-20.36,11.59-30.9,18.7h0s-73.84,49.4-73.84,49.4c-13.96,9.39-24.83,15.58-32.31,18.4Z"/>
      </g>
      <g>
        <path d="M43.07,384.58c-17.68,0-26.26.52-38.22,2.34.52-10.4.78-16.9.78-38.48v-54.34c0-31.98,8.84-57.72,25.74-75.14,18.72-18.98,46.02-28.6,80.6-28.6s64.22,10.4,83.98,30.16c17.16,17.42,26,42.12,26,73.06v54.86c0,20.02.26,27.3.78,38.22-11.44-1.56-20.02-2.08-37.96-2.08H43.07ZM176.45,298.26c0-16.9-4.42-28.86-13.78-38.22-10.92-10.66-28.34-16.38-49.92-16.38s-38.22,4.94-48.36,15.08c-9.1,9.1-13.26,21.58-13.26,40.3v34.06h125.32v-34.84Z"/>
        <path class="cls-1" d="M4.39,387.43l.03-.53c.51-10.25.78-16.61.78-38.46v-54.34c0-31.91,8.94-58,25.86-75.44,18.8-19.07,46.03-28.73,80.91-28.73s64.47,10.47,84.29,30.29c17.34,17.6,26.13,42.28,26.13,73.37v54.86c0,19.68.25,27.07.78,38.2l.02.52-.52-.07c-11.67-1.59-20.52-2.08-37.9-2.08H43.07c-17.69,0-26.25.52-38.15,2.33l-.53.08ZM111.97,190.8c-34.64,0-61.66,9.58-80.29,28.47-16.76,17.27-25.61,43.15-25.61,74.83v54.34c0,21.49-.26,28.01-.75,37.97,11.68-1.75,20.28-2.27,37.76-2.27h141.7c17.17,0,26.04.47,37.5,2.01-.51-10.85-.76-18.33-.76-37.72v-54.86c0-30.85-8.71-55.32-25.87-72.75-19.65-19.65-48.58-30.03-83.67-30.03ZM176.88,333.53H50.7v-34.49c0-18.82,4.13-31.35,13.39-40.61,10.23-10.23,26.15-15.21,48.67-15.21s39.16,5.71,50.22,16.5c9.49,9.49,13.91,21.73,13.91,38.53v35.27ZM51.57,332.67h124.45v-34.41c0-16.55-4.34-28.6-13.65-37.91-10.89-10.63-28.05-16.25-49.61-16.25s-38.13,5.03-48.05,14.95c-9.08,9.08-13.13,21.42-13.13,39.99v33.62Z"/>
      </g>
      <g>
        <path d="M183.47,81.17c13.52,0,24.96-.52,38.48-2.08v56.68c-11.96-1.3-23.92-2.08-38.48-2.08h-48.1l-98.28,59.8c-8.06,4.68-16.64,10.4-31.46,20.8v-65.78c9.1-2.86,15.86-5.72,27.3-12.22l52.78-28.86-52.52-28.86c-11.96-6.5-20.02-10.14-27.56-11.96V.83c10.92,7.54,25.74,17.42,31.46,20.8l98.28,59.54h48.1Z"/>
        <path class="cls-1" d="M5.2,215.12v-66.93l.3-.1c8.38-2.63,15.2-5.35,27.21-12.18l52.09-28.48-51.83-28.48c-12.6-6.85-20.3-10.19-27.45-11.92l-.33-.08V0l.68.47c10.9,7.53,25.64,17.36,31.43,20.78l98.18,59.48h47.98c14.51,0,25.64-.6,38.43-2.08l.48-.06v57.65l-.48-.05c-13.22-1.44-25.07-2.08-38.43-2.08h-47.98l-98.17,59.74c-7.79,4.52-16.01,9.96-31.44,20.78l-.68.48ZM6.07,148.82v64.63c15.01-10.52,23.12-15.88,30.81-20.34l98.37-59.86h48.22c13.23,0,24.99.63,38.05,2.03v-55.71c-12.62,1.44-23.68,2.03-38.05,2.03h-48.22L36.87,22C31.19,18.64,16.91,9.13,6.07,1.65v64.61c7.14,1.77,14.85,5.13,27.33,11.92l53.21,29.24-53.47,29.24c-11.93,6.78-18.78,9.54-27.07,12.16Z"/>
      </g>
      <g>
        <path d="M206.35,817.47c10.66,1.56,20.28,2.08,38.48,2.08h139.36c16.9,0,25.74-.52,38.48-2.08v55.9c-10.92-1.56-20.54-2.08-38.48-2.08h-50.44v87.62h50.44c16.9,0,26.78-.52,38.48-2.08v55.9c-10.66-1.56-20.28-2.08-38.48-2.08h-139.36c-17.94,0-27.3.52-38.48,2.08v-55.9c12.22,1.56,22.36,2.08,38.48,2.08h43.16v-87.62h-43.16c-17.94,0-28.34.52-38.48,2.08v-55.9Z"/>
        <path class="cls-1" d="M423.1,1013.23l-.5-.07c-10.6-1.55-20.3-2.08-38.42-2.08h-139.36c-17.82,0-27.16.5-38.42,2.08l-.49.07v-56.89l.49.06c12.01,1.53,22.07,2.08,38.42,2.08h42.73v-86.75h-42.73c-18.41,0-28.46.54-38.41,2.08l-.5.08v-56.91l.5.07c10.6,1.55,20.29,2.08,38.42,2.08h139.36c16.46,0,25.43-.49,38.43-2.08l.49-.06v56.89l-.5-.07c-10.86-1.55-20.55-2.08-38.42-2.08h-50v86.75h50c17.08,0,26.78-.52,38.42-2.08l.49-.07v56.9ZM206.79,957.32v54.91c11.09-1.52,20.44-2.01,38.04-2.01h139.36c17.89,0,27.59.51,38.05,2.01v-54.9c-11.47,1.51-21.16,2.02-38.05,2.02h-50.87v-88.49h50.87c17.64,0,27.34.51,38.05,2.01v-54.91c-12.77,1.55-21.76,2.02-38.05,2.02h-139.36c-17.89,0-27.59-.51-38.04-2.01v54.89c9.84-1.48,19.9-2.01,38.04-2.01h43.59v88.49h-43.59c-16.17,0-26.21-.53-38.04-2.02Z"/>
      </g>
      <g>
        <path d="M206.35,600.89c11.18,1.56,20.54,2.08,39.26,2.08h89.44c59.28,0,92.82,35.62,92.82,98.28,0,32.24-9.1,58.5-25.48,74.1-16.12,15.08-38.74,22.88-67.86,22.88h-88.92c-17.94,0-29.38.52-39.26,2.08v-56.16c9.62,1.56,20.02,2.08,39.26,2.08h89.44c32.76,0,48.36-14.82,48.36-45.24s-15.6-46.02-48.36-46.02h-89.44c-19.5,0-27.56.52-39.26,2.08v-56.16Z"/>
        <path class="cls-1" d="M205.92,800.82v-57.18l.5.08c9.44,1.53,19.7,2.08,39.19,2.08h89.44c32.25,0,47.92-14.66,47.92-44.81s-15.23-45.58-47.92-45.58h-89.44c-18.55,0-26.98.45-39.2,2.08l-.49.07v-57.15l.49.07c11.26,1.57,20.78,2.08,39.2,2.08h89.44c29.61,0,52.81,8.67,68.95,25.78,16.12,17.08,24.3,41.62,24.3,72.93s-9.1,58.68-25.61,74.41c-16.31,15.26-39.25,23-68.16,23h-88.92c-18.75,0-29.73.58-39.19,2.08l-.5.08ZM206.79,744.66v55.14c9.39-1.44,20.36-2.01,38.82-2.01h88.92c28.69,0,51.42-7.66,67.56-22.76,16.34-15.56,25.34-41.77,25.34-73.78s-8.1-55.42-24.06-72.34c-15.97-16.92-38.96-25.51-68.32-25.51h-89.44c-18.19,0-27.73-.49-38.82-2.02v55.17c12-1.58,20.47-2.02,38.82-2.02h89.44c32.83,0,48.79,15.19,48.79,46.45s-15.96,45.67-48.79,45.67h-89.44c-19.2,0-29.47-.53-38.82-2Z"/>
      </g>
      <g>
        <path d="M343.63,452.7c0,13.26.26,17.68,1.3,25.74h-46.02c1.3-9.62,1.56-15.86,1.56-34.06v-20.8c0-13.26-.26-22.88-1.3-34.32,9.88,1.3,18.46,1.82,35.36,1.82h29.12c18.46,0,26.78-.26,38.74-1.82,9.1,14.3,12.48,21.32,16.38,33.02,5.72,16.9,8.84,35.88,8.84,55.12,0,33.02-9.1,58.76-27.82,77.22-19.76,19.76-50.7,30.68-86.32,30.68-68.38,0-111.8-41.34-111.8-106.86,0-32.5,10.14-57.2,30.94-74.36,8.06-7.02,15.86-11.18,28.34-15.34l12.22,53.04c-9.36,2.86-14.3,5.98-18.72,11.7-5.46,6.76-8.06,15.34-8.06,26.26,0,33.28,24.18,51.48,67.86,51.48,24.18,0,42.9-5.46,54.34-15.86,9.1-8.32,14.04-21.06,14.04-37.44,0-13.78-2.86-24.96-9.36-37.7h-29.64v12.48Z"/>
        <path class="cls-1" d="M313.47,585.73c-33.68,0-61.98-10.02-81.84-28.98-19.88-18.98-30.39-46.06-30.39-78.31s10.17-57.43,31.1-74.69c8.03-6.99,15.75-11.17,28.48-15.42l.45-.15,12.42,53.9-.39.12c-9.26,2.83-14.1,5.85-18.5,11.55-5.36,6.64-7.97,15.14-7.97,25.99,0,32.92,23.94,51.05,67.42,51.05,24.03,0,42.72-5.45,54.05-15.75,9.09-8.31,13.9-21.15,13.9-37.12,0-13.41-2.75-24.57-9.19-37.27h-28.94v12.05c0,13.58.29,17.9,1.3,25.68l.06.49h-47.01l.07-.49c1.28-9.47,1.56-15.51,1.56-34v-20.8c0-12.35-.22-22.39-1.3-34.28l-.05-.54.54.07c10.32,1.36,19.23,1.82,35.3,1.82h29.12c18.58,0,26.77-.26,38.68-1.82l.27-.04.15.23c8.88,13.96,12.41,21.07,16.42,33.12,5.8,17.13,8.86,36.24,8.86,55.26,0,33.16-9.4,59.24-27.95,77.53-19.86,19.86-50.63,30.8-86.62,30.8ZM260.64,389.3c-12.34,4.15-19.89,8.27-27.74,15.1-20.72,17.1-30.79,41.31-30.79,74.03s10.42,58.87,30.12,77.68c19.69,18.8,47.78,28.74,81.24,28.74,35.76,0,66.31-10.85,86.01-30.55,18.38-18.12,27.69-44,27.69-76.91,0-18.93-3.05-37.94-8.82-54.98-3.97-11.9-7.46-18.96-16.19-32.69-11.81,1.53-20.04,1.79-38.52,1.79h-29.12c-15.84,0-24.74-.44-34.88-1.75,1.04,11.69,1.25,21.63,1.25,33.82v20.8c0,18.22-.27,24.39-1.5,33.62h45.03c-1.02-8.01-1.24-12.66-1.24-25.31v-12.91h30.34l.12.24c6.59,12.92,9.41,24.26,9.41,37.9,0,16.22-4.9,29.28-14.18,37.76-11.5,10.45-30.39,15.97-54.63,15.97-44.04,0-68.29-18.44-68.29-51.91,0-11.06,2.67-19.74,8.16-26.53,4.46-5.77,9.34-8.87,18.54-11.72l-12.02-52.18Z"/>
      </g>
      <g>
        <path d="M206.35,174.5c10.66,1.56,20.28,2.08,38.48,2.08h139.36c16.9,0,25.74-.52,38.48-2.08v55.9c-10.92-1.56-20.54-2.08-38.48-2.08h-50.44v87.62h50.44c16.9,0,26.78-.52,38.48-2.08v55.9c-10.66-1.56-20.28-2.08-38.48-2.08h-139.36c-17.94,0-27.3.52-38.48,2.08v-55.9c12.22,1.56,22.36,2.08,38.48,2.08h43.16v-87.62h-43.16c-17.94,0-28.34.52-38.48,2.08v-55.9Z"/>
        <path class="cls-1" d="M423.1,370.26l-.5-.07c-10.6-1.55-20.3-2.08-38.42-2.08h-139.36c-17.82,0-27.16.5-38.42,2.08l-.49.07v-56.89l.49.06c12.01,1.53,22.06,2.08,38.42,2.08h42.73v-86.75h-42.73c-18.4,0-28.46.54-38.41,2.07l-.5.08v-56.91l.5.07c10.6,1.55,20.3,2.08,38.42,2.08h139.36c16.45,0,25.43-.49,38.43-2.08l.49-.06v56.89l-.5-.07c-10.86-1.55-20.56-2.08-38.42-2.08h-50v86.75h50c17.08,0,26.78-.52,38.42-2.08l.49-.07v56.9ZM206.79,314.35v54.91c11.09-1.52,20.44-2.02,38.04-2.02h139.36c17.88,0,27.59.51,38.05,2.01v-54.9c-11.47,1.51-21.16,2.02-38.05,2.02h-50.87v-88.49h50.87c17.64,0,27.33.51,38.05,2.01v-54.91c-12.78,1.55-21.76,2.02-38.05,2.02h-139.36c-17.88,0-27.59-.51-38.04-2.01v54.89c9.84-1.48,19.9-2.01,38.04-2.01h43.59v88.49h-43.59c-16.18,0-26.21-.53-38.04-2.02Z"/>
      </g>
      <g>
        <path d="M625.21,849.71c-1.3,11.18-1.82,20.54-1.82,42.9v81.9c0,19.76.26,27.04.78,38.22-10.4-1.56-20.02-2.08-37.96-2.08h-141.96c-16.12,0-25.22.52-37.96,2.08.52-10.66.78-17.94.78-38.22v-82.94c0-17.68-.52-26.52-1.82-38.74h48.62c-1.3,11.96-1.82,21.32-1.82,38.74v67.6h38.22v-56.16c0-17.16-.26-23.4-1.82-39h48.1c-1.3,12.22-1.82,21.06-1.82,39v56.16h43.68v-67.08c0-19.76-.52-31.2-1.82-42.38h48.62Z"/>
        <path class="cls-1" d="M624.62,1013.23l-.52-.08c-10.34-1.55-19.9-2.07-37.89-2.07h-141.96c-15.86,0-25.07.5-37.91,2.08l-.51.06.02-.51c.53-10.86.78-18.17.78-38.2v-82.94c0-18.38-.59-27.12-1.82-38.69l-.05-.48h49.59l-.05.48c-1.38,12.66-1.82,22.06-1.82,38.69v67.17h37.35v-55.72c0-17.48-.29-23.67-1.82-38.96l-.05-.48h49.06l-.05.48c-1.23,11.58-1.82,20.36-1.82,38.95v55.72h42.81v-66.64c0-19.46-.49-30.94-1.82-42.33l-.06-.48h49.59l-.06.48c-1.23,10.58-1.82,19.7-1.82,42.85v81.9c0,19.33.25,26.81.78,38.2l.02.53ZM405.73,853.26c1.2,11.37,1.77,20.15,1.77,38.31v82.94c0,19.73-.24,27.12-.76,37.73,12.61-1.53,21.81-2.02,37.5-2.02h141.96c17.74,0,27.31.51,37.5,2.01-.51-11.11-.76-18.67-.76-37.71v-81.9c0-22.84.57-32.05,1.77-42.46h-47.65c1.29,11.27,1.77,22.72,1.77,41.95v67.51h-44.55v-56.59c0-18.38.57-27.19,1.77-38.57h-47.14c1.49,14.98,1.77,21.24,1.77,38.57v56.59h-39.09v-68.03c0-16.46.43-25.85,1.77-38.31h-47.65Z"/>
      </g>
      <g>
        <path d="M552.93,780.03c9.36-1.04,14.04-2.86,19.24-6.76,7.8-6.24,12.22-17.16,12.22-30.42,0-20.02-8.84-31.98-23.4-31.98-8.06,0-15.08,4.16-18.2,10.92-2.6,5.46-4.42,11.96-10.66,39-5.2,23.92-8.32,32.24-15.08,41.86-11.44,16.38-28.86,25.22-49.92,25.22-40.04,0-65.26-32.24-65.26-83.46,0-33.02,10.14-58.24,29.64-72.28,8.58-6.5,16.38-9.62,31.2-13l5.98,55.12c-16.9,3.12-23.92,12.48-23.92,32.24,0,15.86,8.58,27.56,20.54,27.56,7.28,0,12.74-3.9,16.64-12.22q2.34-5.2,8.58-35.88c4.16-19.76,8.58-32.24,14.82-42.12,11.7-18.72,29.12-28.08,53.04-28.08,19.5,0,36.14,6.24,47.84,18.2,14.56,15.08,22.1,37.96,22.1,68.38,0,22.1-4.68,43.94-12.74,57.98-7.28,13-18.46,22.62-33.28,28.08-6.24,2.6-12.22,3.9-24.18,5.72l-5.2-54.08Z"/>
        <path class="cls-1" d="M557.74,834.61l-5.28-54.96.43-.05c8.89-.99,13.69-2.67,19.03-6.68,7.76-6.21,12.05-16.89,12.05-30.07,0-19.75-8.58-31.55-22.97-31.55-7.95,0-14.77,4.09-17.81,10.67-2.63,5.53-4.52,12.44-10.63,38.92-5.11,23.53-8.23,32.17-15.15,42.01-11.61,16.62-28.99,25.4-50.27,25.4-19.79,0-36.38-7.85-47.99-22.69-11.58-14.81-17.71-35.98-17.71-61.2,0-33.47,10.31-58.58,29.82-72.63,8.46-6.41,16.08-9.59,31.36-13.07l.48-.11,6.08,56-.4.07c-16.74,3.09-23.56,12.31-23.56,31.81,0,15.72,8.46,27.13,20.11,27.13,7.16,0,12.47-3.92,16.25-11.97q2.32-5.15,8.55-35.78c4.14-19.67,8.59-32.31,14.88-42.26,11.89-19.03,29.36-28.28,53.41-28.28,19.77,0,36.42,6.34,48.15,18.33,14.75,15.27,22.22,38.38,22.22,68.68,0,22.48-4.78,44.24-12.8,58.19-7.46,13.31-18.73,22.83-33.51,28.27-5.93,2.47-11.6,3.82-24.26,5.74l-.45.07ZM553.4,780.42l5.12,53.2c12.26-1.88,17.82-3.2,23.62-5.62,14.59-5.38,25.71-14.76,33.07-27.89,7.94-13.84,12.68-35.43,12.68-57.77,0-30.07-7.39-52.97-21.98-68.08-11.56-11.82-28-18.07-47.53-18.07-23.72,0-40.95,9.12-52.67,27.88-6.23,9.86-10.65,22.42-14.76,41.98q-6.25,30.72-8.61,35.97c-3.94,8.4-9.51,12.48-17.04,12.48-12.15,0-20.97-11.77-20.97-27.99,0-19.87,6.93-29.34,23.88-32.59l-5.88-54.23c-14.82,3.41-22.29,6.55-30.56,12.81-19.28,13.88-29.47,38.75-29.47,71.93,0,25.03,6.06,46.01,17.52,60.67,11.44,14.62,27.79,22.36,47.3,22.36,20.99,0,38.12-8.66,49.56-25.03,6.84-9.73,9.93-18.31,15.01-41.7,6.13-26.55,8.03-33.49,10.69-39.09,3.18-6.89,10.3-11.17,18.59-11.17,14.92,0,23.83,12.12,23.83,32.41,0,13.45-4.4,24.37-12.38,30.76-5.4,4.05-10.24,5.79-19.04,6.8Z"/>
      </g>
    </g>
  </g>
</svg>