<?xml version="1.0" encoding="UTF-8"?>
<svg id="Layer_2" data-name="Layer 2" xmlns="http://www.w3.org/2000/svg" viewBox="0 0 1249.7 423.37">
  <defs>
    <style>
      .cls-1 {
        stroke: #fff;
        stroke-width: 1.06px;
      }
    </style>
  </defs>
  <g id="Home_Page_Text_copy_2" data-name="Home Page Text copy 2">
    <g id="Proxima_Nova" data-name="Proxima Nova">
      <path class="cls-1" d="M29.74,145.42c15.32,15.32,38.93,28.08,67.98,28.08,18.83,0,30.32-7.98,30.32-18.19,0-12.13-13.72-16.91-36.38-21.7C56.55,126.59,7.4,117.66,7.4,67.23,7.4,31.49,37.72.53,92.29.53c34.15,0,63.83,10.21,86.49,29.68l-30,39.25c-17.87-14.68-41.17-22.02-60-22.02s-25.21,7.34-25.21,16.6c0,11.17,13.08,15,36.7,19.47,35.11,7.34,83.61,17.55,83.61,65.74,0,42.76-31.59,71.17-88.72,71.17-43.08,0-73.08-13.4-94.46-33.83l29.04-41.17Z"/>
      <path class="cls-1" d="M347.28,216.59l-10.85-32.23h-88.4l-10.85,32.23h-59.68L257.6,3.72h68.93l80.42,212.87h-59.68ZM292.07,51.59l-29.68,86.49h59.68l-30-86.49Z"/>
      <path class="cls-1" d="M561.42,216.59l-90-128.61v128.61h-54.89V3.72h56.49l86.17,122.55V3.72h55.21v212.87h-52.98Z"/>
      <path class="cls-1" d="M633.86,216.59V3.72h89.36c67.02,0,115.21,40.21,115.21,106.27s-48.19,106.59-114.89,106.59h-89.68ZM688.75,168.72h34.47c37.34,0,59.04-27.13,59.04-58.72s-19.79-58.4-58.72-58.4h-34.79v117.12Z"/>
      <path class="cls-1" d="M892.36,216.59v-85.85L811.62,3.72h61.91l46.27,78.51L965.44,3.72h62.23l-80.42,127.02v85.85h-54.89Z"/>
      <path class="cls-1" d="M159.31,419.01v-85.53h-88.4v85.53H16.02v-212.87h54.89v79.47h88.4v-79.47h54.89v212.87h-54.89Z"/>
      <path class="cls-1" d="M233.67,206.14h55.85v124.78c0,25.21,13.4,43.4,43.08,43.4s42.76-18.19,42.76-43.4v-124.78h55.85v126.38c0,52.98-30.32,90.32-98.61,90.32s-98.93-37.66-98.93-90v-126.7Z"/>
      <path class="cls-1" d="M561.43,202.63c46.59,0,75.32,22.98,90.95,49.47l-45.96,24.25c-8.62-14.04-24.89-25.21-45-25.21-34.79,0-59.36,26.81-59.36,61.59s24.57,61.59,59.36,61.59c16.6,0,31.59-5.74,40.21-12.77v-17.87h-48.83v-45.64h102.76v83.29c-22.98,25.21-53.93,41.49-94.15,41.49-63.51,0-115.21-42.45-115.21-110.1s51.7-110.1,115.21-110.1Z"/>
      <path class="cls-1" d="M818.65,419.01v-85.53h-88.4v85.53h-54.89v-212.87h54.89v79.47h88.4v-79.47h54.89v212.87h-54.89Z"/>
      <path class="cls-1" d="M899.39,419.01v-212.87h156.06v46.28h-101.17v35.42h98.93v46.59h-98.93v38.3h101.17v46.28h-156.06Z"/>
      <path class="cls-1" d="M1095.02,347.84c15.32,15.32,38.94,28.08,67.98,28.08,18.83,0,30.32-7.98,30.32-18.19,0-12.13-13.72-16.91-36.38-21.7-35.1-7.02-84.25-15.96-84.25-66.38,0-35.74,30.32-66.7,84.89-66.7,34.15,0,63.83,10.21,86.49,29.68l-30,39.25c-17.87-14.68-41.17-22.02-60-22.02s-25.21,7.34-25.21,16.6c0,11.17,13.08,15,36.7,19.47,35.11,7.34,83.61,17.55,83.61,65.74,0,42.76-31.59,71.17-88.72,71.17-43.08,0-73.08-13.4-94.46-33.83l29.04-41.17Z"/>
    </g>
  </g>
</svg>