<?xml version="1.0" encoding="UTF-8" standalone="no"?>
<svg
   id="Layer_2"
   data-name="Layer 2"
   viewBox="0 0 1028.6401 625.78997"
   version="1.1"
   sodipodi:docname="sandy.svg"
   width="1028.64"
   height="625.78998"
   inkscape:version="1.4.4 (dcaf3e7d9e, 2026-05-05)"
   xmlns:inkscape="http://www.inkscape.org/namespaces/inkscape"
   xmlns:sodipodi="http://sodipodi.sourceforge.net/DTD/sodipodi-0.dtd"
   xmlns="http://www.w3.org/2000/svg"
   xmlns:svg="http://www.w3.org/2000/svg">
  <sodipodi:namedview
     id="namedview22"
     pagecolor="#ffffff"
     bordercolor="#000000"
     borderopacity="0.25"
     inkscape:showpageshadow="2"
     inkscape:pageopacity="0.0"
     inkscape:pagecheckerboard="0"
     inkscape:deskcolor="#d1d1d1"
     inkscape:zoom="1.4076839"
     inkscape:cx="312.57017"
     inkscape:cy="514.32001"
     inkscape:window-width="3072"
     inkscape:window-height="1659"
     inkscape:window-x="0"
     inkscape:window-y="0"
     inkscape:window-maximized="1"
     inkscape:current-layer="Layer_2" />
  <defs
     id="defs1">
    <style
       id="style1">
      .cls-1 {
        fill: #fff;
      }
    </style>
  </defs>
  <g
     id="Home_Page_Text_copy"
     data-name="Home Page Text copy"
     transform="rotate(90,514.325,514.315)">
    <g
       id="Proxima_Nova"
       data-name="Proxima Nova">
      <g
         id="g2">
        <path
           d="m 145.42,998.9 c 15.32,-15.32 28.08,-38.93 28.08,-67.98 0,-18.83 -7.98,-30.32 -18.19,-30.32 -12.13,0 -16.91,13.72 -21.7,36.38 -7.02,35.11 -15.96,84.25 -66.38,84.25 -35.74,0 -66.7,-30.32 -66.7,-84.89 0,-34.15 10.21,-63.83 29.68,-86.49 l 39.25,30 c -14.68,17.87 -22.02,41.17 -22.02,60 0,18.83 7.34,25.21 16.6,25.21 11.17,0 15,-13.08 19.47,-36.7 7.34,-35.11 17.55,-83.61 65.74,-83.61 42.76,0 71.17,31.59 71.17,88.72 0,43.08 -13.4,73.08 -33.83,94.46 l -41.17,-29.04 z"
           id="path1" />
        <path
           class="cls-1"
           d="m 186.66,1028.64 -42.06,-29.67 0.45,-0.45 c 17.75,-17.75 27.93,-42.39 27.93,-67.6 0,-17.54 -7.26,-29.79 -17.66,-29.79 -11.42,0 -16.25,12.64 -21.18,35.96 l -0.36,1.8 c -6.98,34.98 -16.54,82.88 -66.54,82.88 -18.29,0 -35.04,-7.87 -47.16,-22.17 C 6.95,984.11 0.01,962.24 0.01,936.35 c 0,-34.11 10.31,-64.14 29.81,-86.83 l 0.33,-0.38 40.09,30.64 -0.35,0.43 c -13.51,16.44 -21.9,39.3 -21.9,59.66 0,15.92 5.71,24.68 16.06,24.68 11.24,0 14.8,-14.36 18.94,-36.27 7.42,-35.48 17.57,-84.05 66.27,-84.05 21.52,0 39.51,8 52.03,23.13 12.87,15.55 19.67,38.41 19.67,66.12 0,39.32 -11.43,71.23 -33.98,94.83 z m -40.42,-29.81 40.28,28.41 c 22.45,-23.68 33.37,-54.36 33.37,-93.76 0,-27.46 -6.72,-50.09 -19.43,-65.44 -12.31,-14.88 -30.02,-22.75 -51.21,-22.75 -47.83,0 -57.88,48.08 -65.22,83.19 -4.24,22.42 -7.93,37.12 -19.99,37.12 -6.4,0 -17.13,-3.34 -17.13,-25.74 0,-20.41 8.34,-43.31 21.79,-59.91 L 30.28,850.59 c -19.12,22.46 -29.23,52.1 -29.23,85.76 0,25.63 6.85,47.27 19.82,62.57 11.91,14.05 28.37,21.79 46.35,21.79 49.13,0 58.59,-47.41 65.5,-82.02 l 0.36,-1.8 c 5.04,-23.87 10.08,-36.81 22.22,-36.81 11.02,0 18.72,12.69 18.72,30.85 0,25.28 -10.12,49.99 -27.79,67.9 z"
           id="path2" />
      </g>
      <g
         id="g4">
        <path
           d="m 216.59,681.36 -32.23,10.85 v 88.4 l 32.23,10.85 v 59.68 L 3.72,771.04 v -68.93 l 212.86,-80.42 v 59.68 z m -165,55.21 86.49,29.68 v -59.68 z"
           id="path3" />
        <path
           class="cls-1"
           d="M 217.12,851.91 3.19,771.41 v -69.67 l 0.34,-0.13 213.58,-80.69 v 60.83 l -32.23,10.85 v 87.64 l 32.23,10.85 v 60.83 z M 4.25,770.67 l 211.8,79.7 v -58.53 l -32.23,-10.85 v -89.17 l 32.23,-10.85 V 622.44 L 4.25,702.47 Z M 138.61,767 49.96,736.58 138.61,705.83 Z m -85.39,-30.43 84.32,28.94 v -58.19 z"
           id="path4" />
      </g>
      <g
         id="g6">
        <path
           d="m 216.59,467.22 -128.61,90 h 128.61 v 54.89 H 3.72 V 555.62 L 126.27,469.45 H 3.72 v -55.21 h 212.86 v 52.98 z"
           id="path5" />
        <path
           class="cls-1"
           d="M 217.12,612.64 H 3.19 v -57.3 l 0.23,-0.16 121.17,-85.2 H 3.19 v -56.27 h 213.93 v 53.79 l -0.23,0.16 -127.23,89.03 h 127.46 v 55.96 z M 4.25,611.58 h 211.8 V 557.75 H 86.29 L 216.06,466.94 V 414.77 H 4.25 v 54.15 h 123.7 L 4.25,555.9 Z"
           id="path6" />
      </g>
      <g
         id="g8">
        <path
           d="M 216.59,394.78 H 3.72 v -89.36 c 0,-67.02 40.21,-115.21 106.27,-115.21 66.06,0 106.59,48.19 106.59,114.89 v 89.68 z m -47.87,-54.89 v -34.47 c 0,-37.34 -27.13,-59.04 -58.72,-59.04 -31.59,0 -58.4,19.79 -58.4,58.72 v 34.79 z"
           id="path7" />
        <path
           class="cls-1"
           d="M 217.12,395.31 H 3.19 v -89.89 c 0,-33.56 9.85,-62.29 28.5,-83.09 19.15,-21.36 46.23,-32.65 78.31,-32.65 32.08,0 59.22,11.28 78.46,32.61 18.75,20.78 28.66,49.42 28.66,82.81 z M 4.25,394.25 h 211.8 V 305.1 c 0,-33.13 -9.82,-61.52 -28.39,-82.1 -19.04,-21.1 -45.9,-32.26 -77.67,-32.26 -31.77,0 -58.57,11.17 -77.51,32.3 -18.47,20.6 -28.23,49.09 -28.23,82.38 z m 165,-53.83 H 51.06 V 305.1 c 0,-18.58 5.89,-33.92 17.04,-44.35 10.42,-9.75 24.91,-14.9 41.89,-14.9 16.07,0 30.83,5.56 41.57,15.66 11.57,10.88 17.68,26.06 17.68,43.91 v 35 z M 52.13,339.36 h 116.06 v -33.94 c 0,-17.55 -6,-32.46 -17.35,-43.13 -10.54,-9.91 -25.05,-15.37 -40.84,-15.37 -16.71,0 -30.94,5.05 -41.16,14.62 -10.93,10.22 -16.71,25.29 -16.71,43.57 z"
           id="path8" />
      </g>
      <g
         id="g10">
        <path
           d="M 216.59,136.28 H 130.74 L 3.72,217.02 V 155.11 L 82.23,108.84 3.72,63.2 V 0.97 l 127.02,80.42 h 85.85 z"
           id="path9" />
        <path
           class="cls-1"
           d="M 3.19,217.99 V 154.8 L 81.18,108.83 3.19,63.5 V 0 l 127.7,80.86 h 86.23 v 55.96 h -86.23 z m 1.06,-62.58 v 60.64 l 126.33,-80.31 h 85.47 V 81.91 H 130.58 L 4.25,1.93 v 60.96 l 79.03,45.94 z"
           id="path10" />
      </g>
      <g
         id="g12">
        <path
           d="m 419.01,869.33 h -85.53 v 88.4 h 85.53 v 54.89 H 206.15 v -54.89 h 79.47 v -88.4 h -79.47 v -54.89 h 212.86 z"
           id="path11" />
        <path
           class="cls-1"
           d="M 419.54,1013.16 H 205.61 V 957.2 h 79.47 V 869.86 H 205.61 V 813.9 h 213.93 v 55.96 h -85.53 v 87.34 h 85.53 z m -212.87,-1.07 h 211.8 v -53.83 h -85.53 v -89.47 h 85.53 v -53.83 h -211.8 v 53.83 h 79.47 v 89.47 h -79.47 z"
           id="path12" />
      </g>
      <g
         id="g14">
        <path
           d="m 206.14,794.97 v -55.85 h 124.78 c 25.21,0 43.4,-13.4 43.4,-43.08 0,-29.68 -18.19,-42.76 -43.4,-42.76 H 206.14 v -55.85 h 126.38 c 52.98,0 90.32,30.32 90.32,98.61 0,68.29 -37.66,98.93 -90,98.93 z"
           id="path13" />
        <path
           class="cls-1"
           d="M 332.84,795.5 H 205.61 v -56.91 h 125.31 c 27.25,0 42.87,-15.51 42.87,-42.55 0,-27.04 -15.63,-42.23 -42.87,-42.23 H 205.61 V 596.9 h 126.91 c 27.34,0 49.95,8.25 65.4,23.85 16.88,17.05 25.45,42.38 25.45,75.29 0,63.21 -33,99.46 -90.53,99.46 z m -126.17,-1.06 h 126.17 c 26.76,0 48.97,-8.19 64.25,-23.7 16.73,-16.98 25.22,-42.12 25.22,-74.7 0,-32.58 -8.46,-57.7 -25.14,-74.54 -15.46,-15.62 -37.21,-23.54 -64.65,-23.54 H 206.67 v 54.78 h 124.25 c 27.92,0 43.93,15.78 43.93,43.3 0,27.52 -16.01,43.62 -43.93,43.62 H 206.67 Z"
           id="path14" />
      </g>
      <g
         id="g16">
        <path
           d="m 202.63,467.22 c 0,-46.59 22.98,-75.32 49.47,-90.95 l 24.25,45.96 c -14.04,8.62 -25.21,24.89 -25.21,45 0,34.79 26.81,59.36 61.59,59.36 34.78,0 61.59,-24.57 61.59,-59.36 0,-16.6 -5.74,-31.59 -12.77,-40.21 h -17.87 v 48.83 H 298.04 V 373.09 h 83.29 c 25.21,22.98 41.49,53.93 41.49,94.15 0,63.51 -42.45,115.21 -110.1,115.21 -67.65,0 -110.1,-51.7 -110.1,-115.21 z"
           id="path15" />
        <path
           class="cls-1"
           d="m 312.73,582.96 c -32.56,0 -60.51,-11.74 -80.82,-33.96 -19.23,-21.04 -29.82,-50.08 -29.82,-81.78 0,-21.75 5.01,-41.05 14.88,-57.36 8.42,-13.92 20.15,-25.37 34.85,-34.05 l 0.48,-0.28 24.75,46.89 -0.42,0.26 c -15.4,9.45 -24.96,26.52 -24.96,44.55 0,16.54 6.25,31.57 17.59,42.34 11.2,10.63 26.64,16.49 43.48,16.49 16.84,0 32.28,-5.86 43.48,-16.49 11.34,-10.77 17.59,-25.8 17.59,-42.34 0,-17.8 -6.42,-32.12 -12.49,-39.68 h -17.09 v 48.83 h -46.7 V 372.55 h 84.03 l 0.15,0.14 c 27.64,25.19 41.66,57 41.66,94.54 0,31.7 -10.59,60.74 -29.82,81.78 -20.31,22.22 -48.25,33.96 -80.82,33.96 z M 251.89,377 c -22.35,13.35 -48.73,39.79 -48.73,90.21 0,31.43 10.49,60.22 29.54,81.06 20.1,21.99 47.77,33.62 80.03,33.62 32.26,0 59.93,-11.62 80.03,-33.62 19.05,-20.84 29.54,-49.63 29.54,-81.06 0,-37.16 -13.85,-68.65 -41.16,-93.61 h -82.56 v 101.7 h 44.57 v -48.83 h 18.66 l 0.16,0.2 c 6.23,7.64 12.89,22.31 12.89,40.55 0,16.83 -6.36,32.14 -17.92,43.11 -11.4,10.82 -27.1,16.78 -44.21,16.78 -17.11,0 -32.81,-5.96 -44.21,-16.78 -11.55,-10.97 -17.92,-26.28 -17.92,-43.11 0,-18.23 9.58,-35.5 25.04,-45.19 l -23.76,-45.02 z"
           id="path16" />
      </g>
      <g
         id="g18">
        <path
           d="m 419.01,209.99 h -85.53 v 88.4 h 85.53 v 54.89 H 206.15 v -54.89 h 79.47 v -88.4 H 206.15 V 155.1 h 212.86 z"
           id="path17" />
        <path
           class="cls-1"
           d="M 419.54,353.82 H 205.61 v -55.96 h 79.47 v -87.34 h -79.47 v -55.96 h 213.93 v 55.96 h -85.53 v 87.34 h 85.53 z m -212.87,-1.07 h 211.8 v -53.83 h -85.53 v -89.46 h 85.53 v -53.83 h -211.8 v 53.83 h 79.47 v 89.46 h -79.47 z"
           id="path18" />
      </g>
      <g
         id="g20">
        <path
           d="M 621.43,1012.62 H 408.57 V 856.56 h 46.27 v 101.17 h 35.42 V 858.8 h 46.59 v 98.93 h 38.3 V 856.56 h 46.27 v 156.06 z"
           id="path19" />
        <path
           class="cls-1"
           d="M 621.96,1013.16 H 408.03 V 856.04 h 47.34 v 101.17 h 34.36 v -98.93 h 47.66 v 98.93 h 37.23 V 856.04 h 47.34 z m -212.87,-1.07 h 211.8 V 857.1 h -45.21 v 101.17 h -39.36 v -98.93 h -45.53 v 98.93 H 454.3 V 857.1 h -45.21 z"
           id="path20" />
      </g>
      <g
         id="g22">
        <path
           d="m 550.26,817 c 15.32,-15.32 28.08,-38.93 28.08,-67.98 0,-18.83 -7.98,-30.32 -18.19,-30.32 -12.13,0 -16.91,13.72 -21.7,36.38 -7.02,35.11 -15.96,84.25 -66.38,84.25 -35.74,0 -66.7,-30.32 -66.7,-84.89 0,-34.15 10.21,-63.83 29.68,-86.49 l 39.25,30 c -14.68,17.87 -22.02,41.17 -22.02,60 0,18.83 7.34,25.21 16.6,25.21 11.17,0 15,-13.08 19.47,-36.7 7.34,-35.11 17.55,-83.61 65.74,-83.61 42.76,0 71.17,31.59 71.17,88.72 0,43.08 -13.4,73.08 -33.83,94.46 l -41.17,-29.04 z"
           id="path21" />
        <path
           class="cls-1"
           d="m 591.5,846.74 -42.06,-29.67 0.45,-0.45 c 17.75,-17.75 27.93,-42.39 27.93,-67.6 0,-17.54 -7.26,-29.79 -17.66,-29.79 -11.42,0 -16.25,12.64 -21.18,35.96 l -0.36,1.8 c -6.98,34.98 -16.54,82.88 -66.54,82.88 -18.29,0 -35.04,-7.87 -47.16,-22.17 -13.13,-15.49 -20.07,-37.36 -20.07,-63.25 0,-34.11 10.31,-64.14 29.81,-86.83 l 0.33,-0.38 40.09,30.64 -0.35,0.43 c -13.51,16.44 -21.9,39.3 -21.9,59.66 0,15.92 5.71,24.68 16.06,24.68 11.24,0 14.8,-14.36 18.94,-36.27 7.42,-35.48 17.57,-84.05 66.27,-84.05 21.52,0 39.51,8 52.03,23.13 12.87,15.55 19.67,38.41 19.67,66.12 0,39.32 -11.43,71.23 -33.98,94.83 z m -40.42,-29.82 40.28,28.41 c 22.45,-23.68 33.37,-54.36 33.37,-93.76 0,-27.46 -6.72,-50.09 -19.43,-65.44 -12.31,-14.88 -30.02,-22.75 -51.21,-22.75 -47.83,0 -57.88,48.08 -65.22,83.19 -4.24,22.42 -7.93,37.12 -19.99,37.12 -6.4,0 -17.13,-3.34 -17.13,-25.74 0,-20.41 8.34,-43.31 21.79,-59.91 l -38.42,-29.36 c -19.12,22.46 -29.23,52.1 -29.23,85.76 0,25.63 6.85,47.27 19.82,62.57 11.91,14.05 28.37,21.79 46.35,21.79 49.13,0 58.59,-47.41 65.5,-82.02 l 0.36,-1.8 c 5.04,-23.87 10.08,-36.81 22.22,-36.81 11.02,0 18.72,12.69 18.72,30.85 0,25.28 -10.12,49.99 -27.79,67.9 z"
           id="path22" />
      </g>
    </g>
  </g>
</svg>
