<?xml version="1.0" encoding="UTF-8"?>
<svg id="Layer_2" data-name="Layer 2" xmlns="http://www.w3.org/2000/svg" viewBox="0 0 1210.79 416.03">
  <defs>
    <style>
      .cls-1 {
        stroke: #fff;
        stroke-width: .7px;
      }
    </style>
  </defs>
  <g id="Home_Page_Text_copy_2" data-name="Home Page Text copy 2">
    <g id="_4_Fromages" data-name="4 Fromages">
      <path class="cls-1" d="M4.03,117.16h1.46c-2.3,24.07-3.98,49.61,15.28,49.61,14.65,0,36.63-25.12,36.63-37.89,0-7.12-6.7-11.72-21.77-18C4.87,98.11.48,76.13.48,55.82.48,39.5,4.03,25.68,6.55,14.58l50.66,48.78c-1.05,11.51-7.75,19.05-18,24.28l-.63-.42c14.86-19.89-5.65-48.78-20.93-48.78-7.95,0-12.77,7.54-12.77,17.38,0,23.24,19.05,36.42,38.52,43.75,17.79,6.91,31.61,9.21,31.61,19.47,0,12.77-56.94,64.27-68.45,75.36-7.75-23.03-5.86-49.82-2.51-77.25ZM34.6,173.47l.63.42c-18.42,23.03-9.42,27.21,15.07,27.21,11.51,0,19.26-3.35,27.84-6.07,3.77-1.47,2.72-2.09,3.35-14.86.21-5.23.42-6.91-3.14-9.42l-1.05-.84c-4.19-2.09-3.77-1.26-4.19,2.72-.42,4.4,2.3,9.21,0,9.21-1.88,0-1.05-4.81-.84-7.54.21-3.35.84-5.65-2.3-11.51l-.84-1.46c-2.72-5.44-2.51-11.72,1.26-19.05,4.81-9.21,16.33-28.26,30.98-28.26,20.51,0,20.93,23.65,11.72,47.52l-.84-.42c7.12-17.79,3.56-33.7-8.58-37.26-6.7-1.67-7.75-.84-6.7,8.58.42,3.98.84,9-1.46,9-1.88,0-1.26-5.23-.42-9.42,1.26-6.7.42-9.21-4.19-7.75-12.56,4.19-23.24,18.42-11.3,38.1,15.07,24.91,37.68,5.65,65.52,5.65,45.01,0,53.59,54.64,3.14,37.89-14.23-4.81-24.07-11.72-37.89-11.72-18.63,0-33.7,15.49-54.43,15.49-27.63,0-45.22-10.26-21.35-36.21ZM83.37,55.4c-21.56-10.47-57.99-28.89-57.78-38.31C25.81,4.33,74.16.35,101.17.35c25.54,0,37.05,3.98,53.8,6.07,8.16,1.05,25.96,3.56,37.05,0-12.56,11.93-29.73,29.52-36.63,35.17-3.56,2.93-6.28,3.98-9.84,3.98-4.4,0-7.54-3.14-7.54-7.12,0-4.4,2.72-7.54,7.54-7.54,4.19,0,7.12,4.19,10.88.63-8.37-17.38-35.59-23.66-55.89-23.66-18,0-39.56,1.47-39.77,15.28-.21,22.82,75.78,30.77,65.52,55.05-4.4,10.47-26.17,17.17-37.68,11.3-13.19-6.7-9.63-26.38-5.23-34.12ZM171.71,181.84c-3.77-5.86-4.4-3.98-3.98,1.46l.63,5.65c.21,1.67.21,2.93-.84,2.93-1.47,0-.21-6.28-.21-9.21-.21-3.77-1.26-7.33-4.61-7.75h-1.26c7.12-3.35,8.79,4.61,10.47,7.33l-.21-.42c-2.09-3.77-5.02-6.7-9-6.91h-.42c-5.86,0-15.7,4.4-31.19,5.02-17.17.63-32.03-1.05-42.91-4.82-5.02-1.46-6.28,0-6.28,5.23,0,5.86-1.67,12.77,4.6,12.35,4.19-.84,8.79-1.47,14.24-1.47,30.77,0,54.01,12.77,64.06,12.77s11.09-13.61,6.91-22.19ZM104.1,72.36c1.26-4.4-1.88-7.75-6.28-9.84-1.26-.63-4.19-2.09-8.37-3.98-3.77,6.49-.42,15.49,5.02,17.79,6.28,2.72,8.79-1.26,9.63-3.98ZM143.03,123.65c0-6.07,2.09-11.51,7.12-15.28l12.14,3.35c-9.42,4.81-12.56,11.72-12.56,19.89,0,23.24,22.61,44.17,37.68,44.17,11.93,0,16.12-10.89,16.12-22.61,0-21.77-26.58-54.85-35.38-79.55-14.03,7.75-33.49,18-60.08,32.87l-.63-1.47c26.79-13.61,46.05-24.7,59.87-33.7-1.26-4.19-1.88-7.95-1.88-11.3,0-14.03,19.05-41.45,30.14-41.45,6.7,0,8.37,10.26,8.37,17.37,0,14.65-5.44,20.72-32.03,35.59,8.79,22.19,33.7,46.47,33.7,73.69,0,16.33-3.56,37.68-16.75,37.68s-45.84-35.17-45.84-59.24ZM202.48,32.59c0-3.98-2.51-7.12-6.91-7.12-12.35,0-27.21,16.54-26.79,32.87,0,3.56.84,7.12,2.09,10.68,27-18.21,31.61-28.26,31.61-36.42ZM171.92,182.26l.21.42c0-.21-.21-.21-.21-.42Z"/>
      <path class="cls-1" d="M248.33,82.62c-8.16-25.96-22.61-47.94-37.05-47.94-18,0-11.09,47.94,13.19,37.05l.42.42-25.54,25.54V4.75l.63-.42c24.28,24.28,52.12,55.06,74.52,115.76l16.96-22.82,5.65,5.65-47.31,51.71-1.47-1.46c6.49-9.84,7.96-25.54,6.07-42.5-18.84,25.96-34.12,83.32-46.05,83.32-15.28,0-16.12-84.15,39.98-111.37ZM253.98,107.53c-1.05-7.12-2.51-14.23-4.61-21.14-24.7,11.72-41.03,41.24-41.03,64.68,0,5.44,2.93,11.09,7.33,11.09,14.24,0,23.03-34.75,38.31-54.64ZM225.51,193.57c0-19.26,28.89-32.03,100.69-39.98v.42c-21.56,3.35-38.1,6.7-50.45,10.26-4.19,1.88-2.93,7.75-2.09,11.51.21,1.26.21,3.77-.84,3.77-1.26,0-1.46-1.88-1.05-3.98.21-1.46.84-2.93.42-6.07-.63-4.4-1.26-3.77-7.12-2.09-18.84,6.7-24.7,14.24-24.7,23.66s8.37,12.77,19.89,12.77c17.38,0,33.7-5.02,47.94-13.19,14.86-8.79,25.33-20.72,25.33-33.91,0-18.84-11.51-31.4-25.33-31.61-5.23,0-6.07,1.67-4.61,12.98.63,4.81,1.26,10.89-1.67,10.89-2.3,0-1.67-6.28-.63-11.51,1.88-8.79,1.26-12.35-4.81-10.05-8.58,3.77-17.38,12.14-26.59,27.84l1.26-14.65c12.35-16.12,22.4-22.61,32.45-22.61,16.75,0,29.73,17.17,35.59,34.33,9,26.59,16.96,50.45,47.94,50.45,3.35,0,6.49-.42,10.68-2.09-7.33,5.65-15.91,8.37-23.66,8.37-25.54,0-36.42-23.24-36.63-52.33h-.42c-.42,8.37-3.56,15.28-7.96,20.72-4.19,7.12-1.26,19.05-1.26,21.35,0,1.26-2.3,1.05-2.09-2.3.21-3.77,1.26-14.86-2.3-12.77-3.77,3.35-8.16,6.28-12.56,9-16.96,10.88-39.56,16.96-59.24,16.96-15.07,0-26.17-4.82-26.17-16.12ZM290.83,88.48l10.89-10.68c-15.7-5.23-27.21-10.05-34.96-14.86-7.75-4.61-11.72-9.21-11.72-14.03,0-6.91,8.37-14.65,24.91-22.82,10.88-5.44,20.72-8.16,29.52-8.16,9.42,0,15.91,2.72,25.96,7.75,6.07,2.93,10.68,4.81,13.4,5.65l20.72-20.52h-114.51V2.65h136.7c1.47,0,2.51,0,3.35.21.84.21,1.26.42,1.26.84s-.42,1.26-1.46,2.3c-1.05,1.26-1.88,2.09-2.3,2.72-2.09,2.09-3.77,3.98-5.02,5.44l-84.78,86.04-11.93-11.72ZM317.83,61.89l-7.33-9.42c9.42,0,16.33-4.4,16.33-9.42,0-2.3-1.46-4.4-4.61-6.07-3.14-1.67-7.54-2.51-13.4-2.51-23.66,0-35.17.63-35.17,11.93,0,3.14,1.88,6.07,5.86,8.79,3.77,2.72,9.63,6.49,17.58,10.88l10.47,5.86,10.26-10.05ZM373.09,123.44c-6.07,16.75-13.4,23.86-21.35,23.86-12.77,0-40.61-44.59-24.7-59.87,5.02-4.81,16.54-7.54,63.85-19.26,4.19-10.47,5.86-14.86,7.75-19.89,2.3-6.28-4.81-10.26-9.84-10.26-18.84,0-35.38,18.63-18.42,25.75l-6.91,6.49c-15.7-.63-7.96-18.42,8.58-28.47,20.72-12.56,36.42-4.82,32.66,4.81l-16.12,42.29c-17.58,47.73-16.54,94.41,2.93,94.41,9.63,0,13.19-9.84,13.19-19.26,0-8.37-3.14-14.86-7.96-20.3l2.09-9.21c4.4,6.07,7.12,14.65,7.12,27.21,0,13.4-4.4,26.59-13.19,26.59-10.68,0-25.12-27.42-19.68-64.89ZM382.1,90.36l8.37-20.93c-38.31,9.21-58.61,18.84-62.59,28.68-7.33,18,9.21,41.45,23.86,41.45,22.19,0,20.93-25.75,30.35-49.19Z"/>
      <path class="cls-1" d="M410.15,83.25c0-25.75-3.14-34.33-7.12-21.14l-2.3-1.26c6.07-14.23,9.63-29.31,10.47-45.63h1.05l5.02,62.38c.63-25.54,2.09-41.45,11.72-41.45,18.63,0,26.17,69.29,69.71,67.41l-23.24,22.61c-28.89-10.26-23.03-77.66-43.75-77.66-15.7,0-14.03,44.17-6.28,130.62l-23.45,25.12c6.07-40.4,8.16-95.25,8.16-121ZM412.24,5.16h33.49c0,14.86,3.35,26.38,9.84,34.75,2.51-2.93,1.88-5.23,2.3-10.05.84-20.93,16.96-22.82,43.96-22.82,35.17,0,69.5,5.02,66.15,27.84-3.14,16.12-20.93,22.4-38.73,24.49-9.21,1.05-19.68,1.46-31.61,1.46,10.89,3.35,19.68,7.12,27.21,13.4l-21.77,21.56L412.24,5.16ZM500.79,129.51l-.63-.42c-4.4-2.09-6.07,2.51-4.4,10.26,1.05,5.23,1.67,11.51-.63,11.51-2.93,0-2.3-6.07-1.67-10.89,1.47-12.35,0-11.93-5.23-7.96-5.02,4.4-9.84,12.35-13.19,22.19-5.23,15.28-10.88,15.07-43.12,24.49l.84-1.26c26.17-7.12,31.82-10.05,35.38-25.12,3.77-16.12,18.21-34.33,30.35-26.58,5.86,3.77,9.84,9.21,11.93,15.28,2.93-7.12,9.84-10.68,20.1-4.61,19.89,11.51,25.54,61.75,73.27,72.22v1.05c-70.76-5.44-48.15-53.59-74.52-71.59-9.42-6.28-16.75-2.72-18,5.23,7.33,27.42-19.05,68.24-63.22,66.36v-.84c39.77-4.19,77.87-63.22,52.75-79.34ZM555.85,37.19c0-13.61-28.26-19.26-54.01-19.26-18.84,0-40.19,1.46-40.19,13.4,0,5.02,3.35,11.51,3.35,14.86,0,.63,0,1.26-.21,1.67,8.16,5.23,16.96,8.16,27,11.09,0,0,5.02,1.67,5.44,1.67,24.91-2.93,58.61-10.47,58.61-23.45ZM549.77,134.32c0-19.05,16.33-26.38,30.77-30.98,12.56-3.98,22.82-9.21,22.82-22.19,0-10.68-7.96-16.12-19.05-16.12-9.63,0-21.35,5.44-66.36,40.4-1.88,1.46-4.19,2.72-6.28,2.72-1.88,0-3.98-1.26-3.98-3.35,0-2.93,2.51-4.4,6.7-4.4,1.47,0,3.14.21,5.02.63,7.75-4.4,37.47-32.66,52.12-45.43,5.86-5.23,12.98-12.35,12.98-19.26,0-3.35-1.26-6.49-3.35-7.75l10.26-4.81c1.67,1.26,2.93,4.4,2.93,7.75,0,7.96-9,14.44-17.79,21.98-.63.42-24.28,21.35-41.45,36.42l.42.42c29.52-21.56,44.59-32.66,53.8-32.66,10.68,0,17.79,6.49,17.79,16.96,0,38.1-54.64,30.98-54.64,65.1,0,14.23,22.82,37.05,38.31,37.05,21.56,0,14.03-34.96-6.91-43.33l6.07-7.33c8.37,1.67,17.58,14.44,17.58,29.52,0,11.72-4.61,22.4-17.38,22.4-15.91,0-40.4-23.24-40.4-43.75ZM552.5,199.01c.42-2.09,1.05-6.07.84-9.63-.42-4.81-1.67-5.65-3.98-12.14,4.81.21,7.54,9.63,9,14.86-4.81-5.44-5.23-6.28-3.98,6.7.21,2.09.21,3.98-1.05,3.98-1.05,0-1.05-2.51-.84-3.77Z"/>
      <path class="cls-1" d="M601.48,129.51c0-17.17,5.65-54.64,28.05-54.64,6.91,0,15.28,3.14,20.1,6.91-14.65-23.86-35.8-39.98-46.89-21.35l-.63,1.05-1.47-.63c10.89-21.14,12.77-38.31,4.61-50.87l2.09-.63c24.49,26.17,50.66,57.78,66.57,112.83l19.05-25.12,6.91,6.28-37.89,41.45-.63-.42.42-.63c4.61-7.12,4.81-17.79,1.88-29.52-25.33,30.35-27,70.75-44.59,70.75-10.89,0-17.58-31.19-17.58-55.47ZM663.03,111.93c-1.05-3.98-2.3-7.75-3.98-11.72-11.93-17.79-23.66-21.14-29.31-21.14-20.1,0-22.4,31.4-22.4,49.4s5.23,34.12,13.61,34.12c11.51,0,26.17-34.12,42.08-50.66ZM666.59,50.38c1.47-1.67,2.3-3.35,2.3-5.23,0-2.3-1.47-5.23-4.6-8.58-1.47-1.88-2.3-2.93-2.3-3.56,0-1.26,2.51-1.88,7.54-1.88h48.77l7.95,7.12c.84-1.26,1.26-2.51,1.26-3.56,0-1.46-.42-2.93-1.05-4.61-.63-1.88-.84-3.35-.84-4.19,0-1.88,1.26-3.56,3.56-5.02,2.3-1.47,6.28-2.72,12.14-3.77,5.02-.84,8.79-1.88,11.3-2.93s3.77-2.09,3.77-3.14c0-1.47-2.09-2.72-6.49-3.77s-9.84-1.46-16.33-1.46l-28.68-.21c-10.68,0-19.05.42-25.12,1.26-6.28,1.05-9.42,2.72-9.42,5.44,0,1.88,1.67,3.98,5.02,6.28h-48.36c.84-1.05,3.14-2.3,3.77-2.51,3.14-1.67,4.6-2.72,4.6-5.02,0-.42-.21-1.05-.42-1.88-1.05-2.72,6.7-4.6,23.24-5.65,16.33-1.05,40.82-1.47,73.69-1.47h11.93c14.86,0,25.54,0,32.24.21,12.77.21,19.26,1.46,19.26,3.98,0,.63-.63,1.67-1.67,3.14-5.02,3.98-12.14,6.49-23.03,9.21-6.07,1.67-11.09,3.14-14.65,4.61-7.54,2.72-13.19,7.95-13.19,15.7,0,3.98,1.26,8.58,3.77,13.61l-5.23,5.23-23.86-22.19,18.84,27.63-29.73,30.14-39.98-42.91ZM658.63,204.87c-44.38-13.82-11.72-55.26,34.33-59.45,3.14-.21,3.35-4.19,2.93-11.72-.21-5.44-.42-8.16-5.44-8.79-1.67-.21-2.09-1.26-.84-2.51l3.35-3.35c.84-.63,1.67-.84,2.93-.63,20.31,3.77,39.35,15.91,50.87,30.35,31.4,38.94,3.98,60.92-48.36,60.92-16.33,0-29.73-1.67-39.77-4.82ZM746.34,150.44c-8.16-11.09-22.61-21.14-43.54-24.49-7.54-1.05-6.07-1.05-6.07,12.77,0,3.56.63,6.28,5.44,6.28,21.56-.21,44.38,4.4,44.38,18.42,0,4.4-2.3,9.63-7.54,15.91-.63.84-1.88.21-1.67-.84,1.05-6.28-.42-11.72-4.19-15.91-3.56-3.98-4.4.21-3.14,8.37.63,4.19,1.05,8.79-1.26,9-1.88.21-1.67-5.02-.63-9.42,1.67-6.7.84-12.56-5.23-15.49-9.63-4.61-21.56-6.28-31.19-6.28-41.24,0-60.71,39.15-23.24,53.59,9.21,3.56,18.21,5.65,33.91,5.65,36.01,0,63.85-30.14,43.96-57.57ZM724.36,70.48l-24.49-35.38h-21.35l37.26,44.38,8.58-9ZM732.32,112.13c-1.47-23.03,39.35-22.82,72.85-8.58-3.35-29.52-12.56-58.61-25.54-67.83l7.54-7.33c12.98,12.98,20.93,59.45,20.93,97.97,0,30.35-5.44,56.31-16.75,56.31-15.28,0-58.2-50.45-59.03-70.55ZM806.63,126.37c0-7.12-.63-14.44-1.26-21.56-32.03-13.4-66.36-10.26-66.36,14.44,0,21.14,35.59,56.52,51.92,56.52,10.05,0,16.12-18,15.7-49.4Z"/>
      <path class="cls-1" d="M830.71,99.78c-12.14-3.77-24.28-10.47-24.28-34.12,0-14.03,5.23-26.59,14.03-42.71l1.88,1.05c-6.7,11.51-13.4,32.45-9.42,46.68,5.86-7.12,17.58-14.03,36.63-20.72l1.05,2.09c-19.05,6.07-31.61,15.28-31.61,25.75,0,8.16,9.21,12.56,28.47,17.58,14.86,3.77,32.45,5.02,32.45,16.54,0,19.47-51.71,72.64-66.15,72.64-12.98,0-9.42-39.56,16.96-84.78ZM869.22,118.62c0-10.26-19.47-13.4-36.42-18.21-11.09,20.31-20.31,43.33-20.31,54.01,0,8.58,4.19,12.56,11.09,12.56,15.49,0,45.63-29.1,45.63-48.36ZM833.01,209.06c-32.45-2.72-24.07-14.03,11.51-27.84v.84c-22.82,8.37-29.52,17.38-4.81,21.14,19.68,3.35,44.17,5.23,66.99,5.23,3.98-.21,4.19-.42,4.19-3.35s-.21-3.56-1.26-3.77l-1.05-.21c-.63,0-1.26-.21-2.09-.42-7.95-2.51-15.7-10.68-20.72-25.33-8.37-23.86,11.51-39.77,11.51-43.75,0-1.88-.84-2.72-2.3-2.72-5.02,0-17.79,10.47-30.98,22.4-7.33,7.75.42,20.72-2.93,21.14-4.19.42.42-7.54-.84-19.68,15.07-14.65,26.59-25.96,33.49-25.96,3.77,0,5.23,1.67,5.23,4.4,0,23.66-28.47,59.24,9.21,59.24,22.4,0,39.15-37.05,22.4-56.1-3.14-3.56-6.7-7.12-10.47-11.09-2.51-2.3-4.4-2.09-4.4,1.67,0,6.28,2.3,11.51,0,11.51s-.21-5.23-.42-9.84c-.42-8.58-.42-7.96-3.35-11.51l-7.33-7.54,1.05-1.05c66.15,66.99,85.62,81.64,80.59,94.62-2.3,5.86-14.65,9.21-52.96,9-43.75-.21-79.97.84-100.27-1.05ZM881.78,67.55c1.47-.84,3.14-2.09,4.61-3.77,2.09-2.3,4.61-4.19,7.33-5.65,2.72-1.26,7.33-1.88,13.61-1.88h9.84c5.23,0,9.21-.21,11.51-.63,2.3-.42,4.19-1.26,5.86-2.51,1.67-1.05,4.4-3.56,8.37-7.33l17.79-16.96c-5.65,4.4-12.77,7.75-21.14,10.26-10.68,3.14-23.45,4.61-38.1,4.61-8.79,0-18.84-.63-30.35-1.67-16.54-1.67-27.84-5.02-33.91-10.26-6.07-5.02-8.79-10.47-8.37-16.12h17.17V.35h15.28v15.28h-15.28c-.21,1.05-.42,2.3-.42,4.19,0,9.21,8.79,14.65,26.17,16.33,10.47,1.05,18.84,1.46,25.12,1.46,15.91,0,28.05-2.09,36.63-6.49,8.37-4.4,12.56-11.09,12.56-20.51l19.47,13.82,15.49-14.86-12.56-4.19h31.61l-68.66,68.66c0-4.4-.42-7.54-1.67-9.42-1.05-1.88-3.14-3.35-6.28-3.98-3.14-.63-8.16-1.05-15.28-1.05-10.26,0-15.28,2.72-15.28,13.4,0,6.49,4.81,10.47,10.05,10.47,6.49,0,9.84-2.3,9.84-7.33,0-2.09-.63-3.77-2.09-5.02h12.35v13.19c-3.14-1.46-5.44-2.3-7.33-2.3-4.4,0-6.49,3.98-6.49,11.72l-4.4,5.65-29.73-30.56c2.93,0,5.23-.42,6.7-1.26ZM975.36,194.61c6.91-9-16.54-33.08-39.36-55.26l-.42.21c9,18.21-1.26,57.15-20.1,61.54-2.93.84-4.4,0-4.4,3.98,0,2.51,0,2.93,2.72,3.14,29.31-.63,54.64-4.61,61.54-13.61ZM935.79,102.09l7.74,4.81c-2.3,3.14-3.35,6.91-3.35,11.09,0,23.45,35.8,56.52,50.87,56.52,20.1,0,18.42-13.19,10.26-75.36-2.3-18.21-3.14-41.03-3.14-57.99-4.19,37.47-10.68,69.08-31.19,69.08-11.09-.63-19.47-13.82-19.47-28.05s10.47-34.54,22.61-34.54c7.75,0,10.05,11.72,10.05,20.72,0,11.3-3.77,17.79-9.63,22.4l-3.98-5.02c8.58-4.4,12.56-12.14,12.56-19.68,0-6.91-2.72-13.19-9.63-13.19-13.19,0-20.72,18.42-20.52,29.93,0,11.09,7.12,19.47,15.28,19.47,21.98,0,30.56-34.96,34.12-72.22,0-3.77.21-6.91.42-9.21.21-2.3,1.05-5.02,2.72-6.49,1.47-1.26,3.77-1.46,5.23,0,2.09,2.09,1.46,5.23-1.88,7.75-1.05.84-2.51,1.88-4.19,2.93-2.72,5.86.42,43.12,3.77,72.64,7.74,69.08,7.12,83.94-11.1,83.94-16.75,0-72.43-60.71-57.57-79.55Z"/>
      <path class="cls-1" d="M.48,407.52l1.05-1.47c22.61-31.61,13.4-171.86.42-191.12l.63-1.26,43.75,44.8-5.23,4.4-24.7-26.79c5.02,15.28,8.58,51.29,10.05,87.71,16.75-24.91,14.03-52.75,28.68-52.75,9,0,18.42,11.93,18.42,30.77s-9,38.94-23.86,59.45l-1.26-.63c12.35-17.79,18.63-39.35,18.63-54.22,0-13.19-5.23-19.05-11.09-19.05-9.84,0-13.19,17.79-29.52,39.15.84,19.47.84,39.15.42,55.68l-25.33,26.17-1.05-.84ZM165.43,401.45c-6.07-13.19-14.86-22.82-21.98-28.68-13.82-11.72-17.58-12.77-30.98-9-3.77,1.05-5.02,3.35-3.77,12.56.63,4.81,1.26,10.89-1.67,10.89-2.3,0-1.67-6.07-.63-11.51,1.67-8.79.42-10.89-6.91-8.79-16.33,4.61-30.56,11.09-41.45,21.14-7.33,6.7-8.58,9.42-6.7,21.56.21,1.26,0,3.77-1.05,3.77-1.26,0-1.26-1.88-1.05-3.98.84-7.33,1.05-11.3-1.05-11.3-2.3,0-6.7,4.81-8.79,7.12-13.19,14.65-26.38,10.47-32.66,7.12-3.98-2.09-.84-7.54,2.3-3.56,9.42,11.72,20.31,4.19,25.33-7.75,4.61-11.09,1.67-25.96,13.61-35.38,5.02-3.98,9.84-5.65,14.86-7.33,21.77-7.54,27-12.14,30.14-29.31,1.05-5.44,1.88-9.42,7.33-15.49,2.3-2.51,5.02.21,2.3,2.51-5.44,4.61-7.33,9-8.16,15.91-2.3,20.51-14.44,24.28-34.54,40.82-7.12,5.86-16.12,15.91-23.03,28.89-.63,1.05.42,2.09,1.26.84,16.75-25.12,55.26-39.35,84.36-42.91,1.67-.21,1.88-1.05.84-1.67-7.96-5.65-12.98-11.3-15.91-17.79-5.44-11.93-.63-36.01,13.61-1.88,1.05,2.51-1.26,4.19-2.72,1.05-3.56-7.54-6.7-9.84-8.79-9.84-3.14,0-2.93,4.19-1.05,7.95,5.86,11.72,18.84,16.33,32.24,20.93,5.02,1.67,9.84,3.35,14.86,7.33,8.79,6.91,9.63,16.33,11.09,25.54,1.88,12.14,6.91,22.61,15.07,22.61,3.77,0,7.33-2.3,12.56-5.65,3.77-2.3,5.86,1.88,2.3,3.56-4.81,2.3-9,3.77-13.61,3.77-6.28,0-12.35-2.72-17.58-14.03ZM91.12,286.94c-5.23-5.23-13.19-12.77-23.86-22.4-11.51-10.05-20.1-18.21-25.96-24.7-5.86-6.28-8.79-11.72-8.79-16.33,0-8.37,11.93-12.56,35.8-12.35v16.96c-1.46.21-5.65-1.26-12.56-4.61-6.49-3.14-10.47-4.61-11.93-4.61-.84,0-1.26.42-1.26,1.05,0,1.67,2.72,5.65,8.16,11.93l28.89,24.49c-.63-1.46-1.67-3.14-3.14-5.02l-2.72-3.14c-2.09-2.51-3.56-4.4-4.61-5.86-1.05-1.46-1.47-2.72-1.47-3.98,0-2.93,3.77-5.23,11.09-6.7,7.33-1.47,20.31-2.09,39.36-2.09,17.17,0,29.31.42,36.63,1.26,7.33.84,10.88,2.72,10.88,5.44l1.67-.42c0,1.67-1.88,3.56-5.65,5.86-3.77,2.3-9.21,5.02-16.54,8.16-7.75,3.77-13.61,6.7-17.58,9s-5.86,4.19-5.86,6.07,2.93,3.56,8.79,5.02l4.4,9.42h-21.56c-2.72,0-5.02-2.51-5.02-5.65,0-6.91,7.54-12.56,13.82-16.12,9-4.81,15.28-8.58,19.26-11.09,3.77-2.51,5.65-4.4,5.65-5.44,0-.84-1.05-1.46-3.14-1.88-6.7-.63-25.54-.84-42.7-.63-5.65,0-10.26,1.67-13.61,3.77-3.35,2.09-5.02,5.02-5.02,8.58,0,3.35,1.46,7.12,4.61,11.51l27.21,23.03-12.98,16.12c-1.47-4.4-4.81-9.42-10.26-14.65ZM147.85,340.32c0-19.05,16.33-26.38,30.77-30.98,12.56-3.98,22.82-9.21,22.82-22.19,0-10.68-7.96-16.12-19.05-16.12-9.84,0-24.28,3.98-58.2,33.29-3.14,2.93-5.86,5.44-8.16,7.12-1.67,1.46-4.19,2.72-6.28,2.72-1.88,0-3.98-1.26-3.98-3.35,0-2.93,2.51-4.4,6.7-4.4,1.47,0,3.14.21,5.02.63,7.95-2.93,35.8-37.26,59.45-67.62,7.12-9,13.82-17.58,21.77-17.58,3.56,0,6.7,1.26,7.75,2.93l-4.81,10.26c-1.26-2.09-4.4-3.35-7.54-3.35-5.23,0-12.14,3.98-19.47,13.19-14.65,18.42-30.98,38.73-43.75,52.54,31.19-26.38,47.1-33.7,56.52-33.7,10.68,0,17.79,6.49,17.79,16.96,0,38.1-54.64,30.98-54.64,65.1,0,14.23,22.82,37.05,38.31,37.05,21.56,0,14.03-34.96-6.91-43.33l6.07-7.33c8.37,1.67,17.58,14.44,17.58,29.52,0,11.72-4.61,22.4-17.38,22.4-15.91,0-40.4-23.24-40.4-43.75Z"/>
      <path class="cls-1" d="M211.49,224.98l2.72.84c-6.49,35.59-18.21,144.44,7.95,144.44,15.7,0,35.8-51.71,33.7-96.5l4.81-1.67c2.09,27.84,5.86,50.87,14.03,50.87,4.6,0,10.05-6.91,19.05-18l3.98,3.56-33.49,37.05-.42-.42c5.44-11.72,5.44-23.86,1.05-23.86-13.19,0-26.38,70.13-49.4,70.13-25.12,0-15.28-98.81-3.98-166.42ZM228.86,396.01c0-11.09,14.23-26.38,48.78-42.5,15.49-7.12,39.56-14.65,21.56-14.65-3.77,0-16.12,1.67-25.33,11.3h-1.46c10.68-11.51,24.49-13.82,29.52-13.82,12.77,0,2.09,10.68-17.58,20.1-16.12,9.21-15.91,8.79-14.44,21.14.21,1.26.21,3.77-.84,3.77-1.26,0-1.26-1.88-1.05-3.98,1.26-11.51,1.26-12.98-6.7-7.75-14.03,9.84-20.31,19.05-20.31,26.58,0,10.47,12.35,17.38,32.66,17.38,15.49,0,35.8-4.19,58.82-13.82,12.35-5.23,20.31-11.93,20.31-21.77,0-11.93-11.93-28.89-42.29-54.22l.63-1.05c36.21,31.82,49.82,48.98,49.82,59.87,0,.84,0,1.67-.21,2.51-1.67,9.84-1.67,12.77-.21,13.19q3.77,1.26,5.65,13.61c.84,4.82-3.77,5.02-3.14,0,1.26-9.21.42-10.47-1.05-10.47-1.05,0-3.77,1.67-3.98-1.88-.21-1.46,0-5.02.63-10.26-4.19,5.86-14.24,9.42-27.21,14.03-23.86,8.37-45.43,11.93-62.59,11.93-24.7,0-39.98-7.54-39.98-19.26ZM267.59,255.96c-12.56-15.49-14.03-32.87-14.03-40.61,0,3.14.84,7.95,2.3,14.03,3.14,12.35,14.65,27.84,39.56,27.84,12.77,0,22.19-1.88,28.26-5.44,12.35-7.33,13.61-15.91,13.61-25.96v-16.75h17.17c0,10.26.84,17.58,2.51,21.98,1.46,4.4,3.77,6.7,6.7,6.7,2.3,0,4.82-1.05,7.75-2.93s6.7-4.81,11.51-8.79l3.56-2.93-35.38,36.63c-3.98,3.98-6.49,5.86-7.75,5.86-.84,0-1.26-1.05-1.26-3.14,0-6.91,0-10.05-4.81-11.51v-14.65c0,2.3-.84,5.86-2.3,10.47-3.14,9.42-14.65,20.93-39.56,20.93-12.35,0-21.77-3.98-27.84-11.72ZM335.83,316.04c0-12.35,7.33-22.4,14.24-30.35-6.91,5.23-31.19,19.05-38.73,23.24l-.84-1.88c8.37-3.98,33.7-18.84,41.45-24.07,2.93-7.33,5.44-11.3,8.37-11.3,2.09,0,3.14,1.26,3.14,3.35,0,2.72-1.67,3.35-11.3,9.63-7.96,12.77-9.21,23.24-9.21,36.42,0,29.73,29.93,60.71,45.01,60.71,15.91,0,23.45-7.33,11.51-60.5-8.37-37.47-12.35-84.15-3.35-100.06l9.21,5.02c-12.77,15.49-11.72,59.45-4.4,94.62,11.3,54.22,3.56,68.03-10.68,68.03-13.4,0-54.43-46.47-54.43-72.85Z"/>
      <path class="cls-1" d="M401.15,348.28c0-12.98,1.26-36.84,12.98-36.84,8.79,0,13.82,22.19,25.12,22.19,4.61,0,7.12-2.93,7.12-6.7,0-9.63-17.38-20.72-23.65-24.91-17.58-11.93-22.19-25.75-22.19-44.59,0-8.37,1.05-25.12,10.68-25.12,21.14,0,39.98,59.24,74.52,61.54v.42l-21.35,17.38c-8.37-21.14-18.63-40.19-29.1-51.92,12.14,19.68,4.19,29.52-2.72,29.52-6.07,0-14.65-6.07-22.61-12.35,12.56,20.1,42.29,24.7,42.29,44.59,0,10.26-7.12,15.28-14.03,15.28-11.09,0-15.91-8.79-24.7-8.79-5.65,0-9.21,6.7-9.21,17.58,0,10.26,3.77,24.7,14.03,24.7,20.51,0,42.7-49.19,76.62-59.24v1.47c-33.08,9.84-59.87,76.2-81.22,76.2-8.37,0-12.56-13.61-12.56-40.4ZM432.76,257.01c-6.07-6.28-12.35-9.84-18.21-9.84-8.79,0-10.05,5.44-10.05,9.63,0,6.28,1.26,11.72,3.35,16.33,6.7,5.02,14.44,7.33,18.63,7.33,9.84,0,13.4-11.3,6.28-23.45ZM461.23,262.03c-12.35-12.56-20.72-27.21-20.72-37.89,0-9,6.07-14.24,19.26-14.44l12.35,15.28c-8.16,0-12.35,2.51-12.35,7.75,0,3.98,2.51,9.21,7.75,15.7,10.88,13.82,21.98,20.72,33.28,20.72,6.49,0,12.77-2.3,18.42-6.7,11.51-8.79,19.68-22.82,23.86-35.17-2.3,0-5.65-.42-10.05-1.46-8.58,19.26-19.05,32.45-29.93,32.45-7.75,0-15.07-6.49-22.19-19.47-5.23-9.42-7.75-16.54-7.75-21.35,0-5.65,3.56-8.37,10.47-8.37,5.02,0,13.19,1.88,20.51,3.56,3.56,1.05,7.33,1.88,11.3,2.51h.21l.42-6.91,23.45,1.05-2.72,7.12,8.58.42,43.33-1.67c-3.98,3.56-8.37,5.23-15.91,7.54-5.23,1.47-9.21,3.14-12.14,4.82-6.07,3.35-10.89,11.09-10.89,25.54-4.4,2.51-7.96,6.28-14.65,14.03-11.51,13.4-18.84,20.51-31.19,20.51s-26.17-8.58-42.7-25.54ZM449.92,383.03c0-26.17,38.73-59.24,63.85-59.03,1.26,0,1.88.42,2.72,1.26l3.77,3.77c.84.84.42,1.67-.63,1.67-32.03.42-63.64,20.51-63.64,44.8,0,20.72,23.03,38.52,50.66,38.52s52.54-8.16,52.54-27.21-15.7-34.54-35.59-37.26c-4.61-.63-3.77,1.05-3.77,4.4,0,4.81,2.09,5.65,6.07,6.28,13.4,2.09,20.72,9.21,20.72,17.79,0,15.91-20.52,25.75-40.19,25.75-25.96,0-39.56-16.75-39.56-32.45,0-18,19.47-26.38,38.94-26.38,29.1,0,61.96,18.84,61.96,45.84,0,21.56-25.96,24.91-57.15,24.91-36.22,0-60.71-12.14-60.71-32.66ZM539.94,382.19c0-14.23-15.7-23.65-36.84-19.47-1.05.21-1.26-.84-.21-1.05,3.35-.84,7.75-1.26,11.72-1.67,4.19-.42,4.81-1.46,4.61-5.86-.21-4.19-.63-5.02-6.28-5.02-8.58.42-18.42,3.35-24.7,6.7-4.19,2.51-6.28,5.23-6.28,8.58,0,2.3.42,5.02.84,8.37.63,4.81,1.26,10.89-1.67,10.89-2.3,0-1.67-5.86-.63-11.51s.84-10.26-.42-10.26c-2.72,0-5.44,7.12-5.44,13.61,0,13.19,10.26,26.79,31.82,26.79,15.7,0,33.49-7.12,33.49-20.1ZM511.05,242.56c1.67-6.07,2.93-12.98,3.98-20.93-5.23-1.05-9.21-1.47-12.35-1.47-6.91,0-10.68,2.09-10.68,7.75,0,2.72.84,5.86,2.3,9.42,1.88,3.98,3.77,7.33,5.65,10.05,1.88,2.72,3.56,4.19,5.02,4.19,2.3,0,4.19-2.93,6.07-9ZM552.08,314.37l12.14,3.35c-9.42,4.81-12.56,11.72-12.56,19.89,0,23.24,22.61,44.17,37.68,44.17,11.93,0,16.75-10.89,16.75-22.61,0-23.66-14.44-57.57-31.61-57.99-7.12-.21-17.58,4.61-28.26,9.63-9.42,4.4-16.96,8.16-21.98,8.16-3.77,0-5.86-2.51-5.86-7.96,0-14.23,16.75-32.87,30.14-32.87,7.95,0,13.19,6.28,25.54,13.4l.42-.84c-20.31-18.63-14.23-47.73,10.26-47.73,8.16,0,14.86,5.02,18.84,14.24l1.47-.63c-2.93-16.12-6.91-26.59-11.93-33.29l9-9c4.19,5.44,4.61,20.1,4.61,54.85,0,14.44-10.05,25.96-22.61,25.96s-16.54-10.26-34.54-10.26c-14.44,0-30.14,14.86-30.14,23.86,0,5.02,2.51,6.7,6.49,6.7,11.93,0,36.21-15.49,47.94-15.49,26.59,0,34.33,27.21,34.33,51.29,0,16.33-4.19,37.68-17.38,37.68-17.17,0-63.43-55.47-38.73-74.52ZM604.83,269.15c0-30.14-38.31-26.79-38.31-1.05,0,11.93,5.65,24.07,17.38,25.75.63,0,1.26.21,1.88.21,9.63,0,19.05-10.47,19.05-24.91Z"/>
      <path class="cls-1" d="M603.37,407.52l1.05-1.47c22.61-31.61,13.4-171.86.42-191.12l.63-1.26,43.75,44.8-5.23,4.4-24.7-26.79c5.02,15.28,8.58,51.29,10.05,87.71,16.75-24.91,14.03-52.75,28.68-52.75,9,0,18.42,11.93,18.42,30.77s-9,38.94-23.86,59.45l-1.26-.63c12.35-17.79,18.63-39.35,18.63-54.22,0-13.19-5.23-19.05-11.09-19.05-9.84,0-13.19,17.79-29.52,39.15.84,19.47.84,39.15.42,55.68l-25.33,26.17-1.05-.84ZM768.32,401.45c-6.07-13.19-14.86-22.82-21.98-28.68-13.82-11.72-17.58-12.77-30.98-9-3.77,1.05-5.02,3.35-3.77,12.56.63,4.81,1.26,10.89-1.67,10.89-2.3,0-1.67-6.07-.63-11.51,1.67-8.79.42-10.89-6.91-8.79-16.33,4.61-30.56,11.09-41.45,21.14-7.33,6.7-8.58,9.42-6.7,21.56.21,1.26,0,3.77-1.05,3.77-1.26,0-1.26-1.88-1.05-3.98.84-7.33,1.05-11.3-1.05-11.3-2.3,0-6.7,4.81-8.79,7.12-13.19,14.65-26.38,10.47-32.66,7.12-3.98-2.09-.84-7.54,2.3-3.56,9.42,11.72,20.31,4.19,25.33-7.75,4.61-11.09,1.67-25.96,13.61-35.38,5.02-3.98,9.84-5.65,14.86-7.33,21.77-7.54,27-12.14,30.14-29.31,1.05-5.44,1.88-9.42,7.33-15.49,2.3-2.51,5.02.21,2.3,2.51-5.44,4.61-7.33,9-8.16,15.91-2.3,20.51-14.44,24.28-34.54,40.82-7.12,5.86-16.12,15.91-23.03,28.89-.63,1.05.42,2.09,1.26.84,16.75-25.12,55.26-39.35,84.36-42.91,1.67-.21,1.88-1.05.84-1.67-7.95-5.65-12.98-11.3-15.91-17.79-5.44-11.93-.63-36.01,13.61-1.88,1.05,2.51-1.26,4.19-2.72,1.05-3.56-7.54-6.7-9.84-8.79-9.84-3.14,0-2.93,4.19-1.05,7.95,5.86,11.72,18.84,16.33,32.24,20.93,5.02,1.67,9.84,3.35,14.86,7.33,8.79,6.91,9.63,16.33,11.09,25.54,1.88,12.14,6.91,22.61,15.07,22.61,3.77,0,7.33-2.3,12.56-5.65,3.77-2.3,5.86,1.88,2.3,3.56-4.81,2.3-9,3.77-13.61,3.77-6.28,0-12.35-2.72-17.58-14.03ZM694.01,286.94c-5.23-5.23-13.19-12.77-23.86-22.4-11.51-10.05-20.1-18.21-25.96-24.7-5.86-6.28-8.79-11.72-8.79-16.33,0-8.37,11.93-12.56,35.8-12.35v16.96c-1.47.21-5.65-1.26-12.56-4.61-6.49-3.14-10.47-4.61-11.93-4.61-.84,0-1.26.42-1.26,1.05,0,1.67,2.72,5.65,8.16,11.93l28.89,24.49c-.63-1.46-1.67-3.14-3.14-5.02l-2.72-3.14c-2.09-2.51-3.56-4.4-4.61-5.86-1.05-1.46-1.47-2.72-1.47-3.98,0-2.93,3.77-5.23,11.09-6.7,7.33-1.47,20.31-2.09,39.35-2.09,17.17,0,29.31.42,36.63,1.26,7.33.84,10.89,2.72,10.89,5.44l1.67-.42c0,1.67-1.88,3.56-5.65,5.86s-9.21,5.02-16.54,8.16c-7.75,3.77-13.61,6.7-17.58,9-3.98,2.3-5.86,4.19-5.86,6.07s2.93,3.56,8.79,5.02l4.4,9.42h-21.56c-2.72,0-5.02-2.51-5.02-5.65,0-6.91,7.54-12.56,13.82-16.12,9-4.81,15.28-8.58,19.26-11.09,3.77-2.51,5.65-4.4,5.65-5.44,0-.84-1.05-1.46-3.14-1.88-6.7-.63-25.54-.84-42.7-.63-5.65,0-10.26,1.67-13.61,3.77-3.35,2.09-5.02,5.02-5.02,8.58,0,3.35,1.47,7.12,4.61,11.51l27.21,23.03-12.98,16.12c-1.47-4.4-4.81-9.42-10.26-14.65ZM750.74,340.32c0-19.05,16.33-26.38,30.77-30.98,12.56-3.98,22.82-9.21,22.82-22.19,0-10.68-7.95-16.12-19.05-16.12-9.84,0-24.28,3.98-58.2,33.29-3.14,2.93-5.86,5.44-8.16,7.12-1.67,1.46-4.19,2.72-6.28,2.72-1.88,0-3.98-1.26-3.98-3.35,0-2.93,2.51-4.4,6.7-4.4,1.47,0,3.14.21,5.02.63,7.96-2.93,35.8-37.26,59.45-67.62,7.12-9,13.82-17.58,21.77-17.58,3.56,0,6.7,1.26,7.75,2.93l-4.81,10.26c-1.26-2.09-4.4-3.35-7.54-3.35-5.23,0-12.14,3.98-19.47,13.19-14.65,18.42-30.98,38.73-43.75,52.54,31.19-26.38,47.1-33.7,56.52-33.7,10.68,0,17.79,6.49,17.79,16.96,0,38.1-54.64,30.98-54.64,65.1,0,14.23,22.82,37.05,38.31,37.05,21.56,0,14.03-34.96-6.91-43.33l6.07-7.33c8.37,1.67,17.58,14.44,17.58,29.52,0,11.72-4.61,22.4-17.38,22.4-15.91,0-40.4-23.24-40.4-43.75Z"/>
      <path class="cls-1" d="M804.33,303.27c0-24.91-.63-68.24,9-68.24,12.35,0,54.85,39.15,54.85,54.64,0,21.98-45.43,18-57.99,34.96,1.05,28.68,4.81,39.15,12.14,39.15,18,0,24.07-37.89,73.9-50.03l.21,1.46c-59.24,16.54-64.27,80.59-80.38,80.59-10.05,0-11.72-47.94-11.72-92.53ZM851.22,285.27c0-19.68-13.61-33.28-23.65-33.28-15.07,0-17.79,23.03-17.79,52.12,0,6.07,0,11.51.21,16.33,11.3-15.49,41.24-12.14,41.24-35.17ZM821.7,220.37l11.3-10.26h80.8c12.98,0,20.51,1.67,20.51,10.68s.21,12.14-3.56,13.4c-1.88.63-5.23,1.05-10.26,1.05-3.98,0-7.33,2.3-10.05,6.91s-5.65,11.09-8.79,19.68c-1.67,4.81-3.14,8.58-4.61,11.51l-.84,1.67,2.51,2.72q3.77,4.4,6.07,12.98c1.05,3.56,1.67,5.23,1.88,5.23s.42-1.05.42-2.93c0-3.56.42-6.07,1.46-7.95,1.05-1.67,2.51-3.35,4.4-5.02,55.68-55.68-8.16,7.75,47.52-46.89l-5.23,6.7c-24.91,31.82-41.24,54.01-48.98,66.36l-84.57-85.83ZM828.19,398.1c0-26.17,57.78-44.17,90.01-44.17.84,0,.84-.63,0-.63-13.61,0-30.77-3.77-30.77-15.91s9.42-18.63,17.79-18.63c13.61,0,17.38,12.98,17.38,21.35,0,3.98-.84,6.91-2.09,6.49-1.26-.42-.84-1.88-.21-3.56,2.93-6.7,0-11.72-4.61-14.86-2.51-1.88-5.65-2.93-8.79-2.93-5.23,0-5.86,2.09-5.86,18.21,0,6.91,2.72,7.54,10.47,8.37,4.81.42,11.51.84,16.12.42,1.88-.21,2.72.63,2.72,1.46s-.84,1.67-2.72,1.47c-2.93-.21-6.07-.42-9.42-.21-18.21,1.05-35.59,5.02-44.8,10.05-5.86,3.14-5.86,10.05-5.23,18.42.42,4.82,1.26,10.89-1.67,10.89-2.3,0-1.67-5.86-.63-11.51.42-2.51.63-4.81.63-6.49,0-5.23-2.72-6.91-6.28-6.91-6.91,0-16.96,7.33-16.96,17.17,0,12.14,10.26,25.96,34.12,26.38,29.73.42,61.54-10.05,88.76-29.31,3.98-2.72,7.75-3.14,10.05-1.05,2.72,2.51,2.72,7.12-2.3,10.05-30.35,17.79-64.68,22.61-95.67,22.61s-50.03-4.81-50.03-17.17ZM892.67,235.03c13.4-3.35,23.86-6.28,26.59-12.14h-67.82l-3.56,3.56,18,18.21c6.49-4.4,16.33-7.12,26.79-9.63ZM900.41,338.44c0-8.37-.63-12.77-3.98-13.19-4.4-.42-6.28,3.14-6.28,7.33,0,5.86,4.81,16.75,8.16,16.33,2.09-.21,2.09-6.28,2.09-10.47ZM934.54,311.64c0-1.67.21-3.35.42-5.23-7.54,2.09-15.49,4.19-24.28,6.07l-.42-1.47c9-2.09,17.38-4.19,25.12-6.49,5.86-26.59,41.24-68.45,58.2-68.45,9.84,0,14.86,6.91,14.86,16.96,0,19.47-20.72,37.26-65.73,51.08-.42,2.72-.63,5.02-.63,7.54,0,29.52,36.01,76.83,54.64,70.76,16.12-5.02,9-34.96-11.09-42.91l6.07-7.33c8.37,1.67,17.58,14.44,17.58,29.52,0,11.72-4.61,22.4-17.38,22.4-22.4,0-57.36-45.63-57.36-72.43ZM1002.99,257.01c0-7.12-3.35-13.4-10.89-13.4-18.84,0-43.96,31.19-49.19,58.61,40.82-12.98,60.08-28.89,60.08-45.22Z"/>
      <path class="cls-1" d="M1008.85,323.16h1.47c-2.3,24.07-3.98,49.61,15.28,49.61,14.65,0,36.63-25.12,36.63-37.89,0-7.12-6.7-11.72-21.77-18-30.77-12.77-35.17-34.75-35.17-55.05,0-16.33,3.56-30.14,6.07-41.24l50.66,48.78c-1.05,11.51-7.75,19.05-18,24.28l-.63-.42c14.86-19.89-5.65-48.78-20.93-48.78-7.96,0-12.77,7.54-12.77,17.38,0,23.24,19.05,36.42,38.52,43.75,17.79,6.91,31.61,9.21,31.61,19.47,0,12.77-56.94,64.27-68.45,75.36-7.75-23.03-5.86-49.82-2.51-77.25ZM1039.42,379.47l.63.42c-18.42,23.03-9.42,27.21,15.07,27.21,11.51,0,19.26-3.35,27.84-6.07,3.77-1.47,2.72-2.09,3.35-14.86.21-5.23.42-6.91-3.14-9.42l-1.05-.84c-4.19-2.09-3.77-1.26-4.19,2.72-.42,4.4,2.3,9.21,0,9.21-1.88,0-1.05-4.81-.84-7.54.21-3.35.84-5.65-2.3-11.51l-.84-1.46c-2.72-5.44-2.51-11.72,1.26-19.05,4.81-9.21,16.33-28.26,30.98-28.26,20.51,0,20.93,23.65,11.72,47.52l-.84-.42c7.12-17.79,3.56-33.7-8.58-37.26-6.7-1.67-7.75-.84-6.7,8.58.42,3.98.84,9-1.46,9-1.88,0-1.26-5.23-.42-9.42,1.26-6.7.42-9.21-4.19-7.75-12.56,4.19-23.24,18.42-11.3,38.1,15.07,24.91,37.68,5.65,65.52,5.65,45.01,0,53.59,54.64,3.14,37.89-14.23-4.81-24.07-11.72-37.89-11.72-18.63,0-33.7,15.49-54.43,15.49-27.63,0-45.22-10.26-21.35-36.21ZM1088.19,261.4c-21.56-10.47-57.99-28.89-57.78-38.31.21-12.77,48.57-16.75,75.57-16.75,25.54,0,37.05,3.98,53.8,6.07,8.16,1.05,25.96,3.56,37.05,0-12.56,11.93-29.73,29.52-36.63,35.17-3.56,2.93-6.28,3.98-9.84,3.98-4.4,0-7.54-3.14-7.54-7.12,0-4.4,2.72-7.54,7.54-7.54,4.19,0,7.12,4.19,10.88.63-8.37-17.38-35.59-23.66-55.89-23.66-18,0-39.56,1.47-39.77,15.28-.21,22.82,75.78,30.77,65.52,55.05-4.4,10.47-26.17,17.17-37.68,11.3-13.19-6.7-9.63-26.38-5.23-34.12ZM1176.53,387.84c-3.77-5.86-4.4-3.98-3.98,1.46l.63,5.65c.21,1.67.21,2.93-.84,2.93-1.47,0-.21-6.28-.21-9.21-.21-3.77-1.26-7.33-4.6-7.75h-1.26c7.12-3.35,8.79,4.61,10.47,7.33l-.21-.42c-2.09-3.77-5.02-6.7-9-6.91h-.42c-5.86,0-15.7,4.4-31.19,5.02-17.17.63-32.03-1.05-42.91-4.82-5.03-1.46-6.28,0-6.28,5.23,0,5.86-1.67,12.77,4.61,12.35,4.19-.84,8.79-1.47,14.24-1.47,30.77,0,54.01,12.77,64.06,12.77s11.09-13.61,6.91-22.19ZM1108.91,278.36c1.26-4.4-1.88-7.75-6.28-9.84-1.26-.63-4.19-2.09-8.37-3.98-3.77,6.49-.42,15.49,5.02,17.79,6.28,2.72,8.79-1.26,9.63-3.98ZM1147.85,329.65c0-6.07,2.09-11.51,7.12-15.28l12.14,3.35c-9.42,4.81-12.56,11.72-12.56,19.89,0,23.24,22.61,44.17,37.68,44.17,11.93,0,16.12-10.89,16.12-22.61,0-21.77-26.59-54.85-35.38-79.55-14.03,7.75-33.49,18-60.08,32.87l-.63-1.47c26.79-13.61,46.05-24.7,59.87-33.7-1.26-4.19-1.88-7.95-1.88-11.3,0-14.03,19.05-41.45,30.14-41.45,6.7,0,8.37,10.26,8.37,17.37,0,14.65-5.44,20.72-32.03,35.59,8.79,22.19,33.7,46.47,33.7,73.69,0,16.33-3.56,37.68-16.75,37.68s-45.84-35.17-45.84-59.24ZM1207.3,238.59c0-3.98-2.51-7.12-6.91-7.12-12.35,0-27.21,16.54-26.79,32.87,0,3.56.84,7.12,2.09,10.68,27-18.21,31.61-28.26,31.61-36.42ZM1176.74,388.26l.21.42c0-.21-.21-.21-.21-.42Z"/>
    </g>
  </g>
</svg>