<?xml version="1.0" encoding="UTF-8"?>
<svg id="Layer_2" data-name="Layer 2" xmlns="http://www.w3.org/2000/svg" viewBox="0 0 1285.36 423.53">
  <defs>
    <style>
      .cls-1 {
        stroke: #fff;
        stroke-width: 1.21px;
      }
    </style>
  </defs>
  <g id="Home_Page_Text_copy_2" data-name="Home Page Text copy 2">
    <g id="Abhaya_Libre" data-name="Abhaya Libre">
      <path class="cls-1" d="M159.79,196.93c-16.04,15.33-39.03,22.99-68.98,22.99-25.71,0-47.64-6.01-65.8-18.04,0,4.01-.24,7.2-.71,9.55-1.18,3.78-4.95,5.66-11.32,5.66v-74.99h13.79c.94,12.5,3.54,23.58,7.78,33.25,10.14,22.88,27.71,34.31,52.71,34.31,6.6,0,12.61-.94,18.04-2.83,15.09-5.66,22.64-16.98,22.64-33.96,0-4.95-1.06-9.78-3.18-14.5-4.95-9.9-17.57-20.16-37.85-30.78-22.64-11.55-35.37-18.27-38.2-20.16-22.41-13.91-33.61-30.65-33.61-50.23,0-13.2,4.6-24.64,13.8-34.31C43.28,8.03,64.75.6,93.28.6c21.69,0,42.33,4.6,61.9,13.8,0-2.12.12-4.01.35-5.66,1.18-4.48,5.07-6.72,11.67-6.72v64.03h-13.8c-.24-12.73-3.3-23.7-9.2-32.9-9.67-14.62-24.18-21.93-43.51-21.93-4.95,0-9.67.71-14.15,2.12-13.44,4.48-20.16,13.68-20.16,27.59,0,5.43,1.18,10.61,3.54,15.56,4.95,10.14,17.33,20.4,37.14,30.78,21.69,11.56,34.08,18.16,37.14,19.81,21.46,13.92,32.19,30.66,32.19,50.23,0,15.56-5.54,28.77-16.63,39.62Z"/>
      <path class="cls-1" d="M307.59,216.38v-9.55h25.12l-26.53-67.92h-70.39l-25.47,67.92h19.81c1.41,0,2.71.12,3.89.35,3.06.47,4.6,3.54,4.6,9.2h-65.09v-9.55h22.64L273.64,4.14h26.18l83.48,202.69h10.61c1.42,0,2.71.12,3.89.35,3.06.47,4.6,3.54,4.6,9.2h-94.8ZM270.45,46.94l-30.42,81.36h61.9l-31.48-81.36Z"/>
      <path class="cls-1" d="M553.91,4.14h71.46v9.55h-28.3v200.92l-20.16,3.54L440.72,59.32v147.51h20.52c4.95.47,8.14,3.66,9.55,9.55h-73.22v-9.55h28.3V13.69h-28.3V4.14h59.78l124.87,146.45V13.69h-28.3V4.14Z"/>
      <path class="cls-1" d="M735.67,4.14c26.18,0,49.05,6.25,68.62,18.75,29.71,19.34,44.57,48.7,44.57,88.08,0,30.9-10.38,56.13-31.13,75.7-21.22,19.81-48.23,29.71-81.01,29.71h-105.41v-9.55h28.3V13.69h-28.3V4.14h104.35ZM709.14,13.69v193.14h26.88c11.08,0,20.4-2.24,27.95-6.72,19.57-11.55,29.36-41.86,29.36-90.91,0-24.52-2.36-44.22-7.07-59.07-8.26-24.29-24.76-36.44-49.52-36.44h-27.59Z"/>
      <path class="cls-1" d="M879.24,216.38v-9.55h30.07v-80.3l-64.03-112.84h-16.63V4.14h99.05v9.55h-26.88l51.65,97.99,47.76-97.99h-28.3V4.14h62.26c-.48,4.95-3.66,8.14-9.55,9.55-7.31.24-13.21,3.54-17.69,9.91l-48.11,100.46v82.78h20.52c4.95.47,8.14,3.66,9.55,9.55h-109.66Z"/>
      <path class="cls-1" d="M.6,419.38v-9.55h28.3v-193.14H.6v-9.55h106.12v9.55h-28.3v88.08h89.85v-88.08h-28.3v-9.55h106.12v9.55h-28.3v193.14h18.75c4.95.47,8.14,3.66,9.55,9.55h-106.12v-9.55h28.3v-94.45h-89.85v94.45h18.75c4.95.47,8.14,3.66,9.55,9.55H.6Z"/>
      <path class="cls-1" d="M246.57,207.14h106.12v9.55h-28.3v122.04c0,13.44,1.06,25,3.18,34.67,5.66,25.94,20.39,38.91,44.22,38.91,37.73-.23,56.71-24.76,56.95-73.58v-122.04h-28.3v-9.55h69.69v9.55h-28.3v119.92c0,16.75-1.89,31.01-5.66,42.8-9.91,29.01-33.84,43.51-71.81,43.51-59.2-.24-89.03-27.35-89.5-81.36v-124.87h-28.3v-9.55Z"/>
      <path class="cls-1" d="M678.8,321.75v9.55h-22.99v88.08l-42.8-7.43c-15.56,7.08-32.78,10.61-51.65,10.61-23.82,0-44.92-5.78-63.32-17.33-30.42-19.57-45.63-50.46-45.63-92.68,0-32.78,9.67-59.07,29.01-78.88,20.28-20.04,46.57-30.07,78.88-30.07,17.92,0,35.02,3.42,51.29,10.26l33.25-6.72,1.42,74.99h-10.97v-.71c-8.96-44.57-30.31-66.86-64.03-66.86-2.83,0-5.66.12-8.49.35-37.03,4.01-55.54,37.03-55.54,99.05,0,20.75,1.88,38.2,5.66,52.35,8.25,30.19,26.76,45.28,55.54,45.28,14.86,0,27.71-4.24,38.56-12.73v-67.56h-30.07v-9.55h101.88Z"/>
      <path class="cls-1" d="M675.56,419.38v-9.55h28.3v-193.14h-28.3v-9.55h106.12v9.55h-28.3v88.08h89.85v-88.08h-28.3v-9.55h106.12v9.55h-28.3v193.14h18.75c4.95.47,8.14,3.66,9.55,9.55h-106.12v-9.55h28.3v-94.45h-89.85v94.45h18.75c4.95.47,8.14,3.66,9.55,9.55h-106.12Z"/>
      <path class="cls-1" d="M1093.09,275.06l-7.78-24.41c-.71-2.12-1.54-4.24-2.48-6.37-7.31-18.39-20.64-27.59-39.97-27.59h-39.97v88.08h67.92v10.61h-67.92v94.45h39.97c4.48,0,8.72-.47,12.73-1.42,13.44-3.54,23.22-14.38,29.36-32.54l8.14-24.41h10.26l-1.41,67.92h-176.87v-9.55h28.3v-193.14h-28.3v-9.55h176.87l1.41,67.92h-10.26Z"/>
      <path class="cls-1" d="M1268.13,399.93c-16.04,15.33-39.03,22.99-68.98,22.99-25.71,0-47.64-6.01-65.79-18.04,0,4.01-.24,7.2-.71,9.55-1.18,3.78-4.95,5.66-11.32,5.66v-74.99h13.79c.94,12.5,3.54,23.58,7.78,33.25,10.14,22.88,27.71,34.31,52.71,34.31,6.6,0,12.61-.94,18.04-2.83,15.09-5.66,22.64-16.98,22.64-33.96,0-4.95-1.06-9.78-3.18-14.5-4.95-9.9-17.57-20.16-37.85-30.78-22.64-11.55-35.38-18.27-38.21-20.16-22.41-13.91-33.6-30.65-33.6-50.23,0-13.2,4.6-24.64,13.8-34.31,14.38-14.86,35.84-22.29,64.38-22.29,21.69,0,42.33,4.6,61.9,13.8,0-2.12.12-4.01.35-5.66,1.18-4.48,5.07-6.72,11.67-6.72v64.03h-13.8c-.24-12.73-3.3-23.7-9.2-32.9-9.67-14.62-24.18-21.93-43.51-21.93-4.95,0-9.67.71-14.15,2.12-13.44,4.48-20.16,13.68-20.16,27.59,0,5.43,1.18,10.61,3.54,15.56,4.95,10.14,17.33,20.4,37.14,30.78,21.69,11.56,34.08,18.16,37.14,19.81,21.46,13.92,32.19,30.66,32.19,50.23,0,15.56-5.54,28.77-16.63,39.62Z"/>
    </g>
  </g>
</svg>