<?xml version="1.0" encoding="UTF-8"?>
<svg id="Layer_2" data-name="Layer 2" xmlns="http://www.w3.org/2000/svg" viewBox="0 0 1212.78 426.75">
  <defs>
    <style>
      .cls-1 {
        stroke: #fff;
        stroke-width: .97px;
      }
    </style>
  </defs>
  <g id="Home_Page_Text_copy_2" data-name="Home Page Text copy 2">
    <g id="Bangla_MN" data-name="Bangla MN">
      <path class="cls-1" d="M79.21,211.65c5.29,0,10.53-.73,15.72-2.19,5.19-1.46,9.83-3.62,13.94-6.48,4.1-2.86,7.4-6.37,9.88-10.53,2.48-4.16,3.73-8.99,3.73-14.5,0-6.59-1.7-12.45-5.1-17.58-3.4-5.13-7.86-9.83-13.37-14.1-5.51-4.27-11.8-8.29-18.88-12.07-7.08-3.78-14.29-7.56-21.63-11.34-7.35-3.78-14.56-7.75-21.63-11.91-7.08-4.16-13.37-8.8-18.88-13.94-5.51-5.13-9.97-10.86-13.37-17.18-3.4-6.32-5.1-13.59-5.1-21.8s1.54-15.83,4.62-22.85c3.08-7.02,7.59-13.1,13.53-18.23,5.94-5.13,13.26-9.16,21.96-12.07C53.3,1.95,63.27.49,74.51.49c10.15,0,19.23,1.08,27.23,3.24,7.99,2.16,15.02,5.35,21.07,9.56,6.05,4.21,11.18,9.4,15.4,15.56,4.21,6.16,7.62,13.29,10.21,21.39l-18.47,8.43c-2.16-6.59-4.92-12.61-8.26-18.07-3.35-5.45-7.35-10.13-11.99-14.02-4.65-3.89-10.02-6.89-16.12-8.99-6.11-2.11-12.99-3.16-20.66-3.16-6.81,0-12.75.95-17.83,2.84-5.08,1.89-9.32,4.38-12.72,7.45s-5.94,6.54-7.62,10.37c-1.68,3.84-2.51,7.75-2.51,11.75,0,5.62,1.73,10.78,5.19,15.48,3.46,4.7,8.05,9.13,13.77,13.29,5.73,4.16,12.24,8.18,19.53,12.07,7.29,3.89,14.72,7.83,22.28,11.83,7.56,4,14.99,8.16,22.28,12.48,7.29,4.32,13.8,9.05,19.53,14.18,5.72,5.13,10.32,10.75,13.77,16.85,3.46,6.1,5.19,12.94,5.19,20.5,0,8.54-1.62,16.56-4.86,24.07-3.24,7.51-8.1,14.05-14.58,19.61-6.48,5.57-14.53,9.97-24.15,13.21-9.62,3.24-20.8,4.86-33.55,4.86-10.37,0-19.61-1.13-27.71-3.4-8.1-2.27-15.26-5.56-21.47-9.89-6.21-4.32-11.53-9.59-15.96-15.8-4.43-6.21-8.05-13.31-10.86-21.31l19.28-7.94c2.27,7.02,5.32,13.29,9.16,18.8,3.83,5.51,8.29,10.18,13.37,14.02,5.08,3.84,10.72,6.78,16.93,8.83,6.21,2.05,12.83,3.08,19.85,3.08Z"/>
      <path class="cls-1" d="M277.01.49l101.12,219.75h-36.79l-32.74-71.63h-92.21l-33.87,71.63h-18.15L267.94.49h9.08ZM222.72,134.67h79.25l-39.06-85.08-40.19,85.08Z"/>
      <path class="cls-1" d="M399.78,5.35h20.26l140.83,157.2h1.62V5.35h15.88v219.91h-8.43L417.45,50.56h-1.3v169.67h-16.37V5.35Z"/>
      <path class="cls-1" d="M616.87,5.35h71.63c22.04,0,41,2.05,56.88,6.16,15.88,4.11,29.11,10.7,39.7,19.77,12.1,10.37,21.2,22.26,27.31,35.65,6.1,13.4,9.16,28.04,9.16,43.92s-2.73,29.33-8.18,42.62c-5.46,13.29-13.45,24.88-23.98,34.76s-23.55,17.69-39.06,23.42c-15.5,5.73-33.25,8.59-53.24,8.59h-80.22V5.35ZM653.01,204.52h38.41c12.1,0,23.5-2,34.19-6,10.7-4,20.01-9.94,27.95-17.83,7.94-7.89,14.21-17.58,18.8-29.09,4.59-11.51,6.89-24.82,6.89-39.95,0-13.29-2.16-25.47-6.48-36.54-4.32-11.07-10.37-20.61-18.15-28.6-7.78-7.99-17.04-14.21-27.79-18.64-10.75-4.43-22.5-6.64-35.25-6.64h-38.57v183.29Z"/>
      <path class="cls-1" d="M846.76,5.35l74.55,108.9L995.53,5.35h19.61l-83.3,122.03v92.86h-36.14v-89.46L809.81,5.35h36.95Z"/>
      <path class="cls-1" d="M45.01,318.17v103.07H8.88v-214.89h36.14v97.88h107.93v-97.88h36.14v214.89h-36.14v-103.07H45.01Z"/>
      <path class="cls-1" d="M218.67,206.35h36.14v139.53c0,9.18,1.57,17.8,4.7,25.85,3.13,8.05,7.62,15.1,13.45,21.15,5.83,6.05,12.88,10.83,21.15,14.34,8.26,3.51,17.47,5.27,27.63,5.27s19.5-1.75,27.71-5.27c8.21-3.51,15.21-8.29,20.99-14.34,5.78-6.05,10.21-13.1,13.29-21.15,3.08-8.05,4.62-16.66,4.62-25.85v-139.53h15.88v139.53c0,11.02-1.78,21.39-5.35,31.12-3.57,9.72-9.16,18.23-16.77,25.52-7.62,7.29-17.37,13.07-29.25,17.34-11.89,4.27-26.15,6.4-42.78,6.4-14.8,0-27.9-2.13-39.3-6.4-11.4-4.27-20.96-10.07-28.68-17.42-7.73-7.35-13.56-15.96-17.5-25.85-3.94-9.88-5.92-20.44-5.92-31.68v-138.56Z"/>
      <path class="cls-1" d="M555.68,216.88c-12.96,0-24.93,2.3-35.9,6.89-10.97,4.59-20.42,11.18-28.36,19.77-7.94,8.59-14.13,18.96-18.56,31.12-4.43,12.15-6.64,25.74-6.64,40.76s2.4,28.77,7.21,40.92c4.81,12.15,11.4,22.5,19.77,31.03,8.37,8.54,18.23,15.1,29.58,19.69,11.34,4.59,23.5,6.89,36.46,6.89,9.4,0,17.88-1.27,25.44-3.81,7.56-2.54,14.37-6.18,20.42-10.94v-75.36h-40.68v-12.8h76.81v94.48c-6.27,3.35-12.59,6.32-18.96,8.91-6.38,2.59-13.26,4.75-20.66,6.48-7.4,1.73-15.53,3.05-24.39,3.97-8.86.92-18.91,1.38-30.14,1.38-11.89,0-23.17-1.32-33.87-3.97-10.7-2.65-20.61-6.4-29.74-11.26-9.13-4.86-17.37-10.67-24.71-17.42-7.35-6.75-13.59-14.23-18.72-22.45-5.13-8.21-9.1-17.04-11.91-26.5-2.81-9.45-4.21-19.2-4.21-29.25s1.32-19.85,3.97-29.41c2.65-9.56,6.45-18.58,11.42-27.06,4.97-8.48,11.02-16.23,18.15-23.26,7.13-7.02,15.18-13.07,24.15-18.15,8.97-5.08,18.74-9.02,29.33-11.83,10.59-2.81,21.82-4.21,33.71-4.21s21.85,1.54,31.52,4.62c9.67,3.08,18.47,7.16,26.42,12.24,7.94,5.08,14.99,10.94,21.15,17.58,6.16,6.64,11.45,13.59,15.88,20.82l-15.56,10.37c-9.08-17.39-19.15-30.12-30.22-38.17-11.08-8.05-23.8-12.07-38.16-12.07Z"/>
      <path class="cls-1" d="M712.65,318.17v103.07h-36.14v-214.89h36.14v97.88h107.93v-97.88h36.14v214.89h-36.14v-103.07h-107.93Z"/>
      <path class="cls-1" d="M1044.8,206.35v13.94h-113.28v76.82h75.84v13.94h-75.84v96.26h113.28v13.94h-149.42v-214.89h149.42Z"/>
      <path class="cls-1" d="M1137.75,412.65c5.29,0,10.53-.73,15.72-2.19,5.19-1.46,9.83-3.62,13.94-6.48,4.1-2.86,7.4-6.37,9.89-10.53,2.48-4.16,3.73-8.99,3.73-14.5,0-6.59-1.7-12.45-5.1-17.58-3.4-5.13-7.86-9.83-13.37-14.1-5.51-4.27-11.8-8.29-18.88-12.07-7.08-3.78-14.29-7.56-21.63-11.34-7.35-3.78-14.56-7.75-21.63-11.91-7.08-4.16-13.37-8.8-18.88-13.94-5.51-5.13-9.97-10.86-13.37-17.18-3.4-6.32-5.11-13.59-5.11-21.8s1.54-15.83,4.62-22.85c3.08-7.02,7.59-13.1,13.53-18.23,5.94-5.13,13.26-9.16,21.96-12.07,8.7-2.92,18.66-4.38,29.9-4.38,10.15,0,19.23,1.08,27.23,3.24,7.99,2.16,15.02,5.35,21.07,9.56,6.05,4.21,11.18,9.4,15.4,15.56s7.62,13.29,10.21,21.39l-18.47,8.43c-2.16-6.59-4.92-12.61-8.26-18.07-3.35-5.45-7.35-10.13-11.99-14.02-4.65-3.89-10.02-6.89-16.12-8.99-6.1-2.11-12.99-3.16-20.66-3.16-6.81,0-12.75.95-17.83,2.84-5.08,1.89-9.32,4.38-12.72,7.45-3.4,3.08-5.94,6.54-7.62,10.37-1.68,3.84-2.51,7.75-2.51,11.75,0,5.62,1.73,10.78,5.19,15.48,3.46,4.7,8.05,9.13,13.77,13.29,5.73,4.16,12.24,8.18,19.53,12.07s14.72,7.83,22.28,11.83c7.56,4,14.99,8.16,22.28,12.48,7.29,4.32,13.8,9.05,19.53,14.18,5.73,5.13,10.32,10.75,13.78,16.85,3.46,6.1,5.19,12.94,5.19,20.5,0,8.54-1.62,16.56-4.86,24.07-3.24,7.51-8.1,14.05-14.59,19.61-6.48,5.57-14.53,9.97-24.15,13.21-9.62,3.24-20.8,4.86-33.54,4.86-10.37,0-19.61-1.13-27.71-3.4s-15.26-5.56-21.47-9.89c-6.21-4.32-11.53-9.59-15.96-15.8-4.43-6.21-8.05-13.31-10.86-21.31l19.28-7.94c2.27,7.02,5.32,13.29,9.16,18.8,3.83,5.51,8.29,10.18,13.37,14.02,5.08,3.84,10.72,6.78,16.93,8.83,6.21,2.05,12.83,3.08,19.85,3.08Z"/>
    </g>
  </g>
</svg>