<?xml version="1.0" encoding="UTF-8"?>
<svg id="Layer_2" data-name="Layer 2" xmlns="http://www.w3.org/2000/svg" viewBox="0 0 1276.13 420.36">
  <defs>
    <style>
      .cls-1 {
        stroke: #fff;
        stroke-width: .93px;
      }
    </style>
  </defs>
  <g id="Home_Page_Text_copy_2" data-name="Home Page Text copy 2">
    <g id="Basteleur">
      <path class="cls-1" d="M86.63,205.72c28.48,0,45.8-12.57,45.8-29.88,0-21.5-18.15-36.3-65.34-56.69C23.52,100.44,5.36,80.05,5.36,52.97,5.36,18.06,40.27.47,73.78.47c27.09,0,33.51,7.26,69.25,7.26-2.23,22.9-1.95,43.28.56,65.9l-6.42,1.4C123.49,28.11,95.28,11.64,70.15,11.64c-20.67,0-40.21,12.29-40.21,30.16,0,21.78,18.71,36.86,59.2,55.01,48.59,21.78,67.3,38.26,67.3,66.74,0,31.56-22.9,53.34-77.63,53.34-24.29,0-48.87-2.23-78.19-11.45,6.42-16.2,7.54-50.54,3.63-69.25l6.98-2.23c17.04,54.17,46.08,71.77,75.4,71.77Z"/>
      <path class="cls-1" d="M241.05,2.42c27.09,0,46.63,8.94,59.48,27.92,15.36-6.98,29.32-12.01,40.77-15.08l5.03,6.14c-25.41,16.2-34.91,35.74-27.37,92.15,5.31,39.1,20.67,77.91,38.82,91.87l-3.63,7.26h-44.68c-1.4-20.67-3.63-38.82-10.05-83.78-25.97,82.1-99.41,98.3-123.15,81.26-18.43-13.68-19.83-65.34,33.51-118.96,17.87-17.31,41.89-35.19,67.3-49.15-19.83-26.53-54.73-30.44-100.53-8.38l-3.91-7.82c19.55-14.8,40.21-23.46,68.42-23.46ZM271.49,154.89c14.52-18.99,25.69-39.93,21.78-69.53-1.95-13.4-5.31-24.57-10.33-34.07-24.57,14.8-46.63,31.56-61.71,47.47-26.25,27.65-37.42,76.51-20.11,87.96,17.87,12.01,49.71-5.03,70.37-31.83Z"/>
      <path class="cls-1" d="M398.55,161.87v-95.22c0-35.19-7.26-46.08-29.6-56.13l1.12-7.82c11.17,1.12,17.87,1.96,25.41,1.96,6.98,0,13.96-1.12,20.38-2.23l139.91,165.04V55.48c0-24.02-5.86-34.91-33.79-44.96l1.12-7.82c18.71,1.68,29.6,1.96,38.26,1.96s18.99-.56,32.67-1.96l1.12,7.82c-22.34,10.33-28.2,20.94-28.2,44.96v157.5l-8.66,5.03L409.72,42.63v119.24c0,24.02,5.86,34.63,33.79,44.96l-1.12,7.82c-18.15-1.4-31-1.95-40.77-1.95-10.61,0-15.92.56-31.56,1.95l-1.12-7.82c22.34-10.05,29.6-20.94,29.6-44.96Z"/>
      <path class="cls-1" d="M650.15,212.7c-8.94,0-22.9.56-39.93,1.95l-1.12-7.82c22.34-7.26,28.2-18.15,28.2-39.38V49.89c0-21.22-5.86-32.11-28.2-39.37l1.12-7.82c17.03,1.4,31,1.96,39.93,1.96s25.97,0,44.96-1.12c76.24-4.19,120.64,36.02,123.43,98.58,2.79,62.83-37.42,113.38-110.86,113.38-21.78,0-48.59-2.79-57.53-2.79ZM784.75,98.76c-6.42-58.64-42.73-85.45-89.08-84.05-25.97.84-33.23,13.96-33.23,35.19v109.19c0,29.6,7.54,45.24,44.68,45.24,59.2,0,84.05-46.63,77.63-105.56Z"/>
      <path class="cls-1" d="M839.2,4.65c9.49,0,31.83-.56,57.8-1.68l.84,8.1c-32.11,3.35-34.63,18.15-22.62,38.26l39.93,67.58,41.89-69.25c12.01-19.83,2.51-33.23-20.94-36.58l1.12-8.1c14.8,1.12,25.69,1.68,35.19,1.68s21.5-.56,38.82-1.68l1.4,8.1c-17.87,8.1-32.95,21.78-45.52,42.17l-45.8,74.84v39.37c0,21.22,5.86,31.83,33.79,39.38l-1.12,7.82c-19.27-1.4-36.02-1.95-44.96-1.95s-22.9.56-45.52,1.95l-1.12-7.82c27.92-7.26,33.79-18.15,33.79-39.38v-34.35l-50.54-83.5c-10.61-17.59-27.37-29.6-49.43-38.54l1.12-8.1c18.15.84,32.67,1.68,41.89,1.68Z"/>
      <path class="cls-1" d="M179.9,370.46v-52.5H53.95v52.5c0,21.22,5.86,31.83,28.21,39.38l-1.12,7.82c-13.68-1.4-30.44-1.95-39.38-1.95s-22.9.56-39.93,1.95l-1.12-7.82c22.34-7.26,28.2-18.15,28.2-39.38v-117.56c0-21.22-5.86-32.11-28.2-39.37l1.12-7.82c17.03,1.4,31,1.96,39.93,1.96s25.69-.56,39.38-1.96l1.12,7.82c-22.34,7.54-28.21,18.15-28.21,39.37v51.1h125.94v-51.1c0-21.22-5.86-32.11-28.2-39.37l1.12-7.82c17.03,1.4,31,1.96,39.93,1.96s25.69-.56,39.37-1.96l1.12,7.82c-22.34,7.54-28.2,18.15-28.2,39.37v117.56c0,21.22,5.86,31.83,28.2,39.38l-1.12,7.82c-13.68-1.4-30.44-1.95-39.37-1.95s-22.9.56-39.93,1.95l-1.12-7.82c22.34-7.26,28.2-18.15,28.2-39.38Z"/>
      <path class="cls-1" d="M264.23,322.98v-70.09c0-21.22-5.86-31.83-28.2-39.37l1.12-7.82c22.34,1.68,33.51,1.96,45.24,1.96s24.02-.84,43.84-1.96l1.12,8.38c-33.51,7.26-37.98,17.59-37.98,38.82v63.95c0,49.99,23.74,77.91,65.9,77.91s64.23-26.25,64.23-73.44v-48.87c0-32.39-8.66-51.1-42.17-58.36l1.12-8.38c19.83,1.12,33.79,1.96,42.73,1.96s22.9-.56,36.58-1.96l1.12,7.82c-22.34,7.54-28.21,26.53-28.21,58.92v54.45c0,60.32-29.04,93.55-80.98,92.99-54.73-.56-85.45-35.46-85.45-96.9Z"/>
      <path class="cls-1" d="M453.28,311.54c0-59.48,48.87-108.07,105.28-108.07,37.14,0,67.58,17.31,88.24,5.58l5.03,2.79c-5.31,20.94-10.89,46.08-10.05,68.7l-6.98.84c-12.85-46.36-43.56-66.46-78.75-66.46-43,0-73.72,36.86-73.72,86.29,0,53.06,35.19,94.11,88.52,94.11,34.07,0,65.07-20.66,65.07-47.19,0-16.75-10.61-35.19-77.63-35.19v-11.17h94.39l1.96,113.93h-11.17l-4.47-41.05c-12.29,26.25-46.36,45.24-83.22,45.24-58.92,0-102.48-47.75-102.48-108.35Z"/>
      <path class="cls-1" d="M853.44,370.46v-52.5h-125.94v52.5c0,21.22,5.86,31.83,28.2,39.38l-1.12,7.82c-13.68-1.4-30.44-1.95-39.37-1.95s-22.9.56-39.93,1.95l-1.12-7.82c22.34-7.26,28.2-18.15,28.2-39.38v-117.56c0-21.22-5.86-32.11-28.2-39.37l1.12-7.82c17.03,1.4,31,1.96,39.93,1.96s25.69-.56,39.37-1.96l1.12,7.82c-22.34,7.54-28.2,18.15-28.2,39.37v51.1h125.94v-51.1c0-21.22-5.86-32.11-28.2-39.37l1.12-7.82c17.03,1.4,31,1.96,39.93,1.96s25.69-.56,39.37-1.96l1.12,7.82c-22.34,7.54-28.2,18.15-28.2,39.37v117.56c0,21.22,5.86,31.83,28.2,39.38l-1.12,7.82c-13.68-1.4-30.44-1.95-39.37-1.95s-22.9.56-39.93,1.95l-1.12-7.82c22.34-7.26,28.2-18.15,28.2-39.38Z"/>
      <path class="cls-1" d="M906.78,311.54c0-59.48,48.87-108.07,105.28-108.07,34.35,0,60.6,17.31,81.26,5.58l3.91,2.79c-5.3,20.94-9.77,46.08-8.94,68.7l-6.98.84c-12.85-46.36-39.38-66.46-74.56-66.46-40.21,0-70.93,36.86-70.93,86.29v.56h56.97c20.11,0,36.02-7.26,39.1-33.79h6.98c3.63,32.11,6.7,55.29,13.12,83.5l-6.98,2.51c-13.12-32.95-27.37-41.05-49.43-41.05h-59.2c5.3,47.19,41.05,82.38,85.17,82.38s62.83-20.66,77.63-62.55l6.7,1.12c-10.61,52.22-41.33,86.01-93.83,86.01-58.92,0-105.28-47.75-105.28-108.35Z"/>
      <path class="cls-1" d="M1205.85,408.72c28.48,0,45.8-12.57,45.8-29.88,0-21.5-18.15-36.3-65.34-56.69-43.56-18.71-61.71-39.09-61.71-66.18,0-34.91,34.91-52.5,68.42-52.5,27.09,0,33.51,7.26,69.25,7.26-2.23,22.9-1.96,43.28.56,65.9l-6.42,1.4c-13.68-46.91-41.89-63.39-67.02-63.39-20.67,0-40.21,12.29-40.21,30.16,0,21.78,18.71,36.86,59.2,55.01,48.59,21.78,67.3,38.26,67.3,66.74,0,31.56-22.9,53.34-77.63,53.34-24.29,0-48.87-2.23-78.19-11.45,6.42-16.2,7.54-50.54,3.63-69.25l6.98-2.23c17.03,54.17,46.08,71.77,75.4,71.77Z"/>
    </g>
  </g>
</svg>