<?xml version="1.0" encoding="UTF-8"?>
<svg id="Layer_2" data-name="Layer 2" xmlns="http://www.w3.org/2000/svg" viewBox="0 0 1202.7 416.97">
  <defs>
    <style>
      .cls-1 {
        stroke: #fff;
        stroke-width: .85px;
      }
    </style>
  </defs>
  <g id="Home_Page_Text_copy_2" data-name="Home Page Text copy 2">
    <g id="Beast">
      <path class="cls-1" d="M8.04,169.03h76.21c4.79,0,7.62-3.91,7.62-10.54v-21.08c0-6.62-2.83-10.54-7.62-10.54h-45.72c-4.79,0-7.62-3.91-7.62-10.54v-21.08c0-6.62-2.83-10.54-7.62-10.54h-15.24c-4.79,0-7.62-3.91-7.62-10.54v-21.08c0-6.62,2.83-10.54,7.62-10.54h15.24c4.79,0,7.62-3.91,7.62-10.54V10.96c0-6.62,2.83-10.54,7.62-10.54h45.72c4.79,0,7.62,3.92,7.62,10.54v21.08c0,6.62,2.83,10.54,7.62,10.54h15.24c4.79,0,7.62-3.91,7.62-10.54V10.96c0-6.62,2.83-10.54,7.62-10.54h15.24c4.79,0,7.62,3.92,7.62,10.54v63.23c0,6.62-2.83,10.54-7.62,10.54h-47.25c-3.92,0-6.1-4.82-6.1-10.54v-21.08c0-6.62-2.83-10.54-7.62-10.54h-45.72c-4.79,0-7.62,3.91-7.62,10.54v21.08c0,6.62,2.83,10.54,7.62,10.54h45.72c4.79,0,7.62,3.91,7.62,10.54v21.08c0,6.62,2.83,10.54,7.62,10.54h45.72c4.79,0,7.62,3.91,7.62,10.54v21.08c0,6.62-2.83,10.54-7.62,10.54h-15.24c-4.79,0-7.62,3.91-7.62,10.54v21.08c0,6.62-2.83,10.54-7.62,10.54H8.04c-4.79,0-7.62-3.91-7.62-10.54v-21.08c0-6.62,2.83-10.54,7.62-10.54Z"/>
      <path class="cls-1" d="M171.99,200.65v-63.23c0-6.62,2.83-10.54,7.62-10.54h15.24c4.79,0,7.62-3.91,7.62-10.54v-63.23c0-6.62,2.83-10.54,7.62-10.54h15.02c4.79,0,7.84-3.91,7.84-10.54V10.96c0-6.62,2.61-10.54,7.4-10.54h45.94c4.79,0,7.62,3.92,7.62,10.54v63.23c0,6.62,2.83,10.54,7.62,10.54h15.02c4.79,0,7.84,3.91,7.84,10.54v63.23c0,6.62,2.61,10.54,7.4,10.54h15.46c4.79,0,7.62,3.91,7.62,10.54v21.08c0,6.62-2.83,10.54-7.62,10.54h-106.9c-4.79,0-7.4-3.91-7.4-10.54v-21.08c0-6.62,2.61-10.54,7.4-10.54h15.46c4.79,0,7.62-3.91,7.62-10.54v-21.08c0-6.62-2.83-10.54-7.62-10.54h-15.46c-4.79,0-7.4,3.91-7.4,10.54v21.08c0,6.62-3.05,10.54-7.84,10.54h-15.02c-4.79,0-7.62,3.91-7.62,10.54v21.08c0,6.62-2.83,10.54-7.62,10.54h-15.24c-4.79,0-7.62-3.91-7.62-10.54Z"/>
      <path class="cls-1" d="M374.04,200.65v-21.08c0-6.62,2.83-10.54,7.62-10.54h15.24c4.79,0,7.62-3.91,7.62-10.54V53.12c0-6.62-2.83-10.54-7.62-10.54h-15.24c-4.79,0-7.62-3.91-7.62-10.54V10.96c0-6.62,2.83-10.54,7.62-10.54h45.72c4.79,0,7.62,3.92,7.62,10.54v21.08c0,6.62,2.83,10.54,7.62,10.54h15.24c4.79,0,7.62,3.91,7.62,10.54v21.08c0,6.62,2.83,10.54,7.62,10.54h15.24c4.79,0,7.62,3.91,7.62,10.54v21.08c0,6.62,2.83,10.54,7.62,10.54h15.24c4.79,0,7.62-3.91,7.62-10.54v-63.23c0-6.62-2.83-10.54-7.62-10.54h-15.24c-4.79,0-7.62-3.91-7.62-10.54V10.96c0-6.62,2.83-10.54,7.62-10.54h76.2c4.79,0,7.62,3.92,7.62,10.54v21.08c0,6.62-2.83,10.54-7.62,10.54h-15.24c-4.79,0-7.62,3.91-7.62,10.54v105.38c0,6.62,2.83,10.54,7.62,10.54h15.24c4.79,0,7.62,3.91,7.62,10.54v21.08c0,6.62-2.83,10.54-7.62,10.54h-45.72c-4.79,0-7.62-3.91-7.62-10.54v-21.08c0-6.62-2.83-10.54-7.62-10.54h-15.24c-4.79,0-7.62-3.91-7.62-10.54v-21.08c0-6.62-2.83-10.54-7.62-10.54h-15.24c-4.79,0-7.62,3.91-7.62,10.54v63.23c0,6.62-2.83,10.54-7.62,10.54h-76.21c-4.79,0-7.62-3.91-7.62-10.54Z"/>
      <path class="cls-1" d="M606.58,200.65v-21.08c0-6.62,2.83-10.54,7.62-10.54h15.24c4.79,0,7.62-3.91,7.62-10.54V53.12c0-6.62-2.83-10.54-7.62-10.54h-15.24c-4.79,0-7.62-3.91-7.62-10.54V10.96c0-6.62,2.83-10.54,7.62-10.54h137.17c4.79,0,7.62,3.92,7.62,10.54v21.08c0,6.62,2.83,10.54,7.62,10.54h15.24c4.79,0,7.62,3.91,7.62,10.54v105.38c0,6.62-2.83,10.54-7.62,10.54h-15.24c-4.79,0-7.62,3.91-7.62,10.54v21.08c0,6.62-2.83,10.54-7.62,10.54h-137.17c-4.79,0-7.62-3.91-7.62-10.54ZM705.64,169.03h45.72c4.79,0,7.62-3.91,7.62-10.54V53.12c0-6.62-2.83-10.54-7.62-10.54h-45.72c-4.79,0-7.62,3.91-7.62,10.54v105.38c0,6.62,2.83,10.54,7.62,10.54Z"/>
      <path class="cls-1" d="M860.88,200.65v-21.08c0-6.62,2.83-10.54,7.62-10.54h15.24c4.79,0,7.62-3.91,7.62-10.54v-21.08c0-6.62-2.83-10.54-7.62-10.54h-15.24c-4.79,0-7.62-3.91-7.62-10.54v-21.08c0-6.62-2.83-10.54-7.62-10.54h-15.24c-4.79,0-7.62-3.91-7.62-10.54v-21.08c0-6.62-2.83-10.54-7.62-10.54h-15.24c-4.79,0-7.62-3.91-7.62-10.54V10.96c0-6.62,2.83-10.54,7.62-10.54h76.2c4.79,0,7.62,3.92,7.62,10.54v21.08c0,6.62-2.83,10.54-7.62,10.54h-15.24c-4.79,0-7.62,3.91-7.62,10.54v21.08c0,6.62,2.83,10.54,7.62,10.54h45.72c4.79,0,7.62-3.91,7.62-10.54V10.96c0-6.62,2.83-10.54,7.62-10.54h76.2c4.79,0,7.62,3.92,7.62,10.54v21.08c0,6.62-2.83,10.54-7.62,10.54h-15.24c-4.79,0-7.62,3.91-7.62,10.54v21.08c0,6.62-2.83,10.54-7.62,10.54h-15.24c-4.79,0-7.62,3.91-7.62,10.54v21.08c0,6.62-2.83,10.54-7.62,10.54h-15.24c-4.79,0-7.62,3.91-7.62,10.54v21.08c0,6.62,2.83,10.54,7.62,10.54h15.24c4.79,0,7.62,3.91,7.62,10.54v21.08c0,6.62-2.83,10.54-7.62,10.54h-76.21c-4.79,0-7.62-3.91-7.62-10.54Z"/>
      <path class="cls-1" d="M.42,406.01v-21.08c0-6.62,2.83-10.54,7.62-10.54h15.24c4.79,0,7.62-3.91,7.62-10.54v-105.38c0-6.62-2.83-10.54-7.62-10.54h-15.24c-4.79,0-7.62-3.91-7.62-10.54v-21.08c0-6.62,2.83-10.54,7.62-10.54h45.72c4.79,0,7.62,3.91,7.62,10.54v63.23c0,6.62,2.83,10.54,7.62,10.54h45.72c4.79,0,7.62-3.92,7.62-10.54v-21.08c0-6.62-2.83-10.54-7.62-10.54h-15.24c-4.79,0-7.62-3.91-7.62-10.54v-21.08c0-6.62,2.83-10.54,7.62-10.54h106.69c4.79,0,7.62,3.91,7.62,10.54v21.08c0,6.62-2.83,10.54-7.62,10.54h-15.24c-4.79,0-7.62,3.91-7.62,10.54v105.38c0,6.62,2.83,10.54,7.62,10.54h15.24c4.79,0,7.62,3.92,7.62,10.54v21.08c0,6.62-2.83,10.54-7.62,10.54h-106.69c-4.79,0-7.62-3.91-7.62-10.54v-21.08c0-6.62,2.83-10.54,7.62-10.54h15.24c4.79,0,7.62-3.91,7.62-10.54v-21.08c0-6.62-2.83-10.54-7.62-10.54h-45.72c-4.79,0-7.62,3.91-7.62,10.54v63.23c0,6.62-2.83,10.54-7.62,10.54H8.04c-4.79,0-7.62-3.91-7.62-10.54Z"/>
      <path class="cls-1" d="M315.69,216.32v21.08c0,6.62-2.83,10.54-7.62,10.54h-15.24c-4.79,0-7.62,3.91-7.62,10.54v105.38c0,6.62,2.83,10.54,7.62,10.54h45.72c4.79,0,7.62-3.91,7.62-10.54v-147.53c0-6.62,2.83-10.54,7.62-10.54h76.2c4.79,0,7.62,3.91,7.62,10.54v21.08c0,6.62-2.83,10.54-7.62,10.54h-15.24c-4.79,0-7.62,3.91-7.62,10.54v105.38c0,6.62-2.83,10.54-7.62,10.54h-15.24c-4.79,0-7.62,3.92-7.62,10.54v21.08c0,6.62-2.83,10.54-7.62,10.54h-76.21c-4.79,0-7.62-3.91-7.62-10.54v-21.08c0-6.62-2.83-10.54-7.62-10.54h-15.24c-4.79,0-7.62-3.91-7.62-10.54v-105.38c0-6.62-2.83-10.54-7.62-10.54h-15.24c-4.79,0-7.62-3.91-7.62-10.54v-21.08c0-6.62,3.05-10.54,7.84-10.54h75.99c4.79,0,7.62,3.91,7.62,10.54Z"/>
      <path class="cls-1" d="M439.36,363.56v-104.78c0-6.02,3.48-10.84,7.84-10.84h14.81c4.35,0,7.84-4.82,7.84-10.84v-20.47c0-6.02,3.48-10.84,7.84-10.84h45.29c4.35,0,7.84,4.82,7.84,10.84v20.47c0,6.02,3.48,10.84,7.84,10.84h14.81c4.35,0,7.84-4.82,7.84-10.84v-20.47c0-6.02,3.48-10.84,7.84-10.84h14.81c4.35,0,7.84,4.82,7.84,10.84v62.63c0,6.02-3.48,10.84-7.84,10.84h-45.29c-4.35,0-7.84-4.82-7.84-10.84v-20.47c0-6.02-3.48-10.84-7.84-10.84h-14.81c-4.35,0-7.84,4.82-7.84,10.84v104.78c0,6.02,3.48,10.84,7.84,10.84h14.81c4.35,0,7.84-4.82,7.84-10.84v-20.47c0-6.02,3.48-10.84,7.84-10.84h75.77c4.35,0,7.84,4.82,7.84,10.84v20.47c0,6.02-3.48,10.84-7.84,10.84h-14.81c-4.35,0-7.84,4.82-7.84,10.84v20.47c0,6.02-3.48,10.84-7.84,10.84h-106.25c-4.35,0-7.84-4.82-7.84-10.84v-20.47c0-6.02-3.48-10.84-7.84-10.84h-14.81c-4.35,0-7.84-4.82-7.84-10.84Z"/>
      <path class="cls-1" d="M632.7,406.01v-21.08c0-6.62,2.83-10.54,7.62-10.54h15.24c4.79,0,7.62-3.91,7.62-10.54v-105.38c0-6.62-2.83-10.54-7.62-10.54h-15.24c-4.79,0-7.62-3.91-7.62-10.54v-21.08c0-6.62,2.83-10.54,7.62-10.54h45.72c4.79,0,7.62,3.91,7.62,10.54v63.23c0,6.62,2.83,10.54,7.62,10.54h45.72c4.79,0,7.62-3.92,7.62-10.54v-21.08c0-6.62-2.83-10.54-7.62-10.54h-15.24c-4.79,0-7.62-3.91-7.62-10.54v-21.08c0-6.62,2.83-10.54,7.62-10.54h106.69c4.79,0,7.62,3.91,7.62,10.54v21.08c0,6.62-2.83,10.54-7.62,10.54h-15.24c-4.79,0-7.62,3.91-7.62,10.54v105.38c0,6.62,2.83,10.54,7.62,10.54h15.24c4.79,0,7.62,3.92,7.62,10.54v21.08c0,6.62-2.83,10.54-7.62,10.54h-106.69c-4.79,0-7.62-3.91-7.62-10.54v-21.08c0-6.62,2.83-10.54,7.62-10.54h15.24c4.79,0,7.62-3.91,7.62-10.54v-21.08c0-6.62-2.83-10.54-7.62-10.54h-45.72c-4.79,0-7.62,3.91-7.62,10.54v63.23c0,6.62-2.83,10.54-7.62,10.54h-45.72c-4.79,0-7.62-3.91-7.62-10.54Z"/>
      <path class="cls-1" d="M856.53,406.01v-21.08c0-6.62,2.83-10.54,7.62-10.54h15.24c4.79,0,7.62-3.91,7.62-10.54v-105.38c0-6.62-2.83-10.54-7.62-10.54h-15.24c-4.79,0-7.62-3.91-7.62-10.54v-21.08c0-6.62,2.83-10.54,7.62-10.54h167.65c4.79,0,7.62,3.91,7.62,10.54v63.23c0,6.62-2.83,10.54-7.62,10.54h-15.24c-4.79,0-7.62-3.92-7.62-10.54v-21.08c0-6.62-2.83-10.54-7.62-10.54h-45.72c-4.79,0-7.62,3.91-7.62,10.54v21.08c0,6.62,2.83,10.54,7.62,10.54h15.24c4.79,0,7.62,3.91,7.62,10.54v21.08c0,6.62-2.83,10.54-7.62,10.54h-15.24c-4.79,0-7.62,3.91-7.62,10.54v21.08c0,6.62,2.83,10.54,7.62,10.54h45.72c4.79,0,7.62-3.91,7.62-10.54v-21.08c0-6.62,2.83-10.54,7.62-10.54h15.24c4.79,0,7.62,3.91,7.62,10.54v63.23c0,6.62-2.83,10.54-7.62,10.54h-167.65c-4.79,0-7.62-3.91-7.62-10.54Z"/>
      <path class="cls-1" d="M1057.49,374.39h76.2c4.79,0,7.62-3.91,7.62-10.54v-21.08c0-6.62-2.83-10.54-7.62-10.54h-45.72c-4.79,0-7.62-3.91-7.62-10.54v-21.08c0-6.62-2.83-10.54-7.62-10.54h-15.24c-4.79,0-7.62-3.92-7.62-10.54v-21.08c0-6.62,2.83-10.54,7.62-10.54h15.24c4.79,0,7.62-3.91,7.62-10.54v-21.08c0-6.62,2.83-10.54,7.62-10.54h45.72c4.79,0,7.62,3.91,7.62,10.54v21.08c0,6.62,2.83,10.54,7.62,10.54h15.24c4.79,0,7.62-3.91,7.62-10.54v-21.08c0-6.62,2.83-10.54,7.62-10.54h15.24c4.79,0,7.62,3.91,7.62,10.54v63.23c0,6.62-2.83,10.54-7.62,10.54h-47.25c-3.92,0-6.1-4.82-6.1-10.54v-21.08c0-6.62-2.83-10.54-7.62-10.54h-45.72c-4.79,0-7.62,3.91-7.62,10.54v21.08c0,6.62,2.83,10.54,7.62,10.54h45.72c4.79,0,7.62,3.91,7.62,10.54v21.08c0,6.62,2.83,10.54,7.62,10.54h45.72c4.79,0,7.62,3.91,7.62,10.54v21.08c0,6.62-2.83,10.54-7.62,10.54h-15.24c-4.79,0-7.62,3.92-7.62,10.54v21.08c0,6.62-2.83,10.54-7.62,10.54h-106.69c-4.79,0-7.62-3.91-7.62-10.54v-21.08c0-6.62,2.83-10.54,7.62-10.54Z"/>
    </g>
  </g>
</svg>