<?xml version="1.0" encoding="UTF-8"?>
<svg id="Layer_2" data-name="Layer 2" xmlns="http://www.w3.org/2000/svg" viewBox="0 0 1214.09 418.13">
  <defs>
    <style>
      .cls-1 {
        stroke: #fff;
        stroke-width: .97px;
      }
    </style>
  </defs>
  <g id="Home_Page_Text_copy_2" data-name="Home Page Text copy 2">
    <g id="Bianzhidai_Ring" data-name="Bianzhidai Ring">
      <path class="cls-1" d="M22.56,29.53c12.49,0,21.79,9.3,21.79,21.79s-9.3,22.08-21.79,22.08S.48,64.39.48,51.32s9.59-21.79,22.08-21.79ZM22.56,58.58c12.49,0,21.79,9.3,21.79,21.79s-9.3,22.08-21.79,22.08S.48,93.44.48,80.37s9.59-21.79,22.08-21.79ZM22.56,145.73c12.49,0,21.79,9.3,21.79,21.79s-9.3,22.08-21.79,22.08S.48,180.59.48,167.52s9.59-21.79,22.08-21.79ZM17.91,51.32v.58c0,2.32,1.74,4.07,4.07,4.07h.58c2.32,0,4.07-1.74,4.07-4.07v-.58c0-2.32-1.74-4.07-4.07-4.07h-.58c-2.32,0-4.07,1.74-4.07,4.07ZM17.91,80.37v.58c0,2.32,1.74,4.07,4.07,4.07h.58c2.32,0,4.07-1.74,4.07-4.07v-.58c0-2.32-1.74-4.07-4.07-4.07h-.58c-2.32,0-4.07,1.74-4.07,4.07ZM17.91,167.52v.58c0,2.32,1.74,4.07,4.07,4.07h.58c2.32,0,4.07-1.74,4.07-4.07v-.58c0-2.32-1.74-4.07-4.07-4.07h-.58c-2.32,0-4.07,1.74-4.07,4.07ZM51.61.48c12.49,0,21.79,9.3,21.79,21.79s-9.3,22.08-21.79,22.08-22.08-9.01-22.08-22.08S39.12.48,51.61.48ZM51.61,87.63c12.49,0,21.79,9.3,21.79,21.79s-9.3,22.08-21.79,22.08-22.08-9-22.08-22.08,9.59-21.79,22.08-21.79ZM51.61,174.78c12.49,0,21.79,9.3,21.79,21.79s-9.3,22.08-21.79,22.08-22.08-9.01-22.08-22.08,9.59-21.79,22.08-21.79ZM46.96,22.27v.58c0,2.32,1.74,4.07,4.07,4.07h.58c2.32,0,4.07-1.74,4.07-4.07v-.58c0-2.32-1.74-4.07-4.07-4.07h-.58c-2.32,0-4.07,1.74-4.07,4.07ZM46.96,109.42v.58c0,2.32,1.74,4.07,4.07,4.07h.58c2.32,0,4.07-1.74,4.07-4.07v-.58c0-2.32-1.74-4.07-4.07-4.07h-.58c-2.32,0-4.07,1.74-4.07,4.07ZM46.96,196.57v.58c0,2.32,1.74,4.07,4.07,4.07h.58c2.32,0,4.07-1.74,4.07-4.07v-.58c0-2.32-1.74-4.07-4.07-4.07h-.58c-2.32,0-4.07,1.74-4.07,4.07ZM80.66.48c12.49,0,21.79,9.3,21.79,21.79s-9.3,22.08-21.79,22.08-22.08-9.01-22.08-22.08S68.17.48,80.66.48ZM80.66,87.63c12.49,0,21.79,9.3,21.79,21.79s-9.3,22.08-21.79,22.08-22.08-9-22.08-22.08,9.59-21.79,22.08-21.79ZM80.66,174.78c12.49,0,21.79,9.3,21.79,21.79s-9.3,22.08-21.79,22.08-22.08-9.01-22.08-22.08,9.59-21.79,22.08-21.79ZM76.01,22.27v.58c0,2.32,1.74,4.07,4.07,4.07h.58c2.32,0,4.07-1.74,4.07-4.07v-.58c0-2.32-1.74-4.07-4.07-4.07h-.58c-2.32,0-4.07,1.74-4.07,4.07ZM76.01,109.42v.58c0,2.32,1.74,4.07,4.07,4.07h.58c2.32,0,4.07-1.74,4.07-4.07v-.58c0-2.32-1.74-4.07-4.07-4.07h-.58c-2.32,0-4.07,1.74-4.07,4.07ZM76.01,196.57v.58c0,2.32,1.74,4.07,4.07,4.07h.58c2.32,0,4.07-1.74,4.07-4.07v-.58c0-2.32-1.74-4.07-4.07-4.07h-.58c-2.32,0-4.07,1.74-4.07,4.07ZM109.71.48c12.49,0,21.79,9.3,21.79,21.79s-9.3,22.08-21.79,22.08-22.08-9.01-22.08-22.08S97.22.48,109.71.48ZM109.71,87.63c12.49,0,21.79,9.3,21.79,21.79s-9.3,22.08-21.79,22.08-22.08-9-22.08-22.08,9.59-21.79,22.08-21.79ZM109.71,174.78c12.49,0,21.79,9.3,21.79,21.79s-9.3,22.08-21.79,22.08-22.08-9.01-22.08-22.08,9.59-21.79,22.08-21.79ZM105.06,22.27v.58c0,2.32,1.74,4.07,4.07,4.07h.58c2.32,0,4.07-1.74,4.07-4.07v-.58c0-2.32-1.74-4.07-4.07-4.07h-.58c-2.32,0-4.07,1.74-4.07,4.07ZM105.06,109.42v.58c0,2.32,1.74,4.07,4.07,4.07h.58c2.32,0,4.07-1.74,4.07-4.07v-.58c0-2.32-1.74-4.07-4.07-4.07h-.58c-2.32,0-4.07,1.74-4.07,4.07ZM105.06,196.57v.58c0,2.32,1.74,4.07,4.07,4.07h.58c2.32,0,4.07-1.74,4.07-4.07v-.58c0-2.32-1.74-4.07-4.07-4.07h-.58c-2.32,0-4.07,1.74-4.07,4.07ZM138.76.48c12.49,0,21.79,9.3,21.79,21.79s-9.3,22.08-21.79,22.08-22.08-9.01-22.08-22.08S126.27.48,138.76.48ZM138.76,87.63c12.49,0,21.79,9.3,21.79,21.79s-9.3,22.08-21.79,22.08-22.08-9-22.08-22.08,9.59-21.79,22.08-21.79ZM138.76,174.78c12.49,0,21.79,9.3,21.79,21.79s-9.3,22.08-21.79,22.08-22.08-9.01-22.08-22.08,9.59-21.79,22.08-21.79ZM134.11,22.27v.58c0,2.32,1.74,4.07,4.07,4.07h.58c2.32,0,4.07-1.74,4.07-4.07v-.58c0-2.32-1.74-4.07-4.07-4.07h-.58c-2.32,0-4.07,1.74-4.07,4.07ZM134.11,109.42v.58c0,2.32,1.74,4.07,4.07,4.07h.58c2.32,0,4.07-1.74,4.07-4.07v-.58c0-2.32-1.74-4.07-4.07-4.07h-.58c-2.32,0-4.07,1.74-4.07,4.07ZM134.11,196.57v.58c0,2.32,1.74,4.07,4.07,4.07h.58c2.32,0,4.07-1.74,4.07-4.07v-.58c0-2.32-1.74-4.07-4.07-4.07h-.58c-2.32,0-4.07,1.74-4.07,4.07ZM167.81,29.53c12.49,0,21.79,9.3,21.79,21.79s-9.3,22.08-21.79,22.08-22.08-9-22.08-22.08,9.59-21.79,22.08-21.79ZM167.81,116.68c12.49,0,21.79,9.3,21.79,21.79s-9.3,22.08-21.79,22.08-22.08-9.01-22.08-22.08,9.59-21.79,22.08-21.79ZM167.81,145.73c12.49,0,21.79,9.3,21.79,21.79s-9.3,22.08-21.79,22.08-22.08-9.01-22.08-22.08,9.59-21.79,22.08-21.79ZM163.16,51.32v.58c0,2.32,1.74,4.07,4.07,4.07h.58c2.32,0,4.07-1.74,4.07-4.07v-.58c0-2.32-1.74-4.07-4.07-4.07h-.58c-2.32,0-4.07,1.74-4.07,4.07ZM163.16,138.47v.58c0,2.32,1.74,4.07,4.07,4.07h.58c2.32,0,4.07-1.74,4.07-4.07v-.58c0-2.32-1.74-4.07-4.07-4.07h-.58c-2.32,0-4.07,1.74-4.07,4.07ZM163.16,167.52v.58c0,2.32,1.74,4.07,4.07,4.07h.58c2.32,0,4.07-1.74,4.07-4.07v-.58c0-2.32-1.74-4.07-4.07-4.07h-.58c-2.32,0-4.07,1.74-4.07,4.07Z"/>
      <path class="cls-1" d="M219.81,174.78c12.49,0,21.79,9.3,21.79,21.79s-9.3,22.08-21.79,22.08-22.08-9.01-22.08-22.08,9.59-21.79,22.08-21.79ZM215.16,196.57v.58c0,2.32,1.74,4.07,4.07,4.07h.58c2.32,0,4.07-1.74,4.07-4.07v-.58c0-2.32-1.74-4.07-4.07-4.07h-.58c-2.32,0-4.07,1.74-4.07,4.07ZM248.86,116.68c12.49,0,21.79,9.3,21.79,21.79s-9.3,22.08-21.79,22.08-22.08-9.01-22.08-22.08,9.59-21.79,22.08-21.79ZM248.86,145.73c12.49,0,21.79,9.3,21.79,21.79s-9.3,22.08-21.79,22.08-22.08-9.01-22.08-22.08,9.59-21.79,22.08-21.79ZM244.21,138.47v.58c0,2.32,1.74,4.07,4.07,4.07h.58c2.32,0,4.07-1.74,4.07-4.07v-.58c0-2.32-1.74-4.07-4.07-4.07h-.58c-2.32,0-4.07,1.74-4.07,4.07ZM244.21,167.52v.58c0,2.32,1.74,4.07,4.07,4.07h.58c2.32,0,4.07-1.74,4.07-4.07v-.58c0-2.32-1.74-4.07-4.07-4.07h-.58c-2.32,0-4.07,1.74-4.07,4.07ZM277.91,58.58c12.49,0,21.79,9.3,21.79,21.79s-9.3,22.08-21.79,22.08-22.08-9-22.08-22.08,9.59-21.79,22.08-21.79ZM277.91,87.63c12.49,0,21.79,9.3,21.79,21.79s-9.3,22.08-21.79,22.08-22.08-9-22.08-22.08,9.59-21.79,22.08-21.79ZM277.91,116.68c12.49,0,21.79,9.3,21.79,21.79s-9.3,22.08-21.79,22.08-22.08-9.01-22.08-22.08,9.59-21.79,22.08-21.79ZM273.26,80.37v.58c0,2.32,1.74,4.07,4.07,4.07h.58c2.32,0,4.07-1.74,4.07-4.07v-.58c0-2.32-1.74-4.07-4.07-4.07h-.58c-2.32,0-4.07,1.74-4.07,4.07ZM273.26,109.42v.58c0,2.32,1.74,4.07,4.07,4.07h.58c2.32,0,4.07-1.74,4.07-4.07v-.58c0-2.32-1.74-4.07-4.07-4.07h-.58c-2.32,0-4.07,1.74-4.07,4.07ZM273.26,138.47v.58c0,2.32,1.74,4.07,4.07,4.07h.58c2.32,0,4.07-1.74,4.07-4.07v-.58c0-2.32-1.74-4.07-4.07-4.07h-.58c-2.32,0-4.07,1.74-4.07,4.07ZM306.96.48c12.49,0,21.79,9.3,21.79,21.79s-9.3,22.08-21.79,22.08-22.08-9.01-22.08-22.08S294.47.48,306.96.48ZM306.96,29.53c12.49,0,21.79,9.3,21.79,21.79s-9.3,22.08-21.79,22.08-22.08-9-22.08-22.08,9.59-21.79,22.08-21.79ZM306.96,116.68c12.49,0,21.79,9.3,21.79,21.79s-9.3,22.08-21.79,22.08-22.08-9.01-22.08-22.08,9.59-21.79,22.08-21.79ZM302.31,22.27v.58c0,2.32,1.74,4.07,4.07,4.07h.58c2.32,0,4.07-1.74,4.07-4.07v-.58c0-2.32-1.74-4.07-4.07-4.07h-.58c-2.32,0-4.07,1.74-4.07,4.07ZM302.31,51.32v.58c0,2.32,1.74,4.07,4.07,4.07h.58c2.32,0,4.07-1.74,4.07-4.07v-.58c0-2.32-1.74-4.07-4.07-4.07h-.58c-2.32,0-4.07,1.74-4.07,4.07ZM302.31,138.47v.58c0,2.32,1.74,4.07,4.07,4.07h.58c2.32,0,4.07-1.74,4.07-4.07v-.58c0-2.32-1.74-4.07-4.07-4.07h-.58c-2.32,0-4.07,1.74-4.07,4.07ZM336.01,58.58c12.49,0,21.79,9.3,21.79,21.79s-9.3,22.08-21.79,22.08-22.08-9-22.08-22.08,9.59-21.79,22.08-21.79ZM336.01,87.63c12.49,0,21.79,9.3,21.79,21.79s-9.3,22.08-21.79,22.08-22.08-9-22.08-22.08,9.59-21.79,22.08-21.79ZM336.01,116.68c12.49,0,21.79,9.3,21.79,21.79s-9.3,22.08-21.79,22.08-22.08-9.01-22.08-22.08,9.59-21.79,22.08-21.79ZM331.36,80.37v.58c0,2.32,1.74,4.07,4.07,4.07h.58c2.32,0,4.07-1.74,4.07-4.07v-.58c0-2.32-1.74-4.07-4.07-4.07h-.58c-2.32,0-4.07,1.74-4.07,4.07ZM331.36,109.42v.58c0,2.32,1.74,4.07,4.07,4.07h.58c2.32,0,4.07-1.74,4.07-4.07v-.58c0-2.32-1.74-4.07-4.07-4.07h-.58c-2.32,0-4.07,1.74-4.07,4.07ZM331.36,138.47v.58c0,2.32,1.74,4.07,4.07,4.07h.58c2.32,0,4.07-1.74,4.07-4.07v-.58c0-2.32-1.74-4.07-4.07-4.07h-.58c-2.32,0-4.07,1.74-4.07,4.07ZM365.06,116.68c12.49,0,21.79,9.3,21.79,21.79s-9.3,22.08-21.79,22.08-22.08-9.01-22.08-22.08,9.59-21.79,22.08-21.79ZM365.06,145.73c12.49,0,21.79,9.3,21.79,21.79s-9.3,22.08-21.79,22.08-22.08-9.01-22.08-22.08,9.59-21.79,22.08-21.79ZM360.41,138.47v.58c0,2.32,1.74,4.07,4.07,4.07h.58c2.32,0,4.07-1.74,4.07-4.07v-.58c0-2.32-1.74-4.07-4.07-4.07h-.58c-2.32,0-4.07,1.74-4.07,4.07ZM360.41,167.52v.58c0,2.32,1.74,4.07,4.07,4.07h.58c2.32,0,4.07-1.74,4.07-4.07v-.58c0-2.32-1.74-4.07-4.07-4.07h-.58c-2.32,0-4.07,1.74-4.07,4.07ZM394.11,174.78c12.49,0,21.79,9.3,21.79,21.79s-9.3,22.08-21.79,22.08-22.08-9.01-22.08-22.08,9.59-21.79,22.08-21.79ZM389.46,196.57v.58c0,2.32,1.74,4.07,4.07,4.07h.58c2.32,0,4.07-1.74,4.07-4.07v-.58c0-2.32-1.74-4.07-4.07-4.07h-.58c-2.32,0-4.07,1.74-4.07,4.07Z"/>
      <path class="cls-1" d="M449.01.48c12.49,0,21.79,9.3,21.79,21.79s-9.3,22.08-21.79,22.08-22.08-9.01-22.08-22.08S436.52.48,449.01.48ZM449.01,29.53c12.49,0,21.79,9.3,21.79,21.79s-9.3,22.08-21.79,22.08-22.08-9-22.08-22.08,9.59-21.79,22.08-21.79ZM449.01,58.58c12.49,0,21.79,9.3,21.79,21.79s-9.3,22.08-21.79,22.08-22.08-9-22.08-22.08,9.59-21.79,22.08-21.79ZM449.01,87.63c12.49,0,21.79,9.3,21.79,21.79s-9.3,22.08-21.79,22.08-22.08-9-22.08-22.08,9.59-21.79,22.08-21.79ZM449.01,116.68c12.49,0,21.79,9.3,21.79,21.79s-9.3,22.08-21.79,22.08-22.08-9.01-22.08-22.08,9.59-21.79,22.08-21.79ZM449.01,145.73c12.49,0,21.79,9.3,21.79,21.79s-9.3,22.08-21.79,22.08-22.08-9.01-22.08-22.08,9.59-21.79,22.08-21.79ZM449.01,174.78c12.49,0,21.79,9.3,21.79,21.79s-9.3,22.08-21.79,22.08-22.08-9.01-22.08-22.08,9.59-21.79,22.08-21.79ZM444.37,22.27v.58c0,2.32,1.74,4.07,4.07,4.07h.58c2.32,0,4.07-1.74,4.07-4.07v-.58c0-2.32-1.74-4.07-4.07-4.07h-.58c-2.32,0-4.07,1.74-4.07,4.07ZM444.37,51.32v.58c0,2.32,1.74,4.07,4.07,4.07h.58c2.32,0,4.07-1.74,4.07-4.07v-.58c0-2.32-1.74-4.07-4.07-4.07h-.58c-2.32,0-4.07,1.74-4.07,4.07ZM444.37,80.37v.58c0,2.32,1.74,4.07,4.07,4.07h.58c2.32,0,4.07-1.74,4.07-4.07v-.58c0-2.32-1.74-4.07-4.07-4.07h-.58c-2.32,0-4.07,1.74-4.07,4.07ZM444.37,109.42v.58c0,2.32,1.74,4.07,4.07,4.07h.58c2.32,0,4.07-1.74,4.07-4.07v-.58c0-2.32-1.74-4.07-4.07-4.07h-.58c-2.32,0-4.07,1.74-4.07,4.07ZM444.37,138.47v.58c0,2.32,1.74,4.07,4.07,4.07h.58c2.32,0,4.07-1.74,4.07-4.07v-.58c0-2.32-1.74-4.07-4.07-4.07h-.58c-2.32,0-4.07,1.74-4.07,4.07ZM444.37,167.52v.58c0,2.32,1.74,4.07,4.07,4.07h.58c2.32,0,4.07-1.74,4.07-4.07v-.58c0-2.32-1.74-4.07-4.07-4.07h-.58c-2.32,0-4.07,1.74-4.07,4.07ZM444.37,196.57v.58c0,2.32,1.74,4.07,4.07,4.07h.58c2.32,0,4.07-1.74,4.07-4.07v-.58c0-2.32-1.74-4.07-4.07-4.07h-.58c-2.32,0-4.07,1.74-4.07,4.07ZM478.06,29.53c12.49,0,21.79,9.3,21.79,21.79s-9.3,22.08-21.79,22.08-22.08-9-22.08-22.08,9.59-21.79,22.08-21.79ZM473.41,51.32v.58c0,2.32,1.74,4.07,4.07,4.07h.58c2.32,0,4.07-1.74,4.07-4.07v-.58c0-2.32-1.74-4.07-4.07-4.07h-.58c-2.32,0-4.07,1.74-4.07,4.07ZM507.11,58.58c12.49,0,21.79,9.3,21.79,21.79s-9.3,22.08-21.79,22.08-22.08-9-22.08-22.08,9.59-21.79,22.08-21.79ZM507.11,87.63c12.49,0,21.79,9.3,21.79,21.79s-9.3,22.08-21.79,22.08-22.08-9-22.08-22.08,9.59-21.79,22.08-21.79ZM502.46,80.37v.58c0,2.32,1.74,4.07,4.07,4.07h.58c2.32,0,4.07-1.74,4.07-4.07v-.58c0-2.32-1.74-4.07-4.07-4.07h-.58c-2.32,0-4.07,1.74-4.07,4.07ZM502.46,109.42v.58c0,2.32,1.74,4.07,4.07,4.07h.58c2.32,0,4.07-1.74,4.07-4.07v-.58c0-2.32-1.74-4.07-4.07-4.07h-.58c-2.32,0-4.07,1.74-4.07,4.07ZM536.16,116.68c12.49,0,21.79,9.3,21.79,21.79s-9.3,22.08-21.79,22.08-22.08-9.01-22.08-22.08,9.59-21.79,22.08-21.79ZM531.51,138.47v.58c0,2.32,1.74,4.07,4.07,4.07h.58c2.32,0,4.07-1.74,4.07-4.07v-.58c0-2.32-1.74-4.07-4.07-4.07h-.58c-2.32,0-4.07,1.74-4.07,4.07ZM565.21,145.73c12.49,0,21.79,9.3,21.79,21.79s-9.3,22.08-21.79,22.08-22.08-9.01-22.08-22.08,9.59-21.79,22.08-21.79ZM560.56,167.52v.58c0,2.32,1.74,4.07,4.07,4.07h.58c2.32,0,4.07-1.74,4.07-4.07v-.58c0-2.32-1.74-4.07-4.07-4.07h-.58c-2.32,0-4.07,1.74-4.07,4.07ZM594.26.48c12.49,0,21.79,9.3,21.79,21.79s-9.3,22.08-21.79,22.08-22.08-9.01-22.08-22.08S581.77.48,594.26.48ZM594.26,29.53c12.49,0,21.79,9.3,21.79,21.79s-9.3,22.08-21.79,22.08-22.08-9-22.08-22.08,9.59-21.79,22.08-21.79ZM594.26,58.58c12.49,0,21.79,9.3,21.79,21.79s-9.3,22.08-21.79,22.08-22.08-9-22.08-22.08,9.59-21.79,22.08-21.79ZM594.26,87.63c12.49,0,21.79,9.3,21.79,21.79s-9.3,22.08-21.79,22.08-22.08-9-22.08-22.08,9.59-21.79,22.08-21.79ZM594.26,116.68c12.49,0,21.79,9.3,21.79,21.79s-9.3,22.08-21.79,22.08-22.08-9.01-22.08-22.08,9.59-21.79,22.08-21.79ZM594.26,145.73c12.49,0,21.79,9.3,21.79,21.79s-9.3,22.08-21.79,22.08-22.08-9.01-22.08-22.08,9.59-21.79,22.08-21.79ZM594.26,174.78c12.49,0,21.79,9.3,21.79,21.79s-9.3,22.08-21.79,22.08-22.08-9.01-22.08-22.08,9.59-21.79,22.08-21.79ZM589.61,22.27v.58c0,2.32,1.74,4.07,4.07,4.07h.58c2.32,0,4.07-1.74,4.07-4.07v-.58c0-2.32-1.74-4.07-4.07-4.07h-.58c-2.32,0-4.07,1.74-4.07,4.07ZM589.61,51.32v.58c0,2.32,1.74,4.07,4.07,4.07h.58c2.32,0,4.07-1.74,4.07-4.07v-.58c0-2.32-1.74-4.07-4.07-4.07h-.58c-2.32,0-4.07,1.74-4.07,4.07ZM589.61,80.37v.58c0,2.32,1.74,4.07,4.07,4.07h.58c2.32,0,4.07-1.74,4.07-4.07v-.58c0-2.32-1.74-4.07-4.07-4.07h-.58c-2.32,0-4.07,1.74-4.07,4.07ZM589.61,109.42v.58c0,2.32,1.74,4.07,4.07,4.07h.58c2.32,0,4.07-1.74,4.07-4.07v-.58c0-2.32-1.74-4.07-4.07-4.07h-.58c-2.32,0-4.07,1.74-4.07,4.07ZM589.61,138.47v.58c0,2.32,1.74,4.07,4.07,4.07h.58c2.32,0,4.07-1.74,4.07-4.07v-.58c0-2.32-1.74-4.07-4.07-4.07h-.58c-2.32,0-4.07,1.74-4.07,4.07ZM589.61,167.52v.58c0,2.32,1.74,4.07,4.07,4.07h.58c2.32,0,4.07-1.74,4.07-4.07v-.58c0-2.32-1.74-4.07-4.07-4.07h-.58c-2.32,0-4.07,1.74-4.07,4.07ZM589.61,196.57v.58c0,2.32,1.74,4.07,4.07,4.07h.58c2.32,0,4.07-1.74,4.07-4.07v-.58c0-2.32-1.74-4.07-4.07-4.07h-.58c-2.32,0-4.07,1.74-4.07,4.07Z"/>
      <path class="cls-1" d="M649.17.48c12.49,0,21.79,9.3,21.79,21.79s-9.3,22.08-21.79,22.08-22.08-9.01-22.08-22.08S636.68.48,649.17.48ZM649.17,29.53c12.49,0,21.79,9.3,21.79,21.79s-9.3,22.08-21.79,22.08-22.08-9-22.08-22.08,9.59-21.79,22.08-21.79ZM649.17,58.58c12.49,0,21.79,9.3,21.79,21.79s-9.3,22.08-21.79,22.08-22.08-9-22.08-22.08,9.59-21.79,22.08-21.79ZM649.17,87.63c12.49,0,21.79,9.3,21.79,21.79s-9.3,22.08-21.79,22.08-22.08-9-22.08-22.08,9.59-21.79,22.08-21.79ZM649.17,116.68c12.49,0,21.79,9.3,21.79,21.79s-9.3,22.08-21.79,22.08-22.08-9.01-22.08-22.08,9.59-21.79,22.08-21.79ZM649.17,145.73c12.49,0,21.79,9.3,21.79,21.79s-9.3,22.08-21.79,22.08-22.08-9.01-22.08-22.08,9.59-21.79,22.08-21.79ZM649.17,174.78c12.49,0,21.79,9.3,21.79,21.79s-9.3,22.08-21.79,22.08-22.08-9.01-22.08-22.08,9.59-21.79,22.08-21.79ZM644.52,22.27v.58c0,2.32,1.74,4.07,4.07,4.07h.58c2.32,0,4.07-1.74,4.07-4.07v-.58c0-2.32-1.74-4.07-4.07-4.07h-.58c-2.32,0-4.07,1.74-4.07,4.07ZM644.52,51.32v.58c0,2.32,1.74,4.07,4.07,4.07h.58c2.32,0,4.07-1.74,4.07-4.07v-.58c0-2.32-1.74-4.07-4.07-4.07h-.58c-2.32,0-4.07,1.74-4.07,4.07ZM644.52,80.37v.58c0,2.32,1.74,4.07,4.07,4.07h.58c2.32,0,4.07-1.74,4.07-4.07v-.58c0-2.32-1.74-4.07-4.07-4.07h-.58c-2.32,0-4.07,1.74-4.07,4.07ZM644.52,109.42v.58c0,2.32,1.74,4.07,4.07,4.07h.58c2.32,0,4.07-1.74,4.07-4.07v-.58c0-2.32-1.74-4.07-4.07-4.07h-.58c-2.32,0-4.07,1.74-4.07,4.07ZM644.52,138.47v.58c0,2.32,1.74,4.07,4.07,4.07h.58c2.32,0,4.07-1.74,4.07-4.07v-.58c0-2.32-1.74-4.07-4.07-4.07h-.58c-2.32,0-4.07,1.74-4.07,4.07ZM644.52,167.52v.58c0,2.32,1.74,4.07,4.07,4.07h.58c2.32,0,4.07-1.74,4.07-4.07v-.58c0-2.32-1.74-4.07-4.07-4.07h-.58c-2.32,0-4.07,1.74-4.07,4.07ZM644.52,196.57v.58c0,2.32,1.74,4.07,4.07,4.07h.58c2.32,0,4.07-1.74,4.07-4.07v-.58c0-2.32-1.74-4.07-4.07-4.07h-.58c-2.32,0-4.07,1.74-4.07,4.07ZM678.22.48c12.49,0,21.79,9.3,21.79,21.79s-9.3,22.08-21.79,22.08-22.08-9.01-22.08-22.08S665.73.48,678.22.48ZM678.22,174.78c12.49,0,21.79,9.3,21.79,21.79s-9.3,22.08-21.79,22.08-22.08-9.01-22.08-22.08,9.59-21.79,22.08-21.79ZM673.57,22.27v.58c0,2.32,1.74,4.07,4.07,4.07h.58c2.32,0,4.07-1.74,4.07-4.07v-.58c0-2.32-1.74-4.07-4.07-4.07h-.58c-2.32,0-4.07,1.74-4.07,4.07ZM673.57,196.57v.58c0,2.32,1.74,4.07,4.07,4.07h.58c2.32,0,4.07-1.74,4.07-4.07v-.58c0-2.32-1.74-4.07-4.07-4.07h-.58c-2.32,0-4.07,1.74-4.07,4.07ZM707.27.48c12.49,0,21.79,9.3,21.79,21.79s-9.3,22.08-21.79,22.08-22.08-9.01-22.08-22.08S694.78.48,707.27.48ZM707.27,174.78c12.49,0,21.79,9.3,21.79,21.79s-9.3,22.08-21.79,22.08-22.08-9.01-22.08-22.08,9.59-21.79,22.08-21.79ZM702.62,22.27v.58c0,2.32,1.74,4.07,4.07,4.07h.58c2.32,0,4.07-1.74,4.07-4.07v-.58c0-2.32-1.74-4.07-4.07-4.07h-.58c-2.32,0-4.07,1.74-4.07,4.07ZM702.62,196.57v.58c0,2.32,1.74,4.07,4.07,4.07h.58c2.32,0,4.07-1.74,4.07-4.07v-.58c0-2.32-1.74-4.07-4.07-4.07h-.58c-2.32,0-4.07,1.74-4.07,4.07ZM736.32.48c12.49,0,21.79,9.3,21.79,21.79s-9.3,22.08-21.79,22.08-22.08-9.01-22.08-22.08S723.83.48,736.32.48ZM736.32,174.78c12.49,0,21.79,9.3,21.79,21.79s-9.3,22.08-21.79,22.08-22.08-9.01-22.08-22.08,9.59-21.79,22.08-21.79ZM731.67,22.27v.58c0,2.32,1.74,4.07,4.07,4.07h.58c2.32,0,4.07-1.74,4.07-4.07v-.58c0-2.32-1.74-4.07-4.07-4.07h-.58c-2.32,0-4.07,1.74-4.07,4.07ZM731.67,196.57v.58c0,2.32,1.74,4.07,4.07,4.07h.58c2.32,0,4.07-1.74,4.07-4.07v-.58c0-2.32-1.74-4.07-4.07-4.07h-.58c-2.32,0-4.07,1.74-4.07,4.07ZM765.37,29.53c12.49,0,21.79,9.3,21.79,21.79s-9.3,22.08-21.79,22.08-22.08-9-22.08-22.08,9.59-21.79,22.08-21.79ZM765.37,145.73c12.49,0,21.79,9.3,21.79,21.79s-9.3,22.08-21.79,22.08-22.08-9.01-22.08-22.08,9.59-21.79,22.08-21.79ZM760.72,51.32v.58c0,2.32,1.74,4.07,4.07,4.07h.58c2.32,0,4.07-1.74,4.07-4.07v-.58c0-2.32-1.74-4.07-4.07-4.07h-.58c-2.32,0-4.07,1.74-4.07,4.07ZM760.72,167.52v.58c0,2.32,1.74,4.07,4.07,4.07h.58c2.32,0,4.07-1.74,4.07-4.07v-.58c0-2.32-1.74-4.07-4.07-4.07h-.58c-2.32,0-4.07,1.74-4.07,4.07ZM794.42,58.58c12.49,0,21.79,9.3,21.79,21.79s-9.3,22.08-21.79,22.08-22.08-9-22.08-22.08,9.59-21.79,22.08-21.79ZM794.42,87.63c12.49,0,21.79,9.3,21.79,21.79s-9.3,22.08-21.79,22.08-22.08-9-22.08-22.08,9.59-21.79,22.08-21.79ZM794.42,116.68c12.49,0,21.79,9.3,21.79,21.79s-9.3,22.08-21.79,22.08-22.08-9.01-22.08-22.08,9.59-21.79,22.08-21.79ZM789.77,80.37v.58c0,2.32,1.74,4.07,4.07,4.07h.58c2.32,0,4.07-1.74,4.07-4.07v-.58c0-2.32-1.74-4.07-4.07-4.07h-.58c-2.32,0-4.07,1.74-4.07,4.07ZM789.77,109.42v.58c0,2.32,1.74,4.07,4.07,4.07h.58c2.32,0,4.07-1.74,4.07-4.07v-.58c0-2.32-1.74-4.07-4.07-4.07h-.58c-2.32,0-4.07,1.74-4.07,4.07ZM789.77,138.47v.58c0,2.32,1.74,4.07,4.07,4.07h.58c2.32,0,4.07-1.74,4.07-4.07v-.58c0-2.32-1.74-4.07-4.07-4.07h-.58c-2.32,0-4.07,1.74-4.07,4.07Z"/>
      <path class="cls-1" d="M808.65.48c12.49,0,21.79,9.3,21.79,21.79s-9.3,22.08-21.79,22.08-22.08-9.01-22.08-22.08S796.16.48,808.65.48ZM804,22.27v.58c0,2.32,1.74,4.07,4.07,4.07h.58c2.32,0,4.07-1.74,4.07-4.07v-.58c0-2.32-1.74-4.07-4.07-4.07h-.58c-2.32,0-4.07,1.74-4.07,4.07ZM837.7,29.53c12.49,0,21.79,9.3,21.79,21.79s-9.3,22.08-21.79,22.08-22.08-9-22.08-22.08,9.59-21.79,22.08-21.79ZM833.05,51.32v.58c0,2.32,1.74,4.07,4.07,4.07h.58c2.32,0,4.07-1.74,4.07-4.07v-.58c0-2.32-1.74-4.07-4.07-4.07h-.58c-2.32,0-4.07,1.74-4.07,4.07ZM866.75,58.58c12.49,0,21.79,9.3,21.79,21.79s-9.3,22.08-21.79,22.08-22.08-9-22.08-22.08,9.59-21.79,22.08-21.79ZM862.1,80.37v.58c0,2.32,1.74,4.07,4.07,4.07h.58c2.32,0,4.07-1.74,4.07-4.07v-.58c0-2.32-1.74-4.07-4.07-4.07h-.58c-2.32,0-4.07,1.74-4.07,4.07ZM895.8,87.63c12.49,0,21.79,9.3,21.79,21.79s-9.29,22.08-21.79,22.08-22.08-9-22.08-22.08,9.59-21.79,22.08-21.79ZM895.8,116.68c12.49,0,21.79,9.3,21.79,21.79s-9.29,22.08-21.79,22.08-22.08-9.01-22.08-22.08,9.59-21.79,22.08-21.79ZM895.8,145.73c12.49,0,21.79,9.3,21.79,21.79s-9.29,22.08-21.79,22.08-22.08-9.01-22.08-22.08,9.59-21.79,22.08-21.79ZM895.8,174.78c12.49,0,21.79,9.3,21.79,21.79s-9.29,22.08-21.79,22.08-22.08-9.01-22.08-22.08,9.59-21.79,22.08-21.79ZM891.15,109.42v.58c0,2.32,1.74,4.07,4.07,4.07h.58c2.32,0,4.07-1.74,4.07-4.07v-.58c0-2.32-1.74-4.07-4.07-4.07h-.58c-2.32,0-4.07,1.74-4.07,4.07ZM891.15,138.47v.58c0,2.32,1.74,4.07,4.07,4.07h.58c2.32,0,4.07-1.74,4.07-4.07v-.58c0-2.32-1.74-4.07-4.07-4.07h-.58c-2.32,0-4.07,1.74-4.07,4.07ZM891.15,167.52v.58c0,2.32,1.74,4.07,4.07,4.07h.58c2.32,0,4.07-1.74,4.07-4.07v-.58c0-2.32-1.74-4.07-4.07-4.07h-.58c-2.32,0-4.07,1.74-4.07,4.07ZM891.15,196.57v.58c0,2.32,1.74,4.07,4.07,4.07h.58c2.32,0,4.07-1.74,4.07-4.07v-.58c0-2.32-1.74-4.07-4.07-4.07h-.58c-2.32,0-4.07,1.74-4.07,4.07ZM924.85,58.58c12.49,0,21.79,9.3,21.79,21.79s-9.3,22.08-21.79,22.08-22.08-9-22.08-22.08,9.59-21.79,22.08-21.79ZM920.2,80.37v.58c0,2.32,1.74,4.07,4.07,4.07h.58c2.32,0,4.07-1.74,4.07-4.07v-.58c0-2.32-1.74-4.07-4.07-4.07h-.58c-2.32,0-4.07,1.74-4.07,4.07ZM953.9,29.53c12.49,0,21.79,9.3,21.79,21.79s-9.3,22.08-21.79,22.08-22.08-9-22.08-22.08,9.59-21.79,22.08-21.79ZM949.25,51.32v.58c0,2.32,1.74,4.07,4.07,4.07h.58c2.32,0,4.07-1.74,4.07-4.07v-.58c0-2.32-1.74-4.07-4.07-4.07h-.58c-2.32,0-4.07,1.74-4.07,4.07ZM982.95.48c12.49,0,21.79,9.3,21.79,21.79s-9.3,22.08-21.79,22.08-22.08-9.01-22.08-22.08S970.46.48,982.95.48ZM978.3,22.27v.58c0,2.32,1.74,4.07,4.07,4.07h.58c2.32,0,4.07-1.74,4.07-4.07v-.58c0-2.32-1.74-4.07-4.07-4.07h-.58c-2.32,0-4.07,1.74-4.07,4.07Z"/>
      <path class="cls-1" d="M22.56,199.48c12.49,0,21.79,9.3,21.79,21.79s-9.3,22.08-21.79,22.08S.48,234.34.48,221.27s9.59-21.79,22.08-21.79ZM22.56,228.53c12.49,0,21.79,9.3,21.79,21.79s-9.3,22.08-21.79,22.08S.48,263.39.48,250.32s9.59-21.79,22.08-21.79ZM22.56,257.58c12.49,0,21.79,9.3,21.79,21.79s-9.3,22.08-21.79,22.08S.48,292.44.48,279.37s9.59-21.79,22.08-21.79ZM22.56,286.63c12.49,0,21.79,9.3,21.79,21.79s-9.3,22.08-21.79,22.08S.48,321.49.48,308.42s9.59-21.79,22.08-21.79ZM22.56,315.68c12.49,0,21.79,9.3,21.79,21.79s-9.3,22.08-21.79,22.08S.48,350.54.48,337.47s9.59-21.79,22.08-21.79ZM22.56,344.73c12.49,0,21.79,9.3,21.79,21.79s-9.3,22.08-21.79,22.08S.48,379.59.48,366.52s9.59-21.79,22.08-21.79ZM22.56,373.78c12.49,0,21.79,9.3,21.79,21.79s-9.3,22.08-21.79,22.08S.48,408.64.48,395.57s9.59-21.79,22.08-21.79ZM17.91,221.27v.58c0,2.32,1.74,4.07,4.07,4.07h.58c2.32,0,4.07-1.74,4.07-4.07v-.58c0-2.32-1.74-4.07-4.07-4.07h-.58c-2.32,0-4.07,1.74-4.07,4.07ZM17.91,250.32v.58c0,2.32,1.74,4.07,4.07,4.07h.58c2.32,0,4.07-1.74,4.07-4.07v-.58c0-2.32-1.74-4.07-4.07-4.07h-.58c-2.32,0-4.07,1.74-4.07,4.07ZM17.91,279.37v.58c0,2.32,1.74,4.07,4.07,4.07h.58c2.32,0,4.07-1.74,4.07-4.07v-.58c0-2.32-1.74-4.07-4.07-4.07h-.58c-2.32,0-4.07,1.74-4.07,4.07ZM17.91,308.42v.58c0,2.32,1.74,4.07,4.07,4.07h.58c2.32,0,4.07-1.74,4.07-4.07v-.58c0-2.32-1.74-4.07-4.07-4.07h-.58c-2.32,0-4.07,1.74-4.07,4.07ZM17.91,337.47v.58c0,2.32,1.74,4.07,4.07,4.07h.58c2.32,0,4.07-1.74,4.07-4.07v-.58c0-2.32-1.74-4.07-4.07-4.07h-.58c-2.32,0-4.07,1.74-4.07,4.07ZM17.91,366.52v.58c0,2.32,1.74,4.07,4.07,4.07h.58c2.32,0,4.07-1.74,4.07-4.07v-.58c0-2.32-1.74-4.07-4.07-4.07h-.58c-2.32,0-4.07,1.74-4.07,4.07ZM17.91,395.57v.58c0,2.32,1.74,4.07,4.07,4.07h.58c2.32,0,4.07-1.74,4.07-4.07v-.58c0-2.32-1.74-4.07-4.07-4.07h-.58c-2.32,0-4.07,1.74-4.07,4.07ZM51.61,286.63c12.49,0,21.79,9.3,21.79,21.79s-9.3,22.08-21.79,22.08-22.08-9-22.08-22.08,9.59-21.79,22.08-21.79ZM46.96,308.42v.58c0,2.32,1.74,4.07,4.07,4.07h.58c2.32,0,4.07-1.74,4.07-4.07v-.58c0-2.32-1.74-4.07-4.07-4.07h-.58c-2.32,0-4.07,1.74-4.07,4.07ZM80.66,286.63c12.49,0,21.79,9.3,21.79,21.79s-9.3,22.08-21.79,22.08-22.08-9-22.08-22.08,9.59-21.79,22.08-21.79ZM76.01,308.42v.58c0,2.32,1.74,4.07,4.07,4.07h.58c2.32,0,4.07-1.74,4.07-4.07v-.58c0-2.32-1.74-4.07-4.07-4.07h-.58c-2.32,0-4.07,1.74-4.07,4.07ZM109.71,286.63c12.49,0,21.79,9.3,21.79,21.79s-9.3,22.08-21.79,22.08-22.08-9-22.08-22.08,9.59-21.79,22.08-21.79ZM105.06,308.42v.58c0,2.32,1.74,4.07,4.07,4.07h.58c2.32,0,4.07-1.74,4.07-4.07v-.58c0-2.32-1.74-4.07-4.07-4.07h-.58c-2.32,0-4.07,1.74-4.07,4.07ZM138.76,286.63c12.49,0,21.79,9.3,21.79,21.79s-9.3,22.08-21.79,22.08-22.08-9-22.08-22.08,9.59-21.79,22.08-21.79ZM134.11,308.42v.58c0,2.32,1.74,4.07,4.07,4.07h.58c2.32,0,4.07-1.74,4.07-4.07v-.58c0-2.32-1.74-4.07-4.07-4.07h-.58c-2.32,0-4.07,1.74-4.07,4.07ZM167.81,199.48c12.49,0,21.79,9.3,21.79,21.79s-9.3,22.08-21.79,22.08-22.08-9.01-22.08-22.08,9.59-21.79,22.08-21.79ZM167.81,228.53c12.49,0,21.79,9.3,21.79,21.79s-9.3,22.08-21.79,22.08-22.08-9-22.08-22.08,9.59-21.79,22.08-21.79ZM167.81,257.58c12.49,0,21.79,9.3,21.79,21.79s-9.3,22.08-21.79,22.08-22.08-9-22.08-22.08,9.59-21.79,22.08-21.79ZM167.81,286.63c12.49,0,21.79,9.3,21.79,21.79s-9.3,22.08-21.79,22.08-22.08-9-22.08-22.08,9.59-21.79,22.08-21.79ZM167.81,315.68c12.49,0,21.79,9.3,21.79,21.79s-9.3,22.08-21.79,22.08-22.08-9.01-22.08-22.08,9.59-21.79,22.08-21.79ZM167.81,344.73c12.49,0,21.79,9.3,21.79,21.79s-9.3,22.08-21.79,22.08-22.08-9.01-22.08-22.08,9.59-21.79,22.08-21.79ZM167.81,373.78c12.49,0,21.79,9.3,21.79,21.79s-9.3,22.08-21.79,22.08-22.08-9.01-22.08-22.08,9.59-21.79,22.08-21.79ZM163.16,221.27v.58c0,2.32,1.74,4.07,4.07,4.07h.58c2.32,0,4.07-1.74,4.07-4.07v-.58c0-2.32-1.74-4.07-4.07-4.07h-.58c-2.32,0-4.07,1.74-4.07,4.07ZM163.16,250.32v.58c0,2.32,1.74,4.07,4.07,4.07h.58c2.32,0,4.07-1.74,4.07-4.07v-.58c0-2.32-1.74-4.07-4.07-4.07h-.58c-2.32,0-4.07,1.74-4.07,4.07ZM163.16,279.37v.58c0,2.32,1.74,4.07,4.07,4.07h.58c2.32,0,4.07-1.74,4.07-4.07v-.58c0-2.32-1.74-4.07-4.07-4.07h-.58c-2.32,0-4.07,1.74-4.07,4.07ZM163.16,308.42v.58c0,2.32,1.74,4.07,4.07,4.07h.58c2.32,0,4.07-1.74,4.07-4.07v-.58c0-2.32-1.74-4.07-4.07-4.07h-.58c-2.32,0-4.07,1.74-4.07,4.07ZM163.16,337.47v.58c0,2.32,1.74,4.07,4.07,4.07h.58c2.32,0,4.07-1.74,4.07-4.07v-.58c0-2.32-1.74-4.07-4.07-4.07h-.58c-2.32,0-4.07,1.74-4.07,4.07ZM163.16,366.52v.58c0,2.32,1.74,4.07,4.07,4.07h.58c2.32,0,4.07-1.74,4.07-4.07v-.58c0-2.32-1.74-4.07-4.07-4.07h-.58c-2.32,0-4.07,1.74-4.07,4.07ZM163.16,395.57v.58c0,2.32,1.74,4.07,4.07,4.07h.58c2.32,0,4.07-1.74,4.07-4.07v-.58c0-2.32-1.74-4.07-4.07-4.07h-.58c-2.32,0-4.07,1.74-4.07,4.07Z"/>
      <path class="cls-1" d="M222.72,199.48c12.49,0,21.79,9.3,21.79,21.79s-9.3,22.08-21.79,22.08-22.08-9.01-22.08-22.08,9.59-21.79,22.08-21.79ZM222.72,228.53c12.49,0,21.79,9.3,21.79,21.79s-9.3,22.08-21.79,22.08-22.08-9-22.08-22.08,9.59-21.79,22.08-21.79ZM222.72,257.58c12.49,0,21.79,9.3,21.79,21.79s-9.3,22.08-21.79,22.08-22.08-9-22.08-22.08,9.59-21.79,22.08-21.79ZM222.72,286.63c12.49,0,21.79,9.3,21.79,21.79s-9.3,22.08-21.79,22.08-22.08-9-22.08-22.08,9.59-21.79,22.08-21.79ZM222.72,315.68c12.49,0,21.79,9.3,21.79,21.79s-9.3,22.08-21.79,22.08-22.08-9.01-22.08-22.08,9.59-21.79,22.08-21.79ZM218.07,221.27v.58c0,2.32,1.74,4.07,4.07,4.07h.58c2.32,0,4.07-1.74,4.07-4.07v-.58c0-2.32-1.74-4.07-4.07-4.07h-.58c-2.32,0-4.07,1.74-4.07,4.07ZM218.07,250.32v.58c0,2.32,1.74,4.07,4.07,4.07h.58c2.32,0,4.07-1.74,4.07-4.07v-.58c0-2.32-1.74-4.07-4.07-4.07h-.58c-2.32,0-4.07,1.74-4.07,4.07ZM218.07,279.37v.58c0,2.32,1.74,4.07,4.07,4.07h.58c2.32,0,4.07-1.74,4.07-4.07v-.58c0-2.32-1.74-4.07-4.07-4.07h-.58c-2.32,0-4.07,1.74-4.07,4.07ZM218.07,308.42v.58c0,2.32,1.74,4.07,4.07,4.07h.58c2.32,0,4.07-1.74,4.07-4.07v-.58c0-2.32-1.74-4.07-4.07-4.07h-.58c-2.32,0-4.07,1.74-4.07,4.07ZM218.07,337.47v.58c0,2.32,1.74,4.07,4.07,4.07h.58c2.32,0,4.07-1.74,4.07-4.07v-.58c0-2.32-1.74-4.07-4.07-4.07h-.58c-2.32,0-4.07,1.74-4.07,4.07ZM251.77,344.73c12.49,0,21.79,9.3,21.79,21.79s-9.3,22.08-21.79,22.08-22.08-9.01-22.08-22.08,9.59-21.79,22.08-21.79ZM247.12,366.52v.58c0,2.32,1.74,4.07,4.07,4.07h.58c2.32,0,4.07-1.74,4.07-4.07v-.58c0-2.32-1.74-4.07-4.07-4.07h-.58c-2.32,0-4.07,1.74-4.07,4.07ZM280.82,373.78c12.49,0,21.79,9.3,21.79,21.79s-9.3,22.08-21.79,22.08-22.08-9.01-22.08-22.08,9.59-21.79,22.08-21.79ZM276.17,395.57v.58c0,2.32,1.74,4.07,4.07,4.07h.58c2.32,0,4.07-1.74,4.07-4.07v-.58c0-2.32-1.74-4.07-4.07-4.07h-.58c-2.32,0-4.07,1.74-4.07,4.07ZM309.87,373.78c12.49,0,21.79,9.3,21.79,21.79s-9.3,22.08-21.79,22.08-22.08-9.01-22.08-22.08,9.59-21.79,22.08-21.79ZM305.22,395.57v.58c0,2.32,1.74,4.07,4.07,4.07h.58c2.32,0,4.07-1.74,4.07-4.07v-.58c0-2.32-1.74-4.07-4.07-4.07h-.58c-2.32,0-4.07,1.74-4.07,4.07ZM338.92,344.73c12.49,0,21.79,9.3,21.79,21.79s-9.3,22.08-21.79,22.08-22.08-9.01-22.08-22.08,9.59-21.79,22.08-21.79ZM334.27,366.52v.58c0,2.32,1.74,4.07,4.07,4.07h.58c2.32,0,4.07-1.74,4.07-4.07v-.58c0-2.32-1.74-4.07-4.07-4.07h-.58c-2.32,0-4.07,1.74-4.07,4.07ZM367.97,199.48c12.49,0,21.79,9.3,21.79,21.79s-9.3,22.08-21.79,22.08-22.08-9.01-22.08-22.08,9.59-21.79,22.08-21.79ZM367.97,228.53c12.49,0,21.79,9.3,21.79,21.79s-9.3,22.08-21.79,22.08-22.08-9-22.08-22.08,9.59-21.79,22.08-21.79ZM367.97,257.58c12.49,0,21.79,9.3,21.79,21.79s-9.3,22.08-21.79,22.08-22.08-9-22.08-22.08,9.59-21.79,22.08-21.79ZM367.97,286.63c12.49,0,21.79,9.3,21.79,21.79s-9.3,22.08-21.79,22.08-22.08-9-22.08-22.08,9.59-21.79,22.08-21.79ZM367.97,315.68c12.49,0,21.79,9.3,21.79,21.79s-9.3,22.08-21.79,22.08-22.08-9.01-22.08-22.08,9.59-21.79,22.08-21.79ZM367.97,344.73c12.49,0,21.79,9.3,21.79,21.79s-9.3,22.08-21.79,22.08-22.08-9.01-22.08-22.08,9.59-21.79,22.08-21.79ZM367.97,373.78c12.49,0,21.79,9.3,21.79,21.79s-9.3,22.08-21.79,22.08-22.08-9.01-22.08-22.08,9.59-21.79,22.08-21.79ZM363.32,221.27v.58c0,2.32,1.74,4.07,4.07,4.07h.58c2.32,0,4.07-1.74,4.07-4.07v-.58c0-2.32-1.74-4.07-4.07-4.07h-.58c-2.32,0-4.07,1.74-4.07,4.07ZM363.32,250.32v.58c0,2.32,1.74,4.07,4.07,4.07h.58c2.32,0,4.07-1.74,4.07-4.07v-.58c0-2.32-1.74-4.07-4.07-4.07h-.58c-2.32,0-4.07,1.74-4.07,4.07ZM363.32,279.37v.58c0,2.32,1.74,4.07,4.07,4.07h.58c2.32,0,4.07-1.74,4.07-4.07v-.58c0-2.32-1.74-4.07-4.07-4.07h-.58c-2.32,0-4.07,1.74-4.07,4.07ZM363.32,308.42v.58c0,2.32,1.74,4.07,4.07,4.07h.58c2.32,0,4.07-1.74,4.07-4.07v-.58c0-2.32-1.74-4.07-4.07-4.07h-.58c-2.32,0-4.07,1.74-4.07,4.07ZM363.32,337.47v.58c0,2.32,1.74,4.07,4.07,4.07h.58c2.32,0,4.07-1.74,4.07-4.07v-.58c0-2.32-1.74-4.07-4.07-4.07h-.58c-2.32,0-4.07,1.74-4.07,4.07ZM363.32,366.52v.58c0,2.32,1.74,4.07,4.07,4.07h.58c2.32,0,4.07-1.74,4.07-4.07v-.58c0-2.32-1.74-4.07-4.07-4.07h-.58c-2.32,0-4.07,1.74-4.07,4.07ZM363.32,395.57v.58c0,2.32,1.74,4.07,4.07,4.07h.58c2.32,0,4.07-1.74,4.07-4.07v-.58c0-2.32-1.74-4.07-4.07-4.07h-.58c-2.32,0-4.07,1.74-4.07,4.07Z"/>
      <path class="cls-1" d="M422.87,257.58c12.49,0,21.79,9.3,21.79,21.79s-9.3,22.08-21.79,22.08-22.08-9-22.08-22.08,9.59-21.79,22.08-21.79ZM422.87,286.63c12.49,0,21.79,9.3,21.79,21.79s-9.3,22.08-21.79,22.08-22.08-9-22.08-22.08,9.59-21.79,22.08-21.79ZM422.87,315.68c12.49,0,21.79,9.3,21.79,21.79s-9.3,22.08-21.79,22.08-22.08-9.01-22.08-22.08,9.59-21.79,22.08-21.79ZM418.22,279.37v.58c0,2.32,1.74,4.07,4.07,4.07h.58c2.32,0,4.07-1.74,4.07-4.07v-.58c0-2.32-1.74-4.07-4.07-4.07h-.58c-2.32,0-4.07,1.74-4.07,4.07ZM418.22,308.42v.58c0,2.32,1.74,4.07,4.07,4.07h.58c2.32,0,4.07-1.74,4.07-4.07v-.58c0-2.32-1.74-4.07-4.07-4.07h-.58c-2.32,0-4.07,1.74-4.07,4.07ZM418.22,337.47v.58c0,2.32,1.74,4.07,4.07,4.07h.58c2.32,0,4.07-1.74,4.07-4.07v-.58c0-2.32-1.74-4.07-4.07-4.07h-.58c-2.32,0-4.07,1.74-4.07,4.07ZM451.92,228.53c12.49,0,21.79,9.3,21.79,21.79s-9.3,22.08-21.79,22.08-22.08-9-22.08-22.08,9.59-21.79,22.08-21.79ZM451.92,344.73c12.49,0,21.79,9.3,21.79,21.79s-9.3,22.08-21.79,22.08-22.08-9.01-22.08-22.08,9.59-21.79,22.08-21.79ZM447.27,250.32v.58c0,2.32,1.74,4.07,4.07,4.07h.58c2.32,0,4.07-1.74,4.07-4.07v-.58c0-2.32-1.74-4.07-4.07-4.07h-.58c-2.32,0-4.07,1.74-4.07,4.07ZM447.27,366.52v.58c0,2.32,1.74,4.07,4.07,4.07h.58c2.32,0,4.07-1.74,4.07-4.07v-.58c0-2.32-1.74-4.07-4.07-4.07h-.58c-2.32,0-4.07,1.74-4.07,4.07ZM480.97,199.48c12.49,0,21.79,9.3,21.79,21.79s-9.3,22.08-21.79,22.08-22.08-9.01-22.08-22.08,9.59-21.79,22.08-21.79ZM480.97,373.78c12.49,0,21.79,9.3,21.79,21.79s-9.3,22.08-21.79,22.08-22.08-9.01-22.08-22.08,9.59-21.79,22.08-21.79ZM476.32,221.27v.58c0,2.32,1.74,4.07,4.07,4.07h.58c2.32,0,4.07-1.74,4.07-4.07v-.58c0-2.32-1.74-4.07-4.07-4.07h-.58c-2.32,0-4.07,1.74-4.07,4.07ZM476.32,395.57v.58c0,2.32,1.74,4.07,4.07,4.07h.58c2.32,0,4.07-1.74,4.07-4.07v-.58c0-2.32-1.74-4.07-4.07-4.07h-.58c-2.32,0-4.07,1.74-4.07,4.07ZM510.02,199.48c12.49,0,21.79,9.3,21.79,21.79s-9.3,22.08-21.79,22.08-22.08-9.01-22.08-22.08,9.59-21.79,22.08-21.79ZM510.02,286.63c12.49,0,21.79,9.3,21.79,21.79s-9.3,22.08-21.79,22.08-22.08-9-22.08-22.08,9.59-21.79,22.08-21.79ZM510.02,373.78c12.49,0,21.79,9.3,21.79,21.79s-9.3,22.08-21.79,22.08-22.08-9.01-22.08-22.08,9.59-21.79,22.08-21.79ZM505.37,221.27v.58c0,2.32,1.74,4.07,4.07,4.07h.58c2.32,0,4.07-1.74,4.07-4.07v-.58c0-2.32-1.74-4.07-4.07-4.07h-.58c-2.32,0-4.07,1.74-4.07,4.07ZM505.37,308.42v.58c0,2.32,1.74,4.07,4.07,4.07h.58c2.32,0,4.07-1.74,4.07-4.07v-.58c0-2.32-1.74-4.07-4.07-4.07h-.58c-2.32,0-4.07,1.74-4.07,4.07ZM505.37,395.57v.58c0,2.32,1.74,4.07,4.07,4.07h.58c2.32,0,4.07-1.74,4.07-4.07v-.58c0-2.32-1.74-4.07-4.07-4.07h-.58c-2.32,0-4.07,1.74-4.07,4.07ZM539.07,199.48c12.49,0,21.79,9.3,21.79,21.79s-9.3,22.08-21.79,22.08-22.08-9.01-22.08-22.08,9.59-21.79,22.08-21.79ZM539.07,286.63c12.49,0,21.79,9.3,21.79,21.79s-9.3,22.08-21.79,22.08-22.08-9-22.08-22.08,9.59-21.79,22.08-21.79ZM539.07,373.78c12.49,0,21.79,9.3,21.79,21.79s-9.3,22.08-21.79,22.08-22.08-9.01-22.08-22.08,9.59-21.79,22.08-21.79ZM534.42,221.27v.58c0,2.32,1.74,4.07,4.07,4.07h.58c2.32,0,4.07-1.74,4.07-4.07v-.58c0-2.32-1.74-4.07-4.07-4.07h-.58c-2.32,0-4.07,1.74-4.07,4.07ZM534.42,308.42v.58c0,2.32,1.74,4.07,4.07,4.07h.58c2.32,0,4.07-1.74,4.07-4.07v-.58c0-2.32-1.74-4.07-4.07-4.07h-.58c-2.32,0-4.07,1.74-4.07,4.07ZM534.42,395.57v.58c0,2.32,1.74,4.07,4.07,4.07h.58c2.32,0,4.07-1.74,4.07-4.07v-.58c0-2.32-1.74-4.07-4.07-4.07h-.58c-2.32,0-4.07,1.74-4.07,4.07ZM568.12,228.53c12.49,0,21.79,9.3,21.79,21.79s-9.3,22.08-21.79,22.08-22.08-9-22.08-22.08,9.59-21.79,22.08-21.79ZM568.12,286.63c12.49,0,21.79,9.3,21.79,21.79s-9.3,22.08-21.79,22.08-22.08-9-22.08-22.08,9.59-21.79,22.08-21.79ZM568.12,344.73c12.49,0,21.79,9.3,21.79,21.79s-9.3,22.08-21.79,22.08-22.08-9.01-22.08-22.08,9.59-21.79,22.08-21.79ZM563.47,250.32v.58c0,2.32,1.74,4.07,4.07,4.07h.58c2.32,0,4.07-1.74,4.07-4.07v-.58c0-2.32-1.74-4.07-4.07-4.07h-.58c-2.32,0-4.07,1.74-4.07,4.07ZM563.47,308.42v.58c0,2.32,1.74,4.07,4.07,4.07h.58c2.32,0,4.07-1.74,4.07-4.07v-.58c0-2.32-1.74-4.07-4.07-4.07h-.58c-2.32,0-4.07,1.74-4.07,4.07ZM563.47,366.52v.58c0,2.32,1.74,4.07,4.07,4.07h.58c2.32,0,4.07-1.74,4.07-4.07v-.58c0-2.32-1.74-4.07-4.07-4.07h-.58c-2.32,0-4.07,1.74-4.07,4.07ZM597.17,286.63c12.49,0,21.79,9.3,21.79,21.79s-9.3,22.08-21.79,22.08-22.08-9-22.08-22.08,9.59-21.79,22.08-21.79ZM597.17,315.68c12.49,0,21.79,9.3,21.79,21.79s-9.3,22.08-21.79,22.08-22.08-9.01-22.08-22.08,9.59-21.79,22.08-21.79ZM592.52,308.42v.58c0,2.32,1.74,4.07,4.07,4.07h.58c2.32,0,4.07-1.74,4.07-4.07v-.58c0-2.32-1.74-4.07-4.07-4.07h-.58c-2.32,0-4.07,1.74-4.07,4.07ZM592.52,337.47v.58c0,2.32,1.74,4.07,4.07,4.07h.58c2.32,0,4.07-1.74,4.07-4.07v-.58c0-2.32-1.74-4.07-4.07-4.07h-.58c-2.32,0-4.07,1.74-4.07,4.07Z"/>
      <path class="cls-1" d="M652.07,199.48c12.49,0,21.79,9.3,21.79,21.79s-9.3,22.08-21.79,22.08-22.08-9.01-22.08-22.08,9.59-21.79,22.08-21.79ZM652.07,228.53c12.49,0,21.79,9.3,21.79,21.79s-9.3,22.08-21.79,22.08-22.08-9-22.08-22.08,9.59-21.79,22.08-21.79ZM652.07,257.58c12.49,0,21.79,9.3,21.79,21.79s-9.3,22.08-21.79,22.08-22.08-9-22.08-22.08,9.59-21.79,22.08-21.79ZM652.07,286.63c12.49,0,21.79,9.3,21.79,21.79s-9.3,22.08-21.79,22.08-22.08-9-22.08-22.08,9.59-21.79,22.08-21.79ZM652.07,315.68c12.49,0,21.79,9.3,21.79,21.79s-9.3,22.08-21.79,22.08-22.08-9.01-22.08-22.08,9.59-21.79,22.08-21.79ZM652.07,344.73c12.49,0,21.79,9.3,21.79,21.79s-9.3,22.08-21.79,22.08-22.08-9.01-22.08-22.08,9.59-21.79,22.08-21.79ZM652.07,373.78c12.49,0,21.79,9.3,21.79,21.79s-9.3,22.08-21.79,22.08-22.08-9.01-22.08-22.08,9.59-21.79,22.08-21.79ZM647.43,221.27v.58c0,2.32,1.74,4.07,4.07,4.07h.58c2.32,0,4.07-1.74,4.07-4.07v-.58c0-2.32-1.74-4.07-4.07-4.07h-.58c-2.32,0-4.07,1.74-4.07,4.07ZM647.43,250.32v.58c0,2.32,1.74,4.07,4.07,4.07h.58c2.32,0,4.07-1.74,4.07-4.07v-.58c0-2.32-1.74-4.07-4.07-4.07h-.58c-2.32,0-4.07,1.74-4.07,4.07ZM647.43,279.37v.58c0,2.32,1.74,4.07,4.07,4.07h.58c2.32,0,4.07-1.74,4.07-4.07v-.58c0-2.32-1.74-4.07-4.07-4.07h-.58c-2.32,0-4.07,1.74-4.07,4.07ZM647.43,308.42v.58c0,2.32,1.74,4.07,4.07,4.07h.58c2.32,0,4.07-1.74,4.07-4.07v-.58c0-2.32-1.74-4.07-4.07-4.07h-.58c-2.32,0-4.07,1.74-4.07,4.07ZM647.43,337.47v.58c0,2.32,1.74,4.07,4.07,4.07h.58c2.32,0,4.07-1.74,4.07-4.07v-.58c0-2.32-1.74-4.07-4.07-4.07h-.58c-2.32,0-4.07,1.74-4.07,4.07ZM647.43,366.52v.58c0,2.32,1.74,4.07,4.07,4.07h.58c2.32,0,4.07-1.74,4.07-4.07v-.58c0-2.32-1.74-4.07-4.07-4.07h-.58c-2.32,0-4.07,1.74-4.07,4.07ZM647.43,395.57v.58c0,2.32,1.74,4.07,4.07,4.07h.58c2.32,0,4.07-1.74,4.07-4.07v-.58c0-2.32-1.74-4.07-4.07-4.07h-.58c-2.32,0-4.07,1.74-4.07,4.07ZM681.12,286.63c12.49,0,21.79,9.3,21.79,21.79s-9.3,22.08-21.79,22.08-22.08-9-22.08-22.08,9.59-21.79,22.08-21.79ZM676.47,308.42v.58c0,2.32,1.74,4.07,4.07,4.07h.58c2.32,0,4.07-1.74,4.07-4.07v-.58c0-2.32-1.74-4.07-4.07-4.07h-.58c-2.32,0-4.07,1.74-4.07,4.07ZM710.17,286.63c12.49,0,21.79,9.3,21.79,21.79s-9.3,22.08-21.79,22.08-22.08-9-22.08-22.08,9.59-21.79,22.08-21.79ZM705.52,308.42v.58c0,2.32,1.74,4.07,4.07,4.07h.58c2.32,0,4.07-1.74,4.07-4.07v-.58c0-2.32-1.74-4.07-4.07-4.07h-.58c-2.32,0-4.07,1.74-4.07,4.07ZM739.22,286.63c12.49,0,21.79,9.3,21.79,21.79s-9.3,22.08-21.79,22.08-22.08-9-22.08-22.08,9.59-21.79,22.08-21.79ZM734.57,308.42v.58c0,2.32,1.74,4.07,4.07,4.07h.58c2.32,0,4.07-1.74,4.07-4.07v-.58c0-2.32-1.74-4.07-4.07-4.07h-.58c-2.32,0-4.07,1.74-4.07,4.07ZM768.27,286.63c12.49,0,21.79,9.3,21.79,21.79s-9.3,22.08-21.79,22.08-22.08-9-22.08-22.08,9.59-21.79,22.08-21.79ZM763.62,308.42v.58c0,2.32,1.74,4.07,4.07,4.07h.58c2.32,0,4.07-1.74,4.07-4.07v-.58c0-2.32-1.74-4.07-4.07-4.07h-.58c-2.32,0-4.07,1.74-4.07,4.07ZM797.32,199.48c12.49,0,21.79,9.3,21.79,21.79s-9.3,22.08-21.79,22.08-22.08-9.01-22.08-22.08,9.59-21.79,22.08-21.79ZM797.32,228.53c12.49,0,21.79,9.3,21.79,21.79s-9.3,22.08-21.79,22.08-22.08-9-22.08-22.08,9.59-21.79,22.08-21.79ZM797.32,257.58c12.49,0,21.79,9.3,21.79,21.79s-9.3,22.08-21.79,22.08-22.08-9-22.08-22.08,9.59-21.79,22.08-21.79ZM797.32,286.63c12.49,0,21.79,9.3,21.79,21.79s-9.3,22.08-21.79,22.08-22.08-9-22.08-22.08,9.59-21.79,22.08-21.79ZM797.32,315.68c12.49,0,21.79,9.3,21.79,21.79s-9.3,22.08-21.79,22.08-22.08-9.01-22.08-22.08,9.59-21.79,22.08-21.79ZM797.32,344.73c12.49,0,21.79,9.3,21.79,21.79s-9.3,22.08-21.79,22.08-22.08-9.01-22.08-22.08,9.59-21.79,22.08-21.79ZM797.32,373.78c12.49,0,21.79,9.3,21.79,21.79s-9.3,22.08-21.79,22.08-22.08-9.01-22.08-22.08,9.59-21.79,22.08-21.79ZM792.67,221.27v.58c0,2.32,1.74,4.07,4.07,4.07h.58c2.32,0,4.07-1.74,4.07-4.07v-.58c0-2.32-1.74-4.07-4.07-4.07h-.58c-2.32,0-4.07,1.74-4.07,4.07ZM792.67,250.32v.58c0,2.32,1.74,4.07,4.07,4.07h.58c2.32,0,4.07-1.74,4.07-4.07v-.58c0-2.32-1.74-4.07-4.07-4.07h-.58c-2.32,0-4.07,1.74-4.07,4.07ZM792.67,279.37v.58c0,2.32,1.74,4.07,4.07,4.07h.58c2.32,0,4.07-1.74,4.07-4.07v-.58c0-2.32-1.74-4.07-4.07-4.07h-.58c-2.32,0-4.07,1.74-4.07,4.07ZM792.67,308.42v.58c0,2.32,1.74,4.07,4.07,4.07h.58c2.32,0,4.07-1.74,4.07-4.07v-.58c0-2.32-1.74-4.07-4.07-4.07h-.58c-2.32,0-4.07,1.74-4.07,4.07ZM792.67,337.47v.58c0,2.32,1.74,4.07,4.07,4.07h.58c2.32,0,4.07-1.74,4.07-4.07v-.58c0-2.32-1.74-4.07-4.07-4.07h-.58c-2.32,0-4.07,1.74-4.07,4.07ZM792.67,366.52v.58c0,2.32,1.74,4.07,4.07,4.07h.58c2.32,0,4.07-1.74,4.07-4.07v-.58c0-2.32-1.74-4.07-4.07-4.07h-.58c-2.32,0-4.07,1.74-4.07,4.07ZM792.67,395.57v.58c0,2.32,1.74,4.07,4.07,4.07h.58c2.32,0,4.07-1.74,4.07-4.07v-.58c0-2.32-1.74-4.07-4.07-4.07h-.58c-2.32,0-4.07,1.74-4.07,4.07Z"/>
      <path class="cls-1" d="M852.23,199.48c12.49,0,21.79,9.3,21.79,21.79s-9.3,22.08-21.79,22.08-22.08-9.01-22.08-22.08,9.59-21.79,22.08-21.79ZM852.23,228.53c12.49,0,21.79,9.3,21.79,21.79s-9.3,22.08-21.79,22.08-22.08-9-22.08-22.08,9.59-21.79,22.08-21.79ZM852.23,257.58c12.49,0,21.79,9.3,21.79,21.79s-9.3,22.08-21.79,22.08-22.08-9-22.08-22.08,9.59-21.79,22.08-21.79ZM852.23,286.63c12.49,0,21.79,9.3,21.79,21.79s-9.3,22.08-21.79,22.08-22.08-9-22.08-22.08,9.59-21.79,22.08-21.79ZM852.23,315.68c12.49,0,21.79,9.3,21.79,21.79s-9.3,22.08-21.79,22.08-22.08-9.01-22.08-22.08,9.59-21.79,22.08-21.79ZM852.23,344.73c12.49,0,21.79,9.3,21.79,21.79s-9.3,22.08-21.79,22.08-22.08-9.01-22.08-22.08,9.59-21.79,22.08-21.79ZM852.23,373.78c12.49,0,21.79,9.3,21.79,21.79s-9.3,22.08-21.79,22.08-22.08-9.01-22.08-22.08,9.59-21.79,22.08-21.79ZM847.58,221.27v.58c0,2.32,1.74,4.07,4.07,4.07h.58c2.32,0,4.07-1.74,4.07-4.07v-.58c0-2.32-1.74-4.07-4.07-4.07h-.58c-2.32,0-4.07,1.74-4.07,4.07ZM847.58,250.32v.58c0,2.32,1.74,4.07,4.07,4.07h.58c2.32,0,4.07-1.74,4.07-4.07v-.58c0-2.32-1.74-4.07-4.07-4.07h-.58c-2.32,0-4.07,1.74-4.07,4.07ZM847.58,279.37v.58c0,2.32,1.74,4.07,4.07,4.07h.58c2.32,0,4.07-1.74,4.07-4.07v-.58c0-2.32-1.74-4.07-4.07-4.07h-.58c-2.32,0-4.07,1.74-4.07,4.07ZM847.58,308.42v.58c0,2.32,1.74,4.07,4.07,4.07h.58c2.32,0,4.07-1.74,4.07-4.07v-.58c0-2.32-1.74-4.07-4.07-4.07h-.58c-2.32,0-4.07,1.74-4.07,4.07ZM847.58,337.47v.58c0,2.32,1.74,4.07,4.07,4.07h.58c2.32,0,4.07-1.74,4.07-4.07v-.58c0-2.32-1.74-4.07-4.07-4.07h-.58c-2.32,0-4.07,1.74-4.07,4.07ZM847.58,366.52v.58c0,2.32,1.74,4.07,4.07,4.07h.58c2.32,0,4.07-1.74,4.07-4.07v-.58c0-2.32-1.74-4.07-4.07-4.07h-.58c-2.32,0-4.07,1.74-4.07,4.07ZM847.58,395.57v.58c0,2.32,1.74,4.07,4.07,4.07h.58c2.32,0,4.07-1.74,4.07-4.07v-.58c0-2.32-1.74-4.07-4.07-4.07h-.58c-2.32,0-4.07,1.74-4.07,4.07ZM881.28,199.48c12.49,0,21.79,9.3,21.79,21.79s-9.3,22.08-21.79,22.08-22.08-9.01-22.08-22.08,9.59-21.79,22.08-21.79ZM881.28,286.63c12.49,0,21.79,9.3,21.79,21.79s-9.3,22.08-21.79,22.08-22.08-9-22.08-22.08,9.59-21.79,22.08-21.79ZM881.28,373.78c12.49,0,21.79,9.3,21.79,21.79s-9.3,22.08-21.79,22.08-22.08-9.01-22.08-22.08,9.59-21.79,22.08-21.79ZM876.63,221.27v.58c0,2.32,1.74,4.07,4.07,4.07h.58c2.32,0,4.07-1.74,4.07-4.07v-.58c0-2.32-1.74-4.07-4.07-4.07h-.58c-2.32,0-4.07,1.74-4.07,4.07ZM876.63,308.42v.58c0,2.32,1.74,4.07,4.07,4.07h.58c2.32,0,4.07-1.74,4.07-4.07v-.58c0-2.32-1.74-4.07-4.07-4.07h-.58c-2.32,0-4.07,1.74-4.07,4.07ZM876.63,395.57v.58c0,2.32,1.74,4.07,4.07,4.07h.58c2.32,0,4.07-1.74,4.07-4.07v-.58c0-2.32-1.74-4.07-4.07-4.07h-.58c-2.32,0-4.07,1.74-4.07,4.07ZM910.33,199.48c12.49,0,21.79,9.3,21.79,21.79s-9.3,22.08-21.79,22.08-22.08-9.01-22.08-22.08,9.59-21.79,22.08-21.79ZM910.33,286.63c12.49,0,21.79,9.3,21.79,21.79s-9.3,22.08-21.79,22.08-22.08-9-22.08-22.08,9.59-21.79,22.08-21.79ZM910.33,373.78c12.49,0,21.79,9.3,21.79,21.79s-9.3,22.08-21.79,22.08-22.08-9.01-22.08-22.08,9.59-21.79,22.08-21.79ZM905.68,221.27v.58c0,2.32,1.74,4.07,4.07,4.07h.58c2.32,0,4.07-1.74,4.07-4.07v-.58c0-2.32-1.74-4.07-4.07-4.07h-.58c-2.32,0-4.07,1.74-4.07,4.07ZM905.68,308.42v.58c0,2.32,1.74,4.07,4.07,4.07h.58c2.32,0,4.07-1.74,4.07-4.07v-.58c0-2.32-1.74-4.07-4.07-4.07h-.58c-2.32,0-4.07,1.74-4.07,4.07ZM905.68,395.57v.58c0,2.32,1.74,4.07,4.07,4.07h.58c2.32,0,4.07-1.74,4.07-4.07v-.58c0-2.32-1.74-4.07-4.07-4.07h-.58c-2.32,0-4.07,1.74-4.07,4.07ZM939.38,199.48c12.49,0,21.79,9.3,21.79,21.79s-9.3,22.08-21.79,22.08-22.08-9.01-22.08-22.08,9.59-21.79,22.08-21.79ZM939.38,286.63c12.49,0,21.79,9.3,21.79,21.79s-9.3,22.08-21.79,22.08-22.08-9-22.08-22.08,9.59-21.79,22.08-21.79ZM939.38,373.78c12.49,0,21.79,9.3,21.79,21.79s-9.3,22.08-21.79,22.08-22.08-9.01-22.08-22.08,9.59-21.79,22.08-21.79ZM934.73,221.27v.58c0,2.32,1.74,4.07,4.07,4.07h.58c2.32,0,4.07-1.74,4.07-4.07v-.58c0-2.32-1.74-4.07-4.07-4.07h-.58c-2.32,0-4.07,1.74-4.07,4.07ZM934.73,308.42v.58c0,2.32,1.74,4.07,4.07,4.07h.58c2.32,0,4.07-1.74,4.07-4.07v-.58c0-2.32-1.74-4.07-4.07-4.07h-.58c-2.32,0-4.07,1.74-4.07,4.07ZM934.73,395.57v.58c0,2.32,1.74,4.07,4.07,4.07h.58c2.32,0,4.07-1.74,4.07-4.07v-.58c0-2.32-1.74-4.07-4.07-4.07h-.58c-2.32,0-4.07,1.74-4.07,4.07ZM968.43,199.48c12.49,0,21.79,9.3,21.79,21.79s-9.3,22.08-21.79,22.08-22.08-9.01-22.08-22.08,9.59-21.79,22.08-21.79ZM968.43,286.63c12.49,0,21.79,9.3,21.79,21.79s-9.3,22.08-21.79,22.08-22.08-9-22.08-22.08,9.59-21.79,22.08-21.79ZM968.43,373.78c12.49,0,21.79,9.3,21.79,21.79s-9.3,22.08-21.79,22.08-22.08-9.01-22.08-22.08,9.59-21.79,22.08-21.79ZM963.78,221.27v.58c0,2.32,1.74,4.07,4.07,4.07h.58c2.32,0,4.07-1.74,4.07-4.07v-.58c0-2.32-1.74-4.07-4.07-4.07h-.58c-2.32,0-4.07,1.74-4.07,4.07ZM963.78,308.42v.58c0,2.32,1.74,4.07,4.07,4.07h.58c2.32,0,4.07-1.74,4.07-4.07v-.58c0-2.32-1.74-4.07-4.07-4.07h-.58c-2.32,0-4.07,1.74-4.07,4.07ZM963.78,395.57v.58c0,2.32,1.74,4.07,4.07,4.07h.58c2.32,0,4.07-1.74,4.07-4.07v-.58c0-2.32-1.74-4.07-4.07-4.07h-.58c-2.32,0-4.07,1.74-4.07,4.07ZM997.48,199.48c12.49,0,21.79,9.3,21.79,21.79s-9.3,22.08-21.79,22.08-22.08-9.01-22.08-22.08,9.59-21.79,22.08-21.79ZM997.48,373.78c12.49,0,21.79,9.3,21.79,21.79s-9.3,22.08-21.79,22.08-22.08-9.01-22.08-22.08,9.59-21.79,22.08-21.79ZM992.83,221.27v.58c0,2.32,1.74,4.07,4.07,4.07h.58c2.32,0,4.07-1.74,4.07-4.07v-.58c0-2.32-1.74-4.07-4.07-4.07h-.58c-2.32,0-4.07,1.74-4.07,4.07ZM992.83,395.57v.58c0,2.32,1.74,4.07,4.07,4.07h.58c2.32,0,4.07-1.74,4.07-4.07v-.58c0-2.32-1.74-4.07-4.07-4.07h-.58c-2.32,0-4.07,1.74-4.07,4.07Z"/>
      <path class="cls-1" d="M1046.57,228.53c12.49,0,21.79,9.3,21.79,21.79s-9.3,22.08-21.79,22.08-22.08-9-22.08-22.08,9.59-21.79,22.08-21.79ZM1046.57,257.58c12.49,0,21.79,9.3,21.79,21.79s-9.3,22.08-21.79,22.08-22.08-9-22.08-22.08,9.59-21.79,22.08-21.79ZM1046.57,344.73c12.49,0,21.79,9.3,21.79,21.79s-9.3,22.08-21.79,22.08-22.08-9.01-22.08-22.08,9.59-21.79,22.08-21.79ZM1041.92,250.32v.58c0,2.32,1.74,4.07,4.07,4.07h.58c2.32,0,4.07-1.74,4.07-4.07v-.58c0-2.32-1.74-4.07-4.07-4.07h-.58c-2.32,0-4.07,1.74-4.07,4.07ZM1041.92,279.37v.58c0,2.32,1.74,4.07,4.07,4.07h.58c2.32,0,4.07-1.74,4.07-4.07v-.58c0-2.32-1.74-4.07-4.07-4.07h-.58c-2.32,0-4.07,1.74-4.07,4.07ZM1041.92,366.52v.58c0,2.32,1.74,4.07,4.07,4.07h.58c2.32,0,4.07-1.74,4.07-4.07v-.58c0-2.32-1.74-4.07-4.07-4.07h-.58c-2.32,0-4.07,1.74-4.07,4.07ZM1075.62,199.48c12.49,0,21.79,9.3,21.79,21.79s-9.29,22.08-21.79,22.08-22.08-9.01-22.08-22.08,9.59-21.79,22.08-21.79ZM1075.62,286.63c12.49,0,21.79,9.3,21.79,21.79s-9.29,22.08-21.79,22.08-22.08-9-22.08-22.08,9.59-21.79,22.08-21.79ZM1075.62,373.78c12.49,0,21.79,9.3,21.79,21.79s-9.29,22.08-21.79,22.08-22.08-9.01-22.08-22.08,9.59-21.79,22.08-21.79ZM1070.97,221.27v.58c0,2.32,1.74,4.07,4.07,4.07h.58c2.32,0,4.07-1.74,4.07-4.07v-.58c0-2.32-1.74-4.07-4.07-4.07h-.58c-2.32,0-4.07,1.74-4.07,4.07ZM1070.97,308.42v.58c0,2.32,1.74,4.07,4.07,4.07h.58c2.32,0,4.07-1.74,4.07-4.07v-.58c0-2.32-1.74-4.07-4.07-4.07h-.58c-2.32,0-4.07,1.74-4.07,4.07ZM1070.97,395.57v.58c0,2.32,1.74,4.07,4.07,4.07h.58c2.32,0,4.07-1.74,4.07-4.07v-.58c0-2.32-1.74-4.07-4.07-4.07h-.58c-2.32,0-4.07,1.74-4.07,4.07ZM1104.67,199.48c12.49,0,21.79,9.3,21.79,21.79s-9.3,22.08-21.79,22.08-22.08-9.01-22.08-22.08,9.59-21.79,22.08-21.79ZM1104.67,286.63c12.49,0,21.79,9.3,21.79,21.79s-9.3,22.08-21.79,22.08-22.08-9-22.08-22.08,9.59-21.79,22.08-21.79ZM1104.67,373.78c12.49,0,21.79,9.3,21.79,21.79s-9.3,22.08-21.79,22.08-22.08-9.01-22.08-22.08,9.59-21.79,22.08-21.79ZM1100.02,221.27v.58c0,2.32,1.74,4.07,4.07,4.07h.58c2.32,0,4.07-1.74,4.07-4.07v-.58c0-2.32-1.74-4.07-4.07-4.07h-.58c-2.32,0-4.07,1.74-4.07,4.07ZM1100.02,308.42v.58c0,2.32,1.74,4.07,4.07,4.07h.58c2.32,0,4.07-1.74,4.07-4.07v-.58c0-2.32-1.74-4.07-4.07-4.07h-.58c-2.32,0-4.07,1.74-4.07,4.07ZM1100.02,395.57v.58c0,2.32,1.74,4.07,4.07,4.07h.58c2.32,0,4.07-1.74,4.07-4.07v-.58c0-2.32-1.74-4.07-4.07-4.07h-.58c-2.32,0-4.07,1.74-4.07,4.07ZM1133.72,199.48c12.49,0,21.79,9.3,21.79,21.79s-9.29,22.08-21.79,22.08-22.08-9.01-22.08-22.08,9.59-21.79,22.08-21.79ZM1133.72,286.63c12.49,0,21.79,9.3,21.79,21.79s-9.29,22.08-21.79,22.08-22.08-9-22.08-22.08,9.59-21.79,22.08-21.79ZM1133.72,373.78c12.49,0,21.79,9.3,21.79,21.79s-9.29,22.08-21.79,22.08-22.08-9.01-22.08-22.08,9.59-21.79,22.08-21.79ZM1129.07,221.27v.58c0,2.32,1.74,4.07,4.07,4.07h.58c2.32,0,4.07-1.74,4.07-4.07v-.58c0-2.32-1.74-4.07-4.07-4.07h-.58c-2.32,0-4.07,1.74-4.07,4.07ZM1129.07,308.42v.58c0,2.32,1.74,4.07,4.07,4.07h.58c2.32,0,4.07-1.74,4.07-4.07v-.58c0-2.32-1.74-4.07-4.07-4.07h-.58c-2.32,0-4.07,1.74-4.07,4.07ZM1129.07,395.57v.58c0,2.32,1.74,4.07,4.07,4.07h.58c2.32,0,4.07-1.74,4.07-4.07v-.58c0-2.32-1.74-4.07-4.07-4.07h-.58c-2.32,0-4.07,1.74-4.07,4.07ZM1162.77,199.48c12.49,0,21.79,9.3,21.79,21.79s-9.3,22.08-21.79,22.08-22.08-9.01-22.08-22.08,9.59-21.79,22.08-21.79ZM1162.77,286.63c12.49,0,21.79,9.3,21.79,21.79s-9.3,22.08-21.79,22.08-22.08-9-22.08-22.08,9.59-21.79,22.08-21.79ZM1162.77,373.78c12.49,0,21.79,9.3,21.79,21.79s-9.3,22.08-21.79,22.08-22.08-9.01-22.08-22.08,9.59-21.79,22.08-21.79ZM1158.12,221.27v.58c0,2.32,1.74,4.07,4.07,4.07h.58c2.32,0,4.07-1.74,4.07-4.07v-.58c0-2.32-1.74-4.07-4.07-4.07h-.58c-2.32,0-4.07,1.74-4.07,4.07ZM1158.12,308.42v.58c0,2.32,1.74,4.07,4.07,4.07h.58c2.32,0,4.07-1.74,4.07-4.07v-.58c0-2.32-1.74-4.07-4.07-4.07h-.58c-2.32,0-4.07,1.74-4.07,4.07ZM1158.12,395.57v.58c0,2.32,1.74,4.07,4.07,4.07h.58c2.32,0,4.07-1.74,4.07-4.07v-.58c0-2.32-1.74-4.07-4.07-4.07h-.58c-2.32,0-4.07,1.74-4.07,4.07ZM1191.82,228.53c12.49,0,21.79,9.3,21.79,21.79s-9.3,22.08-21.79,22.08-22.08-9-22.08-22.08,9.59-21.79,22.08-21.79ZM1191.82,315.68c12.49,0,21.79,9.3,21.79,21.79s-9.3,22.08-21.79,22.08-22.08-9.01-22.08-22.08,9.59-21.79,22.08-21.79ZM1191.82,344.73c12.49,0,21.79,9.3,21.79,21.79s-9.3,22.08-21.79,22.08-22.08-9.01-22.08-22.08,9.59-21.79,22.08-21.79ZM1187.17,250.32v.58c0,2.32,1.74,4.07,4.07,4.07h.58c2.32,0,4.07-1.74,4.07-4.07v-.58c0-2.32-1.74-4.07-4.07-4.07h-.58c-2.32,0-4.07,1.74-4.07,4.07ZM1187.17,337.47v.58c0,2.32,1.74,4.07,4.07,4.07h.58c2.32,0,4.07-1.74,4.07-4.07v-.58c0-2.32-1.74-4.07-4.07-4.07h-.58c-2.32,0-4.07,1.74-4.07,4.07ZM1187.17,366.52v.58c0,2.32,1.74,4.07,4.07,4.07h.58c2.32,0,4.07-1.74,4.07-4.07v-.58c0-2.32-1.74-4.07-4.07-4.07h-.58c-2.32,0-4.07,1.74-4.07,4.07Z"/>
    </g>
  </g>
</svg>