<?xml version="1.0" encoding="UTF-8"?>
<svg id="Layer_2" data-name="Layer 2" xmlns="http://www.w3.org/2000/svg" viewBox="0 0 1252.25 425.48">
  <defs>
    <style>
      .cls-1 {
        stroke: #fff;
        stroke-width: .81px;
      }
    </style>
  </defs>
  <g id="Home_Page_Text_copy_2" data-name="Home Page Text copy 2">
    <g id="Chevalier_Stripes" data-name="Chevalier Stripes">
      <path class="cls-1" d="M175.12,80.67h-4.77c-5.53-11.72-11.03-21.46-16.5-29.21-5.47-7.75-11.93-14.84-19.4-21.27-17.71-15.32-36.11-22.97-55.2-22.97-5.95,0-11.41.76-16.39,2.27-4.98,1.51-9.23,3.64-12.76,6.39-3.53,2.75-6.26,6.06-8.2,9.94-1.94,3.88-2.9,8.19-2.9,12.92,0,4.35,1,8.38,3.01,12.07,2,3.7,4.6,6.58,7.78,8.66,3.59,2.27,8.12,4.26,13.59,5.96,5.46,1.7,12.76,3.59,21.89,5.68l38.59,8.52c9.96,2.08,19.23,4.97,27.81,8.66,8.58,3.69,15.28,7.52,20.13,11.5,13.14,11.36,19.71,28.3,19.71,50.83,0,10.6-1.59,20.17-4.77,28.69-3.18,8.52-7.71,15.72-13.59,21.59-5.88,5.86-13.07,10.36-21.58,13.49-8.51,3.12-18.09,4.68-28.74,4.68s-20.68-1.7-30.5-5.11c-9.82-3.4-18.88-8.42-27.18-15.03-1.94-1.52-4.08-3.36-6.43-5.53-2.35-2.17-5.6-5.25-9.75-9.22l-29.47,29.78h-5.39v-84.52h5.39c9.54,21.18,22.27,39.14,38.18,53.89,10.65,10.02,21.09,17.3,31.33,21.84,10.24,4.54,21.3,6.81,33.2,6.81,13.42,0,23.58-2.46,30.5-7.37,6.92-4.92,10.38-12,10.38-21.27,0-5.86-1.38-10.78-4.15-14.75-2.77-3.97-7.26-7.37-13.49-10.21-1.52-.57-3.5-1.28-5.91-2.13-2.42-.85-5.02-1.7-7.78-2.55-2.77-.85-5.54-1.65-8.3-2.41-2.77-.75-5.19-1.32-7.26-1.7l-43.37-8.51c-42.33-8.51-63.5-31.29-63.5-68.35,0-10.4,1.76-20.04,5.29-28.93,3.53-8.89,8.4-16.54,14.63-22.97,6.22-6.43,13.62-11.44,22.2-15.03C60.03,2.21,69.43.41,79.67.41c12.04,0,23.24,2.46,33.62,7.37,10.38,4.92,20.89,12.76,31.54,23.54l26.77-27.92h3.53v77.27ZM14.72,66.21c-.28,1.52-.42,2.74-.42,3.69v5.96c0,.95.14,2.18.42,3.69h26.98c-2.63-1.7-4.74-3.54-6.33-5.53-1.59-1.99-3.15-4.58-4.67-7.8h-15.98ZM18.46,47.49c-.83,2.65-1.49,4.92-1.97,6.81-.49,1.89-.93,4.16-1.35,6.81h13.49c-.69-2.46-1.11-4.44-1.24-5.96-.14-1.51-.21-3.5-.21-5.96v-1.7h-8.71ZM15.35,84.64c.28,1.7.52,3.08.73,4.11.21,1.04.45,1.99.73,2.84.28.85.59,1.75.93,2.69.34.95.79,2.18,1.35,3.69h91.51l-35.69-7.09c-4.98-.94-9.31-1.94-12.97-2.98-3.67-1.04-6.95-2.13-9.86-3.26H15.35ZM37.13,183.34c-3.04-3.02-6.19-6.85-9.44-11.49-3.25-4.63-6.26-9.4-9.03-14.32v25.81h18.47ZM18.67,207.45l18.05-19h-18.05v19ZM27.8,42.38c.69-3.59,1.45-6.71,2.28-9.36.83-2.65,2-5.39,3.53-8.22-2.77,2.27-5.19,4.82-7.26,7.66-2.08,2.84-4.01,6.15-5.81,9.93h7.26ZM21.36,103.08c1.8,3.22,3.39,5.72,4.77,7.52,1.38,1.8,3.25,3.74,5.6,5.81h128.03c-3.18-2.65-7.06-5.11-11.62-7.38-4.57-2.27-9.62-4.25-15.15-5.96H21.36ZM38.38,121.51c2.35,1.7,4.74,3.17,7.16,4.4,2.42,1.23,5.01,2.37,7.78,3.4,2.77,1.04,5.91,1.99,9.44,2.84,3.53.85,7.64,1.75,12.35,2.69h98.98c-1.25-2.84-2.53-5.25-3.84-7.23-1.32-1.99-2.87-4.01-4.67-6.1H38.38ZM101.04,140.23l11.41,2.27c7.61,1.52,14.56,3.22,20.85,5.1,6.29,1.89,11.58,3.88,15.87,5.96h29.67c-.42-3.02-.8-5.34-1.14-6.95-.35-1.6-.87-3.73-1.56-6.38h-75.12ZM161.84,20.83l-11.21,12.48h11.21v-12.48ZM150.64,38.41c1.11,1.33,2.08,2.51,2.91,3.55.83,1.04,1.62,2.13,2.39,3.26.76,1.13,1.62,2.37,2.59,3.69.97,1.33,2.08,3.03,3.32,5.11v-15.6h-11.21ZM157.69,158.67c2.21,1.89,3.97,3.78,5.29,5.67,1.31,1.89,2.73,4.44,4.25,7.66h10.79c.42-2.46.69-4.63.83-6.52.14-1.89.21-4.16.21-6.81h-21.37ZM168.69,177.1c.14,1.33.24,2.41.31,3.26.07.85.1,1.56.1,2.13,0,2.65-.28,5.25-.83,7.8-.55,2.55-1.52,5.63-2.9,9.22,2.9-2.65,5.25-5.62,7.05-8.93,1.8-3.31,3.32-7.8,4.57-13.47h-8.3Z"/>
      <path class="cls-1" d="M228.24,155.55c-.55,2.09-.93,3.95-1.14,5.56-.21,1.62-.31,3.47-.31,5.56,0,7.42,1.42,14.41,4.25,20.97,2.83,6.56,6.46,11.17,10.89,13.84,2.08,1.33,4.32,2.28,6.74,2.85,2.42.57,5.98,1.04,10.69,1.43v6.81h-82.17v-6.81c7.61-.38,15.01-4.87,22.2-13.47,7.19-8.6,14.45-21.7,21.79-39.28L283.65,1.54h5.39l70.55,171.87c2.63,6.43,5.12,11.73,7.47,15.88,2.35,4.16,4.77,7.47,7.26,9.93,2.49,2.46,5.22,4.16,8.2,5.11,2.97.94,6.46,1.42,10.48,1.42h3.11v6.81h-118.69v-6.81h11.62c4.29,0,7.75-1.29,10.38-3.85,2.63-2.57,3.94-6.04,3.94-10.41,0-1.52-.24-3.23-.73-5.13-.49-1.9-1.07-3.9-1.76-5.99l-9.96-24.82h-62.67ZM204.17,195.82c-2.35,2.65-4.15,4.58-5.39,5.81-1.25,1.23-2.84,2.6-4.77,4.11h25.73c-.83-1.89-1.49-3.5-1.97-4.82-.49-1.32-.93-3.03-1.35-5.1h-12.24ZM215.58,190.43c-.28-.94-.42-1.75-.42-2.41v-1.84c0-1.7.21-4.72.62-9.08-1.66,3.22-3.01,5.72-4.05,7.52-1.04,1.8-2.32,3.74-3.84,5.81h7.68ZM258.54,76.98l-28.63,71.76h57.69l-29.05-71.76ZM294.64,66.21h-31.96l-1.25,2.84,4.36,10.49h34.24l-5.4-13.33ZM286.96,47.49h-16.39l-5.6,13.61h27.6l-5.6-13.61ZM302.32,84.64h-34.45l5.4,13.33h34.45l-5.4-13.33ZM278.87,27.63l-6.23,14.75h12.24l-6.02-14.75ZM309.79,103.08h-34.45l5.4,13.33h34.65l-5.6-13.33ZM317.47,121.51h-34.65l5.39,13.33h34.86l-5.6-13.33ZM325.15,140.23h-34.86l5.4,13.33,34.86.08-5.39-13.41ZM332.82,158.67h-34.86l5.39,13.33h34.86l-5.39-13.33ZM308.75,195.82c-.28,2.08-.73,3.83-1.35,5.25-.62,1.42-1.56,2.98-2.8,4.68h47.52l-4.15-9.93h-39.22ZM340.29,177.1h-34.86l1.04,2.55c.97,2.46,1.56,4.3,1.76,5.53.21,1.23.45,2.98.73,5.25h36.94l-5.6-13.33Z"/>
      <path class="cls-1" d="M575.81,119.81v-50.33c0-36.59-11.14-55.17-33.41-55.74v-6.81h76.36v6.81c-5.95.38-10.69,1.38-14.21,3-3.53,1.62-6.82,4.34-9.86,8.15-8.16,10.11-12.24,25.02-12.24,44.71v149.47h-4.98L441.97,45.79v104.27c0,18.19,2.83,31.96,8.51,41.34,5.67,9.37,14.04,14.15,25.11,14.34v6.81h-76.57v-6.81c5.95-.38,10.69-1.37,14.21-2.99s6.81-4.32,9.86-8.11c8.16-10.05,12.24-24.94,12.24-44.66V38.2l-5.39-6.54c-.97-1.13-2.21-2.51-3.74-4.12-1.52-1.61-3.15-3.23-4.88-4.84-1.73-1.61-3.39-3.04-4.98-4.27-1.59-1.23-2.87-2.13-3.84-2.7-1.11-.57-2.73-1.04-4.88-1.42-2.15-.38-4.25-.57-6.33-.57h-.83v-6.81h86.53l88.81,112.88ZM466.66,13.74h-47.31c1.94,1.56,3.63,2.97,5.08,4.23s3.35,3.26,5.71,5.98h44.2l-7.68-10.21ZM427.44,198.94c-1.52,1.89-2.63,3.21-3.32,3.97-.69.75-1.73,1.7-3.11,2.84h22.41c-.97-1.33-1.63-2.32-1.97-2.98-.35-.66-.93-1.94-1.76-3.83h-12.24ZM438.02,193.55c-.69-2.46-1.14-4.44-1.35-5.96-.21-1.51-.45-3.59-.73-6.24-.69,2.46-1.32,4.4-1.87,5.81-.55,1.42-1.59,3.54-3.11,6.38h7.05ZM435.12,29.05c1.11,1.33,1.97,2.37,2.59,3.12.62.76,1.35,1.61,2.18,2.55l6.02,7.66h42.95l-10.38-13.33h-43.37ZM449.85,47.49l10.58,13.61h42.95l-10.38-13.61h-43.16ZM464.58,66.21l10.58,13.33h42.75l-10.38-13.33h-42.95ZM479.11,84.64l10.58,13.33h42.75l-10.58-13.33h-42.75ZM493.63,103.08l10.58,13.33h42.75l-10.58-13.33h-42.75ZM508.16,121.51l10.58,13.33h42.75l-10.58-13.33h-42.75ZM522.69,140.23l10.38,13.33h42.95l-10.58-13.33h-42.75ZM537.21,158.67l10.38,13.33h29.67v-13.33h-40.05ZM551.74,177.1l10.38,13.33h15.15v-13.33h-25.52ZM580.99,20.54c.83-1.89,1.45-3.16,1.87-3.83.42-.66,1.11-1.65,2.08-2.98h-22.62c1.38,1.33,2.42,2.32,3.11,2.98.69.67,1.87,1.94,3.53,3.83h12.04ZM566.26,195.54l11,14.3v-14.3h-11ZM572.49,25.93c1.38,2.65,2.35,4.59,2.9,5.81.55,1.23,1.11,2.89,1.66,4.96.28-2.27.55-4.11.83-5.53.28-1.42.76-3.17,1.45-5.25h-6.85Z"/>
      <path class="cls-1" d="M623.53,205.75h7.26c5.95,0,10.34-.38,13.18-1.14,2.83-.76,5.22-2.28,7.16-4.55,2.08-2.28,3.49-5.45,4.25-9.53.76-4.08,1.14-10.48,1.14-19.2V48.16c0-8.72-.38-15.12-1.14-19.2-.76-4.08-2.18-7.25-4.25-9.53-1.94-2.08-4.33-3.55-7.16-4.41-2.84-.85-7.23-1.28-13.18-1.28h-7.26v-6.81h116.52c6.49,0,12.3.19,17.41.57,5.11.38,9.78,1.04,13.99,1.99,4.21.95,8.12,2.18,11.71,3.69,3.59,1.51,7.19,3.4,10.78,5.67,6.22,3.78,11.88,8.89,17,15.32,5.11,6.43,9.53,13.71,13.26,21.84,3.73,8.13,6.63,16.92,8.71,26.38,2.07,9.46,3.11,19,3.11,28.65s-1.07,19.48-3.21,28.93c-2.14,9.46-5.18,18.25-9.12,26.38-3.94,8.13-8.6,15.36-13.99,21.7-5.39,6.34-11.33,11.3-17.82,14.89-5.25,3.02-12.88,5.39-22.9,7.09-10.02,1.7-20.97,2.55-32.85,2.55h-112.58v-6.81ZM692.42,13.74h-37.77c1.52,1.89,2.63,3.36,3.32,4.4.69,1.04,1.45,2.88,2.28,5.53h32.16v-9.93ZM660.26,195.82c-.83,2.46-1.56,4.25-2.18,5.39s-1.76,2.65-3.42,4.54h37.77v-9.93h-32.16ZM661.5,29.05c.42,3.03.69,5.3.83,6.81.14,1.52.21,3.69.21,6.52h29.88v-13.33h-30.92ZM662.54,177.1c-.14,3.22-.24,5.53-.31,6.95-.07,1.42-.31,3.54-.73,6.38h30.92v-13.33h-29.88ZM662.54,47.49v13.61h29.88v-13.61h-29.88ZM662.54,66.21v13.33h29.88v-13.33h-29.88ZM662.54,84.64v13.33h29.88v-13.33h-29.88ZM662.54,103.08v13.33h29.88v-13.33h-29.88ZM662.54,121.51v13.33h29.88v-13.33h-29.88ZM662.54,140.23v13.33h29.88v-13.33h-29.88ZM662.54,158.67v13.33h29.88v-13.33h-29.88ZM723.75,205.75h8.71c2.35,0,4.32-.1,5.91-.28,1.59-.19,2.9-.33,3.94-.42,1.04-.1,2.11-.34,3.22-.71,5.67-1.52,10.34-4.27,14.01-8.25,3.66-3.98,6.74-9.58,9.23-16.79,2.77-8.15,4.88-18.16,6.33-30.01,1.45-11.85,2.18-25.18,2.18-39.97,0-22.38-1.21-40.16-3.63-53.34-2.42-13.18-6.26-23.47-11.52-30.86-1.66-2.28-3.39-4.13-5.19-5.55-1.8-1.42-4.01-2.56-6.64-3.41-2.63-.85-5.78-1.47-9.44-1.85-3.67-.38-8.13-.57-13.38-.57h-17.85v192.01h14.11ZM781.1,23.95c-3.6-3.11-7.22-5.44-10.89-7-3.66-1.56-7.99-2.62-12.96-3.21,2.07,1.37,3.76,2.68,5.08,3.94,1.31,1.27,3.01,3.35,5.08,6.27h13.69ZM766.78,195.54c-1.52,2.14-2.83,3.84-3.94,5.11-1.11,1.26-2.97,2.96-5.59,5.11,5.52-.78,10.08-1.9,13.67-3.35,3.59-1.46,7.18-3.75,10.78-6.86h-14.92ZM775.08,177.1c-.83,2.65-1.63,4.96-2.39,6.95s-1.76,4.11-3,6.38h17.41c1.93-2.27,3.66-4.4,5.18-6.38,1.52-1.99,3.11-4.3,4.77-6.95h-21.97ZM770.72,29.05c1.24,2.27,2.24,4.35,3.01,6.24.76,1.89,1.62,4.25,2.59,7.09h20.31c-1.94-3.02-3.6-5.48-4.98-7.37-1.38-1.89-3.04-3.87-4.97-5.96h-15.96ZM779.43,158.67c-.42,2.27-.83,4.4-1.25,6.38s-.97,4.3-1.66,6.95h23.63c1.24-2.46,2.31-4.63,3.21-6.52.9-1.89,1.9-4.16,3.01-6.81h-26.95ZM777.89,47.49c.55,2.65,1,4.92,1.34,6.81.34,1.89.72,4.16,1.13,6.81h25.18c-1.24-3.21-2.27-5.72-3.1-7.52-.83-1.79-1.79-3.83-2.89-6.1h-21.67ZM781.88,140.23c-.28,2.65-.49,4.73-.62,6.24-.14,1.52-.49,3.88-1.04,7.09h28.01c.83-2.65,1.48-4.87,1.97-6.67.48-1.79,1.07-4.01,1.76-6.67h-30.09ZM781.02,66.21c.28,2.65.48,4.87.62,6.67.14,1.8.34,4.02.62,6.67h28.84c-.69-2.65-1.28-4.91-1.76-6.81-.49-1.89-1.14-4.06-1.97-6.52h-26.35ZM783.1,121.51c-.28,3.22-.42,5.53-.42,6.95s-.14,3.54-.42,6.38h30.91c.42-2.65.69-4.87.83-6.67.14-1.79.35-4.01.63-6.67h-31.53ZM782.68,84.64c.14,2.27.21,4.25.21,5.96s.07,4.16.21,7.37h31.13c-.28-2.84-.55-5.06-.83-6.67-.28-1.6-.69-3.83-1.25-6.67h-29.47ZM783.31,103.08v9.64c0,.95-.07,2.18-.21,3.69h31.96v-8.51c0-1.13-.07-2.74-.21-4.82h-31.54Z"/>
      <path class="cls-1" d="M958.23,73.47c2.91-5.69,5.05-11,6.43-15.93,1.38-4.93,2.08-9.95,2.08-15.08,0-8.91-2.11-15.93-6.33-21.05-4.22-5.12-9.93-7.68-17.12-7.68h-4.36v-6.81h83.62v6.81c-9.96.76-19.68,6.12-29.15,16.07-9.48,9.96-19.61,25.65-30.4,47.08l-22.2,42.95v51.49c0,8.73.38,15.12,1.14,19.2.76,4.08,2.18,7.25,4.25,9.53,1.94,2.27,4.32,3.79,7.16,4.55,2.83.76,7.16,1.14,12.97,1.14h7.26v6.81h-118.9v-6.81h7.26c5.95,0,10.34-.38,13.18-1.14,2.83-.76,5.22-2.28,7.16-4.55,2.08-2.28,3.49-5.45,4.25-9.53.76-4.08,1.14-10.48,1.14-19.2v-36.13l-51.67-100.13c-4.01-7.58-8.16-13.03-12.45-16.35-4.29-3.32-9.47-4.98-15.56-4.98h-4.98v-6.81h119.73v6.81h-8.09c-11.62,0-17.43,3.98-17.43,11.95,0,3.41,1.38,7.78,4.15,13.09l37.56,71.4,19.3-36.69ZM875.85,23.66c.28-2.08.65-3.73,1.14-4.96.48-1.23,1.49-2.88,3.01-4.96h-52.5c1.94,1.52,3.49,2.93,4.67,4.25,1.17,1.33,2.52,3.22,4.05,5.67h39.63ZM881.45,42.38l-2.28-4.25c-1.11-2.08-1.8-3.59-2.08-4.54-.28-.94-.62-2.46-1.04-4.54h-36.94l7.05,13.33h35.28ZM891,61.1l-6.85-13.61h-35.28l6.85,13.61h35.27ZM900.54,79.54l-6.85-13.33h-35.28l7.06,13.33h35.07ZM910.3,97.97l-7.06-13.33h-35.07l6.85,13.33h35.28ZM919.84,116.41l-7.06-13.33h-35.07l7.06,13.33h35.07ZM891.41,195.82c-.83,2.46-1.56,4.25-2.18,5.39s-1.76,2.65-3.42,4.54h42.33c-1.24-2.08-2.07-3.69-2.49-4.82-.41-1.13-.9-2.84-1.45-5.1h-32.79ZM923.58,123.5l-1.04-1.99h-35.07l6.23,11.91v1.42h29.88v-11.34ZM893.7,177.1c-.14,3.22-.24,5.53-.31,6.95-.07,1.42-.31,3.54-.73,6.38h31.12c-.14-1.51-.21-2.74-.21-3.69v-9.64h-29.88ZM893.7,140.23v13.33h29.88v-13.33h-29.88ZM893.7,158.67v13.33h29.88v-13.33h-29.88ZM984.37,23.66c1.11-1.51,2.14-2.88,3.11-4.11.97-1.23,2.49-3.16,4.56-5.81h-29.88c1.52,2.08,2.59,3.59,3.22,4.54.62.95,1.56,2.74,2.8,5.39h16.18ZM970.06,29.05c.69,2.65,1.21,5.2,1.56,7.66.34,2.46.52,5.3.52,8.51,1.8-3.78,3.25-6.67,4.36-8.65,1.11-1.99,2.63-4.49,4.57-7.52h-11Z"/>
      <path class="cls-1" d="M153.75,306.52v-52.36c0-8.72-.38-15.12-1.14-19.2-.76-4.08-2.18-7.26-4.25-9.54-1.94-2.08-4.33-3.55-7.16-4.41-2.84-.85-7.23-1.28-13.18-1.28h-1.25v-6.81h113.09v6.81h-7.26c-5.95,0-10.34.43-13.18,1.28-2.84.86-5.22,2.33-7.16,4.41-2.07,2.28-3.5,5.45-4.25,9.53-.76,4.08-1.14,10.48-1.14,19.2v123.17c0,8.73.38,15.12,1.14,19.2.76,4.08,2.18,7.25,4.25,9.53,1.94,2.27,4.32,3.79,7.16,4.55,2.83.76,7.23,1.14,13.18,1.14h7.26v6.81h-113.09v-6.81h1.25c5.95,0,10.34-.38,13.18-1.13,2.83-.76,5.22-2.28,7.16-4.56,2.08-2.28,3.49-5.45,4.25-9.53.76-4.08,1.14-10.48,1.14-19.2v-63.43h-67.23v63.43c0,8.73.38,15.12,1.14,19.2.76,4.08,2.18,7.25,4.25,9.53,1.94,2.28,4.32,3.79,7.16,4.56,2.83.75,7.16,1.13,12.97,1.13h1.25v6.81H.41v-6.81h7.26c5.95,0,10.34-.38,13.18-1.14,2.83-.76,5.22-2.28,7.16-4.55,2.08-2.28,3.49-5.45,4.25-9.53.76-4.08,1.14-10.48,1.14-19.2v-123.17c0-8.72-.38-15.12-1.14-19.2-.76-4.08-2.18-7.25-4.25-9.53-1.94-2.08-4.33-3.55-7.16-4.41-2.84-.85-7.23-1.28-13.18-1.28H.41v-6.81h113.09v6.81h-1.25c-5.95,0-10.34.43-13.18,1.28-2.84.86-5.22,2.33-7.16,4.41-2.08,2.28-3.5,5.46-4.25,9.54-.76,4.08-1.14,10.48-1.14,19.2v52.36h67.23ZM69.92,229.66c.55-2.08,1.04-3.69,1.45-4.82s1.24-2.84,2.49-5.11H31.53c1.52,1.89,2.63,3.36,3.32,4.4.69,1.04,1.45,2.88,2.28,5.53h32.79ZM37.13,401.82c-.83,2.46-1.56,4.25-2.18,5.39-.62,1.13-1.76,2.65-3.42,4.54h42.33c-1.25-2.08-2.07-3.64-2.49-4.68-.42-1.04-.9-2.79-1.45-5.25h-32.79ZM38.38,235.05c.42,3.03.69,5.3.83,6.81.14,1.52.21,3.69.21,6.52h29.88v-9.78c0-1.04.07-2.22.21-3.55h-31.12ZM39.42,383.1c-.14,3.22-.24,5.53-.31,6.95-.07,1.42-.31,3.54-.73,6.38h31.12c-.14-1.32-.21-2.5-.21-3.55v-9.78h-29.88ZM39.42,253.49v13.61h29.88v-13.61h-29.88ZM39.42,272.21v13.33h29.88v-13.33h-29.88ZM39.42,290.64v13.33h29.88v-13.33h-29.88ZM39.42,309.08v13.33h29.88v-13.33h-29.88ZM39.42,327.51v13.33h29.88v-13.33h-29.88ZM39.42,346.23v13.33h29.88v-13.33h-29.88ZM39.42,364.67v13.33h29.88v-13.33h-29.88ZM190.27,229.66c.55-2.08,1.04-3.69,1.45-4.82s1.25-2.84,2.49-5.11h-42.33c1.52,1.7,2.63,3.12,3.32,4.25.69,1.13,1.45,3.03,2.28,5.67h32.79ZM157.48,401.82c-.83,2.65-1.56,4.49-2.18,5.53-.62,1.04-1.76,2.5-3.42,4.4h42.33c-1.25-2.08-2.08-3.64-2.49-4.68-.42-1.04-.9-2.79-1.45-5.25h-32.79ZM158.73,235.05c.42,3.03.69,5.3.83,6.81.14,1.52.21,3.69.21,6.52h29.88v-9.78c0-1.04.07-2.22.21-3.55h-31.12ZM159.77,383.1c0,3.03-.07,5.25-.21,6.67-.14,1.42-.42,3.64-.83,6.67h31.12c-.14-1.32-.21-2.5-.21-3.55v-9.78h-29.88ZM159.77,253.49v13.61h29.88v-13.61h-29.88ZM159.77,272.21v13.33h29.88v-13.33h-29.88ZM159.77,290.64v13.33h29.88v-13.33h-29.88ZM159.77,309.08v13.33h29.88v-13.33h-29.88ZM159.77,327.51v13.33h29.88v-13.33h-29.88ZM159.77,346.23v13.33h29.88v-13.33h-29.88ZM159.77,364.67v13.33h29.88v-13.33h-29.88Z"/>
      <path class="cls-1" d="M426.4,332.62c0,11.34-.42,20.61-1.25,27.79-.83,7.19-2.28,13.8-4.36,19.85-10.1,29.68-34.58,44.53-73.46,44.53-26.29,0-45.1-9.55-56.44-28.65-2.21-3.59-4.08-7.33-5.6-11.2-1.52-3.87-2.73-8.22-3.63-13.05-.9-4.82-1.52-10.25-1.87-16.31-.35-6.05-.52-13.05-.52-20.99v-80.55c0-8.69-.38-15.08-1.14-19.14-.76-4.06-2.18-7.23-4.25-9.5-1.94-2.08-4.33-3.54-7.16-4.4-2.84-.85-7.23-1.28-13.18-1.28h-7.26v-6.81h119.11v6.81h-7.26c-5.95,0-10.34.43-13.18,1.28-2.84.85-5.22,2.32-7.16,4.4-2.08,2.27-3.5,5.44-4.25,9.5-.76,4.07-1.14,10.45-1.14,19.14v109.76c0,7.94.59,14.66,1.76,20.14,1.17,5.49,3.08,10.4,5.71,14.75,3.18,5.11,7.26,9.17,12.24,12.2,4.98,3.02,10.3,4.54,15.98,4.54,4.29,0,8.58-.76,12.87-2.27,4.29-1.52,8.37-3.59,12.24-6.24,3.87-2.65,7.4-5.76,10.58-9.36,3.18-3.59,5.81-7.56,7.88-11.91,1.52-3.21,2.8-6.52,3.84-9.93,1.04-3.4,1.87-7.23,2.49-11.49.62-4.25,1.07-9.12,1.35-14.61.28-5.48.42-12,.42-19.57v-54.74c0-36.49-11.14-55.02-33.41-55.59v-6.81h72v6.81c-10.38,1.52-18.3,7-23.76,16.45-5.47,9.46-8.2,22.5-8.2,39.14v57.29ZM315.81,229.66c.55-2.08,1.04-3.69,1.45-4.82s1.25-2.84,2.49-5.11h-42.33c1.52,1.7,2.63,3.17,3.32,4.4.69,1.23,1.45,3.08,2.28,5.53h32.79ZM315.18,248.38v-9.78c0-1.04.07-2.22.21-3.55h-31.13c.42,3.03.66,5.25.73,6.67.07,1.42.17,3.64.31,6.67h29.88ZM315.18,267.1v-13.61h-29.88v13.61h29.88ZM315.18,285.54v-13.33h-29.88v13.33h29.88ZM315.18,303.97v-13.33h-29.88v13.33h29.88ZM315.18,322.41v-13.33h-29.88v13.33h29.88ZM315.18,340.84v-13.33h-29.88v13.33h29.88ZM315.18,359.56v-13.33h-29.88c0,2.65.03,4.92.1,6.81.07,1.89.24,4.07.52,6.52h29.26ZM316.01,378c-.28-2.46-.45-4.44-.52-5.96-.07-1.51-.17-3.97-.31-7.37h-28.63c.42,3.22.79,5.67,1.14,7.37.34,1.7.86,3.69,1.56,5.96h26.77ZM320.58,396.43c-.97-2.46-1.73-4.63-2.28-6.52-.55-1.89-1.11-4.16-1.66-6.81h-25.73c1.11,2.84,2.18,5.2,3.22,7.09,1.04,1.89,2.46,3.97,4.25,6.24h22.2ZM302.73,401.54c4.84,5.11,10.24,9.08,16.19,11.91,5.95,2.84,11.76,4.25,17.43,4.25-3.32-2.65-5.88-5.06-7.68-7.23-1.8-2.18-3.73-5.15-5.81-8.93h-20.13ZM425.37,225.69c.69-1.51,1.21-2.55,1.56-3.12.34-.57,1-1.51,1.97-2.84h-22.62c1.25,1.13,2.14,2.03,2.7,2.69.55.67,1.52,1.75,2.9,3.26h13.49ZM415.61,231.08c1.52,2.46,2.66,4.59,3.42,6.38.76,1.8,1.49,3.93,2.18,6.38.14-2.65.34-4.72.62-6.24.28-1.51.83-3.69,1.66-6.52h-7.88Z"/>
      <path class="cls-1" d="M616.06,287.24l-5.81,1.42c-2.77-7.94-6.33-15.98-10.69-24.11-4.36-8.13-8.96-15.5-13.8-22.12-12.87-17.58-27.6-26.38-44.2-26.38-12.17,0-21.24,6.62-27.18,19.85-4.01,9.27-7.09,20.8-9.23,34.6-2.15,13.8-3.22,29.31-3.22,46.51,0,34.23,4.08,60.6,12.24,79.13,5.95,13.42,15.42,20.14,28.43,20.14,15.63,0,25.32-8.04,29.05-24.11,1.66-6.99,2.49-16.92,2.49-29.78,0-7.37-.31-13.42-.93-18.15-.62-4.72-1.83-8.41-3.63-11.06-1.8-2.65-4.22-4.44-7.26-5.39-3.04-.94-7.06-1.42-12.04-1.42h-8.51v-6.81h117.86v6.81h-10.79c-4.84,0-8.75.66-11.72,1.99-2.98,1.32-5.33,3.69-7.06,7.09-1.73,3.4-2.9,8.08-3.53,14.04s-.93,13.66-.93,23.12c0,6.05.03,11.3.1,15.74.07,4.44.17,8.37.31,11.77.14,3.4.38,6.47.73,9.22.34,2.74.73,5.53,1.14,8.37l-2.9,2.55c-3.32-3.22-7.33-5.77-12.04-7.66-4.7-1.89-9.54-2.84-14.53-2.84-3.18,0-7.13.57-11.83,1.7-4.7,1.13-9.68,2.74-14.94,4.82-4.43,1.7-8.34,3.12-11.72,4.25-3.39,1.13-6.61,2.03-9.65,2.69-3.04.66-6.05,1.13-9.03,1.42-2.98.28-6.26.43-9.86.43-5.4,0-10.86-.62-16.39-1.84-5.54-1.23-10.93-2.98-16.19-5.25-5.26-2.27-10.24-5.06-14.94-8.37-4.7-3.31-8.99-7.05-12.86-11.2-9.54-10.02-16.91-22.36-22.1-37.01-5.19-14.65-7.78-30.49-7.78-47.51,0-15.5,2.21-29.97,6.64-43.39,4.43-13.42,10.79-25.24,19.09-35.45,8.16-9.83,17.29-17.06,27.39-21.7,10.1-4.63,21.72-6.95,34.86-6.95,4.29,0,8.2.24,11.72.71,3.53.47,6.98,1.23,10.38,2.27,3.39,1.04,6.85,2.41,10.38,4.11,3.53,1.7,7.37,3.88,11.52,6.52,5.95,3.97,11,5.96,15.15,5.96,3.04,0,6.43-1.28,10.17-3.83,3.74-2.55,7.4-6,11-10.35h4.36l2.28,75.44ZM447.36,309.08c-.14,1.32-.21,2.46-.21,3.4v5.53c0,1.04.14,2.51.42,4.4h32.99v-13.33h-33.2ZM449.44,290.64c-.55,2.65-.93,4.87-1.14,6.67-.21,1.8-.45,4.02-.73,6.67h33.41c.14-2.65.28-4.92.42-6.81.14-1.89.34-4.06.62-6.52h-32.58ZM447.98,327.51c.28,2.65.55,4.87.83,6.67.28,1.8.69,4.02,1.25,6.67h31.33c-.28-2.27-.45-4.3-.52-6.1-.07-1.79-.18-4.21-.31-7.23h-32.58ZM454,272.21c-.69,2.27-1.32,4.4-1.87,6.38-.55,1.99-1.11,4.3-1.66,6.95h32.16c.42-2.46.76-4.63,1.04-6.52.28-1.89.76-4.16,1.45-6.81h-31.12ZM451.3,346.23c.69,2.46,1.28,4.64,1.76,6.52.48,1.89,1.21,4.16,2.18,6.81h28.84c-.55-3.21-.97-5.72-1.25-7.52-.28-1.79-.55-3.73-.83-5.81h-30.71ZM462.09,253.49c-1.25,2.27-2.32,4.45-3.22,6.52-.9,2.08-1.9,4.44-3.01,7.09h30.5c.69-3.21,1.28-5.62,1.76-7.23.48-1.6,1.14-3.73,1.97-6.38h-28.01ZM457.32,364.67c1.11,2.65,2.11,4.87,3.01,6.67.9,1.8,2.04,4.02,3.42,6.67h25.11c-.83-2.65-1.49-4.87-1.97-6.67-.49-1.79-1.07-4.01-1.76-6.67h-27.8ZM475.17,235.05c-1.94,2.08-3.7,4.16-5.29,6.24-1.59,2.08-3.22,4.44-4.88,7.09h27.18c1.11-2.84,2.04-5.1,2.8-6.81.76-1.7,1.83-3.87,3.22-6.52h-23.03ZM467.08,383.1c1.52,2.46,3.25,4.82,5.19,7.09,1.94,2.27,3.94,4.35,6.02,6.24h17.84c-1.11-2.27-2.04-4.35-2.8-6.24-.76-1.89-1.7-4.25-2.8-7.09h-23.45ZM501.1,229.95c1.66-2.65,3.22-4.96,4.67-6.95,1.45-1.99,3.56-4.68,6.33-8.08-11.9,1.7-22.41,6.71-31.54,15.03h20.54ZM484.3,401.54c2.91,2.27,5.91,4.25,9.03,5.96,3.11,1.7,7.43,3.69,12.97,5.96-1.11-1.52-1.97-2.74-2.59-3.69-.62-.95-1.21-1.84-1.76-2.69-.55-.85-1.07-1.7-1.56-2.55-.49-.85-1.07-1.84-1.76-2.98h-14.32ZM575.6,396.43c-.83,3.03-1.63,5.44-2.39,7.23-.76,1.79-1.9,4.01-3.42,6.67,6.36-2.46,11.69-4.21,15.98-5.25,4.29-1.04,8.44-1.56,12.45-1.56,1.94,0,3.66.09,5.19.28,1.52.19,3.53.66,6.02,1.42v-8.79h-33.82ZM611.08,335.74c.28-1.32.59-2.6.93-3.83.34-1.23.93-3.07,1.76-5.53h-42.54c1.25,1.89,2.14,3.4,2.7,4.54.55,1.13,1.25,2.74,2.07,4.82h35.07ZM578.3,378c-.28,3.22-.52,5.72-.73,7.52-.21,1.8-.45,3.74-.73,5.81h32.58v-13.33h-31.13ZM577.26,340.84c.42,3.22.69,5.58.83,7.09.14,1.52.28,3.59.42,6.24h30.92c.14-2.84.24-5.1.31-6.81.07-1.7.24-3.87.52-6.52h-32.99ZM578.71,359.56v8.23c0,1.13-.07,2.84-.21,5.1h30.92v-13.33h-30.71ZM599.46,228.53c-1.38,1.32-3.25,2.41-5.6,3.26-2.35.85-4.64,1.28-6.85,1.28l1.24,1.99h11.62l-.42-6.52ZM591.78,240.16c2.21,3.59,3.91,6.38,5.08,8.37,1.17,1.99,2.39,4.21,3.63,6.67l-.42-15.03h-8.3Z"/>
      <path class="cls-1" d="M789.32,306.52v-52.36c0-8.72-.38-15.12-1.14-19.2-.76-4.08-2.18-7.26-4.25-9.54-1.94-2.08-4.32-3.55-7.16-4.41-2.84-.85-7.23-1.28-13.18-1.28h-1.25v-6.81h113.09v6.81h-7.26c-5.95,0-10.34.43-13.18,1.28-2.84.86-5.22,2.33-7.16,4.41-2.08,2.28-3.5,5.45-4.25,9.53-.76,4.08-1.14,10.48-1.14,19.2v123.17c0,8.73.38,15.12,1.14,19.2.76,4.08,2.18,7.25,4.25,9.53,1.94,2.27,4.32,3.79,7.16,4.55,2.83.76,7.23,1.14,13.18,1.14h7.26v6.81h-113.09v-6.81h1.25c5.95,0,10.34-.38,13.18-1.13,2.83-.76,5.22-2.28,7.16-4.56,2.08-2.28,3.49-5.45,4.25-9.53.76-4.08,1.14-10.48,1.14-19.2v-63.43h-67.23v63.43c0,8.73.38,15.12,1.14,19.2.76,4.08,2.18,7.25,4.25,9.53,1.94,2.28,4.32,3.79,7.16,4.56,2.83.75,7.16,1.13,12.97,1.13h1.25v6.81h-112.88v-6.81h7.26c5.95,0,10.34-.38,13.18-1.14,2.83-.76,5.22-2.28,7.16-4.55,2.08-2.28,3.49-5.45,4.25-9.53.76-4.08,1.14-10.48,1.14-19.2v-123.17c0-8.72-.38-15.12-1.14-19.2-.76-4.08-2.18-7.25-4.25-9.53-1.94-2.08-4.33-3.55-7.16-4.41-2.84-.85-7.23-1.28-13.18-1.28h-7.26v-6.81h113.09v6.81h-1.25c-5.95,0-10.34.43-13.18,1.28-2.84.86-5.22,2.33-7.16,4.41-2.08,2.28-3.5,5.46-4.25,9.54-.76,4.08-1.14,10.48-1.14,19.2v52.36h67.23ZM705.49,229.66c.55-2.08,1.04-3.69,1.45-4.82s1.25-2.84,2.49-5.11h-42.33c1.52,1.89,2.63,3.36,3.32,4.4.69,1.04,1.45,2.88,2.28,5.53h32.79ZM672.71,401.82c-.83,2.46-1.56,4.25-2.18,5.39s-1.76,2.65-3.42,4.54h42.33c-1.25-2.08-2.08-3.64-2.49-4.68-.42-1.04-.9-2.79-1.45-5.25h-32.79ZM673.95,235.05c.42,3.03.69,5.3.83,6.81.14,1.52.21,3.69.21,6.52h29.88v-9.78c0-1.04.07-2.22.21-3.55h-31.13ZM674.99,383.1c-.14,3.22-.24,5.53-.31,6.95-.07,1.42-.31,3.54-.73,6.38h31.13c-.14-1.32-.21-2.5-.21-3.55v-9.78h-29.88ZM674.99,253.49v13.61h29.88v-13.61h-29.88ZM674.99,272.21v13.33h29.88v-13.33h-29.88ZM674.99,290.64v13.33h29.88v-13.33h-29.88ZM674.99,309.08v13.33h29.88v-13.33h-29.88ZM674.99,327.51v13.33h29.88v-13.33h-29.88ZM674.99,346.23v13.33h29.88v-13.33h-29.88ZM674.99,364.67v13.33h29.88v-13.33h-29.88ZM825.84,229.66c.55-2.08,1.04-3.69,1.45-4.82s1.24-2.84,2.49-5.11h-42.33c1.52,1.7,2.63,3.12,3.32,4.25.69,1.13,1.45,3.03,2.28,5.67h32.79ZM793.06,401.82c-.83,2.65-1.56,4.49-2.18,5.53-.62,1.04-1.76,2.5-3.42,4.4h42.33c-1.25-2.08-2.07-3.64-2.49-4.68-.42-1.04-.9-2.79-1.45-5.25h-32.79ZM794.3,235.05c.41,3.03.69,5.3.83,6.81.14,1.52.21,3.69.21,6.52h29.88v-9.78c0-1.04.07-2.22.21-3.55h-31.12ZM795.34,383.1c0,3.03-.07,5.25-.21,6.67-.14,1.42-.42,3.64-.83,6.67h31.12c-.14-1.32-.21-2.5-.21-3.55v-9.78h-29.88ZM795.34,253.49v13.61h29.88v-13.61h-29.88ZM795.34,272.21v13.33h29.88v-13.33h-29.88ZM795.34,290.64v13.33h29.88v-13.33h-29.88ZM795.34,309.08v13.33h29.88v-13.33h-29.88ZM795.34,327.51v13.33h29.88v-13.33h-29.88ZM795.34,346.23v13.33h29.88v-13.33h-29.88ZM795.34,364.67v13.33h29.88v-13.33h-29.88Z"/>
      <path class="cls-1" d="M1060.73,287.24h-4.98c-5.67-10.21-11.28-19.19-16.81-26.94-5.53-7.75-11.55-15.22-18.05-22.41-3.32-3.4-6.4-6.28-9.23-8.65-2.84-2.36-5.71-4.25-8.61-5.67-2.91-1.42-5.99-2.41-9.23-2.98-3.25-.57-6.88-.85-10.89-.85h-23.65v87.64h5.81c8.85,0,16.67-2.88,23.45-8.65,6.78-5.77,12.79-14.79,18.05-27.09h5.39v78.56h-5.39c-5.26-11.91-11.41-20.89-18.47-26.94-7.05-6.05-14.73-9.08-23.03-9.08h-5.81v97.57h17.84c4.57,0,8.85-.43,12.87-1.28,4.01-.85,7.89-2.18,11.62-3.97,3.73-1.8,7.43-4.11,11.1-6.95,3.66-2.84,7.43-6.24,11.31-10.21,6.22-6.62,12.04-13.52,17.43-20.7,5.4-7.18,10.86-15.5,16.39-24.96h4.77v74.88h-189.45v-6.81h7.26c5.95,0,10.34-.38,13.18-1.14,2.83-.76,5.22-2.28,7.16-4.55,2.08-2.28,3.49-5.45,4.25-9.53.76-4.08,1.14-10.48,1.14-19.2v-123.17c0-8.72-.38-15.12-1.14-19.2-.76-4.08-2.18-7.25-4.25-9.53-1.94-2.08-4.33-3.55-7.16-4.41-2.84-.85-7.23-1.28-13.18-1.28h-7.26v-6.81h187.58v74.31ZM942.04,219.74h-37.77c1.52,1.89,2.63,3.4,3.32,4.54.69,1.13,1.45,2.93,2.28,5.39h32.16v-9.93ZM909.88,401.82c-.83,2.46-1.56,4.25-2.18,5.39s-1.76,2.65-3.42,4.54h37.77v-9.93h-32.16ZM911.12,235.05c.42,2.84.65,5.01.73,6.52.07,1.52.17,3.79.31,6.81h29.88v-13.33h-30.92ZM912.16,383.1c-.14,3.22-.24,5.53-.31,6.95-.07,1.42-.31,3.54-.73,6.38h30.92v-13.33h-29.88ZM912.16,253.49v13.61h29.88v-13.61h-29.88ZM912.16,272.21v13.33h29.88v-13.33h-29.88ZM912.16,290.64v13.33h29.88v-13.33h-29.88ZM912.16,309.36v13.33h29.88v-13.33h-29.88ZM912.16,327.51v13.33h29.88v-13.33h-29.88ZM912.16,346.23v13.33h29.88v-13.33h-29.88ZM912.16,364.67v13.33h29.88v-13.33h-29.88ZM983.75,313.33c2.77,1.52,5.63,3.74,8.61,6.67,2.97,2.93,5.43,6,7.37,9.22v-15.88h-15.98ZM999.73,308.23v-15.07c-1.66,2.65-3.94,5.44-6.85,8.37-2.91,2.93-5.6,5.15-8.09,6.67l14.94.04ZM1021.93,399.83c-1.8,1.7-3.36,3.07-4.67,4.11-1.32,1.04-2.59,1.99-3.84,2.84-1.25.85-2.46,1.65-3.63,2.41-1.18.75-2.59,1.6-4.25,2.55h41.29v-11.91h-24.9ZM1044.96,219.74h-35.9c1.11.95,2.04,1.75,2.8,2.41.76.67,1.59,1.37,2.49,2.13.9.76,1.94,1.7,3.11,2.84,1.17,1.13,2.8,2.65,4.88,4.54h22.62v-11.91ZM1046.83,394.45v-24.67c-2.63,4.16-5.4,8.04-8.3,11.63-2.91,3.59-6.78,7.94-11.62,13.05h19.92ZM1027.12,237.04c3.87,4.35,7.16,8.32,9.86,11.91,2.7,3.59,5.36,7.56,7.99,11.91v-23.82h-17.84Z"/>
      <path class="cls-1" d="M1235.45,286.67h-4.77c-5.53-11.72-11.03-21.46-16.5-29.21-5.47-7.75-11.93-14.84-19.4-21.27-17.71-15.32-36.11-22.97-55.2-22.97-5.95,0-11.41.76-16.39,2.27-4.98,1.51-9.23,3.64-12.76,6.39-3.53,2.75-6.26,6.06-8.2,9.94-1.94,3.88-2.9,8.19-2.9,12.92,0,4.35,1,8.38,3.01,12.07,2,3.7,4.6,6.58,7.78,8.66,3.6,2.27,8.12,4.26,13.59,5.96,5.46,1.7,12.76,3.59,21.89,5.68l38.59,8.52c9.96,2.08,19.23,4.97,27.81,8.66,8.58,3.69,15.28,7.52,20.13,11.5,13.14,11.36,19.71,28.3,19.71,50.83,0,10.6-1.59,20.17-4.77,28.69-3.18,8.52-7.71,15.72-13.59,21.59-5.88,5.86-13.07,10.36-21.58,13.49-8.51,3.12-18.09,4.68-28.74,4.68s-20.68-1.7-30.5-5.11c-9.82-3.4-18.88-8.42-27.18-15.03-1.94-1.52-4.08-3.36-6.43-5.53-2.35-2.17-5.6-5.25-9.75-9.22l-29.46,29.78h-5.39v-84.52h5.39c9.54,21.18,22.27,39.14,38.18,53.89,10.65,10.02,21.09,17.3,31.33,21.84,10.24,4.54,21.3,6.81,33.2,6.81,13.42,0,23.58-2.46,30.5-7.37,6.92-4.92,10.38-12,10.38-21.27,0-5.86-1.38-10.78-4.15-14.75-2.77-3.97-7.26-7.37-13.49-10.21-1.52-.57-3.49-1.28-5.91-2.13-2.42-.85-5.02-1.7-7.78-2.55-2.77-.85-5.53-1.65-8.3-2.41-2.77-.75-5.19-1.32-7.26-1.7l-43.37-8.51c-42.33-8.51-63.5-31.29-63.5-68.35,0-10.4,1.76-20.04,5.29-28.93,3.53-8.89,8.4-16.54,14.63-22.97,6.23-6.43,13.62-11.44,22.2-15.03,8.58-3.59,17.98-5.39,28.22-5.39,12.04,0,23.24,2.46,33.62,7.37,10.38,4.92,20.89,12.76,31.54,23.54l26.77-27.92h3.53v77.27ZM1075.05,272.21c-.28,1.52-.42,2.74-.42,3.69v5.96c0,.95.14,2.18.42,3.69h26.98c-2.63-1.7-4.74-3.54-6.33-5.53-1.59-1.99-3.15-4.58-4.67-7.8h-15.98ZM1078.79,253.49c-.83,2.65-1.49,4.92-1.97,6.81-.49,1.89-.93,4.16-1.35,6.81h13.49c-.69-2.46-1.11-4.44-1.25-5.96-.14-1.51-.21-3.5-.21-5.96v-1.7h-8.71ZM1075.67,290.64c.28,1.7.52,3.08.73,4.11.21,1.04.45,1.99.73,2.84.28.85.59,1.75.93,2.69.34.95.79,2.18,1.35,3.69h91.51l-35.69-7.09c-4.98-.94-9.31-1.94-12.97-2.98-3.67-1.04-6.95-2.13-9.86-3.26h-36.73ZM1097.46,389.34c-3.04-3.02-6.19-6.85-9.44-11.49-3.25-4.63-6.26-9.4-9.03-14.32v25.81h18.47ZM1078.99,413.45l18.05-19h-18.05v19ZM1088.12,248.38c.69-3.59,1.45-6.71,2.28-9.36.83-2.65,2-5.39,3.53-8.22-2.77,2.27-5.19,4.82-7.26,7.66-2.07,2.84-4.01,6.15-5.81,9.93h7.26ZM1081.69,309.08c1.8,3.22,3.39,5.72,4.77,7.52,1.38,1.8,3.25,3.74,5.6,5.81h128.03c-3.18-2.65-7.05-5.11-11.62-7.38-4.56-2.27-9.62-4.25-15.15-5.96h-111.64ZM1098.7,327.51c2.35,1.7,4.74,3.17,7.16,4.4,2.42,1.23,5.01,2.37,7.78,3.4,2.77,1.04,5.91,1.99,9.44,2.84,3.53.85,7.64,1.75,12.35,2.69h98.98c-1.25-2.84-2.53-5.25-3.84-7.23-1.32-1.99-2.87-4.01-4.67-6.1h-127.2ZM1161.37,346.23l11.41,2.27c7.61,1.52,14.56,3.22,20.85,5.1,6.29,1.89,11.58,3.88,15.87,5.96h29.67c-.42-3.02-.8-5.34-1.14-6.95-.35-1.6-.87-3.73-1.56-6.38h-75.12ZM1222.17,226.83l-11.21,12.48h11.21v-12.48ZM1210.96,244.41c1.11,1.33,2.08,2.51,2.91,3.55.83,1.04,1.62,2.13,2.39,3.26.76,1.13,1.62,2.37,2.59,3.69.97,1.33,2.08,3.03,3.32,5.11v-15.6h-11.21ZM1218.02,364.67c2.21,1.89,3.97,3.78,5.29,5.67,1.31,1.89,2.73,4.44,4.25,7.66h10.79c.42-2.46.69-4.63.83-6.52.14-1.89.21-4.16.21-6.81h-21.37ZM1229.02,383.1c.14,1.33.24,2.41.31,3.26.07.85.1,1.56.1,2.13,0,2.65-.28,5.25-.83,7.8-.55,2.55-1.52,5.63-2.91,9.22,2.91-2.65,5.26-5.62,7.06-8.93,1.8-3.31,3.32-7.8,4.57-13.47h-8.3Z"/>
    </g>
  </g>
</svg>