<?xml version="1.0" encoding="UTF-8"?>
<svg id="Layer_2" data-name="Layer 2" xmlns="http://www.w3.org/2000/svg" viewBox="0 0 1233.11 421.43">
  <defs>
    <style>
      .cls-1 {
        stroke: #fff;
        stroke-width: 1.28px;
      }
    </style>
  </defs>
  <g id="Home_Page_Text_copy_2" data-name="Home Page Text copy 2">
    <g id="DS-Digital">
      <path class="cls-1" d="M34.8,91.6l-21.11,14.7-12.58-8.76V29.05l16.62-11.88,17.07,11.88v62.55ZM17.73,220.13l-16.62-11.57,16.62-11.88h132.08l16.62,11.88-16.62,11.57H17.73ZM153.85,99.1l17.07,11.73-17.07,11.73H36.6l-16.62-11.73,16.62-11.73h117.25ZM189.34,13.1l-16.85,11.88H40.61l-16.59-11.88L40.64,1.53h132.08l16.62,11.57ZM189.34,192.3l-16.85,11.88-16.85-11.88v-62.55l21.4-14.7,12.29,9.07v68.17Z"/>
      <path class="cls-1" d="M208.65,97.54V5.6l33.69,23.45v62.55l-21.11,14.7-12.58-8.76ZM242.34,129.76v66.97l-33.69,23.47v-96.08l12.58-9.07,21.11,14.71ZM390.59,1.53l-33.24,23.45h-109.17L214.94,1.53h175.65ZM361.39,99.1l17.07,11.73-17.07,11.73h-117.25l-16.62-11.73,16.62-11.73h117.25ZM363.19,91.6V29.05l33.69-23.45v91.94l-12.29,8.76-21.4-14.7ZM396.88,124.12v96.01l-33.69-23.45v-66.92l21.4-14.7,12.29,9.07Z"/>
      <path class="cls-1" d="M411.25,97.56V1.46l33.69,23.4v66.78l-21.11,14.66-12.58-8.74ZM444.94,129.76v66.97l-33.69,23.47v-96.08l12.58-9.07,21.11,14.71ZM452.79,41.42l-.21-16.74h23.7l81.41,56.92v16.57s-23.28-.05-23.28-.05l-81.63-56.7ZM565.79,91.6V24.68l33.69-23.46v96.32l-12.29,8.76-21.4-14.7ZM599.48,124.12v96.01l-33.69-23.45v-66.92l21.4-14.7,12.29,9.07Z"/>
      <path class="cls-1" d="M647.55,91.6l-21.11,14.7-12.58-8.76V5.6l33.69,23.45v62.55ZM647.55,192.3l-33.69,23.45v-91.63l12.58-9.07,21.11,14.7v62.55ZM779.17,13.1l-16.62,11.88h-109.17l-33.24-23.45h142.41l16.62,11.57ZM779.17,208.56l-16.62,11.57h-142.41l33.24-23.45h109.17l16.62,11.88ZM802.08,97.54l-12.29,8.76-21.4-14.7V29.05l16.85-11.88,16.85,11.88v68.49ZM802.08,192.3l-16.85,11.88-16.85-11.88v-62.55l21.4-14.7,12.29,9.07v68.17Z"/>
      <path class="cls-1" d="M816.45,1.22l33.69,23.46v66.92l-21.11,14.7-12.58-8.76V1.22ZM851.94,99.1l-16.62,11.73,16.62,11.73h117.25l17.07-11.73-17.07-11.73h-117.25ZM965.15,220.13l16.62-11.57-16.62-11.88h-109.17l-16.62,11.88,16.62,11.57h109.17ZM1004.69,1.46l-33.69,23.4v66.78l21.4,14.66,12.29-8.74V1.46ZM1004.69,124.12l-12.29-9.07-21.4,14.7v62.55l16.85,11.88,16.85-11.88v-68.17Z"/>
      <path class="cls-1" d="M1.11,297.56v-96.1l33.69,23.4v66.78l-21.11,14.66-12.58-8.74ZM34.8,329.76v66.97L1.11,420.21v-96.08l12.58-9.07,21.11,14.71ZM153.85,299.1l17.07,11.73-17.07,11.73H36.6l-16.62-11.73,16.62-11.73h117.25ZM155.64,291.6v-66.92l33.69-23.46v96.32l-12.29,8.76-21.4-14.7ZM189.34,324.12v96.01l-33.69-23.45v-66.92l21.4-14.7,12.29,9.07Z"/>
      <path class="cls-1" d="M213.59,297.54v-96.08l33.69,23.4v66.78l-21.11,14.66-12.58-8.76ZM213.59,392.3l16.62,11.88,17.07-11.88v-62.55l-21.11-14.7-12.58,9.07v68.17ZM253.12,420.13l-16.62-11.57,16.62-11.88h109.17l16.62,11.88-16.62,11.57h-109.17ZM368.13,291.6v-66.92l33.69-23.46v96.32l-12.29,8.76-21.4-14.7ZM401.82,392.3l-16.85,11.88-16.85-11.88v-62.55l21.4-14.7,12.29,9.07v68.17Z"/>
      <path class="cls-1" d="M449.89,291.6l-21.11,14.7-12.58-8.76v-68.49l16.62-11.88,17.07,11.88v62.55ZM449.89,392.3l-17.07,11.88-16.62-11.88v-68.17l12.58-9.07,21.11,14.7v62.55ZM598.13,201.53l-33.24,23.45h-109.17l-16.62-11.88,16.62-11.57h142.41ZM564.89,420.13l16.62-11.57-16.62-11.88h-109.17l-16.62,11.88,16.62,11.57h109.17ZM586.01,310.83l-17.07,11.73h-37.74l-16.62-11.73,16.62-11.73h37.74l17.07,11.73ZM604.42,392.3l-16.85,11.88-16.85-11.88v-62.55l21.4-14.7,12.29,9.07v68.17Z"/>
      <path class="cls-1" d="M618.79,297.56v-96.1l33.69,23.4v66.78l-21.11,14.66-12.58-8.74ZM652.49,329.76v66.97l-33.69,23.47v-96.08l12.58-9.07,21.11,14.71ZM771.54,299.1l17.07,11.73-17.07,11.73h-117.25l-16.62-11.73,16.62-11.73h117.25ZM773.33,291.6v-66.92l33.69-23.46v96.32l-12.29,8.76-21.4-14.7ZM807.03,324.12v96.01l-33.69-23.45v-66.92l21.4-14.7,12.29,9.07Z"/>
      <path class="cls-1" d="M841.16,297.54v-91.94l33.69,23.45v62.55l-21.11,14.7-12.58-8.76ZM874.86,329.75v62.55l-33.69,23.45v-91.63l12.58-9.07,21.11,14.7ZM1029.39,201.53l-33.24,23.45h-115.46l-33.24-23.45h181.94ZM1029.39,420.13h-181.94l33.24-23.45h115.46l33.24,23.45ZM993.9,299.1l17.07,11.73-17.07,11.73h-117.25l-16.62-11.73,16.62-11.73h117.25Z"/>
      <path class="cls-1" d="M1077.46,291.6l-21.11,14.7-12.58-8.76v-68.49l16.62-11.88,17.07,11.88v62.55ZM1060.39,420.13l-16.62-11.57,16.62-11.88h132.08l16.62,11.88-16.62,11.57h-132.08ZM1196.51,299.1l17.07,11.73-17.07,11.73h-117.25l-16.62-11.73,16.62-11.73h117.25ZM1232,213.1l-16.85,11.88h-131.88l-16.59-11.88,16.62-11.57h132.08l16.62,11.57ZM1232,392.3l-16.85,11.88-16.85-11.88v-62.55l21.4-14.7,12.29,9.07v68.17Z"/>
    </g>
  </g>
</svg>