<?xml version="1.0" encoding="UTF-8"?>
<svg id="Layer_2" data-name="Layer 2" xmlns="http://www.w3.org/2000/svg" viewBox="0 0 1255.01 473.1">
  <defs>
    <style>
      .cls-1 {
        stroke: #fff;
        stroke-width: 1.06px;
      }
    </style>
  </defs>
  <g id="Home_Page_Text_copy_2" data-name="Home Page Text copy 2">
    <g id="Garamond_Terrible" data-name="Garamond Terrible">
      <path class="cls-1" d="M71.19,230.68l21.56,8.01c20.02,0,37.88,2.16,53.59,6.16,12.32-11.09,12.94-20.33,2.16-27.72l-22.48-4.93c0-9.86-4.62-25.26-14.17-46.51-4.31-7.08-4.62-19.1-1.23-36.04-5.85-14.48-6.16-24.33-.62-28.95l11.09,20.02c-10.16-6.16-21.56-4.31-34.8,4.93-5.54-4.31-17.86-8.01-36.96-12.01-3.7-4.93-10.16-16.32-19.1-34.5l8.01-21.56c0-12.32,11.09-22.48,32.65-31.42,6.78-5.85,20.64-3.08,41.58,8.01l-4.93,22.18c8.32,0,8.32,5.54-.31,16.32,5.85,5.54,4.93,9.24-2.77,11.4l1.85-23.1c.31,1.23,8.01-1.23,23.41-7.7,1.85.92,10.16,4.93,25.56,12.32l1.54,23.1c3.08,0-1.85,3.39-14.17,10.16l-21.25-8.32c0-4.31-2.16-16.02-6.47-35.42-.92-4.62,3.08-15.71,12.01-33.57l22.48,5.24c-.62-1.85,1.23,4,5.24,16.94-1.23-1.54-7.08,3.7-17.86,15.09l-23.1-1.85c-11.09-4.62-25.56-13.55-43.12-27.1l11.4-20.02c-20.94,0-29.26,4.93-24.95,14.48-11.09,10.47-12.01,29.88-3.08,58.83l-8.32,21.56c0,8.32-5.54,17.25-16.32,27.1,4,6.47,3.7,6.47-1.23,0,5.54,4.31,15.4,7.39,28.95,8.32l27.72-4,18.17,14.17c9.24,5.54,15.4,17.86,18.48,36.65,4.62,3.39,1.23,11.4-9.86,23.72,2.46,5.24-2.77,8.32-16.02,8.62l-1.23-23.1c0,11.4,2.46,16.02,8.01,13.86-6.78,6.78-8.62,13.24-4.93,18.79l4.31,22.48c-9.55,0-23.72,1.85-42.81,5.24-8.01-7.08-21.25-20.02-39.73-38.5l-7.7-21.87c-.62-2.16,2.46-9.24,9.24-21.56l23.1,2.16c-1.85,0,0,7.39,5.85,21.56-.92.92-5.24,8.62-12.94,23.41l-22.79,7.7L.66,210.66c.92,13.55,4.62,14.78,11.09,4.31l22.79-4.31c.31,1.85,7.08,9.24,19.71,22.79l-5.24,22.48c11.7,9.86,18.79,17.25,21.56,22.18l.62-47.43Z"/>
      <path class="cls-1" d="M151.27,230.07l23.1-.31c4.93,0,14.48,6.16,28.95,18.17l-9.24,21.25c1.85,0-2.46.92-13.55,3.08,4.31-.31,3.08-6.16-3.7-17.56l24.95-21.87,21.87-6.78c2.46,0,11.7,5.24,27.1,15.09l-3.08,22.79c5.85,0,2.16,2.16-11.7,6.47l-19.71-12.32c0-1.23-.92-10.16-2.46-26.18-1.54-.92,2.16-6.16,11.09-15.71l21.25,9.24c-5.24-1.23-8.32,4.31-9.24,16.32-3.39-3.08-10.78-1.54-22.48,4.31l-22.18-6.16c0-1.85-.62-15.4-1.85-40.66,3.08-10.78,10.47-25.26,22.79-43.43l22.79,3.08c1.23-3.7,6.16,1.54,15.09,15.4l45.89,19.4-23.1.31c3.08,0,.62-6.16-6.47-18.79.92.62,4.93-5.54,11.7-18.17l22.79-3.39c8.01,26.49,16.94,48.97,27.1,67.14l-6.16,22.18c0,7.08-13.86,13.86-40.96,20.33l-17.56-14.78c-2.77.31-4.31-6.47-4-20.64-2.16,1.23,4-.92,17.86-6.16l19.4,12.32c0,2.46,3.08,11.4,9.24,26.8l12.94,12.32-20.94-9.55c5.85,0,13.55-7.08,22.79-21.56l33.88-14.48,22.18,6.47c5.85,0,11.09,6.16,15.4,18.79l-15.09,17.56c0-1.54-8.32-4-25.26-7.39-1.85-1.23-7.39-9.24-17.25-24.02l12.63-19.1c-7.39-1.23-5.85-4,4.62-8.01-4.62-4-4.62-5.24-.31-3.7l-9.55,20.94c-21.56-71.46-47.43-130.28-77.62-175.87l-15.09-17.56c-.62-.92,1.23-9.24,5.24-25.26-.31-1.23,6.78-4.62,21.25-9.86l17.25,15.09c-.31-.31-1.54,7.08-4,22.18-.31,0-7.7,3.39-21.87,9.86l-19.4-12.63c-.31.92-.92-5.24-1.85-18.17-.92,2.46,4.31.31,15.71-6.78l20.94,9.86c-2.16,1.23-3.39,9.86-3.7,25.87-2.16.92-9.55,6.16-21.87,16.32l-22.18-6.47c-.62,5.54-4,4-10.47-4.31l15.09-17.25c-11.09,30.49-13.24,61.91-6.16,94.56-8.32,20.64-14.48,50.2-19.1,89.32l-12.63,19.4c-3.08,7.08-14.48,12.32-34.19,15.71-4.31,3.39-13.55-.62-27.72-11.7l9.86-20.94c-6.78,2.16-2.46,3.39,12.63,4l14.78,17.56c0,1.23-1.23,9.55-4,24.95,1.54.92-3.7,3.39-15.71,7.39l-6.78-44.35ZM258.76,157.07l-6.16,22.18c-2.46,0-11.4,2.16-26.8,6.78-.92-.31-7.39-5.85-19.1-16.63l3.08-25.26,48.97-100.41,19.71,12.01c1.23-3.39,2.16,2.46,2.77,17.86l-19.1,12.94c.62,0-5.54-1.23-18.17-3.7l20.02,67.14,17.86-12.32,22.18,6.16c0,.62,1.85,8.32,5.85,23.1-.92.31-6.78,6.16-17.86,18.17l-70.84-3.08,37.58-24.95Z"/>
      <path class="cls-1" d="M586.77,276.57l-22.79-1.85c4.31,0,2.77-9.24-4.62-27.72l10.78-26.8,23.1-1.54c-.92-7.39,3.39-8.93,12.32-4.93l-8.01,21.56c0-97.33-7.39-148.15-22.18-152.46l-16.02-16.63c.31-4.93,3.39-16.32,9.24-33.57,2.46-2.16,14.78-6.47,36.96-13.24l18.17,13.86c6.78-1.23,9.55,4.31,8.32,16.94l-20.33,10.78c0-2.16-9.55-7.08-28.95-14.48l-1.54-23.1c-6.78,0-7.08-4.31-1.23-12.94l6.16,8.62-12.94,22.48-16.63,16.02c-3.08,0-13.55-1.54-31.11-4.31-2.46.62-6.47-5.54-11.7-19.1l14.17-18.17c0,2.46,12.01,4.93,36.65,8.01l10.78,20.33c3.7.62,3.7,9.24.31,26.18,4,3.7-1.54,7.39-16.63,12.01l-13.55-18.48c0,77.92,2.46,117.35,7.7,118.58l22.48-4.31c0,4.31,4,11.7,12.94,22.79l-5.24,22.48c-1.54,0-11.4.62-29.26,1.54l-18.48-14.17c-13.55-16.63-36.04-56.98-66.84-121.35-32.34-39.42-42.81-64.37-31.72-74.84l20.02,11.4c-1.23-2.16-2.16,4.31-2.16,18.79-.92-.62-8.32,3.39-22.48,12.32l-21.56-8.32c-7.39,0-17.56-7.7-30.18-23.41l-4.93-16.63,22.18,5.24c-1.54,0-.62,7.7,2.77,22.79-1.54.62-6.78,7.7-16.32,21.56l-23.1-2.16c0,1.54-2.16-3.7-7.08-16.02,2.16,1.23,8.01-4.62,17.56-17.25l23.1-.92c10.16,3.39,22.48,13.55,36.34,31.11,4.93,4.93,4.62,19.4-.92,43.74l-22.79,4.31c0,23.41-5.85,45.89-17.56,67.45-1.23,22.48-.62,32.96,1.54,31.42l21.87-7.39c-1.54,13.86-1.23,27.1.31,39.42l-2.46,23.1c-3.7.92-12.94,5.54-28.34,13.24-1.54.92-8.93-2.16-22.18-8.62l-.92-22.79c0,2.16,9.24-1.23,27.72-9.86l21.25,8.62c3.7,0,10.78,7.08,21.56,21.56l-16.63,15.71c4-.31,0-2.46-11.7-6.16l-7.39-21.56c3.7,0,12.01-5.85,25.87-17.56l22.79,2.46c4.31.62,13.55,7.7,28.03,21.25l-11.7,20.02c5.85,0,1.23-.92-14.17-2.46l-13.24-18.79c0-1.54,2.16-9.86,6.47-24.95-1.54-.62,3.39-2.77,14.78-6.16l16.02,16.94c-13.24-2.46-21.87-3.39-25.56-2.46l-21.87,7.39c0-26.49-5.54-74.54-16.32-144.76l2.46-22.79c0-1.85,7.08-6.78,21.25-14.78.31-1.54,7.7,1.85,21.87,9.55l.92,23.1c1.54,0-2.77,6.16-12.63,18.17l-21.25-8.93c2.77,3.39,11.09,7.39,24.95,11.4l16.94-15.71c10.16,22.18,33.57,48.05,70.84,78.23,22.18,26.18,36.65,48.05,43.12,64.99l-14.48,17.86c4.31,6.16,1.54,9.86-8.32,11.7,5.24,3.39,5.85-1.54,1.54-15.4l33.88,22.79Z"/>
      <path class="cls-1" d="M696.42,246.7l-7.7,21.25c-7.7,3.39-16.94,4.93-27.72,4.93l17.25-15.09c-5.85-15.09-11.4-22.48-17.25-22.18l-20.94-9.55c-17.25,8.93-29.88,13.55-37.88,13.55l.31,23.1c7.08,8.32,10.47,11.09,10.47,8.32l20.94-9.86c1.85-16.94,3.7-25.56,4.93-26.18-10.78-10.16-13.86-15.71-9.55-16.32l-21.87,6.78c3.7,13.24,7.08,18.48,10.16,15.09,13.24,8.01,19.71,8.62,19.71,1.23l22.79-3.7,9.24-174.64c-8.62-20.02-14.48-31.42-17.25-34.8-18.48-2.77-31.42-4.93-39.42-6.47l-12.01,19.71c2.77,13.24,3.39,19.4,2.16,18.79,13.86,1.23,20.64.92,20.64-.92l14.78-17.56c-4.62-17.25-4-25.87,1.85-25.87l-22.18-6.16.31,15.71c5.54,15.4,12.63,23.1,20.64,23.1l20.94,9.24c21.25-8.62,38.19-13.55,50.82-14.48l-.31-23.1c-8.93-8.32-11.7-12.32-8.01-12.63-10.16,6.47-14.17,9.86-11.7,9.86l-2.46,22.79c38.5,9.86,66.53,18.79,83.78,27.41,32.03,3.7,52.36,12.94,60.37,27.72,12.01,0,18.17,9.24,18.17,27.72l-15.71-16.94c-15.09,31.72-27.41,56.06-36.96,72.38-15.71,30.8-31.72,50.82-48.36,60.68-7.7,22.18-21.25,33.57-40.35,33.57l22.79-.92-35.42-25.56ZM729.99,221.13c.62-1.54,7.08-6.47,19.4-14.17,2.77,4,7.39-.92,14.48-14.78,11.7.92,17.56-7.7,17.56-25.26l22.18,5.85c11.4-39.12,12.94-65.91,4.62-80.08-10.78-29.26-23.1-47.74-36.34-55.13-27.41-13.55-48.05-20.33-62.52-20.33l-19.1,13.24c-10.16,15.4-18.17,23.41-23.72,24.02,7.7,8.32,10.16,13.86,7.08,16.63,10.78-4.31,16.02-3.39,16.02,2.77l2.46-23.1-17.86,137.68c-14.48,16.32-17.86,26.18-9.55,30.18,4.62,18.79,13.86,28.03,28.03,28.03l15.71,16.94,21.56-42.5Z"/>
      <path class="cls-1" d="M884.91,230.37l11.4,20.02c7.7,0,11.09,6.47,10.16,19.71l-23.1,2.16c7.39-.62,8.93-6.78,4.62-18.79l7.7-21.87c4.31,0,16.94-1.54,38.5-4.62l16.63,15.71c5.54.62,10.78,8.62,15.4,23.72l-21.56,8.32c6.16,0,2.77-5.54-9.55-16.63l1.23-23.1c0-1.54,5.85-6.47,17.56-14.78-1.85-.92,2.46,2.16,12.63,8.62l2.16,22.79c-8.01-1.54-20.02.31-36.34,5.24-4.31-4.31-13.55-12.63-28.03-24.64l-5.24-69.3,16.02-16.32c0-6.78,8.01-9.86,23.72-9.86.62-2.77,5.54-5.24,14.78-6.78l-13.55,18.48c12.01-19.1,15.71-37.58,11.4-55.44l-11.4-20.02c6.47-9.86,14.79-23.41,25.26-40.66,3.39-3.7,15.4-6.78,35.42-9.55l14.17,18.17c5.24-1.54,6.78,4.31,4.31,17.56,2.77-1.23-3.08-.62-18.17,1.54l-16.63-16.02c0-2.16-1.23-10.78-4.31-25.87l9.86-8.01,18.79,13.55c-8.01.31-15.09,8.32-21.87,23.41l-43.12,11.09-20.33-10.78c-6.16,0-9.55-6.47-10.78-19.71l18.17-13.86c0,1.23,8.32,4.93,25.26,11.4,2.16,1.23,6.16,9.55,11.7,24.95l-16.02,16.63c8.32,1.23,4.93,3.08-10.16,5.85l-8.01-21.56c0,4.31,2.46,3.39,8.01-2.77l23.1,1.54c-3.08,4.93-.92,15.09,5.54,30.18l-10.78,20.02c-7.39,13.24-21.87,25.26-43.43,36.34l-13.86-18.48c-3.08,4.93-2.46.92,1.54-12.01-1.23,1.54,4.93.62,18.79-2.77l16.32,16.32c-1.85,0-6.16,3.7-13.55,10.78l-49.9-44.35-18.48-13.55c-2.77-4.93-3.39-16.32-2.46-34.19l20.33-11.09c0-2.16,7.39,0,22.48,6.16,1.54-.92,4.62,5.54,9.24,20.02l-18.48,13.86c6.78-1.54,3.08-6.47-11.4-14.17l-4.93-22.48c0-2.16,2.46-8.93,7.39-19.71l22.48,4.93c-4,0-4.62,7.39-1.85,21.87l-28.64,18.79-22.79-1.54c-5.54,0-16.63-7.08-32.96-20.94l-3.08-20.64,23.1-1.54c-6.16,0-4.62,7.39,4.62,21.87l-8.01,21.56c0,1.23-6.78,4-20.02,8.32,1.54.92-1.23-3.39-8.62-12.94l4.93-22.48c7.08,1.85,23.41,9.24,49.28,22.18l54.21,73-1.85,23.1c1.85,12.63-3.39,24.64-15.09,36.34,1.85,4.62-4,4.93-17.56.92l-1.54,22.48,18.79-13.55c0,14.17-.92,25.56-2.77,33.88l4.93,22.79c-3.7.62-11.7,6.47-24.33,18.17-1.54.92-9.86.31-24.95-1.85l-7.7-21.56c0,2.16,7.7-2.77,22.79-14.78l22.48,1.23Z"/>
      <path class="cls-1" d="M16.37,425.84l22.79-4.93c7.7,0,19.4,5.24,35.11,15.71l-5.24,22.48c5.85-.62,3.7,1.85-6.78,7.08l-18.17-13.86c4.31,0,10.16-7.7,18.17-22.48l20.33-10.78c5.54.62,18.79,4.62,39.73,12.32l1.54,22.79c2.46,0-1.54,4.31-12.32,12.63,1.85-.62-4.62-4.62-19.1-11.4l-4.62-22.48c0-1.23,4.93-7.7,14.48-19.1-1.54-.62,3.39.62,14.78,3.39l7.7,21.56c-7.08-1.23-17.86,1.85-31.72,9.55-4.62-4.62-14.48-10.78-29.88-18.48l-10.78-78.85,11.4-20.02c0-1.23,7.7-2.46,23.41-3.7,0-.62,4.93,5.24,14.48,17.56l109.34,21.56-22.48,4.31c.62,0-4.31-4.93-14.78-15.4,0,.62,2.16-6.16,5.54-20.33l21.87-6.16,18.17,74.23-2.16,22.79c0,12.32-13.86,23.41-41.89,33.26l-19.71-11.4c-3.7.62-6.78-6.47-8.93-20.94-1.54.62,4-2.77,16.63-10.47l21.25,8.32c0,1.23,2.16,9.86,6.78,25.56,1.85.62-1.54,6.47-10.16,16.94l-22.18-5.24c7.39,0,11.09-7.7,11.09-22.79l14.17-18.17c5.54-.31,17.86.31,37.27,1.54l10.47,20.64c3.7,0,4.31,6.78,2.16,20.64l-23.1.92c4.62.62,6.47-5.24,5.24-17.86l8.32-21.25c2.77,0,12.63-1.85,29.26-5.54,1.54-.62,7.7,4,18.17,13.86l-5.24,22.48c0-1.23-8.01,0-24.02,4.31-1.54-.62-10.16-6.16-25.87-16.32l2.46-22.79c-7.39-1.23-5.54-6.78,6.16-16.94-1.85-3.39,3.7-4.93,16.94-5.24l.92-131.21-18.79,13.55c0-6.78-6.16-14.78-18.48-23.72,1.85-3.39,4.93-12.94,9.24-29.26l16.63-15.71c3.7-.62,13.55.31,30.18,3.39,1.54-.92,4.93,5.24,9.86,18.48l-14.48,17.86c0-2.77-10.47-4.93-31.72-6.47l-10.47-20.64c-6.16,0-8.01-6.16-5.54-19.1l12.32-.62-2.77,18.79-8.93,21.25c-7.39-.62-21.56.62-42.5,3.39l-15.71-16.94c-2.46,0-2.77-7.08-.62-21.25-1.54.92,4.93-.62,19.4-4.31l17.86,14.48v26.49c1.54.62-2.77,4.93-12.94,12.32l-19.71-11.7c7.39,1.23,12.32-4.31,14.78-16.02,3.08,3.7,11.09,4,23.72,1.23l21.25,68.99,4,22.79c0,2.46-6.47,8.93-19.1,19.4l-136.44-5.85-7.39-21.87c-2.77,0,.62-6.78,10.47-20.64l22.79-58.21,10.16,20.64c0-6.16-2.46-4.31-7.08,5.24,3.08-3.39.92-5.54-6.78-6.47l-13.24-19.1c3.7-.62,9.24-8.32,16.94-23.41,1.54-.92,9.86-3.39,24.95-7.39l15.71,16.94c0-2.46-4.93,3.7-14.78,18.48l-22.18,7.08c-5.85,0-17.86-4.93-36.34-14.17l-11.4-22.48,7.7-10.47,19.71,12.01c-6.16-.31-12.32,7.08-18.17,22.48l-19.1,12.94c-5.85,0-15.71-1.85-29.88-5.24l-4-22.79c0,1.54,6.78-2.46,19.71-12.01,1.54.92,11.4,3.7,29.88,8.32l7.08,21.87c4.93.92,3.7,8.01-3.7,21.25,2.16,1.85-4,3.08-18.48,3.7.62,2.46-2.46-.31-9.24-8.93l12.01,134.29,23.1-.31c0,7.39,3.08,19.4,9.24,35.11-2.46,3.39-10.78,12.63-24.33,28.34l-22.79,3.7c-3.7.62-11.4-4.62-23.1-15.4-1.54.92,0-5.54,4-19.1l21.87-6.78c0,1.23,6.78,7.08,20.33,17.56,1.54.62,2.77,8.62,3.39,24.02l-35.11-32.34Z"/>
      <path class="cls-1" d="M346.23,459.72l-1.54-22.79c15.09,0,34.8-8.32,59.14-24.33,12.01-6.78,28.95-13.86,50.51-20.94,7.08-12.32,12.63-18.79,16.32-19.4l-16.32,16.32c.31-12.01-6.78-27.41-21.87-46.51l-8.01-21.56c0-4.62,4.93-19.71,14.48-44.97.31-12.94,8.62-24.95,24.64-36.34l11.09,20.02c.62-13.55,2.16-14.48,4.31-2.77l-23.1,1.54c6.78-1.54,5.54-9.55-3.39-24.64l8.01-21.56c0-2.46,4.62-4.93,13.55-8.32l5.85,16.94-4.93,22.18c-5.85.62-17.86,3.39-36.34,8.62l-41.27-14.17,1.85-23.1c-6.16,0-2.16-2.46,11.4-7.39l20.02,11.09c0,2.46,4,12.01,11.7,29.26l-18.79,13.55c4.31,1.23.31,2.46-12.01,3.08,1.85,6.16,1.54,6.16-1.54-.31l16.63-16.02c.92,31.72,8.62,60.37,23.72,86.24l7.7,21.56c0,24.95-9.86,50.51-29.26,77-10.16,14.17-33.26,20.64-68.99,19.4l-10.78-20.33c-19.71,0-31.72-12.63-35.73-37.88-11.7-12.01-10.16-30.18,5.24-54.82l13.55-82.85-8.32,21.56c0-5.54-6.16-8.93-18.17-10.16,2.77-4.31.31-12.32-7.39-24.02l5.24-22.48c4-1.23,13.86-4.93,29.57-10.78,1.54-.92,8.32,2.77,20.33,11.09l-1.85,22.79c0-2.16-9.86.31-29.26,7.39l-20.02-11.4c-4.31,0-8.01-7.7-11.09-22.79l3.7-12.94,21.56,8.32c-4.31,0-8.32,7.39-12.01,21.87l-29.88,15.71-22.18-5.24c-6.16,0-11.7-6.16-16.63-18.48l14.17-18.17c0,2.77,11.09,5.85,33.26,8.93l10.47,20.64c4,.92,3.7,9.86-1.23,26.8,2.46,3.7-3.7,9.24-19.1,16.63l-13.24,90.55,8.32-21.25c0,24.33,14.78,41.89,44.04,52.98,14.17,13.86,40.04,26.49,77.31,37.58l-43.43,19.1Z"/>
      <path class="cls-1" d="M584,470.81l-19.71-11.4c12.63,0,23.72-9.24,33.26-28.03,10.16-3.39,26.49-11.7,49.28-25.26l21.25,8.32c4-2.16,8.32,4,12.63,19.1l-16.63,15.71c3.08-.31-3.08-4-17.86-11.09l-7.7-21.87c0-.62,4.31-7.39,12.63-20.64-1.23-1.23,5.85-1.23,20.64-.62l10.47,20.64c-.31-.31-4.31,5.54-12.63,17.86-.62-.92-8.32-1.54-23.72-1.85l-13.24-27.1,8.32-21.25c0-8.01,8.32-17.25,24.33-27.41l15.71,16.63c.62-4.31.31,0-1.54,12.63,1.85-2.46-2.46-1.54-12.63,2.16l-18.17-14.48c1.23,0,3.08-8.32,6.47-24.95,1.54-.92,9.24-5.54,22.79-13.86l20.02,11.7c0-1.85-.62,4.62-1.54,19.1-1.54-.62-8.93,3.39-22.79,12.32l-21.25-8.93c-4,0-10.16-7.08-18.17-21.87l16.63-15.71c-5.24.31-2.16,2.46,8.93,6.16l7.39,21.87c-6.16,0-17.56,5.54-35.11,17.25l-22.79-2.46c-7.39-.31-16.94-7.39-28.64-21.25l11.7-19.71c-.92,0,5.24.31,19.1.62-1.54,1.23,2.16,8.62,11.09,22.79l-8.93,21.25c0,1.23-6.78,4-20.33,7.7,1.54.92-2.46-4-12.01-15.4l5.85-22.18c4.31,0,17.25-1.54,38.5-4.93,6.78,1.85,17.25,8.93,31.42,21.56l-2.46,23.1c.92,1.23-5.24,7.7-19.1,19.4l-20.02-2.46-.92-23.1c0,2.16,6.16.62,18.79-4.62l21.25,8.93c0,4.93.31,17.25,1.23,36.34-1.54,4-9.55,12.63-23.41,25.87l-22.18-5.85c-3.08,2.77-9.86-1.85-20.64-14.17-5.85,2.46-8.93-2.16-9.55-14.17l22.79,2.46c-13.86,0-23.72,3.08-29.26,9.55-12.32-7.7-26.18-11.7-41.89-12.63-7.39-14.17-18.79-30.18-34.19-48.36l-13.24-19.1c0-26.18,6.47-53.28,19.4-81.93,6.78-14.17,23.72-26.8,51.13-37.88,12.01-8.62,31.11-7.39,56.98,4l-5.85,22.48c12.63,0,16.02,4,9.86,12.32,8.62,3.7,8.32,2.46-.62-3.7l2.46-22.79c4.31,4.62,14.48,6.78,30.49,6.16l19.71,12.01c.62,2.77,1.85,12.32,3.08,29.26,1.23,1.23-3.7,6.47-14.78,15.09l-20.94-9.24c1.23,0,.92-8.32-.62-24.64.92-1.23,7.08-7.7,18.48-19.71l22.18,6.16c0-5.85,1.23-9.55,4-10.78l-14.78,17.56c-.31-.92-8.01-2.46-23.72-4.93-.31-.62-4.31-8.01-12.01-22.18l12.01-19.71c-4-1.85-5.85-4.31-5.24-7.08-15.09-2.16-21.87,3.08-20.33,15.71l-9.24,21.25c-20.02,0-46.51,5.85-79.16,18.17-17.56,9.55-36.34,16.94-56.98,21.87-10.16,16.63-13.24,32.34-9.24,47.43l21.87-6.78c0,18.48,10.78,40.04,32.34,65.3,9.86,15.4,21.87,35.11,36.34,59.14,16.63,8.62,27.1,16.32,32.34,23.1h.62Z"/>
      <path class="cls-1" d="M689.95,425.84l22.79-4.93c7.7,0,19.4,5.24,35.11,15.71l-5.24,22.48c5.85-.62,3.7,1.85-6.78,7.08l-18.17-13.86c4.31,0,10.16-7.7,18.17-22.48l20.33-10.78c5.54.62,18.79,4.62,39.73,12.32l1.54,22.79c2.46,0-1.54,4.31-12.32,12.63,1.85-.62-4.62-4.62-19.1-11.4l-4.62-22.48c0-1.23,4.93-7.7,14.48-19.1-1.54-.62,3.39.62,14.78,3.39l7.7,21.56c-7.08-1.23-17.86,1.85-31.72,9.55-4.62-4.62-14.48-10.78-29.88-18.48l-10.78-78.85,11.4-20.02c0-1.23,7.7-2.46,23.41-3.7,0-.62,4.93,5.24,14.48,17.56l109.34,21.56-22.48,4.31c.62,0-4.31-4.93-14.78-15.4,0,.62,2.16-6.16,5.54-20.33l21.87-6.16,18.17,74.23-2.16,22.79c0,12.32-13.86,23.41-41.89,33.26l-19.71-11.4c-3.7.62-6.78-6.47-8.93-20.94-1.54.62,4-2.77,16.63-10.47l21.25,8.32c0,1.23,2.16,9.86,6.78,25.56,1.85.62-1.54,6.47-10.16,16.94l-22.18-5.24c7.39,0,11.09-7.7,11.09-22.79l14.17-18.17c5.54-.31,17.86.31,37.27,1.54l10.47,20.64c3.7,0,4.31,6.78,2.16,20.64l-23.1.92c4.62.62,6.47-5.24,5.24-17.86l8.32-21.25c2.77,0,12.63-1.85,29.26-5.54,1.54-.62,7.7,4,18.17,13.86l-5.24,22.48c0-1.23-8.01,0-24.02,4.31-1.54-.62-10.16-6.16-25.87-16.32l2.46-22.79c-7.39-1.23-5.54-6.78,6.16-16.94-1.85-3.39,3.7-4.93,16.94-5.24l.92-131.21-18.79,13.55c0-6.78-6.16-14.78-18.48-23.72,1.85-3.39,4.93-12.94,9.24-29.26l16.63-15.71c3.7-.62,13.55.31,30.18,3.39,1.54-.92,4.93,5.24,9.86,18.48l-14.48,17.86c0-2.77-10.47-4.93-31.72-6.47l-10.47-20.64c-6.16,0-8.01-6.16-5.54-19.1l12.32-.62-2.77,18.79-8.93,21.25c-7.39-.62-21.56.62-42.5,3.39l-15.71-16.94c-2.46,0-2.77-7.08-.62-21.25-1.54.92,4.93-.62,19.4-4.31l17.86,14.48v26.49c1.54.62-2.77,4.93-12.94,12.32l-19.71-11.7c7.39,1.23,12.32-4.31,14.78-16.02,3.08,3.7,11.09,4,23.72,1.23l21.25,68.99,4,22.79c0,2.46-6.47,8.93-19.1,19.4l-136.44-5.85-7.39-21.87c-2.77,0,.62-6.78,10.47-20.64l22.79-58.21,10.16,20.64c0-6.16-2.46-4.31-7.08,5.24,3.08-3.39.92-5.54-6.78-6.47l-13.24-19.1c3.7-.62,9.24-8.32,16.94-23.41,1.54-.92,9.86-3.39,24.95-7.39l15.71,16.94c0-2.46-4.93,3.7-14.78,18.48l-22.18,7.08c-5.85,0-17.86-4.93-36.34-14.17l-11.4-22.48,7.7-10.47,19.71,12.01c-6.16-.31-12.32,7.08-18.17,22.48l-19.1,12.94c-5.85,0-15.71-1.85-29.88-5.24l-4-22.79c0,1.54,6.78-2.46,19.71-12.01,1.54.92,11.4,3.7,29.88,8.32l7.08,21.87c4.93.92,3.7,8.01-3.7,21.25,2.16,1.85-4,3.08-18.48,3.7.62,2.46-2.46-.31-9.24-8.93l12.01,134.29,23.1-.31c0,7.39,3.08,19.4,9.24,35.11-2.46,3.39-10.78,12.63-24.33,28.34l-22.79,3.7c-3.7.62-11.4-4.62-23.1-15.4-1.54.92,0-5.54,4-19.1l21.87-6.78c0,1.23,6.78,7.08,20.33,17.56,1.54.62,2.77,8.62,3.39,24.02l-35.11-32.34Z"/>
      <path class="cls-1" d="M934.19,427.99l21.87-7.7c2.46,0,14.78,4.31,37.58,13.24l-2.16,22.79c4.93-.62,3.39,2.77-4.62,9.86l-19.71-11.4c13.86,0,27.41-7.39,40.96-22.18l18.79-13.24c32.03.62,56.98,3.7,75.46,9.24l4.31,22.79c.92,0-4,4.93-14.48,15.09.31-.62-6.47-3.08-20.94-7.7.31-1.23-1.85-8.93-6.78-24.02l14.17-18.17c1.85-4,11.7-9.55,29.26-16.63,2.16-8.62,6.78-7.39,13.86,3.7l-11.4,20.02c0-3.08-9.24-4-27.1-3.39l-13.24-18.79c-1.54,0-.31-5.85,4-17.25l22.79-4.31c-3.39,6.47-1.23,17.25,6.78,32.03-2.46,3.39-7.08,13.86-13.86,30.8l-21.87,7.39c-3.08,1.85-12.94-1.54-29.26-10.47-4.62.92-9.24-6.16-14.48-21.56l-2.46-10.47,20.02,11.7c-7.39,0-12.01,5.85-14.78,18.17-3.08-3.08-10.78-3.7-23.41-2.46l-21.25-68.07-4.31-22.48c0-3.39,6.47-10.78,19.1-22.18,1.54-1.23,11.7.31,30.49,4l36.04,21.87-14.48,17.86c4,0-.62.31-13.86.92,2.16,2.16.31-1.23-5.24-10.16l11.7-19.71c1.54,6.47,11.71,9.55,30.18,8.93l13.24,19.1c1.85,0-.31,5.24-6.16,16.02l-23.1-3.39-16.02-48.05,6.47-35.73,22.18-15.4,17.86,14.48c0-1.23-1.23,4.93-3.7,19.4-.92-.92-8.93,2.16-23.41,8.93l-19.71-11.7c-2.46,0-4.62-5.54-6.47-16.32l19.1-13.24c-1.54,6.16,3.39,12.94,15.4,20.94-2.16,2.16-4.93,10.78-8.01,25.87l-47.43,15.71-22.18-5.85c-1.54,0-5.24-8.01-11.09-24.02-1.23-1.23,3.08-8.62,12.94-22.48l22.79-62.83,10.16,20.64c0-2.46-2.77,1.85-8.01,12.94,2.77-1.85-2.46-2.77-15.71-2.16l27.1-19.1,9.24-21.25c8.62,0,23.1,1.54,43.12,4.31l15.71,16.94c1.54,1.85.92,12.32-1.54,31.42,1.23,4.31-5.54,9.24-19.71,15.09l-17.55-14.78c.31,1.23,1.54-5.54,3.7-20.33.62.31,8.32-2.77,23.1-9.55l19.71,12.01c2.77,0,4.31,6.16,4.62,18.48l-19.1,12.94c0-4.93-7.7-13.86-23.1-27.41-1.23-7.39-3.39-19.4-6.47-36.34l17.25-15.4c-.31-1.85,5.24-.62,16.63,3.39l-19.1,22.48-56.98,17.86-48.97-3.08-10.16-20.64c-11.09-.31-16.63-7.08-16.32-20.33l23.1-.31c-5.85,0-4.62,7.39,4,22.48l-9.24,21.25c0,2.77-4.31,6.16-12.63,9.86l-15.4-17.25c7.7,1.54,15.09-3.7,22.18-15.4,3.08,3.39,12.01,6.16,26.49,8.93l17.86,167.86-3.08,23.1c0,7.08-8.62,15.71-26.18,25.56-3.39,3.39-16.02,1.85-36.96-4.93l-.31-22.79c-3.39.62.31-3.08,11.4-10.78-1.54.92,4.62,5.24,18.79,12.63l3.39,22.79c0,2.46-2.46,8.62-8.01,18.79l-23.41-39.42Z"/>
      <path class="cls-1" d="M1167.96,423.68l21.56,8.01c20.02,0,37.88,2.16,53.59,6.16,12.32-11.09,12.94-20.33,2.16-27.72l-22.48-4.93c0-9.86-4.62-25.26-14.17-46.51-4.31-7.08-4.62-19.1-1.23-36.04-5.85-14.48-6.16-24.33-.62-28.95l11.09,20.02c-10.16-6.16-21.56-4.31-34.8,4.93-5.54-4.31-17.86-8.01-36.96-12.01-3.7-4.93-10.16-16.32-19.1-34.5l8.01-21.56c0-12.32,11.09-22.48,32.65-31.42,6.78-5.85,20.64-3.08,41.58,8.01l-4.93,22.18c8.32,0,8.32,5.54-.31,16.32,5.85,5.54,4.93,9.24-2.77,11.4l1.85-23.1c.31,1.23,8.01-1.23,23.41-7.7,1.85.92,10.16,4.93,25.56,12.32l1.54,23.1c3.08,0-1.85,3.39-14.17,10.16l-21.25-8.32c0-4.31-2.16-16.02-6.47-35.42-.92-4.62,3.08-15.71,12.01-33.57l22.48,5.24c-.62-1.85,1.23,4,5.24,16.94-1.23-1.54-7.08,3.7-17.86,15.09l-23.1-1.85c-11.09-4.62-25.56-13.55-43.12-27.1l11.4-20.02c-20.94,0-29.26,4.93-24.95,14.48-11.09,10.47-12.01,29.88-3.08,58.83l-8.32,21.56c0,8.32-5.54,17.25-16.32,27.1,4,6.47,3.7,6.47-1.23,0,5.54,4.31,15.4,7.39,28.95,8.32l27.72-4,18.17,14.17c9.24,5.54,15.4,17.86,18.48,36.65,4.62,3.39,1.23,11.4-9.86,23.72,2.46,5.24-2.77,8.32-16.02,8.62l-1.23-23.1c0,11.4,2.46,16.02,8.01,13.86-6.78,6.78-8.62,13.24-4.93,18.79l4.31,22.48c-9.55,0-23.72,1.85-42.81,5.24-8.01-7.08-21.25-20.02-39.73-38.5l-7.7-21.87c-.62-2.16,2.46-9.24,9.24-21.56l23.1,2.16c-1.85,0,0,7.39,5.85,21.56-.92.92-5.24,8.62-12.94,23.41l-22.79,7.7-13.24-18.79c.92,13.55,4.62,14.78,11.09,4.31l22.79-4.31c.31,1.85,7.08,9.24,19.71,22.79l-5.24,22.48c11.7,9.86,18.79,17.25,21.56,22.18l.62-47.43Z"/>
    </g>
  </g>
</svg>