<?xml version="1.0" encoding="UTF-8"?>
<svg id="Layer_2" data-name="Layer 2" xmlns="http://www.w3.org/2000/svg" viewBox="0 0 1236.54 424.66">
  <defs>
    <style>
      .cls-1 {
        stroke: #fff;
        stroke-width: 1.06px;
      }
    </style>
  </defs>
  <g id="Home_Page_Text_copy_2" data-name="Home Page Text copy 2">
    <g id="Helvetica">
      <path class="cls-1" d="M50.37,168.14c2.61,5.04,6.09,9.11,10.42,12.23,4.33,3.12,9.41,5.44,15.25,6.95,5.84,1.51,11.88,2.27,18.12,2.27,4.23,0,8.76-.35,13.59-1.06,4.83-.7,9.36-2.06,13.59-4.08,4.23-2.01,7.75-4.78,10.57-8.3,2.82-3.52,4.23-8,4.23-13.44,0-5.84-1.86-10.57-5.59-14.19-3.73-3.62-8.61-6.64-14.65-9.06-6.04-2.42-12.89-4.53-20.54-6.34-7.65-1.81-15.4-3.82-23.25-6.04-8.05-2.01-15.91-4.48-23.56-7.4-7.65-2.92-14.5-6.69-20.54-11.33-6.04-4.63-10.92-10.42-14.65-17.37-3.73-6.95-5.59-15.35-5.59-25.22,0-11.07,2.36-20.69,7.1-28.84,4.73-8.15,10.92-14.95,18.57-20.38,7.65-5.44,16.31-9.46,25.97-12.08,9.66-2.61,19.33-3.93,28.99-3.93,11.27,0,22.09,1.26,32.46,3.78,10.37,2.52,19.58,6.6,27.63,12.23,8.05,5.64,14.44,12.83,19.18,21.59,4.73,8.76,7.1,19.38,7.1,31.86h-45.9c-.41-6.44-1.76-11.78-4.08-16.01-2.32-4.23-5.39-7.55-9.21-9.97-3.83-2.42-8.21-4.12-13.14-5.13-4.94-1-10.32-1.51-16.16-1.51-3.83,0-7.65.41-11.48,1.21-3.83.81-7.3,2.22-10.42,4.23-3.12,2.01-5.69,4.53-7.7,7.55-2.01,3.02-3.02,6.85-3.02,11.48,0,4.23.8,7.65,2.42,10.27,1.61,2.62,4.78,5.04,9.51,7.25,4.73,2.22,11.27,4.43,19.63,6.64,8.35,2.22,19.28,5.03,32.77,8.46,4.03.81,9.61,2.26,16.76,4.38,7.14,2.11,14.24,5.49,21.29,10.12,7.04,4.63,13.14,10.82,18.27,18.57,5.13,7.75,7.7,17.67,7.7,29.75,0,9.87-1.92,19.03-5.74,27.48-3.83,8.46-9.51,15.76-17.06,21.89-7.55,6.14-16.91,10.92-28.09,14.35-11.17,3.42-24.11,5.13-38.81,5.13-11.88,0-23.4-1.46-34.58-4.38-11.17-2.92-21.04-7.5-29.6-13.74-8.56-6.24-15.35-14.19-20.38-23.86-5.04-9.66-7.45-21.14-7.25-34.43h45.9c0,7.25,1.31,13.39,3.93,18.42Z"/>
      <path class="cls-1" d="M312.2,5.67l80.63,215.63h-49.22l-16.31-48.02h-80.63l-16.91,48.02h-47.71L263.58,5.67h48.62ZM314.92,137.94l-27.18-79.12h-.6l-28.09,79.12h55.87Z"/>
      <path class="cls-1" d="M450.21,5.67l90,144.66h.6V5.67h44.39v215.63h-47.41l-89.69-144.36h-.6v144.36h-44.39V5.67h47.11Z"/>
      <path class="cls-1" d="M705.4,5.67c13.89,0,26.83,2.22,38.81,6.64,11.98,4.43,22.35,11.08,31.11,19.93,8.76,8.86,15.6,19.93,20.54,33.22,4.93,13.29,7.4,28.89,7.4,46.81,0,15.7-2.01,30.2-6.04,43.49-4.03,13.29-10.12,24.76-18.27,34.43s-18.32,17.27-30.5,22.8c-12.18,5.54-26.53,8.31-43.03,8.31h-93.02V5.67h93.02ZM702.08,181.43c6.84,0,13.49-1.1,19.93-3.32,6.44-2.21,12.18-5.89,17.21-11.02,5.03-5.13,9.06-11.83,12.08-20.08,3.02-8.25,4.53-18.32,4.53-30.2,0-10.87-1.06-20.69-3.17-29.45-2.11-8.76-5.59-16.26-10.42-22.5-4.83-6.24-11.23-11.02-19.18-14.34-7.96-3.32-17.77-4.98-29.44-4.98h-33.82v135.9h42.28Z"/>
      <path class="cls-1" d="M786.33,5.67h53.15l50.43,85.16,50.13-85.16h52.85l-80.03,132.88v82.75h-47.41v-83.96L786.33,5.67Z"/>
      <path class="cls-1" d="M61.55,203.67v82.75h87.28v-82.75h47.41v215.63h-47.41v-93.02H61.55v93.02H14.13v-215.63h47.41Z"/>
      <path class="cls-1" d="M381.96,402.84c-16.31,14.19-38.86,21.29-67.65,21.29s-51.79-7.04-67.8-21.14c-16.01-14.09-24.01-35.83-24.01-65.23v-134.09h47.41v134.09c0,5.84.5,11.58,1.51,17.21,1,5.64,3.12,10.62,6.34,14.95,3.22,4.33,7.7,7.85,13.44,10.57,5.74,2.72,13.44,4.08,23.1,4.08,16.91,0,28.59-3.77,35.03-11.33,6.44-7.55,9.66-19.38,9.66-35.48v-134.09h47.41v134.09c0,29.19-8.15,50.89-24.46,65.08Z"/>
      <path class="cls-1" d="M566.48,417.63c-10.27,4.33-20.64,6.49-31.11,6.49-16.51,0-31.36-2.87-44.54-8.61-13.19-5.74-24.31-13.64-33.37-23.71-9.06-10.06-16.01-21.89-20.84-35.48-4.83-13.59-7.25-28.24-7.25-43.94s2.42-31.05,7.25-44.85c4.83-13.79,11.78-25.82,20.84-36.09,9.06-10.27,20.18-18.32,33.37-24.16,13.18-5.84,28.03-8.76,44.54-8.76,11.07,0,21.79,1.66,32.16,4.98,10.37,3.32,19.73,8.21,28.09,14.65,8.35,6.45,15.25,14.4,20.69,23.86,5.44,9.47,8.76,20.34,9.97,32.62h-45.3c-2.82-12.08-8.26-21.14-16.31-27.18-8.05-6.04-17.82-9.06-29.29-9.06-10.67,0-19.73,2.07-27.18,6.19-7.45,4.13-13.49,9.66-18.12,16.61-4.63,6.95-8,14.85-10.12,23.71-2.11,8.86-3.17,18.02-3.17,27.48s1.06,17.87,3.17,26.42c2.11,8.56,5.48,16.26,10.12,23.1,4.63,6.85,10.67,12.33,18.12,16.46,7.45,4.13,16.51,6.19,27.18,6.19,15.7,0,27.83-3.97,36.39-11.93,8.55-7.95,13.54-19.48,14.95-34.58h-47.72v-35.33h90.6v116.57h-30.2l-4.83-24.46c-8.46,10.87-17.82,18.47-28.09,22.8Z"/>
      <path class="cls-1" d="M706.91,203.67v82.75h87.28v-82.75h47.41v215.63h-47.41v-93.02h-87.28v93.02h-47.41v-215.63h47.41Z"/>
      <path class="cls-1" d="M1036.08,203.67v39.86h-113.85v46.21h104.49v36.84h-104.49v52.85h116.27v39.86h-163.68v-215.63h161.27Z"/>
      <path class="cls-1" d="M1104.33,366.14c2.61,5.04,6.09,9.11,10.42,12.23,4.33,3.12,9.41,5.44,15.25,6.95,5.84,1.51,11.88,2.27,18.12,2.27,4.23,0,8.76-.35,13.59-1.06,4.83-.7,9.36-2.06,13.59-4.08,4.23-2.01,7.75-4.78,10.57-8.3,2.82-3.52,4.23-8,4.23-13.44,0-5.84-1.86-10.57-5.59-14.19-3.73-3.62-8.61-6.64-14.65-9.06-6.04-2.42-12.89-4.53-20.54-6.34-7.65-1.81-15.4-3.82-23.25-6.04-8.05-2.01-15.91-4.48-23.56-7.4-7.65-2.92-14.5-6.69-20.54-11.33-6.04-4.63-10.92-10.42-14.65-17.37-3.73-6.95-5.59-15.35-5.59-25.22,0-11.07,2.36-20.69,7.1-28.84,4.73-8.15,10.92-14.95,18.57-20.38,7.65-5.44,16.31-9.46,25.97-12.08,9.66-2.61,19.33-3.93,28.99-3.93,11.27,0,22.09,1.26,32.46,3.78,10.37,2.52,19.58,6.6,27.63,12.23,8.05,5.64,14.44,12.83,19.18,21.59,4.73,8.76,7.1,19.38,7.1,31.86h-45.9c-.41-6.44-1.76-11.78-4.08-16.01-2.32-4.23-5.39-7.55-9.21-9.97-3.83-2.42-8.21-4.12-13.14-5.13-4.94-1-10.32-1.51-16.16-1.51-3.83,0-7.65.41-11.48,1.21-3.83.81-7.3,2.22-10.42,4.23-3.12,2.01-5.69,4.53-7.7,7.55-2.01,3.02-3.02,6.85-3.02,11.48,0,4.23.8,7.65,2.42,10.27,1.61,2.62,4.78,5.04,9.51,7.25,4.73,2.22,11.27,4.43,19.63,6.64,8.35,2.22,19.28,5.03,32.77,8.46,4.03.81,9.61,2.26,16.76,4.38,7.14,2.11,14.24,5.49,21.29,10.12,7.04,4.63,13.14,10.82,18.27,18.57,5.13,7.75,7.7,17.67,7.7,29.75,0,9.87-1.92,19.03-5.74,27.48-3.83,8.46-9.51,15.76-17.06,21.89-7.55,6.14-16.91,10.92-28.08,14.35-11.17,3.42-24.11,5.13-38.81,5.13-11.88,0-23.41-1.46-34.58-4.38-11.17-2.92-21.04-7.5-29.6-13.74-8.56-6.24-15.35-14.19-20.38-23.86-5.04-9.66-7.45-21.14-7.25-34.43h45.9c0,7.25,1.31,13.39,3.93,18.42Z"/>
    </g>
  </g>
</svg>