<?xml version="1.0" encoding="UTF-8"?>
<svg id="Layer_2" data-name="Layer 2" xmlns="http://www.w3.org/2000/svg" viewBox="0 0 1229.36 440.93">
  <defs>
    <style>
      .cls-1 {
        stroke: #fff;
        stroke-width: 1.02px;
      }
    </style>
  </defs>
  <g id="Home_Page_Text_copy_2" data-name="Home Page Text copy 2">
    <g id="kaeru_kaeru" data-name="kaeru kaeru">
      <path class="cls-1" d="M137.07,55.25c-3.16,3.79-3.16,15.48-23.38-1.58-14.54-12.32-17.06,10.74-7.27,36.66s43.61,20.22,55.62,60.67c9.8,33.5-10.43,55.62-30.02,72.68-20.54,17.7-49.29,24.96-70.47,18.33-20.54-6.32-46.77-23.07-55.93-46.77s-.95-18.64,6.64-21.49c7.58-2.84,7.9-7.27,14.22,10.11s18.64,34.13,42.98,39.5c12.64,2.84,21.8-6,12.32-11.38-10.43-6-16.43-1.26-26.54-14.22-11.06-14.22,3.16-39.5,20.22-50.56,11.38-7.27,48.03,6.32,50.24,24.02,1.9,18.01-7.9,20.54-22.12,32.55-4.74,3.79-8.85,13.59,2.53,11.38,7.27-1.58,22.75-11.06,29.07-22.75,17.06-31.6-2.53-73.63-48.66-61.62-12.01,3.16-55.93,12.32-66.99-35.08C8.46,48.3,32.79,20.8,69.45,13.85c36.34-6.95,51.19,10.74,75.84,30.65,6.95,5.69-5.06,6.95-8.22,10.74ZM49.54,109.28c21.17,14.54,49.29,7.58,42.03-8.85-7.9-17.7-17.06-33.5-4.42-54.98,12.32-20.86-16.43-19.59-38.24-2.53-18.01,14.22-14.85,55.62.63,66.36ZM91.25,193.34c6.95-4.11,18.33-11.69,16.75-20.22-2.21-12.32-21.49-23.38-37.6-.63-8.53,12.01,3.79,30.97,20.86,20.86Z"/>
      <path class="cls-1" d="M295.07,119.08c-6-19.59-13.59-13.27-26.86-4.74l-8.53,5.69c-8.53,6.64.95,6.95,4.42,26.86,2.21,13.27-17.38,19.28-25.91,29.7-8.53,10.74-5.69,37.6-6,46.77-.32,8.85-10.11,1.26-12.32,1.26s-13.9,6.32-10.43-6.64c1.9-7.27,2.84-26.23,5.06-33.5,3.79-12.64,7.58-15.17,19.59-30.02,12.01-14.54.32-22.75-5.37-33.5-10.43-16.12,11.38-36.34,26.86-55.3s-4.11-34.76,12.96-48.66c17.06-13.9,26.54,5.69,55.3,45.82,28.75,40.13,28.12,62.25,7.9,72.68-18.33,9.48-34.13-8.22-36.66-16.43ZM321.61,91.9c-8.85-11.38-14.85-23.07-24.96-41.4-10.43-18.64-21.17-10.43-20.86-.95.32,9.16,3.48,12.32-3.79,19.91-24.33,25.6-22.75,33.81-1.58,27.49,19.28-5.69,27.18-8.22,37.29,9.16,10.11,17.06,24.02-1.26,13.9-14.22ZM350.37,223.99c-12.32,10.43-34.13,2.53-33.5-9.48s13.9-8.85,6.32-35.39c-7.58-26.23-3.79-34.44,14.85-32.55,8.85.95,11.69,10.43,19.59,30.02,8.22,20.22,5.37,36.97-7.27,47.4ZM343.73,172.8c.32-4.42-8.85-8.22-8.85,2.53,0,6.95,6,19.91,3.16,25.91-3.79,7.9,3.16,12.01,7.9,2.84,4.42-8.85-3.48-14.85-2.21-31.28Z"/>
      <path class="cls-1" d="M598.1,86.53c-1.58,27.18-21.17,35.08-23.07,21.49-6-42.97-20.86-35.08-16.75-19.91,3.79,13.9,6.95,52.77,5.69,81.21-1.26,27.49-13.59,53.4-31.28,53.72-17.7.32-33.18-17.06-32.55-38.87.32-13.27,1.58-36.02-12.96-67.62-14.54-31.6-1.26-53.09,2.53-71.42,3.79-18.33-27.18-2.21-25.28,18.64,1.9,21.17,14.22,85.32,24.65,96.69,10.11,10.74,12.32,28.12-2.84,43.92-9.8,10.11-27.18,19.91-48.98,29.07-11.38,4.74-23.07-2.21-27.81-9.16-6.95-10.11-10.74-29.07,12.64-38.55,11.06-4.42,10.43-19.91,22.44-29.07,30.97-23.38-8.22-60.35-5.37-97.01,3.16-42.66,35.71-46.77,47.08-45.82,11.38.95,32.86,12.32,23.7,38.24-9.16,26.23-6.32,39.82,3.48,60.99,9.8,20.86,8.53,42.34,5.69,60.99-2.84,18.01,15.17,27.49,22.12,13.27,6.32-12.96,6-39.81,0-75.52-6.32-38.55-11.38-57.19-18.96-72.99-4.11-8.53,7.9-4.74,12.32-6.64,4.42-1.9,7.27-12.96,15.8,18.64,4.42,16.43,12.96,6.32,7.9-7.58-5.06-13.9-5.06-29.07,18.01-33.18,23.07-4.11,25.28,16.43,21.8,76.47ZM478.03,176.27c-3.48-6.95-10.43-13.9-22.12-5.37-11.69,8.53-8.22,15.8-22.75,23.07-12.01,6-12.96,12.01-12.01,16.43.95,4.42,3.16,9.16,16.43,3.79,7.9-3.16,34.44-12.32,37.29-17.7,3.16-5.69,6.32-13.59,3.16-20.22Z"/>
      <path class="cls-1" d="M791.81,199.97c-3.79,4.42-11.06,6.32-19.91,8.85-1.9,10.11-6.95,17.7-20.54,18.01-19.28.32-48.35.63-68.25,1.58-11.69.63-32.55-8.85-31.28-29.7,1.26-23.07-5.69-40.45-6.64-60.99-.95-20.54,8.53-22.12,6-31.6-4.74-18.33-9.48-24.65-5.37-101.43-.32-8.85,6-.95,9.8-.63,3.79.32,9.48-6.32,9.48.32,0,14.22,1.58,8.22,15.48,7.58,13.9-.63,61.93,14.85,82.79,45.82,20.86,30.65,33.18,62.88,35.39,86.27s.32,47.72-6.95,55.93ZM755.47,193.34c-.63-15.8-7.9-20.22-16.75-16.75-8.85,3.48-21.49,7.9-36.34,6.64-17.06-1.58-26.86-21.49-28.76-50.88-.95-13.59-13.59-11.38-12.64-.32.95,11.06,5.37,40.45,7.9,55.93,2.53,15.48-1.58,28.12,21.49,23.07,24.02-5.37,33.81,4.42,46.14,1.26s19.59-3.16,18.96-18.96ZM782.65,146.25c-5.69-36.97-15.17-53.72-21.49-59.41-6.32-5.69-12.32-6.95-12.64,3.79-.32,10.74,5.37,25.91-1.58,36.02-6.95,10.11-17.7,15.48-33.81-1.26-16.12-16.75-19.59-33.18-12.96-47.08,6.64-13.59,22.75-2.21,28.12-.95,5.37,1.26,11.06-12.32,3.48-20.54s-32.55-22.12-50.24-22.12-18.33,18.01-18.96,29.07c-.63,11.06-.32,23.7.32,30.34s3.79,12.96,10.43,13.27c6.64.32,14.85,9.48,14.54,29.7s10.43,32.23,26.54,30.97c16.12-1.26,25.91-18.96,47.08-10.74,16.75,6.64,14.22,17.38,12.32,29.07,7.9-3.79,12.96-13.9,8.85-40.13Z"/>
      <path class="cls-1" d="M972.87,50.19c-8.85,26.23-10.74,64.46-11.06,87.53-.32,22.75-1.58,64.46-22.75,80.89s-59.09,15.17-76.15,6.32c-17.06-8.85-22.75-27.81-27.18-42.34-4.42-14.85,4.42-6.32,7.27-7.27,2.84-.95,8.22-9.48,10.74,2.53,2.53,12.01,5.37,28.44,23.7,33.18,23.38,6,38.24-.32,47.4-6.95,7.58-5.69,12.96-15.17,15.48-23.07,1.9-8.22-9.79-10.43-18.33,3.48-8.85,14.22-19.27,24.02-34.13,15.48-14.85-8.53-9.8-17.7-3.48-23.38,6.64-6,10.74-15.17,9.8-25.28-.95-10.43,11.06-27.49,22.12-17.7,11.38,10.11,8.53,23.7,17.7,23.07,8.85-.63,11.06-.95,11.69-13.9.95-22.12,4.42-54.67,10.74-86.58,3.79-19.59-7.9-14.54-9.8-3.16-3.48,20.86-5.06,37.6-18.96,45.82v2.21c-1.26,22.12-17.7,21.17-34.44,18.64-16.43-2.53-25.91-18.33-36.97-29.39-7.9-7.9-16.43-18.96-22.75-35.39-10.11-26.23-10.43-33.81,1.58-38.87,12.64-5.37,24.96,10.74,31.92,20.86,6.95,9.8,13.9,21.8,38.24,33.5,7.58,3.48,13.59,8.85,17.38,14.85,7.27-5.37,7.9-24.96,12.32-46.77,5.69-29.07,48.35-19.59,37.92,11.69ZM900.19,88.43c-8.22-6-14.22-6.95-29.39-22.44-9.48-9.79-15.48-26.23-22.75-20.86-3.48,2.53,1.26,11.38,8.22,22.12,7.9,12.32,23.07,24.02,29.7,28.12,11.38,6.95,25.91,1.58,14.22-6.95Z"/>
      <path class="cls-1" d="M.56,389.02c1.9-61.93,12.96-91.95,42.03-96.69,29.07-4.74,51.51,10.43,61.62,2.53,10.11-7.9,11.69-29.39,3.79-53.4-7.9-24.02-4.42-24.96-6-33.18s9.48,1.9,13.9-.32,10.43-9.48,10.43,1.58,5.37,31.6,5.37,48.35,2.21,37.92-2.21,53.72c-4.11,15.17-14.54,27.81-34.44,32.86-19.91,5.06-26.86,11.06-29.39,27.81-2.53,16.75-6.32,46.77-30.34,54.04S-.39,419.67.56,389.02ZM8.46,213.64c0-28.12,28.76-22.75,32.86-4.11,3.16,12.96,11.38,25.91,22.12,36.34,11.06,10.43,6.64,23.07-5.06,32.86-12.32,9.8-22.12,12.96-36.02-7.9-13.9-20.86-7.9-30.02-9.16-37.92-1.26-7.9-4.74-10.11-4.74-19.28ZM20.47,392.18c-.63,21.49,16.43,18.64,20.22,4.11,3.79-14.22,8.22-49.29,21.17-56.25,13.59-7.27,29.07-8.53,39.82-12.96,11.06-4.42,4.11-18.33-12.64-15.8-16.75,2.53-33.5-5.69-44.87-.95-11.69,4.74-20.86,30.02-21.8,43.61-.95,13.59-1.58,25.6-1.9,38.24ZM36.9,264.2c6.64,10.74,20.54.32,12.01-10.74-8.53-10.74-11.69-23.07-14.22-32.55-2.53-9.8-12.01-12.01-9.48,2.21,1.26,7.27,1.58,23.07,4.11,28.44,2.84,6.32,6,10.11,7.58,12.64ZM87.78,407.66c-2.53,10.11,1.58,18.64,12.96,22.44,10.43,3.79,25.6,4.11,31.6-5.69,5.69-8.22-15.48-35.71-15.48-54.04,0-28.12-26.54-28.44-26.54-8.53,0,27.18.63,33.5-2.53,45.82ZM101.68,376.38c-2.21-12.01,5.37-12.32,7.27,1.58,1.9,14.22,11.69,30.65,10.11,38.24-1.26,7.58-17.06,4.42-17.06-5.69s.95-21.17-.32-34.13Z"/>
      <path class="cls-1" d="M327.3,269.57c-6,9.8,22.12,61.94,15.48,91.64-6,29.07-30.65,62.57-60.99,61.3-22.75-.95-33.5-31.28-38.24-49.61-6.32-26.86-.95-41.08-3.79-70.15-.95-11.06-3.48-18.96-5.69-25.6-4.74.63-7.27-1.58-11.69-7.58-5.69-8.22-1.58-26.86,2.53-40.45,4.11-13.9,18.64-17.06,27.18-11.69s14.22,5.69,12.64,24.96c-1.26,15.8-3.16,24.33-15.8,30.02,3.48,9.16,7.9,17.38,8.53,28.75.63,14.85,1.26,26.23-.63,40.76-2.53,19.91,7.58,10.43,11.06-12.32,3.79-23.38,15.48-25.28,21.49-9.48,6,15.17,11.69,28.12,8.53,47.4-2.84,18.96-18.33,15.17-27.81,5.37-9.16-9.8-4.74,22.44,11.69,29.7,14.22,6.32,35.71-18.64,39.18-42.66,4.42-30.02-12.32-71.1-18.33-85.32q-.32-.32-.32-.63c-4.74-9.48-1.58-29.39,2.84-51.19,2.53-12.01,19.59-27.81,36.66-19.59,25.28,11.06,20.86,27.18,1.9,45.82-7.9,7.9-12.64,14.85-16.43,20.54ZM236.29,247.77c0,3.79,0,11.06,3.48,10.43,3.48-.63,6.95,0,6.64-11.69.32-12.01-10.11-7.58-10.11,1.26ZM330.14,237.98c6.95-10.74-8.53-20.54-12.01.32-4.11,26.23,5.69,10.11,12.01-.32Z"/>
      <path class="cls-1" d="M571.56,358.37c-2.53,20.54-35.71,51.51-57.83,61.3-22.12,9.8-51.19-.32-59.09-13.59-.63-.95-.95-1.9-1.26-2.84-13.27-5.06-22.44-11.38-35.08-28.44-10.11-13.59-8.53-50.56.95-74.26-14.22-12.01-3.16-35.39,9.16-51.51,13.27-17.38,37.29-37.29,56.56-42.03,22.44-5.37,43.61,0,57.51,4.74,36.02,12.32,20.54,48.35-7.27,40.45-27.81-7.9-47.71-5.37-68.57,20.86-15.17,18.96-21.17,31.92-30.97,33.18l-6.64,19.59c-4.42,15.8-2.21,30.65,4.42,42.34,5.06,8.53,13.9,13.9,20.22,17.06,3.16-7.27,10.11-13.59,20.54-17.06,19.59-6.32,34.44,5.69,42.66-7.27,8.22-13.27-3.79-13.9-12.32-5.06-8.53,9.16-40.76,1.9-37.6-18.64,4.42-29.39,16.12-50.56,40.45-50.56,12.96,0,15.17,21.17,13.59,28.75-1.26,7.9,8.53,6,8.53,2.21,0-3.48-.63-10.43,4.42-19.59,4.74-8.85,23.07-12.32,31.28,5.06,8.22,17.7,8.85,35.08,6.32,55.3ZM443.58,278.11c5.69-8.85,15.17-24.02,30.65-33.81,12.01-7.58,31.28-11.38,44.55-8.85,14.85,2.84,23.7-8.53,2.84-12.32-20.86-3.79-38.55,0-53.09,8.85-12.64,7.58-29.7,27.81-36.34,39.5-8.53,15.17,3.79,18.64,11.38,6.64ZM556.07,329.3c-2.21-17.38-13.59-13.27-12.64.63,1.26,13.9-3.16,30.65-10.74,40.13-7.27,9.16-18.33,11.69-45.5,9.8-11.06-.63-18.01,10.11-18.01,17.38s14.54,17.06,36.34,12.32c11.38-2.53,30.97-20.54,39.5-32.55,8.53-11.69,13.9-26.86,11.06-47.71Z"/>
      <path class="cls-1" d="M650.56,389.02c1.9-61.93,12.96-91.95,42.03-96.69s51.51,10.43,61.62,2.53c10.11-7.9,11.69-29.39,3.79-53.4s-4.42-24.96-6-33.18c-1.58-8.22,9.48,1.9,13.9-.32s10.43-9.48,10.43,1.58,5.37,31.6,5.37,48.35,2.21,37.92-2.21,53.72c-4.11,15.17-14.54,27.81-34.44,32.86-19.91,5.06-26.86,11.06-29.39,27.81-2.53,16.75-6.32,46.77-30.34,54.04-24.02,7.27-35.71-6.64-34.76-37.29ZM658.46,213.64c0-28.12,28.76-22.75,32.86-4.11,3.16,12.96,11.38,25.91,22.12,36.34,11.06,10.43,6.64,23.07-5.06,32.86-12.32,9.8-22.12,12.96-36.02-7.9-13.9-20.86-7.9-30.02-9.16-37.92-1.26-7.9-4.74-10.11-4.74-19.28ZM670.46,392.18c-.63,21.49,16.43,18.64,20.22,4.11,3.79-14.22,8.22-49.29,21.17-56.25,13.59-7.27,29.07-8.53,39.81-12.96,11.06-4.42,4.11-18.33-12.64-15.8-16.75,2.53-33.5-5.69-44.87-.95-11.69,4.74-20.86,30.02-21.8,43.61s-1.58,25.6-1.9,38.24ZM686.9,264.2c6.64,10.74,20.54.32,12.01-10.74-8.53-10.74-11.69-23.07-14.22-32.55-2.53-9.8-12.01-12.01-9.48,2.21,1.26,7.27,1.58,23.07,4.11,28.44,2.84,6.32,6,10.11,7.58,12.64ZM737.77,407.66c-2.53,10.11,1.58,18.64,12.96,22.44,10.43,3.79,25.6,4.11,31.6-5.69,5.69-8.22-15.48-35.71-15.48-54.04,0-28.12-26.54-28.44-26.54-8.53,0,27.18.63,33.5-2.53,45.82ZM751.68,376.38c-2.21-12.01,5.37-12.32,7.27,1.58,1.9,14.22,11.69,30.65,10.11,38.24-1.26,7.58-17.06,4.42-17.06-5.69s.95-21.17-.32-34.13Z"/>
      <path class="cls-1" d="M925.47,240.19c-26.54-4.42-41.4,20.22-38.55,33.5,3.16,15.48,12.64,26.86,20.54,20.86,7.9-6,7.27-20.22,33.18-11.69,25.91,8.53,13.9,25.59,8.85,28.75-5.06,3.16-.63,8.53,2.21,8.85,2.84.32,6.95,12.01-6.32,15.17-13.27,3.16-35.71-3.79-45.19,4.74-9.48,8.53-8.85,15.17-10.11,19.91-1.26,4.74,3.48,7.9,6.95,2.53s19.59-8.85,24.65,5.69c5.06,14.54-1.9,24.96-10.74,30.34s-10.11,1.26-13.9-1.26c-3.79-2.53-7.27,5.06-3.79,9.48s6,2.53,26.54,4.11c20.86,1.58,53.09-10.74,56.88-16.12,3.79-5.37,1.9-12.01,10.11-14.22,6.95-1.9,6,7.58,6.95,9.8s9.16,3.79,8.53,9.16c-.63,5.37-6.64,6.64-18.33,12.96-6,3.16-28.12,14.22-60.36,15.8-13.59.63-39.18,0-47.08-8.53-11.38-12.01-8.22-26.54-7.58-42.34s2.84-39.82,12.96-49.93c10.11-10.11,20.86-3.79,21.17-8.53.32-3.79-24.33-5.37-30.97-22.44-6.64-17.06-12.01-51.19,11.69-67.94,10.43-7.27,30.97-21.8,60.67-9.16,11.38-8.85,27.81-17.06,40.76-4.74,9.16,8.85,10.11,6,20.86,18.64,10.74,12.32,3.16,27.49-6.64,33.81-9.16,6-29.39-9.8-37.29-12.32-7.58-2.53-30.33,3.48-37.29-3.48-2.53-2.53-1.58-6.64.63-11.38ZM900.82,377.33c.32,16.43,10.43,7.58,8.22-.95-1.9-6.95-7.9-7.27-8.22.95ZM945.69,238.61c3.16,4.42,9.48-1.9,20.54,4.42,10.74,6,18.96,5.37,22.44-1.26,3.48-6.64-6.32-10.74-16.43-16.12-14.54-7.58-29.7,8.22-26.54,12.96Z"/>
      <path class="cls-1" d="M1201.33,251.25c-3.16,3.79-3.16,15.48-23.38-1.58-14.54-12.32-17.06,10.74-7.27,36.66,9.79,25.91,43.61,20.22,55.61,60.67,9.8,33.5-10.43,55.62-30.02,72.68-20.54,17.7-49.29,24.96-70.47,18.33-20.54-6.32-46.77-23.07-55.93-46.77s-.95-18.64,6.64-21.49c7.58-2.84,7.9-7.27,14.22,10.11s18.64,34.13,42.97,39.5c12.64,2.84,21.8-6,12.32-11.38-10.43-6-16.43-1.26-26.54-14.22-11.06-14.22,3.16-39.5,20.22-50.56,11.38-7.27,48.03,6.32,50.24,24.02,1.9,18.01-7.9,20.54-22.12,32.55-4.74,3.79-8.85,13.59,2.53,11.38,7.27-1.58,22.75-11.06,29.07-22.75,17.06-31.6-2.53-73.63-48.66-61.62-12.01,3.16-55.93,12.32-66.99-35.08-11.06-47.4,13.27-74.89,49.93-81.84,36.34-6.95,51.19,10.74,75.84,30.65,6.95,5.69-5.06,6.95-8.22,10.74ZM1113.8,305.28c21.17,14.54,49.3,7.58,42.03-8.85-7.9-17.7-17.06-33.5-4.42-54.98,12.32-20.86-16.43-19.59-38.24-2.53-18.01,14.22-14.85,55.62.63,66.36ZM1155.51,389.34c6.95-4.11,18.33-11.69,16.75-20.22-2.21-12.32-21.49-23.38-37.6-.63-8.53,12.01,3.79,30.97,20.86,20.86Z"/>
    </g>
  </g>
</svg>