<?xml version="1.0" encoding="UTF-8"?>
<svg id="Layer_2" data-name="Layer 2" xmlns="http://www.w3.org/2000/svg" viewBox="0 0 1235.72 453.79">
  <defs>
    <style>
      .cls-1 {
        stroke: #fff;
        stroke-width: .8px;
      }
    </style>
  </defs>
  <g id="Home_Page_Text_copy_2" data-name="Home Page Text copy 2">
    <g id="Lovelace_Script" data-name="Lovelace Script">
      <path class="cls-1" d="M60.81,234.08c-7.86-1.18-13.75-1.77-17.68-1.77-3.28,0-6.14,1.18-8.59,3.54-2.46,2.36-5.08,6.19-7.86,11.49-.33.59-.82.93-1.47,1.03-.66.1-.9-.25-.74-1.03l13.26-101.66c.16-.78.45-1.13.86-1.03.41.1.7.44.86,1.03.98,30.06,6.75,51.96,17.31,65.71,10.56,13.75,23.86,20.63,39.9,20.63,7.69,0,14.73-1.62,21.12-4.86,6.38-3.24,11.38-7.61,14.98-13.11,3.6-5.5,5.4-11.49,5.4-17.98,0-5.3-1.88-10.31-5.65-15.03-3.77-4.71-9.09-9.38-15.96-14-6.88-4.61-16.62-10.46-29.22-17.53-9.82-5.5-17.35-10.36-22.59-14.59-5.24-4.22-9.13-8.99-11.66-14.29-2.54-5.3-3.81-11.79-3.81-19.45,0-15.13,3.52-28.73,10.56-40.81,7.04-12.08,17.11-21.61,30.2-28.58,13.1-6.97,28.32-10.46,45.67-10.46,7.86,0,17.02.79,27.5,2.36,7.86,1.18,13.26,1.77,16.21,1.77,3.76,0,6.67-1.08,8.72-3.24,2.04-2.16,3.68-4.42,4.91-6.78,1.23-2.36,2.09-4.02,2.58-5.01.33-.78.74-1.13,1.23-1.03.49.1.74.44.74,1.03l-13.01,98.13c-.33.79-.74,1.18-1.23,1.18s-.74-.39-.74-1.18c-1.8-16.3-5.32-30.74-10.56-43.32-5.24-12.57-11.58-22.29-19.03-29.17-7.45-6.87-15.35-10.31-23.7-10.31-6.55,0-12.61,1.62-18.17,4.86-5.57,3.24-9.95,7.56-13.14,12.97-3.19,5.41-4.79,11.05-4.79,16.94,0,6.29,1.35,11.35,4.05,15.18,2.7,3.83,6.75,7.42,12.16,10.76,5.4,3.34,15.22,8.65,29.47,15.91,15.22,7.86,26.4,16.31,33.52,25.34,7.12,9.04,10.68,18.86,10.68,29.47,0,15.32-4.79,29.03-14.37,41.11-9.58,12.08-21.49,21.47-35.73,28.14-14.24,6.68-27.99,10.02-41.25,10.02-10.15,0-20.47-.79-30.94-2.36Z"/>
      <path class="cls-1" d="M366.41,231.57c.25.88.04,1.33-.61,1.33-4.91,0-9.82-.2-14.73-.59-1.64-.2-3.6-.29-5.89-.29h-64.83c-3.11,0-5.65.1-7.61.29-6.22.39-12.28.59-18.17.59-.49,0-.74-.29-.74-.88,0-1.18.49-1.77,1.47-1.77,17.68-.78,26.52-19.74,26.52-56.87l-.25.59-34.38.29-32.42-.29c-3.28,5.3-5.81,10.95-7.61,16.94-1.8,6-2.7,11.74-2.7,17.24,0,6.48,1.31,11.74,3.93,15.76,2.62,4.03,6.54,6.14,11.79,6.34.82,0,1.35.44,1.6,1.33.25.88-.04,1.33-.86,1.33-6.55,0-15.22-.2-26.03-.59-3.6-.2-7.61-.29-12.03-.29h-4.91c-2.46,0-4.75.1-6.88.29-6.54.39-11.87.59-15.96.59-.49,0-.65-.44-.49-1.33.17-.88.49-1.33.98-1.33,5.73-.19,14.2-6.23,25.42-18.12,11.21-11.88,20.91-24.02,29.1-36.39l64.58-99.31c-1.8-14.73-4.09-27.8-6.88-39.19,0-.19-.04-.54-.12-1.03-.08-.49.2-.83.86-1.03,10.8-2.55,22.26-7.12,34.38-13.7,12.11-6.58,20.95-13.41,26.52-20.48.16-.39.41-.59.74-.59s.57.2.74.59l8.84,163.84c1.31,23.38,4.17,40.03,8.59,49.95,4.42,9.92,9.98,15.08,16.7,15.47.65,0,1.11.44,1.35,1.33ZM281.81,169.84l-.25-6.19c-1.47-34.57-3.44-61.68-5.89-81.33l-58.2,87.52,31.19-.29,33.15.29Z"/>
      <path class="cls-1" d="M422.52,162.77c-1.96,6.68-2.95,13.85-2.95,21.51,0,12.38,2.33,23.09,7,32.12,4.67,9.04,11.09,13.66,19.28,13.85.82,0,1.39.44,1.72,1.33.33.88,0,1.33-.98,1.33-7.21,0-16.7-.2-28.49-.59-3.93-.2-8.43-.29-13.51-.29h-4.42c-3.44,0-6.55.1-9.33.29-8.51.39-15.55.59-21.12.59-.65,0-.86-.4-.61-1.18.25-.78.7-1.18,1.35-1.18,5.24-.19,11.01-3.44,17.31-9.72,6.3-6.29,12.16-14.04,17.56-23.28,5.4-9.23,9.33-17.98,11.79-26.23l26.52-88.99c3.27-10.61,4.91-19.74,4.91-27.41,0-9.82-2.38-16.8-7.12-20.92-4.75-4.13-10.8-6.29-18.17-6.48-.98,0-1.6-.44-1.84-1.33-.25-.88.12-1.33,1.11-1.33,6.38,0,12.36.2,17.93.59,1.8.2,4.17.29,7.12.29h61.64l66.06,120.23,15.96-50.68c1.96-6.88,2.95-14.04,2.95-21.51,0-12.18-2.38-22.88-7.12-32.12-4.75-9.23-11.13-13.95-19.15-14.14-.98,0-1.6-.44-1.84-1.33-.25-.88.04-1.33.86-1.33,7.37,0,16.94.2,28.73.59,3.93.2,8.35.29,13.26.29h4.42c3.44,0,6.55-.1,9.33-.29,8.51-.39,15.55-.59,21.12-.59.65,0,.86.4.61,1.18-.25.79-.7,1.18-1.35,1.18-5.24.2-11.01,3.44-17.31,9.72-6.3,6.29-12.16,14.05-17.56,23.28-5.4,9.24-9.33,17.98-11.79,26.23l-43.71,144.98c-.17.78-.53,1.22-1.1,1.33-.58.1-1.02-.15-1.35-.74l-97.49-167.08-30.2,97.83Z"/>
      <path class="cls-1" d="M610.13,232.31c-5.56.39-11.54.59-17.93.59-.33,0-.61-.1-.86-.29-.25-.2-.37-.4-.37-.59,0-.39.17-.78.49-1.18.33-.39.82-.59,1.47-.59,5.89-.19,10.85-1.81,14.86-4.86,4.01-3.04,7.9-8.4,11.66-16.06,3.76-7.66,7.94-18.96,12.52-33.89l31.68-104.32c2.78-8.84,4.17-16.5,4.17-22.98,0-7.27-1.68-12.47-5.03-15.62-3.36-3.14-7.57-4.81-12.65-5.01-.66,0-1.07-.34-1.23-1.03-.17-.69.08-1.03.74-1.03l12.52.29c1.31.2,3.03.29,5.16.29l81.53-.29c13.75-.19,27.13,2.21,40.15,7.22,13.01,5.01,23.78,12.92,32.29,23.72,8.51,10.81,12.77,24.27,12.77,40.37,0,24.95-6.96,47.74-20.87,68.37-13.92,20.63-31.8,36.88-53.66,48.77-21.85,11.89-43.83,17.83-65.93,17.83h-76.37c-2.95,0-5.32.1-7.12.29ZM731.8,202.25c15.63-16.89,27.58-37.13,35.85-60.7,8.26-23.57,12.4-44.39,12.4-62.47,0-15.12-3.6-27.01-10.8-35.66-7.21-8.64-18.83-12.97-34.87-12.97h-.74c-2.79,6.09-5.4,12.72-7.86,19.89-2.46,7.17-5.73,17.53-9.82,31.09l-28.73,95.18c-3.93,12.58-6.88,22.64-8.84,30.21-1.96,7.56-3.44,14.49-4.42,20.77h3.19c20.79,0,39-8.44,54.64-25.34Z"/>
      <path class="cls-1" d="M1026.84,26.18c-.17.88-.49,1.33-.98,1.33-5.73.2-14.29,6.14-25.66,17.83-11.38,11.69-21.33,23.62-29.83,35.8l-51.32,75.14-4.17,13.55c-3.6,12.18-5.4,22.2-5.4,30.06,0,10.81,2.62,18.47,7.86,22.98,5.24,4.52,11.87,6.88,19.89,7.07,1.14,0,1.88.49,2.21,1.47.33.98-.08,1.47-1.23,1.47-7.21,0-13.75-.2-19.64-.59-1.96-.2-4.58-.29-7.86-.29h-68.02c-3.6,0-6.47.1-8.59.29-6.55.39-13.75.59-21.61.59-.82,0-1.23-.4-1.23-1.18,0-1.18.74-1.77,2.21-1.77,7.04-.19,13.01-1.96,17.93-5.3,4.91-3.34,9.58-9.28,14-17.83,4.42-8.55,9.09-20.97,14-37.28l2.7-8.84-9.58-68.66c-3.44-23.38-7.33-39.88-11.66-49.51-4.34-9.62-9.37-14.63-15.1-15.03-.49,0-.82-.44-.98-1.33-.17-.88,0-1.33.49-1.33,4.26,0,8.51.2,12.77.59,1.31.2,3.03.29,5.16.29h66.3c3.11,0,5.65-.1,7.61-.29l18.17-.29c.82,0,1.1.35.86,1.03-.25.69-.78,1.03-1.6,1.03-7.53.2-13.59,3.44-18.17,9.72-4.58,6.29-6.88,16.6-6.88,30.94,0,4.12.25,8.74.74,13.85l6.88,70.72,47.64-68.66c3.6-5.3,6.38-11.05,8.35-17.24,1.96-6.19,2.95-12.03,2.95-17.53,0-6.29-1.27-11.39-3.81-15.32-2.54-3.93-6.43-5.99-11.66-6.19-.82,0-1.35-.44-1.6-1.33-.25-.88.04-1.33.86-1.33,6.55,0,15.23.2,26.03.59,3.6.2,7.61.29,12.03.29h5.4c2.78,0,5.24-.1,7.37-.29,6.54-.39,11.7-.59,15.47-.59.65,0,.9.44.74,1.33Z"/>
      <path class="cls-1" d="M283.29,230.74c0,.4-.16.79-.49,1.18-.33.4-.74.59-1.23.59-5.57.2-10.28,1.82-14.12,4.86-3.85,3.05-7.57,8.4-11.17,16.06-3.6,7.66-7.7,18.86-12.28,33.59l-31.92,104.91c-2.62,9.24-3.93,16.8-3.93,22.69,0,13.56,5.81,20.53,17.44,20.92.82,0,1.31.34,1.47,1.03.16.69-.17,1.03-.98,1.03l-12.28-.29c-1.31-.2-3.03-.29-5.16-.29h-62.86c-2.95,0-5.24.1-6.88.29-5.24.39-10.89.59-16.94.59-.66,0-.98-.29-.98-.88,0-.39.16-.78.49-1.18.33-.39.74-.59,1.23-.59,5.56-.19,10.27-1.81,14.12-4.86,3.84-3.04,7.57-8.4,11.17-16.06,3.6-7.66,7.69-18.86,12.28-33.59l14.49-47.44-32.66.29-32.66-.29-17.93,58.64c-2.62,9.24-3.93,16.8-3.93,22.69,0,13.56,5.81,20.53,17.43,20.92.82,0,1.31.34,1.47,1.03.16.69-.17,1.03-.98,1.03l-12.28-.29c-1.31-.2-3.03-.29-5.16-.29H25.2c-2.95,0-5.24.1-6.88.29-5.24.39-10.88.59-16.94.59-.65,0-.98-.29-.98-.88,0-.39.17-.78.49-1.18.33-.39.74-.59,1.23-.59,5.57-.19,10.28-1.81,14.12-4.86,3.84-3.04,7.57-8.4,11.17-16.06,3.6-7.66,7.69-18.86,12.28-33.59l31.92-104.91c2.62-9.23,3.93-16.8,3.93-22.69,0-13.56-5.81-20.53-17.43-20.92-.66,0-1.07-.34-1.23-1.03-.17-.69.08-1.03.74-1.03l12.28.29c1.31.2,3.03.29,5.16.29h62.86c2.95,0,5.24-.1,6.88-.29,5.24-.39,10.88-.59,16.94-.59.65,0,.98.29.98.88,0,.4-.17.79-.49,1.18-.33.4-.74.59-1.23.59-5.57.2-10.28,1.82-14.12,4.86-3.85,3.05-7.57,8.4-11.17,16.06-3.6,7.66-7.7,18.86-12.28,33.59l-12.77,42.14,32.9-.29,32.42.29,16.21-53.34c2.62-9.23,3.93-16.8,3.93-22.69,0-13.56-5.81-20.53-17.43-20.92-.66,0-1.07-.34-1.23-1.03-.17-.69.08-1.03.74-1.03l12.28.29c1.31.2,3.03.29,5.16.29h62.86c2.95,0,5.24-.1,6.88-.29,5.24-.39,10.89-.59,16.94-.59.65,0,.98.29.98.88Z"/>
      <path class="cls-1" d="M297.89,426.56c-13.18-8.74-19.77-23.62-19.77-44.64,0-11.2,2.29-24.46,6.88-39.78l18.66-61c3.11-10.61,4.67-19.45,4.67-26.52,0-7.85-1.68-13.5-5.03-16.94-3.36-3.43-7.49-5.25-12.4-5.45-.66,0-1.07-.39-1.23-1.18-.17-.78.08-1.18.74-1.18,4.42,0,8.59.2,12.52.59,1.31.2,3.03.29,5.16.29h63.85c2.95,0,5.32-.1,7.12-.29,5.56-.39,11.54-.59,17.93-.59.33,0,.61.1.86.29.25.2.37.4.37.59,0,.4-.17.79-.49,1.18-.33.4-.82.59-1.47.59-5.89.2-10.85,1.82-14.86,4.86-4.01,3.05-7.9,8.4-11.66,16.06-3.77,7.66-7.94,18.96-12.52,33.89l-16.7,55.1-2.21,7.07c-3.44,10.81-6.18,20.33-8.23,28.58-2.05,8.25-3.07,16.01-3.07,23.28,0,20.04,10.23,30.06,30.7,30.06,11.46,0,22.59-3.83,33.4-11.49,10.8-7.66,20.46-18.27,28.98-31.83,8.51-13.56,15.31-28.88,20.38-45.97l13.26-42.14c1.96-6.87,2.95-14.04,2.95-21.51,0-12.38-2.33-23.08-7-32.12-4.67-9.03-11.09-13.65-19.28-13.85-.82,0-1.39-.44-1.72-1.33-.33-.88,0-1.33.98-1.33,7.2,0,16.7.2,28.49.59,3.93.2,8.43.29,13.51.29h4.67c3.11,0,5.89-.1,8.35-.29l18.17-.29c.65,0,.9.35.74,1.03-.17.69-.58,1.03-1.23,1.03-4.58,0-9.66,2.85-15.22,8.54-5.57,5.7-10.72,12.62-15.47,20.78-4.75,8.15-8.19,15.87-10.31,23.13l-16.7,56.58c-5.89,19.45-13.84,36.59-23.82,51.42-9.99,14.83-21.24,26.37-33.76,34.62s-25.42,12.38-38.68,12.38c-20.47,0-37.29-4.37-50.46-13.11Z"/>
      <path class="cls-1" d="M491.76,431.86c-11.46-5.79-20.3-14.04-26.52-24.75-6.22-10.71-9.33-23.33-9.33-37.87,0-22.2,6.1-44.39,18.29-66.6,12.19-22.2,28.65-40.42,49.36-54.66,20.71-14.24,43.1-21.36,67.16-21.36,10.8,0,21.77.88,32.91,2.65,5.89.79,9.82,1.18,11.79,1.18,4.91,0,8.92-1.28,12.03-3.83,3.11-2.55,6.05-6.28,8.84-11.2.65-.78,1.19-1.18,1.6-1.18s.53.4.37,1.18l-16.7,104.91c-.17.59-.45.88-.86.88s-.7-.29-.86-.88c-.49-18.66-3.28-34.77-8.35-48.33-5.08-13.56-11.38-23.77-18.91-30.65-7.53-6.87-15.31-10.31-23.33-10.31-13.75,0-26.69,9.19-38.8,27.55-12.12,18.37-21.82,40.13-29.1,65.27-7.29,25.15-10.93,46.46-10.93,63.94,0,14.73,2.74,26.42,8.23,35.07,5.48,8.65,14.28,12.97,26.4,12.97,3.44,0,6.91-.44,10.44-1.33,3.52-.88,8.39-2.31,14.61-4.27l9.58-31.24c3.11-10.41,4.67-19.15,4.67-26.23,0-18.86-10.31-28.68-30.94-29.47-1.15,0-1.88-.44-2.21-1.33-.33-.88.08-1.33,1.23-1.33,7.86,0,15.06.2,21.61.59,2.13.2,4.99.29,8.59.29h61.39c2.46,0,4.34-.1,5.65-.29,4.58-.39,9.33-.59,14.24-.59.65,0,.98.29.98.88,0,1.18-.49,1.77-1.47,1.77-4.59.2-8.47,1.82-11.66,4.86-3.19,3.05-6.38,8.3-9.58,15.76-3.19,7.47-7.08,18.67-11.66,33.59l-14,45.97c-.17.59-.49.93-.98,1.03-.49.1-.74-.25-.74-1.03,0-3.14-1.39-6.39-4.17-9.72-2.79-3.34-6.71-5.01-11.79-5.01-6.38,0-15.8,1.77-28.24,5.3-8.84,2.16-16,3.78-21.49,4.86-5.49,1.08-11.26,1.62-17.31,1.62-15.23,0-28.57-2.9-40.03-8.69Z"/>
      <path class="cls-1" d="M908.97,230.74c0,.4-.17.79-.49,1.18-.33.4-.74.59-1.23.59-5.57.2-10.28,1.82-14.12,4.86-3.85,3.05-7.57,8.4-11.17,16.06-3.6,7.66-7.7,18.86-12.28,33.59l-31.92,104.91c-2.62,9.24-3.93,16.8-3.93,22.69,0,13.56,5.81,20.53,17.44,20.92.82,0,1.31.34,1.47,1.03.16.69-.17,1.03-.98,1.03l-12.28-.29c-1.31-.2-3.03-.29-5.16-.29h-62.86c-2.95,0-5.24.1-6.88.29-5.24.39-10.89.59-16.94.59-.66,0-.98-.29-.98-.88,0-.39.16-.78.49-1.18.33-.39.74-.59,1.23-.59,5.56-.19,10.27-1.81,14.12-4.86,3.84-3.04,7.57-8.4,11.17-16.06,3.6-7.66,7.69-18.86,12.28-33.59l14.49-47.44-32.66.29-32.66-.29-17.93,58.64c-2.62,9.24-3.93,16.8-3.93,22.69,0,13.56,5.81,20.53,17.44,20.92.82,0,1.31.34,1.47,1.03.16.69-.17,1.03-.98,1.03l-12.28-.29c-1.31-.2-3.03-.29-5.16-.29h-62.86c-2.95,0-5.24.1-6.88.29-5.24.39-10.89.59-16.94.59-.65,0-.98-.29-.98-.88,0-.39.17-.78.49-1.18.33-.39.74-.59,1.23-.59,5.57-.19,10.27-1.81,14.12-4.86,3.84-3.04,7.57-8.4,11.17-16.06,3.6-7.66,7.69-18.86,12.28-33.59l31.92-104.91c2.62-9.23,3.93-16.8,3.93-22.69,0-13.56-5.81-20.53-17.44-20.92-.66,0-1.07-.34-1.23-1.03-.17-.69.08-1.03.74-1.03l12.28.29c1.31.2,3.03.29,5.16.29h62.86c2.95,0,5.24-.1,6.88-.29,5.24-.39,10.89-.59,16.94-.59.65,0,.98.29.98.88,0,.4-.17.79-.49,1.18-.33.4-.74.59-1.23.59-5.57.2-10.28,1.82-14.12,4.86-3.85,3.05-7.57,8.4-11.17,16.06-3.6,7.66-7.7,18.86-12.28,33.59l-12.77,42.14,32.91-.29,32.41.29,16.21-53.34c2.62-9.23,3.93-16.8,3.93-22.69,0-13.56-5.81-20.53-17.44-20.92-.66,0-1.07-.34-1.23-1.03-.17-.69.08-1.03.74-1.03l12.28.29c1.31.2,3.03.29,5.16.29h62.86c2.95,0,5.24-.1,6.88-.29,5.24-.39,10.89-.59,16.94-.59.65,0,.98.29.98.88Z"/>
      <path class="cls-1" d="M1066.74,348.17c.41.1.53.34.37.74l-50.34,103.43c-.16.59-.45.83-.86.74-.41-.1-.7-.35-.86-.74-.98-3.34-3.4-6.73-7.24-10.17-3.85-3.44-9.29-5.16-16.33-5.16h-114.19c-2.95,0-5.32.1-7.12.29-5.56.39-11.54.59-17.93.59-.33,0-.61-.1-.86-.29-.25-.2-.37-.4-.37-.59,0-.39.17-.78.49-1.18.33-.39.82-.59,1.47-.59,5.89-.19,10.85-1.81,14.86-4.86,4.01-3.04,7.9-8.4,11.66-16.06,3.76-7.66,7.94-18.96,12.52-33.89l31.92-104.9c2.62-8.44,3.93-16.01,3.93-22.69,0-13.36-5.65-20.23-16.94-20.63-.66,0-1.07-.34-1.23-1.03-.17-.69.08-1.03.74-1.03,3.93,0,7.37.1,10.31.29,2.95.2,5.16.29,6.63.29h109.28c8.18,0,15.8-1.37,22.84-4.13,7.04-2.75,12.03-6.48,14.98-11.2.33-.39.7-.64,1.11-.74.41-.1.61.15.61.74l-12.03,107.56c-.17.59-.49.88-.98.88s-.82-.29-.98-.88c-.98-17.28-4.83-32.61-11.54-45.97-6.71-13.36-15.06-23.67-25.05-30.94-9.99-7.27-20.22-10.9-30.69-10.9h-3.19l-29.22,96.36h.74c17.02,0,30-2.6,38.92-7.81,8.92-5.2,14.53-11.93,16.82-20.19.33-1.18.94-1.77,1.84-1.77s1.19.59.86,1.77l-20.14,66.6c-.49,1.38-1.15,2.02-1.96,1.92-.82-.1-1.07-.74-.74-1.92.82-2.95,1.23-5.5,1.23-7.66,0-7.27-3.28-13.26-9.82-17.98-6.55-4.71-16.29-7.46-29.22-8.25l-29.22,96.36h2.7c7.53,0,19.52-2.95,35.97-8.84s33.56-15.08,51.32-27.55c17.76-12.47,32.29-28.24,43.59-47.3.49-.59.94-.83,1.35-.74Z"/>
      <path class="cls-1" d="M1098.54,439.08c-7.86-1.18-13.75-1.77-17.68-1.77-3.28,0-6.14,1.18-8.6,3.54-2.46,2.36-5.08,6.19-7.86,11.49-.33.59-.82.93-1.47,1.03-.66.1-.9-.25-.74-1.03l13.26-101.66c.16-.78.45-1.13.86-1.03.41.1.69.44.86,1.03.98,30.06,6.75,51.96,17.31,65.71,10.56,13.75,23.86,20.63,39.9,20.63,7.69,0,14.73-1.62,21.12-4.86,6.38-3.24,11.38-7.61,14.98-13.11,3.6-5.5,5.4-11.49,5.4-17.98,0-5.3-1.88-10.31-5.65-15.03-3.77-4.71-9.09-9.38-15.96-14-6.88-4.61-16.62-10.46-29.22-17.53-9.82-5.5-17.36-10.36-22.59-14.59-5.24-4.22-9.13-8.99-11.66-14.29-2.54-5.3-3.81-11.79-3.81-19.45,0-15.13,3.52-28.73,10.56-40.81,7.04-12.08,17.11-21.61,30.21-28.58,13.09-6.97,28.32-10.46,45.67-10.46,7.86,0,17.02.79,27.5,2.36,7.86,1.18,13.26,1.77,16.21,1.77,3.76,0,6.67-1.08,8.72-3.24,2.04-2.16,3.68-4.42,4.91-6.78,1.23-2.36,2.09-4.02,2.58-5.01.33-.78.74-1.13,1.23-1.03.49.1.74.44.74,1.03l-13.01,98.13c-.33.79-.74,1.18-1.23,1.18s-.74-.39-.74-1.18c-1.8-16.3-5.32-30.74-10.56-43.32-5.24-12.57-11.58-22.29-19.03-29.17-7.45-6.87-15.35-10.31-23.7-10.31-6.55,0-12.61,1.62-18.17,4.86-5.57,3.24-9.95,7.56-13.14,12.97-3.19,5.41-4.79,11.05-4.79,16.94,0,6.29,1.35,11.35,4.05,15.18,2.7,3.83,6.75,7.42,12.16,10.76,5.4,3.34,15.22,8.65,29.47,15.91,15.22,7.86,26.4,16.31,33.52,25.34,7.12,9.04,10.68,18.86,10.68,29.47,0,15.32-4.79,29.03-14.37,41.11-9.58,12.08-21.49,21.47-35.73,28.14-14.24,6.68-27.99,10.02-41.25,10.02-10.15,0-20.47-.79-30.94-2.36Z"/>
    </g>
  </g>
</svg>