<?xml version="1.0" encoding="UTF-8"?>
<svg id="Layer_2" data-name="Layer 2" xmlns="http://www.w3.org/2000/svg" viewBox="0 0 1206.23 424.93">
  <defs>
    <style>
      .cls-1 {
        stroke: #fff;
        stroke-width: .92px;
      }
    </style>
  </defs>
  <g id="Home_Page_Text_copy_2" data-name="Home Page Text copy 2">
    <g id="Pilowlava">
      <path class="cls-1" d="M.46,156.64c0-15.67,5.64-33.92,21.01-33.92,12.3,0,19.98,11.68,19.98,23.65v48.45c0,13.68,7.69,20.81,23.06,12.54l89.66-48.17c10.76-5.7,19.98-10.26,17.42-20.8s-10.5-11.97-19.21-7.41l-54.31,27.93c-24.34,12.54-40.99-5.7-41.5-26.22l-.26-10.83c-.26-10.54-4.35-11.97-14.6-14.54l-16.14-4.28c-10.5-2.85-17.42-14.25-17.42-25.93C8.15,27.54,53.75.46,98.83.46s88.13,21.09,88.13,72.39c0,20.24-6.92,34.2-22.03,34.2-9.99,0-25.11-10.83-11.27-33.92l11.27-18.81c3.07-5.13,2.31-10.26-.26-12.25-4.1-3.13-9.48-2.85-17.93-.86l-110.41,26.5c-11.02,2.57-13.58,7.98-12.81,13.97.77,6.27,4.1,8.83,12.3,10.54l130.4,26.22c14.6,2.85,21.78,14.25,21.78,27.93,0,39.62-46.37,79.52-105.03,79.52S.46,189.7.46,156.64Z"/>
      <path class="cls-1" d="M331.44,137.55l11.02-100.89c1.79-15.68-5.12-25.65-15.88-23.37-10.76,2.28-19.98,23.94-23.83,32.77l-31,70.68c-8.2,18.81-22.54,22.52-32.02,22.52-15.12,0-27.41-13.97-27.41-31.64,0-12.25,7.68-23.37,19.47-33.92l51.49-45.6c22.29-19.67,31.51-27.08,48.16-27.08,15.37,0,25.87,12.26,29.21,31.64l23.31,137.08c5.38,31.92-3.33,56.43-29.72,56.43-21.01,0-31-14.82-31-32.21v-14.82c0-15.67-7.43-17.67-16.4-9.12l-25.11,23.94c-11.78,11.11-30.74,32.21-51.75,32.21-14.86,0-31.51-9.41-31.51-36.2,0-22.8,18.44-32.21,40.99-32.78l66.09-1.71c14.6-.29,24.34-3.42,25.87-17.95Z"/>
      <path class="cls-1" d="M398.56,156.36v-76.95c0-64.12,12.04-78.38,39.45-78.38,20.24,0,31.51,17.67,46.88,44.46l60.71,105.74c6.15,10.83,9.73,14.82,14.35,14.82,6.4,0,9.48-3.13,9.48-9.4,0-5.13-2.05-11.69-5.38-21.09l-23.57-67.55c-6.4-18.24-5.89-27.36-5.89-34.2,0-14.54,6.66-33.06,28.18-33.06,25.36,0,33.05,27.36,30.49,53.58l-13.06,131.96c-2.82,27.36-11.27,39.9-27.92,39.9-15.63,0-23.57-12.25-41.76-40.19l-42.53-65.55c-10.25-15.68-21.01-41.04-17.68-64.7l2.31-16.25c2.05-14.54-5.89-21.95-15.11-21.95-14.35,0-22.8,11.97-22.8,28.21,0,7.98,2.31,20.81,4.61,27.08l34.84,94.91c11.53,31.64,6.4,58.43-21.26,58.43-33.56,0-34.33-28.5-34.33-69.83Z"/>
      <path class="cls-1" d="M802.81,115.03c0,73.25-37.4,111.15-115.54,110.87-66.09-.29-79.42-68.69-54.05-125.97l9.48-21.38c4.35-9.97.51-14.25-11.02-16.53-14.35-2.85-21.01-13.68-21.01-26.79,0-14.82,8.97-29.93,25.87-29.93h88.89c55.59,0,77.37,39.9,77.37,109.73ZM743.63,37.8l-64.04,13.68c-21.78,4.56-29.2,17.39-24.34,36.77l26.39,103.17c7.43,29.36,35.87,23.94,43.81,2.85l44.32-118.84c10.25-27.65-6.66-41.89-26.13-37.62Z"/>
      <path class="cls-1" d="M1002.11,31.24c-.26,11.68-8.45,26.79-15.63,39.62l-62.76,114.57c-10.25,18.81-25.11,40.75-43.55,40.75-37.66,0-42.01-60.99-1.28-60.99h24.08c17.42,0,15.88-8.55,12.04-14.25l-78.9-117.42c-7.17-10.55-16.4-2.85-12.81,7.69l11.53,33.35c4.87,14.25,1.28,22.23-6.92,25.36-3.59,1.42-10.25-1.71-13.06-9.97-9.22-27.08-4.1-88.92,33.3-88.92,14.6,0,21.52,7.98,32.79,25.94l51.49,82.65c9.74,15.39,15.12,5.42,14.86-3.71l-2.05-76.38c-1.02-39.62,57.64-37.05,56.87,1.71Z"/>
      <path class="cls-1" d="M196.18,226.67l-15.37,158.46c-2.05,20.52-8.45,39.04-35.87,39.04-17.16,0-26.39-14.82-26.39-29.36,0-9.12,2.05-19.67,14.09-32.21l23.83-25.08c5.64-5.7,7.68-12.25,7.68-16.81,0-7.98-9.22-8.55-17.93-6.27l-97.35,21.38c-11.27,2.56-13.32,5.7-13.32,9.97,0,6.84,6.92,11.97,13.32,19.67,8.2,9.97,12.55,20.23,12.55,29.35,0,16.53-14.86,29.36-30.23,29.36s-28.44-9.98-25.87-37.05l13.58-140.5c2.05-20.52,9.22-47.6,36.63-47.6,17.42,0,27.41,10.83,27.41,26.22,0,12.83-6.4,23.65-15.37,29.35l-29.21,18.53c-7.69,4.85-8.97,9.12-8.97,14.54,0,7.7,6.15,11.68,14.86,11.68h108.88c10.5,0,16.14-2.85,17.68-11.12,1.79-9.4-3.33-12.82-8.2-18.81l-11.02-13.96c-7.94-10.26-12.55-19.38-12.55-28.21,0-15.68,9.48-28.22,30.23-28.22,14.6,0,28.44,10.55,26.9,27.65Z"/>
      <path class="cls-1" d="M328.11,261.73l29.72,26.79c5.38,4.85,9.99,2.85,12.04.57,2.82-3.13,4.61-7.98-.51-14.54l-14.86-19.09c-11.27-14.54-16.91-21.95-16.91-32.49,0-13.68,8.71-23.94,23.31-23.94,18.45,0,25.62,12.83,25.62,37.62v106.88c0,55-29.46,80.66-85.05,80.66-51.75,0-87.1-34.2-87.1-88.35v-92.34c0-31.63,10.5-44.46,29.97-44.46,27.41,0,34.07,32.78,21.78,53.01l-31.51,51.87c-10.5,17.38-6.92,32.78,8.2,41.33l72.75,41.61c22.03,12.54,35.61,10.83,43.29-1.14s1.54-25.08-4.36-31.92l-52.26-62.99c-20.49-24.79.51-51.87,25.87-29.07Z"/>
      <path class="cls-1" d="M472.08,308.75l-41.25,31.35c-19.21,14.54-2.31,49.31,17.42,36.2l108.36-71.82c24.59-16.25,43.04-6.56,44.06,16.81l2.56,59.85c1.28,30.78-11.27,43.04-30.23,43.04s-34.07-21.95-17.16-50.73l27.41-47.02c5.38-9.12-1.02-15.68-6.66-15.68-4.87,0-8.71.57-17.93,14.25l-42.01,60.99c-19.73,28.79-30.49,38.19-53.54,38.19-30.23,0-58.41-36.48-58.41-108.59s40.22-116.57,98.37-116.57c48.67,0,80.95,17.67,88.89,47.88,7.17,26.79-27.92,43.6-44.06,19.95l-28.44-41.61c-8.45-12.25-25.1-18.24-40.48-10.83-17.93,8.55-16.91,30.21-7.43,43.32l7.43,10.54c9.73,13.68,8.71,28.79-6.92,40.47Z"/>
      <path class="cls-1" d="M817.66,226.67l-15.37,158.46c-2.05,20.52-8.45,39.04-35.87,39.04-17.16,0-26.39-14.82-26.39-29.36,0-9.12,2.05-19.67,14.09-32.21l23.82-25.08c5.64-5.7,7.69-12.25,7.69-16.81,0-7.98-9.22-8.55-17.93-6.27l-97.35,21.38c-11.27,2.56-13.32,5.7-13.32,9.97,0,6.84,6.92,11.97,13.32,19.67,8.2,9.97,12.55,20.23,12.55,29.35,0,16.53-14.86,29.36-30.23,29.36s-28.44-9.98-25.87-37.05l13.58-140.5c2.05-20.52,9.22-47.6,36.63-47.6,17.42,0,27.41,10.83,27.41,26.22,0,12.83-6.4,23.65-15.37,29.35l-29.2,18.53c-7.69,4.85-8.97,9.12-8.97,14.54,0,7.7,6.15,11.68,14.86,11.68h108.88c10.5,0,16.14-2.85,17.68-11.12,1.79-9.4-3.33-12.82-8.2-18.81l-11.02-13.96c-7.94-10.26-12.55-19.38-12.55-28.21,0-15.68,9.48-28.22,30.23-28.22,14.6,0,28.44,10.55,26.9,27.65Z"/>
      <path class="cls-1" d="M1011.08,394.82c0,17.96-15.63,29.64-61.48,29.64-65.58,0-121.43-29.36-121.43-81.23,0-25.93,21.78-39.62,46.88-28.21l51.24,23.37c11.78,5.42,16.91-5.13,6.66-13.11l-76.34-59c-11.53-9.12-17.93-19.38-17.93-29.92,0-28.5,30.74-37.05,64.81-37.05,34.33-.29,72.75,6.27,87.61,13.97,13.58,7.12,20.75,16.25,19.98,32.49-.77,17.1-12.3,23.94-34.33,15.39l-104.78-40.75c-12.55-4.85-19.47,6.84-19.47,13.11,0,7.12,2.05,12.83,14.09,17.1l99.91,35.34c22.54,7.98,26.13,21.38,26.13,31.92,0,13.68-6.66,26.79-26.13,29.36l-91.71,12.54c-15.63,2.28-21.52,7.98-21.52,16.25s6.66,15.67,21.52,14.25l112.72-11.12c19.21-2,23.57,6.55,23.57,15.67Z"/>
      <path class="cls-1" d="M1018.25,354.64c0-15.68,5.63-33.92,21.01-33.92,12.3,0,19.98,11.68,19.98,23.65v48.45c0,13.68,7.69,20.81,23.06,12.54l89.66-48.17c10.76-5.7,19.98-10.26,17.42-20.8-2.56-10.54-10.5-11.97-19.21-7.41l-54.31,27.93c-24.34,12.54-40.99-5.7-41.5-26.22l-.26-10.83c-.26-10.54-4.36-11.97-14.6-14.54l-16.14-4.28c-10.5-2.85-17.42-14.25-17.42-25.93,0-49.59,45.6-76.67,90.69-76.67s88.12,21.09,88.12,72.39c0,20.24-6.92,34.2-22.03,34.2-9.99,0-25.11-10.83-11.27-33.92l11.27-18.81c3.07-5.13,2.31-10.26-.26-12.26-4.1-3.13-9.48-2.85-17.93-.85l-110.41,26.5c-11.02,2.57-13.58,7.98-12.81,13.97.77,6.27,4.1,8.83,12.3,10.54l130.4,26.22c14.6,2.85,21.78,14.25,21.78,27.93,0,39.62-46.37,79.52-105.03,79.52s-82.49-36.2-82.49-69.25Z"/>
    </g>
  </g>
</svg>