<?xml version="1.0" encoding="UTF-8"?>
<svg id="Layer_2" data-name="Layer 2" xmlns="http://www.w3.org/2000/svg" viewBox="0 0 1262.17 443.26">
  <defs>
    <style>
      .cls-1 {
        stroke: #fff;
        stroke-width: .49px;
      }
    </style>
  </defs>
  <g id="Home_Page_Text_copy_2" data-name="Home Page Text copy 2">
    <g id="Roboto_Terrible" data-name="Roboto Terrible">
      <path class="cls-1" d="M215.08,187.81c0-8.69-3.31-15.73-32.71-9.8-6.62-5.38-18.49-10.35-112.61-27.74-20.29-4.97-36.02-11.59-48.02-46.78-11.18-9.8-16.84-22.22,4-51.75,0-15.87,5.93-28.98,41.4-29.67,12.01-10.49,27.74-15.73,51.75,9.25,76.31,0,93.15,6.07,87.08,35.47,12.56,12.01,18.63,26.08-6.35,35.74l-8.42-23.18-9.94-19.87c0-11.45-4-20.84,13.25-25.39-8-7.45-18.22-11.18-74.52,11.45-12.56,0-22.08,3.04-41.54,30.91-6.35,6.07-9.52,14.08-34.91,24.84,0,8.83,3.59,16.15-3.59.97,7.18,5.8,18.91,10.9,100.33-8.14,20.7,5.38,36.43,12.01,72.17,16.97,10.76,9.38,16.15,21.39,33.26,54.92,0,16.42-6.49,29.95-25.81,65.14-12.83,10.63-29.39,16.01-73.83,23.87-74.66,0-91.77-5.38-126.27-32.29-14.9-10.9-22.08-25.39-18.77-68.86l23.05-12.01,47.75,13.11c0,12.56,4.83,22.36,15.04,54.65,9.52,6.9,20.29,10.35,66.52,24.7,12.7,0,22.91-3.31,7.18-19.73,7.59-6.62,11.32-15.04,7.04-50.09l47.47,23.32Z"/>
      <path class="cls-1" d="M238.67,199.54l-35.05,32.98-21.11-24.56L279.25.27l98.12,16.15,67.76,225.36-50.65,11.04-39.33-65.14-116.47,11.87ZM343.97,150.55l-16.01-107.09,24.56-.69-70.93,106.54,62.38,1.24Z"/>
      <path class="cls-1" d="M575.12,211L445.95,47.19l20.98,13.39.69,177.75-48.16,14.35-23.46-210.04,22.91-24.98,170.71,135.24,25.39,6.35,7.87-128.06,10.9,19.6-25.12,197.07-33.53-36.85Z"/>
      <path class="cls-1" d="M629.48,46.36l47.2,22.77c98.95,3.04,113.57,9.11,124.34,21.39,26.91-7.31,32.29,8.28,32.29,27.19l-7.87,2.76c-24.56,12.56-29.95,28.29-40.71,40.57-29.53,29.39-44.16,35.47-117.99,35.47l-31.74,24.98-5.52-175.12ZM653.63,216.52l43.61-16.15c57.13,7.59,78.25-.41,94.25-16.42,9.25,8.42,17.25-12.42,17.25-38.09l17.11-7.87c24.98-29.67,16.97-50.51.97-66.65-5.93-39.47-27.05-47.61-108.47-47.61l-77.42-21.11,12.7,213.9Z"/>
      <path class="cls-1" d="M989.52,49.81l16.7-20.84-60.72,105.98,25.12,66.24-65.14,18.77-6.35-48.16-93.56-119.51,11.32-16.15,55.34,76.04,117.3-62.38Z"/>
      <path class="cls-1" d="M183.48,405.76l18.77-105.98-128.2,6.62,7.87,112.88-43.47,19.6L13.32,235.74l16.01-22.77,13.25,69.14,178.16-.69,14.21-69.69,17.11,23.32-24.98,204.24-43.61-33.53Z"/>
      <path class="cls-1" d="M457.54,369.46c0,22.08-7.18,39.33-46.92,52.58-14.35,12.42-32.84,18.63-125.03-2.21-21.8,0-39.61-6.21-43.75-42.23-13.94-12.42-20.84-29.67,4.28-56.03l17.11-113.85,20.84,24.56-24.15,140.48c0,15.32,4.42,27.32-6.49,20.01,8.83,8.69,20.15,13.11,36.98-12.14,69.97,0,81.97-4.28,113.99-24.15,9.25-8.69,13.8-20.7,35.6-23.05l.69-107.23,6.21,14.35,10.63,128.89Z"/>
      <path class="cls-1" d="M621.89,389.61c-4.83,7.45-13.11,14.35-15.04-2.76-11.87,6.21-27.19,9.38-20.98,4.97-78.38,0-97.57-7.73-95.63-4.28-15.18-15.32-22.77-35.19-29.12-34.91l-24.15-32.71c0-24.43,7.31-44.3,2.21-75.76,14.63-15.32,33.53-23.05,114.68-48.3,22.36,0,40.02,5.93,75.76,6.62,12.97,11.87,19.32,27.05,40.71,58.51l.41,26.22-47.06,14.35c0-12.28-4-22.49-35.33-40.57-7.87-8.14-19.04-12.14-37.95-37.12-70.52,0-82.94,5.8-73.55.14-9.38,11.45-14.08,26.08,10.49,50.37l7.87,65c0,17.8,4.97,32.57-1.38,63.76,9.94,11.59,22.63,17.39,68.17,14.35,11.87,0,21.25-1.52,17.11-27.46,6.9-3.04,12.01-6.62,28.57-32.57l25.39-45.95-31.33,21.11-10.07,2.07,47.75,4.14-17.11,54.65-.41-3.86Z"/>
      <path class="cls-1" d="M810.81,405.76l18.77-105.98-128.2,6.62,7.87,112.88-43.47,19.6-25.12-203.14,16.01-22.77,13.25,69.14,178.16-.69,14.21-69.69,17.11,23.32-24.98,204.24-43.61-33.53Z"/>
      <path class="cls-1" d="M923.28,326.13l-16.28,91.49,126.68-3.04-11.18-1.52-165.74-21.67,25.39-200.79,191.68,21.11-10.07,44.71-175.26,4.14-17.11,46.23,144.35-24.56,24.29,12.97-116.75,30.91Z"/>
      <path class="cls-1" d="M1231.29,375.81c0-8.69-3.31-15.73-32.71-9.8-6.62-5.38-18.49-10.35-112.61-27.74-20.29-4.97-36.02-11.59-48.02-46.78-11.18-9.8-16.84-22.22,4-51.75,0-15.87,5.93-28.98,41.4-29.67,12.01-10.49,27.74-15.73,51.75,9.25,76.31,0,93.15,6.07,87.08,35.47,12.56,12.01,18.63,26.08-6.35,35.74l-8.42-23.18-9.94-19.87c0-11.45-4-20.84,13.25-25.39-8-7.45-18.22-11.18-74.52,11.45-12.56,0-22.08,3.04-41.54,30.91-6.35,6.07-9.52,14.08-34.91,24.84,0,8.83,3.59,16.15-3.59.97,7.18,5.8,18.91,10.9,100.33-8.14,20.7,5.38,36.43,12.01,72.17,16.97,10.76,9.38,16.15,21.39,33.26,54.92,0,16.42-6.49,29.95-25.81,65.14-12.83,10.63-29.39,16.01-73.83,23.87-74.66,0-91.77-5.38-126.27-32.29-14.9-10.9-22.08-25.39-18.77-68.86l23.05-12.01,47.75,13.11c0,12.56,4.83,22.36,15.04,54.65,9.52,6.9,20.29,10.35,66.52,24.7,12.7,0,22.91-3.31,7.18-19.73,7.59-6.62,11.32-15.04,7.04-50.09l47.47,23.32Z"/>
    </g>
  </g>
</svg>