<?xml version="1.0" encoding="UTF-8"?>
<svg id="Layer_2" data-name="Layer 2" xmlns="http://www.w3.org/2000/svg" viewBox="0 0 1269.96 425.09">
  <defs>
    <style>
      .cls-1 {
        stroke: #fff;
        stroke-width: 1.06px;
      }
    </style>
  </defs>
  <g id="Home_Page_Text_copy_2" data-name="Home Page Text copy 2">
    <g id="Times_New_Roman" data-name="Times New Roman">
      <path class="cls-1" d="M143.68.53l1.71,70.4h-6.39c-3.01-17.65-10.41-31.85-22.2-42.6-11.79-10.75-24.53-16.12-38.24-16.12-10.59,0-18.98,2.83-25.16,8.49-6.18,5.66-9.27,12.18-9.27,19.55,0,4.67,1.09,8.83,3.27,12.46,3.01,4.88,7.84,9.71,14.49,14.49,4.88,3.43,16.15,9.5,33.8,18.22,24.71,12.15,41.38,23.62,50,34.42,8.51,10.8,12.77,23.16,12.77,37.07,0,17.66-6.88,32.84-20.64,45.56-13.76,12.72-31.23,19.08-52.41,19.08-6.65,0-12.93-.68-18.85-2.03-5.92-1.35-13.34-3.89-22.27-7.63-4.98-2.08-9.09-3.12-12.3-3.12-2.7,0-5.56,1.04-8.57,3.12-3.01,2.08-5.45,5.24-7.32,9.5h-5.76v-79.75h5.76c4.57,22.43,13.37,39.54,26.4,51.32,13.03,11.79,27.08,17.68,42.13,17.68,11.63,0,20.9-3.17,27.8-9.5,6.9-6.33,10.36-13.71,10.36-22.12,0-4.98-1.32-9.81-3.97-14.49-2.65-4.67-6.67-9.11-12.07-13.32-5.4-4.21-14.95-9.68-28.66-16.43-19.21-9.45-33.02-17.5-41.43-24.14-8.41-6.64-14.88-14.07-19.39-22.27-4.52-8.2-6.78-17.24-6.78-27.1,0-16.82,6.18-31.15,18.54-42.99C41.39,6.45,56.97.53,75.76.53c6.85,0,13.5.83,19.94,2.49,4.88,1.25,10.83,3.56,17.83,6.93,7.01,3.38,11.92,5.06,14.72,5.06s4.83-.83,6.39-2.49c1.56-1.66,3.01-5.66,4.36-11.99h4.67Z"/>
      <path class="cls-1" d="M281.62,156.45h-74.61l-8.88,20.56c-2.91,6.85-4.36,12.51-4.36,16.98,0,5.92,2.39,10.28,7.16,13.08,2.8,1.66,9.71,2.91,20.72,3.74v5.76h-70.25v-5.76c7.58-1.14,13.81-4.28,18.69-9.42,4.88-5.14,10.9-15.76,18.07-31.85L263.71,1h2.96l76.17,173.21c7.27,16.41,13.24,26.74,17.91,31,3.53,3.22,8.51,5.09,14.95,5.61v5.76h-102.18v-5.76h4.21c8.2,0,13.96-1.14,17.29-3.43,2.28-1.66,3.43-4.05,3.43-7.17,0-1.87-.31-3.79-.93-5.76-.21-.93-1.77-4.83-4.67-11.68l-11.21-26.32ZM276.33,144.92l-31.46-72.74-32.4,72.74h63.86Z"/>
      <path class="cls-1" d="M452.34,5.36l104.2,131V45.55c0-12.67-1.82-21.24-5.45-25.7-4.98-6.02-13.34-8.93-25.08-8.72v-5.76h69.78v5.76c-8.93,1.14-14.93,2.62-17.99,4.44-3.06,1.82-5.45,4.78-7.17,8.88-1.71,4.1-2.57,11.14-2.57,21.11v175.85h-5.3L419.94,45.55v134.27c0,12.15,2.78,20.35,8.33,24.61,5.55,4.26,11.92,6.39,19.08,6.39h4.98v5.76h-74.92v-5.76c11.63-.1,19.73-2.49,24.3-7.17,4.57-4.67,6.85-12.62,6.85-23.83V30.75l-4.52-5.61c-4.47-5.61-8.41-9.29-11.84-11.06-3.43-1.76-8.36-2.75-14.8-2.96v-5.76h74.92Z"/>
      <path class="cls-1" d="M601.1,216.57v-5.76h7.01c6.13,0,10.83-.96,14.1-2.88,3.27-1.92,5.69-4.54,7.24-7.87.93-2.18,1.4-8.72,1.4-19.63V41.5c0-10.8-.57-17.55-1.71-20.25-1.14-2.7-3.45-5.06-6.93-7.09-3.48-2.03-8.18-3.04-14.1-3.04h-7.01v-5.76h94.55c25.23,0,45.53,3.43,60.9,10.28,18.79,8.41,33.05,21.13,42.76,38.16,9.71,17.03,14.56,36.29,14.56,57.79,0,14.85-2.39,28.53-7.17,41.04-4.78,12.51-10.96,22.85-18.54,31-7.58,8.15-16.33,14.69-26.25,19.63-9.92,4.93-22.04,8.75-36.37,11.45-6.33,1.25-16.3,1.87-29.91,1.87h-94.55ZM681.63,17.35v164.8c0,8.72.41,14.07,1.25,16.04.83,1.97,2.23,3.48,4.21,4.52,2.8,1.56,6.85,2.34,12.15,2.34,17.34,0,30.58-5.92,39.72-17.76,12.46-15.99,18.69-40.81,18.69-74.45,0-27.1-4.26-48.75-12.77-64.95-6.75-12.67-15.42-21.29-26.01-25.86-7.48-3.22-19.89-4.77-37.23-4.67Z"/>
      <path class="cls-1" d="M1009.39,5.36v5.76c-6.96.93-12.3,2.96-16.04,6.08-5.19,4.36-13.4,16.25-24.61,35.67l-45.79,76.48v51.09c0,10.9.57,17.68,1.71,20.33,1.14,2.65,3.4,4.98,6.78,7.01,3.37,2.03,7.87,3.04,13.47,3.04h11.84v5.76h-118.53v-5.76h11.06c6.23,0,11.16-1.09,14.8-3.27,2.7-1.45,4.83-3.95,6.39-7.48,1.14-2.49,1.71-9.03,1.71-19.63v-42.37l-49.69-90.5c-9.87-17.86-16.82-28.37-20.87-31.54-4.05-3.17-9.45-4.8-16.2-4.91v-5.76h101.24v5.76h-4.52c-6.13,0-10.41.88-12.85,2.65-2.44,1.77-3.66,3.64-3.66,5.61,0,3.74,4.15,13.14,12.46,28.19l38.16,69.94,38.01-63.71c9.45-15.58,14.17-25.91,14.17-31,0-2.8-1.35-5.14-4.05-7.01-3.53-2.59-10.02-4.15-19.47-4.67v-5.76h64.48Z"/>
      <path class="cls-1" d="M81.06,318.02v65.42c0,10.8.6,17.55,1.79,20.25,1.19,2.7,3.53,5.06,7.01,7.09,3.48,2.03,8.18,3.04,14.1,3.04h7.01v5.76H.53v-5.76h7.01c6.13,0,11.06-1.09,14.8-3.27,2.7-1.45,4.78-3.95,6.23-7.48,1.14-2.49,1.71-9.03,1.71-19.63v-138.94c0-10.8-.57-17.55-1.71-20.25-1.14-2.7-3.45-5.06-6.93-7.09-3.48-2.03-8.18-3.04-14.1-3.04H.53v-5.76h110.43v5.76h-7.01c-6.13,0-11.06,1.09-14.8,3.27-2.7,1.46-4.83,3.95-6.39,7.48-1.14,2.49-1.71,9.03-1.71,19.63v59.81h74.61v-59.81c0-10.8-.57-17.55-1.71-20.25-1.14-2.7-3.48-5.06-7.01-7.09-3.53-2.03-8.25-3.04-14.17-3.04h-6.85v-5.76h110.28v5.76h-6.85c-6.23,0-11.16,1.09-14.8,3.27-2.7,1.46-4.83,3.95-6.39,7.48-1.14,2.49-1.71,9.03-1.71,19.63v138.94c0,10.8.57,17.55,1.71,20.25,1.14,2.7,3.48,5.06,7.01,7.09,3.53,2.03,8.26,3.04,14.17,3.04h6.85v5.76h-110.28v-5.76h6.85c6.23,0,11.16-1.09,14.8-3.27,2.7-1.45,4.83-3.95,6.39-7.48,1.14-2.49,1.71-9.03,1.71-19.63v-65.42h-74.61Z"/>
      <path class="cls-1" d="M243.06,208.36h109.03v5.76h-5.45c-8.2,0-13.84.86-16.9,2.57-3.06,1.71-5.25,4.08-6.54,7.09-1.3,3.01-1.95,10.54-1.95,22.59v103.43c0,18.9,1.43,31.41,4.28,37.54,2.86,6.13,7.55,11.21,14.1,15.26s14.8,6.08,24.77,6.08c11.42,0,21.16-2.57,29.21-7.71,8.05-5.14,14.07-12.23,18.07-21.26,4-9.03,6-24.77,6-47.2v-86.14c0-9.45-.99-16.2-2.96-20.25-1.97-4.05-4.47-6.85-7.48-8.41-4.67-2.39-11.27-3.58-19.78-3.58v-5.76h73.05v5.76h-4.36c-5.92,0-10.85,1.2-14.8,3.58-3.95,2.39-6.8,5.97-8.57,10.75-1.35,3.33-2.02,9.29-2.02,17.91v80.22c0,24.82-1.64,42.73-4.91,53.74-3.27,11.01-11.24,21.13-23.91,30.37-12.67,9.24-29.96,13.86-51.87,13.86-18.28,0-32.4-2.44-42.37-7.32-13.6-6.64-23.21-15.16-28.82-25.54-5.61-10.38-8.41-24.35-8.41-41.9v-103.43c0-12.15-.68-19.7-2.03-22.66-1.35-2.96-3.69-5.32-7.01-7.09-3.33-1.76-9.45-2.59-18.38-2.49v-5.76Z"/>
      <path class="cls-1" d="M654.14,203.53v74.45h-5.76c-6.96-20.35-17.39-35.83-31.31-46.42-13.92-10.59-29.13-15.89-45.64-15.89s-28.92,4.44-39.41,13.32c-10.49,8.88-17.91,21.26-22.27,37.15s-6.54,32.19-6.54,48.91c0,20.25,2.39,38.01,7.17,53.27,4.78,15.26,12.49,26.48,23.13,33.64,10.64,7.17,23.29,10.75,37.93,10.75,5.09,0,10.3-.54,15.65-1.64,5.35-1.09,10.83-2.67,16.43-4.75v-43.92c0-8.31-.57-13.68-1.71-16.12-1.14-2.44-3.5-4.65-7.09-6.62-3.58-1.97-7.92-2.96-13.01-2.96h-5.45v-5.76h102.65v5.76c-7.79.52-13.22,1.58-16.28,3.19-3.06,1.61-5.43,4.28-7.09,8.02-.93,1.97-1.4,6.8-1.4,14.49v43.92c-13.5,6.02-27.54,10.57-42.13,13.63-14.59,3.06-29.73,4.59-45.4,4.59-20.04,0-36.68-2.73-49.92-8.18-13.24-5.45-24.92-12.62-35.05-21.5-10.12-8.88-18.04-18.87-23.75-29.98-7.27-14.33-10.9-30.37-10.9-48.13,0-31.78,11.16-58.62,33.49-80.53,22.32-21.91,50.41-32.87,84.27-32.87,10.49,0,19.94.83,28.35,2.49,4.57.83,11.97,3.19,22.2,7.09,10.23,3.89,16.28,5.84,18.15,5.84,2.91,0,5.61-1.06,8.1-3.19,2.49-2.13,4.77-6.15,6.85-12.07h5.76Z"/>
      <path class="cls-1" d="M756.64,318.02v65.42c0,10.8.6,17.55,1.79,20.25,1.19,2.7,3.53,5.06,7.01,7.09,3.48,2.03,8.18,3.04,14.1,3.04h7.01v5.76h-110.43v-5.76h7.01c6.13,0,11.06-1.09,14.8-3.27,2.7-1.45,4.78-3.95,6.23-7.48,1.14-2.49,1.71-9.03,1.71-19.63v-138.94c0-10.8-.57-17.55-1.71-20.25-1.14-2.7-3.45-5.06-6.93-7.09-3.48-2.03-8.18-3.04-14.1-3.04h-7.01v-5.76h110.43v5.76h-7.01c-6.13,0-11.06,1.09-14.8,3.27-2.7,1.46-4.83,3.95-6.39,7.48-1.14,2.49-1.71,9.03-1.71,19.63v59.81h74.61v-59.81c0-10.8-.57-17.55-1.71-20.25-1.14-2.7-3.48-5.06-7.01-7.09-3.53-2.03-8.26-3.04-14.17-3.04h-6.85v-5.76h110.28v5.76h-6.85c-6.23,0-11.16,1.09-14.8,3.27-2.7,1.46-4.83,3.95-6.39,7.48-1.14,2.49-1.71,9.03-1.71,19.63v138.94c0,10.8.57,17.55,1.71,20.25,1.14,2.7,3.48,5.06,7.01,7.09,3.53,2.03,8.26,3.04,14.17,3.04h6.85v5.76h-110.28v-5.76h6.85c6.23,0,11.16-1.09,14.8-3.27,2.7-1.45,4.83-3.95,6.39-7.48,1.14-2.49,1.71-9.03,1.71-19.63v-65.42h-74.61Z"/>
      <path class="cls-1" d="M998.08,220.51v85.98h4.21c13.4,0,23.1-4.21,29.13-12.62,6.02-8.41,9.86-20.82,11.53-37.23h5.92v110.59h-5.92c-1.25-12.04-3.87-21.91-7.87-29.59-4-7.68-8.64-12.85-13.94-15.5s-12.98-3.97-23.05-3.97v59.5c0,11.63.49,18.75,1.48,21.34.99,2.6,2.83,4.73,5.53,6.39,2.7,1.66,7.06,2.49,13.08,2.49h12.62c19.73,0,35.54-4.57,47.43-13.71,11.89-9.14,20.43-23.05,25.62-41.74h5.76l-9.5,67.13h-182.55v-5.76h7.01c6.13,0,11.06-1.09,14.8-3.27,2.7-1.45,4.78-3.95,6.23-7.48,1.14-2.49,1.71-9.03,1.71-19.63v-138.94c0-9.55-.26-15.42-.78-17.6-1.04-3.63-2.96-6.44-5.76-8.41-3.95-2.91-9.35-4.36-16.2-4.36h-7.01v-5.76h176.79v62.46h-5.92c-3.01-15.26-7.24-26.22-12.69-32.87-5.45-6.64-13.16-11.53-23.13-14.64-5.82-1.87-16.72-2.8-32.71-2.8h-21.81Z"/>
      <path class="cls-1" d="M1254.63,203.53l1.71,70.4h-6.39c-3.01-17.65-10.41-31.85-22.2-42.6-11.79-10.75-24.53-16.12-38.24-16.12-10.59,0-18.98,2.83-25.15,8.49-6.18,5.66-9.27,12.18-9.27,19.55,0,4.67,1.09,8.83,3.27,12.46,3.01,4.88,7.84,9.71,14.49,14.49,4.88,3.43,16.15,9.5,33.8,18.22,24.71,12.15,41.38,23.62,50,34.42,8.51,10.8,12.77,23.16,12.77,37.07,0,17.66-6.88,32.84-20.64,45.56-13.76,12.72-31.23,19.08-52.41,19.08-6.65,0-12.93-.68-18.85-2.03-5.92-1.35-13.35-3.89-22.27-7.63-4.98-2.08-9.09-3.12-12.31-3.12-2.7,0-5.56,1.04-8.57,3.12-3.01,2.08-5.45,5.24-7.32,9.5h-5.76v-79.75h5.76c4.57,22.43,13.37,39.54,26.4,51.32,13.03,11.79,27.08,17.68,42.13,17.68,11.63,0,20.9-3.17,27.8-9.5,6.9-6.33,10.36-13.71,10.36-22.12,0-4.98-1.32-9.81-3.97-14.49s-6.67-9.11-12.07-13.32c-5.4-4.21-14.95-9.68-28.66-16.43-19.21-9.45-33.02-17.5-41.43-24.14-8.41-6.64-14.88-14.07-19.39-22.27-4.52-8.2-6.78-17.24-6.78-27.1,0-16.82,6.18-31.15,18.54-42.99,12.36-11.84,27.93-17.76,46.73-17.76,6.85,0,13.5.83,19.94,2.49,4.88,1.25,10.82,3.56,17.83,6.93,7.01,3.38,11.92,5.06,14.72,5.06s4.83-.83,6.39-2.49c1.56-1.66,3.01-5.66,4.36-11.99h4.67Z"/>
    </g>
  </g>
</svg>