<?xml version="1.0" encoding="UTF-8"?>
<svg id="Layer_2" data-name="Layer 2" xmlns="http://www.w3.org/2000/svg" viewBox="0 0 1285.73 433.54">
  <defs>
    <style>
      .cls-1 {
        stroke: #fff;
        stroke-width: 1.07px;
      }
    </style>
  </defs>
  <g id="Home_Page_Text_copy_2" data-name="Home Page Text copy 2">
    <g id="Zapf_Dingbats" data-name="Zapf Dingbats">
      <path class="cls-1" d="M222.84,123.27l-100.69-2.81,73.22,69-10.3,10.3-69-73.22,2.81,100.69h-14.36l2.81-100.69-69,73.22-10.3-10.3,73.22-69L.53,123.27v-14.36l100.69,3.28L28.01,43.03l10.3-10.15,69,73.22-2.81-100.69h14.36l-2.81,100.69,69-73.22,10.3,10.15-73.22,69.16,100.69-2.81v13.89Z"/>
      <path class="cls-1" d="M397.75,174.16h-66.19l-33.25,57.92-33.25-57.92h-66.19l32.94-57.29-32.94-57.45h66.19L298.31,1.81l33.25,57.61h66.19l-32.63,57.45,32.63,57.29ZM258.34,162.92l-20.14-34.5-19.83,34.5h39.96ZM258.34,70.97h-39.65l19.83,34.19,19.83-34.19ZM352.32,116.87l-27.16-45.58h-53.39l-27.16,45.58,27.16,45.74h53.39l27.16-45.74ZM318.44,59.42l-20.14-35.12-20.14,35.12h40.28ZM318.76,174.16h-39.96l19.51,34.81,20.45-34.81ZM377.92,70.97h-39.65l20.14,34.19,19.51-34.19ZM377.92,162.92l-19.51-34.81-19.83,34.81h39.34Z"/>
      <path class="cls-1" d="M616.06,86.27l-67.44,59.17,21.39,85.71-74.46-47.77-74.62,47.77,21.54-85.71-67.6-59.17,88.36-5.15L495.54,2.13l32.16,78.99,88.36,5.15ZM585.62,96.73l-66.19-3.75-23.88-58.85-24.04,58.85-66.19,3.75,50.58,44.49-15.77,63.07,55.42-35.28,55.26,35.28-15.61-63.07,50.42-44.49ZM555.33,107.04l-34.03,29.66,10.3,41.06-36.06-23.1-36.22,23.1,10.3-41.06-33.88-29.66,44.02-2.5,15.77-38.09,15.61,38.09,44.18,2.5Z"/>
      <path class="cls-1" d="M712.91,111.87c10.82-.62,21.59-6.5,32.32-17.64l.62-.62c7.28-7.39,13.37-12.28,18.26-14.67,4.89-2.39,10.3-3.59,16.24-3.59,11.76,0,21.67,3.98,29.74,11.94,8.06,7.96,12.1,17.72,12.1,29.27s-4.03,21.47-12.1,29.43c-8.07,7.96-17.98,11.94-29.74,11.94-5.93,0-11.37-1.25-16.31-3.75-4.94-2.5-11.01-7.34-18.19-14.52-.1,0-.16-.05-.16-.16-11.03-11.45-22.07-17.38-33.1-17.8.73,10.72,6.45,21.39,17.17,32,.41.42.73.73.94.94,7.18,7.18,12.02,13.27,14.52,18.27s3.75,10.41,3.75,16.24c0,11.76-3.98,21.7-11.94,29.82-7.96,8.12-17.72,12.18-29.27,12.18s-21.44-4.03-29.35-12.1c-7.91-8.06-11.86-18.03-11.86-29.9,0-5.83,1.19-11.19,3.59-16.08,2.39-4.89,7.23-11.03,14.52-18.42.31-.31.78-.78,1.4-1.41,10.62-10.51,16.13-21.13,16.55-31.85-10.62.83-21.28,6.61-32,17.33l-.94.94c-7.29,7.29-13.37,12.15-18.27,14.6-4.89,2.45-10.3,3.67-16.24,3.67-11.97,0-21.93-3.95-29.9-11.86-7.96-7.91-11.94-17.74-11.94-29.51s4.03-21.31,12.1-29.27c8.06-7.96,17.98-11.94,29.74-11.94,5.93,0,11.34,1.2,16.24,3.59,4.89,2.4,10.98,7.29,18.27,14.67.31.31.78.78,1.4,1.4,10.51,10.62,21.13,16.13,31.85,16.55-.62-10.51-6.19-21.02-16.7-31.54-.62-.62-1.15-1.09-1.56-1.41-7.29-7.39-12.13-13.53-14.52-18.42-2.4-4.89-3.59-10.3-3.59-16.24,0-11.76,3.95-21.67,11.86-29.74,7.91-8.06,17.69-12.1,29.35-12.1s21.31,4.03,29.27,12.1c7.96,8.07,11.94,17.98,11.94,29.74,0,5.93-1.25,11.4-3.75,16.39-2.5,5-7.34,11.08-14.52,18.26l-.94.94c-10.83,10.83-16.45,21.6-16.86,32.32Z"/>
      <path class="cls-1" d="M1031.29,116.56l-57.76,15.14,42.46,42.15-57.6-15.61,15.77,57.45-42.31-42.46-14.99,57.92-14.99-57.92-42.31,42.46,15.77-57.45-57.6,15.61,42.62-42.15-57.92-15.14,57.92-14.99-42.62-42.15,57.6,15.61-15.77-57.45,42.31,42.46,14.99-57.92,14.99,57.92,42.31-42.46-15.77,57.45,57.6-15.61-42.46,42.15,57.76,14.99Z"/>
      <path class="cls-1" d="M242.66,290.39l-74.31,54.01,28.57,87.74-74.46-54.17-74.62,54.17,28.57-87.74L2.25,290.39h91.64l28.57-87.27,28.41,87.27h91.79Z"/>
      <path class="cls-1" d="M450.67,320.52l-70.56,15.3,39.34,60.73-4.21,4.21-60.73-39.34-15.3,70.72h-5.78l-15.46-70.72-60.73,39.34-4.06-4.21,39.34-60.73-70.72-15.3v-5.78l70.72-15.3-39.34-60.73,4.06-4.21,60.73,39.34,15.46-70.72h5.78l15.3,70.72,60.73-39.34,4.21,4.21-39.34,60.73,70.56,15.3v5.78ZM331.09,317.56h-97.73l65.88,14.21,31.85-14.21ZM332.81,314.12l-69.47-69.47,36.53,56.67,32.94,12.8ZM332.81,321.15l-69.47,69.31,56.67-36.38,12.8-32.94ZM336.24,312.56v-97.88l-14.05,65.88,14.05,32ZM350.29,354.71l-14.05-32v97.88l14.05-65.88ZM409.14,244.65l-56.51,36.53-12.8,32.94,69.31-69.47ZM409.14,390.46l-36.37-56.51-32.94-12.8,69.31,69.31ZM439.27,317.56l-65.88-14.05-32,14.05h97.88Z"/>
      <path class="cls-1" d="M659.77,320.84c-18.84,7.81-33.85,14.83-45.04,21.08-11.19,6.25-19.9,12.44-26.15,18.58-6.14,6.14-12.33,14.78-18.58,25.91-6.24,11.14-13.37,26.38-21.39,45.74h-6.4c-8.12-19.36-15.3-34.6-21.54-45.74-6.24-11.13-12.39-19.77-18.42-25.91-6.24-6.14-14.96-12.33-26.15-18.58-11.19-6.24-26.25-13.27-45.19-21.08v-6.4c19.04-7.81,34.16-14.83,45.35-21.08,11.19-6.25,19.85-12.44,25.99-18.58,6.03-6.14,12.18-14.78,18.42-25.92,6.24-11.14,13.43-26.38,21.54-45.74h6.4c8.01,19.36,15.14,34.61,21.39,45.74,6.24,11.14,12.44,19.78,18.58,25.92,6.03,6.14,14.65,12.33,25.84,18.58,11.19,6.24,26.3,13.27,45.35,21.08v6.4ZM649.93,318.18v-1.25c-14.57-1.46-28.49-4.06-41.76-7.81-13.27-3.75-26.3-8.79-39.11-15.14-6.35-12.8-11.42-25.86-15.22-39.18-3.8-13.32-6.43-27.21-7.88-41.68h-1.25c-1.46,14.47-4.09,28.36-7.88,41.68-3.8,13.32-8.82,26.38-15.06,39.18-13.32,6.35-26.62,11.42-39.89,15.22-13.27,3.8-26.98,6.38-41.13,7.73v1.25c14.15,1.46,27.87,4.08,41.13,7.88,13.27,3.8,26.56,8.88,39.89,15.22,6.35,13.22,11.4,26.49,15.14,39.81,3.75,13.32,6.35,27.01,7.81,41.06h1.25c1.46-14.05,4.06-27.73,7.81-41.06,3.75-13.32,8.84-26.59,15.3-39.81,12.8-6.35,25.84-11.42,39.11-15.22,13.27-3.8,27.19-6.42,41.76-7.88Z"/>
      <path class="cls-1" d="M879.17,290.39l-74.31,54.01,28.57,87.74-74.47-54.17-74.62,54.17,28.57-87.74-74.15-54.01h91.64l28.57-87.27,28.41,87.27h91.79Z"/>
      <path class="cls-1" d="M1056.58,298.82c1.46-.73,2.91-1.25,4.37-1.56,1.46-.31,2.96-.47,4.53-.47,5.72,0,10.62,2.03,14.67,6.09,4.06,4.06,6.09,8.95,6.09,14.67s-2,10.9-6.01,14.91c-4.01,4.01-8.93,6.01-14.75,6.01-1.56,0-3.07-.18-4.53-.55-1.46-.36-2.92-.86-4.37-1.48v.62c0,5.72-2.01,10.56-6.01,14.52-4.01,3.96-8.92,5.93-14.75,5.93s-10.77-2-14.83-6.01c-4.06-4.01-6.09-8.92-6.09-14.75,0-2.5.47-4.89,1.41-7.18.94-2.29,2.39-4.68,4.37-7.18h-44.02v44.18c2.5-1.98,4.89-3.43,7.18-4.37,2.29-.94,4.68-1.41,7.18-1.41,5.72,0,10.62,2.03,14.67,6.09s6.09,8.95,6.09,14.67-1.98,10.75-5.93,14.75c-3.96,4.01-8.8,6.01-14.52,6.01h-.62c.62,1.67,1.09,3.23,1.41,4.68.31,1.46.47,2.86.47,4.21,0,5.83-2.01,10.77-6.01,14.83-4.01,4.06-8.92,6.09-14.75,6.09s-10.75-2.03-14.75-6.09c-4.01-4.06-6.01-9-6.01-14.83,0-1.56.16-3.07.47-4.53.31-1.46.78-2.91,1.41-4.37h-.62c-5.72,0-10.56-2-14.52-6.01-3.96-4-5.93-8.92-5.93-14.75s2.03-10.62,6.09-14.67,8.95-6.09,14.67-6.09c2.39,0,4.79.47,7.18,1.41,2.39.94,4.79,2.4,7.18,4.37v-44.18h-44.02c1.98,2.5,3.41,4.89,4.29,7.18.88,2.29,1.33,4.68,1.33,7.18,0,5.83-1.98,10.75-5.93,14.75-3.96,4.01-8.9,6.01-14.83,6.01s-10.75-1.98-14.75-5.93c-4.01-3.95-6.01-8.79-6.01-14.52v-.62c-1.46.62-2.92,1.12-4.37,1.48-1.46.37-2.97.55-4.53.55-5.83,0-10.75-2-14.75-6.01-4.01-4.01-6.01-8.98-6.01-14.91s2.03-10.62,6.09-14.67c4.06-4.06,8.95-6.09,14.67-6.09,1.35,0,2.78.16,4.29.47,1.51.31,3.04.83,4.61,1.56v-.78c0-5.62,2-10.43,6.01-14.44,4-4.01,8.92-6.01,14.75-6.01s10.74,2.03,14.75,6.09c4.01,4.06,6.01,9,6.01,14.83,0,2.5-.47,4.94-1.41,7.34-.94,2.39-2.34,4.74-4.22,7.02h44.02v-44.18c-2.5,1.98-4.89,3.43-7.18,4.37-2.29.94-4.68,1.41-7.18,1.41-5.83,0-10.75-2-14.75-6.01-4.01-4-6.01-8.92-6.01-14.75s1.98-10.74,5.93-14.75c3.95-4.01,8.79-6.01,14.52-6.01h.62c-.62-1.46-1.09-2.94-1.41-4.45-.31-1.51-.47-3.04-.47-4.61,0-5.83,2-10.75,6.01-14.75s8.92-6.01,14.75-6.01,10.75,2,14.75,6.01c4,4.01,6.01,8.93,6.01,14.75,0,1.56-.16,3.1-.47,4.61-.31,1.51-.78,2.99-1.41,4.45h.62c5.62,0,10.43,2,14.44,6.01,4,4.01,6.01,8.92,6.01,14.75s-2,10.75-6.01,14.75-8.93,6.01-14.75,6.01c-2.5,0-4.89-.47-7.18-1.41-2.29-.94-4.68-2.39-7.18-4.37v44.18h44.02c-1.87-2.29-3.3-4.63-4.29-7.02-.99-2.39-1.48-4.84-1.48-7.34,0-5.83,2.03-10.77,6.09-14.83,4.06-4.06,9-6.09,14.83-6.09s10.75,2,14.75,6.01c4,4.01,6.01,8.82,6.01,14.44v.78Z"/>
      <path class="cls-1" d="M1285.19,324.27l-100.69-2.81,73.22,69-10.3,10.3-69-73.22,2.81,100.69h-14.36l2.81-100.69-69,73.22-10.3-10.3,73.22-69-100.69,2.81v-14.36l100.69,3.28-73.22-69.16,10.3-10.15,69,73.22-2.81-100.69h14.36l-2.81,100.69,69-73.22,10.3,10.15-73.22,69.16,100.69-2.81v13.89Z"/>
    </g>
  </g>
</svg>