<?xml version="1.0" encoding="UTF-8"?>
<svg id="Layer_2" data-name="Layer 2" xmlns="http://www.w3.org/2000/svg" viewBox="0 0 1225.51 428.3">
  <defs>
    <style>
      .cls-1 {
        stroke: #fff;
        stroke-width: .87px;
      }
    </style>
  </defs>
  <g id="Home_Page_Text_copy_2" data-name="Home Page Text copy 2">
    <g id="_ヒラギノ角ゴ_StdN" data-name="ヒラギノ角ゴ StdN">
      <path class="cls-1" d="M54.58,151.49c1.04,9.36,2.86,14.04,6.76,19.24,6.24,7.8,17.16,12.22,30.42,12.22,20.02,0,31.98-8.84,31.98-23.4,0-8.06-4.16-15.08-10.92-18.2-5.46-2.6-11.96-4.42-39-10.66-23.92-5.2-32.24-8.32-41.86-15.08-16.38-11.44-25.22-28.86-25.22-49.92C6.74,25.65,38.98.43,90.2.43c33.02,0,58.24,10.14,72.28,29.64,6.5,8.58,9.62,16.38,13,31.2l-55.12,5.98c-3.12-16.9-12.48-23.92-32.24-23.92-15.86,0-27.56,8.58-27.56,20.54,0,7.28,3.9,12.74,12.22,16.64q5.2,2.34,35.88,8.58c19.76,4.16,32.24,8.58,42.12,14.82,18.72,11.7,28.08,29.12,28.08,53.04,0,19.5-6.24,36.14-18.2,47.84-15.08,14.56-37.96,22.1-68.38,22.1-22.1,0-43.94-4.68-57.98-12.74-13-7.28-22.62-18.46-28.08-33.28-2.6-6.24-3.9-12.22-5.72-24.18l54.08-5.2Z"/>
      <path class="cls-1" d="M346.03,221.95c-2.08-12.48-3.64-19.24-6.24-28.08l-7.02-22.1h-74.1l-7.02,22.1c-3.38,10.4-5.2,18.46-6.5,28.08h-60.84c3.9-7.8,6.24-14.04,12.48-31.72l56.16-156.52c4.68-12.74,7.02-20.54,8.32-28.08h67.86c1.82,7.54,3.64,14.3,8.84,28.08l56.42,156.52c4.94,13.78,9.1,24.44,12.48,31.72h-60.84ZM295.33,50.09l-24.18,78h48.88l-24.7-78Z"/>
      <path class="cls-1" d="M544.67,111.97c7.54,11.18,12.48,19.5,18.72,30.94-1.04-11.96-1.56-23.92-1.56-38.48v-59.28c0-17.16-.52-27.56-2.08-39.52h55.38c-1.56,11.7-2.08,22.62-2.08,39.52v138.06c0,15.86.78,27.82,2.08,38.74h-56.94c-4.68-9.88-10.66-19.5-19.5-33.02l-48.1-72.54c-7.02-10.4-11.44-18.2-18.72-31.98,1.3,11.7,1.82,26,1.82,38.74v58.24c0,17.94.52,29.38,2.08,40.56h-55.38c1.56-10.14,2.08-21.58,2.08-40.82V44.37c0-15.08-.52-26.78-2.08-38.74h56.42c2.6,7.02,8.32,17.42,18.46,32.5l49.4,73.84Z"/>
      <path class="cls-1" d="M635.15,43.07c0-17.68-.52-26.26-2.34-38.22,10.4.52,16.9.78,38.48.78h54.34c31.98,0,57.72,8.84,75.14,25.74,18.98,18.72,28.6,46.02,28.6,80.6s-10.4,64.22-30.16,83.98c-17.42,17.16-42.12,26-73.06,26h-54.86c-20.02,0-27.3.26-38.22.78,1.56-11.44,2.08-20.02,2.08-37.96V43.07ZM721.46,176.45c16.9,0,28.86-4.42,38.22-13.78,10.66-10.92,16.38-28.34,16.38-49.92s-4.94-38.22-15.08-48.36c-9.1-9.1-21.58-13.26-40.3-13.26h-34.06v125.32h34.84Z"/>
      <path class="cls-1" d="M938.56,183.47c0,13.52.52,24.96,2.08,38.48h-56.68c1.3-11.96,2.08-23.92,2.08-38.48v-48.1l-59.8-98.28c-4.68-8.06-10.4-16.64-20.8-31.46h65.78c2.86,9.1,5.72,15.86,12.22,27.3l28.86,52.78,28.86-52.52c6.5-11.96,10.14-20.02,11.96-27.56h65.78c-7.54,10.92-17.42,25.74-20.8,31.46l-59.54,98.28v48.1Z"/>
      <path class="cls-1" d="M202.25,206.35c-1.56,10.66-2.08,20.28-2.08,38.48v139.36c0,16.9.52,25.74,2.08,38.48h-55.9c1.56-10.92,2.08-20.54,2.08-38.48v-50.44H60.82v50.44c0,16.9.52,26.78,2.08,38.48H7c1.56-10.66,2.08-20.28,2.08-38.48v-139.36c0-17.94-.52-27.3-2.08-38.48h55.9c-1.56,12.22-2.08,22.36-2.08,38.48v43.16h87.62v-43.16c0-17.94-.52-28.34-2.08-38.48h55.9Z"/>
      <path class="cls-1" d="M418.83,206.35c-1.56,11.18-2.08,20.54-2.08,39.26v89.44c0,59.28-35.62,92.82-98.28,92.82-32.24,0-58.5-9.1-74.1-25.48-15.08-16.12-22.88-38.74-22.88-67.86v-88.92c0-17.94-.52-29.38-2.08-39.26h56.16c-1.56,9.62-2.08,20.02-2.08,39.26v89.44c0,32.76,14.82,48.36,45.24,48.36s46.02-15.6,46.02-48.36v-89.44c0-19.5-.52-27.56-2.08-39.26h56.16Z"/>
      <path class="cls-1" d="M567.03,343.63c-13.26,0-17.68.26-25.74,1.3v-46.02c9.62,1.3,15.86,1.56,34.06,1.56h20.8c13.26,0,22.88-.26,34.32-1.3-1.3,9.88-1.82,18.46-1.82,35.36v29.12c0,18.46.26,26.78,1.82,38.74-14.3,9.1-21.32,12.48-33.02,16.38-16.9,5.72-35.88,8.84-55.12,8.84-33.02,0-58.76-9.1-77.22-27.82-19.76-19.76-30.68-50.7-30.68-86.32,0-68.38,41.34-111.8,106.86-111.8,32.5,0,57.2,10.14,74.36,30.94,7.02,8.06,11.18,15.86,15.34,28.34l-53.04,12.22c-2.86-9.36-5.98-14.3-11.7-18.72-6.76-5.46-15.34-8.06-26.26-8.06-33.28,0-51.48,24.18-51.48,67.86,0,24.18,5.46,42.9,15.86,54.34,8.32,9.1,21.06,14.04,37.44,14.04,13.78,0,24.96-2.86,37.7-9.36v-29.64h-12.48Z"/>
      <path class="cls-1" d="M845.22,206.35c-1.56,10.66-2.08,20.28-2.08,38.48v139.36c0,16.9.52,25.74,2.08,38.48h-55.9c1.56-10.92,2.08-20.54,2.08-38.48v-50.44h-87.62v50.44c0,16.9.52,26.78,2.08,38.48h-55.9c1.56-10.66,2.08-20.28,2.08-38.48v-139.36c0-17.94-.52-27.3-2.08-38.48h55.9c-1.56,12.22-2.08,22.36-2.08,38.48v43.16h87.62v-43.16c0-17.94-.52-28.34-2.08-38.48h55.9Z"/>
      <path class="cls-1" d="M1031.12,424.49c-11.18-1.3-20.54-1.82-42.9-1.82h-81.9c-19.76,0-27.04.26-38.22.78,1.56-10.4,2.08-20.02,2.08-37.96v-141.96c0-16.12-.52-25.22-2.08-37.96,10.66.52,17.94.78,38.22.78h82.94c17.68,0,26.52-.52,38.74-1.82v48.62c-11.96-1.3-21.32-1.82-38.74-1.82h-67.6v38.22h56.16c17.16,0,23.4-.26,39-1.82v48.1c-12.22-1.3-21.06-1.82-39-1.82h-56.16v43.68h67.08c19.76,0,31.2-.52,42.38-1.82v48.62Z"/>
      <path class="cls-1" d="M1100.79,352.21c1.04,9.36,2.86,14.04,6.76,19.24,6.24,7.8,17.16,12.22,30.42,12.22,20.02,0,31.98-8.84,31.98-23.4,0-8.06-4.16-15.08-10.92-18.2-5.46-2.6-11.96-4.42-39-10.66-23.92-5.2-32.24-8.32-41.86-15.08-16.38-11.44-25.22-28.86-25.22-49.92,0-40.04,32.24-65.26,83.46-65.26,33.02,0,58.24,10.14,72.28,29.64,6.5,8.58,9.62,16.38,13,31.2l-55.12,5.98c-3.12-16.9-12.48-23.92-32.24-23.92-15.86,0-27.56,8.58-27.56,20.54,0,7.28,3.9,12.74,12.22,16.64q5.2,2.34,35.88,8.58c19.76,4.16,32.24,8.58,42.12,14.82,18.72,11.7,28.08,29.12,28.08,53.04,0,19.5-6.24,36.14-18.2,47.84-15.08,14.56-37.96,22.1-68.38,22.1-22.1,0-43.94-4.68-57.98-12.74-13-7.28-22.62-18.46-28.08-33.28-2.6-6.24-3.9-12.22-5.72-24.18l54.08-5.2Z"/>
    </g>
  </g>
</svg>