<?xml version="1.0" encoding="UTF-8"?>
<svg id="Layer_1" data-name="Layer 1" xmlns="http://www.w3.org/2000/svg" viewBox="0 0 1920 1080">
  <defs>
    <style>
      .cls-1 {
        fill: #231f20;
        stroke: #fff;
        stroke-width: 1.21px;
      }
    </style>
  </defs>
  <g id="Abhaya_Libre" data-name="Abhaya Libre">
    <path class="cls-1" d="M219.21,903.38c14.62,15.09,21.93,36.32,21.93,63.67,0,23.58-6.01,44.46-18.04,62.61,4.72,0,8.14.24,10.26.71,3.31,1.18,4.95,4.6,4.95,10.26h-73.58v-11.32c2.36-.23,4.84-.47,7.43-.71,39.39-5.42,59.07-25.23,59.07-59.43,0-8.72-1.53-16.74-4.6-24.05-7.07-15.56-18.86-23.35-35.37-23.35-6.13,0-11.79,1.42-16.98,4.25-9.9,5.66-19.57,18.99-29.01,39.97-10.37,22.88-16.74,36.32-19.1,40.33-12.5,21.93-28.65,32.9-48.46,32.9-13.44,0-24.99-4.83-34.67-14.5-14.15-14.38-21.22-34.43-21.22-60.14,0-20.99,4.6-40.2,13.8-57.66-2.35,0-4.36-.23-6.01-.71-4.01-.71-6.01-4.12-6.01-10.26h62.26v11.32c-13.44-.23-24.76,3.18-33.96,10.26-13.44,10.14-20.16,25-20.16,44.57,0,7.55,1.3,14.5,3.89,20.87,5.9,14.62,16.39,21.93,31.48,21.93,5.66,0,11.09-1.29,16.27-3.89,9.67-5.42,19.1-18.51,28.3-39.26,10.38-23.11,16.75-36.55,19.1-40.33,12.97-22.64,29.84-33.96,50.58-33.96,14.62,0,27.24,5.31,37.85,15.92Z"/>
    <path class="cls-1" d="M237.61,745.95h-9.2v-23.7l-68.62,26.53v73.22l68.62,26.53v-18.04c0-1.18.12-2.35.35-3.54.48-3.54,3.42-5.31,8.84-5.31v63.32h-9.2v-22.29l-203.05-78.88v-15.92l203.05-81.36v-11.67c0-1.18.12-2.35.35-3.54.48-3.77,3.42-5.66,8.84-5.66v80.3ZM64.98,785.57l84.54,32.54v-65.09l-84.54,32.54Z"/>
    <path class="cls-1" d="M25.36,519.19v-72.16h9.2v28.3h201.28l3.54,16.98-171.56,138.67h160.6v-20.87c0-1.18.12-2.35.35-3.54.71-3.77,3.66-5.66,8.84-5.66v72.52h-9.2v-28.3H34.56v28.3h-9.2v-51.29l163.78-132.65H34.56v29.71h-9.2Z"/>
    <path class="cls-1" d="M25.36,345.84c0-24.52,5.78-45.99,17.33-64.38,18.87-29.71,48.46-44.57,88.79-44.57,31.13,0,56.48,10.03,76.05,30.07,20.05,20.75,30.07,47.28,30.07,79.59v99.05h-9.2v-28.3H34.56v28.3h-9.2v-99.75ZM34.56,383.34h193.85v-37.5c-.23-47.16-33.01-70.86-98.34-71.1-17.69,0-33.01,1.77-45.99,5.31-33.01,9.2-49.52,31.37-49.52,66.5v36.79Z"/>
    <path class="cls-1" d="M237.61,178.51h-9.2v-28.65h-76.41l-117.44,66.15v18.75h-9.2v-83.48h9.2v26.88l101.88-55.54-101.88-52.35v28.3h-9.2v-62.97c1.18,0,2.36.12,3.54.35,3.78.71,5.66,3.66,5.66,8.84.48,7.31,3.77,13.56,9.9,18.75l104.35,52.35h79.59v-19.1c.48-4.48,3.54-7.66,9.2-9.55v91.26Z"/>
    <path class="cls-1" d="M435.61,1048.77h-9.2v-28.3h-193.85v28.3h-9.2v-90.56h9.2v28.3h88.43v-105.06h-88.43v28.3h-9.2v-90.56h9.2v28.3h193.85v-19.1c0-1.18.12-2.35.35-3.54.71-3.77,3.66-5.66,8.84-5.66v90.56h-9.2v-28.3h-95.16v105.06h95.16v-19.1c0-1.18.12-2.35.35-3.54.71-3.77,3.66-5.66,8.84-5.66v90.56Z"/>
    <path class="cls-1" d="M223.36,817.41v-90.2h9.2v27.95h121.69c14.15,0,26.41-1.42,36.79-4.25,25.47-7.08,38.2-24.76,38.2-53.06v-5.31c-2.59-35.84-27.35-53.77-74.29-53.77h-122.39v28.3h-9.2v-68.98h9.2v28.3h120.27c14.15,0,26.53,1.42,37.14,4.25,32.78,8.96,49.17,33.84,49.17,74.64-.24,55.42-27.82,83.37-82.77,83.84h-123.81v28.3h-9.2Z"/>
    <path class="cls-1" d="M339.74,375.22h9.2v25.82h86.67l-10.26,32.54c.48.95,1.06,2.01,1.77,3.18,8.02,14.62,12.03,31.01,12.03,49.17,0,24.53-7.31,46.46-21.93,65.8-20.75,27.36-50.46,41.03-89.14,41.03-33.01,0-59.66-10.84-79.94-32.54-18.86-20.28-28.3-44.92-28.3-73.93,0-17.21,3.66-33.25,10.97-48.11l-6.72-31.48,70.04-1.41v9.55c-18.63,4.95-32.66,10.85-42.09,17.69-14.62,10.85-21.93,28.3-21.93,52.35,0,4.72.35,9.32,1.06,13.8,6.84,36.56,39.62,54.83,98.34,54.83,5.9,0,11.67-.23,17.33-.71,54.48-3.54,81.71-26.29,81.71-68.27-.94-19.33-8.01-35.96-21.22-49.88h-58.37v31.48h-9.2v-90.91Z"/>
    <path class="cls-1" d="M435.61,367.07h-9.2v-28.3h-193.85v28.3h-9.2v-90.56h9.2v28.3h88.43v-105.06h-88.43v28.3h-9.2v-90.56h9.2v28.3h193.85v-19.1c0-1.18.12-2.35.35-3.54.71-3.77,3.66-5.66,8.84-5.66v90.56h-9.2v-28.3h-95.16v105.06h95.16v-19.1c0-1.18.12-2.35.35-3.54.71-3.77,3.66-5.66,8.84-5.66v90.56Z"/>
    <path class="cls-1" d="M485.75,888.88l-18.04,5.66c-.47,0-.94.12-1.42.35-23.82,7.31-35.73,20.05-35.73,38.2v53.42h88.43v-72.16h10.26v72.16h95.16v-53.42c0-3.54-.47-6.95-1.42-10.26-3.54-12.73-15.44-22.16-35.73-28.3l-18.04-5.66v-7.78l64.38,1.77v165.9h-9.2v-28.3h-193.85v28.3h-9.2v-165.9l64.38-1.77v7.78Z"/>
    <path class="cls-1" d="M615.21,720.13c14.62,15.09,21.93,36.32,21.93,63.67,0,23.58-6.01,44.46-18.04,62.61,4.72,0,8.14.24,10.26.71,3.31,1.18,4.95,4.6,4.95,10.26h-73.58v-11.32c2.36-.23,4.84-.47,7.43-.71,39.39-5.42,59.07-25.23,59.07-59.43,0-8.72-1.53-16.74-4.6-24.05-7.07-15.56-18.86-23.35-35.37-23.35-6.13,0-11.79,1.42-16.98,4.25-9.9,5.66-19.57,18.99-29.01,39.97-10.37,22.88-16.74,36.32-19.1,40.33-12.5,21.93-28.65,32.9-48.46,32.9-13.44,0-24.99-4.83-34.67-14.5-14.15-14.38-21.22-34.43-21.22-60.14,0-20.99,4.6-40.2,13.8-57.66-2.35,0-4.36-.23-6.01-.71-4.01-.71-6.01-4.12-6.01-10.26h62.26v11.32c-13.44-.23-24.76,3.18-33.96,10.26-13.44,10.14-20.16,25-20.16,44.57,0,7.55,1.3,14.5,3.89,20.87,5.9,14.62,16.39,21.93,31.48,21.93,5.66,0,11.09-1.29,16.27-3.89,9.67-5.42,19.1-18.51,28.3-39.26,10.38-23.11,16.75-36.55,19.1-40.33,12.97-22.64,29.84-33.96,50.58-33.96,14.62,0,27.24,5.31,37.85,15.92Z"/>
  </g>
</svg>