<?xml version="1.0" encoding="UTF-8"?>
<svg id="Layer_1" data-name="Layer 1" xmlns="http://www.w3.org/2000/svg" viewBox="0 0 1920 1080">
  <defs>
    <style>
      .cls-1 {
        fill: #231f20;
        stroke: #fff;
        stroke-width: .83px;
      }
    </style>
  </defs>
  <g id="Beast">
    <path class="cls-1" d="M195.64,1039.09v-74.71c0-4.7-3.79-7.47-10.21-7.47h-20.42c-6.42,0-10.21,2.77-10.21,7.47v44.83c0,4.7-3.79,7.47-10.21,7.47h-20.42c-6.42,0-10.21,2.77-10.21,7.47v14.94c0,4.7-3.79,7.47-10.21,7.47h-20.42c-6.42,0-10.21-2.78-10.21-7.47v-14.94c0-4.7-3.79-7.47-10.21-7.47h-20.42c-6.42,0-10.21-2.78-10.21-7.47v-44.83c0-4.7,3.79-7.47,10.21-7.47h20.42c6.42,0,10.21-2.78,10.21-7.47v-14.94c0-4.7-3.79-7.47-10.21-7.47h-20.42c-6.42,0-10.21-2.78-10.21-7.47v-14.94c0-4.7,3.79-7.47,10.21-7.47h61.27c6.42,0,10.21,2.77,10.21,7.47v46.32c0,3.84-4.67,5.98-10.21,5.98h-20.42c-6.42,0-10.21,2.77-10.21,7.47v44.83c0,4.7,3.79,7.47,10.21,7.47h20.42c6.42,0,10.21-2.78,10.21-7.47v-44.83c0-4.7,3.79-7.47,10.21-7.47h20.42c6.42,0,10.21-2.78,10.21-7.47v-44.83c0-4.7,3.79-7.47,10.21-7.47h20.42c6.42,0,10.21,2.77,10.21,7.47v14.94c0,4.7,3.79,7.47,10.21,7.47h20.42c6.42,0,10.21,2.77,10.21,7.47v104.59c0,4.7-3.79,7.47-10.21,7.47h-20.42c-6.42,0-10.21-2.78-10.21-7.47Z"/>
    <path class="cls-1" d="M226.27,873.79h-61.27c-6.42,0-10.21-2.78-10.21-7.47v-14.94c0-4.7-3.79-7.47-10.21-7.47h-61.27c-6.42,0-10.21-2.78-10.21-7.47v-14.73c0-4.7-3.79-7.68-10.21-7.68h-20.42c-6.42,0-10.21-2.56-10.21-7.26v-45.04c0-4.7,3.79-7.47,10.21-7.47h61.27c6.42,0,10.21-2.78,10.21-7.47v-14.73c0-4.7,3.79-7.68,10.21-7.68h61.27c6.42,0,10.21-2.56,10.21-7.26v-15.16c0-4.7,3.79-7.47,10.21-7.47h20.42c6.42,0,10.21,2.77,10.21,7.47v104.81c0,4.7-3.79,7.26-10.21,7.26h-20.42c-6.42,0-10.21-2.56-10.21-7.26v-15.16c0-4.7-3.79-7.47-10.21-7.47h-20.42c-6.42,0-10.21,2.77-10.21,7.47v15.16c0,4.7,3.79,7.26,10.21,7.26h20.42c6.42,0,10.21,2.99,10.21,7.68v14.73c0,4.7,3.79,7.47,10.21,7.47h20.42c6.42,0,10.21,2.77,10.21,7.47v14.94c0,4.7-3.79,7.47-10.21,7.47Z"/>
    <path class="cls-1" d="M226.27,671.14h-20.42c-6.42,0-10.21-2.78-10.21-7.47v-14.94c0-4.7-3.79-7.47-10.21-7.47h-102.12c-6.42,0-10.21,2.77-10.21,7.47v14.94c0,4.7-3.79,7.47-10.21,7.47h-20.42c-6.42,0-10.21-2.78-10.21-7.47v-44.83c0-4.7,3.79-7.47,10.21-7.47h20.42c6.42,0,10.21-2.78,10.21-7.47v-14.94c0-4.7,3.79-7.47,10.21-7.47h20.42c6.42,0,10.21-2.78,10.21-7.47v-14.94c0-4.7,3.79-7.47,10.21-7.47h20.42c6.42,0,10.21-2.78,10.21-7.47v-14.94c0-4.7-3.79-7.47-10.21-7.47h-61.27c-6.42,0-10.21,2.77-10.21,7.47v14.94c0,4.7-3.79,7.47-10.21,7.47h-20.42c-6.42,0-10.21-2.78-10.21-7.47v-74.71c0-4.7,3.79-7.47,10.21-7.47h20.42c6.42,0,10.21,2.77,10.21,7.47v14.94c0,4.7,3.79,7.47,10.21,7.47h102.12c6.42,0,10.21-2.77,10.21-7.47v-14.94c0-4.7,3.79-7.47,10.21-7.47h20.42c6.42,0,10.21,2.77,10.21,7.47v44.83c0,4.7-3.79,7.47-10.21,7.47h-20.42c-6.42,0-10.21,2.77-10.21,7.47v14.94c0,4.7-3.79,7.47-10.21,7.47h-20.42c-6.42,0-10.21,2.77-10.21,7.47v14.94c0,4.7,3.79,7.47,10.21,7.47h61.27c6.42,0,10.21,2.77,10.21,7.47v74.71c0,4.7-3.79,7.47-10.21,7.47Z"/>
    <path class="cls-1" d="M226.27,438.6h-20.42c-6.42,0-10.21-2.77-10.21-7.47v-14.94c0-4.7-3.79-7.47-10.21-7.47h-102.12c-6.42,0-10.21,2.77-10.21,7.47v14.94c0,4.7-3.79,7.47-10.21,7.47h-20.42c-6.42,0-10.21-2.77-10.21-7.47v-134.48c0-4.7,3.79-7.47,10.21-7.47h20.42c6.42,0,10.21-2.77,10.21-7.47v-14.94c0-4.7,3.79-7.47,10.21-7.47h102.12c6.42,0,10.21,2.77,10.21,7.47v14.94c0,4.7,3.79,7.47,10.21,7.47h20.42c6.42,0,10.21,2.77,10.21,7.47v134.48c0,4.7-3.79,7.47-10.21,7.47ZM195.64,341.48v-44.83c0-4.7-3.79-7.47-10.21-7.47h-102.12c-6.42,0-10.21,2.77-10.21,7.47v44.83c0,4.7,3.79,7.47,10.21,7.47h102.12c6.42,0,10.21-2.77,10.21-7.47Z"/>
    <path class="cls-1" d="M226.27,184.72h-20.42c-6.42,0-10.21-2.77-10.21-7.47v-14.94c0-4.7-3.79-7.47-10.21-7.47h-20.42c-6.42,0-10.21,2.77-10.21,7.47v14.94c0,4.7-3.79,7.47-10.21,7.47h-20.42c-6.42,0-10.21,2.77-10.21,7.47v14.94c0,4.7-3.79,7.47-10.21,7.47h-20.42c-6.42,0-10.21,2.77-10.21,7.47v14.94c0,4.7-3.79,7.47-10.21,7.47h-20.42c-6.42,0-10.21-2.77-10.21-7.47v-74.71c0-4.7,3.79-7.47,10.21-7.47h20.42c6.42,0,10.21,2.77,10.21,7.47v14.94c0,4.7,3.79,7.47,10.21,7.47h20.42c6.42,0,10.21-2.77,10.21-7.47v-44.83c0-4.7-3.79-7.47-10.21-7.47h-61.27c-6.42,0-10.21-2.77-10.21-7.47V42.78c0-4.7,3.79-7.47,10.21-7.47h20.42c6.42,0,10.21,2.77,10.21,7.47v14.94c0,4.7,3.79,7.47,10.21,7.47h20.42c6.42,0,10.21,2.77,10.21,7.47v14.94c0,4.7,3.79,7.47,10.21,7.47h20.42c6.42,0,10.21,2.77,10.21,7.47v14.94c0,4.7,3.79,7.47,10.21,7.47h20.42c6.42,0,10.21-2.77,10.21-7.47v-14.94c0-4.7,3.79-7.47,10.21-7.47h20.42c6.42,0,10.21,2.77,10.21,7.47v74.71c0,4.7-3.79,7.47-10.21,7.47Z"/>
    <path class="cls-1" d="M423.39,1046.56h-20.42c-6.42,0-10.21-2.78-10.21-7.47v-14.94c0-4.7-3.79-7.47-10.21-7.47h-102.12c-6.42,0-10.21,2.77-10.21,7.47v14.94c0,4.7-3.79,7.47-10.21,7.47h-20.42c-6.42,0-10.21-2.78-10.21-7.47v-44.83c0-4.7,3.79-7.47,10.21-7.47h61.27c6.42,0,10.21-2.78,10.21-7.47v-44.83c0-4.7-3.79-7.47-10.21-7.47h-20.42c-6.42,0-10.21,2.77-10.21,7.47v14.94c0,4.7-3.79,7.47-10.21,7.47h-20.42c-6.42,0-10.21-2.78-10.21-7.47v-104.59c0-4.7,3.79-7.47,10.21-7.47h20.42c6.42,0,10.21,2.77,10.21,7.47v14.94c0,4.7,3.79,7.47,10.21,7.47h102.12c6.42,0,10.21-2.78,10.21-7.47v-14.94c0-4.7,3.79-7.47,10.21-7.47h20.42c6.42,0,10.21,2.77,10.21,7.47v104.59c0,4.7-3.79,7.47-10.21,7.47h-20.42c-6.42,0-10.21-2.78-10.21-7.47v-14.94c0-4.7-3.79-7.47-10.21-7.47h-20.42c-6.42,0-10.21,2.77-10.21,7.47v44.83c0,4.7,3.79,7.47,10.21,7.47h61.27c6.42,0,10.21,2.77,10.21,7.47v44.83c0,4.7-3.79,7.47-10.21,7.47Z"/>
    <path class="cls-1" d="M239.58,726.38h20.42c6.42,0,10.21,2.77,10.21,7.47v14.94c0,4.7,3.79,7.47,10.21,7.47h102.12c6.42,0,10.21-2.78,10.21-7.47v-44.83c0-4.7-3.79-7.47-10.21-7.47h-142.96c-6.42,0-10.21-2.78-10.21-7.47v-74.71c0-4.7,3.79-7.47,10.21-7.47h20.42c6.42,0,10.21,2.77,10.21,7.47v14.94c0,4.7,3.79,7.47,10.21,7.47h102.12c6.42,0,10.21,2.77,10.21,7.47v14.94c0,4.7,3.79,7.47,10.21,7.47h20.42c6.42,0,10.21,2.77,10.21,7.47v74.71c0,4.7-3.79,7.47-10.21,7.47h-20.42c-6.42,0-10.21,2.77-10.21,7.47v14.94c0,4.7-3.79,7.47-10.21,7.47h-102.12c-6.42,0-10.21,2.77-10.21,7.47v14.94c0,4.7-3.79,7.47-10.21,7.47h-20.42c-6.42,0-10.21-2.99-10.21-7.68v-74.5c0-4.7,3.79-7.47,10.21-7.47Z"/>
    <path class="cls-1" d="M382.25,594.03h-101.53c-5.84,0-10.5-3.42-10.5-7.68v-14.52c0-4.27-4.67-7.68-10.5-7.68h-19.84c-5.83,0-10.5-3.42-10.5-7.68v-44.4c0-4.27,4.67-7.68,10.5-7.68h19.84c5.84,0,10.5-3.42,10.5-7.68v-14.52c0-4.27-4.67-7.68-10.5-7.68h-19.84c-5.83,0-10.5-3.42-10.5-7.68v-14.52c0-4.27,4.67-7.68,10.5-7.68h60.69c5.83,0,10.5,3.42,10.5,7.68v44.4c0,4.27-4.67,7.68-10.5,7.68h-19.84c-5.84,0-10.5,3.42-10.5,7.68v14.52c0,4.27,4.67,7.68,10.5,7.68h101.53c5.83,0,10.5-3.42,10.5-7.68v-14.52c0-4.27-4.67-7.68-10.5-7.68h-19.84c-5.83,0-10.5-3.42-10.5-7.68v-74.28c0-4.27,4.67-7.68,10.5-7.68h19.84c5.83,0,10.5,3.42,10.5,7.68v14.52c0,4.27,4.67,7.68,10.5,7.68h19.84c5.83,0,10.5,3.42,10.5,7.68v104.17c0,4.27-4.67,7.68-10.5,7.68h-19.84c-5.84,0-10.5,3.42-10.5,7.68v14.52c0,4.27-4.67,7.68-10.5,7.68Z"/>
    <path class="cls-1" d="M423.39,393.38h-20.42c-6.42,0-10.21-2.77-10.21-7.47v-14.94c0-4.7-3.79-7.47-10.21-7.47h-102.12c-6.42,0-10.21,2.77-10.21,7.47v14.94c0,4.7-3.79,7.47-10.21,7.47h-20.42c-6.42,0-10.21-2.77-10.21-7.47v-44.83c0-4.7,3.79-7.47,10.21-7.47h61.27c6.42,0,10.21-2.77,10.21-7.47v-44.83c0-4.7-3.79-7.47-10.21-7.47h-20.42c-6.42,0-10.21,2.77-10.21,7.47v14.94c0,4.7-3.79,7.47-10.21,7.47h-20.42c-6.42,0-10.21-2.77-10.21-7.47v-104.59c0-4.7,3.79-7.47,10.21-7.47h20.42c6.42,0,10.21,2.77,10.21,7.47v14.94c0,4.7,3.79,7.47,10.21,7.47h102.12c6.42,0,10.21-2.77,10.21-7.47v-14.94c0-4.7,3.79-7.47,10.21-7.47h20.42c6.42,0,10.21,2.77,10.21,7.47v104.59c0,4.7-3.79,7.47-10.21,7.47h-20.42c-6.42,0-10.21-2.77-10.21-7.47v-14.94c0-4.7-3.79-7.47-10.21-7.47h-20.42c-6.42,0-10.21,2.77-10.21,7.47v44.83c0,4.7,3.79,7.47,10.21,7.47h61.27c6.42,0,10.21,2.77,10.21,7.47v44.83c0,4.7-3.79,7.47-10.21,7.47Z"/>
    <path class="cls-1" d="M620.5,1046.56h-20.42c-6.42,0-10.21-2.78-10.21-7.47v-14.94c0-4.7-3.79-7.47-10.21-7.47h-102.12c-6.42,0-10.21,2.77-10.21,7.47v14.94c0,4.7-3.79,7.47-10.21,7.47h-20.42c-6.42,0-10.21-2.78-10.21-7.47v-164.36c0-4.7,3.79-7.47,10.21-7.47h61.27c6.42,0,10.21,2.77,10.21,7.47v14.94c0,4.7-3.79,7.47-10.21,7.47h-20.42c-6.42,0-10.21,2.77-10.21,7.47v44.83c0,4.7,3.79,7.47,10.21,7.47h20.42c6.42,0,10.21-2.78,10.21-7.47v-14.94c0-4.7,3.79-7.47,10.21-7.47h20.42c6.42,0,10.21,2.77,10.21,7.47v14.94c0,4.7,3.79,7.47,10.21,7.47h20.42c6.42,0,10.21-2.78,10.21-7.47v-44.83c0-4.7-3.79-7.47-10.21-7.47h-20.42c-6.42,0-10.21-2.78-10.21-7.47v-14.94c0-4.7,3.79-7.47,10.21-7.47h61.27c6.42,0,10.21,2.77,10.21,7.47v164.36c0,4.7-3.79,7.47-10.21,7.47Z"/>
    <path class="cls-1" d="M589.87,838.44v-74.71c0-4.7-3.79-7.47-10.21-7.47h-20.42c-6.42,0-10.21,2.77-10.21,7.47v44.83c0,4.7-3.79,7.47-10.21,7.47h-20.42c-6.42,0-10.21,2.77-10.21,7.47v14.94c0,4.7-3.79,7.47-10.21,7.47h-20.42c-6.42,0-10.21-2.78-10.21-7.47v-14.94c0-4.7-3.79-7.47-10.21-7.47h-20.42c-6.42,0-10.21-2.78-10.21-7.47v-44.83c0-4.7,3.79-7.47,10.21-7.47h20.42c6.42,0,10.21-2.78,10.21-7.47v-14.94c0-4.7-3.79-7.47-10.21-7.47h-20.42c-6.42,0-10.21-2.78-10.21-7.47v-14.94c0-4.7,3.79-7.47,10.21-7.47h61.27c6.42,0,10.21,2.77,10.21,7.47v46.32c0,3.84-4.67,5.98-10.21,5.98h-20.42c-6.42,0-10.21,2.77-10.21,7.47v44.83c0,4.7,3.79,7.47,10.21,7.47h20.42c6.42,0,10.21-2.78,10.21-7.47v-44.83c0-4.7,3.79-7.47,10.21-7.47h20.42c6.42,0,10.21-2.78,10.21-7.47v-44.83c0-4.7,3.79-7.47,10.21-7.47h20.42c6.42,0,10.21,2.77,10.21,7.47v14.94c0,4.7,3.79,7.47,10.21,7.47h20.42c6.42,0,10.21,2.77,10.21,7.47v104.59c0,4.7-3.79,7.47-10.21,7.47h-20.42c-6.42,0-10.21-2.78-10.21-7.47Z"/>
  </g>
</svg>