<?xml version="1.0" encoding="UTF-8"?>
<svg id="Layer_2" data-name="Layer 2" xmlns="http://www.w3.org/2000/svg" viewBox="0 0 488.46 115.68">
  <g id="Layer_1-2" data-name="Layer 1">
    <g>
      <path d="M71.4,47.04c0,1.97,1.27,4.22,3.94,4.64l15.34,2.39c18.57,2.95,22.09,14.07,22.09,22.93,0,21.1-15.35,36.56-46.71,35.31-31.36-1.24-78.76-18.18-62.89-55.01S25.66,15.67,38.61,9.48s35.61-6.19,35.61-6.19c26.45,0,37.71,4.78,37.71,19.56,0,12.66-11.11,20.4-22.23,19.84l-11.82-.56c-4.22-.14-6.47,2.39-6.47,4.92ZM103.9,75.88c0-8.58-6.89-12.24-18.71-9.85l-50.79,10.13c-5.21.98-8.44-.7-9.29-3.38-1.13-3.66.28-6.33,4.5-8.86l42.63-25.32c12.24-7.32,11.96-17.02,6.33-23.78-6.61-7.88-20.68-8.3-32.22,7.32l-28.56,38.83c-3.94,5.49-4.22,11.54-2.25,16.46,2.39,6.05,8.16,9.85,16.88,9.85l55.71-.42c10.27-.14,15.76-5.35,15.76-10.97Z"/>
      <path d="M182.09,113.61c-9.11,0-17.07-1.53-23.9-4.58-6.83-3.05-12.11-7.76-15.83-14.12-3.72-6.36-5.59-14.46-5.59-24.29V7.29c0-1.14.36-2.07,1.09-2.79s1.65-1.09,2.79-1.09h16.92c1.14,0,2.07.36,2.79,1.09.72.73,1.09,1.66,1.09,2.79v63.17c0,7.66,1.81,13.35,5.43,17.07,3.62,3.73,8.69,5.59,15.21,5.59s11.43-1.86,15.06-5.59c3.62-3.73,5.43-9.41,5.43-17.07V7.29c0-1.14.39-2.07,1.16-2.79.78-.72,1.68-1.09,2.72-1.09h17.07c1.03,0,1.91.36,2.64,1.09.72.73,1.09,1.66,1.09,2.79v63.33c0,9.83-1.86,17.93-5.59,24.29s-8.95,11.07-15.68,14.12c-6.73,3.05-14.69,4.58-23.9,4.58Z"/>
      <path d="M453.61,18.65c1.15-3.15,5.63-11.89,14.44-13.17s19.06,4.85,20.32,8.88c1.26,4.03-10.25,20.37-12.64,21.91-2.39,1.54-19.78,7.72-18.43,12,.67,2.13,5.26,2.54,9.59,4.2s7.42,4.11,7.94,5.48c.53,1.37.71,2.67.5,3.88-.22,1.21-.91,1.95-2.23,3.31s-5.28,5.21-5.88,7.21c-.59,2-1.02,2.93-1.99,4.3s-4.45,4.79-4.4,7.98c.05,3.19,1.04,3.64,1.7,8.02.65,4.39-4.1,22.34-24.42,21.74-20.32-.6-21.38-8.54-23.11-11.77s-3.21-8.02-2.37-12.8,8.89-9.5,11.37-10.3,7.5-5.39,6.91-11.04c-.59-5.64-.72-6.03-1.9-6.73s-7.72-.95-10.98-2.76-6.12-5.04-8.39-5.68-3.64-.54-5.42-1.26-3.92-4.8-6.86-4.98c-3.07-.19-17.15.1-17.71-5.83-.51-5.4,4.28-7.07,5.27-9.35.41-.94-.38-2.6-2.42-3.23-2.9-.9-6.7-.02-12.67-1.02s-8.76-4.4-9.24-9.94c-.48-5.54,13.58-12.79,17.66-14.02s5.54-1.98,10.43-2.37,18.06,4.34,19.74,9.51c1.68,5.17-3.75,16.66-2.38,20.86,1.37,4.2,15.91-.44,18.26,4.07,2.35,4.51-8.74,9.18-7.17,11.92s8.49-.4,11.97.33,4.13,2.43,6.43,3.56,9.91,2.89,10.83,2.47-.09-12.91,2.66-17.66c2.75-4.75,2.75-5.27,2.8-7.28s.62-7.28,1.77-10.43Z"/>
      <path d="M343.47,31.14v-8.89h-4.45v-4.45h-8.89v-4.45h-8.9v-4.45h-13.35v-4.44h-8.9V0h-26.69v4.45h-4.45v8.89h-8.9v8.9h-4.44v13.35h-4.45v17.8h4.45v13.35h4.44v13.35h4.45v8.89h13.35v4.45h13.35v4.45h8.89v4.44h4.45v4.45h4.45v4.45h4.45v4.45h13.35v-4.45h8.89v-8.9h4.45v-17.8h-4.45v-8.89h-4.44v-13.35h4.44v-8.9h4.45v-4.45h4.45v-4.44h4.45v-13.35h-4.45ZM330.13,44.49h-4.45v8.89h-4.45v8.9h-4.45v13.35h4.45v8.89h-4.45v4.45h-13.35v-4.45h-8.89v-4.44h-4.45v-4.45h-13.35v-8.9h-4.44v-4.44h-4.45V26.69h8.89v-4.44h8.9v-4.45h26.7v4.45h13.35v4.44h4.45v17.8Z"/>
    </g>
  </g>
</svg>