<?xml version="1.0" encoding="UTF-8"?>
<svg id="Layer_2" data-name="Layer 2" xmlns="http://www.w3.org/2000/svg" viewBox="0 0 416.03 1210.79">
  <defs>
    <style>
      .cls-1 {
        stroke: #fff;
        stroke-width: .7px;
      }
    </style>
  </defs>
  <g id="Home_Page_Text_copy_2" data-name="Home Page Text copy 2">
    <g id="_4_Fromages" data-name="4 Fromages">
      <path class="cls-1" d="M117.16,1206.76v-1.46c24.07,2.3,49.61,3.98,49.61-15.28,0-14.65-25.12-36.63-37.89-36.63-7.12,0-11.72,6.7-18,21.77-12.77,30.77-34.75,35.17-55.05,35.17-16.33,0-30.14-3.56-41.24-6.07l48.78-50.66c11.51,1.05,19.05,7.75,24.28,18l-.42.63c-19.89-14.86-48.78,5.65-48.78,20.93,0,7.95,7.54,12.77,17.38,12.77,23.24,0,36.42-19.05,43.75-38.52,6.91-17.79,9.21-31.61,19.47-31.61,12.77,0,64.27,56.94,75.36,68.45-23.03,7.75-49.82,5.86-77.25,2.51ZM173.47,1176.19l.42-.63c23.03,18.42,27.21,9.42,27.21-15.07,0-11.51-3.35-19.26-6.07-27.84-1.47-3.77-2.09-2.72-14.86-3.35-5.23-.21-6.91-.42-9.42,3.14l-.84,1.05c-2.09,4.19-1.26,3.77,2.72,4.19,4.4.42,9.21-2.3,9.21,0,0,1.88-4.81,1.05-7.54.84-3.35-.21-5.65-.84-11.51,2.3l-1.46.84c-5.44,2.72-11.72,2.51-19.05-1.26-9.21-4.81-28.26-16.33-28.26-30.98,0-20.51,23.65-20.93,47.52-11.72l-.42.84c-17.79-7.12-33.7-3.56-37.26,8.58-1.67,6.7-.84,7.75,8.58,6.7,3.98-.42,9-.84,9,1.46,0,1.88-5.23,1.26-9.42.42-6.7-1.26-9.21-.42-7.75,4.19,4.19,12.56,18.42,23.24,38.1,11.3,24.91-15.07,5.65-37.68,5.65-65.52,0-45.01,54.64-53.59,37.89-3.14-4.81,14.23-11.72,24.07-11.72,37.89,0,18.63,15.49,33.7,15.49,54.43,0,27.63-10.26,45.22-36.21,21.35ZM55.4,1127.42c-10.47,21.56-28.89,57.99-38.31,57.78-12.77-.21-16.75-48.57-16.75-75.57,0-25.54,3.98-37.05,6.07-53.8,1.05-8.16,3.56-25.96,0-37.05,11.93,12.56,29.52,29.73,35.17,36.63,2.93,3.56,3.98,6.28,3.98,9.84,0,4.4-3.14,7.54-7.12,7.54-4.4,0-7.54-2.72-7.54-7.54,0-4.19,4.19-7.12.63-10.88-17.38,8.37-23.66,35.59-23.66,55.89,0,18,1.47,39.56,15.28,39.77,22.82.21,30.77-75.78,55.05-65.52,10.47,4.4,17.17,26.17,11.3,37.68-6.7,13.19-26.38,9.63-34.12,5.23ZM181.84,1039.08c-5.86,3.77-3.98,4.4,1.46,3.98l5.65-.63c1.67-.21,2.93-.21,2.93.84,0,1.47-6.28.21-9.21.21-3.77.21-7.33,1.26-7.75,4.61v1.26c-3.35-7.12,4.61-8.79,7.33-10.47l-.42.21c-3.77,2.09-6.7,5.02-6.91,9v.42c0,5.86,4.4,15.7,5.02,31.19.63,17.17-1.05,32.03-4.82,42.91-1.46,5.02,0,6.28,5.23,6.28,5.86,0,12.77,1.67,12.35-4.6-.84-4.19-1.47-8.79-1.47-14.24,0-30.77,12.77-54.01,12.77-64.06s-13.61-11.09-22.19-6.91ZM72.36,1106.69c-4.4-1.26-7.75,1.88-9.84,6.28-.63,1.26-2.09,4.19-3.98,8.37,6.49,3.77,15.49.42,17.79-5.02,2.72-6.28-1.26-8.79-3.98-9.63ZM123.65,1067.76c-6.07,0-11.51-2.09-15.28-7.12l3.35-12.14c4.81,9.42,11.72,12.56,19.89,12.56,23.24,0,44.17-22.61,44.17-37.68,0-11.93-10.89-16.12-22.61-16.12-21.77,0-54.85,26.58-79.55,35.38,7.75,14.03,18,33.49,32.87,60.08l-1.47.63c-13.61-26.79-24.7-46.05-33.7-59.87-4.19,1.26-7.95,1.88-11.3,1.88-14.03,0-41.45-19.05-41.45-30.14,0-6.7,10.26-8.37,17.37-8.37,14.65,0,20.72,5.44,35.59,32.03,22.19-8.79,46.47-33.7,73.69-33.7,16.33,0,37.68,3.56,37.68,16.75s-35.17,45.84-59.24,45.84ZM32.59,1008.31c-3.98,0-7.12,2.51-7.12,6.91,0,12.35,16.54,27.21,32.87,26.79,3.56,0,7.12-.84,10.68-2.09-18.21-27-28.26-31.61-36.42-31.61ZM182.26,1038.87l.42-.21c-.21,0-.21.21-.42.21Z"/>
      <path class="cls-1" d="M82.62,962.46c-25.96,8.16-47.94,22.61-47.94,37.05,0,18,47.94,11.09,37.05-13.19l.42-.42,25.54,25.54H4.75l-.42-.63c24.28-24.28,55.06-52.12,115.76-74.52l-22.82-16.96,5.65-5.65,51.71,47.31-1.46,1.47c-9.84-6.49-25.54-7.96-42.5-6.07,25.96,18.84,83.32,34.12,83.32,46.05,0,15.28-84.15,16.12-111.37-39.98ZM107.53,956.81c-7.12,1.05-14.23,2.51-21.14,4.61,11.72,24.7,41.24,41.03,64.68,41.03,5.44,0,11.09-2.93,11.09-7.33,0-14.24-34.75-23.03-54.64-38.31ZM193.57,985.28c-19.26,0-32.03-28.89-39.98-100.69h.42c3.35,21.56,6.7,38.1,10.26,50.45,1.88,4.19,7.75,2.93,11.51,2.09,1.26-.21,3.77-.21,3.77.84,0,1.26-1.88,1.46-3.98,1.05-1.46-.21-2.93-.84-6.07-.42-4.4.63-3.77,1.26-2.09,7.12,6.7,18.84,14.24,24.7,23.66,24.7s12.77-8.37,12.77-19.89c0-17.38-5.02-33.7-13.19-47.94-8.79-14.86-20.72-25.33-33.91-25.33-18.84,0-31.4,11.51-31.61,25.33,0,5.23,1.67,6.07,12.98,4.61,4.81-.63,10.89-1.26,10.89,1.67,0,2.3-6.28,1.67-11.51.63-8.79-1.88-12.35-1.26-10.05,4.81,3.77,8.58,12.14,17.38,27.84,26.59l-14.65-1.26c-16.12-12.35-22.61-22.4-22.61-32.45,0-16.75,17.17-29.73,34.33-35.59,26.59-9,50.45-16.96,50.45-47.94,0-3.35-.42-6.49-2.09-10.68,5.65,7.33,8.37,15.91,8.37,23.66,0,25.54-23.24,36.42-52.33,36.63v.42c8.37.42,15.28,3.56,20.72,7.96,7.12,4.19,19.05,1.26,21.35,1.26,1.26,0,1.05,2.3-2.3,2.09-3.77-.21-14.86-1.26-12.77,2.3,3.35,3.77,6.28,8.16,9,12.56,10.88,16.96,16.96,39.56,16.96,59.24,0,15.07-4.82,26.17-16.12,26.17ZM88.48,919.97l-10.68-10.89c-5.23,15.7-10.05,27.21-14.86,34.96-4.61,7.75-9.21,11.72-14.03,11.72-6.91,0-14.65-8.37-22.82-24.91-5.44-10.88-8.16-20.72-8.16-29.52,0-9.42,2.72-15.91,7.75-25.96,2.93-6.07,4.81-10.68,5.65-13.4l-20.52-20.72v114.51H2.65v-136.7c0-1.47,0-2.51.21-3.35.21-.84.42-1.26.84-1.26s1.26.42,2.3,1.46c1.26,1.05,2.09,1.88,2.72,2.3,2.09,2.09,3.98,3.77,5.44,5.02l86.04,84.78-11.72,11.93ZM61.89,892.96l-9.42,7.33c0-9.42-4.4-16.33-9.42-16.33-2.3,0-4.4,1.46-6.07,4.61-1.67,3.14-2.51,7.54-2.51,13.4,0,23.66.63,35.17,11.93,35.17,3.14,0,6.07-1.88,8.79-5.86,2.72-3.77,6.49-9.63,10.88-17.58l5.86-10.47-10.05-10.26ZM123.44,837.7c16.75,6.07,23.86,13.4,23.86,21.35,0,12.77-44.59,40.61-59.87,24.7-4.81-5.02-7.54-16.54-19.26-63.85-10.47-4.19-14.86-5.86-19.89-7.75-6.28-2.3-10.26,4.81-10.26,9.84,0,18.84,18.63,35.38,25.75,18.42l6.49,6.91c-.63,15.7-18.42,7.96-28.47-8.58-12.56-20.72-4.82-36.42,4.81-32.66l42.29,16.12c47.73,17.58,94.41,16.54,94.41-2.93,0-9.63-9.84-13.19-19.26-13.19-8.37,0-14.86,3.14-20.3,7.96l-9.21-2.09c6.07-4.4,14.65-7.12,27.21-7.12,13.4,0,26.59,4.4,26.59,13.19,0,10.68-27.42,25.12-64.89,19.68ZM90.36,828.69l-20.93-8.37c9.21,38.31,18.84,58.61,28.68,62.59,18,7.33,41.45-9.21,41.45-23.86,0-22.19-25.75-20.93-49.19-30.35Z"/>
      <path class="cls-1" d="M83.25,800.64c-25.75,0-34.33,3.14-21.14,7.12l-1.26,2.3c-14.23-6.07-29.31-9.63-45.63-10.47v-1.05l62.38-5.02c-25.54-.63-41.45-2.09-41.45-11.72,0-18.63,69.29-26.17,67.41-69.71l22.61,23.24c-10.26,28.89-77.66,23.03-77.66,43.75,0,15.7,44.17,14.03,130.62,6.28l25.12,23.45c-40.4-6.07-95.25-8.16-121-8.16ZM5.16,798.55v-33.49c14.86,0,26.38-3.35,34.75-9.84-2.93-2.51-5.23-1.88-10.05-2.3-20.93-.84-22.82-16.96-22.82-43.96,0-35.17,5.02-69.5,27.84-66.15,16.12,3.14,22.4,20.93,24.49,38.73,1.05,9.21,1.46,19.68,1.46,31.61,3.35-10.89,7.12-19.68,13.4-27.21l21.56,21.77L5.16,798.55ZM129.51,710l-.42.63c-2.09,4.4,2.51,6.07,10.26,4.4,5.23-1.05,11.51-1.67,11.51.63,0,2.93-6.07,2.3-10.89,1.67-12.35-1.47-11.93,0-7.96,5.23,4.4,5.02,12.35,9.84,22.19,13.19,15.28,5.23,15.07,10.88,24.49,43.12l-1.26-.84c-7.12-26.17-10.05-31.82-25.12-35.38-16.12-3.77-34.33-18.21-26.58-30.35,3.77-5.86,9.21-9.84,15.28-11.93-7.12-2.93-10.68-9.84-4.61-20.1,11.51-19.89,61.75-25.54,72.22-73.27h1.05c-5.44,70.76-53.59,48.15-71.59,74.52-6.28,9.42-2.72,16.75,5.23,18,27.42-7.33,68.24,19.05,66.36,63.22h-.84c-4.19-39.77-63.22-77.87-79.34-52.75ZM37.19,654.95c-13.61,0-19.26,28.26-19.26,54.01,0,18.84,1.46,40.19,13.4,40.19,5.02,0,11.51-3.35,14.86-3.35.63,0,1.26,0,1.67.21,5.23-8.16,8.16-16.96,11.09-27,0,0,1.67-5.02,1.67-5.44-2.93-24.91-10.47-58.61-23.45-58.61ZM134.32,661.02c-19.05,0-26.38-16.33-30.98-30.77-3.98-12.56-9.21-22.82-22.19-22.82-10.68,0-16.12,7.96-16.12,19.05,0,9.63,5.44,21.35,40.4,66.36,1.46,1.88,2.72,4.19,2.72,6.28,0,1.88-1.26,3.98-3.35,3.98-2.93,0-4.4-2.51-4.4-6.7,0-1.47.21-3.14.63-5.02-4.4-7.75-32.66-37.47-45.43-52.12-5.23-5.86-12.35-12.98-19.26-12.98-3.35,0-6.49,1.26-7.75,3.35l-4.81-10.26c1.26-1.67,4.4-2.93,7.75-2.93,7.96,0,14.44,9,21.98,17.79.42.63,21.35,24.28,36.42,41.45l.42-.42c-21.56-29.52-32.66-44.59-32.66-53.8,0-10.68,6.49-17.79,16.96-17.79,38.1,0,30.98,54.64,65.1,54.64,14.23,0,37.05-22.82,37.05-38.31,0-21.56-34.96-14.03-43.33,6.91l-7.33-6.07c1.67-8.37,14.44-17.58,29.52-17.58,11.72,0,22.4,4.61,22.4,17.38,0,15.91-23.24,40.4-43.75,40.4ZM199.01,658.29c-2.09-.42-6.07-1.05-9.63-.84-4.81.42-5.65,1.67-12.14,3.98.21-4.81,9.63-7.54,14.86-9-5.44,4.81-6.28,5.23,6.7,3.98,2.09-.21,3.98-.21,3.98,1.05,0,1.05-2.51,1.05-3.77.84Z"/>
      <path class="cls-1" d="M129.51,609.31c-17.17,0-54.64-5.65-54.64-28.05,0-6.91,3.14-15.28,6.91-20.1-23.86,14.65-39.98,35.8-21.35,46.89l1.05.63-.63,1.47c-21.14-10.89-38.31-12.77-50.87-4.61l-.63-2.09c26.17-24.49,57.78-50.66,112.83-66.57l-25.12-19.05,6.28-6.91,41.45,37.89-.42.63-.63-.42c-7.12-4.61-17.79-4.81-29.52-1.88,30.35,25.33,70.75,27,70.75,44.59,0,10.89-31.19,17.58-55.47,17.58ZM111.93,547.76c-3.98,1.05-7.75,2.3-11.72,3.98-17.79,11.93-21.14,23.66-21.14,29.31,0,20.1,31.4,22.4,49.4,22.4s34.12-5.23,34.12-13.61c0-11.51-34.12-26.17-50.66-42.08ZM50.38,544.21c-1.67-1.47-3.35-2.3-5.23-2.3-2.3,0-5.23,1.47-8.58,4.6-1.88,1.47-2.93,2.3-3.56,2.3-1.26,0-1.88-2.51-1.88-7.54v-48.77l7.12-7.95c-1.26-.84-2.51-1.26-3.56-1.26-1.46,0-2.93.42-4.61,1.05-1.88.63-3.35.84-4.19.84-1.88,0-3.56-1.26-5.02-3.56-1.47-2.3-2.72-6.28-3.77-12.14-.84-5.02-1.88-8.79-2.93-11.3s-2.09-3.77-3.14-3.77c-1.47,0-2.72,2.09-3.77,6.49s-1.46,9.84-1.46,16.33l-.21,28.68c0,10.68.42,19.05,1.26,25.12,1.05,6.28,2.72,9.42,5.44,9.42,1.88,0,3.98-1.67,6.28-5.02v48.36c-1.05-.84-2.3-3.14-2.51-3.77-1.67-3.14-2.72-4.6-5.02-4.6-.42,0-1.05.21-1.88.42-2.72,1.05-4.6-6.7-5.65-23.24-1.05-16.33-1.47-40.82-1.47-73.69v-11.93c0-14.86,0-25.54.21-32.24.21-12.77,1.46-19.26,3.98-19.26.63,0,1.67.63,3.14,1.67,3.98,5.02,6.49,12.14,9.21,23.03,1.67,6.07,3.14,11.09,4.61,14.65,2.72,7.54,7.95,13.19,15.7,13.19,3.98,0,8.58-1.26,13.61-3.77l5.23,5.23-22.19,23.86,27.63-18.84,30.14,29.73-42.91,39.98ZM204.87,552.16c-13.82,44.38-55.26,11.72-59.45-34.33-.21-3.14-4.19-3.35-11.72-2.93-5.44.21-8.16.42-8.79,5.44-.21,1.67-1.26,2.09-2.51.84l-3.35-3.35c-.63-.84-.84-1.67-.63-2.93,3.77-20.31,15.91-39.35,30.35-50.87,38.94-31.4,60.92-3.98,60.92,48.36,0,16.33-1.67,29.73-4.82,39.77ZM150.44,464.45c-11.09,8.16-21.14,22.61-24.49,43.54-1.05,7.54-1.05,6.07,12.77,6.07,3.56,0,6.28-.63,6.28-5.44-.21-21.56,4.4-44.38,18.42-44.38,4.4,0,9.63,2.3,15.91,7.54.84.63.21,1.88-.84,1.67-6.28-1.05-11.72.42-15.91,4.19-3.98,3.56.21,4.4,8.37,3.14,4.19-.63,8.79-1.05,9,1.26.21,1.88-5.02,1.67-9.42.63-6.7-1.67-12.56-.84-15.49,5.23-4.61,9.63-6.28,21.56-6.28,31.19,0,41.24,39.15,60.71,53.59,23.24,3.56-9.21,5.65-18.21,5.65-33.91,0-36.01-30.14-63.85-57.57-43.96ZM70.48,486.43l-35.38,24.49v21.35l44.38-37.26-9-8.58ZM112.13,478.47c-23.03,1.47-22.82-39.35-8.58-72.85-29.52,3.35-58.61,12.56-67.83,25.54l-7.33-7.54c12.98-12.98,59.45-20.93,97.97-20.93,30.35,0,56.31,5.44,56.31,16.75,0,15.28-50.45,58.2-70.55,59.03ZM126.37,404.16c-7.12,0-14.44.63-21.56,1.26-13.4,32.03-10.26,66.36,14.44,66.36,21.14,0,56.52-35.59,56.52-51.92,0-10.05-18-16.12-49.4-15.7Z"/>
      <path class="cls-1" d="M99.78,380.09c-3.77,12.14-10.47,24.28-34.12,24.28-14.03,0-26.59-5.23-42.71-14.03l1.05-1.88c11.51,6.7,32.45,13.4,46.68,9.42-7.12-5.86-14.03-17.58-20.72-36.63l2.09-1.05c6.07,19.05,15.28,31.61,25.75,31.61,8.16,0,12.56-9.21,17.58-28.47,3.77-14.86,5.02-32.45,16.54-32.45,19.47,0,72.64,51.71,72.64,66.15,0,12.98-39.56,9.42-84.78-16.96ZM118.62,341.57c-10.26,0-13.4,19.47-18.21,36.42,20.31,11.09,43.33,20.31,54.01,20.31,8.58,0,12.56-4.19,12.56-11.09,0-15.49-29.1-45.63-48.36-45.63ZM209.06,377.78c-2.72,32.45-14.03,24.07-27.84-11.51h.84c8.37,22.82,17.38,29.52,21.14,4.81,3.35-19.68,5.23-44.17,5.23-66.99-.21-3.98-.42-4.19-3.35-4.19s-3.56.21-3.77,1.26l-.21,1.05c0,.63-.21,1.26-.42,2.09-2.51,7.95-10.68,15.7-25.33,20.72-23.86,8.37-39.77-11.51-43.75-11.51-1.88,0-2.72.84-2.72,2.3,0,5.02,10.47,17.79,22.4,30.98,7.75,7.33,20.72-.42,21.14,2.93.42,4.19-7.54-.42-19.68.84-14.65-15.07-25.96-26.59-25.96-33.49,0-3.77,1.67-5.23,4.4-5.23,23.66,0,59.24,28.47,59.24-9.21,0-22.4-37.05-39.15-56.1-22.4-3.56,3.14-7.12,6.7-11.09,10.47-2.3,2.51-2.09,4.4,1.67,4.4,6.28,0,11.51-2.3,11.51,0s-5.23.21-9.84.42c-8.58.42-7.96.42-11.51,3.35l-7.54,7.33-1.05-1.05c66.99-66.15,81.64-85.62,94.62-80.59,5.86,2.3,9.21,14.65,9,52.96-.21,43.75.84,79.97-1.05,100.27ZM67.55,329.01c-.84-1.47-2.09-3.14-3.77-4.61-2.3-2.09-4.19-4.61-5.65-7.33-1.26-2.72-1.88-7.33-1.88-13.61v-9.84c0-5.23-.21-9.21-.63-11.51-.42-2.3-1.26-4.19-2.51-5.86-1.05-1.67-3.56-4.4-7.33-8.37l-16.96-17.79c4.4,5.65,7.75,12.77,10.26,21.14,3.14,10.68,4.61,23.45,4.61,38.1,0,8.79-.63,18.84-1.67,30.35-1.67,16.54-5.02,27.84-10.26,33.91-5.02,6.07-10.47,8.79-16.12,8.37v-17.17H.35v-15.28h15.28v15.28c1.05.21,2.3.42,4.19.42,9.21,0,14.65-8.79,16.33-26.17,1.05-10.47,1.46-18.84,1.46-25.12,0-15.91-2.09-28.05-6.49-36.63-4.4-8.37-11.09-12.56-20.51-12.56l13.82-19.47-14.86-15.49-4.19,12.56v-31.61l68.66,68.66c-4.4,0-7.54.42-9.42,1.67-1.88,1.05-3.35,3.14-3.98,6.28-.63,3.14-1.05,8.16-1.05,15.28,0,10.26,2.72,15.28,13.4,15.28,6.49,0,10.47-4.81,10.47-10.05,0-6.49-2.3-9.84-7.33-9.84-2.09,0-3.77.63-5.02,2.09v-12.35h13.19c-1.46,3.14-2.3,5.44-2.3,7.33,0,4.4,3.98,6.49,11.72,6.49l5.65,4.4-30.56,29.73c0-2.93-.42-5.23-1.26-6.7ZM194.61,235.43c-9-6.91-33.08,16.54-55.26,39.36l.21.42c18.21-9,57.15,1.26,61.54,20.1.84,2.93,0,4.4,3.98,4.4,2.51,0,2.93,0,3.14-2.72-.63-29.31-4.61-54.64-13.61-61.54ZM102.09,275l4.81-7.74c3.14,2.3,6.91,3.35,11.09,3.35,23.45,0,56.52-35.8,56.52-50.87,0-20.1-13.19-18.42-75.36-10.26-18.21,2.3-41.03,3.14-57.99,3.14,37.47,4.19,69.08,10.68,69.08,31.19-.63,11.09-13.82,19.47-28.05,19.47s-34.54-10.47-34.54-22.61c0-7.75,11.72-10.05,20.72-10.05,11.3,0,17.79,3.77,22.4,9.63l-5.02,3.98c-4.4-8.58-12.14-12.56-19.68-12.56-6.91,0-13.19,2.72-13.19,9.63,0,13.19,18.42,20.72,29.93,20.52,11.09,0,19.47-7.12,19.47-15.28,0-21.98-34.96-30.56-72.22-34.12-3.77,0-6.91-.21-9.21-.42-2.3-.21-5.02-1.05-6.49-2.72-1.26-1.47-1.46-3.77,0-5.23,2.09-2.09,5.23-1.46,7.75,1.88.84,1.05,1.88,2.51,2.93,4.19,5.86,2.72,43.12-.42,72.64-3.77,69.08-7.74,83.94-7.12,83.94,11.1,0,16.75-60.71,72.43-79.55,57.57Z"/>
      <path class="cls-1" d="M407.52,1210.31l-1.47-1.05c-31.61-22.61-171.86-13.4-191.12-.42l-1.26-.63,44.8-43.75,4.4,5.23-26.79,24.7c15.28-5.02,51.29-8.58,87.71-10.05-24.91-16.75-52.75-14.03-52.75-28.68,0-9,11.93-18.42,30.77-18.42s38.94,9,59.45,23.86l-.63,1.26c-17.79-12.35-39.35-18.63-54.22-18.63-13.19,0-19.05,5.23-19.05,11.09,0,9.84,17.79,13.19,39.15,29.52,19.47-.84,39.15-.84,55.68-.42l26.17,25.33-.84,1.05ZM401.45,1045.36c-13.19,6.07-22.82,14.86-28.68,21.98-11.72,13.82-12.77,17.58-9,30.98,1.05,3.77,3.35,5.02,12.56,3.77,4.81-.63,10.89-1.26,10.89,1.67,0,2.3-6.07,1.67-11.51.63-8.79-1.67-10.89-.42-8.79,6.91,4.61,16.33,11.09,30.56,21.14,41.45,6.7,7.33,9.42,8.58,21.56,6.7,1.26-.21,3.77,0,3.77,1.05,0,1.26-1.88,1.26-3.98,1.05-7.33-.84-11.3-1.05-11.3,1.05,0,2.3,4.81,6.7,7.12,8.79,14.65,13.19,10.47,26.38,7.12,32.66-2.09,3.98-7.54.84-3.56-2.3,11.72-9.42,4.19-20.31-7.75-25.33-11.09-4.61-25.96-1.67-35.38-13.61-3.98-5.02-5.65-9.84-7.33-14.86-7.54-21.77-12.14-27-29.31-30.14-5.44-1.05-9.42-1.88-15.49-7.33-2.51-2.3.21-5.02,2.51-2.3,4.61,5.44,9,7.33,15.91,8.16,20.51,2.3,24.28,14.44,40.82,34.54,5.86,7.12,15.91,16.12,28.89,23.03,1.05.63,2.09-.42.84-1.26-25.12-16.75-39.35-55.26-42.91-84.36-.21-1.67-1.05-1.88-1.67-.84-5.65,7.96-11.3,12.98-17.79,15.91-11.93,5.44-36.01.63-1.88-13.61,2.51-1.05,4.19,1.26,1.05,2.72-7.54,3.56-9.84,6.7-9.84,8.79,0,3.14,4.19,2.93,7.95,1.05,11.72-5.86,16.33-18.84,20.93-32.24,1.67-5.02,3.35-9.84,7.33-14.86,6.91-8.79,16.33-9.63,25.54-11.09,12.14-1.88,22.61-6.91,22.61-15.07,0-3.77-2.3-7.33-5.65-12.56-2.3-3.77,1.88-5.86,3.56-2.3,2.3,4.81,3.77,9,3.77,13.61,0,6.28-2.72,12.35-14.03,17.58ZM286.94,1119.67c-5.23,5.23-12.77,13.19-22.4,23.86-10.05,11.51-18.21,20.1-24.7,25.96-6.28,5.86-11.72,8.79-16.33,8.79-8.37,0-12.56-11.93-12.35-35.8h16.96c.21,1.46-1.26,5.65-4.61,12.56-3.14,6.49-4.61,10.47-4.61,11.93,0,.84.42,1.26,1.05,1.26,1.67,0,5.65-2.72,11.93-8.16l24.49-28.89c-1.46.63-3.14,1.67-5.02,3.14l-3.14,2.72c-2.51,2.09-4.4,3.56-5.86,4.61-1.46,1.05-2.72,1.47-3.98,1.47-2.93,0-5.23-3.77-6.7-11.09-1.47-7.33-2.09-20.31-2.09-39.36,0-17.17.42-29.31,1.26-36.63.84-7.33,2.72-10.88,5.44-10.88l-.42-1.67c1.67,0,3.56,1.88,5.86,5.65,2.3,3.77,5.02,9.21,8.16,16.54,3.77,7.75,6.7,13.61,9,17.58s4.19,5.86,6.07,5.86,3.56-2.93,5.02-8.79l9.42-4.4v21.56c0,2.72-2.51,5.02-5.65,5.02-6.91,0-12.56-7.54-16.12-13.82-4.81-9-8.58-15.28-11.09-19.26-2.51-3.77-4.4-5.65-5.44-5.65-.84,0-1.46,1.05-1.88,3.14-.63,6.7-.84,25.54-.63,42.7,0,5.65,1.67,10.26,3.77,13.61,2.09,3.35,5.02,5.02,8.58,5.02,3.35,0,7.12-1.46,11.51-4.61l23.03-27.21,16.12,12.98c-4.4,1.47-9.42,4.81-14.65,10.26ZM340.32,1062.94c-19.05,0-26.38-16.33-30.98-30.77-3.98-12.56-9.21-22.82-22.19-22.82-10.68,0-16.12,7.96-16.12,19.05,0,9.84,3.98,24.28,33.29,58.2,2.93,3.14,5.44,5.86,7.12,8.16,1.46,1.67,2.72,4.19,2.72,6.28,0,1.88-1.26,3.98-3.35,3.98-2.93,0-4.4-2.51-4.4-6.7,0-1.47.21-3.14.63-5.02-2.93-7.95-37.26-35.8-67.62-59.45-9-7.12-17.58-13.82-17.58-21.77,0-3.56,1.26-6.7,2.93-7.75l10.26,4.81c-2.09,1.26-3.35,4.4-3.35,7.54,0,5.23,3.98,12.14,13.19,19.47,18.42,14.65,38.73,30.98,52.54,43.75-26.38-31.19-33.7-47.1-33.7-56.52,0-10.68,6.49-17.79,16.96-17.79,38.1,0,30.98,54.64,65.1,54.64,14.23,0,37.05-22.82,37.05-38.31,0-21.56-34.96-14.03-43.33,6.91l-7.33-6.07c1.67-8.37,14.44-17.58,29.52-17.58,11.72,0,22.4,4.61,22.4,17.38,0,15.91-23.24,40.4-43.75,40.4Z"/>
      <path class="cls-1" d="M224.98,999.3l.84-2.72c35.59,6.49,144.44,18.21,144.44-7.95,0-15.7-51.71-35.8-96.5-33.7l-1.67-4.81c27.84-2.09,50.87-5.86,50.87-14.03,0-4.6-6.91-10.05-18-19.05l3.56-3.98,37.05,33.49-.42.42c-11.72-5.44-23.86-5.44-23.86-1.05,0,13.19,70.13,26.38,70.13,49.4,0,25.12-98.81,15.28-166.42,3.98ZM396.01,981.93c-11.09,0-26.38-14.23-42.5-48.78-7.12-15.49-14.65-39.56-14.65-21.56,0,3.77,1.67,16.12,11.3,25.33v1.46c-11.51-10.68-13.82-24.49-13.82-29.52,0-12.77,10.68-2.09,20.1,17.58,9.21,16.12,8.79,15.91,21.14,14.44,1.26-.21,3.77-.21,3.77.84,0,1.26-1.88,1.26-3.98,1.05-11.51-1.26-12.98-1.26-7.75,6.7,9.84,14.03,19.05,20.31,26.58,20.31,10.47,0,17.38-12.35,17.38-32.66,0-15.49-4.19-35.8-13.82-58.82-5.23-12.35-11.93-20.31-21.77-20.31-11.93,0-28.89,11.93-54.22,42.29l-1.05-.63c31.82-36.21,48.98-49.82,59.87-49.82.84,0,1.67,0,2.51.21,9.84,1.67,12.77,1.67,13.19.21q1.26-3.77,13.61-5.65c4.82-.84,5.02,3.77,0,3.14-9.21-1.26-10.47-.42-10.47,1.05,0,1.05,1.67,3.77-1.88,3.98-1.46.21-5.02,0-10.26-.63,5.86,4.19,9.42,14.24,14.03,27.21,8.37,23.86,11.93,45.43,11.93,62.59,0,24.7-7.54,39.98-19.26,39.98ZM255.96,943.2c-15.49,12.56-32.87,14.03-40.61,14.03,3.14,0,7.95-.84,14.03-2.3,12.35-3.14,27.84-14.65,27.84-39.56,0-12.77-1.88-22.19-5.44-28.26-7.33-12.35-15.91-13.61-25.96-13.61h-16.75v-17.17c10.26,0,17.58-.84,21.98-2.51,4.4-1.46,6.7-3.77,6.7-6.7,0-2.3-1.05-4.82-2.93-7.75s-4.81-6.7-8.79-11.51l-2.93-3.56,36.63,35.38c3.98,3.98,5.86,6.49,5.86,7.75,0,.84-1.05,1.26-3.14,1.26-6.91,0-10.05,0-11.51,4.81h-14.65c2.3,0,5.86.84,10.47,2.3,9.42,3.14,20.93,14.65,20.93,39.56,0,12.35-3.98,21.77-11.72,27.84ZM316.04,874.96c-12.35,0-22.4-7.33-30.35-14.24,5.23,6.91,19.05,31.19,23.24,38.73l-1.88.84c-3.98-8.37-18.84-33.7-24.07-41.45-7.33-2.93-11.3-5.44-11.3-8.37,0-2.09,1.26-3.14,3.35-3.14,2.72,0,3.35,1.67,9.63,11.3,12.77,7.96,23.24,9.21,36.42,9.21,29.73,0,60.71-29.93,60.71-45.01,0-15.91-7.33-23.45-60.5-11.51-37.47,8.37-84.15,12.35-100.06,3.35l5.02-9.21c15.49,12.77,59.45,11.72,94.62,4.4,54.22-11.3,68.03-3.56,68.03,10.68,0,13.4-46.47,54.43-72.85,54.43Z"/>
      <path class="cls-1" d="M348.28,809.64c-12.98,0-36.84-1.26-36.84-12.98,0-8.79,22.19-13.82,22.19-25.12,0-4.61-2.93-7.12-6.7-7.12-9.63,0-20.72,17.38-24.91,23.65-11.93,17.58-25.75,22.19-44.59,22.19-8.37,0-25.12-1.05-25.12-10.68,0-21.14,59.24-39.98,61.54-74.52h.42l17.38,21.35c-21.14,8.37-40.19,18.63-51.92,29.1,19.68-12.14,29.52-4.19,29.52,2.72,0,6.07-6.07,14.65-12.35,22.61,20.1-12.56,24.7-42.29,44.59-42.29,10.26,0,15.28,7.12,15.28,14.03,0,11.09-8.79,15.91-8.79,24.7,0,5.65,6.7,9.21,17.58,9.21,10.26,0,24.7-3.77,24.7-14.03,0-20.51-49.19-42.7-59.24-76.62h1.47c9.84,33.08,76.2,59.87,76.2,81.22,0,8.37-13.61,12.56-40.4,12.56ZM257.01,778.03c-6.28,6.07-9.84,12.35-9.84,18.21,0,8.79,5.44,10.05,9.63,10.05,6.28,0,11.72-1.26,16.33-3.35,5.02-6.7,7.33-14.44,7.33-18.63,0-9.84-11.3-13.4-23.45-6.28ZM262.03,749.56c-12.56,12.35-27.21,20.72-37.89,20.72-9,0-14.24-6.07-14.44-19.26l15.28-12.35c0,8.16,2.51,12.35,7.75,12.35,3.98,0,9.21-2.51,15.7-7.75,13.82-10.88,20.72-21.98,20.72-33.28,0-6.49-2.3-12.77-6.7-18.42-8.79-11.51-22.82-19.68-35.17-23.86,0,2.3-.42,5.65-1.46,10.05,19.26,8.58,32.45,19.05,32.45,29.93,0,7.75-6.49,15.07-19.47,22.19-9.42,5.23-16.54,7.75-21.35,7.75-5.65,0-8.37-3.56-8.37-10.47,0-5.02,1.88-13.19,3.56-20.51,1.05-3.56,1.88-7.33,2.51-11.3v-.21l-6.91-.42,1.05-23.45,7.12,2.72.42-8.58-1.67-43.33c3.56,3.98,5.23,8.37,7.54,15.91,1.47,5.23,3.14,9.21,4.82,12.14,3.35,6.07,11.09,10.89,25.54,10.89,2.51,4.4,6.28,7.96,14.03,14.65,13.4,11.51,20.51,18.84,20.51,31.19s-8.58,26.17-25.54,42.7ZM383.03,760.87c-26.17,0-59.24-38.73-59.03-63.85,0-1.26.42-1.88,1.26-2.72l3.77-3.77c.84-.84,1.67-.42,1.67.63.42,32.03,20.51,63.64,44.8,63.64,20.72,0,38.52-23.03,38.52-50.66s-8.16-52.54-27.21-52.54-34.54,15.7-37.26,35.59c-.63,4.61,1.05,3.77,4.4,3.77,4.81,0,5.65-2.09,6.28-6.07,2.09-13.4,9.21-20.72,17.79-20.72,15.91,0,25.75,20.52,25.75,40.19,0,25.96-16.75,39.56-32.45,39.56-18,0-26.38-19.47-26.38-38.94,0-29.1,18.84-61.96,45.84-61.96,21.56,0,24.91,25.96,24.91,57.15,0,36.22-12.14,60.71-32.66,60.71ZM382.19,670.85c-14.23,0-23.65,15.7-19.47,36.84.21,1.05-.84,1.26-1.05.21-.84-3.35-1.26-7.75-1.67-11.72-.42-4.19-1.46-4.81-5.86-4.61-4.19.21-5.02.63-5.02,6.28.42,8.58,3.35,18.42,6.7,24.7,2.51,4.19,5.23,6.28,8.58,6.28,2.3,0,5.02-.42,8.37-.84,4.81-.63,10.89-1.26,10.89,1.67,0,2.3-5.86,1.67-11.51.63s-10.26-.84-10.26.42c0,2.72,7.12,5.44,13.61,5.44,13.19,0,26.79-10.26,26.79-31.82,0-15.7-7.12-33.49-20.1-33.49ZM242.56,699.74c-6.07-1.67-12.98-2.93-20.93-3.98-1.05,5.23-1.47,9.21-1.47,12.35,0,6.91,2.09,10.68,7.75,10.68,2.72,0,5.86-.84,9.42-2.3,3.98-1.88,7.33-3.77,10.05-5.65,2.72-1.88,4.19-3.56,4.19-5.02,0-2.3-2.93-4.19-9-6.07ZM314.37,658.71l3.35-12.14c4.81,9.42,11.72,12.56,19.89,12.56,23.24,0,44.17-22.61,44.17-37.68,0-11.93-10.89-16.75-22.61-16.75-23.66,0-57.57,14.44-57.99,31.61-.21,7.12,4.61,17.58,9.63,28.26,4.4,9.42,8.16,16.96,8.16,21.98,0,3.77-2.51,5.86-7.96,5.86-14.23,0-32.87-16.75-32.87-30.14,0-7.95,6.28-13.19,13.4-25.54l-.84-.42c-18.63,20.31-47.73,14.23-47.73-10.26,0-8.16,5.02-14.86,14.24-18.84l-.63-1.47c-16.12,2.93-26.59,6.91-33.29,11.93l-9-9c5.44-4.19,20.1-4.61,54.85-4.61,14.44,0,25.96,10.05,25.96,22.61s-10.26,16.54-10.26,34.54c0,14.44,14.86,30.14,23.86,30.14,5.02,0,6.7-2.51,6.7-6.49,0-11.93-15.49-36.21-15.49-47.94,0-26.59,27.21-34.33,51.29-34.33,16.33,0,37.68,4.19,37.68,17.38,0,17.17-55.47,63.43-74.52,38.73ZM269.15,605.96c-30.14,0-26.79,38.31-1.05,38.31,11.93,0,24.07-5.65,25.75-17.38,0-.63.21-1.26.21-1.88,0-9.63-10.47-19.05-24.91-19.05Z"/>
      <path class="cls-1" d="M407.52,607.43l-1.47-1.05c-31.61-22.61-171.86-13.4-191.12-.42l-1.26-.63,44.8-43.75,4.4,5.23-26.79,24.7c15.28-5.02,51.29-8.58,87.71-10.05-24.91-16.75-52.75-14.03-52.75-28.68,0-9,11.93-18.42,30.77-18.42s38.94,9,59.45,23.86l-.63,1.26c-17.79-12.35-39.35-18.63-54.22-18.63-13.19,0-19.05,5.23-19.05,11.09,0,9.84,17.79,13.19,39.15,29.52,19.47-.84,39.15-.84,55.68-.42l26.17,25.33-.84,1.05ZM401.45,442.47c-13.19,6.07-22.82,14.86-28.68,21.98-11.72,13.82-12.77,17.58-9,30.98,1.05,3.77,3.35,5.02,12.56,3.77,4.81-.63,10.89-1.26,10.89,1.67,0,2.3-6.07,1.67-11.51.63-8.79-1.67-10.89-.42-8.79,6.91,4.61,16.33,11.09,30.56,21.14,41.45,6.7,7.33,9.42,8.58,21.56,6.7,1.26-.21,3.77,0,3.77,1.05,0,1.26-1.88,1.26-3.98,1.05-7.33-.84-11.3-1.05-11.3,1.05,0,2.3,4.81,6.7,7.12,8.79,14.65,13.19,10.47,26.38,7.12,32.66-2.09,3.98-7.54.84-3.56-2.3,11.72-9.42,4.19-20.31-7.75-25.33-11.09-4.61-25.96-1.67-35.38-13.61-3.98-5.02-5.65-9.84-7.33-14.86-7.54-21.77-12.14-27-29.31-30.14-5.44-1.05-9.42-1.88-15.49-7.33-2.51-2.3.21-5.02,2.51-2.3,4.61,5.44,9,7.33,15.91,8.16,20.51,2.3,24.28,14.44,40.82,34.54,5.86,7.12,15.91,16.12,28.89,23.03,1.05.63,2.09-.42.84-1.26-25.12-16.75-39.35-55.26-42.91-84.36-.21-1.67-1.05-1.88-1.67-.84-5.65,7.95-11.3,12.98-17.79,15.91-11.93,5.44-36.01.63-1.88-13.61,2.51-1.05,4.19,1.26,1.05,2.72-7.54,3.56-9.84,6.7-9.84,8.79,0,3.14,4.19,2.93,7.95,1.05,11.72-5.86,16.33-18.84,20.93-32.24,1.67-5.02,3.35-9.84,7.33-14.86,6.91-8.79,16.33-9.63,25.54-11.09,12.14-1.88,22.61-6.91,22.61-15.07,0-3.77-2.3-7.33-5.65-12.56-2.3-3.77,1.88-5.86,3.56-2.3,2.3,4.81,3.77,9,3.77,13.61,0,6.28-2.72,12.35-14.03,17.58ZM286.94,516.78c-5.23,5.23-12.77,13.19-22.4,23.86-10.05,11.51-18.21,20.1-24.7,25.96-6.28,5.86-11.72,8.79-16.33,8.79-8.37,0-12.56-11.93-12.35-35.8h16.96c.21,1.47-1.26,5.65-4.61,12.56-3.14,6.49-4.61,10.47-4.61,11.93,0,.84.42,1.26,1.05,1.26,1.67,0,5.65-2.72,11.93-8.16l24.49-28.89c-1.46.63-3.14,1.67-5.02,3.14l-3.14,2.72c-2.51,2.09-4.4,3.56-5.86,4.61-1.46,1.05-2.72,1.47-3.98,1.47-2.93,0-5.23-3.77-6.7-11.09-1.47-7.33-2.09-20.31-2.09-39.35,0-17.17.42-29.31,1.26-36.63.84-7.33,2.72-10.89,5.44-10.89l-.42-1.67c1.67,0,3.56,1.88,5.86,5.65s5.02,9.21,8.16,16.54c3.77,7.75,6.7,13.61,9,17.58,2.3,3.98,4.19,5.86,6.07,5.86s3.56-2.93,5.02-8.79l9.42-4.4v21.56c0,2.72-2.51,5.02-5.65,5.02-6.91,0-12.56-7.54-16.12-13.82-4.81-9-8.58-15.28-11.09-19.26-2.51-3.77-4.4-5.65-5.44-5.65-.84,0-1.46,1.05-1.88,3.14-.63,6.7-.84,25.54-.63,42.7,0,5.65,1.67,10.26,3.77,13.61,2.09,3.35,5.02,5.02,8.58,5.02,3.35,0,7.12-1.47,11.51-4.61l23.03-27.21,16.12,12.98c-4.4,1.47-9.42,4.81-14.65,10.26ZM340.32,460.05c-19.05,0-26.38-16.33-30.98-30.77-3.98-12.56-9.21-22.82-22.19-22.82-10.68,0-16.12,7.95-16.12,19.05,0,9.84,3.98,24.28,33.29,58.2,2.93,3.14,5.44,5.86,7.12,8.16,1.46,1.67,2.72,4.19,2.72,6.28,0,1.88-1.26,3.98-3.35,3.98-2.93,0-4.4-2.51-4.4-6.7,0-1.47.21-3.14.63-5.02-2.93-7.96-37.26-35.8-67.62-59.45-9-7.12-17.58-13.82-17.58-21.77,0-3.56,1.26-6.7,2.93-7.75l10.26,4.81c-2.09,1.26-3.35,4.4-3.35,7.54,0,5.23,3.98,12.14,13.19,19.47,18.42,14.65,38.73,30.98,52.54,43.75-26.38-31.19-33.7-47.1-33.7-56.52,0-10.68,6.49-17.79,16.96-17.79,38.1,0,30.98,54.64,65.1,54.64,14.23,0,37.05-22.82,37.05-38.31,0-21.56-34.96-14.03-43.33,6.91l-7.33-6.07c1.67-8.37,14.44-17.58,29.52-17.58,11.72,0,22.4,4.61,22.4,17.38,0,15.91-23.24,40.4-43.75,40.4Z"/>
      <path class="cls-1" d="M303.27,406.46c-24.91,0-68.24.63-68.24-9,0-12.35,39.15-54.85,54.64-54.85,21.98,0,18,45.43,34.96,57.99,28.68-1.05,39.15-4.81,39.15-12.14,0-18-37.89-24.07-50.03-73.9l1.46-.21c16.54,59.24,80.59,64.27,80.59,80.38,0,10.05-47.94,11.72-92.53,11.72ZM285.27,359.57c-19.68,0-33.28,13.61-33.28,23.65,0,15.07,23.03,17.79,52.12,17.79,6.07,0,11.51,0,16.33-.21-15.49-11.3-12.14-41.24-35.17-41.24ZM220.37,389.09l-10.26-11.3v-80.8c0-12.98,1.67-20.51,10.68-20.51s12.14-.21,13.4,3.56c.63,1.88,1.05,5.23,1.05,10.26,0,3.98,2.3,7.33,6.91,10.05s11.09,5.65,19.68,8.79c4.81,1.67,8.58,3.14,11.51,4.61l1.67.84,2.72-2.51q4.4-3.77,12.98-6.07c3.56-1.05,5.23-1.67,5.23-1.88s-1.05-.42-2.93-.42c-3.56,0-6.07-.42-7.95-1.46-1.67-1.05-3.35-2.51-5.02-4.4-55.68-55.68,7.75,8.16-46.89-47.52l6.7,5.23c31.82,24.91,54.01,41.24,66.36,48.98l-85.83,84.57ZM398.1,382.6c-26.17,0-44.17-57.78-44.17-90.01,0-.84-.63-.84-.63,0,0,13.61-3.77,30.77-15.91,30.77s-18.63-9.42-18.63-17.79c0-13.61,12.98-17.38,21.35-17.38,3.98,0,6.91.84,6.49,2.09-.42,1.26-1.88.84-3.56.21-6.7-2.93-11.72,0-14.86,4.61-1.88,2.51-2.93,5.65-2.93,8.79,0,5.23,2.09,5.86,18.21,5.86,6.91,0,7.54-2.72,8.37-10.47.42-4.81.84-11.51.42-16.12-.21-1.88.63-2.72,1.46-2.72s1.67.84,1.47,2.72c-.21,2.93-.42,6.07-.21,9.42,1.05,18.21,5.02,35.59,10.05,44.8,3.14,5.86,10.05,5.86,18.42,5.23,4.82-.42,10.89-1.26,10.89,1.67,0,2.3-5.86,1.67-11.51.63-2.51-.42-4.81-.63-6.49-.63-5.23,0-6.91,2.72-6.91,6.28,0,6.91,7.33,16.96,17.17,16.96,12.14,0,25.96-10.26,26.38-34.12.42-29.73-10.05-61.54-29.31-88.76-2.72-3.98-3.14-7.75-1.05-10.05,2.51-2.72,7.12-2.72,10.05,2.3,17.79,30.35,22.61,64.68,22.61,95.67s-4.81,50.03-17.17,50.03ZM235.03,318.12c-3.35-13.4-6.28-23.86-12.14-26.59v67.82l3.56,3.56,18.21-18c-4.4-6.49-7.12-16.33-9.63-26.79ZM338.44,310.38c-8.37,0-12.77.63-13.19,3.98-.42,4.4,3.14,6.28,7.33,6.28,5.86,0,16.75-4.81,16.33-8.16-.21-2.09-6.28-2.09-10.47-2.09ZM311.64,276.25c-1.67,0-3.35-.21-5.23-.42,2.09,7.54,4.19,15.49,6.07,24.28l-1.47.42c-2.09-9-4.19-17.38-6.49-25.12-26.59-5.86-68.45-41.24-68.45-58.2,0-9.84,6.91-14.86,16.96-14.86,19.47,0,37.26,20.72,51.08,65.73,2.72.42,5.02.63,7.54.63,29.52,0,76.83-36.01,70.76-54.64-5.02-16.12-34.96-9-42.91,11.09l-7.33-6.07c1.67-8.37,14.44-17.58,29.52-17.58,11.72,0,22.4,4.61,22.4,17.38,0,22.4-45.63,57.36-72.43,57.36ZM257.01,207.8c-7.12,0-13.4,3.35-13.4,10.89,0,18.84,31.19,43.96,58.61,49.19-12.98-40.82-28.89-60.08-45.22-60.08Z"/>
      <path class="cls-1" d="M323.16,201.94v-1.47c24.07,2.3,49.61,3.98,49.61-15.28,0-14.65-25.12-36.63-37.89-36.63-7.12,0-11.72,6.7-18,21.77-12.77,30.77-34.75,35.17-55.05,35.17-16.33,0-30.14-3.56-41.24-6.07l48.78-50.66c11.51,1.05,19.05,7.75,24.28,18l-.42.63c-19.89-14.86-48.78,5.65-48.78,20.93,0,7.96,7.54,12.77,17.38,12.77,23.24,0,36.42-19.05,43.75-38.52,6.91-17.79,9.21-31.61,19.47-31.61,12.77,0,64.27,56.94,75.36,68.45-23.03,7.75-49.82,5.86-77.25,2.51ZM379.47,171.38l.42-.63c23.03,18.42,27.21,9.42,27.21-15.07,0-11.51-3.35-19.26-6.07-27.84-1.47-3.77-2.09-2.72-14.86-3.35-5.23-.21-6.91-.42-9.42,3.14l-.84,1.05c-2.09,4.19-1.26,3.77,2.72,4.19,4.4.42,9.21-2.3,9.21,0,0,1.88-4.81,1.05-7.54.84-3.35-.21-5.65-.84-11.51,2.3l-1.46.84c-5.44,2.72-11.72,2.51-19.05-1.26-9.21-4.81-28.26-16.33-28.26-30.98,0-20.51,23.65-20.93,47.52-11.72l-.42.84c-17.79-7.12-33.7-3.56-37.26,8.58-1.67,6.7-.84,7.75,8.58,6.7,3.98-.42,9-.84,9,1.46,0,1.88-5.23,1.26-9.42.42-6.7-1.26-9.21-.42-7.75,4.19,4.19,12.56,18.42,23.24,38.1,11.3,24.91-15.07,5.65-37.68,5.65-65.52,0-45.01,54.64-53.59,37.89-3.14-4.81,14.23-11.72,24.07-11.72,37.89,0,18.63,15.49,33.7,15.49,54.43,0,27.63-10.26,45.22-36.21,21.35ZM261.4,122.6c-10.47,21.56-28.89,57.99-38.31,57.78-12.77-.21-16.75-48.57-16.75-75.57,0-25.54,3.98-37.05,6.07-53.8,1.05-8.16,3.56-25.96,0-37.05,11.93,12.56,29.52,29.73,35.17,36.63,2.93,3.56,3.98,6.28,3.98,9.84,0,4.4-3.14,7.54-7.12,7.54-4.4,0-7.54-2.72-7.54-7.54,0-4.19,4.19-7.12.63-10.88-17.38,8.37-23.66,35.59-23.66,55.89,0,18,1.47,39.56,15.28,39.77,22.82.21,30.77-75.78,55.05-65.52,10.47,4.4,17.17,26.17,11.3,37.68-6.7,13.19-26.38,9.63-34.12,5.23ZM387.84,34.26c-5.86,3.77-3.98,4.4,1.46,3.98l5.65-.63c1.67-.21,2.93-.21,2.93.84,0,1.47-6.28.21-9.21.21-3.77.21-7.33,1.26-7.75,4.6v1.26c-3.35-7.12,4.61-8.79,7.33-10.47l-.42.21c-3.77,2.09-6.7,5.02-6.91,9v.42c0,5.86,4.4,15.7,5.02,31.19.63,17.17-1.05,32.03-4.82,42.91-1.46,5.03,0,6.28,5.23,6.28,5.86,0,12.77,1.67,12.35-4.61-.84-4.19-1.47-8.79-1.47-14.24,0-30.77,12.77-54.01,12.77-64.06s-13.61-11.09-22.19-6.91ZM278.36,101.88c-4.4-1.26-7.75,1.88-9.84,6.28-.63,1.26-2.09,4.19-3.98,8.37,6.49,3.77,15.49.42,17.79-5.02,2.72-6.28-1.26-8.79-3.98-9.63ZM329.65,62.94c-6.07,0-11.51-2.09-15.28-7.12l3.35-12.14c4.81,9.42,11.72,12.56,19.89,12.56,23.24,0,44.17-22.61,44.17-37.68,0-11.93-10.89-16.12-22.61-16.12-21.77,0-54.85,26.59-79.55,35.38,7.75,14.03,18,33.49,32.87,60.08l-1.47.63c-13.61-26.79-24.7-46.05-33.7-59.87-4.19,1.26-7.95,1.88-11.3,1.88-14.03,0-41.45-19.05-41.45-30.14,0-6.7,10.26-8.37,17.37-8.37,14.65,0,20.72,5.44,35.59,32.03C299.71,25.26,324,.35,351.21.35c16.33,0,37.68,3.56,37.68,16.75s-35.17,45.84-59.24,45.84ZM238.59,3.49c-3.98,0-7.12,2.51-7.12,6.91,0,12.35,16.54,27.21,32.87,26.79,3.56,0,7.12-.84,10.68-2.09-18.21-27-28.26-31.61-36.42-31.61ZM388.26,34.05l.42-.21c-.21,0-.21.21-.42.21Z"/>
    </g>
  </g>
</svg>