<?xml version="1.0" encoding="UTF-8"?>
<svg id="Layer_2" data-name="Layer 2" xmlns="http://www.w3.org/2000/svg" viewBox="0 0 423.53 1285.36">
  <defs>
    <style>
      .cls-1 {
        stroke: #fff;
        stroke-width: 1.21px;
      }
    </style>
  </defs>
  <g id="Home_Page_Text_copy_2" data-name="Home Page Text copy 2">
    <g id="Abhaya_Libre" data-name="Abhaya Libre">
      <path class="cls-1" d="M196.93,1125.58c15.33,16.04,22.99,39.03,22.99,68.98,0,25.71-6.01,47.64-18.04,65.8,4.01,0,7.2.24,9.55.71,3.78,1.18,5.66,4.95,5.66,11.32h-74.99v-13.79c12.5-.94,23.58-3.54,33.25-7.78,22.88-10.14,34.31-27.71,34.31-52.71,0-6.6-.94-12.61-2.83-18.04-5.66-15.09-16.98-22.64-33.96-22.64-4.95,0-9.78,1.06-14.5,3.18-9.9,4.95-20.16,17.57-30.78,37.85-11.55,22.64-18.27,35.37-20.16,38.2-13.91,22.41-30.65,33.61-50.23,33.61-13.2,0-24.64-4.6-34.31-13.8-14.86-14.38-22.29-35.84-22.29-64.38,0-21.69,4.6-42.33,13.8-61.9-2.12,0-4.01-.12-5.66-.35-4.48-1.18-6.72-5.07-6.72-11.67h64.03v13.8c-12.73.24-23.7,3.3-32.9,9.2-14.62,9.67-21.93,24.18-21.93,43.51,0,4.95.71,9.67,2.12,14.15,4.48,13.44,13.68,20.16,27.59,20.16,5.43,0,10.61-1.18,15.56-3.54,10.14-4.95,20.4-17.33,30.78-37.14,11.56-21.69,18.16-34.08,19.81-37.14,13.92-21.46,30.66-32.19,50.23-32.19,15.56,0,28.77,5.54,39.62,16.63Z"/>
      <path class="cls-1" d="M216.38,977.77h-9.55v-25.12l-67.92,26.53v70.39l67.92,25.47v-19.81c0-1.41.12-2.71.35-3.89.47-3.06,3.54-4.6,9.2-4.6v65.09h-9.55v-22.64L4.14,1011.73v-26.18l202.69-83.48v-10.61c0-1.42.12-2.71.35-3.89.47-3.06,3.54-4.6,9.2-4.6v94.8ZM46.94,1014.91l81.36,30.42v-61.9l-81.36,31.48Z"/>
      <path class="cls-1" d="M4.14,731.45v-71.46h9.55v28.3h200.92l3.54,20.16-158.83,136.19h147.51v-20.52c.47-4.95,3.66-8.14,9.55-9.55v73.22h-9.55v-28.3H13.69v28.3H4.14v-59.78l146.45-124.87H13.69v28.3H4.14Z"/>
      <path class="cls-1" d="M4.14,549.7c0-26.18,6.25-49.05,18.75-68.62,19.34-29.71,48.7-44.57,88.08-44.57,30.9,0,56.13,10.38,75.7,31.13,19.81,21.22,29.71,48.23,29.71,81.01v105.41h-9.55v-28.3H13.69v28.3H4.14v-104.35ZM13.69,576.23h193.14v-26.88c0-11.08-2.24-20.4-6.72-27.95-11.55-19.57-41.86-29.36-90.91-29.36-24.52,0-44.22,2.36-59.07,7.07-24.29,8.26-36.44,24.76-36.44,49.52v27.59Z"/>
      <path class="cls-1" d="M216.38,406.12h-9.55v-30.07h-80.3L13.69,440.08v16.63H4.14v-99.05h9.55v26.88l97.99-51.65-97.99-47.76v28.3H4.14v-62.26c4.95.48,8.14,3.66,9.55,9.55.24,7.31,3.54,13.21,9.91,17.69l100.46,48.11h82.78v-20.52c.47-4.95,3.66-8.14,9.55-9.55v109.66Z"/>
      <path class="cls-1" d="M419.38,1284.76h-9.55v-28.3h-193.14v28.3h-9.55v-106.12h9.55v28.3h88.08v-89.85h-88.08v28.3h-9.55v-106.12h9.55v28.3h193.14v-18.75c.47-4.95,3.66-8.14,9.55-9.55v106.12h-9.55v-28.3h-94.45v89.85h94.45v-18.75c.47-4.95,3.66-8.14,9.55-9.55v106.12Z"/>
      <path class="cls-1" d="M207.14,1038.8v-106.12h9.55v28.3h122.04c13.44,0,25-1.06,34.67-3.18,25.94-5.66,38.91-20.39,38.91-44.22-.23-37.73-24.76-56.71-73.58-56.95h-122.04v28.3h-9.55v-69.69h9.55v28.3h119.92c16.75,0,31.01,1.89,42.8,5.66,29.01,9.91,43.51,33.84,43.51,71.81-.24,59.2-27.35,89.03-81.36,89.5h-124.87v28.3h-9.55Z"/>
      <path class="cls-1" d="M321.75,606.57h9.55v22.99h88.08l-7.43,42.8c7.08,15.56,10.61,32.78,10.61,51.65,0,23.82-5.78,44.92-17.33,63.32-19.57,30.42-50.46,45.63-92.68,45.63-32.78,0-59.07-9.67-78.88-29.01-20.04-20.28-30.07-46.57-30.07-78.88,0-17.92,3.42-35.02,10.26-51.29l-6.72-33.25,74.99-1.42v10.97h-.71c-44.57,8.96-66.86,30.31-66.86,64.03,0,2.83.12,5.66.35,8.49,4.01,37.03,37.03,55.54,99.05,55.54,20.75,0,38.2-1.88,52.35-5.66,30.19-8.25,45.28-26.76,45.28-55.54,0-14.86-4.24-27.71-12.73-38.56h-67.56v30.07h-9.55v-101.88Z"/>
      <path class="cls-1" d="M419.38,609.8h-9.55v-28.3h-193.14v28.3h-9.55v-106.12h9.55v28.3h88.08v-89.85h-88.08v28.3h-9.55v-106.12h9.55v28.3h193.14v-18.75c.47-4.95,3.66-8.14,9.55-9.55v106.12h-9.55v-28.3h-94.45v89.85h94.45v-18.75c.47-4.95,3.66-8.14,9.55-9.55v106.12Z"/>
      <path class="cls-1" d="M275.06,192.28l-24.41,7.78c-2.12.71-4.24,1.54-6.37,2.48-18.39,7.31-27.59,20.64-27.59,39.97v39.97h88.08v-67.92h10.61v67.92h94.45v-39.97c0-4.48-.47-8.72-1.42-12.73-3.54-13.44-14.38-23.22-32.54-29.36l-24.41-8.14v-10.26l67.92,1.41v176.87h-9.55v-28.3h-193.14v28.3h-9.55v-176.87l67.92-1.41v10.26Z"/>
      <path class="cls-1" d="M399.93,17.23c15.33,16.04,22.99,39.03,22.99,68.98,0,25.71-6.01,47.64-18.04,65.79,4.01,0,7.2.24,9.55.71,3.78,1.18,5.66,4.95,5.66,11.32h-74.99v-13.79c12.5-.94,23.58-3.54,33.25-7.78,22.88-10.14,34.31-27.71,34.31-52.71,0-6.6-.94-12.61-2.83-18.04-5.66-15.09-16.98-22.64-33.96-22.64-4.95,0-9.78,1.06-14.5,3.18-9.9,4.95-20.16,17.57-30.78,37.85-11.55,22.64-18.27,35.38-20.16,38.21-13.91,22.41-30.65,33.6-50.23,33.6-13.2,0-24.64-4.6-34.31-13.8-14.86-14.38-22.29-35.84-22.29-64.38,0-21.69,4.6-42.33,13.8-61.9-2.12,0-4.01-.12-5.66-.35-4.48-1.18-6.72-5.07-6.72-11.67h64.03v13.8c-12.73.24-23.7,3.3-32.9,9.2-14.62,9.67-21.93,24.18-21.93,43.51,0,4.95.71,9.67,2.12,14.15,4.48,13.44,13.68,20.16,27.59,20.16,5.43,0,10.61-1.18,15.56-3.54,10.14-4.95,20.4-17.33,30.78-37.14,11.56-21.69,18.16-34.08,19.81-37.14C324,11.34,340.74.6,360.31.6c15.56,0,28.77,5.54,39.62,16.63Z"/>
    </g>
  </g>
</svg>