<?xml version="1.0" encoding="UTF-8"?>
<svg id="Layer_2" data-name="Layer 2" xmlns="http://www.w3.org/2000/svg" viewBox="0 0 426.75 1212.78">
  <defs>
    <style>
      .cls-1 {
        stroke: #fff;
        stroke-width: .97px;
      }
    </style>
  </defs>
  <g id="Home_Page_Text_copy_2" data-name="Home Page Text copy 2">
    <g id="Bangla_MN" data-name="Bangla MN">
      <path class="cls-1" d="M211.65,1133.58c0-5.29-.73-10.53-2.19-15.72-1.46-5.19-3.62-9.83-6.48-13.94-2.86-4.1-6.37-7.4-10.53-9.88-4.16-2.48-8.99-3.73-14.5-3.73-6.59,0-12.45,1.7-17.58,5.1-5.13,3.4-9.83,7.86-14.1,13.37-4.27,5.51-8.29,11.8-12.07,18.88-3.78,7.08-7.56,14.29-11.34,21.63-3.78,7.35-7.75,14.56-11.91,21.63-4.16,7.08-8.8,13.37-13.94,18.88-5.13,5.51-10.86,9.97-17.18,13.37-6.32,3.4-13.59,5.1-21.8,5.1s-15.83-1.54-22.85-4.62c-7.02-3.08-13.1-7.59-18.23-13.53-5.13-5.94-9.16-13.26-12.07-21.96-2.92-8.7-4.38-18.66-4.38-29.9,0-10.15,1.08-19.23,3.24-27.23,2.16-7.99,5.35-15.02,9.56-21.07,4.21-6.05,9.4-11.18,15.56-15.4,6.16-4.21,13.29-7.62,21.39-10.21l8.43,18.47c-6.59,2.16-12.61,4.92-18.07,8.26-5.45,3.35-10.13,7.35-14.02,11.99-3.89,4.65-6.89,10.02-8.99,16.12-2.11,6.11-3.16,12.99-3.16,20.66,0,6.81.95,12.75,2.84,17.83,1.89,5.08,4.38,9.32,7.45,12.72s6.54,5.94,10.37,7.62c3.84,1.68,7.75,2.51,11.75,2.51,5.62,0,10.78-1.73,15.48-5.19,4.7-3.46,9.13-8.05,13.29-13.77,4.16-5.73,8.18-12.24,12.07-19.53,3.89-7.29,7.83-14.72,11.83-22.28,4-7.56,8.16-14.99,12.48-22.28,4.32-7.29,9.05-13.8,14.18-19.53,5.13-5.72,10.75-10.32,16.85-13.77,6.1-3.46,12.94-5.19,20.5-5.19,8.54,0,16.56,1.62,24.07,4.86,7.51,3.24,14.05,8.1,19.61,14.58,5.57,6.48,9.97,14.53,13.21,24.15,3.24,9.62,4.86,20.8,4.86,33.55,0,10.37-1.13,19.61-3.4,27.71-2.27,8.1-5.56,15.26-9.89,21.47-4.32,6.21-9.59,11.53-15.8,15.96-6.21,4.43-13.31,8.05-21.31,10.86l-7.94-19.28c7.02-2.27,13.29-5.32,18.8-9.16,5.51-3.83,10.18-8.29,14.02-13.37,3.84-5.08,6.78-10.72,8.83-16.93,2.05-6.21,3.08-12.83,3.08-19.85Z"/>
      <path class="cls-1" d="M.49,935.77l219.75-101.12v36.79l-71.63,32.74v92.21l71.63,33.87v18.15L.49,944.85v-9.08ZM134.67,990.06v-79.25l-85.08,39.06,85.08,40.19Z"/>
      <path class="cls-1" d="M5.35,813v-20.26l157.2-140.83v-1.62H5.35v-15.88h219.91v8.43l-174.7,152.5v1.3h169.67v16.37H5.35Z"/>
      <path class="cls-1" d="M5.35,595.91v-71.63c0-22.04,2.05-41,6.16-56.88,4.11-15.88,10.7-29.11,19.77-39.7,10.37-12.1,22.26-21.2,35.65-27.31,13.4-6.1,28.04-9.16,43.92-9.16s29.33,2.73,42.62,8.18c13.29,5.46,24.88,13.45,34.76,23.98s17.69,23.55,23.42,39.06c5.73,15.5,8.59,33.25,8.59,53.24v80.22H5.35ZM204.52,559.77v-38.41c0-12.1-2-23.5-6-34.19-4-10.7-9.94-20.01-17.83-27.95-7.89-7.94-17.58-14.21-29.09-18.8-11.51-4.59-24.82-6.89-39.95-6.89-13.29,0-25.47,2.16-36.54,6.48-11.07,4.32-20.61,10.37-28.6,18.15-7.99,7.78-14.21,17.04-18.64,27.79-4.43,10.75-6.64,22.5-6.64,35.25v38.57h183.29Z"/>
      <path class="cls-1" d="M5.35,366.02l108.9-74.55L5.35,217.25v-19.61l122.03,83.3h92.86v36.14h-89.46L5.35,402.97v-36.95Z"/>
      <path class="cls-1" d="M318.17,1167.77h103.07v36.14h-214.89v-36.14h97.88v-107.93h-97.88v-36.14h214.89v36.14h-103.07v107.93Z"/>
      <path class="cls-1" d="M206.35,994.11v-36.14h139.53c9.18,0,17.8-1.57,25.85-4.7,8.05-3.13,15.1-7.62,21.15-13.45,6.05-5.83,10.83-12.88,14.34-21.15,3.51-8.26,5.27-17.47,5.27-27.63s-1.75-19.5-5.27-27.71c-3.51-8.21-8.29-15.21-14.34-20.99-6.05-5.78-13.1-10.21-21.15-13.29-8.05-3.08-16.66-4.62-25.85-4.62h-139.53v-15.88h139.53c11.02,0,21.39,1.78,31.12,5.35,9.72,3.57,18.23,9.16,25.52,16.77,7.29,7.62,13.07,17.37,17.34,29.25,4.27,11.89,6.4,26.15,6.4,42.78,0,14.8-2.13,27.9-6.4,39.3-4.27,11.4-10.07,20.96-17.42,28.68-7.35,7.73-15.96,13.56-25.85,17.5-9.88,3.94-20.44,5.92-31.68,5.92h-138.56Z"/>
      <path class="cls-1" d="M216.88,657.1c0,12.96,2.3,24.93,6.89,35.9,4.59,10.97,11.18,20.42,19.77,28.36,8.59,7.94,18.96,14.13,31.12,18.56,12.15,4.43,25.74,6.64,40.76,6.64s28.77-2.4,40.92-7.21c12.15-4.81,22.5-11.4,31.03-19.77,8.54-8.37,15.1-18.23,19.69-29.58,4.59-11.34,6.89-23.5,6.89-36.46,0-9.4-1.27-17.88-3.81-25.44-2.54-7.56-6.18-14.37-10.94-20.42h-75.36v40.68h-12.8v-76.81h94.48c3.35,6.27,6.32,12.59,8.91,18.96,2.59,6.38,4.75,13.26,6.48,20.66,1.73,7.4,3.05,15.53,3.97,24.39.92,8.86,1.38,18.91,1.38,30.14,0,11.89-1.32,23.17-3.97,33.87-2.65,10.7-6.4,20.61-11.26,29.74-4.86,9.13-10.67,17.37-17.42,24.71-6.75,7.35-14.23,13.59-22.45,18.72-8.21,5.13-17.04,9.1-26.5,11.91-9.45,2.81-19.2,4.21-29.25,4.21s-19.85-1.32-29.41-3.97c-9.56-2.65-18.58-6.45-27.06-11.42-8.48-4.97-16.23-11.02-23.26-18.15-7.02-7.13-13.07-15.18-18.15-24.15-5.08-8.97-9.02-18.74-11.83-29.33-2.81-10.59-4.21-21.82-4.21-33.71s1.54-21.85,4.62-31.52c3.08-9.67,7.16-18.47,12.24-26.42,5.08-7.94,10.94-14.99,17.58-21.15,6.64-6.16,13.59-11.45,20.82-15.88l10.37,15.56c-17.39,9.08-30.12,19.15-38.17,30.22-8.05,11.08-12.07,23.8-12.07,38.16Z"/>
      <path class="cls-1" d="M318.17,500.14h103.07v36.14h-214.89v-36.14h97.88v-107.93h-97.88v-36.14h214.89v36.14h-103.07v107.93Z"/>
      <path class="cls-1" d="M206.35,167.99h13.94v113.28h76.82v-75.84h13.94v75.84h96.26v-113.28h13.94v149.42h-214.89v-149.42Z"/>
      <path class="cls-1" d="M412.65,75.03c0-5.29-.73-10.53-2.19-15.72-1.46-5.19-3.62-9.83-6.48-13.94-2.86-4.1-6.37-7.4-10.53-9.89-4.16-2.48-8.99-3.73-14.5-3.73-6.59,0-12.45,1.7-17.58,5.1-5.13,3.4-9.83,7.86-14.1,13.37-4.27,5.51-8.29,11.8-12.07,18.88-3.78,7.08-7.56,14.29-11.34,21.63-3.78,7.35-7.75,14.56-11.91,21.63-4.16,7.08-8.8,13.37-13.94,18.88-5.13,5.51-10.86,9.97-17.18,13.37-6.32,3.4-13.59,5.11-21.8,5.11s-15.83-1.54-22.85-4.62c-7.02-3.08-13.1-7.59-18.23-13.53-5.13-5.94-9.16-13.26-12.07-21.96-2.92-8.7-4.38-18.66-4.38-29.9,0-10.15,1.08-19.23,3.24-27.23,2.16-7.99,5.35-15.02,9.56-21.07,4.21-6.05,9.4-11.18,15.56-15.4s13.29-7.62,21.39-10.21l8.43,18.47c-6.59,2.16-12.61,4.92-18.07,8.26-5.45,3.35-10.13,7.35-14.02,11.99-3.89,4.65-6.89,10.02-8.99,16.12-2.11,6.1-3.16,12.99-3.16,20.66,0,6.81.95,12.75,2.84,17.83,1.89,5.08,4.38,9.32,7.45,12.72,3.08,3.4,6.54,5.94,10.37,7.62,3.84,1.68,7.75,2.51,11.75,2.51,5.62,0,10.78-1.73,15.48-5.19,4.7-3.46,9.13-8.05,13.29-13.77,4.16-5.73,8.18-12.24,12.07-19.53s7.83-14.72,11.83-22.28c4-7.56,8.16-14.99,12.48-22.28,4.32-7.29,9.05-13.8,14.18-19.53,5.13-5.73,10.75-10.32,16.85-13.78,6.1-3.46,12.94-5.19,20.5-5.19,8.54,0,16.56,1.62,24.07,4.86,7.51,3.24,14.05,8.1,19.61,14.59,5.57,6.48,9.97,14.53,13.21,24.15,3.24,9.62,4.86,20.8,4.86,33.54,0,10.37-1.13,19.61-3.4,27.71s-5.56,15.26-9.89,21.47c-4.32,6.21-9.59,11.53-15.8,15.96-6.21,4.43-13.31,8.05-21.31,10.86l-7.94-19.28c7.02-2.27,13.29-5.32,18.8-9.16,5.51-3.83,10.18-8.29,14.02-13.37,3.84-5.08,6.78-10.72,8.83-16.93,2.05-6.21,3.08-12.83,3.08-19.85Z"/>
    </g>
  </g>
</svg>