<?xml version="1.0" encoding="UTF-8"?>
<svg id="Layer_2" data-name="Layer 2" xmlns="http://www.w3.org/2000/svg" viewBox="0 0 420.36 1276.13">
  <defs>
    <style>
      .cls-1 {
        stroke: #fff;
        stroke-width: .93px;
      }
    </style>
  </defs>
  <g id="Home_Page_Text_copy_2" data-name="Home Page Text copy 2">
    <g id="Basteleur">
      <path class="cls-1" d="M205.72,1189.5c0-28.48-12.57-45.8-29.88-45.8-21.5,0-36.3,18.15-56.69,65.34-18.71,43.56-39.09,61.71-66.18,61.71-34.91,0-52.5-34.91-52.5-68.42,0-27.09,7.26-33.51,7.26-69.25,22.9,2.23,43.28,1.95,65.9-.56l1.4,6.42c-46.91,13.68-63.39,41.89-63.39,67.02,0,20.67,12.29,40.21,30.16,40.21,21.78,0,36.86-18.71,55.01-59.2,21.78-48.59,38.26-67.3,66.74-67.3,31.56,0,53.34,22.9,53.34,77.63,0,24.29-2.23,48.87-11.45,78.19-16.2-6.42-50.54-7.54-69.25-3.63l-2.23-6.98c54.17-17.04,71.77-46.08,71.77-75.4Z"/>
      <path class="cls-1" d="M2.42,1035.08c0-27.09,8.94-46.63,27.92-59.48-6.98-15.36-12.01-29.32-15.08-40.77l6.14-5.03c16.2,25.41,35.74,34.91,92.15,27.37,39.1-5.31,77.91-20.67,91.87-38.82l7.26,3.63v44.68c-20.67,1.4-38.82,3.63-83.78,10.05,82.1,25.97,98.3,99.41,81.26,123.15-13.68,18.43-65.34,19.83-118.96-33.51-17.31-17.87-35.19-41.89-49.15-67.3-26.53,19.83-30.44,54.73-8.38,100.53l-7.82,3.91c-14.8-19.55-23.46-40.21-23.46-68.42ZM154.89,1004.64c-18.99-14.52-39.93-25.69-69.53-21.78-13.4,1.95-24.57,5.31-34.07,10.33,14.8,24.57,31.56,46.63,47.47,61.71,27.65,26.25,76.51,37.42,87.96,20.11,12.01-17.87-5.03-49.71-31.83-70.37Z"/>
      <path class="cls-1" d="M161.87,877.58h-95.22c-35.19,0-46.08,7.26-56.13,29.6l-7.82-1.12c1.12-11.17,1.96-17.87,1.96-25.41,0-6.98-1.12-13.96-2.23-20.38l165.04-139.91H55.48c-24.02,0-34.91,5.86-44.96,33.79l-7.82-1.12c1.68-18.71,1.96-29.6,1.96-38.26s-.56-18.99-1.96-32.67l7.82-1.12c10.33,22.34,20.94,28.2,44.96,28.2h157.5l5.03,8.66-175.37,148.56h119.24c24.02,0,34.63-5.86,44.96-33.79l7.82,1.12c-1.4,18.15-1.95,31-1.95,40.77,0,10.61.56,15.92,1.95,31.56l-7.82,1.12c-10.05-22.34-20.94-29.6-44.96-29.6Z"/>
      <path class="cls-1" d="M212.7,625.98c0,8.94.56,22.9,1.95,39.93l-7.82,1.12c-7.26-22.34-18.15-28.2-39.38-28.2H49.89c-21.22,0-32.11,5.86-39.37,28.2l-7.82-1.12c1.4-17.03,1.96-31,1.96-39.93s0-25.97-1.12-44.96c-4.19-76.24,36.02-120.64,98.58-123.43,62.83-2.79,113.38,37.42,113.38,110.86,0,21.78-2.79,48.59-2.79,57.53ZM98.76,491.38c-58.64,6.42-85.45,42.73-84.05,89.08.84,25.97,13.96,33.23,35.19,33.23h109.19c29.6,0,45.24-7.54,45.24-44.68,0-59.2-46.63-84.05-105.56-77.63Z"/>
      <path class="cls-1" d="M4.65,436.92c0-9.49-.56-31.83-1.68-57.8l8.1-.84c3.35,32.11,18.15,34.63,38.26,22.62l67.58-39.93-69.25-41.89c-19.83-12.01-33.23-2.51-36.58,20.94l-8.1-1.12c1.12-14.8,1.68-25.69,1.68-35.19s-.56-21.5-1.68-38.82l8.1-1.4c8.1,17.87,21.78,32.95,42.17,45.52l74.84,45.8h39.37c21.22,0,31.83-5.86,39.38-33.79l7.82,1.12c-1.4,19.27-1.95,36.02-1.95,44.96s.56,22.9,1.95,45.52l-7.82,1.12c-7.26-27.92-18.15-33.79-39.38-33.79h-34.35l-83.5,50.54c-17.59,10.61-29.6,27.37-38.54,49.43l-8.1-1.12c.84-18.15,1.68-32.67,1.68-41.89Z"/>
      <path class="cls-1" d="M370.46,1096.23h-52.5v125.94h52.5c21.22,0,31.83-5.86,39.38-28.21l7.82,1.12c-1.4,13.68-1.95,30.44-1.95,39.38s.56,22.9,1.95,39.93l-7.82,1.12c-7.26-22.34-18.15-28.2-39.38-28.2h-117.56c-21.22,0-32.11,5.86-39.37,28.2l-7.82-1.12c1.4-17.03,1.96-31,1.96-39.93s-.56-25.69-1.96-39.38l7.82-1.12c7.54,22.34,18.15,28.21,39.37,28.21h51.1v-125.94h-51.1c-21.22,0-32.11,5.86-39.37,28.2l-7.82-1.12c1.4-17.03,1.96-31,1.96-39.93s-.56-25.69-1.96-39.37l7.82-1.12c7.54,22.34,18.15,28.2,39.37,28.2h117.56c21.22,0,31.83-5.86,39.38-28.2l7.82,1.12c-1.4,13.68-1.95,30.44-1.95,39.37s.56,22.9,1.95,39.93l-7.82,1.12c-7.26-22.34-18.15-28.2-39.38-28.2Z"/>
      <path class="cls-1" d="M322.98,1011.9h-70.09c-21.22,0-31.83,5.86-39.37,28.2l-7.82-1.12c1.68-22.34,1.96-33.51,1.96-45.24s-.84-24.02-1.96-43.84l8.38-1.12c7.26,33.51,17.59,37.98,38.82,37.98h63.95c49.99,0,77.91-23.74,77.91-65.9s-26.25-64.23-73.44-64.23h-48.87c-32.39,0-51.1,8.66-58.36,42.17l-8.38-1.12c1.12-19.83,1.96-33.79,1.96-42.73s-.56-22.9-1.96-36.58l7.82-1.12c7.54,22.34,26.53,28.21,58.92,28.21h54.45c60.32,0,93.55,29.04,92.99,80.98-.56,54.73-35.46,85.45-96.9,85.45Z"/>
      <path class="cls-1" d="M311.54,822.85c-59.48,0-108.07-48.87-108.07-105.28,0-37.14,17.31-67.58,5.58-88.24l2.79-5.03c20.94,5.31,46.08,10.89,68.7,10.05l.84,6.98c-46.36,12.85-66.46,43.56-66.46,78.75,0,43,36.86,73.72,86.29,73.72,53.06,0,94.11-35.19,94.11-88.52,0-34.07-20.66-65.07-47.19-65.07-16.75,0-35.19,10.61-35.19,77.63h-11.17v-94.39l113.93-1.96v11.17l-41.05,4.47c26.25,12.29,45.24,46.36,45.24,83.22,0,58.92-47.75,102.48-108.35,102.48Z"/>
      <path class="cls-1" d="M370.46,422.69h-52.5v125.94h52.5c21.22,0,31.83-5.86,39.38-28.2l7.82,1.12c-1.4,13.68-1.95,30.44-1.95,39.37s.56,22.9,1.95,39.93l-7.82,1.12c-7.26-22.34-18.15-28.2-39.38-28.2h-117.56c-21.22,0-32.11,5.86-39.37,28.2l-7.82-1.12c1.4-17.03,1.96-31,1.96-39.93s-.56-25.69-1.96-39.37l7.82-1.12c7.54,22.34,18.15,28.2,39.37,28.2h51.1v-125.94h-51.1c-21.22,0-32.11,5.86-39.37,28.2l-7.82-1.12c1.4-17.03,1.96-31,1.96-39.93s-.56-25.69-1.96-39.37l7.82-1.12c7.54,22.34,18.15,28.2,39.37,28.2h117.56c21.22,0,31.83-5.86,39.38-28.2l7.82,1.12c-1.4,13.68-1.95,30.44-1.95,39.37s.56,22.9,1.95,39.93l-7.82,1.12c-7.26-22.34-18.15-28.2-39.38-28.2Z"/>
      <path class="cls-1" d="M311.54,369.35c-59.48,0-108.07-48.87-108.07-105.28,0-34.35,17.31-60.6,5.58-81.26l2.79-3.91c20.94,5.3,46.08,9.77,68.7,8.94l.84,6.98c-46.36,12.85-66.46,39.38-66.46,74.56,0,40.21,36.86,70.93,86.29,70.93h.56v-56.97c0-20.11-7.26-36.02-33.79-39.1v-6.98c32.11-3.63,55.29-6.7,83.5-13.12l2.51,6.98c-32.95,13.12-41.05,27.37-41.05,49.43v59.2c47.19-5.3,82.38-41.05,82.38-85.17s-20.66-62.83-62.55-77.63l1.12-6.7c52.22,10.61,86.01,41.33,86.01,93.83,0,58.92-47.75,105.28-108.35,105.28Z"/>
      <path class="cls-1" d="M408.72,70.28c0-28.48-12.57-45.8-29.88-45.8-21.5,0-36.3,18.15-56.69,65.34-18.71,43.56-39.09,61.71-66.18,61.71-34.91,0-52.5-34.91-52.5-68.42,0-27.09,7.26-33.51,7.26-69.25,22.9,2.23,43.28,1.96,65.9-.56l1.4,6.42c-46.91,13.68-63.39,41.89-63.39,67.02,0,20.67,12.29,40.21,30.16,40.21,21.78,0,36.86-18.71,55.01-59.2C321.59,19.17,338.07.47,366.55.47c31.56,0,53.34,22.9,53.34,77.63,0,24.29-2.23,48.87-11.45,78.19-16.2-6.42-50.54-7.54-69.25-3.63l-2.23-6.98c54.17-17.03,71.77-46.08,71.77-75.4Z"/>
    </g>
  </g>
</svg>