<?xml version="1.0" encoding="UTF-8"?>
<svg id="Layer_2" data-name="Layer 2" xmlns="http://www.w3.org/2000/svg" viewBox="0 0 416.97 1202.7">
  <defs>
    <style>
      .cls-1 {
        stroke: #fff;
        stroke-width: .85px;
      }
    </style>
  </defs>
  <g id="Home_Page_Text_copy_2" data-name="Home Page Text copy 2">
    <g id="Beast">
      <path class="cls-1" d="M169.03,1194.66v-76.21c0-4.79-3.91-7.62-10.54-7.62h-21.08c-6.62,0-10.54,2.83-10.54,7.62v45.72c0,4.79-3.91,7.62-10.54,7.62h-21.08c-6.62,0-10.54,2.83-10.54,7.62v15.24c0,4.79-3.91,7.62-10.54,7.62h-21.08c-6.62,0-10.54-2.83-10.54-7.62v-15.24c0-4.79-3.91-7.62-10.54-7.62H10.96c-6.62,0-10.54-2.83-10.54-7.62v-45.72c0-4.79,3.92-7.62,10.54-7.62h21.08c6.62,0,10.54-2.83,10.54-7.62v-15.24c0-4.79-3.91-7.62-10.54-7.62H10.96c-6.62,0-10.54-2.83-10.54-7.62v-15.24c0-4.79,3.92-7.62,10.54-7.62h63.23c6.62,0,10.54,2.83,10.54,7.62v47.25c0,3.92-4.82,6.1-10.54,6.1h-21.08c-6.62,0-10.54,2.83-10.54,7.62v45.72c0,4.79,3.91,7.62,10.54,7.62h21.08c6.62,0,10.54-2.83,10.54-7.62v-45.72c0-4.79,3.91-7.62,10.54-7.62h21.08c6.62,0,10.54-2.83,10.54-7.62v-45.72c0-4.79,3.91-7.62,10.54-7.62h21.08c6.62,0,10.54,2.83,10.54,7.62v15.24c0,4.79,3.91,7.62,10.54,7.62h21.08c6.62,0,10.54,2.83,10.54,7.62v106.69c0,4.79-3.91,7.62-10.54,7.62h-21.08c-6.62,0-10.54-2.83-10.54-7.62Z"/>
      <path class="cls-1" d="M200.65,1030.71h-63.23c-6.62,0-10.54-2.83-10.54-7.62v-15.24c0-4.79-3.91-7.62-10.54-7.62h-63.23c-6.62,0-10.54-2.83-10.54-7.62v-15.02c0-4.79-3.91-7.84-10.54-7.84H10.96c-6.62,0-10.54-2.61-10.54-7.4v-45.94c0-4.79,3.92-7.62,10.54-7.62h63.23c6.62,0,10.54-2.83,10.54-7.62v-15.02c0-4.79,3.91-7.84,10.54-7.84h63.23c6.62,0,10.54-2.61,10.54-7.4v-15.46c0-4.79,3.91-7.62,10.54-7.62h21.08c6.62,0,10.54,2.83,10.54,7.62v106.9c0,4.79-3.91,7.4-10.54,7.4h-21.08c-6.62,0-10.54-2.61-10.54-7.4v-15.46c0-4.79-3.91-7.62-10.54-7.62h-21.08c-6.62,0-10.54,2.83-10.54,7.62v15.46c0,4.79,3.91,7.4,10.54,7.4h21.08c6.62,0,10.54,3.05,10.54,7.84v15.02c0,4.79,3.91,7.62,10.54,7.62h21.08c6.62,0,10.54,2.83,10.54,7.62v15.24c0,4.79-3.91,7.62-10.54,7.62Z"/>
      <path class="cls-1" d="M200.65,828.66h-21.08c-6.62,0-10.54-2.83-10.54-7.62v-15.24c0-4.79-3.91-7.62-10.54-7.62H53.12c-6.62,0-10.54,2.83-10.54,7.62v15.24c0,4.79-3.91,7.62-10.54,7.62H10.96c-6.62,0-10.54-2.83-10.54-7.62v-45.72c0-4.79,3.92-7.62,10.54-7.62h21.08c6.62,0,10.54-2.83,10.54-7.62v-15.24c0-4.79,3.91-7.62,10.54-7.62h21.08c6.62,0,10.54-2.83,10.54-7.62v-15.24c0-4.79,3.91-7.62,10.54-7.62h21.08c6.62,0,10.54-2.83,10.54-7.62v-15.24c0-4.79-3.91-7.62-10.54-7.62h-63.23c-6.62,0-10.54,2.83-10.54,7.62v15.24c0,4.79-3.91,7.62-10.54,7.62H10.96c-6.62,0-10.54-2.83-10.54-7.62v-76.2c0-4.79,3.92-7.62,10.54-7.62h21.08c6.62,0,10.54,2.83,10.54,7.62v15.24c0,4.79,3.91,7.62,10.54,7.62h105.38c6.62,0,10.54-2.83,10.54-7.62v-15.24c0-4.79,3.91-7.62,10.54-7.62h21.08c6.62,0,10.54,2.83,10.54,7.62v45.72c0,4.79-3.91,7.62-10.54,7.62h-21.08c-6.62,0-10.54,2.83-10.54,7.62v15.24c0,4.79-3.91,7.62-10.54,7.62h-21.08c-6.62,0-10.54,2.83-10.54,7.62v15.24c0,4.79,3.91,7.62,10.54,7.62h63.23c6.62,0,10.54,2.83,10.54,7.62v76.21c0,4.79-3.91,7.62-10.54,7.62Z"/>
      <path class="cls-1" d="M200.65,596.13h-21.08c-6.62,0-10.54-2.83-10.54-7.62v-15.24c0-4.79-3.91-7.62-10.54-7.62H53.12c-6.62,0-10.54,2.83-10.54,7.62v15.24c0,4.79-3.91,7.62-10.54,7.62H10.96c-6.62,0-10.54-2.83-10.54-7.62v-137.17c0-4.79,3.92-7.62,10.54-7.62h21.08c6.62,0,10.54-2.83,10.54-7.62v-15.24c0-4.79,3.91-7.62,10.54-7.62h105.38c6.62,0,10.54,2.83,10.54,7.62v15.24c0,4.79,3.91,7.62,10.54,7.62h21.08c6.62,0,10.54,2.83,10.54,7.62v137.17c0,4.79-3.91,7.62-10.54,7.62ZM169.03,497.06v-45.72c0-4.79-3.91-7.62-10.54-7.62H53.12c-6.62,0-10.54,2.83-10.54,7.62v45.72c0,4.79,3.91,7.62,10.54,7.62h105.38c6.62,0,10.54-2.83,10.54-7.62Z"/>
      <path class="cls-1" d="M200.65,341.82h-21.08c-6.62,0-10.54-2.83-10.54-7.62v-15.24c0-4.79-3.91-7.62-10.54-7.62h-21.08c-6.62,0-10.54,2.83-10.54,7.62v15.24c0,4.79-3.91,7.62-10.54,7.62h-21.08c-6.62,0-10.54,2.83-10.54,7.62v15.24c0,4.79-3.91,7.62-10.54,7.62h-21.08c-6.62,0-10.54,2.83-10.54,7.62v15.24c0,4.79-3.91,7.62-10.54,7.62H10.96c-6.62,0-10.54-2.83-10.54-7.62v-76.2c0-4.79,3.92-7.62,10.54-7.62h21.08c6.62,0,10.54,2.83,10.54,7.62v15.24c0,4.79,3.91,7.62,10.54,7.62h21.08c6.62,0,10.54-2.83,10.54-7.62v-45.72c0-4.79-3.91-7.62-10.54-7.62H10.96c-6.62,0-10.54-2.83-10.54-7.62v-76.2c0-4.79,3.92-7.62,10.54-7.62h21.08c6.62,0,10.54,2.83,10.54,7.62v15.24c0,4.79,3.91,7.62,10.54,7.62h21.08c6.62,0,10.54,2.83,10.54,7.62v15.24c0,4.79,3.91,7.62,10.54,7.62h21.08c6.62,0,10.54,2.83,10.54,7.62v15.24c0,4.79,3.91,7.62,10.54,7.62h21.08c6.62,0,10.54-2.83,10.54-7.62v-15.24c0-4.79,3.91-7.62,10.54-7.62h21.08c6.62,0,10.54,2.83,10.54,7.62v76.21c0,4.79-3.91,7.62-10.54,7.62Z"/>
      <path class="cls-1" d="M406.01,1202.28h-21.08c-6.62,0-10.54-2.83-10.54-7.62v-15.24c0-4.79-3.91-7.62-10.54-7.62h-105.38c-6.62,0-10.54,2.83-10.54,7.62v15.24c0,4.79-3.91,7.62-10.54,7.62h-21.08c-6.62,0-10.54-2.83-10.54-7.62v-45.72c0-4.79,3.91-7.62,10.54-7.62h63.23c6.62,0,10.54-2.83,10.54-7.62v-45.72c0-4.79-3.92-7.62-10.54-7.62h-21.08c-6.62,0-10.54,2.83-10.54,7.62v15.24c0,4.79-3.91,7.62-10.54,7.62h-21.08c-6.62,0-10.54-2.83-10.54-7.62v-106.69c0-4.79,3.91-7.62,10.54-7.62h21.08c6.62,0,10.54,2.83,10.54,7.62v15.24c0,4.79,3.91,7.62,10.54,7.62h105.38c6.62,0,10.54-2.83,10.54-7.62v-15.24c0-4.79,3.92-7.62,10.54-7.62h21.08c6.62,0,10.54,2.83,10.54,7.62v106.69c0,4.79-3.91,7.62-10.54,7.62h-21.08c-6.62,0-10.54-2.83-10.54-7.62v-15.24c0-4.79-3.91-7.62-10.54-7.62h-21.08c-6.62,0-10.54,2.83-10.54,7.62v45.72c0,4.79,3.91,7.62,10.54,7.62h63.23c6.62,0,10.54,2.83,10.54,7.62v45.72c0,4.79-3.91,7.62-10.54,7.62Z"/>
      <path class="cls-1" d="M216.32,887.01h21.08c6.62,0,10.54,2.83,10.54,7.62v15.24c0,4.79,3.91,7.62,10.54,7.62h105.38c6.62,0,10.54-2.83,10.54-7.62v-45.72c0-4.79-3.91-7.62-10.54-7.62h-147.53c-6.62,0-10.54-2.83-10.54-7.62v-76.2c0-4.79,3.91-7.62,10.54-7.62h21.08c6.62,0,10.54,2.83,10.54,7.62v15.24c0,4.79,3.91,7.62,10.54,7.62h105.38c6.62,0,10.54,2.83,10.54,7.62v15.24c0,4.79,3.92,7.62,10.54,7.62h21.08c6.62,0,10.54,2.83,10.54,7.62v76.21c0,4.79-3.91,7.62-10.54,7.62h-21.08c-6.62,0-10.54,2.83-10.54,7.62v15.24c0,4.79-3.91,7.62-10.54,7.62h-105.38c-6.62,0-10.54,2.83-10.54,7.62v15.24c0,4.79-3.91,7.62-10.54,7.62h-21.08c-6.62,0-10.54-3.05-10.54-7.84v-75.99c0-4.79,3.91-7.62,10.54-7.62Z"/>
      <path class="cls-1" d="M363.56,763.34h-104.78c-6.02,0-10.84-3.48-10.84-7.84v-14.81c0-4.35-4.82-7.84-10.84-7.84h-20.47c-6.02,0-10.84-3.48-10.84-7.84v-45.29c0-4.35,4.82-7.84,10.84-7.84h20.47c6.02,0,10.84-3.48,10.84-7.84v-14.81c0-4.35-4.82-7.84-10.84-7.84h-20.47c-6.02,0-10.84-3.48-10.84-7.84v-14.81c0-4.35,4.82-7.84,10.84-7.84h62.63c6.02,0,10.84,3.48,10.84,7.84v45.29c0,4.35-4.82,7.84-10.84,7.84h-20.47c-6.02,0-10.84,3.48-10.84,7.84v14.81c0,4.35,4.82,7.84,10.84,7.84h104.78c6.02,0,10.84-3.48,10.84-7.84v-14.81c0-4.35-4.82-7.84-10.84-7.84h-20.47c-6.02,0-10.84-3.48-10.84-7.84v-75.77c0-4.35,4.82-7.84,10.84-7.84h20.47c6.02,0,10.84,3.48,10.84,7.84v14.81c0,4.35,4.82,7.84,10.84,7.84h20.47c6.02,0,10.84,3.48,10.84,7.84v106.25c0,4.35-4.82,7.84-10.84,7.84h-20.47c-6.02,0-10.84,3.48-10.84,7.84v14.81c0,4.35-4.82,7.84-10.84,7.84Z"/>
      <path class="cls-1" d="M406.01,570h-21.08c-6.62,0-10.54-2.83-10.54-7.62v-15.24c0-4.79-3.91-7.62-10.54-7.62h-105.38c-6.62,0-10.54,2.83-10.54,7.62v15.24c0,4.79-3.91,7.62-10.54,7.62h-21.08c-6.62,0-10.54-2.83-10.54-7.62v-45.72c0-4.79,3.91-7.62,10.54-7.62h63.23c6.62,0,10.54-2.83,10.54-7.62v-45.72c0-4.79-3.92-7.62-10.54-7.62h-21.08c-6.62,0-10.54,2.83-10.54,7.62v15.24c0,4.79-3.91,7.62-10.54,7.62h-21.08c-6.62,0-10.54-2.83-10.54-7.62v-106.69c0-4.79,3.91-7.62,10.54-7.62h21.08c6.62,0,10.54,2.83,10.54,7.62v15.24c0,4.79,3.91,7.62,10.54,7.62h105.38c6.62,0,10.54-2.83,10.54-7.62v-15.24c0-4.79,3.92-7.62,10.54-7.62h21.08c6.62,0,10.54,2.83,10.54,7.62v106.69c0,4.79-3.91,7.62-10.54,7.62h-21.08c-6.62,0-10.54-2.83-10.54-7.62v-15.24c0-4.79-3.91-7.62-10.54-7.62h-21.08c-6.62,0-10.54,2.83-10.54,7.62v45.72c0,4.79,3.91,7.62,10.54,7.62h63.23c6.62,0,10.54,2.83,10.54,7.62v45.72c0,4.79-3.91,7.62-10.54,7.62Z"/>
      <path class="cls-1" d="M406.01,346.18h-21.08c-6.62,0-10.54-2.83-10.54-7.62v-15.24c0-4.79-3.91-7.62-10.54-7.62h-105.38c-6.62,0-10.54,2.83-10.54,7.62v15.24c0,4.79-3.91,7.62-10.54,7.62h-21.08c-6.62,0-10.54-2.83-10.54-7.62v-167.65c0-4.79,3.91-7.62,10.54-7.62h63.23c6.62,0,10.54,2.83,10.54,7.62v15.24c0,4.79-3.92,7.62-10.54,7.62h-21.08c-6.62,0-10.54,2.83-10.54,7.62v45.72c0,4.79,3.91,7.62,10.54,7.62h21.08c6.62,0,10.54-2.83,10.54-7.62v-15.24c0-4.79,3.91-7.62,10.54-7.62h21.08c6.62,0,10.54,2.83,10.54,7.62v15.24c0,4.79,3.91,7.62,10.54,7.62h21.08c6.62,0,10.54-2.83,10.54-7.62v-45.72c0-4.79-3.91-7.62-10.54-7.62h-21.08c-6.62,0-10.54-2.83-10.54-7.62v-15.24c0-4.79,3.91-7.62,10.54-7.62h63.23c6.62,0,10.54,2.83,10.54,7.62v167.65c0,4.79-3.91,7.62-10.54,7.62Z"/>
      <path class="cls-1" d="M374.39,145.21v-76.2c0-4.79-3.91-7.62-10.54-7.62h-21.08c-6.62,0-10.54,2.83-10.54,7.62v45.72c0,4.79-3.91,7.62-10.54,7.62h-21.08c-6.62,0-10.54,2.83-10.54,7.62v15.24c0,4.79-3.92,7.62-10.54,7.62h-21.08c-6.62,0-10.54-2.83-10.54-7.62v-15.24c0-4.79-3.91-7.62-10.54-7.62h-21.08c-6.62,0-10.54-2.83-10.54-7.62v-45.72c0-4.79,3.91-7.62,10.54-7.62h21.08c6.62,0,10.54-2.83,10.54-7.62v-15.24c0-4.79-3.91-7.62-10.54-7.62h-21.08c-6.62,0-10.54-2.83-10.54-7.62v-15.24c0-4.79,3.91-7.62,10.54-7.62h63.23c6.62,0,10.54,2.83,10.54,7.62v47.25c0,3.92-4.82,6.1-10.54,6.1h-21.08c-6.62,0-10.54,2.83-10.54,7.62v45.72c0,4.79,3.91,7.62,10.54,7.62h21.08c6.62,0,10.54-2.83,10.54-7.62v-45.72c0-4.79,3.91-7.62,10.54-7.62h21.08c6.62,0,10.54-2.83,10.54-7.62V8.05c0-4.79,3.91-7.62,10.54-7.62h21.08c6.62,0,10.54,2.83,10.54,7.62v15.24c0,4.79,3.92,7.62,10.54,7.62h21.08c6.62,0,10.54,2.83,10.54,7.62v106.69c0,4.79-3.91,7.62-10.54,7.62h-21.08c-6.62,0-10.54-2.83-10.54-7.62Z"/>
    </g>
  </g>
</svg>