<?xml version="1.0" encoding="UTF-8"?>
<svg id="Layer_2" data-name="Layer 2" xmlns="http://www.w3.org/2000/svg" viewBox="0 0 418.13 1214.09">
  <defs>
    <style>
      .cls-1 {
        stroke: #fff;
        stroke-width: .97px;
      }
    </style>
  </defs>
  <g id="Home_Page_Text_copy_2" data-name="Home Page Text copy 2">
    <g id="Bianzhidai_Ring" data-name="Bianzhidai Ring">
      <path class="cls-1" d="M29.53,1191.53c0-12.49,9.3-21.79,21.79-21.79s22.08,9.3,22.08,21.79-9,22.08-22.08,22.08-21.79-9.59-21.79-22.08ZM58.58,1191.53c0-12.49,9.3-21.79,21.79-21.79s22.08,9.3,22.08,21.79-9,22.08-22.08,22.08-21.79-9.59-21.79-22.08ZM145.73,1191.53c0-12.49,9.3-21.79,21.79-21.79s22.08,9.3,22.08,21.79-9.01,22.08-22.08,22.08-21.79-9.59-21.79-22.08ZM51.32,1196.18h.58c2.32,0,4.07-1.74,4.07-4.07v-.58c0-2.32-1.74-4.07-4.07-4.07h-.58c-2.32,0-4.07,1.74-4.07,4.07v.58c0,2.32,1.74,4.07,4.07,4.07ZM80.37,1196.18h.58c2.32,0,4.07-1.74,4.07-4.07v-.58c0-2.32-1.74-4.07-4.07-4.07h-.58c-2.32,0-4.07,1.74-4.07,4.07v.58c0,2.32,1.74,4.07,4.07,4.07ZM167.52,1196.18h.58c2.32,0,4.07-1.74,4.07-4.07v-.58c0-2.32-1.74-4.07-4.07-4.07h-.58c-2.32,0-4.07,1.74-4.07,4.07v.58c0,2.32,1.74,4.07,4.07,4.07ZM.48,1162.48c0-12.49,9.3-21.79,21.79-21.79s22.08,9.3,22.08,21.79-9.01,22.08-22.08,22.08-21.79-9.59-21.79-22.08ZM87.63,1162.48c0-12.49,9.3-21.79,21.79-21.79s22.08,9.3,22.08,21.79-9,22.08-22.08,22.08-21.79-9.59-21.79-22.08ZM174.78,1162.48c0-12.49,9.3-21.79,21.79-21.79s22.08,9.3,22.08,21.79-9.01,22.08-22.08,22.08-21.79-9.59-21.79-22.08ZM22.27,1167.13h.58c2.32,0,4.07-1.74,4.07-4.07v-.58c0-2.32-1.74-4.07-4.07-4.07h-.58c-2.32,0-4.07,1.74-4.07,4.07v.58c0,2.32,1.74,4.07,4.07,4.07ZM109.42,1167.13h.58c2.32,0,4.07-1.74,4.07-4.07v-.58c0-2.32-1.74-4.07-4.07-4.07h-.58c-2.32,0-4.07,1.74-4.07,4.07v.58c0,2.32,1.74,4.07,4.07,4.07ZM196.57,1167.13h.58c2.32,0,4.07-1.74,4.07-4.07v-.58c0-2.32-1.74-4.07-4.07-4.07h-.58c-2.32,0-4.07,1.74-4.07,4.07v.58c0,2.32,1.74,4.07,4.07,4.07ZM.48,1133.43c0-12.49,9.3-21.79,21.79-21.79s22.08,9.3,22.08,21.79-9.01,22.08-22.08,22.08-21.79-9.59-21.79-22.08ZM87.63,1133.43c0-12.49,9.3-21.79,21.79-21.79s22.08,9.3,22.08,21.79-9,22.08-22.08,22.08-21.79-9.59-21.79-22.08ZM174.78,1133.43c0-12.49,9.3-21.79,21.79-21.79s22.08,9.3,22.08,21.79-9.01,22.08-22.08,22.08-21.79-9.59-21.79-22.08ZM22.27,1138.08h.58c2.32,0,4.07-1.74,4.07-4.07v-.58c0-2.32-1.74-4.07-4.07-4.07h-.58c-2.32,0-4.07,1.74-4.07,4.07v.58c0,2.32,1.74,4.07,4.07,4.07ZM109.42,1138.08h.58c2.32,0,4.07-1.74,4.07-4.07v-.58c0-2.32-1.74-4.07-4.07-4.07h-.58c-2.32,0-4.07,1.74-4.07,4.07v.58c0,2.32,1.74,4.07,4.07,4.07ZM196.57,1138.08h.58c2.32,0,4.07-1.74,4.07-4.07v-.58c0-2.32-1.74-4.07-4.07-4.07h-.58c-2.32,0-4.07,1.74-4.07,4.07v.58c0,2.32,1.74,4.07,4.07,4.07ZM.48,1104.38c0-12.49,9.3-21.79,21.79-21.79s22.08,9.3,22.08,21.79-9.01,22.08-22.08,22.08-21.79-9.59-21.79-22.08ZM87.63,1104.38c0-12.49,9.3-21.79,21.79-21.79s22.08,9.3,22.08,21.79-9,22.08-22.08,22.08-21.79-9.59-21.79-22.08ZM174.78,1104.38c0-12.49,9.3-21.79,21.79-21.79s22.08,9.3,22.08,21.79-9.01,22.08-22.08,22.08-21.79-9.59-21.79-22.08ZM22.27,1109.03h.58c2.32,0,4.07-1.74,4.07-4.07v-.58c0-2.32-1.74-4.07-4.07-4.07h-.58c-2.32,0-4.07,1.74-4.07,4.07v.58c0,2.32,1.74,4.07,4.07,4.07ZM109.42,1109.03h.58c2.32,0,4.07-1.74,4.07-4.07v-.58c0-2.32-1.74-4.07-4.07-4.07h-.58c-2.32,0-4.07,1.74-4.07,4.07v.58c0,2.32,1.74,4.07,4.07,4.07ZM196.57,1109.03h.58c2.32,0,4.07-1.74,4.07-4.07v-.58c0-2.32-1.74-4.07-4.07-4.07h-.58c-2.32,0-4.07,1.74-4.07,4.07v.58c0,2.32,1.74,4.07,4.07,4.07ZM.48,1075.33c0-12.49,9.3-21.79,21.79-21.79s22.08,9.3,22.08,21.79-9.01,22.08-22.08,22.08-21.79-9.59-21.79-22.08ZM87.63,1075.33c0-12.49,9.3-21.79,21.79-21.79s22.08,9.3,22.08,21.79-9,22.08-22.08,22.08-21.79-9.59-21.79-22.08ZM174.78,1075.33c0-12.49,9.3-21.79,21.79-21.79s22.08,9.3,22.08,21.79-9.01,22.08-22.08,22.08-21.79-9.59-21.79-22.08ZM22.27,1079.98h.58c2.32,0,4.07-1.74,4.07-4.07v-.58c0-2.32-1.74-4.07-4.07-4.07h-.58c-2.32,0-4.07,1.74-4.07,4.07v.58c0,2.32,1.74,4.07,4.07,4.07ZM109.42,1079.98h.58c2.32,0,4.07-1.74,4.07-4.07v-.58c0-2.32-1.74-4.07-4.07-4.07h-.58c-2.32,0-4.07,1.74-4.07,4.07v.58c0,2.32,1.74,4.07,4.07,4.07ZM196.57,1079.98h.58c2.32,0,4.07-1.74,4.07-4.07v-.58c0-2.32-1.74-4.07-4.07-4.07h-.58c-2.32,0-4.07,1.74-4.07,4.07v.58c0,2.32,1.74,4.07,4.07,4.07ZM29.53,1046.28c0-12.49,9.3-21.79,21.79-21.79s22.08,9.3,22.08,21.79-9,22.08-22.08,22.08-21.79-9.59-21.79-22.08ZM116.68,1046.28c0-12.49,9.3-21.79,21.79-21.79s22.08,9.3,22.08,21.79-9.01,22.08-22.08,22.08-21.79-9.59-21.79-22.08ZM145.73,1046.28c0-12.49,9.3-21.79,21.79-21.79s22.08,9.3,22.08,21.79-9.01,22.08-22.08,22.08-21.79-9.59-21.79-22.08ZM51.32,1050.93h.58c2.32,0,4.07-1.74,4.07-4.07v-.58c0-2.32-1.74-4.07-4.07-4.07h-.58c-2.32,0-4.07,1.74-4.07,4.07v.58c0,2.32,1.74,4.07,4.07,4.07ZM138.47,1050.93h.58c2.32,0,4.07-1.74,4.07-4.07v-.58c0-2.32-1.74-4.07-4.07-4.07h-.58c-2.32,0-4.07,1.74-4.07,4.07v.58c0,2.32,1.74,4.07,4.07,4.07ZM167.52,1050.93h.58c2.32,0,4.07-1.74,4.07-4.07v-.58c0-2.32-1.74-4.07-4.07-4.07h-.58c-2.32,0-4.07,1.74-4.07,4.07v.58c0,2.32,1.74,4.07,4.07,4.07Z"/>
      <path class="cls-1" d="M174.78,994.28c0-12.49,9.3-21.79,21.79-21.79s22.08,9.3,22.08,21.79-9.01,22.08-22.08,22.08-21.79-9.59-21.79-22.08ZM196.57,998.93h.58c2.32,0,4.07-1.74,4.07-4.07v-.58c0-2.32-1.74-4.07-4.07-4.07h-.58c-2.32,0-4.07,1.74-4.07,4.07v.58c0,2.32,1.74,4.07,4.07,4.07ZM116.68,965.23c0-12.49,9.3-21.79,21.79-21.79s22.08,9.3,22.08,21.79-9.01,22.08-22.08,22.08-21.79-9.59-21.79-22.08ZM145.73,965.23c0-12.49,9.3-21.79,21.79-21.79s22.08,9.3,22.08,21.79-9.01,22.08-22.08,22.08-21.79-9.59-21.79-22.08ZM138.47,969.88h.58c2.32,0,4.07-1.74,4.07-4.07v-.58c0-2.32-1.74-4.07-4.07-4.07h-.58c-2.32,0-4.07,1.74-4.07,4.07v.58c0,2.32,1.74,4.07,4.07,4.07ZM167.52,969.88h.58c2.32,0,4.07-1.74,4.07-4.07v-.58c0-2.32-1.74-4.07-4.07-4.07h-.58c-2.32,0-4.07,1.74-4.07,4.07v.58c0,2.32,1.74,4.07,4.07,4.07ZM58.58,936.18c0-12.49,9.3-21.79,21.79-21.79s22.08,9.3,22.08,21.79-9,22.08-22.08,22.08-21.79-9.59-21.79-22.08ZM87.63,936.18c0-12.49,9.3-21.79,21.79-21.79s22.08,9.3,22.08,21.79-9,22.08-22.08,22.08-21.79-9.59-21.79-22.08ZM116.68,936.18c0-12.49,9.3-21.79,21.79-21.79s22.08,9.3,22.08,21.79-9.01,22.08-22.08,22.08-21.79-9.59-21.79-22.08ZM80.37,940.83h.58c2.32,0,4.07-1.74,4.07-4.07v-.58c0-2.32-1.74-4.07-4.07-4.07h-.58c-2.32,0-4.07,1.74-4.07,4.07v.58c0,2.32,1.74,4.07,4.07,4.07ZM109.42,940.83h.58c2.32,0,4.07-1.74,4.07-4.07v-.58c0-2.32-1.74-4.07-4.07-4.07h-.58c-2.32,0-4.07,1.74-4.07,4.07v.58c0,2.32,1.74,4.07,4.07,4.07ZM138.47,940.83h.58c2.32,0,4.07-1.74,4.07-4.07v-.58c0-2.32-1.74-4.07-4.07-4.07h-.58c-2.32,0-4.07,1.74-4.07,4.07v.58c0,2.32,1.74,4.07,4.07,4.07ZM.48,907.13c0-12.49,9.3-21.79,21.79-21.79s22.08,9.3,22.08,21.79-9.01,22.08-22.08,22.08S.48,919.62.48,907.13ZM29.53,907.13c0-12.49,9.3-21.79,21.79-21.79s22.08,9.3,22.08,21.79-9,22.08-22.08,22.08-21.79-9.59-21.79-22.08ZM116.68,907.13c0-12.49,9.3-21.79,21.79-21.79s22.08,9.3,22.08,21.79-9.01,22.08-22.08,22.08-21.79-9.59-21.79-22.08ZM22.27,911.78h.58c2.32,0,4.07-1.74,4.07-4.07v-.58c0-2.32-1.74-4.07-4.07-4.07h-.58c-2.32,0-4.07,1.74-4.07,4.07v.58c0,2.32,1.74,4.07,4.07,4.07ZM51.32,911.78h.58c2.32,0,4.07-1.74,4.07-4.07v-.58c0-2.32-1.74-4.07-4.07-4.07h-.58c-2.32,0-4.07,1.74-4.07,4.07v.58c0,2.32,1.74,4.07,4.07,4.07ZM138.47,911.78h.58c2.32,0,4.07-1.74,4.07-4.07v-.58c0-2.32-1.74-4.07-4.07-4.07h-.58c-2.32,0-4.07,1.74-4.07,4.07v.58c0,2.32,1.74,4.07,4.07,4.07ZM58.58,878.08c0-12.49,9.3-21.79,21.79-21.79s22.08,9.3,22.08,21.79-9,22.08-22.08,22.08-21.79-9.59-21.79-22.08ZM87.63,878.08c0-12.49,9.3-21.79,21.79-21.79s22.08,9.3,22.08,21.79-9,22.08-22.08,22.08-21.79-9.59-21.79-22.08ZM116.68,878.08c0-12.49,9.3-21.79,21.79-21.79s22.08,9.3,22.08,21.79-9.01,22.08-22.08,22.08-21.79-9.59-21.79-22.08ZM80.37,882.73h.58c2.32,0,4.07-1.74,4.07-4.07v-.58c0-2.32-1.74-4.07-4.07-4.07h-.58c-2.32,0-4.07,1.74-4.07,4.07v.58c0,2.32,1.74,4.07,4.07,4.07ZM109.42,882.73h.58c2.32,0,4.07-1.74,4.07-4.07v-.58c0-2.32-1.74-4.07-4.07-4.07h-.58c-2.32,0-4.07,1.74-4.07,4.07v.58c0,2.32,1.74,4.07,4.07,4.07ZM138.47,882.73h.58c2.32,0,4.07-1.74,4.07-4.07v-.58c0-2.32-1.74-4.07-4.07-4.07h-.58c-2.32,0-4.07,1.74-4.07,4.07v.58c0,2.32,1.74,4.07,4.07,4.07ZM116.68,849.03c0-12.49,9.3-21.79,21.79-21.79s22.08,9.3,22.08,21.79-9.01,22.08-22.08,22.08-21.79-9.59-21.79-22.08ZM145.73,849.03c0-12.49,9.3-21.79,21.79-21.79s22.08,9.3,22.08,21.79-9.01,22.08-22.08,22.08-21.79-9.59-21.79-22.08ZM138.47,853.68h.58c2.32,0,4.07-1.74,4.07-4.07v-.58c0-2.32-1.74-4.07-4.07-4.07h-.58c-2.32,0-4.07,1.74-4.07,4.07v.58c0,2.32,1.74,4.07,4.07,4.07ZM167.52,853.68h.58c2.32,0,4.07-1.74,4.07-4.07v-.58c0-2.32-1.74-4.07-4.07-4.07h-.58c-2.32,0-4.07,1.74-4.07,4.07v.58c0,2.32,1.74,4.07,4.07,4.07ZM174.78,819.98c0-12.49,9.3-21.79,21.79-21.79s22.08,9.3,22.08,21.79-9.01,22.08-22.08,22.08-21.79-9.59-21.79-22.08ZM196.57,824.63h.58c2.32,0,4.07-1.74,4.07-4.07v-.58c0-2.32-1.74-4.07-4.07-4.07h-.58c-2.32,0-4.07,1.74-4.07,4.07v.58c0,2.32,1.74,4.07,4.07,4.07Z"/>
      <path class="cls-1" d="M.48,765.08c0-12.49,9.3-21.79,21.79-21.79s22.08,9.3,22.08,21.79-9.01,22.08-22.08,22.08S.48,777.57.48,765.08ZM29.53,765.08c0-12.49,9.3-21.79,21.79-21.79s22.08,9.3,22.08,21.79-9,22.08-22.08,22.08-21.79-9.59-21.79-22.08ZM58.58,765.08c0-12.49,9.3-21.79,21.79-21.79s22.08,9.3,22.08,21.79-9,22.08-22.08,22.08-21.79-9.59-21.79-22.08ZM87.63,765.08c0-12.49,9.3-21.79,21.79-21.79s22.08,9.3,22.08,21.79-9,22.08-22.08,22.08-21.79-9.59-21.79-22.08ZM116.68,765.08c0-12.49,9.3-21.79,21.79-21.79s22.08,9.3,22.08,21.79-9.01,22.08-22.08,22.08-21.79-9.59-21.79-22.08ZM145.73,765.08c0-12.49,9.3-21.79,21.79-21.79s22.08,9.3,22.08,21.79-9.01,22.08-22.08,22.08-21.79-9.59-21.79-22.08ZM174.78,765.08c0-12.49,9.3-21.79,21.79-21.79s22.08,9.3,22.08,21.79-9.01,22.08-22.08,22.08-21.79-9.59-21.79-22.08ZM22.27,769.73h.58c2.32,0,4.07-1.74,4.07-4.07v-.58c0-2.32-1.74-4.07-4.07-4.07h-.58c-2.32,0-4.07,1.74-4.07,4.07v.58c0,2.32,1.74,4.07,4.07,4.07ZM51.32,769.73h.58c2.32,0,4.07-1.74,4.07-4.07v-.58c0-2.32-1.74-4.07-4.07-4.07h-.58c-2.32,0-4.07,1.74-4.07,4.07v.58c0,2.32,1.74,4.07,4.07,4.07ZM80.37,769.73h.58c2.32,0,4.07-1.74,4.07-4.07v-.58c0-2.32-1.74-4.07-4.07-4.07h-.58c-2.32,0-4.07,1.74-4.07,4.07v.58c0,2.32,1.74,4.07,4.07,4.07ZM109.42,769.73h.58c2.32,0,4.07-1.74,4.07-4.07v-.58c0-2.32-1.74-4.07-4.07-4.07h-.58c-2.32,0-4.07,1.74-4.07,4.07v.58c0,2.32,1.74,4.07,4.07,4.07ZM138.47,769.73h.58c2.32,0,4.07-1.74,4.07-4.07v-.58c0-2.32-1.74-4.07-4.07-4.07h-.58c-2.32,0-4.07,1.74-4.07,4.07v.58c0,2.32,1.74,4.07,4.07,4.07ZM167.52,769.73h.58c2.32,0,4.07-1.74,4.07-4.07v-.58c0-2.32-1.74-4.07-4.07-4.07h-.58c-2.32,0-4.07,1.74-4.07,4.07v.58c0,2.32,1.74,4.07,4.07,4.07ZM196.57,769.73h.58c2.32,0,4.07-1.74,4.07-4.07v-.58c0-2.32-1.74-4.07-4.07-4.07h-.58c-2.32,0-4.07,1.74-4.07,4.07v.58c0,2.32,1.74,4.07,4.07,4.07ZM29.53,736.03c0-12.49,9.3-21.79,21.79-21.79s22.08,9.3,22.08,21.79-9,22.08-22.08,22.08-21.79-9.59-21.79-22.08ZM51.32,740.68h.58c2.32,0,4.07-1.74,4.07-4.07v-.58c0-2.32-1.74-4.07-4.07-4.07h-.58c-2.32,0-4.07,1.74-4.07,4.07v.58c0,2.32,1.74,4.07,4.07,4.07ZM58.58,706.98c0-12.49,9.3-21.79,21.79-21.79s22.08,9.3,22.08,21.79-9,22.08-22.08,22.08-21.79-9.59-21.79-22.08ZM87.63,706.98c0-12.49,9.3-21.79,21.79-21.79s22.08,9.3,22.08,21.79-9,22.08-22.08,22.08-21.79-9.59-21.79-22.08ZM80.37,711.63h.58c2.32,0,4.07-1.74,4.07-4.07v-.58c0-2.32-1.74-4.07-4.07-4.07h-.58c-2.32,0-4.07,1.74-4.07,4.07v.58c0,2.32,1.74,4.07,4.07,4.07ZM109.42,711.63h.58c2.32,0,4.07-1.74,4.07-4.07v-.58c0-2.32-1.74-4.07-4.07-4.07h-.58c-2.32,0-4.07,1.74-4.07,4.07v.58c0,2.32,1.74,4.07,4.07,4.07ZM116.68,677.93c0-12.49,9.3-21.79,21.79-21.79s22.08,9.3,22.08,21.79-9.01,22.08-22.08,22.08-21.79-9.59-21.79-22.08ZM138.47,682.58h.58c2.32,0,4.07-1.74,4.07-4.07v-.58c0-2.32-1.74-4.07-4.07-4.07h-.58c-2.32,0-4.07,1.74-4.07,4.07v.58c0,2.32,1.74,4.07,4.07,4.07ZM145.73,648.88c0-12.49,9.3-21.79,21.79-21.79s22.08,9.3,22.08,21.79-9.01,22.08-22.08,22.08-21.79-9.59-21.79-22.08ZM167.52,653.53h.58c2.32,0,4.07-1.74,4.07-4.07v-.58c0-2.32-1.74-4.07-4.07-4.07h-.58c-2.32,0-4.07,1.74-4.07,4.07v.58c0,2.32,1.74,4.07,4.07,4.07ZM.48,619.83c0-12.49,9.3-21.79,21.79-21.79s22.08,9.3,22.08,21.79-9.01,22.08-22.08,22.08S.48,632.32.48,619.83ZM29.53,619.83c0-12.49,9.3-21.79,21.79-21.79s22.08,9.3,22.08,21.79-9,22.08-22.08,22.08-21.79-9.59-21.79-22.08ZM58.58,619.83c0-12.49,9.3-21.79,21.79-21.79s22.08,9.3,22.08,21.79-9,22.08-22.08,22.08-21.79-9.59-21.79-22.08ZM87.63,619.83c0-12.49,9.3-21.79,21.79-21.79s22.08,9.3,22.08,21.79-9,22.08-22.08,22.08-21.79-9.59-21.79-22.08ZM116.68,619.83c0-12.49,9.3-21.79,21.79-21.79s22.08,9.3,22.08,21.79-9.01,22.08-22.08,22.08-21.79-9.59-21.79-22.08ZM145.73,619.83c0-12.49,9.3-21.79,21.79-21.79s22.08,9.3,22.08,21.79-9.01,22.08-22.08,22.08-21.79-9.59-21.79-22.08ZM174.78,619.83c0-12.49,9.3-21.79,21.79-21.79s22.08,9.3,22.08,21.79-9.01,22.08-22.08,22.08-21.79-9.59-21.79-22.08ZM22.27,624.48h.58c2.32,0,4.07-1.74,4.07-4.07v-.58c0-2.32-1.74-4.07-4.07-4.07h-.58c-2.32,0-4.07,1.74-4.07,4.07v.58c0,2.32,1.74,4.07,4.07,4.07ZM51.32,624.48h.58c2.32,0,4.07-1.74,4.07-4.07v-.58c0-2.32-1.74-4.07-4.07-4.07h-.58c-2.32,0-4.07,1.74-4.07,4.07v.58c0,2.32,1.74,4.07,4.07,4.07ZM80.37,624.48h.58c2.32,0,4.07-1.74,4.07-4.07v-.58c0-2.32-1.74-4.07-4.07-4.07h-.58c-2.32,0-4.07,1.74-4.07,4.07v.58c0,2.32,1.74,4.07,4.07,4.07ZM109.42,624.48h.58c2.32,0,4.07-1.74,4.07-4.07v-.58c0-2.32-1.74-4.07-4.07-4.07h-.58c-2.32,0-4.07,1.74-4.07,4.07v.58c0,2.32,1.74,4.07,4.07,4.07ZM138.47,624.48h.58c2.32,0,4.07-1.74,4.07-4.07v-.58c0-2.32-1.74-4.07-4.07-4.07h-.58c-2.32,0-4.07,1.74-4.07,4.07v.58c0,2.32,1.74,4.07,4.07,4.07ZM167.52,624.48h.58c2.32,0,4.07-1.74,4.07-4.07v-.58c0-2.32-1.74-4.07-4.07-4.07h-.58c-2.32,0-4.07,1.74-4.07,4.07v.58c0,2.32,1.74,4.07,4.07,4.07ZM196.57,624.48h.58c2.32,0,4.07-1.74,4.07-4.07v-.58c0-2.32-1.74-4.07-4.07-4.07h-.58c-2.32,0-4.07,1.74-4.07,4.07v.58c0,2.32,1.74,4.07,4.07,4.07Z"/>
      <path class="cls-1" d="M.48,564.92c0-12.49,9.3-21.79,21.79-21.79s22.08,9.3,22.08,21.79-9.01,22.08-22.08,22.08S.48,577.41.48,564.92ZM29.53,564.92c0-12.49,9.3-21.79,21.79-21.79s22.08,9.3,22.08,21.79-9,22.08-22.08,22.08-21.79-9.59-21.79-22.08ZM58.58,564.92c0-12.49,9.3-21.79,21.79-21.79s22.08,9.3,22.08,21.79-9,22.08-22.08,22.08-21.79-9.59-21.79-22.08ZM87.63,564.92c0-12.49,9.3-21.79,21.79-21.79s22.08,9.3,22.08,21.79-9,22.08-22.08,22.08-21.79-9.59-21.79-22.08ZM116.68,564.92c0-12.49,9.3-21.79,21.79-21.79s22.08,9.3,22.08,21.79-9.01,22.08-22.08,22.08-21.79-9.59-21.79-22.08ZM145.73,564.92c0-12.49,9.3-21.79,21.79-21.79s22.08,9.3,22.08,21.79-9.01,22.08-22.08,22.08-21.79-9.59-21.79-22.08ZM174.78,564.92c0-12.49,9.3-21.79,21.79-21.79s22.08,9.3,22.08,21.79-9.01,22.08-22.08,22.08-21.79-9.59-21.79-22.08ZM22.27,569.57h.58c2.32,0,4.07-1.74,4.07-4.07v-.58c0-2.32-1.74-4.07-4.07-4.07h-.58c-2.32,0-4.07,1.74-4.07,4.07v.58c0,2.32,1.74,4.07,4.07,4.07ZM51.32,569.57h.58c2.32,0,4.07-1.74,4.07-4.07v-.58c0-2.32-1.74-4.07-4.07-4.07h-.58c-2.32,0-4.07,1.74-4.07,4.07v.58c0,2.32,1.74,4.07,4.07,4.07ZM80.37,569.57h.58c2.32,0,4.07-1.74,4.07-4.07v-.58c0-2.32-1.74-4.07-4.07-4.07h-.58c-2.32,0-4.07,1.74-4.07,4.07v.58c0,2.32,1.74,4.07,4.07,4.07ZM109.42,569.57h.58c2.32,0,4.07-1.74,4.07-4.07v-.58c0-2.32-1.74-4.07-4.07-4.07h-.58c-2.32,0-4.07,1.74-4.07,4.07v.58c0,2.32,1.74,4.07,4.07,4.07ZM138.47,569.57h.58c2.32,0,4.07-1.74,4.07-4.07v-.58c0-2.32-1.74-4.07-4.07-4.07h-.58c-2.32,0-4.07,1.74-4.07,4.07v.58c0,2.32,1.74,4.07,4.07,4.07ZM167.52,569.57h.58c2.32,0,4.07-1.74,4.07-4.07v-.58c0-2.32-1.74-4.07-4.07-4.07h-.58c-2.32,0-4.07,1.74-4.07,4.07v.58c0,2.32,1.74,4.07,4.07,4.07ZM196.57,569.57h.58c2.32,0,4.07-1.74,4.07-4.07v-.58c0-2.32-1.74-4.07-4.07-4.07h-.58c-2.32,0-4.07,1.74-4.07,4.07v.58c0,2.32,1.74,4.07,4.07,4.07ZM.48,535.87c0-12.49,9.3-21.79,21.79-21.79s22.08,9.3,22.08,21.79-9.01,22.08-22.08,22.08S.48,548.37.48,535.87ZM174.78,535.87c0-12.49,9.3-21.79,21.79-21.79s22.08,9.3,22.08,21.79-9.01,22.08-22.08,22.08-21.79-9.59-21.79-22.08ZM22.27,540.52h.58c2.32,0,4.07-1.74,4.07-4.07v-.58c0-2.32-1.74-4.07-4.07-4.07h-.58c-2.32,0-4.07,1.74-4.07,4.07v.58c0,2.32,1.74,4.07,4.07,4.07ZM196.57,540.52h.58c2.32,0,4.07-1.74,4.07-4.07v-.58c0-2.32-1.74-4.07-4.07-4.07h-.58c-2.32,0-4.07,1.74-4.07,4.07v.58c0,2.32,1.74,4.07,4.07,4.07ZM.48,506.82c0-12.49,9.3-21.79,21.79-21.79s22.08,9.3,22.08,21.79-9.01,22.08-22.08,22.08S.48,519.32.48,506.82ZM174.78,506.82c0-12.49,9.3-21.79,21.79-21.79s22.08,9.3,22.08,21.79-9.01,22.08-22.08,22.08-21.79-9.59-21.79-22.08ZM22.27,511.47h.58c2.32,0,4.07-1.74,4.07-4.07v-.58c0-2.32-1.74-4.07-4.07-4.07h-.58c-2.32,0-4.07,1.74-4.07,4.07v.58c0,2.32,1.74,4.07,4.07,4.07ZM196.57,511.47h.58c2.32,0,4.07-1.74,4.07-4.07v-.58c0-2.32-1.74-4.07-4.07-4.07h-.58c-2.32,0-4.07,1.74-4.07,4.07v.58c0,2.32,1.74,4.07,4.07,4.07ZM.48,477.77c0-12.49,9.3-21.79,21.79-21.79s22.08,9.3,22.08,21.79-9.01,22.08-22.08,22.08S.48,490.27.48,477.77ZM174.78,477.77c0-12.49,9.3-21.79,21.79-21.79s22.08,9.3,22.08,21.79-9.01,22.08-22.08,22.08-21.79-9.59-21.79-22.08ZM22.27,482.42h.58c2.32,0,4.07-1.74,4.07-4.07v-.58c0-2.32-1.74-4.07-4.07-4.07h-.58c-2.32,0-4.07,1.74-4.07,4.07v.58c0,2.32,1.74,4.07,4.07,4.07ZM196.57,482.42h.58c2.32,0,4.07-1.74,4.07-4.07v-.58c0-2.32-1.74-4.07-4.07-4.07h-.58c-2.32,0-4.07,1.74-4.07,4.07v.58c0,2.32,1.74,4.07,4.07,4.07ZM29.53,448.72c0-12.49,9.3-21.79,21.79-21.79s22.08,9.3,22.08,21.79-9,22.08-22.08,22.08-21.79-9.59-21.79-22.08ZM145.73,448.72c0-12.49,9.3-21.79,21.79-21.79s22.08,9.3,22.08,21.79-9.01,22.08-22.08,22.08-21.79-9.59-21.79-22.08ZM51.32,453.37h.58c2.32,0,4.07-1.74,4.07-4.07v-.58c0-2.32-1.74-4.07-4.07-4.07h-.58c-2.32,0-4.07,1.74-4.07,4.07v.58c0,2.32,1.74,4.07,4.07,4.07ZM167.52,453.37h.58c2.32,0,4.07-1.74,4.07-4.07v-.58c0-2.32-1.74-4.07-4.07-4.07h-.58c-2.32,0-4.07,1.74-4.07,4.07v.58c0,2.32,1.74,4.07,4.07,4.07ZM58.58,419.68c0-12.49,9.3-21.79,21.79-21.79s22.08,9.3,22.08,21.79-9,22.08-22.08,22.08-21.79-9.59-21.79-22.08ZM87.63,419.68c0-12.49,9.3-21.79,21.79-21.79s22.08,9.3,22.08,21.79-9,22.08-22.08,22.08-21.79-9.59-21.79-22.08ZM116.68,419.68c0-12.49,9.3-21.79,21.79-21.79s22.08,9.3,22.08,21.79-9.01,22.08-22.08,22.08-21.79-9.59-21.79-22.08ZM80.37,424.32h.58c2.32,0,4.07-1.74,4.07-4.07v-.58c0-2.32-1.74-4.07-4.07-4.07h-.58c-2.32,0-4.07,1.74-4.07,4.07v.58c0,2.32,1.74,4.07,4.07,4.07ZM109.42,424.32h.58c2.32,0,4.07-1.74,4.07-4.07v-.58c0-2.32-1.74-4.07-4.07-4.07h-.58c-2.32,0-4.07,1.74-4.07,4.07v.58c0,2.32,1.74,4.07,4.07,4.07ZM138.47,424.32h.58c2.32,0,4.07-1.74,4.07-4.07v-.58c0-2.32-1.74-4.07-4.07-4.07h-.58c-2.32,0-4.07,1.74-4.07,4.07v.58c0,2.32,1.74,4.07,4.07,4.07Z"/>
      <path class="cls-1" d="M.48,405.44c0-12.49,9.3-21.79,21.79-21.79s22.08,9.3,22.08,21.79-9.01,22.08-22.08,22.08S.48,417.93.48,405.44ZM22.27,410.09h.58c2.32,0,4.07-1.74,4.07-4.07v-.58c0-2.32-1.74-4.07-4.07-4.07h-.58c-2.32,0-4.07,1.74-4.07,4.07v.58c0,2.32,1.74,4.07,4.07,4.07ZM29.53,376.39c0-12.49,9.3-21.79,21.79-21.79s22.08,9.3,22.08,21.79-9,22.08-22.08,22.08-21.79-9.59-21.79-22.08ZM51.32,381.04h.58c2.32,0,4.07-1.74,4.07-4.07v-.58c0-2.32-1.74-4.07-4.07-4.07h-.58c-2.32,0-4.07,1.74-4.07,4.07v.58c0,2.32,1.74,4.07,4.07,4.07ZM58.58,347.34c0-12.49,9.3-21.79,21.79-21.79s22.08,9.3,22.08,21.79-9,22.08-22.08,22.08-21.79-9.59-21.79-22.08ZM80.37,351.99h.58c2.32,0,4.07-1.74,4.07-4.07v-.58c0-2.32-1.74-4.07-4.07-4.07h-.58c-2.32,0-4.07,1.74-4.07,4.07v.58c0,2.32,1.74,4.07,4.07,4.07ZM87.63,318.29c0-12.49,9.3-21.79,21.79-21.79s22.08,9.29,22.08,21.79-9,22.08-22.08,22.08-21.79-9.59-21.79-22.08ZM116.68,318.29c0-12.49,9.3-21.79,21.79-21.79s22.08,9.29,22.08,21.79-9.01,22.08-22.08,22.08-21.79-9.59-21.79-22.08ZM145.73,318.29c0-12.49,9.3-21.79,21.79-21.79s22.08,9.29,22.08,21.79-9.01,22.08-22.08,22.08-21.79-9.59-21.79-22.08ZM174.78,318.29c0-12.49,9.3-21.79,21.79-21.79s22.08,9.29,22.08,21.79-9.01,22.08-22.08,22.08-21.79-9.59-21.79-22.08ZM109.42,322.94h.58c2.32,0,4.07-1.74,4.07-4.07v-.58c0-2.32-1.74-4.07-4.07-4.07h-.58c-2.32,0-4.07,1.74-4.07,4.07v.58c0,2.32,1.74,4.07,4.07,4.07ZM138.47,322.94h.58c2.32,0,4.07-1.74,4.07-4.07v-.58c0-2.32-1.74-4.07-4.07-4.07h-.58c-2.32,0-4.07,1.74-4.07,4.07v.58c0,2.32,1.74,4.07,4.07,4.07ZM167.52,322.94h.58c2.32,0,4.07-1.74,4.07-4.07v-.58c0-2.32-1.74-4.07-4.07-4.07h-.58c-2.32,0-4.07,1.74-4.07,4.07v.58c0,2.32,1.74,4.07,4.07,4.07ZM196.57,322.94h.58c2.32,0,4.07-1.74,4.07-4.07v-.58c0-2.32-1.74-4.07-4.07-4.07h-.58c-2.32,0-4.07,1.74-4.07,4.07v.58c0,2.32,1.74,4.07,4.07,4.07ZM58.58,289.24c0-12.49,9.3-21.79,21.79-21.79s22.08,9.3,22.08,21.79-9,22.08-22.08,22.08-21.79-9.59-21.79-22.08ZM80.37,293.89h.58c2.32,0,4.07-1.74,4.07-4.07v-.58c0-2.32-1.74-4.07-4.07-4.07h-.58c-2.32,0-4.07,1.74-4.07,4.07v.58c0,2.32,1.74,4.07,4.07,4.07ZM29.53,260.19c0-12.49,9.3-21.79,21.79-21.79s22.08,9.3,22.08,21.79-9,22.08-22.08,22.08-21.79-9.59-21.79-22.08ZM51.32,264.84h.58c2.32,0,4.07-1.74,4.07-4.07v-.58c0-2.32-1.74-4.07-4.07-4.07h-.58c-2.32,0-4.07,1.74-4.07,4.07v.58c0,2.32,1.74,4.07,4.07,4.07ZM.48,231.14c0-12.49,9.3-21.79,21.79-21.79s22.08,9.3,22.08,21.79-9.01,22.08-22.08,22.08S.48,243.63.48,231.14ZM22.27,235.79h.58c2.32,0,4.07-1.74,4.07-4.07v-.58c0-2.32-1.74-4.07-4.07-4.07h-.58c-2.32,0-4.07,1.74-4.07,4.07v.58c0,2.32,1.74,4.07,4.07,4.07Z"/>
      <path class="cls-1" d="M199.48,1191.53c0-12.49,9.3-21.79,21.79-21.79s22.08,9.3,22.08,21.79-9.01,22.08-22.08,22.08-21.79-9.59-21.79-22.08ZM228.53,1191.53c0-12.49,9.3-21.79,21.79-21.79s22.08,9.3,22.08,21.79-9,22.08-22.08,22.08-21.79-9.59-21.79-22.08ZM257.58,1191.53c0-12.49,9.3-21.79,21.79-21.79s22.08,9.3,22.08,21.79-9,22.08-22.08,22.08-21.79-9.59-21.79-22.08ZM286.63,1191.53c0-12.49,9.3-21.79,21.79-21.79s22.08,9.3,22.08,21.79-9,22.08-22.08,22.08-21.79-9.59-21.79-22.08ZM315.68,1191.53c0-12.49,9.3-21.79,21.79-21.79s22.08,9.3,22.08,21.79-9.01,22.08-22.08,22.08-21.79-9.59-21.79-22.08ZM344.73,1191.53c0-12.49,9.3-21.79,21.79-21.79s22.08,9.3,22.08,21.79-9.01,22.08-22.08,22.08-21.79-9.59-21.79-22.08ZM373.78,1191.53c0-12.49,9.3-21.79,21.79-21.79s22.08,9.3,22.08,21.79-9.01,22.08-22.08,22.08-21.79-9.59-21.79-22.08ZM221.27,1196.18h.58c2.32,0,4.07-1.74,4.07-4.07v-.58c0-2.32-1.74-4.07-4.07-4.07h-.58c-2.32,0-4.07,1.74-4.07,4.07v.58c0,2.32,1.74,4.07,4.07,4.07ZM250.32,1196.18h.58c2.32,0,4.07-1.74,4.07-4.07v-.58c0-2.32-1.74-4.07-4.07-4.07h-.58c-2.32,0-4.07,1.74-4.07,4.07v.58c0,2.32,1.74,4.07,4.07,4.07ZM279.37,1196.18h.58c2.32,0,4.07-1.74,4.07-4.07v-.58c0-2.32-1.74-4.07-4.07-4.07h-.58c-2.32,0-4.07,1.74-4.07,4.07v.58c0,2.32,1.74,4.07,4.07,4.07ZM308.42,1196.18h.58c2.32,0,4.07-1.74,4.07-4.07v-.58c0-2.32-1.74-4.07-4.07-4.07h-.58c-2.32,0-4.07,1.74-4.07,4.07v.58c0,2.32,1.74,4.07,4.07,4.07ZM337.47,1196.18h.58c2.32,0,4.07-1.74,4.07-4.07v-.58c0-2.32-1.74-4.07-4.07-4.07h-.58c-2.32,0-4.07,1.74-4.07,4.07v.58c0,2.32,1.74,4.07,4.07,4.07ZM366.52,1196.18h.58c2.32,0,4.07-1.74,4.07-4.07v-.58c0-2.32-1.74-4.07-4.07-4.07h-.58c-2.32,0-4.07,1.74-4.07,4.07v.58c0,2.32,1.74,4.07,4.07,4.07ZM395.57,1196.18h.58c2.32,0,4.07-1.74,4.07-4.07v-.58c0-2.32-1.74-4.07-4.07-4.07h-.58c-2.32,0-4.07,1.74-4.07,4.07v.58c0,2.32,1.74,4.07,4.07,4.07ZM286.63,1162.48c0-12.49,9.3-21.79,21.79-21.79s22.08,9.3,22.08,21.79-9,22.08-22.08,22.08-21.79-9.59-21.79-22.08ZM308.42,1167.13h.58c2.32,0,4.07-1.74,4.07-4.07v-.58c0-2.32-1.74-4.07-4.07-4.07h-.58c-2.32,0-4.07,1.74-4.07,4.07v.58c0,2.32,1.74,4.07,4.07,4.07ZM286.63,1133.43c0-12.49,9.3-21.79,21.79-21.79s22.08,9.3,22.08,21.79-9,22.08-22.08,22.08-21.79-9.59-21.79-22.08ZM308.42,1138.08h.58c2.32,0,4.07-1.74,4.07-4.07v-.58c0-2.32-1.74-4.07-4.07-4.07h-.58c-2.32,0-4.07,1.74-4.07,4.07v.58c0,2.32,1.74,4.07,4.07,4.07ZM286.63,1104.38c0-12.49,9.3-21.79,21.79-21.79s22.08,9.3,22.08,21.79-9,22.08-22.08,22.08-21.79-9.59-21.79-22.08ZM308.42,1109.03h.58c2.32,0,4.07-1.74,4.07-4.07v-.58c0-2.32-1.74-4.07-4.07-4.07h-.58c-2.32,0-4.07,1.74-4.07,4.07v.58c0,2.32,1.74,4.07,4.07,4.07ZM286.63,1075.33c0-12.49,9.3-21.79,21.79-21.79s22.08,9.3,22.08,21.79-9,22.08-22.08,22.08-21.79-9.59-21.79-22.08ZM308.42,1079.98h.58c2.32,0,4.07-1.74,4.07-4.07v-.58c0-2.32-1.74-4.07-4.07-4.07h-.58c-2.32,0-4.07,1.74-4.07,4.07v.58c0,2.32,1.74,4.07,4.07,4.07ZM199.48,1046.28c0-12.49,9.3-21.79,21.79-21.79s22.08,9.3,22.08,21.79-9.01,22.08-22.08,22.08-21.79-9.59-21.79-22.08ZM228.53,1046.28c0-12.49,9.3-21.79,21.79-21.79s22.08,9.3,22.08,21.79-9,22.08-22.08,22.08-21.79-9.59-21.79-22.08ZM257.58,1046.28c0-12.49,9.3-21.79,21.79-21.79s22.08,9.3,22.08,21.79-9,22.08-22.08,22.08-21.79-9.59-21.79-22.08ZM286.63,1046.28c0-12.49,9.3-21.79,21.79-21.79s22.08,9.3,22.08,21.79-9,22.08-22.08,22.08-21.79-9.59-21.79-22.08ZM315.68,1046.28c0-12.49,9.3-21.79,21.79-21.79s22.08,9.3,22.08,21.79-9.01,22.08-22.08,22.08-21.79-9.59-21.79-22.08ZM344.73,1046.28c0-12.49,9.3-21.79,21.79-21.79s22.08,9.3,22.08,21.79-9.01,22.08-22.08,22.08-21.79-9.59-21.79-22.08ZM373.78,1046.28c0-12.49,9.3-21.79,21.79-21.79s22.08,9.3,22.08,21.79-9.01,22.08-22.08,22.08-21.79-9.59-21.79-22.08ZM221.27,1050.93h.58c2.32,0,4.07-1.74,4.07-4.07v-.58c0-2.32-1.74-4.07-4.07-4.07h-.58c-2.32,0-4.07,1.74-4.07,4.07v.58c0,2.32,1.74,4.07,4.07,4.07ZM250.32,1050.93h.58c2.32,0,4.07-1.74,4.07-4.07v-.58c0-2.32-1.74-4.07-4.07-4.07h-.58c-2.32,0-4.07,1.74-4.07,4.07v.58c0,2.32,1.74,4.07,4.07,4.07ZM279.37,1050.93h.58c2.32,0,4.07-1.74,4.07-4.07v-.58c0-2.32-1.74-4.07-4.07-4.07h-.58c-2.32,0-4.07,1.74-4.07,4.07v.58c0,2.32,1.74,4.07,4.07,4.07ZM308.42,1050.93h.58c2.32,0,4.07-1.74,4.07-4.07v-.58c0-2.32-1.74-4.07-4.07-4.07h-.58c-2.32,0-4.07,1.74-4.07,4.07v.58c0,2.32,1.74,4.07,4.07,4.07ZM337.47,1050.93h.58c2.32,0,4.07-1.74,4.07-4.07v-.58c0-2.32-1.74-4.07-4.07-4.07h-.58c-2.32,0-4.07,1.74-4.07,4.07v.58c0,2.32,1.74,4.07,4.07,4.07ZM366.52,1050.93h.58c2.32,0,4.07-1.74,4.07-4.07v-.58c0-2.32-1.74-4.07-4.07-4.07h-.58c-2.32,0-4.07,1.74-4.07,4.07v.58c0,2.32,1.74,4.07,4.07,4.07ZM395.57,1050.93h.58c2.32,0,4.07-1.74,4.07-4.07v-.58c0-2.32-1.74-4.07-4.07-4.07h-.58c-2.32,0-4.07,1.74-4.07,4.07v.58c0,2.32,1.74,4.07,4.07,4.07Z"/>
      <path class="cls-1" d="M199.48,991.37c0-12.49,9.3-21.79,21.79-21.79s22.08,9.3,22.08,21.79-9.01,22.08-22.08,22.08-21.79-9.59-21.79-22.08ZM228.53,991.37c0-12.49,9.3-21.79,21.79-21.79s22.08,9.3,22.08,21.79-9,22.08-22.08,22.08-21.79-9.59-21.79-22.08ZM257.58,991.37c0-12.49,9.3-21.79,21.79-21.79s22.08,9.3,22.08,21.79-9,22.08-22.08,22.08-21.79-9.59-21.79-22.08ZM286.63,991.37c0-12.49,9.3-21.79,21.79-21.79s22.08,9.3,22.08,21.79-9,22.08-22.08,22.08-21.79-9.59-21.79-22.08ZM315.68,991.37c0-12.49,9.3-21.79,21.79-21.79s22.08,9.3,22.08,21.79-9.01,22.08-22.08,22.08-21.79-9.59-21.79-22.08ZM221.27,996.02h.58c2.32,0,4.07-1.74,4.07-4.07v-.58c0-2.32-1.74-4.07-4.07-4.07h-.58c-2.32,0-4.07,1.74-4.07,4.07v.58c0,2.32,1.74,4.07,4.07,4.07ZM250.32,996.02h.58c2.32,0,4.07-1.74,4.07-4.07v-.58c0-2.32-1.74-4.07-4.07-4.07h-.58c-2.32,0-4.07,1.74-4.07,4.07v.58c0,2.32,1.74,4.07,4.07,4.07ZM279.37,996.02h.58c2.32,0,4.07-1.74,4.07-4.07v-.58c0-2.32-1.74-4.07-4.07-4.07h-.58c-2.32,0-4.07,1.74-4.07,4.07v.58c0,2.32,1.74,4.07,4.07,4.07ZM308.42,996.02h.58c2.32,0,4.07-1.74,4.07-4.07v-.58c0-2.32-1.74-4.07-4.07-4.07h-.58c-2.32,0-4.07,1.74-4.07,4.07v.58c0,2.32,1.74,4.07,4.07,4.07ZM337.47,996.02h.58c2.32,0,4.07-1.74,4.07-4.07v-.58c0-2.32-1.74-4.07-4.07-4.07h-.58c-2.32,0-4.07,1.74-4.07,4.07v.58c0,2.32,1.74,4.07,4.07,4.07ZM344.73,962.32c0-12.49,9.3-21.79,21.79-21.79s22.08,9.3,22.08,21.79-9.01,22.08-22.08,22.08-21.79-9.59-21.79-22.08ZM366.52,966.97h.58c2.32,0,4.07-1.74,4.07-4.07v-.58c0-2.32-1.74-4.07-4.07-4.07h-.58c-2.32,0-4.07,1.74-4.07,4.07v.58c0,2.32,1.74,4.07,4.07,4.07ZM373.78,933.28c0-12.49,9.3-21.79,21.79-21.79s22.08,9.3,22.08,21.79-9.01,22.08-22.08,22.08-21.79-9.59-21.79-22.08ZM395.57,937.92h.58c2.32,0,4.07-1.74,4.07-4.07v-.58c0-2.32-1.74-4.07-4.07-4.07h-.58c-2.32,0-4.07,1.74-4.07,4.07v.58c0,2.32,1.74,4.07,4.07,4.07ZM373.78,904.23c0-12.49,9.3-21.79,21.79-21.79s22.08,9.3,22.08,21.79-9.01,22.08-22.08,22.08-21.79-9.59-21.79-22.08ZM395.57,908.87h.58c2.32,0,4.07-1.74,4.07-4.07v-.58c0-2.32-1.74-4.07-4.07-4.07h-.58c-2.32,0-4.07,1.74-4.07,4.07v.58c0,2.32,1.74,4.07,4.07,4.07ZM344.73,875.18c0-12.49,9.3-21.79,21.79-21.79s22.08,9.3,22.08,21.79-9.01,22.08-22.08,22.08-21.79-9.59-21.79-22.08ZM366.52,879.82h.58c2.32,0,4.07-1.74,4.07-4.07v-.58c0-2.32-1.74-4.07-4.07-4.07h-.58c-2.32,0-4.07,1.74-4.07,4.07v.58c0,2.32,1.74,4.07,4.07,4.07ZM199.48,846.13c0-12.49,9.3-21.79,21.79-21.79s22.08,9.3,22.08,21.79-9.01,22.08-22.08,22.08-21.79-9.59-21.79-22.08ZM228.53,846.13c0-12.49,9.3-21.79,21.79-21.79s22.08,9.3,22.08,21.79-9,22.08-22.08,22.08-21.79-9.59-21.79-22.08ZM257.58,846.13c0-12.49,9.3-21.79,21.79-21.79s22.08,9.3,22.08,21.79-9,22.08-22.08,22.08-21.79-9.59-21.79-22.08ZM286.63,846.13c0-12.49,9.3-21.79,21.79-21.79s22.08,9.3,22.08,21.79-9,22.08-22.08,22.08-21.79-9.59-21.79-22.08ZM315.68,846.13c0-12.49,9.3-21.79,21.79-21.79s22.08,9.3,22.08,21.79-9.01,22.08-22.08,22.08-21.79-9.59-21.79-22.08ZM344.73,846.13c0-12.49,9.3-21.79,21.79-21.79s22.08,9.3,22.08,21.79-9.01,22.08-22.08,22.08-21.79-9.59-21.79-22.08ZM373.78,846.13c0-12.49,9.3-21.79,21.79-21.79s22.08,9.3,22.08,21.79-9.01,22.08-22.08,22.08-21.79-9.59-21.79-22.08ZM221.27,850.77h.58c2.32,0,4.07-1.74,4.07-4.07v-.58c0-2.32-1.74-4.07-4.07-4.07h-.58c-2.32,0-4.07,1.74-4.07,4.07v.58c0,2.32,1.74,4.07,4.07,4.07ZM250.32,850.77h.58c2.32,0,4.07-1.74,4.07-4.07v-.58c0-2.32-1.74-4.07-4.07-4.07h-.58c-2.32,0-4.07,1.74-4.07,4.07v.58c0,2.32,1.74,4.07,4.07,4.07ZM279.37,850.77h.58c2.32,0,4.07-1.74,4.07-4.07v-.58c0-2.32-1.74-4.07-4.07-4.07h-.58c-2.32,0-4.07,1.74-4.07,4.07v.58c0,2.32,1.74,4.07,4.07,4.07ZM308.42,850.77h.58c2.32,0,4.07-1.74,4.07-4.07v-.58c0-2.32-1.74-4.07-4.07-4.07h-.58c-2.32,0-4.07,1.74-4.07,4.07v.58c0,2.32,1.74,4.07,4.07,4.07ZM337.47,850.77h.58c2.32,0,4.07-1.74,4.07-4.07v-.58c0-2.32-1.74-4.07-4.07-4.07h-.58c-2.32,0-4.07,1.74-4.07,4.07v.58c0,2.32,1.74,4.07,4.07,4.07ZM366.52,850.77h.58c2.32,0,4.07-1.74,4.07-4.07v-.58c0-2.32-1.74-4.07-4.07-4.07h-.58c-2.32,0-4.07,1.74-4.07,4.07v.58c0,2.32,1.74,4.07,4.07,4.07ZM395.57,850.77h.58c2.32,0,4.07-1.74,4.07-4.07v-.58c0-2.32-1.74-4.07-4.07-4.07h-.58c-2.32,0-4.07,1.74-4.07,4.07v.58c0,2.32,1.74,4.07,4.07,4.07Z"/>
      <path class="cls-1" d="M257.58,791.22c0-12.49,9.3-21.79,21.79-21.79s22.08,9.3,22.08,21.79-9,22.08-22.08,22.08-21.79-9.59-21.79-22.08ZM286.63,791.22c0-12.49,9.3-21.79,21.79-21.79s22.08,9.3,22.08,21.79-9,22.08-22.08,22.08-21.79-9.59-21.79-22.08ZM315.68,791.22c0-12.49,9.3-21.79,21.79-21.79s22.08,9.3,22.08,21.79-9.01,22.08-22.08,22.08-21.79-9.59-21.79-22.08ZM279.37,795.87h.58c2.32,0,4.07-1.74,4.07-4.07v-.58c0-2.32-1.74-4.07-4.07-4.07h-.58c-2.32,0-4.07,1.74-4.07,4.07v.58c0,2.32,1.74,4.07,4.07,4.07ZM308.42,795.87h.58c2.32,0,4.07-1.74,4.07-4.07v-.58c0-2.32-1.74-4.07-4.07-4.07h-.58c-2.32,0-4.07,1.74-4.07,4.07v.58c0,2.32,1.74,4.07,4.07,4.07ZM337.47,795.87h.58c2.32,0,4.07-1.74,4.07-4.07v-.58c0-2.32-1.74-4.07-4.07-4.07h-.58c-2.32,0-4.07,1.74-4.07,4.07v.58c0,2.32,1.74,4.07,4.07,4.07ZM228.53,762.17c0-12.49,9.3-21.79,21.79-21.79s22.08,9.3,22.08,21.79-9,22.08-22.08,22.08-21.79-9.59-21.79-22.08ZM344.73,762.17c0-12.49,9.3-21.79,21.79-21.79s22.08,9.3,22.08,21.79-9.01,22.08-22.08,22.08-21.79-9.59-21.79-22.08ZM250.32,766.82h.58c2.32,0,4.07-1.74,4.07-4.07v-.58c0-2.32-1.74-4.07-4.07-4.07h-.58c-2.32,0-4.07,1.74-4.07,4.07v.58c0,2.32,1.74,4.07,4.07,4.07ZM366.52,766.82h.58c2.32,0,4.07-1.74,4.07-4.07v-.58c0-2.32-1.74-4.07-4.07-4.07h-.58c-2.32,0-4.07,1.74-4.07,4.07v.58c0,2.32,1.74,4.07,4.07,4.07ZM199.48,733.12c0-12.49,9.3-21.79,21.79-21.79s22.08,9.3,22.08,21.79-9.01,22.08-22.08,22.08-21.79-9.59-21.79-22.08ZM373.78,733.12c0-12.49,9.3-21.79,21.79-21.79s22.08,9.3,22.08,21.79-9.01,22.08-22.08,22.08-21.79-9.59-21.79-22.08ZM221.27,737.77h.58c2.32,0,4.07-1.74,4.07-4.07v-.58c0-2.32-1.74-4.07-4.07-4.07h-.58c-2.32,0-4.07,1.74-4.07,4.07v.58c0,2.32,1.74,4.07,4.07,4.07ZM395.57,737.77h.58c2.32,0,4.07-1.74,4.07-4.07v-.58c0-2.32-1.74-4.07-4.07-4.07h-.58c-2.32,0-4.07,1.74-4.07,4.07v.58c0,2.32,1.74,4.07,4.07,4.07ZM199.48,704.07c0-12.49,9.3-21.79,21.79-21.79s22.08,9.3,22.08,21.79-9.01,22.08-22.08,22.08-21.79-9.59-21.79-22.08ZM286.63,704.07c0-12.49,9.3-21.79,21.79-21.79s22.08,9.3,22.08,21.79-9,22.08-22.08,22.08-21.79-9.59-21.79-22.08ZM373.78,704.07c0-12.49,9.3-21.79,21.79-21.79s22.08,9.3,22.08,21.79-9.01,22.08-22.08,22.08-21.79-9.59-21.79-22.08ZM221.27,708.72h.58c2.32,0,4.07-1.74,4.07-4.07v-.58c0-2.32-1.74-4.07-4.07-4.07h-.58c-2.32,0-4.07,1.74-4.07,4.07v.58c0,2.32,1.74,4.07,4.07,4.07ZM308.42,708.72h.58c2.32,0,4.07-1.74,4.07-4.07v-.58c0-2.32-1.74-4.07-4.07-4.07h-.58c-2.32,0-4.07,1.74-4.07,4.07v.58c0,2.32,1.74,4.07,4.07,4.07ZM395.57,708.72h.58c2.32,0,4.07-1.74,4.07-4.07v-.58c0-2.32-1.74-4.07-4.07-4.07h-.58c-2.32,0-4.07,1.74-4.07,4.07v.58c0,2.32,1.74,4.07,4.07,4.07ZM199.48,675.02c0-12.49,9.3-21.79,21.79-21.79s22.08,9.3,22.08,21.79-9.01,22.08-22.08,22.08-21.79-9.59-21.79-22.08ZM286.63,675.02c0-12.49,9.3-21.79,21.79-21.79s22.08,9.3,22.08,21.79-9,22.08-22.08,22.08-21.79-9.59-21.79-22.08ZM373.78,675.02c0-12.49,9.3-21.79,21.79-21.79s22.08,9.3,22.08,21.79-9.01,22.08-22.08,22.08-21.79-9.59-21.79-22.08ZM221.27,679.67h.58c2.32,0,4.07-1.74,4.07-4.07v-.58c0-2.32-1.74-4.07-4.07-4.07h-.58c-2.32,0-4.07,1.74-4.07,4.07v.58c0,2.32,1.74,4.07,4.07,4.07ZM308.42,679.67h.58c2.32,0,4.07-1.74,4.07-4.07v-.58c0-2.32-1.74-4.07-4.07-4.07h-.58c-2.32,0-4.07,1.74-4.07,4.07v.58c0,2.32,1.74,4.07,4.07,4.07ZM395.57,679.67h.58c2.32,0,4.07-1.74,4.07-4.07v-.58c0-2.32-1.74-4.07-4.07-4.07h-.58c-2.32,0-4.07,1.74-4.07,4.07v.58c0,2.32,1.74,4.07,4.07,4.07ZM228.53,645.97c0-12.49,9.3-21.79,21.79-21.79s22.08,9.3,22.08,21.79-9,22.08-22.08,22.08-21.79-9.59-21.79-22.08ZM286.63,645.97c0-12.49,9.3-21.79,21.79-21.79s22.08,9.3,22.08,21.79-9,22.08-22.08,22.08-21.79-9.59-21.79-22.08ZM344.73,645.97c0-12.49,9.3-21.79,21.79-21.79s22.08,9.3,22.08,21.79-9.01,22.08-22.08,22.08-21.79-9.59-21.79-22.08ZM250.32,650.62h.58c2.32,0,4.07-1.74,4.07-4.07v-.58c0-2.32-1.74-4.07-4.07-4.07h-.58c-2.32,0-4.07,1.74-4.07,4.07v.58c0,2.32,1.74,4.07,4.07,4.07ZM308.42,650.62h.58c2.32,0,4.07-1.74,4.07-4.07v-.58c0-2.32-1.74-4.07-4.07-4.07h-.58c-2.32,0-4.07,1.74-4.07,4.07v.58c0,2.32,1.74,4.07,4.07,4.07ZM366.52,650.62h.58c2.32,0,4.07-1.74,4.07-4.07v-.58c0-2.32-1.74-4.07-4.07-4.07h-.58c-2.32,0-4.07,1.74-4.07,4.07v.58c0,2.32,1.74,4.07,4.07,4.07ZM286.63,616.92c0-12.49,9.3-21.79,21.79-21.79s22.08,9.3,22.08,21.79-9,22.08-22.08,22.08-21.79-9.59-21.79-22.08ZM315.68,616.92c0-12.49,9.3-21.79,21.79-21.79s22.08,9.3,22.08,21.79-9.01,22.08-22.08,22.08-21.79-9.59-21.79-22.08ZM308.42,621.57h.58c2.32,0,4.07-1.74,4.07-4.07v-.58c0-2.32-1.74-4.07-4.07-4.07h-.58c-2.32,0-4.07,1.74-4.07,4.07v.58c0,2.32,1.74,4.07,4.07,4.07ZM337.47,621.57h.58c2.32,0,4.07-1.74,4.07-4.07v-.58c0-2.32-1.74-4.07-4.07-4.07h-.58c-2.32,0-4.07,1.74-4.07,4.07v.58c0,2.32,1.74,4.07,4.07,4.07Z"/>
      <path class="cls-1" d="M199.48,562.02c0-12.49,9.3-21.79,21.79-21.79s22.08,9.3,22.08,21.79-9.01,22.08-22.08,22.08-21.79-9.59-21.79-22.08ZM228.53,562.02c0-12.49,9.3-21.79,21.79-21.79s22.08,9.3,22.08,21.79-9,22.08-22.08,22.08-21.79-9.59-21.79-22.08ZM257.58,562.02c0-12.49,9.3-21.79,21.79-21.79s22.08,9.3,22.08,21.79-9,22.08-22.08,22.08-21.79-9.59-21.79-22.08ZM286.63,562.02c0-12.49,9.3-21.79,21.79-21.79s22.08,9.3,22.08,21.79-9,22.08-22.08,22.08-21.79-9.59-21.79-22.08ZM315.68,562.02c0-12.49,9.3-21.79,21.79-21.79s22.08,9.3,22.08,21.79-9.01,22.08-22.08,22.08-21.79-9.59-21.79-22.08ZM344.73,562.02c0-12.49,9.3-21.79,21.79-21.79s22.08,9.3,22.08,21.79-9.01,22.08-22.08,22.08-21.79-9.59-21.79-22.08ZM373.78,562.02c0-12.49,9.3-21.79,21.79-21.79s22.08,9.3,22.08,21.79-9.01,22.08-22.08,22.08-21.79-9.59-21.79-22.08ZM221.27,566.67h.58c2.32,0,4.07-1.74,4.07-4.07v-.58c0-2.32-1.74-4.07-4.07-4.07h-.58c-2.32,0-4.07,1.74-4.07,4.07v.58c0,2.32,1.74,4.07,4.07,4.07ZM250.32,566.67h.58c2.32,0,4.07-1.74,4.07-4.07v-.58c0-2.32-1.74-4.07-4.07-4.07h-.58c-2.32,0-4.07,1.74-4.07,4.07v.58c0,2.32,1.74,4.07,4.07,4.07ZM279.37,566.67h.58c2.32,0,4.07-1.74,4.07-4.07v-.58c0-2.32-1.74-4.07-4.07-4.07h-.58c-2.32,0-4.07,1.74-4.07,4.07v.58c0,2.32,1.74,4.07,4.07,4.07ZM308.42,566.67h.58c2.32,0,4.07-1.74,4.07-4.07v-.58c0-2.32-1.74-4.07-4.07-4.07h-.58c-2.32,0-4.07,1.74-4.07,4.07v.58c0,2.32,1.74,4.07,4.07,4.07ZM337.47,566.67h.58c2.32,0,4.07-1.74,4.07-4.07v-.58c0-2.32-1.74-4.07-4.07-4.07h-.58c-2.32,0-4.07,1.74-4.07,4.07v.58c0,2.32,1.74,4.07,4.07,4.07ZM366.52,566.67h.58c2.32,0,4.07-1.74,4.07-4.07v-.58c0-2.32-1.74-4.07-4.07-4.07h-.58c-2.32,0-4.07,1.74-4.07,4.07v.58c0,2.32,1.74,4.07,4.07,4.07ZM395.57,566.67h.58c2.32,0,4.07-1.74,4.07-4.07v-.58c0-2.32-1.74-4.07-4.07-4.07h-.58c-2.32,0-4.07,1.74-4.07,4.07v.58c0,2.32,1.74,4.07,4.07,4.07ZM286.63,532.97c0-12.49,9.3-21.79,21.79-21.79s22.08,9.3,22.08,21.79-9,22.08-22.08,22.08-21.79-9.59-21.79-22.08ZM308.42,537.62h.58c2.32,0,4.07-1.74,4.07-4.07v-.58c0-2.32-1.74-4.07-4.07-4.07h-.58c-2.32,0-4.07,1.74-4.07,4.07v.58c0,2.32,1.74,4.07,4.07,4.07ZM286.63,503.92c0-12.49,9.3-21.79,21.79-21.79s22.08,9.3,22.08,21.79-9,22.08-22.08,22.08-21.79-9.59-21.79-22.08ZM308.42,508.57h.58c2.32,0,4.07-1.74,4.07-4.07v-.58c0-2.32-1.74-4.07-4.07-4.07h-.58c-2.32,0-4.07,1.74-4.07,4.07v.58c0,2.32,1.74,4.07,4.07,4.07ZM286.63,474.87c0-12.49,9.3-21.79,21.79-21.79s22.08,9.3,22.08,21.79-9,22.08-22.08,22.08-21.79-9.59-21.79-22.08ZM308.42,479.52h.58c2.32,0,4.07-1.74,4.07-4.07v-.58c0-2.32-1.74-4.07-4.07-4.07h-.58c-2.32,0-4.07,1.74-4.07,4.07v.58c0,2.32,1.74,4.07,4.07,4.07ZM286.63,445.82c0-12.49,9.3-21.79,21.79-21.79s22.08,9.3,22.08,21.79-9,22.08-22.08,22.08-21.79-9.59-21.79-22.08ZM308.42,450.47h.58c2.32,0,4.07-1.74,4.07-4.07v-.58c0-2.32-1.74-4.07-4.07-4.07h-.58c-2.32,0-4.07,1.74-4.07,4.07v.58c0,2.32,1.74,4.07,4.07,4.07ZM199.48,416.77c0-12.49,9.3-21.79,21.79-21.79s22.08,9.3,22.08,21.79-9.01,22.08-22.08,22.08-21.79-9.59-21.79-22.08ZM228.53,416.77c0-12.49,9.3-21.79,21.79-21.79s22.08,9.3,22.08,21.79-9,22.08-22.08,22.08-21.79-9.59-21.79-22.08ZM257.58,416.77c0-12.49,9.3-21.79,21.79-21.79s22.08,9.3,22.08,21.79-9,22.08-22.08,22.08-21.79-9.59-21.79-22.08ZM286.63,416.77c0-12.49,9.3-21.79,21.79-21.79s22.08,9.3,22.08,21.79-9,22.08-22.08,22.08-21.79-9.59-21.79-22.08ZM315.68,416.77c0-12.49,9.3-21.79,21.79-21.79s22.08,9.3,22.08,21.79-9.01,22.08-22.08,22.08-21.79-9.59-21.79-22.08ZM344.73,416.77c0-12.49,9.3-21.79,21.79-21.79s22.08,9.3,22.08,21.79-9.01,22.08-22.08,22.08-21.79-9.59-21.79-22.08ZM373.78,416.77c0-12.49,9.3-21.79,21.79-21.79s22.08,9.3,22.08,21.79-9.01,22.08-22.08,22.08-21.79-9.59-21.79-22.08ZM221.27,421.42h.58c2.32,0,4.07-1.74,4.07-4.07v-.58c0-2.32-1.74-4.07-4.07-4.07h-.58c-2.32,0-4.07,1.74-4.07,4.07v.58c0,2.32,1.74,4.07,4.07,4.07ZM250.32,421.42h.58c2.32,0,4.07-1.74,4.07-4.07v-.58c0-2.32-1.74-4.07-4.07-4.07h-.58c-2.32,0-4.07,1.74-4.07,4.07v.58c0,2.32,1.74,4.07,4.07,4.07ZM279.37,421.42h.58c2.32,0,4.07-1.74,4.07-4.07v-.58c0-2.32-1.74-4.07-4.07-4.07h-.58c-2.32,0-4.07,1.74-4.07,4.07v.58c0,2.32,1.74,4.07,4.07,4.07ZM308.42,421.42h.58c2.32,0,4.07-1.74,4.07-4.07v-.58c0-2.32-1.74-4.07-4.07-4.07h-.58c-2.32,0-4.07,1.74-4.07,4.07v.58c0,2.32,1.74,4.07,4.07,4.07ZM337.47,421.42h.58c2.32,0,4.07-1.74,4.07-4.07v-.58c0-2.32-1.74-4.07-4.07-4.07h-.58c-2.32,0-4.07,1.74-4.07,4.07v.58c0,2.32,1.74,4.07,4.07,4.07ZM366.52,421.42h.58c2.32,0,4.07-1.74,4.07-4.07v-.58c0-2.32-1.74-4.07-4.07-4.07h-.58c-2.32,0-4.07,1.74-4.07,4.07v.58c0,2.32,1.74,4.07,4.07,4.07ZM395.57,421.42h.58c2.32,0,4.07-1.74,4.07-4.07v-.58c0-2.32-1.74-4.07-4.07-4.07h-.58c-2.32,0-4.07,1.74-4.07,4.07v.58c0,2.32,1.74,4.07,4.07,4.07Z"/>
      <path class="cls-1" d="M199.48,361.86c0-12.49,9.3-21.79,21.79-21.79s22.08,9.3,22.08,21.79-9.01,22.08-22.08,22.08-21.79-9.59-21.79-22.08ZM228.53,361.86c0-12.49,9.3-21.79,21.79-21.79s22.08,9.3,22.08,21.79-9,22.08-22.08,22.08-21.79-9.59-21.79-22.08ZM257.58,361.86c0-12.49,9.3-21.79,21.79-21.79s22.08,9.3,22.08,21.79-9,22.08-22.08,22.08-21.79-9.59-21.79-22.08ZM286.63,361.86c0-12.49,9.3-21.79,21.79-21.79s22.08,9.3,22.08,21.79-9,22.08-22.08,22.08-21.79-9.59-21.79-22.08ZM315.68,361.86c0-12.49,9.3-21.79,21.79-21.79s22.08,9.3,22.08,21.79-9.01,22.08-22.08,22.08-21.79-9.59-21.79-22.08ZM344.73,361.86c0-12.49,9.3-21.79,21.79-21.79s22.08,9.3,22.08,21.79-9.01,22.08-22.08,22.08-21.79-9.59-21.79-22.08ZM373.78,361.86c0-12.49,9.3-21.79,21.79-21.79s22.08,9.3,22.08,21.79-9.01,22.08-22.08,22.08-21.79-9.59-21.79-22.08ZM221.27,366.51h.58c2.32,0,4.07-1.74,4.07-4.07v-.58c0-2.32-1.74-4.07-4.07-4.07h-.58c-2.32,0-4.07,1.74-4.07,4.07v.58c0,2.32,1.74,4.07,4.07,4.07ZM250.32,366.51h.58c2.32,0,4.07-1.74,4.07-4.07v-.58c0-2.32-1.74-4.07-4.07-4.07h-.58c-2.32,0-4.07,1.74-4.07,4.07v.58c0,2.32,1.74,4.07,4.07,4.07ZM279.37,366.51h.58c2.32,0,4.07-1.74,4.07-4.07v-.58c0-2.32-1.74-4.07-4.07-4.07h-.58c-2.32,0-4.07,1.74-4.07,4.07v.58c0,2.32,1.74,4.07,4.07,4.07ZM308.42,366.51h.58c2.32,0,4.07-1.74,4.07-4.07v-.58c0-2.32-1.74-4.07-4.07-4.07h-.58c-2.32,0-4.07,1.74-4.07,4.07v.58c0,2.32,1.74,4.07,4.07,4.07ZM337.47,366.51h.58c2.32,0,4.07-1.74,4.07-4.07v-.58c0-2.32-1.74-4.07-4.07-4.07h-.58c-2.32,0-4.07,1.74-4.07,4.07v.58c0,2.32,1.74,4.07,4.07,4.07ZM366.52,366.51h.58c2.32,0,4.07-1.74,4.07-4.07v-.58c0-2.32-1.74-4.07-4.07-4.07h-.58c-2.32,0-4.07,1.74-4.07,4.07v.58c0,2.32,1.74,4.07,4.07,4.07ZM395.57,366.51h.58c2.32,0,4.07-1.74,4.07-4.07v-.58c0-2.32-1.74-4.07-4.07-4.07h-.58c-2.32,0-4.07,1.74-4.07,4.07v.58c0,2.32,1.74,4.07,4.07,4.07ZM199.48,332.81c0-12.49,9.3-21.79,21.79-21.79s22.08,9.3,22.08,21.79-9.01,22.08-22.08,22.08-21.79-9.59-21.79-22.08ZM286.63,332.81c0-12.49,9.3-21.79,21.79-21.79s22.08,9.3,22.08,21.79-9,22.08-22.08,22.08-21.79-9.59-21.79-22.08ZM373.78,332.81c0-12.49,9.3-21.79,21.79-21.79s22.08,9.3,22.08,21.79-9.01,22.08-22.08,22.08-21.79-9.59-21.79-22.08ZM221.27,337.46h.58c2.32,0,4.07-1.74,4.07-4.07v-.58c0-2.32-1.74-4.07-4.07-4.07h-.58c-2.32,0-4.07,1.74-4.07,4.07v.58c0,2.32,1.74,4.07,4.07,4.07ZM308.42,337.46h.58c2.32,0,4.07-1.74,4.07-4.07v-.58c0-2.32-1.74-4.07-4.07-4.07h-.58c-2.32,0-4.07,1.74-4.07,4.07v.58c0,2.32,1.74,4.07,4.07,4.07ZM395.57,337.46h.58c2.32,0,4.07-1.74,4.07-4.07v-.58c0-2.32-1.74-4.07-4.07-4.07h-.58c-2.32,0-4.07,1.74-4.07,4.07v.58c0,2.32,1.74,4.07,4.07,4.07ZM199.48,303.76c0-12.49,9.3-21.79,21.79-21.79s22.08,9.3,22.08,21.79-9.01,22.08-22.08,22.08-21.79-9.59-21.79-22.08ZM286.63,303.76c0-12.49,9.3-21.79,21.79-21.79s22.08,9.3,22.08,21.79-9,22.08-22.08,22.08-21.79-9.59-21.79-22.08ZM373.78,303.76c0-12.49,9.3-21.79,21.79-21.79s22.08,9.3,22.08,21.79-9.01,22.08-22.08,22.08-21.79-9.59-21.79-22.08ZM221.27,308.41h.58c2.32,0,4.07-1.74,4.07-4.07v-.58c0-2.32-1.74-4.07-4.07-4.07h-.58c-2.32,0-4.07,1.74-4.07,4.07v.58c0,2.32,1.74,4.07,4.07,4.07ZM308.42,308.41h.58c2.32,0,4.07-1.74,4.07-4.07v-.58c0-2.32-1.74-4.07-4.07-4.07h-.58c-2.32,0-4.07,1.74-4.07,4.07v.58c0,2.32,1.74,4.07,4.07,4.07ZM395.57,308.41h.58c2.32,0,4.07-1.74,4.07-4.07v-.58c0-2.32-1.74-4.07-4.07-4.07h-.58c-2.32,0-4.07,1.74-4.07,4.07v.58c0,2.32,1.74,4.07,4.07,4.07ZM199.48,274.71c0-12.49,9.3-21.79,21.79-21.79s22.08,9.3,22.08,21.79-9.01,22.08-22.08,22.08-21.79-9.59-21.79-22.08ZM286.63,274.71c0-12.49,9.3-21.79,21.79-21.79s22.08,9.3,22.08,21.79-9,22.08-22.08,22.08-21.79-9.59-21.79-22.08ZM373.78,274.71c0-12.49,9.3-21.79,21.79-21.79s22.08,9.3,22.08,21.79-9.01,22.08-22.08,22.08-21.79-9.59-21.79-22.08ZM221.27,279.36h.58c2.32,0,4.07-1.74,4.07-4.07v-.58c0-2.32-1.74-4.07-4.07-4.07h-.58c-2.32,0-4.07,1.74-4.07,4.07v.58c0,2.32,1.74,4.07,4.07,4.07ZM308.42,279.36h.58c2.32,0,4.07-1.74,4.07-4.07v-.58c0-2.32-1.74-4.07-4.07-4.07h-.58c-2.32,0-4.07,1.74-4.07,4.07v.58c0,2.32,1.74,4.07,4.07,4.07ZM395.57,279.36h.58c2.32,0,4.07-1.74,4.07-4.07v-.58c0-2.32-1.74-4.07-4.07-4.07h-.58c-2.32,0-4.07,1.74-4.07,4.07v.58c0,2.32,1.74,4.07,4.07,4.07ZM199.48,245.67c0-12.49,9.3-21.79,21.79-21.79s22.08,9.3,22.08,21.79-9.01,22.08-22.08,22.08-21.79-9.59-21.79-22.08ZM286.63,245.67c0-12.49,9.3-21.79,21.79-21.79s22.08,9.3,22.08,21.79-9,22.08-22.08,22.08-21.79-9.59-21.79-22.08ZM373.78,245.67c0-12.49,9.3-21.79,21.79-21.79s22.08,9.3,22.08,21.79-9.01,22.08-22.08,22.08-21.79-9.59-21.79-22.08ZM221.27,250.31h.58c2.32,0,4.07-1.74,4.07-4.07v-.58c0-2.32-1.74-4.07-4.07-4.07h-.58c-2.32,0-4.07,1.74-4.07,4.07v.58c0,2.32,1.74,4.07,4.07,4.07ZM308.42,250.31h.58c2.32,0,4.07-1.74,4.07-4.07v-.58c0-2.32-1.74-4.07-4.07-4.07h-.58c-2.32,0-4.07,1.74-4.07,4.07v.58c0,2.32,1.74,4.07,4.07,4.07ZM395.57,250.31h.58c2.32,0,4.07-1.74,4.07-4.07v-.58c0-2.32-1.74-4.07-4.07-4.07h-.58c-2.32,0-4.07,1.74-4.07,4.07v.58c0,2.32,1.74,4.07,4.07,4.07ZM199.48,216.62c0-12.49,9.3-21.79,21.79-21.79s22.08,9.3,22.08,21.79-9.01,22.08-22.08,22.08-21.79-9.59-21.79-22.08ZM373.78,216.62c0-12.49,9.3-21.79,21.79-21.79s22.08,9.3,22.08,21.79-9.01,22.08-22.08,22.08-21.79-9.59-21.79-22.08ZM221.27,221.26h.58c2.32,0,4.07-1.74,4.07-4.07v-.58c0-2.32-1.74-4.07-4.07-4.07h-.58c-2.32,0-4.07,1.74-4.07,4.07v.58c0,2.32,1.74,4.07,4.07,4.07ZM395.57,221.26h.58c2.32,0,4.07-1.74,4.07-4.07v-.58c0-2.32-1.74-4.07-4.07-4.07h-.58c-2.32,0-4.07,1.74-4.07,4.07v.58c0,2.32,1.74,4.07,4.07,4.07Z"/>
      <path class="cls-1" d="M228.53,167.52c0-12.49,9.3-21.79,21.79-21.79s22.08,9.3,22.08,21.79-9,22.08-22.08,22.08-21.79-9.59-21.79-22.08ZM257.58,167.52c0-12.49,9.3-21.79,21.79-21.79s22.08,9.3,22.08,21.79-9,22.08-22.08,22.08-21.79-9.59-21.79-22.08ZM344.73,167.52c0-12.49,9.3-21.79,21.79-21.79s22.08,9.3,22.08,21.79-9.01,22.08-22.08,22.08-21.79-9.59-21.79-22.08ZM250.32,172.17h.58c2.32,0,4.07-1.74,4.07-4.07v-.58c0-2.32-1.74-4.07-4.07-4.07h-.58c-2.32,0-4.07,1.74-4.07,4.07v.58c0,2.32,1.74,4.07,4.07,4.07ZM279.37,172.17h.58c2.32,0,4.07-1.74,4.07-4.07v-.58c0-2.32-1.74-4.07-4.07-4.07h-.58c-2.32,0-4.07,1.74-4.07,4.07v.58c0,2.32,1.74,4.07,4.07,4.07ZM366.52,172.17h.58c2.32,0,4.07-1.74,4.07-4.07v-.58c0-2.32-1.74-4.07-4.07-4.07h-.58c-2.32,0-4.07,1.74-4.07,4.07v.58c0,2.32,1.74,4.07,4.07,4.07ZM199.48,138.47c0-12.49,9.3-21.79,21.79-21.79s22.08,9.29,22.08,21.79-9.01,22.08-22.08,22.08-21.79-9.59-21.79-22.08ZM286.63,138.47c0-12.49,9.3-21.79,21.79-21.79s22.08,9.29,22.08,21.79-9,22.08-22.08,22.08-21.79-9.59-21.79-22.08ZM373.78,138.47c0-12.49,9.3-21.79,21.79-21.79s22.08,9.29,22.08,21.79-9.01,22.08-22.08,22.08-21.79-9.59-21.79-22.08ZM221.27,143.12h.58c2.32,0,4.07-1.74,4.07-4.07v-.58c0-2.32-1.74-4.07-4.07-4.07h-.58c-2.32,0-4.07,1.74-4.07,4.07v.58c0,2.32,1.74,4.07,4.07,4.07ZM308.42,143.12h.58c2.32,0,4.07-1.74,4.07-4.07v-.58c0-2.32-1.74-4.07-4.07-4.07h-.58c-2.32,0-4.07,1.74-4.07,4.07v.58c0,2.32,1.74,4.07,4.07,4.07ZM395.57,143.12h.58c2.32,0,4.07-1.74,4.07-4.07v-.58c0-2.32-1.74-4.07-4.07-4.07h-.58c-2.32,0-4.07,1.74-4.07,4.07v.58c0,2.32,1.74,4.07,4.07,4.07ZM199.48,109.42c0-12.49,9.3-21.79,21.79-21.79s22.08,9.3,22.08,21.79-9.01,22.08-22.08,22.08-21.79-9.59-21.79-22.08ZM286.63,109.42c0-12.49,9.3-21.79,21.79-21.79s22.08,9.3,22.08,21.79-9,22.08-22.08,22.08-21.79-9.59-21.79-22.08ZM373.78,109.42c0-12.49,9.3-21.79,21.79-21.79s22.08,9.3,22.08,21.79-9.01,22.08-22.08,22.08-21.79-9.59-21.79-22.08ZM221.27,114.07h.58c2.32,0,4.07-1.74,4.07-4.07v-.58c0-2.32-1.74-4.07-4.07-4.07h-.58c-2.32,0-4.07,1.74-4.07,4.07v.58c0,2.32,1.74,4.07,4.07,4.07ZM308.42,114.07h.58c2.32,0,4.07-1.74,4.07-4.07v-.58c0-2.32-1.74-4.07-4.07-4.07h-.58c-2.32,0-4.07,1.74-4.07,4.07v.58c0,2.32,1.74,4.07,4.07,4.07ZM395.57,114.07h.58c2.32,0,4.07-1.74,4.07-4.07v-.58c0-2.32-1.74-4.07-4.07-4.07h-.58c-2.32,0-4.07,1.74-4.07,4.07v.58c0,2.32,1.74,4.07,4.07,4.07ZM199.48,80.37c0-12.49,9.3-21.79,21.79-21.79s22.08,9.29,22.08,21.79-9.01,22.08-22.08,22.08-21.79-9.59-21.79-22.08ZM286.63,80.37c0-12.49,9.3-21.79,21.79-21.79s22.08,9.29,22.08,21.79-9,22.08-22.08,22.08-21.79-9.59-21.79-22.08ZM373.78,80.37c0-12.49,9.3-21.79,21.79-21.79s22.08,9.29,22.08,21.79-9.01,22.08-22.08,22.08-21.79-9.59-21.79-22.08ZM221.27,85.02h.58c2.32,0,4.07-1.74,4.07-4.07v-.58c0-2.32-1.74-4.07-4.07-4.07h-.58c-2.32,0-4.07,1.74-4.07,4.07v.58c0,2.32,1.74,4.07,4.07,4.07ZM308.42,85.02h.58c2.32,0,4.07-1.74,4.07-4.07v-.58c0-2.32-1.74-4.07-4.07-4.07h-.58c-2.32,0-4.07,1.74-4.07,4.07v.58c0,2.32,1.74,4.07,4.07,4.07ZM395.57,85.02h.58c2.32,0,4.07-1.74,4.07-4.07v-.58c0-2.32-1.74-4.07-4.07-4.07h-.58c-2.32,0-4.07,1.74-4.07,4.07v.58c0,2.32,1.74,4.07,4.07,4.07ZM199.48,51.32c0-12.49,9.3-21.79,21.79-21.79s22.08,9.3,22.08,21.79-9.01,22.08-22.08,22.08-21.79-9.59-21.79-22.08ZM286.63,51.32c0-12.49,9.3-21.79,21.79-21.79s22.08,9.3,22.08,21.79-9,22.08-22.08,22.08-21.79-9.59-21.79-22.08ZM373.78,51.32c0-12.49,9.3-21.79,21.79-21.79s22.08,9.3,22.08,21.79-9.01,22.08-22.08,22.08-21.79-9.59-21.79-22.08ZM221.27,55.97h.58c2.32,0,4.07-1.74,4.07-4.07v-.58c0-2.32-1.74-4.07-4.07-4.07h-.58c-2.32,0-4.07,1.74-4.07,4.07v.58c0,2.32,1.74,4.07,4.07,4.07ZM308.42,55.97h.58c2.32,0,4.07-1.74,4.07-4.07v-.58c0-2.32-1.74-4.07-4.07-4.07h-.58c-2.32,0-4.07,1.74-4.07,4.07v.58c0,2.32,1.74,4.07,4.07,4.07ZM395.57,55.97h.58c2.32,0,4.07-1.74,4.07-4.07v-.58c0-2.32-1.74-4.07-4.07-4.07h-.58c-2.32,0-4.07,1.74-4.07,4.07v.58c0,2.32,1.74,4.07,4.07,4.07ZM228.53,22.27c0-12.49,9.3-21.79,21.79-21.79s22.08,9.3,22.08,21.79-9,22.08-22.08,22.08-21.79-9.59-21.79-22.08ZM315.68,22.27c0-12.49,9.3-21.79,21.79-21.79s22.08,9.3,22.08,21.79-9.01,22.08-22.08,22.08-21.79-9.59-21.79-22.08ZM344.73,22.27c0-12.49,9.3-21.79,21.79-21.79s22.08,9.3,22.08,21.79-9.01,22.08-22.08,22.08-21.79-9.59-21.79-22.08ZM250.32,26.92h.58c2.32,0,4.07-1.74,4.07-4.07v-.58c0-2.32-1.74-4.07-4.07-4.07h-.58c-2.32,0-4.07,1.74-4.07,4.07v.58c0,2.32,1.74,4.07,4.07,4.07ZM337.47,26.92h.58c2.32,0,4.07-1.74,4.07-4.07v-.58c0-2.32-1.74-4.07-4.07-4.07h-.58c-2.32,0-4.07,1.74-4.07,4.07v.58c0,2.32,1.74,4.07,4.07,4.07ZM366.52,26.92h.58c2.32,0,4.07-1.74,4.07-4.07v-.58c0-2.32-1.74-4.07-4.07-4.07h-.58c-2.32,0-4.07,1.74-4.07,4.07v.58c0,2.32,1.74,4.07,4.07,4.07Z"/>
    </g>
  </g>
</svg>