<?xml version="1.0" encoding="UTF-8"?>
<svg id="Layer_2" data-name="Layer 2" xmlns="http://www.w3.org/2000/svg" viewBox="0 0 425.48 1252.25">
  <defs>
    <style>
      .cls-1 {
        stroke: #fff;
        stroke-width: .81px;
      }
    </style>
  </defs>
  <g id="Home_Page_Text_copy_2" data-name="Home Page Text copy 2">
    <g id="Chevalier_Stripes" data-name="Chevalier Stripes">
      <path class="cls-1" d="M80.67,1077.13v4.77c-11.72,5.53-21.46,11.03-29.21,16.5-7.75,5.47-14.84,11.93-21.27,19.4-15.32,17.71-22.97,36.11-22.97,55.2,0,5.95.76,11.41,2.27,16.39,1.51,4.98,3.64,9.23,6.39,12.76,2.75,3.53,6.06,6.26,9.94,8.2,3.88,1.94,8.19,2.9,12.92,2.9,4.35,0,8.38-1,12.07-3.01,3.7-2,6.58-4.6,8.66-7.78,2.27-3.59,4.26-8.12,5.96-13.59,1.7-5.46,3.59-12.76,5.68-21.89l8.52-38.59c2.08-9.96,4.97-19.23,8.66-27.81,3.69-8.58,7.52-15.28,11.5-20.13,11.36-13.14,28.3-19.71,50.83-19.71,10.6,0,20.17,1.59,28.69,4.77,8.52,3.18,15.72,7.71,21.59,13.59,5.86,5.88,10.36,13.07,13.49,21.58,3.12,8.51,4.68,18.09,4.68,28.74s-1.7,20.68-5.11,30.5c-3.4,9.82-8.42,18.88-15.03,27.18-1.52,1.94-3.36,4.08-5.53,6.43-2.17,2.35-5.25,5.6-9.22,9.75l29.78,29.47v5.39h-84.52v-5.39c21.18-9.54,39.14-22.27,53.89-38.18,10.02-10.65,17.3-21.09,21.84-31.33,4.54-10.24,6.81-21.3,6.81-33.2,0-13.42-2.46-23.58-7.37-30.5-4.92-6.92-12-10.38-21.27-10.38-5.86,0-10.78,1.38-14.75,4.15-3.97,2.77-7.37,7.26-10.21,13.49-.57,1.52-1.28,3.5-2.13,5.91-.85,2.42-1.7,5.02-2.55,7.78-.85,2.77-1.65,5.54-2.41,8.3-.75,2.77-1.32,5.19-1.7,7.26l-8.51,43.37c-8.51,42.33-31.29,63.5-68.35,63.5-10.4,0-20.04-1.76-28.93-5.29-8.89-3.53-16.54-8.4-22.97-14.63-6.43-6.22-11.44-13.62-15.03-22.2-3.59-8.58-5.39-17.98-5.39-28.22,0-12.04,2.46-23.24,7.37-33.62,4.92-10.38,12.76-20.89,23.54-31.54l-27.92-26.77v-3.53h77.27ZM66.21,1237.52c1.52.28,2.74.42,3.69.42h5.96c.95,0,2.18-.14,3.69-.42v-26.98c-1.7,2.63-3.54,4.74-5.53,6.33-1.99,1.59-4.58,3.15-7.8,4.67v15.98ZM47.49,1233.79c2.65.83,4.92,1.49,6.81,1.97,1.89.49,4.16.93,6.81,1.35v-13.49c-2.46.69-4.44,1.11-5.96,1.24-1.51.14-3.5.21-5.96.21h-1.7v8.71ZM84.64,1236.9c1.7-.28,3.08-.52,4.11-.73,1.04-.21,1.99-.45,2.84-.73.85-.28,1.75-.59,2.69-.93.95-.34,2.18-.79,3.69-1.35v-91.51l-7.09,35.69c-.94,4.98-1.94,9.31-2.98,12.97-1.04,3.67-2.13,6.95-3.26,9.86v36.73ZM183.34,1215.11c-3.02,3.04-6.85,6.19-11.49,9.44-4.63,3.25-9.4,6.26-14.32,9.03h25.81v-18.47ZM207.45,1233.58l-19-18.05v18.05h19ZM42.38,1224.45c-3.59-.69-6.71-1.45-9.36-2.28-2.65-.83-5.39-2-8.22-3.53,2.27,2.77,4.82,5.19,7.66,7.26,2.84,2.08,6.15,4.01,9.93,5.81v-7.26ZM103.08,1230.88c3.22-1.8,5.72-3.39,7.52-4.77,1.8-1.38,3.74-3.25,5.81-5.6v-128.03c-2.65,3.18-5.11,7.06-7.38,11.62-2.27,4.57-4.25,9.62-5.96,15.15v111.64ZM121.51,1213.87c1.7-2.35,3.17-4.74,4.4-7.16,1.23-2.42,2.37-5.01,3.4-7.78,1.04-2.77,1.99-5.91,2.84-9.44.85-3.53,1.75-7.64,2.69-12.35v-98.98c-2.84,1.25-5.25,2.53-7.23,3.84-1.99,1.32-4.01,2.87-6.1,4.67v127.2ZM140.23,1151.2l2.27-11.41c1.52-7.61,3.22-14.56,5.1-20.85,1.89-6.29,3.88-11.58,5.96-15.87v-29.67c-3.02.42-5.34.8-6.95,1.14-1.6.35-3.73.87-6.38,1.56v75.12ZM20.83,1090.41l12.48,11.21v-11.21h-12.48ZM38.41,1101.61c1.33-1.11,2.51-2.08,3.55-2.91,1.04-.83,2.13-1.62,3.26-2.39,1.13-.76,2.37-1.62,3.69-2.59,1.33-.97,3.03-2.08,5.11-3.32h-15.6v11.21ZM158.67,1094.56c1.89-2.21,3.78-3.97,5.67-5.29,1.89-1.31,4.44-2.73,7.66-4.25v-10.79c-2.46-.42-4.63-.69-6.52-.83-1.89-.14-4.16-.21-6.81-.21v21.37ZM177.1,1083.56c1.33-.14,2.41-.24,3.26-.31.85-.07,1.56-.1,2.13-.1,2.65,0,5.25.28,7.8.83,2.55.55,5.63,1.52,9.22,2.9-2.65-2.9-5.62-5.25-8.93-7.05-3.31-1.8-7.8-3.32-13.47-4.57v8.3Z"/>
      <path class="cls-1" d="M155.55,1024.01c2.09.55,3.95.93,5.56,1.14,1.62.21,3.47.31,5.56.31,7.42,0,14.41-1.42,20.97-4.25,6.56-2.83,11.17-6.46,13.84-10.89,1.33-2.08,2.28-4.32,2.85-6.74.57-2.42,1.04-5.98,1.43-10.69h6.81v82.17h-6.81c-.38-7.61-4.87-15.01-13.47-22.2-8.6-7.19-21.7-14.45-39.28-21.79L1.54,968.6v-5.39l171.87-70.55c6.43-2.63,11.73-5.12,15.88-7.47,4.16-2.35,7.47-4.77,9.93-7.26,2.46-2.49,4.16-5.22,5.11-8.2.94-2.97,1.42-6.46,1.42-10.48v-3.11h6.81v118.69h-6.81v-11.62c0-4.29-1.29-7.75-3.85-10.38-2.57-2.63-6.04-3.94-10.41-3.94-1.52,0-3.23.24-5.13.73-1.9.49-3.9,1.07-5.99,1.76l-24.82,9.96v62.67ZM195.82,1048.08c2.65,2.35,4.58,4.15,5.81,5.39,1.23,1.25,2.6,2.84,4.11,4.77v-25.73c-1.89.83-3.5,1.49-4.82,1.97-1.32.49-3.03.93-5.1,1.35v12.24ZM190.43,1036.66c-.94.28-1.75.42-2.41.42h-1.84c-1.7,0-4.72-.21-9.08-.62,3.22,1.66,5.72,3.01,7.52,4.05,1.8,1.04,3.74,2.32,5.81,3.84v-7.68ZM76.98,993.71l71.76,28.63v-57.69l-71.76,29.05ZM66.21,957.61v31.96l2.84,1.25,10.49-4.36v-34.24l-13.33,5.4ZM47.49,965.28v16.39l13.61,5.6v-27.6l-13.61,5.6ZM84.64,949.93v34.45l13.33-5.4v-34.45l-13.33,5.4ZM27.63,973.37l14.75,6.23v-12.24l-14.75,6.02ZM103.08,942.46v34.45l13.33-5.4v-34.65l-13.33,5.6ZM121.51,934.78v34.65l13.33-5.39v-34.86l-13.33,5.6ZM140.23,927.1v34.86l13.33-5.4.08-34.86-13.41,5.39ZM158.67,919.42v34.86l13.33-5.39v-34.86l-13.33,5.39ZM195.82,943.49c2.08.28,3.83.73,5.25,1.35,1.42.62,2.98,1.56,4.68,2.8v-47.52l-9.93,4.15v39.22ZM177.1,911.95v34.86l2.55-1.04c2.46-.97,4.3-1.56,5.53-1.76,1.23-.21,2.98-.45,5.25-.73v-36.94l-13.33,5.6Z"/>
      <path class="cls-1" d="M119.81,676.44h-50.33c-36.59,0-55.17,11.14-55.74,33.41h-6.81v-76.36h6.81c.38,5.95,1.38,10.69,3,14.21,1.62,3.53,4.34,6.82,8.15,9.86,10.11,8.16,25.02,12.24,44.71,12.24h149.47v4.98l-173.29,135.5h104.27c18.19,0,31.96-2.83,41.34-8.51,9.37-5.67,14.15-14.04,14.34-25.11h6.81v76.57h-6.81c-.38-5.95-1.37-10.69-2.99-14.21s-4.32-6.81-8.11-9.86c-10.05-8.16-24.94-12.24-44.66-12.24H38.2l-6.54,5.39c-1.13.97-2.51,2.21-4.12,3.74-1.61,1.52-3.23,3.15-4.84,4.88-1.61,1.73-3.04,3.39-4.27,4.98-1.23,1.59-2.13,2.87-2.7,3.84-.57,1.11-1.04,2.73-1.42,4.88-.38,2.15-.57,4.25-.57,6.33v.83h-6.81v-86.53l112.88-88.81ZM13.74,785.59v47.31c1.56-1.94,2.97-3.63,4.23-5.08s3.26-3.35,5.98-5.71v-44.2l-10.21,7.68ZM198.94,824.81c1.89,1.52,3.21,2.63,3.97,3.32.75.69,1.7,1.73,2.84,3.11v-22.41c-1.33.97-2.32,1.63-2.98,1.97-.66.35-1.94.93-3.83,1.76v12.24ZM193.55,814.22c-2.46.69-4.44,1.14-5.96,1.35-1.51.21-3.59.45-6.24.73,2.46.69,4.4,1.32,5.81,1.87,1.42.55,3.54,1.59,6.38,3.11v-7.05ZM29.05,817.13c1.33-1.11,2.37-1.97,3.12-2.59.76-.62,1.61-1.35,2.55-2.18l7.66-6.02v-42.95l-13.33,10.38v43.37ZM47.49,802.4l13.61-10.58v-42.95l-13.61,10.38v43.16ZM66.21,787.66l13.33-10.58v-42.75l-13.33,10.38v42.95ZM84.64,773.14l13.33-10.58v-42.75l-13.33,10.58v42.75ZM103.08,758.61l13.33-10.58v-42.75l-13.33,10.58v42.75ZM121.51,744.09l13.33-10.58v-42.75l-13.33,10.58v42.75ZM140.23,729.56l13.33-10.38v-42.95l-13.33,10.58v42.75ZM158.67,715.04l13.33-10.38v-29.67h-13.33v40.05ZM177.1,700.51l13.33-10.38v-15.15h-13.33v25.52ZM20.54,671.25c-1.89-.83-3.16-1.45-3.83-1.87-.66-.42-1.65-1.11-2.98-2.08v22.62c1.33-1.38,2.32-2.42,2.98-3.11.67-.69,1.94-1.87,3.83-3.53v-12.04ZM195.54,685.99l14.3-11h-14.3v11ZM25.93,679.76c2.65-1.38,4.59-2.35,5.81-2.9,1.23-.55,2.89-1.11,4.96-1.66-2.27-.28-4.11-.55-5.53-.83-1.42-.28-3.17-.76-5.25-1.45v6.85Z"/>
      <path class="cls-1" d="M205.75,628.72v-7.26c0-5.95-.38-10.34-1.14-13.18-.76-2.83-2.28-5.22-4.55-7.16-2.28-2.08-5.45-3.49-9.53-4.25-4.08-.76-10.48-1.14-19.2-1.14H48.16c-8.72,0-15.12.38-19.2,1.14-4.08.76-7.25,2.18-9.53,4.25-2.08,1.94-3.55,4.33-4.41,7.16-.85,2.84-1.28,7.23-1.28,13.18v7.26h-6.81v-116.52c0-6.49.19-12.3.57-17.41.38-5.11,1.04-9.78,1.99-13.99.95-4.21,2.18-8.12,3.69-11.71,1.51-3.59,3.4-7.19,5.67-10.78,3.78-6.22,8.89-11.88,15.32-17,6.43-5.11,13.71-9.53,21.84-13.26,8.13-3.73,16.92-6.63,26.38-8.71,9.46-2.07,19-3.11,28.65-3.11s19.48,1.07,28.93,3.21c9.46,2.14,18.25,5.18,26.38,9.12,8.13,3.94,15.36,8.6,21.7,13.99,6.34,5.39,11.3,11.33,14.89,17.82,3.02,5.25,5.39,12.88,7.09,22.9,1.7,10.02,2.55,20.97,2.55,32.85v112.58h-6.81ZM13.74,559.83v37.77c1.89-1.52,3.36-2.63,4.4-3.32,1.04-.69,2.88-1.45,5.53-2.28v-32.16h-9.93ZM195.82,591.99c2.46.83,4.25,1.56,5.39,2.18s2.65,1.76,4.54,3.42v-37.77h-9.93v32.16ZM29.05,590.75c3.03-.42,5.3-.69,6.81-.83,1.52-.14,3.69-.21,6.52-.21v-29.88h-13.33v30.92ZM177.1,589.71c3.22.14,5.53.24,6.95.31,1.42.07,3.54.31,6.38.73v-30.92h-13.33v29.88ZM47.49,589.71h13.61v-29.88h-13.61v29.88ZM66.21,589.71h13.33v-29.88h-13.33v29.88ZM84.64,589.71h13.33v-29.88h-13.33v29.88ZM103.08,589.71h13.33v-29.88h-13.33v29.88ZM121.51,589.71h13.33v-29.88h-13.33v29.88ZM140.23,589.71h13.33v-29.88h-13.33v29.88ZM158.67,589.71h13.33v-29.88h-13.33v29.88ZM205.75,528.49v-8.71c0-2.35-.1-4.32-.28-5.91-.19-1.59-.33-2.9-.42-3.94-.1-1.04-.34-2.11-.71-3.22-1.52-5.67-4.27-10.34-8.25-14.01-3.98-3.66-9.58-6.74-16.79-9.23-8.15-2.77-18.16-4.88-30.01-6.33-11.85-1.45-25.18-2.18-39.97-2.18-22.38,0-40.16,1.21-53.34,3.63-13.18,2.42-23.47,6.26-30.86,11.52-2.28,1.66-4.13,3.39-5.55,5.19-1.42,1.8-2.56,4.01-3.41,6.64-.85,2.63-1.47,5.78-1.85,9.44-.38,3.67-.57,8.13-.57,13.38v17.85h192.01v-14.11ZM23.95,471.15c-3.11,3.6-5.44,7.22-7,10.89-1.56,3.66-2.62,7.99-3.21,12.96,1.37-2.07,2.68-3.76,3.94-5.08,1.27-1.31,3.35-3.01,6.27-5.08v-13.69ZM195.54,485.46c2.14,1.52,3.84,2.83,5.11,3.94,1.26,1.11,2.96,2.97,5.11,5.59-.78-5.52-1.9-10.08-3.35-13.67-1.46-3.59-3.75-7.18-6.86-10.78v14.92ZM177.1,477.17c2.65.83,4.96,1.63,6.95,2.39s4.11,1.76,6.38,3v-17.41c-2.27-1.93-4.4-3.66-6.38-5.18-1.99-1.52-4.3-3.11-6.95-4.77v21.97ZM29.05,481.53c2.27-1.24,4.35-2.24,6.24-3.01,1.89-.76,4.25-1.62,7.09-2.59v-20.31c-3.02,1.94-5.48,3.6-7.37,4.98-1.89,1.38-3.87,3.04-5.96,4.97v15.96ZM158.67,472.82c2.27.42,4.4.83,6.38,1.25s4.3.97,6.95,1.66v-23.63c-2.46-1.24-4.63-2.31-6.52-3.21-1.89-.9-4.16-1.9-6.81-3.01v26.95ZM47.49,474.36c2.65-.55,4.92-1,6.81-1.34,1.89-.34,4.16-.72,6.81-1.13v-25.18c-3.21,1.24-5.72,2.27-7.52,3.1-1.79.83-3.83,1.79-6.1,2.89v21.67ZM140.23,470.37c2.65.28,4.73.49,6.24.62,1.52.14,3.88.49,7.09,1.04v-28.01c-2.65-.83-4.87-1.48-6.67-1.97-1.79-.48-4.01-1.07-6.67-1.76v30.09ZM66.21,471.22c2.65-.28,4.87-.48,6.67-.62,1.8-.14,4.02-.34,6.67-.62v-28.84c-2.65.69-4.91,1.28-6.81,1.76-1.89.49-4.06,1.14-6.52,1.97v26.35ZM121.51,469.14c3.22.28,5.53.42,6.95.42s3.54.14,6.38.42v-30.91c-2.65-.42-4.87-.69-6.67-.83-1.79-.14-4.01-.35-6.67-.63v31.53ZM84.64,469.56c2.27-.14,4.25-.21,5.96-.21s4.16-.07,7.37-.21v-31.13c-2.84.28-5.06.55-6.67.83-1.6.28-3.83.69-6.67,1.25v29.47ZM103.08,468.94h9.64c.95,0,2.18.07,3.69.21v-31.96h-8.51c-1.13,0-2.74.07-4.82.21v31.54Z"/>
      <path class="cls-1" d="M73.47,294.02c-5.69-2.91-11-5.05-15.93-6.43-4.93-1.38-9.95-2.08-15.08-2.08-8.91,0-15.93,2.11-21.05,6.33-5.12,4.22-7.68,9.93-7.68,17.12v4.36h-6.81v-83.62h6.81c.76,9.96,6.12,19.68,16.07,29.15,9.96,9.48,25.65,19.61,47.08,30.4l42.95,22.2h51.49c8.73,0,15.12-.38,19.2-1.14,4.08-.76,7.25-2.18,9.53-4.25,2.27-1.94,3.79-4.32,4.55-7.16.76-2.83,1.14-7.16,1.14-12.97v-7.26h6.81v118.9h-6.81v-7.26c0-5.95-.38-10.34-1.14-13.18-.76-2.83-2.28-5.22-4.55-7.16-2.28-2.08-5.45-3.49-9.53-4.25-4.08-.76-10.48-1.14-19.2-1.14h-36.13l-100.13,51.67c-7.58,4.01-13.03,8.16-16.35,12.45-3.32,4.29-4.98,9.47-4.98,15.56v4.98h-6.81v-119.73h6.81v8.09c0,11.62,3.98,17.43,11.95,17.43,3.41,0,7.78-1.38,13.09-4.15l71.4-37.56-36.69-19.3ZM23.66,376.4c-2.08-.28-3.73-.65-4.96-1.14-1.23-.48-2.88-1.49-4.96-3.01v52.5c1.52-1.94,2.93-3.49,4.25-4.67,1.33-1.17,3.22-2.52,5.67-4.05v-39.63ZM42.38,370.79l-4.25,2.28c-2.08,1.11-3.59,1.8-4.54,2.08-.94.28-2.46.62-4.54,1.04v36.94l13.33-7.05v-35.28ZM61.1,361.25l-13.61,6.85v35.28l13.61-6.85v-35.27ZM79.54,351.7l-13.33,6.85v35.28l13.33-7.06v-35.07ZM97.97,341.95l-13.33,7.06v35.07l13.33-6.85v-35.28ZM116.41,332.41l-13.33,7.06v35.07l13.33-7.06v-35.07ZM195.82,360.83c2.46.83,4.25,1.56,5.39,2.18s2.65,1.76,4.54,3.42v-42.33c-2.08,1.24-3.69,2.07-4.82,2.49-1.13.41-2.84.9-5.1,1.45v32.79ZM123.5,328.67l-1.99,1.04v35.07l11.91-6.23h1.42v-29.88h-11.34ZM177.1,358.55c3.22.14,5.53.24,6.95.31,1.42.07,3.54.31,6.38.73v-31.12c-1.51.14-2.74.21-3.69.21h-9.64v29.88ZM140.23,358.55h13.33v-29.88h-13.33v29.88ZM158.67,358.55h13.33v-29.88h-13.33v29.88ZM23.66,267.87c-1.51-1.11-2.88-2.14-4.11-3.11-1.23-.97-3.16-2.49-5.81-4.56v29.88c2.08-1.52,3.59-2.59,4.54-3.22.95-.62,2.74-1.56,5.39-2.8v-16.18ZM29.05,282.19c2.65-.69,5.2-1.21,7.66-1.56,2.46-.34,5.3-.52,8.51-.52-3.78-1.8-6.67-3.25-8.65-4.36-1.99-1.11-4.49-2.63-7.52-4.57v11Z"/>
      <path class="cls-1" d="M306.52,1098.5h-52.36c-8.72,0-15.12.38-19.2,1.14-4.08.76-7.26,2.18-9.54,4.25-2.08,1.94-3.55,4.33-4.41,7.16-.85,2.84-1.28,7.23-1.28,13.18v1.25h-6.81v-113.09h6.81v7.26c0,5.95.43,10.34,1.28,13.18.86,2.84,2.33,5.22,4.41,7.16,2.28,2.07,5.45,3.5,9.53,4.25,4.08.76,10.48,1.14,19.2,1.14h123.17c8.73,0,15.12-.38,19.2-1.14,4.08-.76,7.25-2.18,9.53-4.25,2.27-1.94,3.79-4.32,4.55-7.16.76-2.83,1.14-7.23,1.14-13.18v-7.26h6.81v113.09h-6.81v-1.25c0-5.95-.38-10.34-1.13-13.18-.76-2.83-2.28-5.22-4.56-7.16-2.28-2.08-5.45-3.49-9.53-4.25-4.08-.76-10.48-1.14-19.2-1.14h-63.43v67.23h63.43c8.73,0,15.12-.38,19.2-1.14,4.08-.76,7.25-2.18,9.53-4.25,2.28-1.94,3.79-4.32,4.56-7.16.75-2.83,1.13-7.16,1.13-12.97v-1.25h6.81v112.88h-6.81v-7.26c0-5.95-.38-10.34-1.14-13.18-.76-2.83-2.28-5.22-4.55-7.16-2.28-2.08-5.45-3.49-9.53-4.25-4.08-.76-10.48-1.14-19.2-1.14h-123.17c-8.72,0-15.12.38-19.2,1.14-4.08.76-7.25,2.18-9.53,4.25-2.08,1.94-3.55,4.33-4.41,7.16-.85,2.84-1.28,7.23-1.28,13.18v7.26h-6.81v-113.09h6.81v1.25c0,5.95.43,10.34,1.28,13.18.86,2.84,2.33,5.22,4.41,7.16,2.28,2.08,5.46,3.5,9.54,4.25,4.08.76,10.48,1.14,19.2,1.14h52.36v-67.23ZM229.66,1182.33c-2.08-.55-3.69-1.04-4.82-1.45s-2.84-1.24-5.11-2.49v42.33c1.89-1.52,3.36-2.63,4.4-3.32,1.04-.69,2.88-1.45,5.53-2.28v-32.79ZM401.82,1215.11c2.46.83,4.25,1.56,5.39,2.18,1.13.62,2.65,1.76,4.54,3.42v-42.33c-2.08,1.25-3.64,2.07-4.68,2.49-1.04.42-2.79.9-5.25,1.45v32.79ZM235.05,1213.87c3.03-.42,5.3-.69,6.81-.83,1.52-.14,3.69-.21,6.52-.21v-29.88h-9.78c-1.04,0-2.22-.07-3.55-.21v31.12ZM383.1,1212.83c3.22.14,5.53.24,6.95.31,1.42.07,3.54.31,6.38.73v-31.12c-1.32.14-2.5.21-3.55.21h-9.78v29.88ZM253.49,1212.83h13.61v-29.88h-13.61v29.88ZM272.21,1212.83h13.33v-29.88h-13.33v29.88ZM290.64,1212.83h13.33v-29.88h-13.33v29.88ZM309.08,1212.83h13.33v-29.88h-13.33v29.88ZM327.51,1212.83h13.33v-29.88h-13.33v29.88ZM346.23,1212.83h13.33v-29.88h-13.33v29.88ZM364.67,1212.83h13.33v-29.88h-13.33v29.88ZM229.66,1061.98c-2.08-.55-3.69-1.04-4.82-1.45s-2.84-1.25-5.11-2.49v42.33c1.7-1.52,3.12-2.63,4.25-3.32,1.13-.69,3.03-1.45,5.67-2.28v-32.79ZM401.82,1094.76c2.65.83,4.49,1.56,5.53,2.18,1.04.62,2.5,1.76,4.4,3.42v-42.33c-2.08,1.25-3.64,2.08-4.68,2.49-1.04.42-2.79.9-5.25,1.45v32.79ZM235.05,1093.52c3.03-.42,5.3-.69,6.81-.83,1.52-.14,3.69-.21,6.52-.21v-29.88h-9.78c-1.04,0-2.22-.07-3.55-.21v31.12ZM383.1,1092.48c3.03,0,5.25.07,6.67.21,1.42.14,3.64.42,6.67.83v-31.12c-1.32.14-2.5.21-3.55.21h-9.78v29.88ZM253.49,1092.48h13.61v-29.88h-13.61v29.88ZM272.21,1092.48h13.33v-29.88h-13.33v29.88ZM290.64,1092.48h13.33v-29.88h-13.33v29.88ZM309.08,1092.48h13.33v-29.88h-13.33v29.88ZM327.51,1092.48h13.33v-29.88h-13.33v29.88ZM346.23,1092.48h13.33v-29.88h-13.33v29.88ZM364.67,1092.48h13.33v-29.88h-13.33v29.88Z"/>
      <path class="cls-1" d="M332.62,825.84c11.34,0,20.61.42,27.79,1.25,7.19.83,13.8,2.28,19.85,4.36,29.68,10.1,44.53,34.58,44.53,73.46,0,26.29-9.55,45.1-28.65,56.44-3.59,2.21-7.33,4.08-11.2,5.6-3.87,1.52-8.22,2.73-13.05,3.63-4.82.9-10.25,1.52-16.31,1.87-6.05.35-13.05.52-20.99.52h-80.55c-8.69,0-15.08.38-19.14,1.14-4.06.76-7.23,2.18-9.5,4.25-2.08,1.94-3.54,4.33-4.4,7.16-.85,2.84-1.28,7.23-1.28,13.18v7.26h-6.81v-119.11h6.81v7.26c0,5.95.43,10.34,1.28,13.18.85,2.84,2.32,5.22,4.4,7.16,2.27,2.08,5.44,3.5,9.5,4.25,4.07.76,10.45,1.14,19.14,1.14h109.76c7.94,0,14.66-.59,20.14-1.76,5.49-1.17,10.4-3.08,14.75-5.71,5.11-3.18,9.17-7.26,12.2-12.24,3.02-4.98,4.54-10.3,4.54-15.98,0-4.29-.76-8.58-2.27-12.87-1.52-4.29-3.59-8.37-6.24-12.24-2.65-3.87-5.76-7.4-9.36-10.58-3.59-3.18-7.56-5.81-11.91-7.88-3.21-1.52-6.52-2.8-9.93-3.84-3.4-1.04-7.23-1.87-11.49-2.49-4.25-.62-9.12-1.07-14.61-1.35-5.48-.28-12-.42-19.57-.42h-54.74c-36.49,0-55.02,11.14-55.59,33.41h-6.81v-72h6.81c1.52,10.38,7,18.3,16.45,23.76,9.46,5.47,22.5,8.2,39.14,8.2h57.29ZM229.66,936.44c-2.08-.55-3.69-1.04-4.82-1.45s-2.84-1.25-5.11-2.49v42.33c1.7-1.52,3.17-2.63,4.4-3.32,1.23-.69,3.08-1.45,5.53-2.28v-32.79ZM248.38,937.06h-9.78c-1.04,0-2.22-.07-3.55-.21v31.13c3.03-.42,5.25-.66,6.67-.73,1.42-.07,3.64-.17,6.67-.31v-29.88ZM267.1,937.06h-13.61v29.88h13.61v-29.88ZM285.54,937.06h-13.33v29.88h13.33v-29.88ZM303.97,937.06h-13.33v29.88h13.33v-29.88ZM322.41,937.06h-13.33v29.88h13.33v-29.88ZM340.84,937.06h-13.33v29.88h13.33v-29.88ZM359.56,937.06h-13.33v29.88c2.65,0,4.92-.03,6.81-.1,1.89-.07,4.07-.24,6.52-.52v-29.26ZM378,936.23c-2.46.28-4.44.45-5.96.52-1.51.07-3.97.17-7.37.31v28.63c3.22-.42,5.67-.79,7.37-1.14,1.7-.34,3.69-.86,5.96-1.56v-26.77ZM396.43,931.67c-2.46.97-4.63,1.73-6.52,2.28-1.89.55-4.16,1.11-6.81,1.66v25.73c2.84-1.11,5.2-2.18,7.09-3.22,1.89-1.04,3.97-2.46,6.24-4.25v-22.2ZM401.54,949.51c5.11-4.84,9.08-10.24,11.91-16.19,2.84-5.95,4.25-11.76,4.25-17.43-2.65,3.32-5.06,5.88-7.23,7.68-2.18,1.8-5.15,3.73-8.93,5.81v20.13ZM225.69,826.88c-1.51-.69-2.55-1.21-3.12-1.56-.57-.34-1.51-1-2.84-1.97v22.62c1.13-1.25,2.03-2.14,2.69-2.7.67-.55,1.75-1.52,3.26-2.9v-13.49ZM231.08,836.63c2.46-1.52,4.59-2.66,6.38-3.42,1.8-.76,3.93-1.49,6.38-2.18-2.65-.14-4.72-.34-6.24-.62-1.51-.28-3.69-.83-6.52-1.66v7.88Z"/>
      <path class="cls-1" d="M287.24,636.19l1.42,5.81c-7.94,2.77-15.98,6.33-24.11,10.69-8.13,4.36-15.5,8.96-22.12,13.8-17.58,12.87-26.38,27.6-26.38,44.2,0,12.17,6.62,21.24,19.85,27.18,9.27,4.01,20.8,7.09,34.6,9.23,13.8,2.15,29.31,3.22,46.51,3.22,34.23,0,60.6-4.08,79.13-12.24,13.42-5.95,20.14-15.42,20.14-28.43,0-15.63-8.04-25.32-24.11-29.05-6.99-1.66-16.92-2.49-29.78-2.49-7.37,0-13.42.31-18.15.93-4.72.62-8.41,1.83-11.06,3.63-2.65,1.8-4.44,4.22-5.39,7.26-.94,3.04-1.42,7.06-1.42,12.04v8.51h-6.81v-117.86h6.81v10.79c0,4.84.66,8.75,1.99,11.72,1.32,2.98,3.69,5.33,7.09,7.06,3.4,1.73,8.08,2.9,14.04,3.53s13.66.93,23.12.93c6.05,0,11.3-.03,15.74-.1,4.44-.07,8.37-.17,11.77-.31,3.4-.14,6.47-.38,9.22-.73,2.74-.34,5.53-.73,8.37-1.14l2.55,2.9c-3.22,3.32-5.77,7.33-7.66,12.04-1.89,4.7-2.84,9.54-2.84,14.53,0,3.18.57,7.13,1.7,11.83,1.13,4.7,2.74,9.68,4.82,14.94,1.7,4.43,3.12,8.34,4.25,11.72,1.13,3.39,2.03,6.61,2.69,9.65.66,3.04,1.13,6.05,1.42,9.03.28,2.98.43,6.26.43,9.86,0,5.4-.62,10.86-1.84,16.39-1.23,5.54-2.98,10.93-5.25,16.19-2.27,5.26-5.06,10.24-8.37,14.94-3.31,4.7-7.05,8.99-11.2,12.86-10.02,9.54-22.36,16.91-37.01,22.1-14.65,5.19-30.49,7.78-47.51,7.78-15.5,0-29.97-2.21-43.39-6.64-13.42-4.43-25.24-10.79-35.45-19.09-9.83-8.16-17.06-17.29-21.7-27.39-4.63-10.1-6.95-21.72-6.95-34.86,0-4.29.24-8.2.71-11.72.47-3.53,1.23-6.98,2.27-10.38,1.04-3.39,2.41-6.85,4.11-10.38,1.7-3.53,3.88-7.37,6.52-11.52,3.97-5.95,5.96-11,5.96-15.15,0-3.04-1.28-6.43-3.83-10.17-2.55-3.74-6-7.4-10.35-11v-4.36l75.44-2.28ZM309.08,804.89c1.32.14,2.46.21,3.4.21h5.53c1.04,0,2.51-.14,4.4-.42v-32.99h-13.33v33.2ZM290.64,802.81c2.65.55,4.87.93,6.67,1.14,1.8.21,4.02.45,6.67.73v-33.41c-2.65-.14-4.92-.28-6.81-.42-1.89-.14-4.06-.34-6.52-.62v32.58ZM327.51,804.26c2.65-.28,4.87-.55,6.67-.83,1.8-.28,4.02-.69,6.67-1.25v-31.33c-2.27.28-4.3.45-6.1.52-1.79.07-4.21.18-7.23.31v32.58ZM272.21,798.25c2.27.69,4.4,1.32,6.38,1.87,1.99.55,4.3,1.11,6.95,1.66v-32.16c-2.46-.42-4.63-.76-6.52-1.04-1.89-.28-4.16-.76-6.81-1.45v31.12ZM346.23,800.94c2.46-.69,4.64-1.28,6.52-1.76,1.89-.48,4.16-1.21,6.81-2.18v-28.84c-3.21.55-5.72.97-7.52,1.25-1.79.28-3.73.55-5.81.83v30.71ZM253.49,790.15c2.27,1.25,4.45,2.32,6.52,3.22,2.08.9,4.44,1.9,7.09,3.01v-30.5c-3.21-.69-5.62-1.28-7.23-1.76-1.6-.48-3.73-1.14-6.38-1.97v28.01ZM364.67,794.93c2.65-1.11,4.87-2.11,6.67-3.01,1.8-.9,4.02-2.04,6.67-3.42v-25.11c-2.65.83-4.87,1.49-6.67,1.97-1.79.49-4.01,1.07-6.67,1.76v27.8ZM235.05,777.08c2.08,1.94,4.16,3.7,6.24,5.29,2.08,1.59,4.44,3.22,7.09,4.88v-27.18c-2.84-1.11-5.1-2.04-6.81-2.8-1.7-.76-3.87-1.83-6.52-3.22v23.03ZM383.1,785.17c2.46-1.52,4.82-3.25,7.09-5.19,2.27-1.94,4.35-3.94,6.24-6.02v-17.84c-2.27,1.11-4.35,2.04-6.24,2.8-1.89.76-4.25,1.7-7.09,2.8v23.45ZM229.95,751.14c-2.65-1.66-4.96-3.22-6.95-4.67-1.99-1.45-4.68-3.56-8.08-6.33,1.7,11.9,6.71,22.41,15.03,31.54v-20.54ZM401.54,767.95c2.27-2.91,4.25-5.91,5.96-9.03,1.7-3.11,3.69-7.43,5.96-12.97-1.52,1.11-2.74,1.97-3.69,2.59-.95.62-1.84,1.21-2.69,1.76-.85.55-1.7,1.07-2.55,1.56-.85.49-1.84,1.07-2.98,1.76v14.32ZM396.43,676.65c3.03.83,5.44,1.63,7.23,2.39,1.79.76,4.01,1.9,6.67,3.42-2.46-6.36-4.21-11.69-5.25-15.98-1.04-4.29-1.56-8.44-1.56-12.45,0-1.94.09-3.66.28-5.19.19-1.52.66-3.53,1.42-6.02h-8.79v33.82ZM335.74,641.17c-1.32-.28-2.6-.59-3.83-.93-1.23-.34-3.07-.93-5.53-1.76v42.54c1.89-1.25,3.4-2.14,4.54-2.7,1.13-.55,2.74-1.25,4.82-2.07v-35.07ZM378,673.95c3.22.28,5.72.52,7.52.73,1.8.21,3.74.45,5.81.73v-32.58h-13.33v31.13ZM340.84,674.99c3.22-.42,5.58-.69,7.09-.83,1.52-.14,3.59-.28,6.24-.42v-30.92c-2.84-.14-5.1-.24-6.81-.31-1.7-.07-3.87-.24-6.52-.52v32.99ZM359.56,673.54h8.23c1.13,0,2.84.07,5.1.21v-30.92h-13.33v30.71ZM228.53,652.79c1.32,1.38,2.41,3.25,3.26,5.6.85,2.35,1.28,4.64,1.28,6.85l1.99-1.24v-11.62l-6.52.42ZM240.16,660.46c3.59-2.21,6.38-3.91,8.37-5.08,1.99-1.17,4.21-2.39,6.67-3.63l-15.03.42v8.3Z"/>
      <path class="cls-1" d="M306.52,462.92h-52.36c-8.72,0-15.12.38-19.2,1.14-4.08.76-7.26,2.18-9.54,4.25-2.08,1.94-3.55,4.32-4.41,7.16-.85,2.84-1.28,7.23-1.28,13.18v1.25h-6.81v-113.09h6.81v7.26c0,5.95.43,10.34,1.28,13.18.86,2.84,2.33,5.22,4.41,7.16,2.28,2.08,5.45,3.5,9.53,4.25,4.08.76,10.48,1.14,19.2,1.14h123.17c8.73,0,15.12-.38,19.2-1.14,4.08-.76,7.25-2.18,9.53-4.25,2.27-1.94,3.79-4.32,4.55-7.16.76-2.83,1.14-7.23,1.14-13.18v-7.26h6.81v113.09h-6.81v-1.25c0-5.95-.38-10.34-1.13-13.18-.76-2.83-2.28-5.22-4.56-7.16-2.28-2.08-5.45-3.49-9.53-4.25-4.08-.76-10.48-1.14-19.2-1.14h-63.43v67.23h63.43c8.73,0,15.12-.38,19.2-1.14,4.08-.76,7.25-2.18,9.53-4.25,2.28-1.94,3.79-4.32,4.56-7.16.75-2.83,1.13-7.16,1.13-12.97v-1.25h6.81v112.88h-6.81v-7.26c0-5.95-.38-10.34-1.14-13.18-.76-2.83-2.28-5.22-4.55-7.16-2.28-2.08-5.45-3.49-9.53-4.25-4.08-.76-10.48-1.14-19.2-1.14h-123.17c-8.72,0-15.12.38-19.2,1.14-4.08.76-7.25,2.18-9.53,4.25-2.08,1.94-3.55,4.33-4.41,7.16-.85,2.84-1.28,7.23-1.28,13.18v7.26h-6.81v-113.09h6.81v1.25c0,5.95.43,10.34,1.28,13.18.86,2.84,2.33,5.22,4.41,7.16,2.28,2.08,5.46,3.5,9.54,4.25,4.08.76,10.48,1.14,19.2,1.14h52.36v-67.23ZM229.66,546.76c-2.08-.55-3.69-1.04-4.82-1.45s-2.84-1.25-5.11-2.49v42.33c1.89-1.52,3.36-2.63,4.4-3.32,1.04-.69,2.88-1.45,5.53-2.28v-32.79ZM401.82,579.54c2.46.83,4.25,1.56,5.39,2.18s2.65,1.76,4.54,3.42v-42.33c-2.08,1.25-3.64,2.08-4.68,2.49-1.04.42-2.79.9-5.25,1.45v32.79ZM235.05,578.3c3.03-.42,5.3-.69,6.81-.83,1.52-.14,3.69-.21,6.52-.21v-29.88h-9.78c-1.04,0-2.22-.07-3.55-.21v31.13ZM383.1,577.26c3.22.14,5.53.24,6.95.31,1.42.07,3.54.31,6.38.73v-31.13c-1.32.14-2.5.21-3.55.21h-9.78v29.88ZM253.49,577.26h13.61v-29.88h-13.61v29.88ZM272.21,577.26h13.33v-29.88h-13.33v29.88ZM290.64,577.26h13.33v-29.88h-13.33v29.88ZM309.08,577.26h13.33v-29.88h-13.33v29.88ZM327.51,577.26h13.33v-29.88h-13.33v29.88ZM346.23,577.26h13.33v-29.88h-13.33v29.88ZM364.67,577.26h13.33v-29.88h-13.33v29.88ZM229.66,426.4c-2.08-.55-3.69-1.04-4.82-1.45s-2.84-1.24-5.11-2.49v42.33c1.7-1.52,3.12-2.63,4.25-3.32,1.13-.69,3.03-1.45,5.67-2.28v-32.79ZM401.82,459.19c2.65.83,4.49,1.56,5.53,2.18,1.04.62,2.5,1.76,4.4,3.42v-42.33c-2.08,1.25-3.64,2.07-4.68,2.49-1.04.42-2.79.9-5.25,1.45v32.79ZM235.05,457.94c3.03-.41,5.3-.69,6.81-.83,1.52-.14,3.69-.21,6.52-.21v-29.88h-9.78c-1.04,0-2.22-.07-3.55-.21v31.12ZM383.1,456.91c3.03,0,5.25.07,6.67.21,1.42.14,3.64.42,6.67.83v-31.12c-1.32.14-2.5.21-3.55.21h-9.78v29.88ZM253.49,456.91h13.61v-29.88h-13.61v29.88ZM272.21,456.91h13.33v-29.88h-13.33v29.88ZM290.64,456.91h13.33v-29.88h-13.33v29.88ZM309.08,456.91h13.33v-29.88h-13.33v29.88ZM327.51,456.91h13.33v-29.88h-13.33v29.88ZM346.23,456.91h13.33v-29.88h-13.33v29.88ZM364.67,456.91h13.33v-29.88h-13.33v29.88Z"/>
      <path class="cls-1" d="M287.24,191.51v4.98c-10.21,5.67-19.19,11.28-26.94,16.81-7.75,5.53-15.22,11.55-22.41,18.05-3.4,3.32-6.28,6.4-8.65,9.23-2.36,2.84-4.25,5.71-5.67,8.61-1.42,2.91-2.41,5.99-2.98,9.23-.57,3.25-.85,6.88-.85,10.89v23.65h87.64v-5.81c0-8.85-2.88-16.67-8.65-23.45-5.77-6.78-14.79-12.79-27.09-18.05v-5.39h78.56v5.39c-11.91,5.26-20.89,11.41-26.94,18.47-6.05,7.05-9.08,14.73-9.08,23.03v5.81h97.57v-17.84c0-4.57-.43-8.85-1.28-12.87-.85-4.01-2.18-7.89-3.97-11.62-1.8-3.73-4.11-7.43-6.95-11.1-2.84-3.66-6.24-7.43-10.21-11.31-6.62-6.22-13.52-12.04-20.7-17.43-7.18-5.4-15.5-10.86-24.96-16.39v-4.77h74.88v189.45h-6.81v-7.26c0-5.95-.38-10.34-1.14-13.18-.76-2.83-2.28-5.22-4.55-7.16-2.28-2.08-5.45-3.49-9.53-4.25-4.08-.76-10.48-1.14-19.2-1.14h-123.17c-8.72,0-15.12.38-19.2,1.14-4.08.76-7.25,2.18-9.53,4.25-2.08,1.94-3.55,4.33-4.41,7.16-.85,2.84-1.28,7.23-1.28,13.18v7.26h-6.81v-187.58h74.31ZM219.74,310.2v37.77c1.89-1.52,3.4-2.63,4.54-3.32,1.13-.69,2.93-1.45,5.39-2.28v-32.16h-9.93ZM401.82,342.37c2.46.83,4.25,1.56,5.39,2.18s2.65,1.76,4.54,3.42v-37.77h-9.93v32.16ZM235.05,341.12c2.84-.42,5.01-.65,6.52-.73,1.52-.07,3.79-.17,6.81-.31v-29.88h-13.33v30.92ZM383.1,340.09c3.22.14,5.53.24,6.95.31,1.42.07,3.54.31,6.38.73v-30.92h-13.33v29.88ZM253.49,340.09h13.61v-29.88h-13.61v29.88ZM272.21,340.09h13.33v-29.88h-13.33v29.88ZM290.64,340.09h13.33v-29.88h-13.33v29.88ZM309.36,340.09h13.33v-29.88h-13.33v29.88ZM327.51,340.09h13.33v-29.88h-13.33v29.88ZM346.23,340.09h13.33v-29.88h-13.33v29.88ZM364.67,340.09h13.33v-29.88h-13.33v29.88ZM313.33,268.5c1.52-2.77,3.74-5.63,6.67-8.61,2.93-2.97,6-5.43,9.22-7.37h-15.88v15.98ZM308.23,252.52h-15.07c2.65,1.66,5.44,3.94,8.37,6.85,2.93,2.91,5.15,5.6,6.67,8.09l.04-14.94ZM399.83,230.32c1.7,1.8,3.07,3.36,4.11,4.67,1.04,1.32,1.99,2.59,2.84,3.84.85,1.25,1.65,2.46,2.41,3.63.75,1.18,1.6,2.59,2.55,4.25v-41.29h-11.91v24.9ZM219.74,207.29v35.9c.95-1.11,1.75-2.04,2.41-2.8.67-.76,1.37-1.59,2.13-2.49.76-.9,1.7-1.94,2.84-3.11,1.13-1.17,2.65-2.8,4.54-4.88v-22.62h-11.91ZM394.45,205.42h-24.67c4.16,2.63,8.04,5.4,11.63,8.3,3.59,2.91,7.94,6.78,13.05,11.62v-19.92ZM237.04,225.13c4.35-3.87,8.32-7.16,11.91-9.86,3.59-2.7,7.56-5.36,11.91-7.99h-23.82v17.84Z"/>
      <path class="cls-1" d="M286.67,16.8v4.77c-11.72,5.53-21.46,11.03-29.21,16.5-7.75,5.47-14.84,11.93-21.27,19.4-15.32,17.71-22.97,36.11-22.97,55.2,0,5.95.76,11.41,2.27,16.39,1.51,4.98,3.64,9.23,6.39,12.76,2.75,3.53,6.06,6.26,9.94,8.2,3.88,1.94,8.19,2.9,12.92,2.9,4.35,0,8.38-1,12.07-3.01,3.7-2,6.58-4.6,8.66-7.78,2.27-3.6,4.26-8.12,5.96-13.59,1.7-5.46,3.59-12.76,5.68-21.89l8.52-38.59c2.08-9.96,4.97-19.23,8.66-27.81,3.69-8.58,7.52-15.28,11.5-20.13C317.16,6.98,334.1.41,356.63.41c10.6,0,20.17,1.59,28.69,4.77,8.52,3.18,15.72,7.71,21.59,13.59,5.86,5.88,10.36,13.07,13.49,21.58,3.12,8.51,4.68,18.09,4.68,28.74s-1.7,20.68-5.11,30.5c-3.4,9.82-8.42,18.88-15.03,27.18-1.52,1.94-3.36,4.08-5.53,6.43-2.17,2.35-5.25,5.6-9.22,9.75l29.78,29.46v5.39h-84.52v-5.39c21.18-9.54,39.14-22.27,53.89-38.18,10.02-10.65,17.3-21.09,21.84-31.33,4.54-10.24,6.81-21.3,6.81-33.2,0-13.42-2.46-23.58-7.37-30.5-4.92-6.92-12-10.38-21.27-10.38-5.86,0-10.78,1.38-14.75,4.15-3.97,2.77-7.37,7.26-10.21,13.49-.57,1.52-1.28,3.49-2.13,5.91-.85,2.42-1.7,5.02-2.55,7.78-.85,2.77-1.65,5.53-2.41,8.3-.75,2.77-1.32,5.19-1.7,7.26l-8.51,43.37c-8.51,42.33-31.29,63.5-68.35,63.5-10.4,0-20.04-1.76-28.93-5.29-8.89-3.53-16.54-8.4-22.97-14.63-6.43-6.23-11.44-13.62-15.03-22.2-3.59-8.58-5.39-17.98-5.39-28.22,0-12.04,2.46-23.24,7.37-33.62,4.92-10.38,12.76-20.89,23.54-31.54l-27.92-26.77v-3.53h77.27ZM272.21,177.2c1.52.28,2.74.42,3.69.42h5.96c.95,0,2.18-.14,3.69-.42v-26.98c-1.7,2.63-3.54,4.74-5.53,6.33-1.99,1.59-4.58,3.15-7.8,4.67v15.98ZM253.49,173.46c2.65.83,4.92,1.49,6.81,1.97,1.89.49,4.16.93,6.81,1.35v-13.49c-2.46.69-4.44,1.11-5.96,1.25-1.51.14-3.5.21-5.96.21h-1.7v8.71ZM290.64,176.58c1.7-.28,3.08-.52,4.11-.73,1.04-.21,1.99-.45,2.84-.73.85-.28,1.75-.59,2.69-.93.95-.34,2.18-.79,3.69-1.35v-91.51l-7.09,35.69c-.94,4.98-1.94,9.31-2.98,12.97-1.04,3.67-2.13,6.95-3.26,9.86v36.73ZM389.34,154.79c-3.02,3.04-6.85,6.19-11.49,9.44-4.63,3.25-9.4,6.26-14.32,9.03h25.81v-18.47ZM413.45,173.26l-19-18.05v18.05h19ZM248.38,164.12c-3.59-.69-6.71-1.45-9.36-2.28-2.65-.83-5.39-2-8.22-3.53,2.27,2.77,4.82,5.19,7.66,7.26,2.84,2.07,6.15,4.01,9.93,5.81v-7.26ZM309.08,170.56c3.22-1.8,5.72-3.39,7.52-4.77,1.8-1.38,3.74-3.25,5.81-5.6V32.15c-2.65,3.18-5.11,7.05-7.38,11.62-2.27,4.56-4.25,9.62-5.96,15.15v111.64ZM327.51,153.54c1.7-2.35,3.17-4.74,4.4-7.16,1.23-2.42,2.37-5.01,3.4-7.78,1.04-2.77,1.99-5.91,2.84-9.44.85-3.53,1.75-7.64,2.69-12.35V17.84c-2.84,1.25-5.25,2.53-7.23,3.84-1.99,1.32-4.01,2.87-6.1,4.67v127.2ZM346.23,90.88l2.27-11.41c1.52-7.61,3.22-14.56,5.1-20.85,1.89-6.29,3.88-11.58,5.96-15.87V13.06c-3.02.42-5.34.8-6.95,1.14-1.6.35-3.73.87-6.38,1.56v75.12ZM226.83,30.08l12.48,11.21v-11.21h-12.48ZM244.41,41.29c1.33-1.11,2.51-2.08,3.55-2.91,1.04-.83,2.13-1.62,3.26-2.39,1.13-.76,2.37-1.62,3.69-2.59,1.33-.97,3.03-2.08,5.11-3.32h-15.6v11.21ZM364.67,34.23c1.89-2.21,3.78-3.97,5.67-5.29,1.89-1.31,4.44-2.73,7.66-4.25v-10.79c-2.46-.42-4.63-.69-6.52-.83-1.89-.14-4.16-.21-6.81-.21v21.37ZM383.1,23.23c1.33-.14,2.41-.24,3.26-.31.85-.07,1.56-.1,2.13-.1,2.65,0,5.25.28,7.8.83,2.55.55,5.63,1.52,9.22,2.91-2.65-2.91-5.62-5.26-8.93-7.06-3.31-1.8-7.8-3.32-13.47-4.57v8.3Z"/>
    </g>
  </g>
</svg>