<?xml version="1.0" encoding="UTF-8"?>
<svg id="Layer_2" data-name="Layer 2" xmlns="http://www.w3.org/2000/svg" viewBox="0 0 421.43 1233.11">
  <defs>
    <style>
      .cls-1 {
        stroke: #fff;
        stroke-width: 1.28px;
      }
    </style>
  </defs>
  <g id="Home_Page_Text_copy_2" data-name="Home Page Text copy 2">
    <g id="DS-Digital">
      <path class="cls-1" d="M91.6,1198.31l14.7,21.11-8.76,12.58H29.05l-11.88-16.62,11.88-17.07h62.55ZM220.13,1215.38l-11.57,16.62-11.88-16.62v-132.08l11.88-16.62,11.57,16.62v132.08ZM99.1,1079.26l11.73-17.07,11.73,17.07v117.25l-11.73,16.62-11.73-16.62v-117.25ZM13.1,1043.77l11.88,16.85v131.88l-11.88,16.59-11.57-16.62v-132.08l11.57-16.62ZM192.3,1043.77l11.88,16.85-11.88,16.85h-62.55l-14.7-21.4,9.07-12.29h68.17Z"/>
      <path class="cls-1" d="M97.54,1024.46H5.6l23.45-33.69h62.55l14.7,21.11-8.76,12.58ZM129.76,990.77h66.97l23.47,33.69h-96.08l-9.07-12.58,14.71-21.11ZM1.53,842.52l23.45,33.24v109.17l-23.45,33.24v-175.65ZM99.1,871.72l11.73-17.07,11.73,17.07v117.25l-11.73,16.62-11.73-16.62v-117.25ZM91.6,869.92H29.05l-23.45-33.69h91.94l8.76,12.29-14.7,21.4ZM124.12,836.23h96.01l-23.45,33.69h-66.92l-14.7-21.4,9.07-12.29Z"/>
      <path class="cls-1" d="M97.56,821.86H1.46l23.4-33.69h66.78l14.66,21.11-8.74,12.58ZM129.76,788.16h66.97l23.47,33.69h-96.08l-9.07-12.58,14.71-21.11ZM41.42,780.32l-16.74.21v-23.7l56.92-81.41h16.57s-.05,23.28-.05,23.28l-56.7,81.63ZM91.6,667.32H24.68l-23.46-33.69h96.32l8.76,12.29-14.7,21.4ZM124.12,633.62h96.01l-23.45,33.69h-66.92l-14.7-21.4,9.07-12.29Z"/>
      <path class="cls-1" d="M91.6,585.56l14.7,21.11-8.76,12.58H5.6l23.45-33.69h62.55ZM192.3,585.56l23.45,33.69h-91.63l-9.07-12.58,14.7-21.11h62.55ZM13.1,453.93l11.88,16.62v109.17l-23.45,33.24v-142.41l11.57-16.62ZM208.56,453.93l11.57,16.62v142.41l-23.45-33.24v-109.17l11.88-16.62ZM97.54,431.02l8.76,12.29-14.7,21.4H29.05l-11.88-16.85,11.88-16.85h68.49ZM192.3,431.02l11.88,16.85-11.88,16.85h-62.55l-14.7-21.4,9.07-12.29h68.17Z"/>
      <path class="cls-1" d="M1.22,416.65l23.46-33.69h66.92l14.7,21.11-8.76,12.58H1.22ZM99.1,381.16l11.73,16.62,11.73-16.62v-117.25l-11.73-17.07-11.73,17.07v117.25ZM220.13,267.95l-11.57-16.62-11.88,16.62v109.17l11.88,16.62,11.57-16.62v-109.17ZM1.46,228.42l23.4,33.69h66.78l14.66-21.4-8.74-12.29H1.46ZM124.12,228.42l-9.07,12.29,14.7,21.4h62.55l11.88-16.85-11.88-16.85h-68.17Z"/>
      <path class="cls-1" d="M297.56,1232h-96.1l23.4-33.69h66.78l14.66,21.11-8.74,12.58ZM329.76,1198.31h66.97l23.47,33.69h-96.08l-9.07-12.58,14.71-21.11ZM299.1,1079.26l11.73-17.07,11.73,17.07v117.25l-11.73,16.62-11.73-16.62v-117.25ZM291.6,1077.46h-66.92l-23.46-33.69h96.32l8.76,12.29-14.7,21.4ZM324.12,1043.77h96.01l-23.45,33.69h-66.92l-14.7-21.4,9.07-12.29Z"/>
      <path class="cls-1" d="M297.54,1019.52h-96.08l23.4-33.69h66.78l14.66,21.11-8.76,12.58ZM392.3,1019.52l11.88-16.62-11.88-17.07h-62.55l-14.7,21.11,9.07,12.58h68.17ZM420.13,979.98l-11.57,16.62-11.88-16.62v-109.17l11.88-16.62,11.57,16.62v109.17ZM291.6,864.98h-66.92l-23.46-33.69h96.32l8.76,12.29-14.7,21.4ZM392.3,831.28l11.88,16.85-11.88,16.85h-62.55l-14.7-21.4,9.07-12.29h68.17Z"/>
      <path class="cls-1" d="M291.6,783.22l14.7,21.11-8.76,12.58h-68.49l-11.88-16.62,11.88-17.07h62.55ZM392.3,783.22l11.88,17.07-11.88,16.62h-68.17l-9.07-12.58,14.7-21.11h62.55ZM201.53,634.97l23.45,33.24v109.17l-11.88,16.62-11.57-16.62v-142.41ZM420.13,668.22l-11.57-16.62-11.88,16.62v109.17l11.88,16.62,11.57-16.62v-109.17ZM310.83,647.1l11.73,17.07v37.74l-11.73,16.62-11.73-16.62v-37.74l11.73-17.07ZM392.3,628.68l11.88,16.85-11.88,16.85h-62.55l-14.7-21.4,9.07-12.29h68.17Z"/>
      <path class="cls-1" d="M297.56,614.31h-96.1l23.4-33.69h66.78l14.66,21.11-8.74,12.58ZM329.76,580.62h66.97l23.47,33.69h-96.08l-9.07-12.58,14.71-21.11ZM299.1,461.57l11.73-17.07,11.73,17.07v117.25l-11.73,16.62-11.73-16.62v-117.25ZM291.6,459.77h-66.92l-23.46-33.69h96.32l8.76,12.29-14.7,21.4ZM324.12,426.08h96.01l-23.45,33.69h-66.92l-14.7-21.4,9.07-12.29Z"/>
      <path class="cls-1" d="M297.54,391.94h-91.94l23.45-33.69h62.55l14.7,21.11-8.76,12.58ZM329.75,358.25h62.55l23.45,33.69h-91.63l-9.07-12.58,14.7-21.11ZM201.53,203.71l23.45,33.24v115.46l-23.45,33.24v-181.94ZM420.13,203.71v181.94l-23.45-33.24v-115.46l23.45-33.24ZM299.1,239.2l11.73-17.07,11.73,17.07v117.25l-11.73,16.62-11.73-16.62v-117.25Z"/>
      <path class="cls-1" d="M291.6,155.65l14.7,21.11-8.76,12.58h-68.49l-11.88-16.62,11.88-17.07h62.55ZM420.13,172.72l-11.57,16.62-11.88-16.62V40.64l11.88-16.62,11.57,16.62v132.08ZM299.1,36.6l11.73-17.07,11.73,17.07v117.25l-11.73,16.62-11.73-16.62V36.6ZM213.1,1.11l11.88,16.85v131.88l-11.88,16.59-11.57-16.62V17.73l11.57-16.62ZM392.3,1.11l11.88,16.85-11.88,16.85h-62.55l-14.7-21.4,9.07-12.29h68.17Z"/>
    </g>
  </g>
</svg>