<?xml version="1.0" encoding="UTF-8"?>
<svg id="Layer_2" data-name="Layer 2" xmlns="http://www.w3.org/2000/svg" viewBox="0 0 473.1 1255.01">
  <defs>
    <style>
      .cls-1 {
        stroke: #fff;
        stroke-width: 1.06px;
      }
    </style>
  </defs>
  <g id="Home_Page_Text_copy_2" data-name="Home Page Text copy 2">
    <g id="Garamond_Terrible" data-name="Garamond Terrible">
      <path class="cls-1" d="M230.68,1183.82l8.01-21.56c0-20.02,2.16-37.88,6.16-53.59-11.09-12.32-20.33-12.94-27.72-2.16l-4.93,22.48c-9.86,0-25.26,4.62-46.51,14.17-7.08,4.31-19.1,4.62-36.04,1.23-14.48,5.85-24.33,6.16-28.95.62l20.02-11.09c-6.16,10.16-4.31,21.56,4.93,34.8-4.31,5.54-8.01,17.86-12.01,36.96-4.93,3.7-16.32,10.16-34.5,19.1l-21.56-8.01c-12.32,0-22.48-11.09-31.42-32.65-5.85-6.78-3.08-20.64,8.01-41.58l22.18,4.93c0-8.32,5.54-8.32,16.32.31,5.54-5.85,9.24-4.93,11.4,2.77l-23.1-1.85c1.23-.31-1.23-8.01-7.7-23.41.92-1.85,4.93-10.16,12.32-25.56l23.1-1.54c0-3.08,3.39,1.85,10.16,14.17l-8.32,21.25c-4.31,0-16.02,2.16-35.42,6.47-4.62.92-15.71-3.08-33.57-12.01l5.24-22.48c-1.85.62,4-1.23,16.94-5.24-1.54,1.23,3.7,7.08,15.09,17.86l-1.85,23.1c-4.62,11.09-13.55,25.56-27.1,43.12l-20.02-11.4c0,20.94,4.93,29.26,14.48,24.95,10.47,11.09,29.88,12.01,58.83,3.08l21.56,8.32c8.32,0,17.25,5.54,27.1,16.32,6.47-4,6.47-3.7,0,1.23,4.31-5.54,7.39-15.4,8.32-28.95l-4-27.72,14.17-18.17c5.54-9.24,17.86-15.4,36.65-18.48,3.39-4.62,11.4-1.23,23.72,9.86,5.24-2.46,8.32,2.77,8.62,16.02l-23.1,1.23c11.4,0,16.02-2.46,13.86-8.01,6.78,6.78,13.24,8.62,18.79,4.93l22.48-4.31c0,9.55,1.85,23.72,5.24,42.81-7.08,8.01-20.02,21.25-38.5,39.73l-21.87,7.7c-2.16.62-9.24-2.46-21.56-9.24l2.16-23.1c0,1.85,7.39,0,21.56-5.85.92.92,8.62,5.24,23.41,12.94l7.7,22.79-18.79,13.24c13.55-.92,14.78-4.62,4.31-11.09l-4.31-22.79c1.85-.31,9.24-7.08,22.79-19.71l22.48,5.24c9.86-11.7,17.25-18.79,22.18-21.56l-47.43-.62Z"/>
      <path class="cls-1" d="M230.07,1103.74l-.31-23.1c0-4.93,6.16-14.48,18.17-28.95l21.25,9.24c0-1.85.92,2.46,3.08,13.55-.31-4.31-6.16-3.08-17.56,3.7l-21.87-24.95-6.78-21.87c0-2.46,5.24-11.7,15.09-27.1l22.79,3.08c0-5.85,2.16-2.16,6.47,11.7l-12.32,19.71c-1.23,0-10.16.92-26.18,2.46-.92,1.54-6.16-2.16-15.71-11.09l9.24-21.25c-1.23,5.24,4.31,8.32,16.32,9.24-3.08,3.39-1.54,10.78,4.31,22.48l-6.16,22.18c-1.85,0-15.4.62-40.66,1.85-10.78-3.08-25.26-10.47-43.43-22.79l3.08-22.79c-3.7-1.23,1.54-6.16,15.4-15.09l19.4-45.89.31,23.1c0-3.08-6.16-.62-18.79,6.47.62-.92-5.54-4.93-18.17-11.7l-3.39-22.79c26.49-8.01,48.97-16.94,67.14-27.1l22.18,6.16c7.08,0,13.86,13.86,20.33,40.96l-14.78,17.56c.31,2.77-6.47,4.31-20.64,4,1.23,2.16-.92-4-6.16-17.86l12.32-19.4c2.46,0,11.4-3.08,26.8-9.24l12.32-12.94-9.55,20.94c0-5.85-7.08-13.55-21.56-22.79l-14.48-33.88,6.47-22.18c0-5.85,6.16-11.09,18.79-15.4l17.56,15.09c-1.54,0-4,8.32-7.39,25.26-1.23,1.85-9.24,7.39-24.02,17.25l-19.1-12.63c-1.23,7.39-4,5.85-8.01-4.62-4,4.62-5.24,4.62-3.7.31l20.94,9.55c-71.46,21.56-130.28,47.43-175.87,77.62l-17.56,15.09c-.92.62-9.24-1.23-25.26-5.24-1.23.31-4.62-6.78-9.86-21.25l15.09-17.25c-.31.31,7.08,1.54,22.18,4,0,.31,3.39,7.7,9.86,21.87l-12.63,19.4c.92.31-5.24.92-18.17,1.85,2.46.92.31-4.31-6.78-15.71l9.86-20.94c1.23,2.16,9.86,3.39,25.87,3.7.92,2.16,6.16,9.55,16.32,21.87l-6.47,22.18c5.54.62,4,4-4.31,10.47l-17.25-15.09c30.49,11.09,61.91,13.24,94.56,6.16,20.64,8.32,50.2,14.48,89.32,19.1l19.4,12.63c7.08,3.08,12.32,14.48,15.71,34.19,3.39,4.31-.62,13.55-11.7,27.72l-20.94-9.86c2.16,6.78,3.39,2.46,4-12.63l17.56-14.78c1.23,0,9.55,1.23,24.95,4,.92-1.54,3.39,3.7,7.39,15.71l-44.35,6.78ZM157.07,996.25l22.18,6.16c0,2.46,2.16,11.4,6.78,26.8-.31.92-5.85,7.39-16.63,19.1l-25.26-3.08-100.41-48.97,12.01-19.71c-3.39-1.23,2.46-2.16,17.86-2.77l12.94,19.1c0-.62-1.23,5.54-3.7,18.17l67.14-20.02-12.32-17.86,6.16-22.18c.62,0,8.32-1.85,23.1-5.85.31.92,6.16,6.78,18.17,17.86l-3.08,70.84-24.95-37.58Z"/>
      <path class="cls-1" d="M276.57,668.23l-1.85,22.79c0-4.31-9.24-2.77-27.72,4.62l-26.8-10.78-1.54-23.1c-7.39.92-8.93-3.39-4.93-12.32l21.56,8.01c-97.33,0-148.15,7.39-152.46,22.18l-16.63,16.02c-4.93-.31-16.32-3.39-33.57-9.24-2.16-2.46-6.47-14.78-13.24-36.96l13.86-18.17c-1.23-6.78,4.31-9.55,16.94-8.32l10.78,20.33c-2.16,0-7.08,9.55-14.48,28.95l-23.1,1.54c0,6.78-4.31,7.08-12.94,1.23l8.62-6.16,22.48,12.94,16.02,16.63c0,3.08-1.54,13.55-4.31,31.11.62,2.46-5.54,6.47-19.1,11.7l-18.17-14.17c2.46,0,4.93-12.01,8.01-36.65l20.33-10.78c.62-3.7,9.24-3.7,26.18-.31,3.7-4,7.39,1.54,12.01,16.63l-18.48,13.55c77.92,0,117.35-2.46,118.58-7.7l-4.31-22.48c4.31,0,11.7-4,22.79-12.94l22.48,5.24c0,1.54.62,11.4,1.54,29.26l-14.17,18.48c-16.63,13.55-56.98,36.04-121.35,66.84-39.42,32.34-64.37,42.81-74.84,31.72l11.4-20.02c-2.16,1.23,4.31,2.16,18.79,2.16-.62.92,3.39,8.32,12.32,22.48l-8.32,21.56c0,7.39-7.7,17.56-23.41,30.18l-16.63,4.93,5.24-22.18c0,1.54,7.7.62,22.79-2.77.62,1.54,7.7,6.78,21.56,16.32l-2.16,23.1c1.54,0-3.7,2.16-16.02,7.08,1.23-2.16-4.62-8.01-17.25-17.56l-.92-23.1c3.39-10.16,13.55-22.48,31.11-36.34,4.93-4.93,19.4-4.62,43.74.92l4.31,22.79c23.41,0,45.89,5.85,67.45,17.56,22.48,1.23,32.96.62,31.42-1.54l-7.39-21.87c13.86,1.54,27.1,1.23,39.42-.31l23.1,2.46c.92,3.7,5.54,12.94,13.24,28.34.92,1.54-2.16,8.93-8.62,22.18l-22.79.92c2.16,0-1.23-9.24-9.86-27.72l8.62-21.25c0-3.7,7.08-10.78,21.56-21.56l15.71,16.63c-.31-4-2.46,0-6.16,11.7l-21.56,7.39c0-3.7-5.85-12.01-17.56-25.87l2.46-22.79c.62-4.31,7.7-13.55,21.25-28.03l20.02,11.7c0-5.85-.92-1.23-2.46,14.17l-18.79,13.24c-1.54,0-9.86-2.16-24.95-6.47-.62,1.54-2.77-3.39-6.16-14.78l16.94-16.02c-2.46,13.24-3.39,21.87-2.46,25.56l7.39,21.87c-26.49,0-74.54,5.54-144.76,16.32l-22.79-2.46c-1.85,0-6.78-7.08-14.78-21.25-1.54-.31,1.85-7.7,9.55-21.87l23.1-.92c0-1.54,6.16,2.77,18.17,12.63l-8.93,21.25c3.39-2.77,7.39-11.09,11.4-24.95l-15.71-16.94c22.18-10.16,48.05-33.57,78.23-70.84,26.18-22.18,48.05-36.65,64.99-43.12l17.86,14.48c6.16-4.31,9.86-1.54,11.7,8.32,3.39-5.24-1.54-5.85-15.4-1.54l22.79-33.88Z"/>
      <path class="cls-1" d="M246.7,558.59l21.25,7.7c3.39,7.7,4.93,16.94,4.93,27.72l-15.09-17.25c-15.09,5.85-22.48,11.4-22.18,17.25l-9.55,20.94c8.93,17.25,13.55,29.88,13.55,37.88l23.1-.31c8.32-7.08,11.09-10.47,8.32-10.47l-9.86-20.94c-16.94-1.85-25.56-3.7-26.18-4.93-10.16,10.78-15.71,13.86-16.32,9.55l6.78,21.87c13.24-3.7,18.48-7.08,15.09-10.16,8.01-13.24,8.62-19.71,1.23-19.71l-3.7-22.79-174.64-9.24c-20.02,8.62-31.42,14.48-34.8,17.25-2.77,18.48-4.93,31.42-6.47,39.42l19.71,12.01c13.24-2.77,19.4-3.39,18.79-2.16,1.23-13.86.92-20.64-.92-20.64l-17.56-14.78c-17.25,4.62-25.87,4-25.87-1.85l-6.16,22.18,15.71-.31c15.4-5.54,23.1-12.63,23.1-20.64l9.24-20.94c-8.62-21.25-13.55-38.19-14.48-50.82l-23.1.31c-8.32,8.93-12.32,11.7-12.63,8.01,6.47,10.16,9.86,14.17,9.86,11.7l22.79,2.46c9.86-38.5,18.79-66.53,27.41-83.78,3.7-32.03,12.94-52.36,27.72-60.37,0-12.01,9.24-18.17,27.72-18.17l-16.94,15.71c31.72,15.09,56.06,27.41,72.38,36.96,30.8,15.71,50.82,31.72,60.68,48.36,22.18,7.7,33.57,21.25,33.57,40.35l-.92-22.79-25.56,35.42ZM221.13,525.02c-1.54-.62-6.47-7.08-14.17-19.4,4-2.77-.92-7.39-14.78-14.48.92-11.7-7.7-17.56-25.26-17.56l5.85-22.18c-39.12-11.4-65.91-12.94-80.08-4.62-29.26,10.78-47.74,23.1-55.13,36.34-13.55,27.41-20.33,48.05-20.33,62.52l13.24,19.1c15.4,10.16,23.41,18.17,24.02,23.72,8.32-7.7,13.86-10.16,16.63-7.08-4.31-10.78-3.39-16.02,2.77-16.02l-23.1-2.46,137.68,17.86c16.32,14.48,26.18,17.86,30.18,9.55,18.79-4.62,28.03-13.86,28.03-28.03l16.94-15.71-42.5-21.56Z"/>
      <path class="cls-1" d="M230.37,370.1l20.02-11.4c0-7.7,6.47-11.09,19.71-10.16l2.16,23.1c-.62-7.39-6.78-8.93-18.79-4.62l-21.87-7.7c0-4.31-1.54-16.94-4.62-38.5l15.71-16.63c.62-5.54,8.62-10.78,23.72-15.4l8.32,21.56c0-6.16-5.54-2.77-16.63,9.55l-23.1-1.23c-1.54,0-6.47-5.85-14.78-17.56-.92,1.85,2.16-2.46,8.62-12.63l22.79-2.16c-1.54,8.01.31,20.02,5.24,36.34-4.31,4.31-12.63,13.55-24.64,28.03l-69.3,5.24-16.32-16.02c-6.78,0-9.86-8.01-9.86-23.72-2.77-.62-5.24-5.54-6.78-14.78l18.48,13.55c-19.1-12.01-37.58-15.71-55.44-11.4l-20.02,11.4c-9.86-6.47-23.41-14.79-40.66-25.26-3.7-3.39-6.78-15.4-9.55-35.42l18.17-14.17c-1.54-5.24,4.31-6.78,17.56-4.31-1.23-2.77-.62,3.08,1.54,18.17l-16.02,16.63c-2.16,0-10.78,1.23-25.87,4.31l-8.01-9.86,13.55-18.79c.31,8.01,8.32,15.09,23.41,21.87l11.09,43.12-10.78,20.33c0,6.16-6.47,9.55-19.71,10.78l-13.86-18.17c1.23,0,4.93-8.32,11.4-25.26,1.23-2.16,9.55-6.16,24.95-11.7l16.63,16.02c1.23-8.32,3.08-4.93,5.85,10.16l-21.56,8.01c4.31,0,3.39-2.46-2.77-8.01l1.54-23.1c4.93,3.08,15.09.92,30.18-5.54l20.02,10.78c13.24,7.39,25.26,21.87,36.34,43.43l-18.48,13.86c4.93,3.08.92,2.46-12.01-1.54,1.54,1.23.62-4.93-2.77-18.79l16.32-16.32c0,1.85,3.7,6.16,10.78,13.55l-44.35,49.9-13.55,18.48c-4.93,2.77-16.32,3.39-34.19,2.46l-11.09-20.33c-2.16,0,0-7.39,6.16-22.48-.92-1.54,5.54-4.62,20.02-9.24l13.86,18.48c-1.54-6.78-6.47-3.08-14.17,11.4l-22.48,4.93c-2.16,0-8.93-2.46-19.71-7.39l4.93-22.48c0,4,7.39,4.62,21.87,1.85l18.79,28.64-1.54,22.79c0,5.54-7.08,16.63-20.94,32.96l-20.64,3.08-1.54-23.1c0,6.16,7.39,4.62,21.87-4.62l21.56,8.01c1.23,0,4,6.78,8.32,20.02.92-1.54-3.39,1.23-12.94,8.62l-22.48-4.93c1.85-7.08,9.24-23.41,22.18-49.28l73-54.21,23.1,1.85c12.63-1.85,24.64,3.39,36.34,15.09,4.62-1.85,4.93,4,.92,17.56l22.48,1.54-13.55-18.79c14.17,0,25.56.92,33.88,2.77l22.79-4.93c.62,3.7,6.47,11.7,18.17,24.33.92,1.54.31,9.86-1.85,24.95l-21.56,7.7c2.16,0-2.77-7.7-14.78-22.79l1.23-22.48Z"/>
      <path class="cls-1" d="M425.84,1238.64l-4.93-22.79c0-7.7,5.24-19.4,15.71-35.11l22.48,5.24c-.62-5.85,1.85-3.7,7.08,6.78l-13.86,18.17c0-4.31-7.7-10.16-22.48-18.17l-10.78-20.33c.62-5.54,4.62-18.79,12.32-39.73l22.79-1.54c0-2.46,4.31,1.54,12.63,12.32-.62-1.85-4.62,4.62-11.4,19.1l-22.48,4.62c-1.23,0-7.7-4.93-19.1-14.48-.62,1.54.62-3.39,3.39-14.78l21.56-7.7c-1.23,7.08,1.85,17.86,9.55,31.72-4.62,4.62-10.78,14.48-18.48,29.88l-78.85,10.78-20.02-11.4c-1.23,0-2.46-7.7-3.7-23.41-.62,0,5.24-4.93,17.56-14.48l21.56-109.34,4.31,22.48c0-.62-4.93,4.31-15.4,14.78.62,0-6.16-2.16-20.33-5.54l-6.16-21.87,74.23-18.17,22.79,2.16c12.32,0,23.41,13.86,33.26,41.89l-11.4,19.71c.62,3.7-6.47,6.78-20.94,8.93.62,1.54-2.77-4-10.47-16.63l8.32-21.25c1.23,0,9.86-2.16,25.56-6.78.62-1.85,6.47,1.54,16.94,10.16l-5.24,22.18c0-7.39-7.7-11.09-22.79-11.09l-18.17-14.17c-.31-5.54.31-17.86,1.54-37.27l20.64-10.47c0-3.7,6.78-4.31,20.64-2.16l.92,23.1c.62-4.62-5.24-6.47-17.86-5.24l-21.25-8.32c0-2.77-1.85-12.63-5.54-29.26-.62-1.54,4-7.7,13.86-18.17l22.48,5.24c-1.23,0,0,8.01,4.31,24.02-.62,1.54-6.16,10.16-16.32,25.87l-22.79-2.46c-1.23,7.39-6.78,5.54-16.94-6.16-3.39,1.85-4.93-3.7-5.24-16.94l-131.21-.92,13.55,18.79c-6.78,0-14.78,6.16-23.72,18.48-3.39-1.85-12.94-4.93-29.26-9.24l-15.71-16.63c-.62-3.7.31-13.55,3.39-30.18-.92-1.54,5.24-4.93,18.48-9.86l17.86,14.48c-2.77,0-4.93,10.47-6.47,31.72l-20.64,10.47c0,6.16-6.16,8.01-19.1,5.54l-.62-12.32,18.79,2.77,21.25,8.93c-.62,7.39.62,21.56,3.39,42.5l-16.94,15.71c0,2.46-7.08,2.77-21.25.62.92,1.54-.62-4.93-4.31-19.4l14.48-17.86h26.49c.62-1.54,4.93,2.77,12.32,12.94l-11.7,19.71c1.23-7.39-4.31-12.32-16.02-14.78,3.7-3.08,4-11.09,1.23-23.72l68.99-21.25,22.79-4c2.46,0,8.93,6.47,19.4,19.1l-5.85,136.44-21.87,7.39c0,2.77-6.78-.62-20.64-10.47l-58.21-22.79,20.64-10.16c-6.16,0-4.31,2.46,5.24,7.08-3.39-3.08-5.54-.92-6.47,6.78l-19.1,13.24c-.62-3.7-8.32-9.24-23.41-16.94-.92-1.54-3.39-9.86-7.39-24.95l16.94-15.71c-2.46,0,3.7,4.93,18.48,14.78l7.08,22.18c0,5.85-4.93,17.86-14.17,36.34l-22.48,11.4-10.47-7.7,12.01-19.71c-.31,6.16,7.08,12.32,22.48,18.17l12.94,19.1c0,5.85-1.85,15.71-5.24,29.88l-22.79,4c1.54,0-2.46-6.78-12.01-19.71.92-1.54,3.7-11.4,8.32-29.88l21.87-7.08c.92-4.93,8.01-3.7,21.25,3.7,1.85-2.16,3.08,4,3.7,18.48,2.46-.62-.31,2.46-8.93,9.24l134.29-12.01-.31-23.1c7.39,0,19.4-3.08,35.11-9.24,3.39,2.46,12.63,10.78,28.34,24.33l3.7,22.79c.62,3.7-4.62,11.4-15.4,23.1.92,1.54-5.54,0-19.1-4l-6.78-21.87c1.23,0,7.08-6.78,17.56-20.33.62-1.54,8.62-2.77,24.02-3.39l-32.34,35.11Z"/>
      <path class="cls-1" d="M459.72,908.78l-22.79,1.54c0-15.09-8.32-34.8-24.33-59.14-6.78-12.01-13.86-28.95-20.94-50.51-12.32-7.08-18.79-12.63-19.4-16.32l16.32,16.32c-12.01-.31-27.41,6.78-46.51,21.87l-21.56,8.01c-4.62,0-19.71-4.93-44.97-14.48-12.94-.31-24.95-8.62-36.34-24.64l20.02-11.09c-13.55-.62-14.48-2.16-2.77-4.31l1.54,23.1c-1.54-6.78-9.55-5.54-24.64,3.39l-21.56-8.01c-2.46,0-4.93-4.62-8.32-13.55l16.94-5.85,22.18,4.93c.62,5.85,3.39,17.86,8.62,36.34l-14.17,41.27-23.1-1.85c0,6.16-2.46,2.16-7.39-11.4l11.09-20.02c2.46,0,12.01-4,29.26-11.7l13.55,18.79c1.23-4.31,2.46-.31,3.08,12.01,6.16-1.85,6.16-1.54-.31,1.54l-16.02-16.63c31.72-.92,60.37-8.62,86.24-23.72l21.56-7.7c24.95,0,50.51,9.86,77,29.26,14.17,10.16,20.64,33.26,19.4,68.99l-20.33,10.78c0,19.71-12.63,31.72-37.88,35.73-12.01,11.7-30.18,10.16-54.82-5.24l-82.85-13.55,21.56,8.32c-5.54,0-8.93,6.16-10.16,18.17-4.31-2.77-12.32-.31-24.02,7.39l-22.48-5.24c-1.23-4-4.93-13.86-10.78-29.57-.92-1.54,2.77-8.32,11.09-20.33l22.79,1.85c-2.16,0,.31,9.86,7.39,29.26l-11.4,20.02c0,4.31-7.7,8.01-22.79,11.09l-12.94-3.7,8.32-21.56c0,4.31,7.39,8.32,21.87,12.01l15.71,29.88-5.24,22.18c0,6.16-6.16,11.7-18.48,16.63l-18.17-14.17c2.77,0,5.85-11.09,8.93-33.26l20.64-10.47c.92-4,9.86-3.7,26.8,1.23,3.7-2.46,9.24,3.7,16.63,19.1l90.55,13.24-21.25-8.32c24.33,0,41.89-14.78,52.98-44.04,13.86-14.17,26.49-40.04,37.58-77.31l19.1,43.43Z"/>
      <path class="cls-1" d="M470.81,671l-11.4,19.71c0-12.63-9.24-23.72-28.03-33.26-3.39-10.16-11.7-26.49-25.26-49.28l8.32-21.25c-2.16-4,4-8.32,19.1-12.63l15.71,16.63c-.31-3.08-4,3.08-11.09,17.86l-21.87,7.7c-.62,0-7.39-4.31-20.64-12.63-1.23,1.23-1.23-5.85-.62-20.64l20.64-10.47c-.31.31,5.54,4.31,17.86,12.63-.92.62-1.54,8.32-1.85,23.72l-27.1,13.24-21.25-8.32c-8.01,0-17.25-8.32-27.41-24.33l16.63-15.71c-4.31-.62,0-.31,12.63,1.54-2.46-1.85-1.54,2.46,2.16,12.63l-14.48,18.17c0-1.23-8.32-3.08-24.95-6.47-.92-1.54-5.54-9.24-13.86-22.79l11.7-20.02c-1.85,0,4.62.62,19.1,1.54-.62,1.54,3.39,8.93,12.32,22.79l-8.93,21.25c0,4-7.08,10.16-21.87,18.17l-15.71-16.63c.31,5.24,2.46,2.16,6.16-8.93l21.87-7.39c0,6.16,5.54,17.56,17.25,35.11l-2.46,22.79c-.31,7.39-7.39,16.94-21.25,28.64l-19.71-11.7c0,.92.31-5.24.62-19.1,1.23,1.54,8.62-2.16,22.79-11.09l21.25,8.93c1.23,0,4,6.78,7.7,20.33.92-1.54-4,2.46-15.4,12.01l-22.18-5.85c0-4.31-1.54-17.25-4.93-38.5,1.85-6.78,8.93-17.25,21.56-31.42l23.1,2.46c1.23-.92,7.7,5.24,19.4,19.1l-2.46,20.02-23.1.92c2.16,0,.62-6.16-4.62-18.79l8.93-21.25c4.93,0,17.25-.31,36.34-1.23,4,1.54,12.63,9.55,25.87,23.41l-5.85,22.18c2.77,3.08-1.85,9.86-14.17,20.64,2.46,5.85-2.16,8.93-14.17,9.55l2.46-22.79c0,13.86,3.08,23.72,9.55,29.26-7.7,12.32-11.7,26.18-12.63,41.89-14.17,7.39-30.18,18.79-48.36,34.19l-19.1,13.24c-26.18,0-53.28-6.47-81.93-19.4-14.17-6.78-26.8-23.72-37.88-51.13-8.62-12.01-7.39-31.11,4-56.98l22.48,5.85c0-12.63,4-16.02,12.32-9.86,3.7-8.62,2.46-8.32-3.7.62l-22.79-2.46c4.62-4.31,6.78-14.48,6.16-30.49l12.01-19.71c2.77-.62,12.32-1.85,29.26-3.08,1.23-1.23,6.47,3.7,15.09,14.78l-9.24,20.94c0-1.23-8.32-.92-24.64.62-1.23-.92-7.7-7.08-19.71-18.48l6.16-22.18c-5.85,0-9.55-1.23-10.78-4l17.56,14.78c-.92.31-2.46,8.01-4.93,23.72-.62.31-8.01,4.31-22.18,12.01l-19.71-12.01c-1.85,4-4.31,5.85-7.08,5.24-2.16,15.09,3.08,21.87,15.71,20.33l21.25,9.24c0,20.02,5.85,46.51,18.17,79.16,9.55,17.56,16.94,36.34,21.87,56.98,16.63,10.16,32.34,13.24,47.43,9.24l-6.78-21.87c18.48,0,40.04-10.78,65.3-32.34,15.4-9.86,35.11-21.87,59.14-36.34,8.62-16.63,16.32-27.1,23.1-32.34v-.62Z"/>
      <path class="cls-1" d="M425.84,565.06l-4.93-22.79c0-7.7,5.24-19.4,15.71-35.11l22.48,5.24c-.62-5.85,1.85-3.7,7.08,6.78l-13.86,18.17c0-4.31-7.7-10.16-22.48-18.17l-10.78-20.33c.62-5.54,4.62-18.79,12.32-39.73l22.79-1.54c0-2.46,4.31,1.54,12.63,12.32-.62-1.85-4.62,4.62-11.4,19.1l-22.48,4.62c-1.23,0-7.7-4.93-19.1-14.48-.62,1.54.62-3.39,3.39-14.78l21.56-7.7c-1.23,7.08,1.85,17.86,9.55,31.72-4.62,4.62-10.78,14.48-18.48,29.88l-78.85,10.78-20.02-11.4c-1.23,0-2.46-7.7-3.7-23.41-.62,0,5.24-4.93,17.56-14.48l21.56-109.34,4.31,22.48c0-.62-4.93,4.31-15.4,14.78.62,0-6.16-2.16-20.33-5.54l-6.16-21.87,74.23-18.17,22.79,2.16c12.32,0,23.41,13.86,33.26,41.89l-11.4,19.71c.62,3.7-6.47,6.78-20.94,8.93.62,1.54-2.77-4-10.47-16.63l8.32-21.25c1.23,0,9.86-2.16,25.56-6.78.62-1.85,6.47,1.54,16.94,10.16l-5.24,22.18c0-7.39-7.7-11.09-22.79-11.09l-18.17-14.17c-.31-5.54.31-17.86,1.54-37.27l20.64-10.47c0-3.7,6.78-4.31,20.64-2.16l.92,23.1c.62-4.62-5.24-6.47-17.86-5.24l-21.25-8.32c0-2.77-1.85-12.63-5.54-29.26-.62-1.54,4-7.7,13.86-18.17l22.48,5.24c-1.23,0,0,8.01,4.31,24.02-.62,1.54-6.16,10.16-16.32,25.87l-22.79-2.46c-1.23,7.39-6.78,5.54-16.94-6.16-3.39,1.85-4.93-3.7-5.24-16.94l-131.21-.92,13.55,18.79c-6.78,0-14.78,6.16-23.72,18.48-3.39-1.85-12.94-4.93-29.26-9.24l-15.71-16.63c-.62-3.7.31-13.55,3.39-30.18-.92-1.54,5.24-4.93,18.48-9.86l17.86,14.48c-2.77,0-4.93,10.47-6.47,31.72l-20.64,10.47c0,6.16-6.16,8.01-19.1,5.54l-.62-12.32,18.79,2.77,21.25,8.93c-.62,7.39.62,21.56,3.39,42.5l-16.94,15.71c0,2.46-7.08,2.77-21.25.62.92,1.54-.62-4.93-4.31-19.4l14.48-17.86h26.49c.62-1.54,4.93,2.77,12.32,12.94l-11.7,19.71c1.23-7.39-4.31-12.32-16.02-14.78,3.7-3.08,4-11.09,1.23-23.72l68.99-21.25,22.79-4c2.46,0,8.93,6.47,19.4,19.1l-5.85,136.44-21.87,7.39c0,2.77-6.78-.62-20.64-10.47l-58.21-22.79,20.64-10.16c-6.16,0-4.31,2.46,5.24,7.08-3.39-3.08-5.54-.92-6.47,6.78l-19.1,13.24c-.62-3.7-8.32-9.24-23.41-16.94-.92-1.54-3.39-9.86-7.39-24.95l16.94-15.71c-2.46,0,3.7,4.93,18.48,14.78l7.08,22.18c0,5.85-4.93,17.86-14.17,36.34l-22.48,11.4-10.47-7.7,12.01-19.71c-.31,6.16,7.08,12.32,22.48,18.17l12.94,19.1c0,5.85-1.85,15.71-5.24,29.88l-22.79,4c1.54,0-2.46-6.78-12.01-19.71.92-1.54,3.7-11.4,8.32-29.88l21.87-7.08c.92-4.93,8.01-3.7,21.25,3.7,1.85-2.16,3.08,4,3.7,18.48,2.46-.62-.31,2.46-8.93,9.24l134.29-12.01-.31-23.1c7.39,0,19.4-3.08,35.11-9.24,3.39,2.46,12.63,10.78,28.34,24.33l3.7,22.79c.62,3.7-4.62,11.4-15.4,23.1.92,1.54-5.54,0-19.1-4l-6.78-21.87c1.23,0,7.08-6.78,17.56-20.33.62-1.54,8.62-2.77,24.02-3.39l-32.34,35.11Z"/>
      <path class="cls-1" d="M427.99,320.82l-7.7-21.87c0-2.46,4.31-14.78,13.24-37.58l22.79,2.16c-.62-4.93,2.77-3.39,9.86,4.62l-11.4,19.71c0-13.86-7.39-27.41-22.18-40.96l-13.24-18.79c.62-32.03,3.7-56.98,9.24-75.46l22.79-4.31c0-.92,4.93,4,15.09,14.48-.62-.31-3.08,6.47-7.7,20.94-1.23-.31-8.93,1.85-24.02,6.78l-18.17-14.17c-4-1.85-9.55-11.7-16.63-29.26-8.62-2.16-7.39-6.78,3.7-13.86l20.02,11.4c-3.08,0-4,9.24-3.39,27.1l-18.79,13.24c0,1.54-5.85.31-17.25-4l-4.31-22.79c6.47,3.39,17.25,1.23,32.03-6.78,3.39,2.46,13.86,7.08,30.8,13.86l7.39,21.87c1.85,3.08-1.54,12.94-10.47,29.26.92,4.62-6.16,9.24-21.56,14.48l-10.47,2.46,11.7-20.02c0,7.39,5.85,12.01,18.17,14.78-3.08,3.08-3.7,10.78-2.46,23.41l-68.07,21.25-22.48,4.31c-3.39,0-10.78-6.47-22.18-19.1-1.23-1.54.31-11.7,4-30.49l21.87-36.04,17.86,14.48c0-4,.31.62.92,13.86,2.16-2.16-1.23-.31-10.16,5.24l-19.71-11.7c6.47-1.54,9.55-11.71,8.93-30.18l19.1-13.24c0-1.85,5.24.31,16.02,6.16l-3.39,23.1-48.05,16.02-35.73-6.47-15.4-22.18,14.48-17.86c-1.23,0,4.93,1.23,19.4,3.7-.92.92,2.16,8.93,8.93,23.41l-11.7,19.71c0,2.46-5.54,4.62-16.32,6.47l-13.24-19.1c6.16,1.54,12.94-3.39,20.94-15.4,2.16,2.16,10.78,4.93,25.87,8.01l15.71,47.43-5.85,22.18c0,1.54-8.01,5.24-24.02,11.09-1.23,1.23-8.62-3.08-22.48-12.94l-62.83-22.79,20.64-10.16c-2.46,0,1.85,2.77,12.94,8.01-1.85-2.77-2.77,2.46-2.16,15.71l-19.1-27.1-21.25-9.24c0-8.62,1.54-23.1,4.31-43.12l16.94-15.71c1.85-1.54,12.32-.92,31.42,1.54,4.31-1.23,9.24,5.54,15.09,19.71l-14.78,17.55c1.23-.31-5.54-1.54-20.33-3.7.31-.62-2.77-8.32-9.55-23.1l12.01-19.71c0-2.77,6.16-4.31,18.48-4.62l12.94,19.1c-4.93,0-13.86,7.7-27.41,23.1-7.39,1.23-19.4,3.39-36.34,6.47l-15.4-17.25c-1.85.31-.62-5.24,3.39-16.63l22.48,19.1,17.86,56.98-3.08,48.97-20.64,10.16c-.31,11.09-7.08,16.63-20.33,16.32l-.31-23.1c0,5.85,7.39,4.62,22.48-4l21.25,9.24c2.77,0,6.16,4.31,9.86,12.63l-17.25,15.4c1.54-7.7-3.7-15.09-15.4-22.18,3.39-3.08,6.16-12.01,8.93-26.49l167.86-17.86,23.1,3.08c7.08,0,15.71,8.62,25.56,26.18,3.39,3.39,1.85,16.02-4.93,36.96l-22.79.31c.62,3.39-3.08-.31-10.78-11.4.92,1.54,5.24-4.62,12.63-18.79l22.79-3.39c2.46,0,8.62,2.46,18.79,8.01l-39.42,23.41Z"/>
      <path class="cls-1" d="M423.68,87.05l8.01-21.56c0-20.02,2.16-37.88,6.16-53.59-11.09-12.32-20.33-12.94-27.72-2.16l-4.93,22.48c-9.86,0-25.26,4.62-46.51,14.17-7.08,4.31-19.1,4.62-36.04,1.23-14.48,5.85-24.33,6.16-28.95.62l20.02-11.09c-6.16,10.16-4.31,21.56,4.93,34.8-4.31,5.54-8.01,17.86-12.01,36.96-4.93,3.7-16.32,10.16-34.5,19.1l-21.56-8.01c-12.32,0-22.48-11.09-31.42-32.65-5.85-6.78-3.08-20.64,8.01-41.58l22.18,4.93c0-8.32,5.54-8.32,16.32.31,5.54-5.85,9.24-4.93,11.4,2.77l-23.1-1.85c1.23-.31-1.23-8.01-7.7-23.41.92-1.85,4.93-10.16,12.32-25.56l23.1-1.54c0-3.08,3.39,1.85,10.16,14.17l-8.32,21.25c-4.31,0-16.02,2.16-35.42,6.47-4.62.92-15.71-3.08-33.57-12.01l5.24-22.48c-1.85.62,4-1.23,16.94-5.24-1.54,1.23,3.7,7.08,15.09,17.86l-1.85,23.1c-4.62,11.09-13.55,25.56-27.1,43.12l-20.02-11.4c0,20.94,4.93,29.26,14.48,24.95,10.47,11.09,29.88,12.01,58.83,3.08l21.56,8.32c8.32,0,17.25,5.54,27.1,16.32,6.47-4,6.47-3.7,0,1.23,4.31-5.54,7.39-15.4,8.32-28.95l-4-27.72,14.17-18.17c5.54-9.24,17.86-15.4,36.65-18.48,3.39-4.62,11.4-1.23,23.72,9.86,5.24-2.46,8.32,2.77,8.62,16.02l-23.1,1.23c11.4,0,16.02-2.46,13.86-8.01,6.78,6.78,13.24,8.62,18.79,4.93l22.48-4.31c0,9.55,1.85,23.72,5.24,42.81-7.08,8.01-20.02,21.25-38.5,39.73l-21.87,7.7c-2.16.62-9.24-2.46-21.56-9.24l2.16-23.1c0,1.85,7.39,0,21.56-5.85.92.92,8.62,5.24,23.41,12.94l7.7,22.79-18.79,13.24c13.55-.92,14.78-4.62,4.31-11.09l-4.31-22.79c1.85-.31,9.24-7.08,22.79-19.71l22.48,5.24c9.86-11.7,17.25-18.79,22.18-21.56l-47.43-.62Z"/>
    </g>
  </g>
</svg>