<?xml version="1.0" encoding="UTF-8"?>
<svg id="Layer_2" data-name="Layer 2" xmlns="http://www.w3.org/2000/svg" viewBox="0 0 424.66 1236.54">
  <defs>
    <style>
      .cls-1 {
        stroke: #fff;
        stroke-width: 1.06px;
      }
    </style>
  </defs>
  <g id="Home_Page_Text_copy_2" data-name="Home Page Text copy 2">
    <g id="Helvetica">
      <path class="cls-1" d="M168.14,1186.16c5.04-2.61,9.11-6.09,12.23-10.42,3.12-4.33,5.44-9.41,6.95-15.25,1.51-5.84,2.27-11.88,2.27-18.12,0-4.23-.35-8.76-1.06-13.59-.7-4.83-2.06-9.36-4.08-13.59-2.01-4.23-4.78-7.75-8.3-10.57-3.52-2.82-8-4.23-13.44-4.23-5.84,0-10.57,1.86-14.19,5.59-3.62,3.73-6.64,8.61-9.06,14.65-2.42,6.04-4.53,12.89-6.34,20.54-1.81,7.65-3.82,15.4-6.04,23.25-2.01,8.05-4.48,15.91-7.4,23.56-2.92,7.65-6.69,14.5-11.33,20.54-4.63,6.04-10.42,10.92-17.37,14.65-6.95,3.73-15.35,5.59-25.22,5.59-11.07,0-20.69-2.36-28.84-7.1-8.15-4.73-14.95-10.92-20.38-18.57-5.44-7.65-9.46-16.31-12.08-25.97-2.61-9.66-3.93-19.33-3.93-28.99,0-11.27,1.26-22.09,3.78-32.46,2.52-10.37,6.6-19.58,12.23-27.63,5.64-8.05,12.83-14.44,21.59-19.18,8.76-4.73,19.38-7.1,31.86-7.1v45.9c-6.44.41-11.78,1.76-16.01,4.08-4.23,2.32-7.55,5.39-9.97,9.21-2.42,3.83-4.12,8.21-5.13,13.14-1,4.94-1.51,10.32-1.51,16.16,0,3.83.41,7.65,1.21,11.48.81,3.83,2.22,7.3,4.23,10.42,2.01,3.12,4.53,5.69,7.55,7.7,3.02,2.01,6.85,3.02,11.48,3.02,4.23,0,7.65-.8,10.27-2.42,2.62-1.61,5.04-4.78,7.25-9.51,2.22-4.73,4.43-11.27,6.64-19.63,2.22-8.35,5.03-19.28,8.46-32.77.81-4.03,2.26-9.61,4.38-16.76,2.11-7.14,5.49-14.24,10.12-21.29,4.63-7.04,10.82-13.14,18.57-18.27,7.75-5.13,17.67-7.7,29.75-7.7,9.87,0,19.03,1.92,27.48,5.74,8.46,3.83,15.76,9.51,21.89,17.06,6.14,7.55,10.92,16.91,14.35,28.09,3.42,11.17,5.13,24.11,5.13,38.81,0,11.88-1.46,23.4-4.38,34.58-2.92,11.17-7.5,21.04-13.74,29.6-6.24,8.56-14.19,15.35-23.86,20.38-9.66,5.04-21.14,7.45-34.43,7.25v-45.9c7.25,0,13.39-1.31,18.42-3.93Z"/>
      <path class="cls-1" d="M5.67,924.34l215.63-80.63v49.22l-48.02,16.31v80.63l48.02,16.91v47.71L5.67,972.96v-48.62ZM137.94,921.62l-79.12,27.18v.6l79.12,28.09v-55.87Z"/>
      <path class="cls-1" d="M5.67,786.32l144.66-90v-.6H5.67v-44.39h215.63v47.41l-144.36,89.69v.6h144.36v44.39H5.67v-47.11Z"/>
      <path class="cls-1" d="M5.67,531.14c0-13.89,2.22-26.83,6.64-38.81,4.43-11.98,11.08-22.35,19.93-31.11,8.86-8.76,19.93-15.6,33.22-20.54,13.29-4.93,28.89-7.4,46.81-7.4,15.7,0,30.2,2.01,43.49,6.04,13.29,4.03,24.76,10.12,34.43,18.27s17.27,18.32,22.8,30.5c5.54,12.18,8.31,26.53,8.31,43.03v93.02H5.67v-93.02ZM181.43,534.46c0-6.84-1.1-13.49-3.32-19.93-2.21-6.44-5.89-12.18-11.02-17.21-5.13-5.03-11.83-9.06-20.08-12.08-8.25-3.02-18.32-4.53-30.2-4.53-10.87,0-20.69,1.06-29.45,3.17-8.76,2.11-16.26,5.59-22.5,10.42-6.24,4.83-11.02,11.23-14.34,19.18-3.32,7.96-4.98,17.77-4.98,29.44v33.82h135.9v-42.28Z"/>
      <path class="cls-1" d="M5.67,450.2v-53.15l85.16-50.43L5.67,296.49v-52.85l132.88,80.03h82.75v47.41h-83.96L5.67,450.2Z"/>
      <path class="cls-1" d="M203.67,1174.99h82.75v-87.28h-82.75v-47.41h215.63v47.41h-93.02v87.28h93.02v47.41h-215.63v-47.41Z"/>
      <path class="cls-1" d="M402.84,854.57c14.19,16.31,21.29,38.86,21.29,67.65s-7.04,51.79-21.14,67.8c-14.09,16.01-35.83,24.01-65.23,24.01h-134.09v-47.41h134.09c5.84,0,11.58-.5,17.21-1.51,5.64-1,10.62-3.12,14.95-6.34,4.33-3.22,7.85-7.7,10.57-13.44,2.72-5.74,4.08-13.44,4.08-23.1,0-16.91-3.77-28.59-11.33-35.03-7.55-6.44-19.38-9.66-35.48-9.66h-134.09v-47.41h134.09c29.19,0,50.89,8.15,65.08,24.46Z"/>
      <path class="cls-1" d="M417.63,670.05c4.33,10.27,6.49,20.64,6.49,31.11,0,16.51-2.87,31.36-8.61,44.54-5.74,13.19-13.64,24.31-23.71,33.37-10.06,9.06-21.89,16.01-35.48,20.84-13.59,4.83-28.24,7.25-43.94,7.25s-31.05-2.42-44.85-7.25c-13.79-4.83-25.82-11.78-36.09-20.84-10.27-9.06-18.32-20.18-24.16-33.37-5.84-13.18-8.76-28.03-8.76-44.54,0-11.07,1.66-21.79,4.98-32.16,3.32-10.37,8.21-19.73,14.65-28.09,6.45-8.35,14.4-15.25,23.86-20.69,9.47-5.44,20.34-8.76,32.62-9.97v45.3c-12.08,2.82-21.14,8.26-27.18,16.31-6.04,8.05-9.06,17.82-9.06,29.29,0,10.67,2.07,19.73,6.19,27.18,4.13,7.45,9.66,13.49,16.61,18.12,6.95,4.63,14.85,8,23.71,10.12,8.86,2.11,18.02,3.17,27.48,3.17s17.87-1.06,26.42-3.17c8.56-2.11,16.26-5.48,23.1-10.12,6.85-4.63,12.33-10.67,16.46-18.12,4.13-7.45,6.19-16.51,6.19-27.18,0-15.7-3.97-27.83-11.93-36.39-7.95-8.55-19.48-13.54-34.58-14.95v47.72h-35.33v-90.6h116.57v30.2l-24.46,4.83c10.87,8.46,18.47,17.82,22.8,28.09Z"/>
      <path class="cls-1" d="M203.67,529.63h82.75v-87.28h-82.75v-47.41h215.63v47.41h-93.02v87.28h93.02v47.41h-215.63v-47.41Z"/>
      <path class="cls-1" d="M203.67,200.45h39.86v113.85h46.21v-104.49h36.84v104.49h52.85v-116.27h39.86v163.68h-215.63v-161.27Z"/>
      <path class="cls-1" d="M366.14,132.2c5.04-2.61,9.11-6.09,12.23-10.42,3.12-4.33,5.44-9.41,6.95-15.25,1.51-5.84,2.27-11.88,2.27-18.12,0-4.23-.35-8.76-1.06-13.59-.7-4.83-2.06-9.36-4.08-13.59-2.01-4.23-4.78-7.75-8.3-10.57-3.52-2.82-8-4.23-13.44-4.23-5.84,0-10.57,1.86-14.19,5.59-3.62,3.73-6.64,8.61-9.06,14.65-2.42,6.04-4.53,12.89-6.34,20.54-1.81,7.65-3.82,15.4-6.04,23.25-2.01,8.05-4.48,15.91-7.4,23.56-2.92,7.65-6.69,14.5-11.33,20.54-4.63,6.04-10.42,10.92-17.37,14.65-6.95,3.73-15.35,5.59-25.22,5.59-11.07,0-20.69-2.36-28.84-7.1-8.15-4.73-14.95-10.92-20.38-18.57-5.44-7.65-9.46-16.31-12.08-25.97-2.61-9.66-3.93-19.33-3.93-28.99,0-11.27,1.26-22.09,3.78-32.46,2.52-10.37,6.6-19.58,12.23-27.63,5.64-8.05,12.83-14.44,21.59-19.18,8.76-4.73,19.38-7.1,31.86-7.1v45.9c-6.44.41-11.78,1.76-16.01,4.08-4.23,2.32-7.55,5.39-9.97,9.21-2.42,3.83-4.12,8.21-5.13,13.14-1,4.94-1.51,10.32-1.51,16.16,0,3.83.41,7.65,1.21,11.48.81,3.83,2.22,7.3,4.23,10.42,2.01,3.12,4.53,5.69,7.55,7.7,3.02,2.01,6.85,3.02,11.48,3.02,4.23,0,7.65-.8,10.27-2.42,2.62-1.61,5.04-4.78,7.25-9.51,2.22-4.73,4.43-11.27,6.64-19.63,2.22-8.35,5.03-19.28,8.46-32.77.81-4.03,2.26-9.61,4.38-16.76,2.11-7.14,5.49-14.24,10.12-21.29,4.63-7.04,10.82-13.14,18.57-18.27,7.75-5.13,17.67-7.7,29.75-7.7,9.87,0,19.03,1.92,27.48,5.74,8.46,3.83,15.76,9.51,21.89,17.06,6.14,7.55,10.92,16.91,14.35,28.08,3.42,11.17,5.13,24.11,5.13,38.81,0,11.88-1.46,23.41-4.38,34.58-2.92,11.17-7.5,21.04-13.74,29.6-6.24,8.56-14.19,15.35-23.86,20.38-9.66,5.04-21.14,7.45-34.43,7.25v-45.9c7.25,0,13.39-1.31,18.42-3.93Z"/>
    </g>
  </g>
</svg>