<?xml version="1.0" encoding="UTF-8"?>
<svg id="Layer_2" data-name="Layer 2" xmlns="http://www.w3.org/2000/svg" viewBox="0 0 440.93 1229.36">
  <defs>
    <style>
      .cls-1 {
        stroke: #fff;
        stroke-width: 1.02px;
      }
    </style>
  </defs>
  <g id="Home_Page_Text_copy_2" data-name="Home Page Text copy 2">
    <g id="kaeru_kaeru" data-name="kaeru kaeru">
      <path class="cls-1" d="M55.25,1092.29c3.79,3.16,15.48,3.16-1.58,23.38-12.32,14.54,10.74,17.06,36.66,7.27s20.22-43.61,60.67-55.62c33.5-9.8,55.62,10.43,72.68,30.02,17.7,20.54,24.96,49.29,18.33,70.47-6.32,20.54-23.07,46.77-46.77,55.93s-18.64.95-21.49-6.64c-2.84-7.58-7.27-7.9,10.11-14.22s34.13-18.64,39.5-42.98c2.84-12.64-6-21.8-11.38-12.32-6,10.43-1.26,16.43-14.22,26.54-14.22,11.06-39.5-3.16-50.56-20.22-7.27-11.38,6.32-48.03,24.02-50.24,18.01-1.9,20.54,7.9,32.55,22.12,3.79,4.74,13.59,8.85,11.38-2.53-1.58-7.27-11.06-22.75-22.75-29.07-31.6-17.06-73.63,2.53-61.62,48.66,3.16,12.01,12.32,55.93-35.08,66.99-47.4,11.06-74.89-13.27-81.84-49.93-6.95-36.34,10.74-51.19,30.65-75.84,5.69-6.95,6.95,5.06,10.74,8.22ZM109.28,1179.82c14.54-21.17,7.58-49.29-8.85-42.03-17.7,7.9-33.5,17.06-54.98,4.42-20.86-12.32-19.59,16.43-2.53,38.24,14.22,18.01,55.62,14.85,66.36-.63ZM193.34,1138.1c-4.11-6.95-11.69-18.33-20.22-16.75-12.32,2.21-23.38,21.49-.63,37.6,12.01,8.53,30.97-3.79,20.86-20.86Z"/>
      <path class="cls-1" d="M119.08,934.29c-19.59,6-13.27,13.59-4.74,26.86l5.69,8.53c6.64,8.53,6.95-.95,26.86-4.42,13.27-2.21,19.28,17.38,29.7,25.91,10.74,8.53,37.6,5.69,46.77,6,8.85.32,1.26,10.11,1.26,12.32s6.32,13.9-6.64,10.43c-7.27-1.9-26.23-2.84-33.5-5.06-12.64-3.79-15.17-7.58-30.02-19.59-14.54-12.01-22.75-.32-33.5,5.37-16.12,10.43-36.34-11.38-55.3-26.86s-34.76,4.11-48.66-12.96c-13.9-17.06,5.69-26.54,45.82-55.3,40.13-28.75,62.25-28.12,72.68-7.9,9.48,18.33-8.22,34.13-16.43,36.66ZM91.9,907.75c-11.38,8.85-23.07,14.85-41.4,24.96-18.64,10.43-10.43,21.17-.95,20.86,9.16-.32,12.32-3.48,19.91,3.79,25.6,24.33,33.81,22.75,27.49,1.58-5.69-19.28-8.22-27.18,9.16-37.29,17.06-10.11-1.26-24.02-14.22-13.9ZM223.99,878.99c10.43,12.32,2.53,34.13-9.48,33.5s-8.85-13.9-35.39-6.32c-26.23,7.58-34.44,3.79-32.55-14.85.95-8.85,10.43-11.69,30.02-19.59,20.22-8.22,36.97-5.37,47.4,7.27ZM172.8,885.63c-4.42-.32-8.22,8.85,2.53,8.85,6.95,0,19.91-6,25.91-3.16,7.9,3.79,12.01-3.16,2.84-7.9-8.85-4.42-14.85,3.48-31.28,2.21Z"/>
      <path class="cls-1" d="M86.53,631.25c27.18,1.58,35.08,21.17,21.49,23.07-42.97,6-35.08,20.86-19.91,16.75,13.9-3.79,52.77-6.95,81.21-5.69,27.49,1.26,53.4,13.59,53.72,31.28.32,17.7-17.06,33.18-38.87,32.55-13.27-.32-36.02-1.58-67.62,12.96-31.6,14.54-53.09,1.26-71.42-2.53-18.33-3.79-2.21,27.18,18.64,25.28,21.17-1.9,85.32-14.22,96.69-24.65,10.74-10.11,28.12-12.32,43.92,2.84,10.11,9.8,19.91,27.18,29.07,48.98,4.74,11.38-2.21,23.07-9.16,27.81-10.11,6.95-29.07,10.74-38.55-12.64-4.42-11.06-19.91-10.43-29.07-22.44-23.38-30.97-60.35,8.22-97.01,5.37-42.66-3.16-46.77-35.71-45.82-47.08.95-11.38,12.32-32.86,38.24-23.7,26.23,9.16,39.82,6.32,60.99-3.48,20.86-9.8,42.34-8.53,60.99-5.69,18.01,2.84,27.49-15.17,13.27-22.12-12.96-6.32-39.81-6-75.52,0-38.55,6.32-57.19,11.38-72.99,18.96-8.53,4.11-4.74-7.9-6.64-12.32-1.9-4.42-12.96-7.27,18.64-15.8,16.43-4.42,6.32-12.96-7.58-7.9-13.9,5.06-29.07,5.06-33.18-18.01-4.11-23.07,16.43-25.28,76.47-21.8ZM176.27,751.33c-6.95,3.48-13.9,10.43-5.37,22.12,8.53,11.69,15.8,8.22,23.07,22.75,6,12.01,12.01,12.96,16.43,12.01,4.42-.95,9.16-3.16,3.79-16.43-3.16-7.9-12.32-34.44-17.7-37.29-5.69-3.16-13.59-6.32-20.22-3.16Z"/>
      <path class="cls-1" d="M199.97,437.55c4.42,3.79,6.32,11.06,8.85,19.91,10.11,1.9,17.7,6.95,18.01,20.54.32,19.28.63,48.35,1.58,68.25.63,11.69-8.85,32.55-29.7,31.28-23.07-1.26-40.45,5.69-60.99,6.64-20.54.95-22.12-8.53-31.6-6-18.33,4.74-24.65,9.48-101.43,5.37-8.85.32-.95-6-.63-9.8.32-3.79-6.32-9.48.32-9.48,14.22,0,8.22-1.58,7.58-15.48-.63-13.9,14.85-61.93,45.82-82.79,30.65-20.86,62.88-33.18,86.27-35.39s47.72-.32,55.93,6.95ZM193.34,473.89c-15.8.63-20.22,7.9-16.75,16.75,3.48,8.85,7.9,21.49,6.64,36.34-1.58,17.06-21.49,26.86-50.88,28.76-13.59.95-11.38,13.59-.32,12.64,11.06-.95,40.45-5.37,55.93-7.9,15.48-2.53,28.12,1.58,23.07-21.49-5.37-24.02,4.42-33.81,1.26-46.14s-3.16-19.59-18.96-18.96ZM146.25,446.71c-36.97,5.69-53.72,15.17-59.41,21.49-5.69,6.32-6.95,12.32,3.79,12.64,10.74.32,25.91-5.37,36.02,1.58,10.11,6.95,15.48,17.7-1.26,33.81-16.75,16.12-33.18,19.59-47.08,12.96-13.59-6.64-2.21-22.75-.95-28.12,1.26-5.37-12.32-11.06-20.54-3.48s-22.12,32.55-22.12,50.24,18.01,18.33,29.07,18.96c11.06.63,23.7.32,30.34-.32s12.96-3.79,13.27-10.43c.32-6.64,9.48-14.85,29.7-14.54s32.23-10.43,30.97-26.54c-1.26-16.12-18.96-25.91-10.74-47.08,6.64-16.75,17.38-14.22,29.07-12.32-3.79-7.9-13.9-12.96-40.13-8.85Z"/>
      <path class="cls-1" d="M50.19,256.48c26.23,8.85,64.46,10.74,87.53,11.06,22.75.32,64.46,1.58,80.89,22.75s15.17,59.09,6.32,76.15c-8.85,17.06-27.81,22.75-42.34,27.18-14.85,4.42-6.32-4.42-7.27-7.27-.95-2.84-9.48-8.22,2.53-10.74,12.01-2.53,28.44-5.37,33.18-23.7,6-23.38-.32-38.24-6.95-47.4-5.69-7.58-15.17-12.96-23.07-15.48-8.22-1.9-10.43,9.79,3.48,18.33,14.22,8.85,24.02,19.27,15.48,34.13-8.53,14.85-17.7,9.8-23.38,3.48-6-6.64-15.17-10.74-25.28-9.8-10.43.95-27.49-11.06-17.7-22.12,10.11-11.38,23.7-8.53,23.07-17.7-.63-8.85-.95-11.06-13.9-11.69-22.12-.95-54.67-4.42-86.58-10.74-19.59-3.79-14.54,7.9-3.16,9.8,20.86,3.48,37.6,5.06,45.82,18.96h2.21c22.12,1.26,21.17,17.7,18.64,34.44-2.53,16.43-18.33,25.91-29.39,36.97-7.9,7.9-18.96,16.43-35.39,22.75-26.23,10.11-33.81,10.43-38.87-1.58-5.37-12.64,10.74-24.96,20.86-31.92,9.8-6.95,21.8-13.9,33.5-38.24,3.48-7.58,8.85-13.59,14.85-17.38-5.37-7.27-24.96-7.9-46.77-12.32-29.07-5.69-19.59-48.35,11.69-37.92ZM88.43,329.16c-6,8.22-6.95,14.22-22.44,29.39-9.79,9.48-26.23,15.48-20.86,22.75,2.53,3.48,11.38-1.26,22.12-8.22,12.32-7.9,24.02-23.07,28.12-29.7,6.95-11.38,1.58-25.91-6.95-14.22Z"/>
      <path class="cls-1" d="M389.02,1228.79c-61.93-1.9-91.95-12.96-96.69-42.03-4.74-29.07,10.43-51.51,2.53-61.62-7.9-10.11-29.39-11.69-53.4-3.79-24.02,7.9-24.96,4.42-33.18,6s1.9-9.48-.32-13.9-9.48-10.43,1.58-10.43,31.6-5.37,48.35-5.37,37.92-2.21,53.72,2.21c15.17,4.11,27.81,14.54,32.86,34.44,5.06,19.91,11.06,26.86,27.81,29.39,16.75,2.53,46.77,6.32,54.04,30.34s-6.64,35.71-37.29,34.76ZM213.64,1220.89c-28.12,0-22.75-28.76-4.11-32.86,12.96-3.16,25.91-11.38,36.34-22.12,10.43-11.06,23.07-6.64,32.86,5.06,9.8,12.32,12.96,22.12-7.9,36.02-20.86,13.9-30.02,7.9-37.92,9.16-7.9,1.26-10.11,4.74-19.28,4.74ZM392.18,1208.89c21.49.63,18.64-16.43,4.11-20.22-14.22-3.79-49.29-8.22-56.25-21.17-7.27-13.59-8.53-29.07-12.96-39.82-4.42-11.06-18.33-4.11-15.8,12.64,2.53,16.75-5.69,33.5-.95,44.87,4.74,11.69,30.02,20.86,43.61,21.8,13.59.95,25.6,1.58,38.24,1.9ZM264.2,1192.46c10.74-6.64.32-20.54-10.74-12.01-10.74,8.53-23.07,11.69-32.55,14.22-9.8,2.53-12.01,12.01,2.21,9.48,7.27-1.26,23.07-1.58,28.44-4.11,6.32-2.84,10.11-6,12.64-7.58ZM407.66,1141.58c10.11,2.53,18.64-1.58,22.44-12.96,3.79-10.43,4.11-25.6-5.69-31.6-8.22-5.69-35.71,15.48-54.04,15.48-28.12,0-28.44,26.54-8.53,26.54,27.18,0,33.5-.63,45.82,2.53ZM376.38,1127.68c-12.01,2.21-12.32-5.37,1.58-7.27,14.22-1.9,30.65-11.69,38.24-10.11,7.58,1.26,4.42,17.06-5.69,17.06s-21.17-.95-34.13.32Z"/>
      <path class="cls-1" d="M269.57,902.06c9.8,6,61.94-22.12,91.64-15.48,29.07,6,62.57,30.65,61.3,60.99-.95,22.75-31.28,33.5-49.61,38.24-26.86,6.32-41.08.95-70.15,3.79-11.06.95-18.96,3.48-25.6,5.69.63,4.74-1.58,7.27-7.58,11.69-8.22,5.69-26.86,1.58-40.45-2.53-13.9-4.11-17.06-18.64-11.69-27.18s5.69-14.22,24.96-12.64c15.8,1.26,24.33,3.16,30.02,15.8,9.16-3.48,17.38-7.9,28.75-8.53,14.85-.63,26.23-1.26,40.76.63,19.91,2.53,10.43-7.58-12.32-11.06-23.38-3.79-25.28-15.48-9.48-21.49,15.17-6,28.12-11.69,47.4-8.53,18.96,2.84,15.17,18.33,5.37,27.81-9.8,9.16,22.44,4.74,29.7-11.69,6.32-14.22-18.64-35.71-42.66-39.18-30.02-4.42-71.1,12.32-85.32,18.33q-.32.32-.63.32c-9.48,4.74-29.39,1.58-51.19-2.84-12.01-2.53-27.81-19.59-19.59-36.66,11.06-25.28,27.18-20.86,45.82-1.9,7.9,7.9,14.85,12.64,20.54,16.43ZM247.77,993.06c3.79,0,11.06,0,10.43-3.48-.63-3.48,0-6.95-11.69-6.64-12.01-.32-7.58,10.11,1.26,10.11ZM237.98,899.21c-10.74-6.95-20.54,8.53.32,12.01,26.23,4.11,10.11-5.69-.32-12.01Z"/>
      <path class="cls-1" d="M358.37,657.8c20.54,2.53,51.51,35.71,61.3,57.83,9.8,22.12-.32,51.19-13.59,59.09-.95.63-1.9.95-2.84,1.26-5.06,13.27-11.38,22.44-28.44,35.08-13.59,10.11-50.56,8.53-74.26-.95-12.01,14.22-35.39,3.16-51.51-9.16-17.38-13.27-37.29-37.29-42.03-56.56-5.37-22.44,0-43.61,4.74-57.51,12.32-36.02,48.35-20.54,40.45,7.27-7.9,27.81-5.37,47.71,20.86,68.57,18.96,15.17,31.92,21.17,33.18,30.97l19.59,6.64c15.8,4.42,30.65,2.21,42.34-4.42,8.53-5.06,13.9-13.9,17.06-20.22-7.27-3.16-13.59-10.11-17.06-20.54-6.32-19.59,5.69-34.44-7.27-42.66-13.27-8.22-13.9,3.79-5.06,12.32,9.16,8.53,1.9,40.76-18.64,37.6-29.39-4.42-50.56-16.12-50.56-40.45,0-12.96,21.17-15.17,28.75-13.59,7.9,1.26,6-8.53,2.21-8.53-3.48,0-10.43.63-19.59-4.42-8.85-4.74-12.32-23.07,5.06-31.28,17.7-8.22,35.08-8.85,55.3-6.32ZM278.11,785.78c-8.85-5.69-24.02-15.17-33.81-30.65-7.58-12.01-11.38-31.28-8.85-44.55,2.84-14.85-8.53-23.7-12.32-2.84-3.79,20.86,0,38.55,8.85,53.09,7.58,12.64,27.81,29.7,39.5,36.34,15.17,8.53,18.64-3.79,6.64-11.38ZM329.3,673.28c-17.38,2.21-13.27,13.59.63,12.64,13.9-1.26,30.65,3.16,40.13,10.74,9.16,7.27,11.69,18.33,9.8,45.5-.63,11.06,10.11,18.01,17.38,18.01s17.06-14.54,12.32-36.34c-2.53-11.38-20.54-30.97-32.55-39.5-11.69-8.53-26.86-13.9-47.71-11.06Z"/>
      <path class="cls-1" d="M389.02,578.8c-61.93-1.9-91.95-12.96-96.69-42.03s10.43-51.51,2.53-61.62c-7.9-10.11-29.39-11.69-53.4-3.79s-24.96,4.42-33.18,6c-8.22,1.58,1.9-9.48-.32-13.9s-9.48-10.43,1.58-10.43,31.6-5.37,48.35-5.37,37.92-2.21,53.72,2.21c15.17,4.11,27.81,14.54,32.86,34.44,5.06,19.91,11.06,26.86,27.81,29.39,16.75,2.53,46.77,6.32,54.04,30.34,7.27,24.02-6.64,35.71-37.29,34.76ZM213.64,570.9c-28.12,0-22.75-28.76-4.11-32.86,12.96-3.16,25.91-11.38,36.34-22.12,10.43-11.06,23.07-6.64,32.86,5.06,9.8,12.32,12.96,22.12-7.9,36.02-20.86,13.9-30.02,7.9-37.92,9.16-7.9,1.26-10.11,4.74-19.28,4.74ZM392.18,558.89c21.49.63,18.64-16.43,4.11-20.22-14.22-3.79-49.29-8.22-56.25-21.17-7.27-13.59-8.53-29.07-12.96-39.81-4.42-11.06-18.33-4.11-15.8,12.64,2.53,16.75-5.69,33.5-.95,44.87,4.74,11.69,30.02,20.86,43.61,21.8s25.6,1.58,38.24,1.9ZM264.2,542.46c10.74-6.64.32-20.54-10.74-12.01-10.74,8.53-23.07,11.69-32.55,14.22-9.8,2.53-12.01,12.01,2.21,9.48,7.27-1.26,23.07-1.58,28.44-4.11,6.32-2.84,10.11-6,12.64-7.58ZM407.66,491.58c10.11,2.53,18.64-1.58,22.44-12.96,3.79-10.43,4.11-25.6-5.69-31.6-8.22-5.69-35.71,15.48-54.04,15.48-28.12,0-28.44,26.54-8.53,26.54,27.18,0,33.5-.63,45.82,2.53ZM376.38,477.68c-12.01,2.21-12.32-5.37,1.58-7.27,14.22-1.9,30.65-11.69,38.24-10.11,7.58,1.26,4.42,17.06-5.69,17.06s-21.17-.95-34.13.32Z"/>
      <path class="cls-1" d="M240.19,303.89c-4.42,26.54,20.22,41.4,33.5,38.55,15.48-3.16,26.86-12.64,20.86-20.54-6-7.9-20.22-7.27-11.69-33.18,8.53-25.91,25.59-13.9,28.75-8.85,3.16,5.06,8.53.63,8.85-2.21.32-2.84,12.01-6.95,15.17,6.32,3.16,13.27-3.79,35.71,4.74,45.19,8.53,9.48,15.17,8.85,19.91,10.11,4.74,1.26,7.9-3.48,2.53-6.95s-8.85-19.59,5.69-24.65c14.54-5.06,24.96,1.9,30.34,10.74s1.26,10.11-1.26,13.9c-2.53,3.79,5.06,7.27,9.48,3.79s2.53-6,4.11-26.54c1.58-20.86-10.74-53.09-16.12-56.88-5.37-3.79-12.01-1.9-14.22-10.11-1.9-6.95,7.58-6,9.8-6.95s3.79-9.16,9.16-8.53c5.37.63,6.64,6.64,12.96,18.33,3.16,6,14.22,28.12,15.8,60.36.63,13.59,0,39.18-8.53,47.08-12.01,11.38-26.54,8.22-42.34,7.58s-39.82-2.84-49.93-12.96c-10.11-10.11-3.79-20.86-8.53-21.17-3.79-.32-5.37,24.33-22.44,30.97-17.06,6.64-51.19,12.01-67.94-11.69-7.27-10.43-21.8-30.97-9.16-60.67-8.85-11.38-17.06-27.81-4.74-40.76,8.85-9.16,6-10.11,18.64-20.86,12.32-10.74,27.49-3.16,33.81,6.64,6,9.16-9.8,29.39-12.32,37.29-2.53,7.58,3.48,30.33-3.48,37.29-2.53,2.53-6.64,1.58-11.38-.63ZM377.33,328.53c16.43-.32,7.58-10.43-.95-8.22-6.95,1.9-7.27,7.9.95,8.22ZM238.61,283.66c4.42-3.16-1.9-9.48,4.42-20.54,6-10.74,5.37-18.96-1.26-22.44-6.64-3.48-10.74,6.32-16.12,16.43-7.58,14.54,8.22,29.7,12.96,26.54Z"/>
      <path class="cls-1" d="M251.25,28.02c3.79,3.16,15.48,3.16-1.58,23.38-12.32,14.54,10.74,17.06,36.66,7.27,25.91-9.79,20.22-43.61,60.67-55.61,33.5-9.8,55.62,10.43,72.68,30.02,17.7,20.54,24.96,49.29,18.33,70.47-6.32,20.54-23.07,46.77-46.77,55.93s-18.64.95-21.49-6.64c-2.84-7.58-7.27-7.9,10.11-14.22s34.13-18.64,39.5-42.97c2.84-12.64-6-21.8-11.38-12.32-6,10.43-1.26,16.43-14.22,26.54-14.22,11.06-39.5-3.16-50.56-20.22-7.27-11.38,6.32-48.03,24.02-50.24,18.01-1.9,20.54,7.9,32.55,22.12,3.79,4.74,13.59,8.85,11.38-2.53-1.58-7.27-11.06-22.75-22.75-29.07-31.6-17.06-73.63,2.53-61.62,48.66,3.16,12.01,12.32,55.93-35.08,66.99-47.4,11.06-74.89-13.27-81.84-49.93-6.95-36.34,10.74-51.19,30.65-75.84,5.69-6.95,6.95,5.06,10.74,8.22ZM305.28,115.55c14.54-21.17,7.58-49.3-8.85-42.03-17.7,7.9-33.5,17.06-54.98,4.42-20.86-12.32-19.59,16.43-2.53,38.24,14.22,18.01,55.62,14.85,66.36-.63ZM389.34,73.84c-4.11-6.95-11.69-18.33-20.22-16.75-12.32,2.21-23.38,21.49-.63,37.6,12.01,8.53,30.97-3.79,20.86-20.86Z"/>
    </g>
  </g>
</svg>