<?xml version="1.0" encoding="UTF-8"?>
<svg id="Layer_2" data-name="Layer 2" xmlns="http://www.w3.org/2000/svg" viewBox="0 0 453.79 1235.72">
  <defs>
    <style>
      .cls-1 {
        stroke: #fff;
        stroke-width: .8px;
      }
    </style>
  </defs>
  <g id="Home_Page_Text_copy_2" data-name="Home Page Text copy 2">
    <g id="Lovelace_Script" data-name="Lovelace Script">
      <path class="cls-1" d="M234.08,1174.91c-1.18,7.86-1.77,13.75-1.77,17.68,0,3.28,1.18,6.14,3.54,8.59,2.36,2.46,6.19,5.08,11.49,7.86.59.33.93.82,1.03,1.47.1.66-.25.9-1.03.74l-101.66-13.26c-.78-.16-1.13-.45-1.03-.86.1-.41.44-.7,1.03-.86,30.06-.98,51.96-6.75,65.71-17.31,13.75-10.56,20.63-23.86,20.63-39.9,0-7.69-1.62-14.73-4.86-21.12-3.24-6.38-7.61-11.38-13.11-14.98-5.5-3.6-11.49-5.4-17.98-5.4-5.3,0-10.31,1.88-15.03,5.65-4.71,3.77-9.38,9.09-14,15.96-4.61,6.88-10.46,16.62-17.53,29.22-5.5,9.82-10.36,17.35-14.59,22.59-4.22,5.24-8.99,9.13-14.29,11.66-5.3,2.54-11.79,3.81-19.45,3.81-15.13,0-28.73-3.52-40.81-10.56-12.08-7.04-21.61-17.11-28.58-30.2-6.97-13.1-10.46-28.32-10.46-45.67,0-7.86.79-17.02,2.36-27.5,1.18-7.86,1.77-13.26,1.77-16.21,0-3.76-1.08-6.67-3.24-8.72-2.16-2.04-4.42-3.68-6.78-4.91-2.36-1.23-4.02-2.09-5.01-2.58-.78-.33-1.13-.74-1.03-1.23.1-.49.44-.74,1.03-.74l98.13,13.01c.79.33,1.18.74,1.18,1.23s-.39.74-1.18.74c-16.3,1.8-30.74,5.32-43.32,10.56-12.57,5.24-22.29,11.58-29.17,19.03-6.87,7.45-10.31,15.35-10.31,23.7,0,6.55,1.62,12.61,4.86,18.17,3.24,5.57,7.56,9.95,12.97,13.14,5.41,3.19,11.05,4.79,16.94,4.79,6.29,0,11.35-1.35,15.18-4.05,3.83-2.7,7.42-6.75,10.76-12.16,3.34-5.4,8.65-15.22,15.91-29.47,7.86-15.22,16.31-26.4,25.34-33.52,9.04-7.12,18.86-10.68,29.47-10.68,15.32,0,29.03,4.79,41.11,14.37,12.08,9.58,21.47,21.49,28.14,35.73,6.68,14.24,10.02,27.99,10.02,41.25,0,10.15-.79,20.47-2.36,30.94Z"/>
      <path class="cls-1" d="M231.57,869.31c.88-.25,1.33-.04,1.33.61,0,4.91-.2,9.82-.59,14.73-.2,1.64-.29,3.6-.29,5.89v64.83c0,3.11.1,5.65.29,7.61.39,6.22.59,12.28.59,18.17,0,.49-.29.74-.88.74-1.18,0-1.77-.49-1.77-1.47-.78-17.68-19.74-26.52-56.87-26.52l.59.25.29,34.38-.29,32.42c5.3,3.28,10.95,5.81,16.94,7.61,6,1.8,11.74,2.7,17.24,2.7,6.48,0,11.74-1.31,15.76-3.93,4.03-2.62,6.14-6.54,6.34-11.79,0-.82.44-1.35,1.33-1.6.88-.25,1.33.04,1.33.86,0,6.55-.2,15.22-.59,26.03-.2,3.6-.29,7.61-.29,12.03v4.91c0,2.46.1,4.75.29,6.88.39,6.54.59,11.87.59,15.96,0,.49-.44.65-1.33.49-.88-.17-1.33-.49-1.33-.98-.19-5.73-6.23-14.2-18.12-25.42-11.88-11.21-24.02-20.91-36.39-29.1l-99.31-64.58c-14.73,1.8-27.8,4.09-39.19,6.88-.19,0-.54.04-1.03.12-.49.08-.83-.2-1.03-.86-2.55-10.8-7.12-22.26-13.7-34.38-6.58-12.11-13.41-20.95-20.48-26.52-.39-.16-.59-.41-.59-.74s.2-.57.59-.74l163.84-8.84c23.38-1.31,40.03-4.17,49.95-8.59,9.92-4.42,15.08-9.98,15.47-16.7,0-.65.44-1.11,1.33-1.35ZM169.84,953.91l-6.19.25c-34.57,1.47-61.68,3.44-81.33,5.89l87.52,58.2-.29-31.19.29-33.15Z"/>
      <path class="cls-1" d="M162.77,813.2c6.68,1.96,13.85,2.95,21.51,2.95,12.38,0,23.09-2.33,32.12-7,9.04-4.67,13.66-11.09,13.85-19.28,0-.82.44-1.39,1.33-1.72.88-.33,1.33,0,1.33.98,0,7.21-.2,16.7-.59,28.49-.2,3.93-.29,8.43-.29,13.51v4.42c0,3.44.1,6.55.29,9.33.39,8.51.59,15.55.59,21.12,0,.65-.4.86-1.18.61-.78-.25-1.18-.7-1.18-1.35-.19-5.24-3.44-11.01-9.72-17.31-6.29-6.3-14.04-12.16-23.28-17.56-9.23-5.4-17.98-9.33-26.23-11.79l-88.99-26.52c-10.61-3.27-19.74-4.91-27.41-4.91-9.82,0-16.8,2.38-20.92,7.12-4.13,4.75-6.29,10.8-6.48,18.17,0,.98-.44,1.6-1.33,1.84-.88.25-1.33-.12-1.33-1.11,0-6.38.2-12.36.59-17.93.2-1.8.29-4.17.29-7.12v-61.64l120.23-66.06-50.68-15.96c-6.88-1.96-14.04-2.95-21.51-2.95-12.18,0-22.88,2.38-32.12,7.12-9.23,4.75-13.95,11.13-14.14,19.15,0,.98-.44,1.6-1.33,1.84-.88.25-1.33-.04-1.33-.86,0-7.37.2-16.94.59-28.73.2-3.93.29-8.35.29-13.26v-4.42c0-3.44-.1-6.55-.29-9.33-.39-8.51-.59-15.55-.59-21.12,0-.65.4-.86,1.18-.61.79.25,1.18.7,1.18,1.35.2,5.24,3.44,11.01,9.72,17.31,6.29,6.3,14.05,12.16,23.28,17.56,9.24,5.4,17.98,9.33,26.23,11.79l144.98,43.71c.78.17,1.22.53,1.33,1.1.1.58-.15,1.02-.74,1.35l-167.08,97.49,97.83,30.2Z"/>
      <path class="cls-1" d="M232.31,625.59c.39,5.56.59,11.54.59,17.93,0,.33-.1.61-.29.86-.2.25-.4.37-.59.37-.39,0-.78-.17-1.18-.49-.39-.33-.59-.82-.59-1.47-.19-5.89-1.81-10.85-4.86-14.86-3.04-4.01-8.4-7.9-16.06-11.66-7.66-3.76-18.96-7.94-33.89-12.52l-104.32-31.68c-8.84-2.78-16.5-4.17-22.98-4.17-7.27,0-12.47,1.68-15.62,5.03-3.14,3.36-4.81,7.57-5.01,12.65,0,.66-.34,1.07-1.03,1.23-.69.17-1.03-.08-1.03-.74l.29-12.52c.2-1.31.29-3.03.29-5.16l-.29-81.53c-.19-13.75,2.21-27.13,7.22-40.15,5.01-13.01,12.92-23.78,23.72-32.29,10.81-8.51,24.27-12.77,40.37-12.77,24.95,0,47.74,6.96,68.37,20.87,20.63,13.92,36.88,31.8,48.77,53.66,11.89,21.85,17.83,43.83,17.83,65.93v76.37c0,2.95.1,5.32.29,7.12ZM202.25,503.91c-16.89-15.63-37.13-27.58-60.7-35.85-23.57-8.26-44.39-12.4-62.47-12.4-15.12,0-27.01,3.6-35.66,10.8-8.64,7.21-12.97,18.83-12.97,34.87v.74c6.09,2.79,12.72,5.4,19.89,7.86,7.17,2.46,17.53,5.73,31.09,9.82l95.18,28.73c12.58,3.93,22.64,6.88,30.21,8.84,7.56,1.96,14.49,3.44,20.77,4.42v-3.19c0-20.79-8.44-39-25.34-54.64Z"/>
      <path class="cls-1" d="M26.18,208.87c.88.17,1.33.49,1.33.98.2,5.73,6.14,14.29,17.83,25.66,11.69,11.38,23.62,21.33,35.8,29.83l75.14,51.32,13.55,4.17c12.18,3.6,22.2,5.4,30.06,5.4,10.81,0,18.47-2.62,22.98-7.86,4.52-5.24,6.88-11.87,7.07-19.89,0-1.14.49-1.88,1.47-2.21.98-.33,1.47.08,1.47,1.23,0,7.21-.2,13.75-.59,19.64-.2,1.96-.29,4.58-.29,7.86v68.02c0,3.6.1,6.47.29,8.59.39,6.55.59,13.75.59,21.61,0,.82-.4,1.23-1.18,1.23-1.18,0-1.77-.74-1.77-2.21-.19-7.04-1.96-13.01-5.3-17.93-3.34-4.91-9.28-9.58-17.83-14-8.55-4.42-20.97-9.09-37.28-14l-8.84-2.7-68.66,9.58c-23.38,3.44-39.88,7.33-49.51,11.66-9.62,4.34-14.63,9.37-15.03,15.1,0,.49-.44.82-1.33.98-.88.17-1.33,0-1.33-.49,0-4.26.2-8.51.59-12.77.2-1.31.29-3.03.29-5.16v-66.3c0-3.11-.1-5.65-.29-7.61l-.29-18.17c0-.82.35-1.1,1.03-.86.69.25,1.03.78,1.03,1.6.2,7.53,3.44,13.59,9.72,18.17,6.29,4.58,16.6,6.88,30.94,6.88,4.12,0,8.74-.25,13.85-.74l70.72-6.88-68.66-47.64c-5.3-3.6-11.05-6.38-17.24-8.35-6.19-1.96-12.03-2.95-17.53-2.95-6.29,0-11.39,1.27-15.32,3.81-3.93,2.54-5.99,6.43-6.19,11.66,0,.82-.44,1.35-1.33,1.6-.88.25-1.33-.04-1.33-.86,0-6.55.2-15.23.59-26.03.2-3.6.29-7.61.29-12.03v-5.4c0-2.78-.1-5.24-.29-7.37-.39-6.54-.59-11.7-.59-15.47,0-.65.44-.9,1.33-.74Z"/>
      <path class="cls-1" d="M230.74,952.43c.4,0,.79.16,1.18.49.4.33.59.74.59,1.23.2,5.57,1.82,10.28,4.86,14.12,3.05,3.85,8.4,7.57,16.06,11.17,7.66,3.6,18.86,7.7,33.59,12.28l104.91,31.92c9.24,2.62,16.8,3.93,22.69,3.93,13.56,0,20.53-5.81,20.92-17.44,0-.82.34-1.31,1.03-1.47.69-.16,1.03.17,1.03.98l-.29,12.28c-.2,1.31-.29,3.03-.29,5.16v62.86c0,2.95.1,5.24.29,6.88.39,5.24.59,10.89.59,16.94,0,.66-.29.98-.88.98-.39,0-.78-.16-1.18-.49-.39-.33-.59-.74-.59-1.23-.19-5.56-1.81-10.27-4.86-14.12-3.04-3.84-8.4-7.57-16.06-11.17-7.66-3.6-18.86-7.69-33.59-12.28l-47.44-14.49.29,32.66-.29,32.66,58.64,17.93c9.24,2.62,16.8,3.93,22.69,3.93,13.56,0,20.53-5.81,20.92-17.43,0-.82.34-1.31,1.03-1.47.69-.16,1.03.17,1.03.98l-.29,12.28c-.2,1.31-.29,3.03-.29,5.16v62.86c0,2.95.1,5.24.29,6.88.39,5.24.59,10.88.59,16.94,0,.65-.29.98-.88.98-.39,0-.78-.17-1.18-.49-.39-.33-.59-.74-.59-1.23-.19-5.57-1.81-10.28-4.86-14.12-3.04-3.84-8.4-7.57-16.06-11.17-7.66-3.6-18.86-7.69-33.59-12.28l-104.91-31.92c-9.23-2.62-16.8-3.93-22.69-3.93-13.56,0-20.53,5.81-20.92,17.43,0,.66-.34,1.07-1.03,1.23-.69.17-1.03-.08-1.03-.74l.29-12.28c.2-1.31.29-3.03.29-5.16v-62.86c0-2.95-.1-5.24-.29-6.88-.39-5.24-.59-10.88-.59-16.94,0-.65.29-.98.88-.98.4,0,.79.17,1.18.49.4.33.59.74.59,1.23.2,5.57,1.82,10.28,4.86,14.12,3.05,3.85,8.4,7.57,16.06,11.17,7.66,3.6,18.86,7.7,33.59,12.28l42.14,12.77-.29-32.9.29-32.42-53.34-16.21c-9.23-2.62-16.8-3.93-22.69-3.93-13.56,0-20.53,5.81-20.92,17.43,0,.66-.34,1.07-1.03,1.23-.69.17-1.03-.08-1.03-.74l.29-12.28c.2-1.31.29-3.03.29-5.16v-62.86c0-2.95-.1-5.24-.29-6.88-.39-5.24-.59-10.89-.59-16.94,0-.65.29-.98.88-.98Z"/>
      <path class="cls-1" d="M426.56,937.82c-8.74,13.18-23.62,19.77-44.64,19.77-11.2,0-24.46-2.29-39.78-6.88l-61-18.66c-10.61-3.11-19.45-4.67-26.52-4.67-7.85,0-13.5,1.68-16.94,5.03-3.43,3.36-5.25,7.49-5.45,12.4,0,.66-.39,1.07-1.18,1.23-.78.17-1.18-.08-1.18-.74,0-4.42.2-8.59.59-12.52.2-1.31.29-3.03.29-5.16v-63.85c0-2.95-.1-5.32-.29-7.12-.39-5.56-.59-11.54-.59-17.93,0-.33.1-.61.29-.86.2-.25.4-.37.59-.37.4,0,.79.17,1.18.49.4.33.59.82.59,1.47.2,5.89,1.82,10.85,4.86,14.86,3.05,4.01,8.4,7.9,16.06,11.66,7.66,3.77,18.96,7.94,33.89,12.52l55.1,16.7,7.07,2.21c10.81,3.44,20.33,6.18,28.58,8.23,8.25,2.05,16.01,3.07,23.28,3.07,20.04,0,30.06-10.23,30.06-30.7,0-11.46-3.83-22.59-11.49-33.4-7.66-10.8-18.27-20.46-31.83-28.98-13.56-8.51-28.88-15.31-45.97-20.38l-42.14-13.26c-6.87-1.96-14.04-2.95-21.51-2.95-12.38,0-23.08,2.33-32.12,7-9.03,4.67-13.65,11.09-13.85,19.28,0,.82-.44,1.39-1.33,1.72-.88.33-1.33,0-1.33-.98,0-7.2.2-16.7.59-28.49.2-3.93.29-8.43.29-13.51v-4.67c0-3.11-.1-5.89-.29-8.35l-.29-18.17c0-.65.35-.9,1.03-.74.69.17,1.03.58,1.03,1.23,0,4.58,2.85,9.66,8.54,15.22,5.7,5.57,12.62,10.72,20.78,15.47,8.15,4.75,15.87,8.19,23.13,10.31l56.58,16.7c19.45,5.89,36.59,13.84,51.42,23.82,14.83,9.99,26.37,21.24,34.62,33.76s12.38,25.42,12.38,38.68c0,20.47-4.37,37.29-13.11,50.46Z"/>
      <path class="cls-1" d="M431.86,743.95c-5.79,11.46-14.04,20.3-24.75,26.52-10.71,6.22-23.33,9.33-37.87,9.33-22.2,0-44.39-6.1-66.6-18.29-22.2-12.19-40.42-28.65-54.66-49.36-14.24-20.71-21.36-43.1-21.36-67.16,0-10.8.88-21.77,2.65-32.91.79-5.89,1.18-9.82,1.18-11.79,0-4.91-1.28-8.92-3.83-12.03-2.55-3.11-6.28-6.05-11.2-8.84-.78-.65-1.18-1.19-1.18-1.6s.4-.53,1.18-.37l104.91,16.7c.59.17.88.45.88.86s-.29.7-.88.86c-18.66.49-34.77,3.28-48.33,8.35-13.56,5.08-23.77,11.38-30.65,18.91-6.87,7.53-10.31,15.31-10.31,23.33,0,13.75,9.19,26.69,27.55,38.8,18.37,12.12,40.13,21.82,65.27,29.1,25.15,7.29,46.46,10.93,63.94,10.93,14.73,0,26.42-2.74,35.07-8.23,8.65-5.48,12.97-14.28,12.97-26.4,0-3.44-.44-6.91-1.33-10.44-.88-3.52-2.31-8.39-4.27-14.61l-31.24-9.58c-10.41-3.11-19.15-4.67-26.23-4.67-18.86,0-28.68,10.31-29.47,30.94,0,1.15-.44,1.88-1.33,2.21-.88.33-1.33-.08-1.33-1.23,0-7.86.2-15.06.59-21.61.2-2.13.29-4.99.29-8.59v-61.39c0-2.46-.1-4.34-.29-5.65-.39-4.58-.59-9.33-.59-14.24,0-.65.29-.98.88-.98,1.18,0,1.77.49,1.77,1.47.2,4.59,1.82,8.47,4.86,11.66,3.05,3.19,8.3,6.38,15.76,9.58,7.47,3.19,18.67,7.08,33.59,11.66l45.97,14c.59.17.93.49,1.03.98.1.49-.25.74-1.03.74-3.14,0-6.39,1.39-9.72,4.17-3.34,2.79-5.01,6.71-5.01,11.79,0,6.38,1.77,15.8,5.3,28.24,2.16,8.84,3.78,16,4.86,21.49,1.08,5.49,1.62,11.26,1.62,17.31,0,15.23-2.9,28.57-8.69,40.03Z"/>
      <path class="cls-1" d="M230.74,326.75c.4,0,.79.17,1.18.49.4.33.59.74.59,1.23.2,5.57,1.82,10.28,4.86,14.12,3.05,3.85,8.4,7.57,16.06,11.17,7.66,3.6,18.86,7.7,33.59,12.28l104.91,31.92c9.24,2.62,16.8,3.93,22.69,3.93,13.56,0,20.53-5.81,20.92-17.44,0-.82.34-1.31,1.03-1.47.69-.16,1.03.17,1.03.98l-.29,12.28c-.2,1.31-.29,3.03-.29,5.16v62.86c0,2.95.1,5.24.29,6.88.39,5.24.59,10.89.59,16.94,0,.66-.29.98-.88.98-.39,0-.78-.16-1.18-.49-.39-.33-.59-.74-.59-1.23-.19-5.56-1.81-10.27-4.86-14.12-3.04-3.84-8.4-7.57-16.06-11.17-7.66-3.6-18.86-7.69-33.59-12.28l-47.44-14.49.29,32.66-.29,32.66,58.64,17.93c9.24,2.62,16.8,3.93,22.69,3.93,13.56,0,20.53-5.81,20.92-17.44,0-.82.34-1.31,1.03-1.47.69-.16,1.03.17,1.03.98l-.29,12.28c-.2,1.31-.29,3.03-.29,5.16v62.86c0,2.95.1,5.24.29,6.88.39,5.24.59,10.89.59,16.94,0,.65-.29.98-.88.98-.39,0-.78-.17-1.18-.49-.39-.33-.59-.74-.59-1.23-.19-5.57-1.81-10.27-4.86-14.12-3.04-3.84-8.4-7.57-16.06-11.17-7.66-3.6-18.86-7.69-33.59-12.28l-104.91-31.92c-9.23-2.62-16.8-3.93-22.69-3.93-13.56,0-20.53,5.81-20.92,17.44,0,.66-.34,1.07-1.03,1.23-.69.17-1.03-.08-1.03-.74l.29-12.28c.2-1.31.29-3.03.29-5.16v-62.86c0-2.95-.1-5.24-.29-6.88-.39-5.24-.59-10.89-.59-16.94,0-.65.29-.98.88-.98.4,0,.79.17,1.18.49.4.33.59.74.59,1.23.2,5.57,1.82,10.28,4.86,14.12,3.05,3.85,8.4,7.57,16.06,11.17,7.66,3.6,18.86,7.7,33.59,12.28l42.14,12.77-.29-32.91.29-32.41-53.34-16.21c-9.23-2.62-16.8-3.93-22.69-3.93-13.56,0-20.53,5.81-20.92,17.44,0,.66-.34,1.07-1.03,1.23-.69.17-1.03-.08-1.03-.74l.29-12.28c.2-1.31.29-3.03.29-5.16v-62.86c0-2.95-.1-5.24-.29-6.88-.39-5.24-.59-10.89-.59-16.94,0-.65.29-.98.88-.98Z"/>
      <path class="cls-1" d="M348.17,168.98c.1-.41.34-.53.74-.37l103.43,50.34c.59.16.83.45.74.86-.1.41-.35.7-.74.86-3.34.98-6.73,3.4-10.17,7.24-3.44,3.85-5.16,9.29-5.16,16.33v114.19c0,2.95.1,5.32.29,7.12.39,5.56.59,11.54.59,17.93,0,.33-.1.61-.29.86-.2.25-.4.37-.59.37-.39,0-.78-.17-1.18-.49-.39-.33-.59-.82-.59-1.47-.19-5.89-1.81-10.85-4.86-14.86-3.04-4.01-8.4-7.9-16.06-11.66-7.66-3.76-18.96-7.94-33.89-12.52l-104.9-31.92c-8.44-2.62-16.01-3.93-22.69-3.93-13.36,0-20.23,5.65-20.63,16.94,0,.66-.34,1.07-1.03,1.23-.69.17-1.03-.08-1.03-.74,0-3.93.1-7.37.29-10.31.2-2.95.29-5.16.29-6.63v-109.28c0-8.18-1.37-15.8-4.13-22.84-2.75-7.04-6.48-12.03-11.2-14.98-.39-.33-.64-.7-.74-1.11-.1-.41.15-.61.74-.61l107.56,12.03c.59.17.88.49.88.98s-.29.82-.88.98c-17.28.98-32.61,4.83-45.97,11.54-13.36,6.71-23.67,15.06-30.94,25.05-7.27,9.99-10.9,20.22-10.9,30.69v3.19l96.36,29.22v-.74c0-17.02-2.6-30-7.81-38.92-5.2-8.92-11.93-14.53-20.19-16.82-1.18-.33-1.77-.94-1.77-1.84s.59-1.19,1.77-.86l66.6,20.14c1.38.49,2.02,1.15,1.92,1.96-.1.82-.74,1.07-1.92.74-2.95-.82-5.5-1.23-7.66-1.23-7.27,0-13.26,3.28-17.98,9.82-4.71,6.55-7.46,16.29-8.25,29.22l96.36,29.22v-2.7c0-7.53-2.95-19.52-8.84-35.97s-15.08-33.56-27.55-51.32c-12.47-17.76-28.24-32.29-47.3-43.59-.59-.49-.83-.94-.74-1.35Z"/>
      <path class="cls-1" d="M439.08,137.18c-1.18,7.86-1.77,13.75-1.77,17.68,0,3.28,1.18,6.14,3.54,8.6,2.36,2.46,6.19,5.08,11.49,7.86.59.33.93.82,1.03,1.47.1.66-.25.9-1.03.74l-101.66-13.26c-.78-.16-1.13-.45-1.03-.86.1-.41.44-.69,1.03-.86,30.06-.98,51.96-6.75,65.71-17.31,13.75-10.56,20.63-23.86,20.63-39.9,0-7.69-1.62-14.73-4.86-21.12-3.24-6.38-7.61-11.38-13.11-14.98-5.5-3.6-11.49-5.4-17.98-5.4-5.3,0-10.31,1.88-15.03,5.65-4.71,3.77-9.38,9.09-14,15.96-4.61,6.88-10.46,16.62-17.53,29.22-5.5,9.82-10.36,17.36-14.59,22.59-4.22,5.24-8.99,9.13-14.29,11.66-5.3,2.54-11.79,3.81-19.45,3.81-15.13,0-28.73-3.52-40.81-10.56-12.08-7.04-21.61-17.11-28.58-30.21-6.97-13.09-10.46-28.32-10.46-45.67,0-7.86.79-17.02,2.36-27.5,1.18-7.86,1.77-13.26,1.77-16.21,0-3.76-1.08-6.67-3.24-8.72-2.16-2.04-4.42-3.68-6.78-4.91-2.36-1.23-4.02-2.09-5.01-2.58-.78-.33-1.13-.74-1.03-1.23.1-.49.44-.74,1.03-.74l98.13,13.01c.79.33,1.18.74,1.18,1.23s-.39.74-1.18.74c-16.3,1.8-30.74,5.32-43.32,10.56-12.57,5.24-22.29,11.58-29.17,19.03-6.87,7.45-10.31,15.35-10.31,23.7,0,6.55,1.62,12.61,4.86,18.17,3.24,5.57,7.56,9.95,12.97,13.14,5.41,3.19,11.05,4.79,16.94,4.79,6.29,0,11.35-1.35,15.18-4.05,3.83-2.7,7.42-6.75,10.76-12.16,3.34-5.4,8.65-15.22,15.91-29.47,7.86-15.22,16.31-26.4,25.34-33.52,9.04-7.12,18.86-10.68,29.47-10.68,15.32,0,29.03,4.79,41.11,14.37,12.08,9.58,21.47,21.49,28.14,35.73,6.68,14.24,10.02,27.99,10.02,41.25,0,10.15-.79,20.47-2.36,30.94Z"/>
    </g>
  </g>
</svg>