<?xml version="1.0" encoding="UTF-8"?>
<svg id="Layer_2" data-name="Layer 2" xmlns="http://www.w3.org/2000/svg" viewBox="0 0 424.93 1206.23">
  <defs>
    <style>
      .cls-1 {
        stroke: #fff;
        stroke-width: .92px;
      }
    </style>
  </defs>
  <g id="Home_Page_Text_copy_2" data-name="Home Page Text copy 2">
    <g id="Pilowlava">
      <path class="cls-1" d="M156.64,1205.77c-15.67,0-33.92-5.64-33.92-21.01,0-12.3,11.68-19.98,23.65-19.98h48.45c13.68,0,20.81-7.69,12.54-23.06l-48.17-89.66c-5.7-10.76-10.26-19.98-20.8-17.42s-11.97,10.5-7.41,19.21l27.93,54.31c12.54,24.34-5.7,40.99-26.22,41.5l-10.83.26c-10.54.26-11.97,4.35-14.54,14.6l-4.28,16.14c-2.85,10.5-14.25,17.42-25.93,17.42-49.59,0-76.67-45.6-76.67-90.69s21.09-88.13,72.39-88.13c20.24,0,34.2,6.92,34.2,22.03,0,9.99-10.83,25.11-33.92,11.27l-18.81-11.27c-5.13-3.07-10.26-2.31-12.25.26-3.13,4.1-2.85,9.48-.86,17.93l26.5,110.41c2.57,11.02,7.98,13.58,13.97,12.81,6.27-.77,8.83-4.1,10.54-12.3l26.22-130.4c2.85-14.6,14.25-21.78,27.93-21.78,39.62,0,79.52,46.37,79.52,105.03s-36.2,82.49-69.25,82.49Z"/>
      <path class="cls-1" d="M137.55,874.79l-100.89-11.02c-15.68-1.79-25.65,5.12-23.37,15.88,2.28,10.76,23.94,19.98,32.77,23.83l70.68,31c18.81,8.2,22.52,22.54,22.52,32.02,0,15.12-13.97,27.41-31.64,27.41-12.25,0-23.37-7.68-33.92-19.47l-45.6-51.49c-19.67-22.29-27.08-31.51-27.08-48.16,0-15.37,12.26-25.87,31.64-29.21l137.08-23.31c31.92-5.38,56.43,3.33,56.43,29.72,0,21.01-14.82,31-32.21,31h-14.82c-15.67,0-17.67,7.43-9.12,16.4l23.94,25.11c11.11,11.78,32.21,30.74,32.21,51.75,0,14.86-9.41,31.51-36.2,31.51-22.8,0-32.21-18.44-32.78-40.99l-1.71-66.09c-.29-14.6-3.42-24.34-17.95-25.87Z"/>
      <path class="cls-1" d="M156.36,807.67h-76.95c-64.12,0-78.38-12.04-78.38-39.45,0-20.24,17.67-31.51,44.46-46.88l105.74-60.71c10.83-6.15,14.82-9.73,14.82-14.35,0-6.4-3.13-9.48-9.4-9.48-5.13,0-11.69,2.05-21.09,5.38l-67.55,23.57c-18.24,6.4-27.36,5.89-34.2,5.89-14.54,0-33.06-6.66-33.06-28.18,0-25.36,27.36-33.05,53.58-30.49l131.96,13.06c27.36,2.82,39.9,11.27,39.9,27.92,0,15.63-12.25,23.57-40.19,41.76l-65.55,42.53c-15.68,10.25-41.04,21.01-64.7,17.68l-16.25-2.31c-14.54-2.05-21.95,5.89-21.95,15.11,0,14.35,11.97,22.8,28.21,22.8,7.98,0,20.81-2.31,27.08-4.61l94.91-34.84c31.64-11.53,58.43-6.4,58.43,21.26,0,33.56-28.5,34.33-69.83,34.33Z"/>
      <path class="cls-1" d="M115.03,403.43c73.25,0,111.15,37.4,110.87,115.54-.29,66.09-68.69,79.42-125.97,54.05l-21.38-9.48c-9.97-4.35-14.25-.51-16.53,11.02-2.85,14.35-13.68,21.01-26.79,21.01-14.82,0-29.93-8.97-29.93-25.87v-88.89c0-55.59,39.9-77.37,109.73-77.37ZM37.8,462.6l13.68,64.04c4.56,21.78,17.39,29.2,36.77,24.34l103.17-26.39c29.36-7.43,23.94-35.87,2.85-43.81l-118.84-44.32c-27.65-10.25-41.89,6.66-37.62,26.13Z"/>
      <path class="cls-1" d="M31.24,204.12c11.68.26,26.79,8.45,39.62,15.63l114.57,62.76c18.81,10.25,40.75,25.11,40.75,43.55,0,37.66-60.99,42.01-60.99,1.28v-24.08c0-17.42-8.55-15.88-14.25-12.04l-117.42,78.9c-10.55,7.17-2.85,16.4,7.69,12.81l33.35-11.53c14.25-4.87,22.23-1.28,25.36,6.92,1.42,3.59-1.71,10.25-9.97,13.06-27.08,9.22-88.92,4.1-88.92-33.3,0-14.6,7.98-21.52,25.94-32.79l82.65-51.49c15.39-9.74,5.42-15.12-3.71-14.86l-76.38,2.05c-39.62,1.02-37.05-57.64,1.71-56.87Z"/>
      <path class="cls-1" d="M226.67,1010.05l158.46,15.37c20.52,2.05,39.04,8.45,39.04,35.87,0,17.16-14.82,26.39-29.36,26.39-9.12,0-19.67-2.05-32.21-14.09l-25.08-23.83c-5.7-5.64-12.25-7.68-16.81-7.68-7.98,0-8.55,9.22-6.27,17.93l21.38,97.35c2.56,11.27,5.7,13.32,9.97,13.32,6.84,0,11.97-6.92,19.67-13.32,9.97-8.2,20.23-12.55,29.35-12.55,16.53,0,29.36,14.86,29.36,30.23s-9.98,28.44-37.05,25.87l-140.5-13.58c-20.52-2.05-47.6-9.22-47.6-36.63,0-17.42,10.83-27.41,26.22-27.41,12.83,0,23.65,6.4,29.35,15.37l18.53,29.21c4.85,7.69,9.12,8.97,14.54,8.97,7.7,0,11.68-6.15,11.68-14.86v-108.88c0-10.5-2.85-16.14-11.12-17.68-9.4-1.79-12.82,3.33-18.81,8.2l-13.96,11.02c-10.26,7.94-19.38,12.55-28.21,12.55-15.68,0-28.22-9.48-28.22-30.23,0-14.6,10.55-28.44,27.65-26.9Z"/>
      <path class="cls-1" d="M261.73,878.12l26.79-29.72c4.85-5.38,2.85-9.99.57-12.04-3.13-2.82-7.98-4.61-14.54.51l-19.09,14.86c-14.54,11.27-21.95,16.91-32.49,16.91-13.68,0-23.94-8.71-23.94-23.31,0-18.45,12.83-25.62,37.62-25.62h106.88c55,0,80.66,29.46,80.66,85.05,0,51.75-34.2,87.1-88.35,87.1h-92.34c-31.63,0-44.46-10.5-44.46-29.97,0-27.41,32.78-34.07,53.01-21.78l51.87,31.51c17.38,10.5,32.78,6.92,41.33-8.2l41.61-72.75c12.54-22.03,10.83-35.61-1.14-43.29s-25.08-1.54-31.92,4.36l-62.99,52.26c-24.79,20.49-51.87-.51-29.07-25.87Z"/>
      <path class="cls-1" d="M308.75,734.15l31.35,41.25c14.54,19.21,49.31,2.31,36.2-17.42l-71.82-108.36c-16.25-24.59-6.56-43.04,16.81-44.06l59.85-2.56c30.78-1.28,43.04,11.27,43.04,30.23s-21.95,34.07-50.73,17.16l-47.02-27.41c-9.12-5.38-15.68,1.02-15.68,6.66,0,4.87.57,8.71,14.25,17.93l60.99,42.01c28.79,19.73,38.19,30.49,38.19,53.54,0,30.23-36.48,58.41-108.59,58.41s-116.57-40.22-116.57-98.37c0-48.67,17.67-80.95,47.88-88.89,26.79-7.17,43.6,27.92,19.95,44.06l-41.61,28.44c-12.25,8.45-18.24,25.1-10.83,40.48,8.55,17.93,30.21,16.91,43.32,7.43l10.54-7.43c13.68-9.73,28.79-8.71,40.47,6.92Z"/>
      <path class="cls-1" d="M226.67,388.57l158.46,15.37c20.52,2.05,39.04,8.45,39.04,35.87,0,17.16-14.82,26.39-29.36,26.39-9.12,0-19.67-2.05-32.21-14.09l-25.08-23.82c-5.7-5.64-12.25-7.69-16.81-7.69-7.98,0-8.55,9.22-6.27,17.93l21.38,97.35c2.56,11.27,5.7,13.32,9.97,13.32,6.84,0,11.97-6.92,19.67-13.32,9.97-8.2,20.23-12.55,29.35-12.55,16.53,0,29.36,14.86,29.36,30.23s-9.98,28.44-37.05,25.87l-140.5-13.58c-20.52-2.05-47.6-9.22-47.6-36.63,0-17.42,10.83-27.41,26.22-27.41,12.83,0,23.65,6.4,29.35,15.37l18.53,29.2c4.85,7.69,9.12,8.97,14.54,8.97,7.7,0,11.68-6.15,11.68-14.86v-108.88c0-10.5-2.85-16.14-11.12-17.68-9.4-1.79-12.82,3.33-18.81,8.2l-13.96,11.02c-10.26,7.94-19.38,12.55-28.21,12.55-15.68,0-28.22-9.48-28.22-30.23,0-14.6,10.55-28.44,27.65-26.9Z"/>
      <path class="cls-1" d="M394.82,195.15c17.96,0,29.64,15.63,29.64,61.48,0,65.58-29.36,121.43-81.23,121.43-25.93,0-39.62-21.78-28.21-46.88l23.37-51.24c5.42-11.78-5.13-16.91-13.11-6.66l-59,76.34c-9.12,11.53-19.38,17.93-29.92,17.93-28.5,0-37.05-30.74-37.05-64.81-.29-34.33,6.27-72.75,13.97-87.61,7.12-13.58,16.25-20.75,32.49-19.98,17.1.77,23.94,12.3,15.39,34.33l-40.75,104.78c-4.85,12.55,6.84,19.47,13.11,19.47,7.12,0,12.83-2.05,17.1-14.09l35.34-99.91c7.98-22.54,21.38-26.13,31.92-26.13,13.68,0,26.79,6.66,29.36,26.13l12.54,91.71c2.28,15.63,7.98,21.52,16.25,21.52s15.67-6.66,14.25-21.52l-11.12-112.72c-2-19.21,6.55-23.57,15.67-23.57Z"/>
      <path class="cls-1" d="M354.64,187.98c-15.68,0-33.92-5.63-33.92-21.01,0-12.3,11.68-19.98,23.65-19.98h48.45c13.68,0,20.81-7.69,12.54-23.06l-48.17-89.66c-5.7-10.76-10.26-19.98-20.8-17.42-10.54,2.56-11.97,10.5-7.41,19.21l27.93,54.31c12.54,24.34-5.7,40.99-26.22,41.5l-10.83.26c-10.54.26-11.97,4.36-14.54,14.6l-4.28,16.14c-2.85,10.5-14.25,17.42-25.93,17.42-49.59,0-76.67-45.6-76.67-90.69S219.55,1.49,270.85,1.49c20.24,0,34.2,6.92,34.2,22.03,0,9.99-10.83,25.11-33.92,11.27l-18.81-11.27c-5.13-3.07-10.26-2.31-12.26.26-3.13,4.1-2.85,9.48-.85,17.93l26.5,110.41c2.57,11.02,7.98,13.58,13.97,12.81,6.27-.77,8.83-4.1,10.54-12.3l26.22-130.4c2.85-14.6,14.25-21.78,27.93-21.78,39.62,0,79.52,46.37,79.52,105.03s-36.2,82.49-69.25,82.49Z"/>
    </g>
  </g>
</svg>