<?xml version="1.0" encoding="UTF-8"?>
<svg id="Layer_2" data-name="Layer 2" xmlns="http://www.w3.org/2000/svg" viewBox="0 0 423.37 1249.7">
  <defs>
    <style>
      .cls-1 {
        stroke: #fff;
        stroke-width: 1.06px;
      }
    </style>
  </defs>
  <g id="Home_Page_Text_copy_2" data-name="Home Page Text copy 2">
    <g id="Proxima_Nova" data-name="Proxima Nova">
      <path class="cls-1" d="M145.42,1219.96c15.32-15.32,28.08-38.93,28.08-67.98,0-18.83-7.98-30.32-18.19-30.32-12.13,0-16.91,13.72-21.7,36.38-7.02,35.11-15.96,84.25-66.38,84.25-35.74,0-66.7-30.32-66.7-84.89,0-34.15,10.21-63.83,29.68-86.49l39.25,30c-14.68,17.87-22.02,41.17-22.02,60s7.34,25.21,16.6,25.21c11.17,0,15-13.08,19.47-36.7,7.34-35.11,17.55-83.61,65.74-83.61,42.76,0,71.17,31.59,71.17,88.72,0,43.08-13.4,73.08-33.83,94.46l-41.17-29.04Z"/>
      <path class="cls-1" d="M216.59,902.42l-32.23,10.85v88.4l32.23,10.85v59.68L3.72,992.1v-68.93l212.87-80.42v59.68ZM51.59,957.63l86.49,29.68v-59.68l-86.49,30Z"/>
      <path class="cls-1" d="M216.59,688.28l-128.61,90h128.61v54.89H3.72v-56.49l122.55-86.17H3.72v-55.21h212.87v52.98Z"/>
      <path class="cls-1" d="M216.59,615.84H3.72v-89.36c0-67.02,40.21-115.21,106.27-115.21s106.59,48.19,106.59,114.89v89.68ZM168.72,560.94v-34.47c0-37.34-27.13-59.04-58.72-59.04s-58.4,19.79-58.4,58.72v34.79h117.12Z"/>
      <path class="cls-1" d="M216.59,357.34h-85.85L3.72,438.08v-61.91l78.51-46.27L3.72,284.25v-62.23l127.02,80.42h85.85v54.89Z"/>
      <path class="cls-1" d="M419.01,1090.39h-85.53v88.4h85.53v54.89h-212.87v-54.89h79.47v-88.4h-79.47v-54.89h212.87v54.89Z"/>
      <path class="cls-1" d="M206.14,1016.03v-55.85h124.78c25.21,0,43.4-13.4,43.4-43.08s-18.19-42.76-43.4-42.76h-124.78v-55.85h126.38c52.98,0,90.32,30.32,90.32,98.61s-37.66,98.93-90,98.93h-126.7Z"/>
      <path class="cls-1" d="M202.63,688.27c0-46.59,22.98-75.32,49.47-90.95l24.25,45.96c-14.04,8.62-25.21,24.89-25.21,45,0,34.79,26.81,59.36,61.59,59.36s61.59-24.57,61.59-59.36c0-16.6-5.74-31.59-12.77-40.21h-17.87v48.83h-45.64v-102.76h83.29c25.21,22.98,41.49,53.93,41.49,94.15,0,63.51-42.45,115.21-110.1,115.21s-110.1-51.7-110.1-115.21Z"/>
      <path class="cls-1" d="M419.01,431.05h-85.53v88.4h85.53v54.89h-212.87v-54.89h79.47v-88.4h-79.47v-54.89h212.87v54.89Z"/>
      <path class="cls-1" d="M419.01,350.3h-212.87v-156.06h46.28v101.17h35.42v-98.93h46.59v98.93h38.3v-101.17h46.28v156.06Z"/>
      <path class="cls-1" d="M347.84,154.68c15.32-15.32,28.08-38.94,28.08-67.98,0-18.83-7.98-30.32-18.19-30.32-12.13,0-16.91,13.72-21.7,36.38-7.02,35.1-15.96,84.25-66.38,84.25-35.74,0-66.7-30.32-66.7-84.89,0-34.15,10.21-63.83,29.68-86.49l39.25,30c-14.68,17.87-22.02,41.17-22.02,60s7.34,25.21,16.6,25.21c11.17,0,15-13.08,19.47-36.7C293.27,49.04,303.48.53,351.67.53c42.76,0,71.17,31.59,71.17,88.72,0,43.08-13.4,73.08-33.83,94.46l-41.17-29.04Z"/>
    </g>
  </g>
</svg>