<?xml version="1.0" encoding="UTF-8"?>
<svg id="Layer_2" data-name="Layer 2" xmlns="http://www.w3.org/2000/svg" viewBox="0 0 443.26 1262.17">
  <defs>
    <style>
      .cls-1 {
        stroke: #fff;
        stroke-width: .49px;
      }
    </style>
  </defs>
  <g id="Home_Page_Text_copy_2" data-name="Home Page Text copy 2">
    <g id="Roboto_Terrible" data-name="Roboto Terrible">
      <path class="cls-1" d="M187.81,1047.1c-8.69,0-15.73,3.31-9.8,32.71-5.38,6.62-10.35,18.49-27.74,112.61-4.97,20.29-11.59,36.02-46.78,48.02-9.8,11.18-22.22,16.84-51.75-4-15.87,0-28.98-5.93-29.67-41.4-10.49-12.01-15.73-27.74,9.25-51.75,0-76.31,6.07-93.15,35.47-87.08,12.01-12.56,26.08-18.63,35.74,6.35l-23.18,8.42-19.87,9.94c-11.45,0-20.84,4-25.39-13.25-7.45,8-11.18,18.22,11.45,74.52,0,12.56,3.04,22.08,30.91,41.54,6.07,6.35,14.08,9.52,24.84,34.91,8.83,0,16.15-3.59.97,3.59,5.8-7.18,10.9-18.91-8.14-100.33,5.38-20.7,12.01-36.43,16.97-72.17,9.38-10.76,21.39-16.15,54.92-33.26,16.42,0,29.95,6.49,65.14,25.81,10.63,12.83,16.01,29.39,23.87,73.83,0,74.66-5.38,91.77-32.29,126.27-10.9,14.9-25.39,22.08-68.86,18.77l-12.01-23.05,13.11-47.75c12.56,0,22.36-4.83,54.65-15.04,6.9-9.52,10.35-20.29,24.7-66.52,0-12.7-3.31-22.91-19.73-7.18-6.62-7.59-15.04-11.32-50.09-7.04l23.32-47.47Z"/>
      <path class="cls-1" d="M199.54,1023.5l32.98,35.05-24.56,21.11L.27,982.93l16.15-98.12,225.36-67.76,11.04,50.65-65.14,39.33,11.87,116.47ZM150.55,918.21l-107.09,16.01-.69-24.56,106.54,70.93,1.24-62.38Z"/>
      <path class="cls-1" d="M211,687.06l-163.81,129.17,13.39-20.98,177.75-.69,14.35,48.16-210.04,23.46-24.98-22.91,135.24-170.71,6.35-25.39-128.06-7.87,19.6-10.9,197.07,25.12-36.85,33.53Z"/>
      <path class="cls-1" d="M46.36,632.69l22.77-47.2c3.04-98.95,9.11-113.57,21.39-124.34-7.31-26.91,8.28-32.29,27.19-32.29l2.76,7.87c12.56,24.56,28.29,29.95,40.57,40.71,29.39,29.53,35.47,44.16,35.47,117.99l24.98,31.74-175.12,5.52ZM216.52,608.54l-16.15-43.61c7.59-57.13-.41-78.25-16.42-94.25,8.42-9.25-12.42-17.25-38.09-17.25l-7.87-17.11c-29.67-24.98-50.51-16.97-66.65-.97-39.47,5.93-47.61,27.05-47.61,108.47l-21.11,77.42,213.9-12.7Z"/>
      <path class="cls-1" d="M49.81,272.65l-20.84-16.7,105.98,60.72,66.24-25.12,18.77,65.14-48.16,6.35-119.51,93.56-16.15-11.32,76.04-55.34-62.38-117.3Z"/>
      <path class="cls-1" d="M405.76,1078.7l-105.98-18.77,6.62,128.2,112.88-7.87,19.6,43.47-203.14,25.12-22.77-16.01,69.14-13.25-.69-178.16-69.69-14.21,23.32-17.11,204.24,24.98-33.53,43.61Z"/>
      <path class="cls-1" d="M369.46,804.63c22.08,0,39.33,7.18,52.58,46.92,12.42,14.35,18.63,32.84-2.21,125.03,0,21.8-6.21,39.61-42.23,43.75-12.42,13.94-29.67,20.84-56.03-4.28l-113.85-17.11,24.56-20.84,140.48,24.15c15.32,0,27.32-4.42,20.01,6.49,8.69-8.83,13.11-20.15-12.14-36.98,0-69.97-4.28-81.97-24.15-113.99-8.69-9.25-20.7-13.8-23.05-35.6l-107.23-.69,14.35-6.21,128.89-10.63Z"/>
      <path class="cls-1" d="M389.61,640.28c7.45,4.83,14.35,13.11-2.76,15.04,6.21,11.87,9.38,27.19,4.97,20.98,0,78.38-7.73,97.57-4.28,95.63-15.32,15.18-35.19,22.77-34.91,29.12l-32.71,24.15c-24.43,0-44.3-7.31-75.76-2.21-15.32-14.63-23.05-33.53-48.3-114.68,0-22.36,5.93-40.02,6.62-75.76,11.87-12.97,27.05-19.32,58.51-40.71l26.22-.41,14.35,47.06c-12.28,0-22.49,4-40.57,35.33-8.14,7.87-12.14,19.04-37.12,37.95,0,70.52,5.8,82.94.14,73.55,11.45,9.38,26.08,14.08,50.37-10.49l65-7.87c17.8,0,32.57-4.97,63.76,1.38,11.59-9.94,17.39-22.63,14.35-68.17,0-11.87-1.52-21.25-27.46-17.11-3.04-6.9-6.62-12.01-32.57-28.57l-45.95-25.39,21.11,31.33,2.07,10.07,4.14-47.75,54.65,17.11-3.86.41Z"/>
      <path class="cls-1" d="M405.76,451.36l-105.98-18.77,6.62,128.2,112.88-7.87,19.6,43.47-203.14,25.12-22.77-16.01,69.14-13.25-.69-178.16-69.69-14.21,23.32-17.11,204.24,24.98-33.53,43.61Z"/>
      <path class="cls-1" d="M326.13,338.89l91.49,16.28-3.04-126.68-1.52,11.18-21.67,165.74-200.79-25.39,21.11-191.68,44.71,10.07,4.14,175.26,46.23,17.11-24.56-144.35,12.97-24.29,30.91,116.75Z"/>
      <path class="cls-1" d="M375.81,30.88c-8.69,0-15.73,3.31-9.8,32.71-5.38,6.62-10.35,18.49-27.74,112.61-4.97,20.29-11.59,36.02-46.78,48.02-9.8,11.18-22.22,16.84-51.75-4-15.87,0-28.98-5.93-29.67-41.4-10.49-12.01-15.73-27.74,9.25-51.75,0-76.31,6.07-93.15,35.47-87.08,12.01-12.56,26.08-18.63,35.74,6.35l-23.18,8.42-19.87,9.94c-11.45,0-20.84,4-25.39-13.25-7.45,8-11.18,18.22,11.45,74.52,0,12.56,3.04,22.08,30.91,41.54,6.07,6.35,14.08,9.52,24.84,34.91,8.83,0,16.15-3.59.97,3.59,5.8-7.18,10.9-18.91-8.14-100.33,5.38-20.7,12.01-36.43,16.97-72.17,9.38-10.76,21.39-16.15,54.92-33.26,16.42,0,29.95,6.49,65.14,25.81,10.63,12.83,16.01,29.39,23.87,73.83,0,74.66-5.38,91.77-32.29,126.27-10.9,14.9-25.39,22.08-68.86,18.77l-12.01-23.05,13.11-47.75c12.56,0,22.36-4.83,54.65-15.04,6.9-9.52,10.35-20.29,24.7-66.52,0-12.7-3.31-22.91-19.73-7.18-6.62-7.59-15.04-11.32-50.09-7.04l23.32-47.47Z"/>
    </g>
  </g>
</svg>