<?xml version="1.0" encoding="UTF-8"?>
<svg id="Layer_2" data-name="Layer 2" xmlns="http://www.w3.org/2000/svg" viewBox="0 0 425.09 1269.96">
  <defs>
    <style>
      .cls-1 {
        stroke: #fff;
        stroke-width: 1.06px;
      }
    </style>
  </defs>
  <g id="Home_Page_Text_copy_2" data-name="Home Page Text copy 2">
    <g id="Times_New_Roman" data-name="Times New Roman">
      <path class="cls-1" d="M.53,1126.29l70.4-1.71v6.39c-17.65,3.01-31.85,10.41-42.6,22.2-10.75,11.79-16.12,24.53-16.12,38.24,0,10.59,2.83,18.98,8.49,25.16,5.66,6.18,12.18,9.27,19.55,9.27,4.67,0,8.83-1.09,12.46-3.27,4.88-3.01,9.71-7.84,14.49-14.49,3.43-4.88,9.5-16.15,18.22-33.8,12.15-24.71,23.62-41.38,34.42-50,10.8-8.51,23.16-12.77,37.07-12.77,17.66,0,32.84,6.88,45.56,20.64,12.72,13.76,19.08,31.23,19.08,52.41,0,6.65-.68,12.93-2.03,18.85-1.35,5.92-3.89,13.34-7.63,22.27-2.08,4.98-3.12,9.09-3.12,12.3,0,2.7,1.04,5.56,3.12,8.57,2.08,3.01,5.24,5.45,9.5,7.32v5.76h-79.75v-5.76c22.43-4.57,39.54-13.37,51.32-26.4,11.79-13.03,17.68-27.08,17.68-42.13,0-11.63-3.17-20.9-9.5-27.8-6.33-6.9-13.71-10.36-22.12-10.36-4.98,0-9.81,1.32-14.49,3.97-4.67,2.65-9.11,6.67-13.32,12.07-4.21,5.4-9.68,14.95-16.43,28.66-9.45,19.21-17.5,33.02-24.14,41.43-6.64,8.41-14.07,14.88-22.27,19.39-8.2,4.52-17.24,6.78-27.1,6.78-16.82,0-31.15-6.18-42.99-18.54-11.84-12.36-17.76-27.93-17.76-46.73,0-6.85.83-13.5,2.49-19.94,1.25-4.88,3.56-10.83,6.93-17.83,3.38-7.01,5.06-11.92,5.06-14.72s-.83-4.83-2.49-6.39c-1.66-1.56-5.66-3.01-11.99-4.36v-4.67Z"/>
      <path class="cls-1" d="M156.45,988.34v74.61l20.56,8.88c6.85,2.91,12.51,4.36,16.98,4.36,5.92,0,10.28-2.39,13.08-7.16,1.66-2.8,2.91-9.71,3.74-20.72h5.76v70.25h-5.76c-1.14-7.58-4.28-13.81-9.42-18.69-5.14-4.88-15.76-10.9-31.85-18.07L1,1006.25v-2.96l173.21-76.17c16.41-7.27,26.74-13.24,31-17.91,3.22-3.53,5.09-8.51,5.61-14.95h5.76v102.18h-5.76v-4.21c0-8.2-1.14-13.96-3.43-17.29-1.66-2.28-4.05-3.43-7.17-3.43-1.87,0-3.79.31-5.76.93-.93.21-4.83,1.77-11.68,4.67l-26.32,11.21ZM144.92,993.63l-72.74,31.46,72.74,32.4v-63.86Z"/>
      <path class="cls-1" d="M5.36,817.62l131-104.2H45.55c-12.67,0-21.24,1.82-25.7,5.45-6.02,4.98-8.93,13.34-8.72,25.08h-5.76v-69.78h5.76c1.14,8.93,2.62,14.93,4.44,17.99,1.82,3.06,4.78,5.45,8.88,7.17,4.1,1.71,11.14,2.57,21.11,2.57h175.85v5.3l-175.85,142.83h134.27c12.15,0,20.35-2.78,24.61-8.33,4.26-5.55,6.39-11.92,6.39-19.08v-4.98h5.76v74.92h-5.76c-.1-11.63-2.49-19.73-7.17-24.3-4.67-4.57-12.62-6.85-23.83-6.85H30.75l-5.61,4.52c-5.61,4.47-9.29,8.41-11.06,11.84-1.76,3.43-2.75,8.36-2.96,14.8h-5.76v-74.92Z"/>
      <path class="cls-1" d="M216.57,668.86h-5.76v-7.01c0-6.13-.96-10.83-2.88-14.1-1.92-3.27-4.54-5.69-7.87-7.24-2.18-.93-8.72-1.4-19.63-1.4H41.5c-10.8,0-17.55.57-20.25,1.71-2.7,1.14-5.06,3.45-7.09,6.93-2.03,3.48-3.04,8.18-3.04,14.1v7.01h-5.76v-94.55c0-25.23,3.43-45.53,10.28-60.9,8.41-18.79,21.13-33.05,38.16-42.76,17.03-9.71,36.29-14.56,57.79-14.56,14.85,0,28.53,2.39,41.04,7.17,12.51,4.78,22.85,10.96,31,18.54,8.15,7.58,14.69,16.33,19.63,26.25,4.93,9.92,8.75,22.04,11.45,36.37,1.25,6.33,1.87,16.3,1.87,29.91v94.55ZM17.35,588.33h164.8c8.72,0,14.07-.41,16.04-1.25,1.97-.83,3.48-2.23,4.52-4.21,1.56-2.8,2.34-6.85,2.34-12.15,0-17.34-5.92-30.58-17.76-39.72-15.99-12.46-40.81-18.69-74.45-18.69-27.1,0-48.75,4.26-64.95,12.77-12.67,6.75-21.29,15.42-25.86,26.01-3.22,7.48-4.77,19.89-4.67,37.23Z"/>
      <path class="cls-1" d="M5.36,260.57h5.76c.93,6.96,2.96,12.3,6.08,16.04,4.36,5.19,16.25,13.4,35.67,24.61l76.48,45.79h51.09c10.9,0,17.68-.57,20.33-1.71,2.65-1.14,4.98-3.4,7.01-6.78,2.03-3.37,3.04-7.87,3.04-13.47v-11.84h5.76v118.53h-5.76v-11.06c0-6.23-1.09-11.16-3.27-14.8-1.45-2.7-3.95-4.83-7.48-6.39-2.49-1.14-9.03-1.71-19.63-1.71h-42.37l-90.5,49.69c-17.86,9.87-28.37,16.82-31.54,20.87-3.17,4.05-4.8,9.45-4.91,16.2h-5.76v-101.24h5.76v4.52c0,6.13.88,10.41,2.65,12.85,1.77,2.44,3.64,3.66,5.61,3.66,3.74,0,13.14-4.15,28.19-12.46l69.94-38.16-63.71-38.01c-15.58-9.45-25.91-14.17-31-14.17-2.8,0-5.14,1.35-7.01,4.05-2.59,3.53-4.15,10.02-4.67,19.47h-5.76v-64.48Z"/>
      <path class="cls-1" d="M318.02,1188.9h65.42c10.8,0,17.55-.6,20.25-1.79,2.7-1.19,5.06-3.53,7.09-7.01,2.03-3.48,3.04-8.18,3.04-14.1v-7.01h5.76v110.43h-5.76v-7.01c0-6.13-1.09-11.06-3.27-14.8-1.45-2.7-3.95-4.78-7.48-6.23-2.49-1.14-9.03-1.71-19.63-1.71h-138.94c-10.8,0-17.55.57-20.25,1.71-2.7,1.14-5.06,3.45-7.09,6.93-2.03,3.48-3.04,8.18-3.04,14.1v7.01h-5.76v-110.43h5.76v7.01c0,6.13,1.09,11.06,3.27,14.8,1.46,2.7,3.95,4.83,7.48,6.39,2.49,1.14,9.03,1.71,19.63,1.71h59.81v-74.61h-59.81c-10.8,0-17.55.57-20.25,1.71-2.7,1.14-5.06,3.48-7.09,7.01-2.03,3.53-3.04,8.25-3.04,14.17v6.85h-5.76v-110.28h5.76v6.85c0,6.23,1.09,11.16,3.27,14.8,1.46,2.7,3.95,4.83,7.48,6.39,2.49,1.14,9.03,1.71,19.63,1.71h138.94c10.8,0,17.55-.57,20.25-1.71,2.7-1.14,5.06-3.48,7.09-7.01,2.03-3.53,3.04-8.26,3.04-14.17v-6.85h5.76v110.28h-5.76v-6.85c0-6.23-1.09-11.16-3.27-14.8-1.45-2.7-3.95-4.83-7.48-6.39-2.49-1.14-9.03-1.71-19.63-1.71h-65.42v74.61Z"/>
      <path class="cls-1" d="M208.36,1026.9v-109.03h5.76v5.45c0,8.2.86,13.84,2.57,16.9,1.71,3.06,4.08,5.25,7.09,6.54,3.01,1.3,10.54,1.95,22.59,1.95h103.43c18.9,0,31.41-1.43,37.54-4.28,6.13-2.86,11.21-7.55,15.26-14.1s6.08-14.8,6.08-24.77c0-11.42-2.57-21.16-7.71-29.21-5.14-8.05-12.23-14.07-21.26-18.07-9.03-4-24.77-6-47.2-6h-86.14c-9.45,0-16.2.99-20.25,2.96-4.05,1.97-6.85,4.47-8.41,7.48-2.39,4.67-3.58,11.27-3.58,19.78h-5.76v-73.05h5.76v4.36c0,5.92,1.2,10.85,3.58,14.8,2.39,3.95,5.97,6.8,10.75,8.57,3.33,1.35,9.29,2.02,17.91,2.02h80.22c24.82,0,42.73,1.64,53.74,4.91,11.01,3.27,21.13,11.24,30.37,23.91,9.24,12.67,13.86,29.96,13.86,51.87,0,18.28-2.44,32.4-7.32,42.37-6.64,13.6-15.16,23.21-25.54,28.82-10.38,5.61-24.35,8.41-41.9,8.41h-103.43c-12.15,0-19.7.68-22.66,2.03-2.96,1.35-5.32,3.69-7.09,7.01-1.76,3.33-2.59,9.45-2.49,18.38h-5.76Z"/>
      <path class="cls-1" d="M203.53,615.82h74.45v5.76c-20.35,6.96-35.83,17.39-46.42,31.31-10.59,13.92-15.89,29.13-15.89,45.64s4.44,28.92,13.32,39.41c8.88,10.49,21.26,17.91,37.15,22.27s32.19,6.54,48.91,6.54c20.25,0,38.01-2.39,53.27-7.17,15.26-4.78,26.48-12.49,33.64-23.13,7.17-10.64,10.75-23.29,10.75-37.93,0-5.09-.54-10.3-1.64-15.65-1.09-5.35-2.67-10.83-4.75-16.43h-43.92c-8.31,0-13.68.57-16.12,1.71-2.44,1.14-4.65,3.5-6.62,7.09-1.97,3.58-2.96,7.92-2.96,13.01v5.45h-5.76v-102.65h5.76c.52,7.79,1.58,13.22,3.19,16.28,1.61,3.06,4.28,5.43,8.02,7.09,1.97.93,6.8,1.4,14.49,1.4h43.92c6.02,13.5,10.57,27.54,13.63,42.13,3.06,14.59,4.59,29.73,4.59,45.4,0,20.04-2.73,36.68-8.18,49.92-5.45,13.24-12.62,24.92-21.5,35.05-8.88,10.12-18.87,18.04-29.98,23.75-14.33,7.27-30.37,10.9-48.13,10.9-31.78,0-58.62-11.16-80.53-33.49-21.91-22.32-32.87-50.41-32.87-84.27,0-10.49.83-19.94,2.49-28.35.83-4.57,3.19-11.97,7.09-22.2,3.89-10.23,5.84-16.28,5.84-18.15,0-2.91-1.06-5.61-3.19-8.1-2.13-2.49-6.15-4.77-12.07-6.85v-5.76Z"/>
      <path class="cls-1" d="M318.02,513.32h65.42c10.8,0,17.55-.6,20.25-1.79,2.7-1.19,5.06-3.53,7.09-7.01,2.03-3.48,3.04-8.18,3.04-14.1v-7.01h5.76v110.43h-5.76v-7.01c0-6.13-1.09-11.06-3.27-14.8-1.45-2.7-3.95-4.78-7.48-6.23-2.49-1.14-9.03-1.71-19.63-1.71h-138.94c-10.8,0-17.55.57-20.25,1.71-2.7,1.14-5.06,3.45-7.09,6.93-2.03,3.48-3.04,8.18-3.04,14.1v7.01h-5.76v-110.43h5.76v7.01c0,6.13,1.09,11.06,3.27,14.8,1.46,2.7,3.95,4.83,7.48,6.39,2.49,1.14,9.03,1.71,19.63,1.71h59.81v-74.61h-59.81c-10.8,0-17.55.57-20.25,1.71-2.7,1.14-5.06,3.48-7.09,7.01-2.03,3.53-3.04,8.26-3.04,14.17v6.85h-5.76v-110.28h5.76v6.85c0,6.23,1.09,11.16,3.27,14.8,1.46,2.7,3.95,4.83,7.48,6.39,2.49,1.14,9.03,1.71,19.63,1.71h138.94c10.8,0,17.55-.57,20.25-1.71,2.7-1.14,5.06-3.48,7.09-7.01,2.03-3.53,3.04-8.26,3.04-14.17v-6.85h5.76v110.28h-5.76v-6.85c0-6.23-1.09-11.16-3.27-14.8-1.45-2.7-3.95-4.83-7.48-6.39-2.49-1.14-9.03-1.71-19.63-1.71h-65.42v74.61Z"/>
      <path class="cls-1" d="M220.51,271.89h85.98v-4.21c0-13.4-4.21-23.1-12.62-29.13-8.41-6.02-20.82-9.86-37.23-11.53v-5.92h110.59v5.92c-12.04,1.25-21.91,3.87-29.59,7.87-7.68,4-12.85,8.64-15.5,13.94s-3.97,12.98-3.97,23.05h59.5c11.63,0,18.75-.49,21.34-1.48,2.6-.99,4.73-2.83,6.39-5.53,1.66-2.7,2.49-7.06,2.49-13.08v-12.62c0-19.73-4.57-35.54-13.71-47.43-9.14-11.89-23.05-20.43-41.74-25.62v-5.76l67.13,9.5v182.55h-5.76v-7.01c0-6.13-1.09-11.06-3.27-14.8-1.45-2.7-3.95-4.78-7.48-6.23-2.49-1.14-9.03-1.71-19.63-1.71h-138.94c-9.55,0-15.42.26-17.6.78-3.63,1.04-6.44,2.96-8.41,5.76-2.91,3.95-4.36,9.35-4.36,16.2v7.01h-5.76v-176.79h62.46v5.92c-15.26,3.01-26.22,7.24-32.87,12.69-6.64,5.45-11.53,13.16-14.64,23.13-1.87,5.82-2.8,16.72-2.8,32.71v21.81Z"/>
      <path class="cls-1" d="M203.53,15.33l70.4-1.71v6.39c-17.65,3.01-31.85,10.41-42.6,22.2-10.75,11.79-16.12,24.53-16.12,38.24,0,10.59,2.83,18.98,8.49,25.15,5.66,6.18,12.18,9.27,19.55,9.27,4.67,0,8.83-1.09,12.46-3.27,4.88-3.01,9.71-7.84,14.49-14.49,3.43-4.88,9.5-16.15,18.22-33.8,12.15-24.71,23.62-41.38,34.42-50,10.8-8.51,23.16-12.77,37.07-12.77,17.66,0,32.84,6.88,45.56,20.64,12.72,13.76,19.08,31.23,19.08,52.41,0,6.65-.68,12.93-2.03,18.85-1.35,5.92-3.89,13.35-7.63,22.27-2.08,4.98-3.12,9.09-3.12,12.31,0,2.7,1.04,5.56,3.12,8.57,2.08,3.01,5.24,5.45,9.5,7.32v5.76h-79.75v-5.76c22.43-4.57,39.54-13.37,51.32-26.4,11.79-13.03,17.68-27.08,17.68-42.13,0-11.63-3.17-20.9-9.5-27.8-6.33-6.9-13.71-10.36-22.12-10.36-4.98,0-9.81,1.32-14.49,3.97s-9.11,6.67-13.32,12.07c-4.21,5.4-9.68,14.95-16.43,28.66-9.45,19.21-17.5,33.02-24.14,41.43-6.64,8.41-14.07,14.88-22.27,19.39-8.2,4.52-17.24,6.78-27.1,6.78-16.82,0-31.15-6.18-42.99-18.54-11.84-12.36-17.76-27.93-17.76-46.73,0-6.85.83-13.5,2.49-19.94,1.25-4.88,3.56-10.82,6.93-17.83,3.38-7.01,5.06-11.92,5.06-14.72s-.83-4.83-2.49-6.39c-1.66-1.56-5.66-3.01-11.99-4.36v-4.67Z"/>
    </g>
  </g>
</svg>