<?xml version="1.0" encoding="UTF-8"?>
<svg id="Layer_2" data-name="Layer 2" xmlns="http://www.w3.org/2000/svg" viewBox="0 0 433.54 1285.73">
  <defs>
    <style>
      .cls-1 {
        stroke: #fff;
        stroke-width: 1.07px;
      }
    </style>
  </defs>
  <g id="Home_Page_Text_copy_2" data-name="Home Page Text copy 2">
    <g id="Zapf_Dingbats" data-name="Zapf Dingbats">
      <path class="cls-1" d="M123.27,1062.89l-2.81,100.69,69-73.22,10.3,10.3-73.22,69,100.69-2.81v14.36l-100.69-2.81,73.22,69-10.3,10.3-69-73.22,2.81,100.69h-14.36l3.28-100.69-69.16,73.22-10.15-10.3,73.22-69-100.69,2.81v-14.36l100.69,2.81-73.22-69,10.15-10.3,69.16,73.22-2.81-100.69h13.89Z"/>
      <path class="cls-1" d="M174.16,887.98v66.19l57.92,33.25-57.92,33.25v66.19l-57.29-32.94-57.45,32.94v-66.19L1.81,987.42l57.61-33.25v-66.19l57.45,32.63,57.29-32.63ZM162.92,1027.39l-34.5,20.14,34.5,19.83v-39.96ZM70.97,1027.39v39.65l34.19-19.83-34.19-19.83ZM116.87,933.41l-45.58,27.16v53.39l45.58,27.16,45.74-27.16v-53.39l-45.74-27.16ZM59.42,967.28l-35.12,20.14,35.12,20.14v-40.28ZM174.16,966.97v39.96l34.81-19.51-34.81-20.45ZM70.97,907.81v39.65l34.19-20.14-34.19-19.51ZM162.92,907.81l-34.81,19.51,34.81,19.83v-39.34Z"/>
      <path class="cls-1" d="M86.27,669.67l59.17,67.44,85.71-21.39-47.77,74.46,47.77,74.62-85.71-21.54-59.17,67.6-5.15-88.36L2.13,790.19l78.99-32.16,5.15-88.36ZM96.73,700.11l-3.75,66.19-58.85,23.88,58.85,24.04,3.75,66.19,44.49-50.58,63.07,15.77-35.28-55.42,35.28-55.26-63.07,15.61-44.49-50.42ZM107.04,730.4l29.66,34.03,41.06-10.3-23.1,36.06,23.1,36.22-41.06-10.3-29.66,33.88-2.5-44.02-38.09-15.77,38.09-15.61,2.5-44.18Z"/>
      <path class="cls-1" d="M111.87,572.81c-.62-10.82-6.5-21.59-17.64-32.32l-.62-.62c-7.39-7.28-12.28-13.37-14.67-18.26-2.39-4.89-3.59-10.3-3.59-16.24,0-11.76,3.98-21.67,11.94-29.74,7.96-8.06,17.72-12.1,29.27-12.1s21.47,4.03,29.43,12.1c7.96,8.07,11.94,17.98,11.94,29.74,0,5.93-1.25,11.37-3.75,16.31-2.5,4.94-7.34,11.01-14.52,18.19,0,.1-.05.16-.16.16-11.45,11.03-17.38,22.07-17.8,33.1,10.72-.73,21.39-6.45,32-17.17.42-.41.73-.73.94-.94,7.18-7.18,13.27-12.02,18.27-14.52s10.41-3.75,16.24-3.75c11.76,0,21.7,3.98,29.82,11.94,8.12,7.96,12.18,17.72,12.18,29.27s-4.03,21.44-12.1,29.35c-8.06,7.91-18.03,11.86-29.9,11.86-5.83,0-11.19-1.19-16.08-3.59-4.89-2.39-11.03-7.23-18.42-14.52-.31-.31-.78-.78-1.41-1.4-10.51-10.62-21.13-16.13-31.85-16.55.83,10.62,6.61,21.28,17.33,32l.94.94c7.29,7.29,12.15,13.37,14.6,18.27,2.45,4.89,3.67,10.3,3.67,16.24,0,11.97-3.95,21.93-11.86,29.9-7.91,7.96-17.74,11.94-29.51,11.94s-21.31-4.03-29.27-12.1c-7.96-8.06-11.94-17.98-11.94-29.74,0-5.93,1.2-11.34,3.59-16.24,2.4-4.89,7.29-10.98,14.67-18.27.31-.31.78-.78,1.4-1.4,10.62-10.51,16.13-21.13,16.55-31.85-10.51.62-21.02,6.19-31.54,16.7-.62.62-1.09,1.15-1.41,1.56-7.39,7.29-13.53,12.13-18.42,14.52-4.89,2.4-10.3,3.59-16.24,3.59-11.76,0-21.67-3.95-29.74-11.86-8.06-7.91-12.1-17.69-12.1-29.35s4.03-21.31,12.1-29.27c8.07-7.96,17.98-11.94,29.74-11.94,5.93,0,11.4,1.25,16.39,3.75,5,2.5,11.08,7.34,18.26,14.52l.94.94c10.83,10.83,21.6,16.45,32.32,16.86Z"/>
      <path class="cls-1" d="M116.56,254.44l15.14,57.76,42.15-42.46-15.61,57.6,57.45-15.77-42.46,42.31,57.92,14.99-57.92,14.99,42.46,42.31-57.45-15.77,15.61,57.6-42.15-42.62-15.14,57.92-14.99-57.92-42.15,42.62,15.61-57.6-57.45,15.77,42.46-42.31-57.92-14.99,57.92-14.99-42.46-42.31,57.45,15.77-15.61-57.6,42.15,42.46,14.99-57.76Z"/>
      <path class="cls-1" d="M290.39,1043.07l54.01,74.31,87.74-28.57-54.17,74.46,54.17,74.62-87.74-28.57-54.01,74.15v-91.64l-87.27-28.57,87.27-28.41v-91.79Z"/>
      <path class="cls-1" d="M320.52,835.06l15.3,70.56,60.73-39.34,4.21,4.21-39.34,60.73,70.72,15.3v5.78l-70.72,15.46,39.34,60.73-4.21,4.06-60.73-39.34-15.3,70.72h-5.78l-15.3-70.72-60.73,39.34-4.21-4.06,39.34-60.73-70.72-15.46v-5.78l70.72-15.3-39.34-60.73,4.21-4.21,60.73,39.34,15.3-70.56h5.78ZM317.56,954.64v97.73l14.21-65.88-14.21-31.85ZM314.12,952.92l-69.47,69.47,56.67-36.53,12.8-32.94ZM321.15,952.92l69.31,69.47-36.38-56.67-32.94-12.8ZM312.56,949.49h-97.88l65.88,14.05,32-14.05ZM354.71,935.44l-32,14.05h97.88l-65.88-14.05ZM244.65,876.58l36.53,56.51,32.94,12.8-69.47-69.31ZM390.46,876.58l-56.51,36.37-12.8,32.94,69.31-69.31ZM317.56,846.45l-14.05,65.88,14.05,32v-97.88Z"/>
      <path class="cls-1" d="M320.84,625.96c7.81,18.84,14.83,33.85,21.08,45.04,6.25,11.19,12.44,19.9,18.58,26.15,6.14,6.14,14.78,12.33,25.91,18.58,11.14,6.24,26.38,13.37,45.74,21.39v6.4c-19.36,8.12-34.6,15.3-45.74,21.54-11.13,6.24-19.77,12.39-25.91,18.42-6.14,6.24-12.33,14.96-18.58,26.15-6.24,11.19-13.27,26.25-21.08,45.19h-6.4c-7.81-19.04-14.83-34.16-21.08-45.35-6.25-11.19-12.44-19.85-18.58-25.99-6.14-6.03-14.78-12.18-25.92-18.42-11.14-6.24-26.38-13.43-45.74-21.54v-6.4c19.36-8.01,34.61-15.14,45.74-21.39,11.14-6.24,19.78-12.44,25.92-18.58,6.14-6.03,12.33-14.65,18.58-25.84,6.24-11.19,13.27-26.3,21.08-45.35h6.4ZM318.18,635.79h-1.25c-1.46,14.57-4.06,28.49-7.81,41.76-3.75,13.27-8.79,26.3-15.14,39.11-12.8,6.35-25.86,11.42-39.18,15.22-13.32,3.8-27.21,6.43-41.68,7.88v1.25c14.47,1.46,28.36,4.09,41.68,7.88,13.32,3.8,26.38,8.82,39.18,15.06,6.35,13.32,11.42,26.62,15.22,39.89,3.8,13.27,6.38,26.98,7.73,41.13h1.25c1.46-14.15,4.08-27.87,7.88-41.13,3.8-13.27,8.88-26.56,15.22-39.89,13.22-6.35,26.49-11.4,39.81-15.14,13.32-3.75,27.01-6.35,41.06-7.81v-1.25c-14.05-1.46-27.73-4.06-41.06-7.81-13.32-3.75-26.59-8.84-39.81-15.3-6.35-12.8-11.42-25.84-15.22-39.11-3.8-13.27-6.42-27.19-7.88-41.76Z"/>
      <path class="cls-1" d="M290.39,406.56l54.01,74.31,87.74-28.57-54.17,74.47,54.17,74.62-87.74-28.57-54.01,74.15v-91.64l-87.27-28.57,87.27-28.41v-91.79Z"/>
      <path class="cls-1" d="M298.82,229.15c-.73-1.46-1.25-2.91-1.56-4.37-.31-1.46-.47-2.96-.47-4.53,0-5.72,2.03-10.62,6.09-14.67,4.06-4.06,8.95-6.09,14.67-6.09s10.9,2,14.91,6.01c4.01,4.01,6.01,8.93,6.01,14.75,0,1.56-.18,3.07-.55,4.53-.36,1.46-.86,2.92-1.48,4.37h.62c5.72,0,10.56,2.01,14.52,6.01,3.96,4.01,5.93,8.92,5.93,14.75s-2,10.77-6.01,14.83c-4.01,4.06-8.92,6.09-14.75,6.09-2.5,0-4.89-.47-7.18-1.41-2.29-.94-4.68-2.39-7.18-4.37v44.02h44.18c-1.98-2.5-3.43-4.89-4.37-7.18-.94-2.29-1.41-4.68-1.41-7.18,0-5.72,2.03-10.62,6.09-14.67s8.95-6.09,14.67-6.09,10.75,1.98,14.75,5.93c4.01,3.96,6.01,8.8,6.01,14.52v.62c1.67-.62,3.23-1.09,4.68-1.41,1.46-.31,2.86-.47,4.21-.47,5.83,0,10.77,2.01,14.83,6.01,4.06,4.01,6.09,8.92,6.09,14.75s-2.03,10.75-6.09,14.75c-4.06,4.01-9,6.01-14.83,6.01-1.56,0-3.07-.16-4.53-.47-1.46-.31-2.91-.78-4.37-1.41v.62c0,5.72-2,10.56-6.01,14.52-4,3.96-8.92,5.93-14.75,5.93s-10.62-2.03-14.67-6.09-6.09-8.95-6.09-14.67c0-2.39.47-4.79,1.41-7.18.94-2.39,2.4-4.79,4.37-7.18h-44.18v44.02c2.5-1.98,4.89-3.41,7.18-4.29,2.29-.88,4.68-1.33,7.18-1.33,5.83,0,10.75,1.98,14.75,5.93,4.01,3.96,6.01,8.9,6.01,14.83s-1.98,10.75-5.93,14.75c-3.95,4.01-8.79,6.01-14.52,6.01h-.62c.62,1.46,1.12,2.92,1.48,4.37.37,1.46.55,2.97.55,4.53,0,5.83-2,10.75-6.01,14.75-4.01,4.01-8.98,6.01-14.91,6.01s-10.62-2.03-14.67-6.09c-4.06-4.06-6.09-8.95-6.09-14.67,0-1.35.16-2.78.47-4.29.31-1.51.83-3.04,1.56-4.61h-.78c-5.62,0-10.43-2-14.44-6.01-4.01-4-6.01-8.92-6.01-14.75s2.03-10.74,6.09-14.75c4.06-4.01,9-6.01,14.83-6.01,2.5,0,4.94.47,7.34,1.41,2.39.94,4.74,2.34,7.02,4.22v-44.02h-44.18c1.98,2.5,3.43,4.89,4.37,7.18.94,2.29,1.41,4.68,1.41,7.18,0,5.83-2,10.75-6.01,14.75-4,4.01-8.92,6.01-14.75,6.01s-10.74-1.98-14.75-5.93c-4.01-3.95-6.01-8.79-6.01-14.52v-.62c-1.46.62-2.94,1.09-4.45,1.41-1.51.31-3.04.47-4.61.47-5.83,0-10.75-2-14.75-6.01s-6.01-8.92-6.01-14.75,2-10.75,6.01-14.75c4.01-4,8.93-6.01,14.75-6.01,1.56,0,3.1.16,4.61.47,1.51.31,2.99.78,4.45,1.41v-.62c0-5.62,2-10.43,6.01-14.44,4.01-4,8.92-6.01,14.75-6.01s10.75,2,14.75,6.01,6.01,8.93,6.01,14.75c0,2.5-.47,4.89-1.41,7.18-.94,2.29-2.39,4.68-4.37,7.18h44.18v-44.02c-2.29,1.87-4.63,3.3-7.02,4.29-2.39.99-4.84,1.48-7.34,1.48-5.83,0-10.77-2.03-14.83-6.09-4.06-4.06-6.09-9-6.09-14.83s2-10.75,6.01-14.75c4.01-4,8.82-6.01,14.44-6.01h.78Z"/>
      <path class="cls-1" d="M324.27.53l-2.81,100.69,69-73.22,10.3,10.3-73.22,69,100.69-2.81v14.36l-100.69-2.81,73.22,69-10.3,10.3-69-73.22,2.81,100.69h-14.36l3.28-100.69-69.16,73.22-10.15-10.3,73.22-69-100.69,2.81v-14.36l100.69,2.81-73.22-69,10.15-10.3,69.16,73.22-2.81-100.69h13.89Z"/>
    </g>
  </g>
</svg>