<?xml version="1.0" encoding="UTF-8"?>
<svg id="Layer_2" data-name="Layer 2" xmlns="http://www.w3.org/2000/svg" viewBox="0 0 428.3 1225.51">
  <defs>
    <style>
      .cls-1 {
        stroke: #fff;
        stroke-width: .87px;
      }
    </style>
  </defs>
  <g id="Home_Page_Text_copy_2" data-name="Home Page Text copy 2">
    <g id="_ヒラギノ角ゴ_StdN" data-name="ヒラギノ角ゴ StdN">
      <path class="cls-1" d="M151.49,1170.93c9.36-1.04,14.04-2.86,19.24-6.76,7.8-6.24,12.22-17.16,12.22-30.42,0-20.02-8.84-31.98-23.4-31.98-8.06,0-15.08,4.16-18.2,10.92-2.6,5.46-4.42,11.96-10.66,39-5.2,23.92-8.32,32.24-15.08,41.86-11.44,16.38-28.86,25.22-49.92,25.22-40.04,0-65.26-32.24-65.26-83.46,0-33.02,10.14-58.24,29.64-72.28,8.58-6.5,16.38-9.62,31.2-13l5.98,55.12c-16.9,3.12-23.92,12.48-23.92,32.24,0,15.86,8.58,27.56,20.54,27.56,7.28,0,12.74-3.9,16.64-12.22q2.34-5.2,8.58-35.88c4.16-19.76,8.58-32.24,14.82-42.12,11.7-18.72,29.12-28.08,53.04-28.08,19.5,0,36.14,6.24,47.84,18.2,14.56,15.08,22.1,37.96,22.1,68.38,0,22.1-4.68,43.94-12.74,57.98-7.28,13-18.46,22.62-33.28,28.08-6.24,2.6-12.22,3.9-24.18,5.72l-5.2-54.08Z"/>
      <path class="cls-1" d="M221.95,879.48c-12.48,2.08-19.24,3.64-28.08,6.24l-22.1,7.02v74.1l22.1,7.02c10.4,3.38,18.46,5.2,28.08,6.5v60.84c-7.8-3.9-14.04-6.24-31.72-12.48l-156.52-56.16c-12.74-4.68-20.54-7.02-28.08-8.32v-67.86c7.54-1.82,14.3-3.64,28.08-8.84l156.52-56.42c13.78-4.94,24.44-9.1,31.72-12.48v60.84ZM50.09,930.17l78,24.18v-48.88l-78,24.7Z"/>
      <path class="cls-1" d="M111.97,680.84c11.18-7.54,19.5-12.48,30.94-18.72-11.96,1.04-23.92,1.56-38.48,1.56h-59.28c-17.16,0-27.56.52-39.52,2.08v-55.38c11.7,1.56,22.62,2.08,39.52,2.08h138.06c15.86,0,27.82-.78,38.74-2.08v56.94c-9.88,4.68-19.5,10.66-33.02,19.5l-72.54,48.1c-10.4,7.02-18.2,11.44-31.98,18.72,11.7-1.3,26-1.82,38.74-1.82h58.24c17.94,0,29.38-.52,40.56-2.08v55.38c-10.14-1.56-21.58-2.08-40.82-2.08H44.37c-15.08,0-26.78.52-38.74,2.08v-56.42c7.02-2.6,17.42-8.32,32.5-18.46l73.84-49.4Z"/>
      <path class="cls-1" d="M43.07,590.36c-17.68,0-26.26.52-38.22,2.34.52-10.4.78-16.9.78-38.48v-54.34c0-31.98,8.84-57.72,25.74-75.14,18.72-18.98,46.02-28.6,80.6-28.6s64.22,10.4,83.98,30.16c17.16,17.42,26,42.12,26,73.06v54.86c0,20.02.26,27.3.78,38.22-11.44-1.56-20.02-2.08-37.96-2.08H43.07ZM176.45,504.04c0-16.9-4.42-28.86-13.78-38.22-10.92-10.66-28.34-16.38-49.92-16.38s-38.22,4.94-48.36,15.08c-9.1,9.1-13.26,21.58-13.26,40.3v34.06h125.32v-34.84Z"/>
      <path class="cls-1" d="M183.47,286.95c13.52,0,24.96-.52,38.48-2.08v56.68c-11.96-1.3-23.92-2.08-38.48-2.08h-48.1l-98.28,59.8c-8.06,4.68-16.64,10.4-31.46,20.8v-65.78c9.1-2.86,15.86-5.72,27.3-12.22l52.78-28.86-52.52-28.86c-11.96-6.5-20.02-10.14-27.56-11.96v-65.78c10.92,7.54,25.74,17.42,31.46,20.8l98.28,59.54h48.1Z"/>
      <path class="cls-1" d="M206.35,1023.25c10.66,1.56,20.28,2.08,38.48,2.08h139.36c16.9,0,25.74-.52,38.48-2.08v55.9c-10.92-1.56-20.54-2.08-38.48-2.08h-50.44v87.62h50.44c16.9,0,26.78-.52,38.48-2.08v55.9c-10.66-1.56-20.28-2.08-38.48-2.08h-139.36c-17.94,0-27.3.52-38.48,2.08v-55.9c12.22,1.56,22.36,2.08,38.48,2.08h43.16v-87.62h-43.16c-17.94,0-28.34.52-38.48,2.08v-55.9Z"/>
      <path class="cls-1" d="M206.35,806.68c11.18,1.56,20.54,2.08,39.26,2.08h89.44c59.28,0,92.82,35.62,92.82,98.28,0,32.24-9.1,58.5-25.48,74.1-16.12,15.08-38.74,22.88-67.86,22.88h-88.92c-17.94,0-29.38.52-39.26,2.08v-56.16c9.62,1.56,20.02,2.08,39.26,2.08h89.44c32.76,0,48.36-14.82,48.36-45.24s-15.6-46.02-48.36-46.02h-89.44c-19.5,0-27.56.52-39.26,2.08v-56.16Z"/>
      <path class="cls-1" d="M343.63,658.48c0,13.26.26,17.68,1.3,25.74h-46.02c1.3-9.62,1.56-15.86,1.56-34.06v-20.8c0-13.26-.26-22.88-1.3-34.32,9.88,1.3,18.46,1.82,35.36,1.82h29.12c18.46,0,26.78-.26,38.74-1.82,9.1,14.3,12.48,21.32,16.38,33.02,5.72,16.9,8.84,35.88,8.84,55.12,0,33.02-9.1,58.76-27.82,77.22-19.76,19.76-50.7,30.68-86.32,30.68-68.38,0-111.8-41.34-111.8-106.86,0-32.5,10.14-57.2,30.94-74.36,8.06-7.02,15.86-11.18,28.34-15.34l12.22,53.04c-9.36,2.86-14.3,5.98-18.72,11.7-5.46,6.76-8.06,15.34-8.06,26.26,0,33.28,24.18,51.48,67.86,51.48,24.18,0,42.9-5.46,54.34-15.86,9.1-8.32,14.04-21.06,14.04-37.44,0-13.78-2.86-24.96-9.36-37.7h-29.64v12.48Z"/>
      <path class="cls-1" d="M206.35,380.28c10.66,1.56,20.28,2.08,38.48,2.08h139.36c16.9,0,25.74-.52,38.48-2.08v55.9c-10.92-1.56-20.54-2.08-38.48-2.08h-50.44v87.62h50.44c16.9,0,26.78-.52,38.48-2.08v55.9c-10.66-1.56-20.28-2.08-38.48-2.08h-139.36c-17.94,0-27.3.52-38.48,2.08v-55.9c12.22,1.56,22.36,2.08,38.48,2.08h43.16v-87.62h-43.16c-17.94,0-28.34.52-38.48,2.08v-55.9Z"/>
      <path class="cls-1" d="M424.49,194.39c-1.3,11.18-1.82,20.54-1.82,42.9v81.9c0,19.76.26,27.04.78,38.22-10.4-1.56-20.02-2.08-37.96-2.08h-141.96c-16.12,0-25.22.52-37.96,2.08.52-10.66.78-17.94.78-38.22v-82.94c0-17.68-.52-26.52-1.82-38.74h48.62c-1.3,11.96-1.82,21.32-1.82,38.74v67.6h38.22v-56.16c0-17.16-.26-23.4-1.82-39h48.1c-1.3,12.22-1.82,21.06-1.82,39v56.16h43.68v-67.08c0-19.76-.52-31.2-1.82-42.38h48.62Z"/>
      <path class="cls-1" d="M352.21,124.71c9.36-1.04,14.04-2.86,19.24-6.76,7.8-6.24,12.22-17.16,12.22-30.42,0-20.02-8.84-31.98-23.4-31.98-8.06,0-15.08,4.16-18.2,10.92-2.6,5.46-4.42,11.96-10.66,39-5.2,23.92-8.32,32.24-15.08,41.86-11.44,16.38-28.86,25.22-49.92,25.22-40.04,0-65.26-32.24-65.26-83.46,0-33.02,10.14-58.24,29.64-72.28,8.58-6.5,16.38-9.62,31.2-13l5.98,55.12c-16.9,3.12-23.92,12.48-23.92,32.24,0,15.86,8.58,27.56,20.54,27.56,7.28,0,12.74-3.9,16.64-12.22q2.34-5.2,8.58-35.88c4.16-19.76,8.58-32.24,14.82-42.12C316.33,9.79,333.75.43,357.67.43c19.5,0,36.14,6.24,47.84,18.2,14.56,15.08,22.1,37.96,22.1,68.38,0,22.1-4.68,43.94-12.74,57.98-7.28,13-18.46,22.62-33.28,28.08-6.24,2.6-12.22,3.9-24.18,5.72l-5.2-54.08Z"/>
    </g>
  </g>
</svg>