<?xml version="1.0" encoding="UTF-8"?>
<svg id="Layer_2" data-name="Layer 2" xmlns="http://www.w3.org/2000/svg" viewBox="0 0 139.13 120.76">
  <defs>
    <style>
      .cls-1 {
        fill: #131313;
      }
    </style>
  </defs>
  <g id="Layer_1-2" data-name="Layer 1">
    <g>
      <path class="cls-1" d="M122.64,25.03c-1.41-2.44-3.39-5.1-3.39-5.1,0,0-2.06-2.52-3.08-3.63-3.16-3.43-15.45-10.8-13.57-6.83,1.88,3.97,4.63,10.33,6.13,16.13.74,2.87-2.42,4.59-12.17,3.54-9.75-1.05-11.55-5.37-11.81-7.34-.26-1.97-1.88-15.26-2.69-17.09-.38-.86-.09-2.23-2.15-3.27-2.33-1.17-7.15-1.72-9.73-1.32-1.92.3-5,1.09-7.47,1.26-3.8.26-2.04-.58-6.61-.12-4.56.46-23.68,7.88-27.01,9.96-3.33,2.08-5.15,3.66-5.58,4.15-.43.5-13.64,23.29-13.84,24.72-.21,1.43,4.08,1.29,7.66.8,3.59-.49,7.64-2.01,8.66-3.36,1.02-1.35,1.99-8.78,2.84-9.58.85-.8,1.2-1.56,4.37-2.71,3.17-1.15,14.83-1.89,18.28-2.89,3.45-1,5.1-1.63,9.34-1.64,4.24-.01,4.91,4.86,7.29,8.07,1.21,1.64,10.67,8.22,31.55,10.08,20.88,1.86,24.08-2.91,24.79-3.51,1.44-1.24,1.45-2.3,1.38-3.55s-3.17-6.79-3.17-6.79ZM59.95,14.58c-2.84.4-6.32-.82-11.07-.12-4.75.7-10.52,2.39-13.94,2.69-3.43.3-3.46-1.94,2.19-4.42,5.64-2.48,10.35-2.88,13.98-3.55,3.63-.68,5.24-2.09,9.01-2.06,3.77.02,5.41.34,5.3,3.4-.11,3.07-2.61,3.67-5.46,4.06Z"/>
      <path class="cls-1" d="M1.63,67.24c.55,1.7,1.17,3.26,2.05,6.85.89,3.6,15.84,5.27,16.4,2.86.55-2.41-.08-4.18.06-6.28.14-2.1,8.14-3.76,11.09.39,2.94,4.16,4.6,5.48,7.84,7.94,3.24,2.46,16.83,2.57,18.8,2.07,1.97-.51,1.41-1.7.98-2.86-.43-1.16-5.26-5.62-8.31-8.97-3.05-3.35,1.45-4.07,3.87-5.05,2.41-.98,8.98-2.49,10.36,1.5,1.38,3.99,5.12,6.82,6.77,8.38.92.87,13.5,8.77,31.97,7.21,18.47-1.56,22.64-5.32,29.84-10.24,7.2-4.91,7.04-15.16,3.03-18.67-4.01-3.51-10.69-10.21-32.98-12.06-22.29-1.85-27.41,5.51-32.1,7.52-4.69,2-7.53,1.98-10.76.05-3.23-1.93-4.77-7.53-21.29-7.09-16.52.44-17.34.99-26.63,2.78-9.29,1.79-10.34,2.54-11.22,4.64-.33.81-1.2,4.53-1.27,5.33s-.32,2.59.09,6.25M24.46,57.81c-8.11-.06-5.21-6.89.38-7.58,5.6-.69,16.52,0,15.71,3.34-.81,3.34-7.98,4.3-16.1,4.23ZM104.65,71.8c-15.24.68-18.57-7.49-18.56-10.08,0-2.59,1.31-12.73,18.27-12.01,16.97.72,18.34,9.9,18.25,11.85-.1,1.94-2.72,9.57-17.96,10.25Z"/>
      <path class="cls-1" d="M21.8,102.84c1.7,1.96,1.89,2.39,3.45,4.15,1.57,1.76,12.2,7.48,12.35,6.3.14-1.18-1.31-2.51-1.81-5.12-.5-2.61,6.23-.63,8.98,2.6,2.75,3.22,1.81,2.41,5.4,5.49,3.6,3.08,8.29,4.81,15.08,4.47,6.79-.35,2.67-2.67,1.45-3.7-1.22-1.03-5.49-4.99-7-6.95-1.51-1.96.07-2.1,1.12-2.65,1.05-.54,2.29-1.02,6.78-3.59,4.49-2.57,6.47-1.59,7.64.73,1.17,2.32.42,9.41-.64,12.97-1.07,3.56,2.12,2.83,5.35,2.61,3.23-.22,23.42-6.08,29.29-9.71,5.87-3.63,9.3-7.69,3.57-5.41-5.73,2.28-9.51,3.87-16.17,5.17-5.72,1.11-4.67-3.54,2.07-5.26,7.56-1.92,11.37-3.07,16.85-5.39,5.48-2.32,8.34-7.77,2.1-6.27-6.24,1.5-13.39,3.14-17.79,3.53-4.4.39-6.85-4.24,2.29-5.88,9.14-1.64,14.19-2.26,19.7-3.83,5.51-1.57,7.83-6.5,1.17-6.36-6.66.14-29.19,2.55-35.73,2.95-6.55.4-10.59,2.59-10.9,3.62-.3,1.04.14,1.55-.57,2.84-.71,1.29-3.29,3.3-7.62.81-4.33-2.49-12.07-6.72-24.36-7.72s-18.03-1.82-23.65-2.41c-5.62-.59-8.78-.17-7.93,2.36.85,2.53,3.53,9.32,3.53,9.32,2.03,4.39,3.24,6.47,5.97,10.34ZM36.39,97.81c-7.68-2.22-7.23-6.83-1.67-6.94,5.56-.11,16.63,3.69,16.21,5.97-.42,2.28-6.86,3.19-14.54.97Z"/>
    </g>
  </g>
</svg>