<?xml version="1.0" encoding="UTF-8"?>
<svg id="Layer_2" data-name="Layer 2" xmlns="http://www.w3.org/2000/svg" viewBox="0 0 401.07 232.98">
  <g id="Layer_1-2" data-name="Layer 1">
    <g>
      <path d="M98.53,61.8V20.78l-15.41,41.02h-6.93l-15.31-41.02v41.02h-15.68V1h21.79l12.67,34.46L92.43,1h21.79v60.8h-15.68Z"/>
      <path d="M125.15,1h15.95v35.64c0,7.2,3.83,12.4,12.31,12.4s12.21-5.2,12.21-12.4V1h15.95v36.1c0,15.13-8.66,25.8-28.17,25.8s-28.26-10.76-28.26-25.71V1Z"/>
      <path d="M196.43,41.48c4.38,4.38,11.12,8.02,19.42,8.02,5.38,0,8.66-2.28,8.66-5.2,0-3.46-3.92-4.83-10.39-6.2-10.03-2.01-24.06-4.56-24.06-18.96C190.04,8.93,198.7.09,214.29.09c9.75,0,18.23,2.92,24.7,8.48l-8.57,11.21c-5.1-4.19-11.76-6.29-17.14-6.29s-7.2,2.1-7.2,4.74c0,3.19,3.74,4.28,10.48,5.56,10.03,2.1,23.88,5.01,23.88,18.78,0,12.22-9.02,20.33-25.34,20.33-12.31,0-20.88-3.83-26.98-9.66l8.3-11.76Z"/>
      <path d="M262.91,52.9c-.5,2.02-.73,3.53-.67,4.54.06,1.01.53,1.68,1.43,2.02.9.34,2.3.56,4.2.67l-.34,1.68c-1.62-.11-3.68-.18-6.17-.21-2.49-.03-5-.04-7.52-.04-2.69,0-5.19.01-7.52.04-2.32.03-4.21.1-5.67.21l.42-1.68c1.85-.11,3.29-.34,4.33-.67,1.04-.34,1.86-1.01,2.48-2.02.62-1.01,1.18-2.52,1.68-4.54l11.09-41.66c.56-2.07.78-3.6.67-4.58-.11-.98-.6-1.65-1.47-2.02-.87-.36-2.25-.57-4.16-.63l.42-1.68c1.4.06,3.28.11,5.63.17s4.87.08,7.56.08c2.52,0,5-.03,7.43-.08,2.44-.06,4.55-.11,6.34-.17l-.42,1.68c-1.9.06-3.39.27-4.45.63-1.06.37-1.89,1.04-2.48,2.02-.59.98-1.16,2.51-1.72,4.58l-11.09,41.66Z"/>
      <path d="M279.23,31.45c0-18.78,14.22-31.45,32.45-31.45,15.13,0,22.97,8.29,26.98,16.32l-13.49,6.38c-2.01-4.83-7.2-8.84-13.49-8.84-9.48,0-16.5,7.66-16.5,17.59s7.02,17.59,16.5,17.59c6.29,0,11.49-4.01,13.49-8.84l13.49,6.38c-3.92,7.84-11.85,16.32-26.98,16.32-18.23,0-32.45-12.76-32.45-31.45Z"/>
      <path d="M345.03,70.01c2.92-1.46,6.75-5.1,7.75-8.48-.46.18-1.28.36-2.1.36-3.92,0-7.11-3.28-7.11-7.75s3.83-8.39,8.39-8.39c4.92,0,9.3,3.83,9.3,10.48,0,7.47-4.01,14.04-10.39,18.5l-5.83-4.74Z"/>
      <path d="M35.75,146.8l-22.88-60.8h17.78l14.95,43.85,15.04-43.85h17.78l-22.97,60.8h-19.69Z"/>
      <path d="M82.87,146.8v-60.8h15.68v60.8h-15.68Z"/>
      <path d="M113.41,126.48c4.38,4.38,11.12,8.02,19.42,8.02,5.38,0,8.66-2.28,8.66-5.2,0-3.46-3.92-4.83-10.39-6.2-10.03-2.01-24.06-4.56-24.06-18.96,0-10.21,8.66-19.05,24.25-19.05,9.75,0,18.23,2.92,24.7,8.48l-8.57,11.21c-5.1-4.19-11.76-6.29-17.14-6.29s-7.2,2.1-7.2,4.74c0,3.19,3.74,4.28,10.48,5.56,10.03,2.1,23.88,5.01,23.88,18.78,0,12.22-9.02,20.33-25.34,20.33-12.31,0-20.88-3.83-26.98-9.66l8.3-11.76Z"/>
      <path d="M164.72,86h15.95v35.64c0,7.2,3.83,12.4,12.31,12.4s12.22-5.2,12.22-12.4v-35.64h15.95v36.1c0,15.13-8.66,25.8-28.17,25.8s-28.26-10.76-28.26-25.71v-36.19Z"/>
      <path d="M270.73,146.8l-3.1-9.21h-25.25l-3.1,9.21h-17.05l22.88-60.8h19.69l22.97,60.8h-17.05ZM254.96,99.68l-8.48,24.7h17.05l-8.57-24.7Z"/>
      <path d="M292.24,146.8v-60.8h15.68v47.13h24.43v13.67h-40.11Z"/>
      <path d="M344.38,126.48c4.38,4.38,11.12,8.02,19.42,8.02,5.38,0,8.66-2.28,8.66-5.2,0-3.46-3.92-4.83-10.39-6.2-10.03-2.01-24.06-4.56-24.06-18.96,0-10.21,8.66-19.05,24.25-19.05,9.75,0,18.23,2.92,24.7,8.48l-8.57,11.21c-5.1-4.19-11.76-6.29-17.14-6.29s-7.2,2.1-7.2,4.74c0,3.19,3.74,4.28,10.48,5.56,10.03,2.1,23.88,5.01,23.88,18.78,0,12.22-9.02,20.33-25.34,20.33-12.31,0-20.88-3.83-26.98-9.66l8.3-11.76Z"/>
      <path d="M35.7,183.92c1.29,0,2.38-.38,3.28-1.13.9-.76,1.34-1.75,1.34-2.98,0-1.34-.56-2.42-1.68-3.23-1.12-.81-2.58-1.22-4.37-1.22-2.02,0-3.89.5-5.63,1.51-1.74,1.01-3.14,2.41-4.2,4.2-1.06,1.79-1.6,3.89-1.6,6.3,0,.67.08,1.37.25,2.1.17.73.39,1.46.67,2.18,1.01-.17,2.02-.29,3.02-.38,1.01-.08,1.76-.13,2.27-.13,2.02,0,3.02.59,3.02,1.76,0,.62-.28,1.06-.84,1.34-.56.28-1.15.42-1.76.42-1.06,0-2.14-.24-3.23-.71-1.09-.48-1.95-.85-2.56-1.13-1.96.73-3.72,1.96-5.29,3.7-1.57,1.74-2.8,3.78-3.7,6.13-.9,2.35-1.34,4.87-1.34,7.56,0,3.42.77,6.27,2.31,8.57,1.54,2.3,3.74,4.03,6.59,5.21,2.86,1.18,6.22,1.76,10.08,1.76,2.91,0,5.71-.32,8.4-.97,2.69-.64,5.08-1.61,7.18-2.9,2.1-1.29,3.78-2.91,5.04-4.87,1.26-1.96,1.89-4.25,1.89-6.89,0-2.13-.5-4.2-1.51-6.22-1.01-2.02-2.8-3.64-5.38-4.87l1.01-.84c2.46,1.29,4.35,3.02,5.67,5.21,1.31,2.18,1.97,4.68,1.97,7.48s-.63,5.33-1.89,7.94c-1.26,2.6-3.15,4.97-5.67,7.1-2.52,2.13-5.68,3.84-9.49,5.12-3.81,1.29-8.26,1.93-13.36,1.93s-9.53-.7-13.48-2.1c-3.95-1.4-7.06-3.46-9.32-6.17-2.27-2.72-3.4-6.09-3.4-10.12,0-3.64.94-6.97,2.81-10,1.88-3.02,4.51-5.61,7.9-7.77,3.39-2.16,7.35-3.71,11.89-4.66-2.52-.89-4.38-2.13-5.59-3.7-1.21-1.57-1.81-3.25-1.81-5.04,0-2.35.83-4.31,2.48-5.88,1.65-1.57,3.72-2.74,6.22-3.53,2.49-.78,5.05-1.18,7.69-1.18,3.53,0,6.17.63,7.94,1.89s2.65,2.87,2.65,4.83-.71,3.5-2.14,4.45c-1.43.95-2.87,1.43-4.33,1.43v-1.51ZM44.94,214.08c-.45.9-1.12,1.82-2.02,2.77-.9.95-2.03,1.75-3.4,2.39-1.37.64-3.04.97-5,.97-1.62,0-3.21-.31-4.75-.92-1.54-.62-2.81-1.62-3.82-3.02-1.01-1.4-1.51-3.25-1.51-5.54,0-3.47,1.26-6.43,3.78-8.86,2.52-2.44,6.16-4.44,10.92-6.01,1.51-.5,3.18-1.05,5-1.64,1.82-.59,3.72-1.2,5.71-1.85,1.99-.64,3.95-1.3,5.88-1.97s3.77-1.32,5.5-1.93c1.62-.62,3.21-1.29,4.75-2.02,1.54-.73,2.83-1.64,3.86-2.73,1.04-1.09,1.55-2.51,1.55-4.24,0-2.13-.8-3.82-2.39-5.08-1.6-1.26-3.57-1.89-5.92-1.89-1.12,0-1.93.17-2.44.5,1.23.5,2.16,1.19,2.77,2.06.62.87.92,1.83.92,2.9,0,1.18-.38,2.23-1.13,3.15-.76.92-1.69,1.64-2.81,2.14-1.12.5-2.32.76-3.61.76-1.74,0-3.18-.49-4.33-1.47-1.15-.98-1.72-2.25-1.72-3.82s.49-2.88,1.47-3.95c.98-1.06,2.23-1.88,3.74-2.44,1.12-.5,2.3-.83,3.53-.97,1.23-.14,2.32-.21,3.28-.21,2.18,0,4.13.37,5.84,1.09,1.71.73,3.07,1.9,4.07,3.53,1.01,1.62,1.51,3.81,1.51,6.55,0,2.91-.6,5.42-1.81,7.52-1.2,2.1-3,3.91-5.38,5.42-2.38,1.51-5.31,2.91-8.78,4.2-1.57.56-3.25,1.16-5.04,1.81-1.79.64-3.65,1.27-5.59,1.89s-3.82,1.23-5.67,1.85c-1.85.62-3.56,1.21-5.12,1.76-1.46.5-2.79,1.08-3.99,1.72-1.2.64-2.16,1.41-2.86,2.31-.7.9-1.05,1.96-1.05,3.19,0,1.62.62,2.8,1.85,3.53,1.23.73,2.6,1.09,4.12,1.09,1.68,0,3.12-.31,4.33-.92,1.2-.62,2.17-1.33,2.9-2.14.73-.81,1.26-1.53,1.6-2.14l1.26.67Z"/>
      <path d="M112.44,231.8v-47.13h-17.05v-13.67h49.68v13.67h-16.96v47.13h-15.68Z"/>
      <path d="M145.13,212.82c0-3.7.59-7.5,1.76-11.42,1.18-3.92,2.86-7.67,5.04-11.26,2.18-3.58,4.83-6.8,7.94-9.66,3.11-2.86,6.62-5.12,10.54-6.8,3.92-1.68,8.18-2.52,12.77-2.52,7.11,0,12.7,1.75,16.76,5.25,4.06,3.5,6.09,8.5,6.09,14.99,0,3.7-.59,7.49-1.76,11.38-1.18,3.89-2.87,7.63-5.08,11.21-2.21,3.58-4.89,6.8-8.02,9.66-3.14,2.86-6.65,5.12-10.54,6.8-3.89,1.68-8.13,2.52-12.73,2.52-7.11,0-12.68-1.75-16.72-5.25-4.03-3.5-6.05-8.47-6.05-14.91ZM182.43,172.67c-2.35,0-4.65.77-6.89,2.31-2.24,1.54-4.33,3.67-6.26,6.38-1.93,2.72-3.63,5.83-5.08,9.32-1.46,3.5-2.59,7.24-3.4,11.21-.81,3.98-1.22,7.98-1.22,12.01,0,5.49.85,9.79,2.56,12.89,1.71,3.11,3.88,4.66,6.51,4.66,2.35,0,4.65-.77,6.89-2.31,2.24-1.54,4.33-3.67,6.26-6.38,1.93-2.71,3.63-5.82,5.08-9.32,1.46-3.5,2.59-7.24,3.4-11.21.81-3.98,1.22-7.98,1.22-12.01,0-5.49-.85-9.79-2.56-12.89-1.71-3.11-3.88-4.66-6.51-4.66Z"/>
      <path d="M214.02,171h15.95v35.64c0,7.2,3.83,12.4,12.31,12.4s12.21-5.2,12.21-12.4v-35.64h15.95v36.1c0,15.13-8.66,25.8-28.17,25.8s-28.26-10.76-28.26-25.71v-36.19Z"/>
      <path d="M278.28,201.45c0-18.78,14.22-31.45,32.45-31.45,15.13,0,22.97,8.29,26.98,16.32l-13.49,6.38c-2.01-4.83-7.2-8.84-13.49-8.84-9.48,0-16.5,7.66-16.5,17.59s7.02,17.59,16.5,17.59c6.29,0,11.49-4.01,13.49-8.84l13.49,6.38c-3.92,7.84-11.85,16.32-26.98,16.32-18.23,0-32.45-12.76-32.45-31.45Z"/>
      <path d="M385.39,231.8v-24.43h-25.25v24.43h-15.68v-60.8h15.68v22.7h25.25v-22.7h15.68v60.8h-15.68Z"/>
    </g>
  </g>
</svg>