<?xml version="1.0" encoding="UTF-8"?>
<svg id="Layer_2" data-name="Layer 2" xmlns="http://www.w3.org/2000/svg" viewBox="0 0 626.53 1027.6">
  <defs>
    <style>
      .cls-1 {
        fill: #fff;
      }
    </style>
  </defs>
  <g id="Home_Page_Text_copy" data-name="Home Page Text copy">
    <g id="Abhaya_Libre" data-name="Abhaya Libre">
      <g>
        <path d="M196.93,867.82c15.33,16.04,22.99,39.03,22.99,68.98,0,25.71-6.01,47.64-18.04,65.8,4.01,0,7.2.24,9.55.71,3.77,1.18,5.66,4.95,5.66,11.32h-74.99v-13.79c12.5-.94,23.58-3.54,33.25-7.78,22.88-10.14,34.31-27.71,34.31-52.71,0-6.6-.94-12.61-2.83-18.04-5.66-15.09-16.98-22.64-33.96-22.64-4.95,0-9.78,1.06-14.5,3.18-9.9,4.95-20.16,17.57-30.78,37.85-11.55,22.64-18.27,35.37-20.16,38.2-13.91,22.41-30.65,33.61-50.23,33.61-13.2,0-24.64-4.6-34.31-13.8-14.86-14.38-22.29-35.84-22.29-64.38,0-21.69,4.6-42.33,13.8-61.9-2.12,0-4.01-.12-5.66-.35-4.48-1.18-6.72-5.07-6.72-11.67h64.03v13.8c-12.73.24-23.7,3.3-32.9,9.2-14.62,9.67-21.93,24.18-21.93,43.51,0,4.95.71,9.67,2.12,14.15,4.48,13.44,13.68,20.16,27.59,20.16,5.43,0,10.61-1.18,15.56-3.54,10.14-4.95,20.4-17.33,30.77-37.14,11.56-21.69,18.16-34.08,19.81-37.14,13.92-21.46,30.66-32.19,50.23-32.19,15.56,0,28.77,5.54,39.62,16.63Z"/>
        <path class="cls-1" d="M217.7,1015.22h-76.2v-14.96l.56-.04c12.36-.93,23.48-3.53,33.05-7.73,22.53-9.98,33.95-27.53,33.95-52.16,0-6.51-.94-12.51-2.8-17.84-5.53-14.75-16.77-22.23-33.39-22.23-4.84,0-9.64,1.05-14.26,3.13-9.72,4.86-19.98,17.51-30.49,37.58-11.67,22.87-18.28,35.39-20.2,38.26-13.95,22.47-31.02,33.87-50.73,33.87-13.3,0-24.98-4.7-34.73-13.96-14.91-14.44-22.47-36.24-22.47-64.82,0-21.37,4.53-41.99,13.46-61.31-1.78-.03-3.39-.15-4.8-.35-4.83-1.26-7.24-5.39-7.24-12.27v-.6h65.23v14.99h-.59c-12.56.25-23.52,3.31-32.58,9.11-14.37,9.5-21.65,23.97-21.65,43,0,4.87.71,9.57,2.09,13.97,4.37,13.1,13.46,19.74,27.02,19.74,5.31,0,10.46-1.17,15.31-3.48,9.97-4.87,20.23-17.28,30.5-36.88,10.8-20.28,18.02-33.82,19.81-37.15,14-21.59,31.07-32.51,50.76-32.51,15.66,0,29.14,5.65,40.05,16.81h0c15.37,16.08,23.16,39.43,23.16,69.4,0,25.27-5.9,47.2-17.53,65.2,3.52.04,6.39.28,8.56.71,4.1,1.28,6.15,5.28,6.15,11.91v.6ZM142.7,1014.01h73.78c-.11-5.75-1.82-9.07-5.23-10.14-2.25-.45-5.42-.68-9.37-.68h-1.12l.62-.94c11.9-17.97,17.94-40,17.94-65.46,0-29.65-7.68-52.72-22.82-68.56-10.68-10.91-23.86-16.44-39.18-16.44-19.26,0-35.99,10.74-49.72,31.92-1.76,3.29-8.98,16.83-19.78,37.1-10.38,19.83-20.83,32.41-31.04,37.4-5.01,2.39-10.34,3.6-15.83,3.6-14.14,0-23.61-6.92-28.16-20.58-1.43-4.53-2.15-9.35-2.15-14.34,0-19.46,7.47-34.27,22.2-44.01,9.12-5.84,20.09-8.96,32.63-9.28v-12.6H2.63c.13,5.98,2.18,9.41,6.26,10.49,1.54.22,3.41.33,5.51.33h.95l-.4.86c-9.12,19.4-13.74,40.15-13.74,61.65,0,28.23,7.44,49.75,22.1,63.95,9.51,9.04,20.91,13.63,33.89,13.63,19.26,0,35.99-11.21,49.72-33.32,1.88-2.81,8.65-15.64,20.14-38.16,10.63-20.31,21.07-33.13,31.04-38.12,4.8-2.16,9.76-3.25,14.77-3.25,17.18,0,28.79,7.75,34.52,23.03,1.9,5.47,2.87,11.61,2.87,18.25,0,25.15-11.67,43.06-34.67,53.26-9.55,4.19-20.61,6.81-32.89,7.79v12.63Z"/>
      </g>
      <g>
        <path d="M216.38,720.01h-9.55v-25.12l-67.92,26.53v70.39l67.92,25.47v-19.81c0-1.41.12-2.71.35-3.89.48-3.06,3.54-4.6,9.2-4.6v65.09h-9.55v-22.64L4.14,753.97v-26.18l202.69-83.48v-10.61c0-1.42.12-2.71.35-3.89.48-3.06,3.54-4.6,9.2-4.6v94.8ZM46.94,757.15l81.36,30.42v-61.9l-81.36,31.48Z"/>
        <path class="cls-1" d="M216.99,854.68h-10.76v-22.83L3.54,754.38v-27l.37-.15,202.32-83.33v-10.21c0-1.42.12-2.77.36-4.01.52-3.37,3.82-5.09,9.79-5.09h.6v96.01h-10.76v-24.83l-66.71,26.06v69.56l66.71,25.02v-18.94c0-1.42.12-2.77.36-4.01.52-3.37,3.82-5.09,9.79-5.09h.6v66.29ZM207.44,853.47h8.34v-63.87c-4.9.1-7.59,1.47-8,4.08-.23,1.18-.35,2.45-.35,3.8v20.68l-69.12-25.92v-71.22l.38-.15,68.74-26.85v25.4h8.34v-93.59c-4.9.1-7.59,1.47-8,4.08-.23,1.18-.35,2.45-.35,3.8v11.02l-.37.15L4.74,728.19v25.36l202.69,77.47v22.45ZM128.91,788.44l-83.66-31.28,83.66-32.37v63.66ZM48.64,757.14l79.06,29.56v-60.15l-79.06,30.59Z"/>
      </g>
      <g>
        <path d="M4.14,480.93v-71.46h9.55v28.3h200.92l3.54,20.16-158.83,136.19h147.51v-20.52c.48-4.95,3.66-8.14,9.55-9.55v73.22h-9.55v-28.3H13.69v28.3H4.14v-59.78l146.45-124.87H13.69v28.3H4.14Z"/>
        <path class="cls-1" d="M216.99,637.89h-10.76v-28.3H14.3v28.3H3.54v-60.66l145.41-123.99H14.3v28.3H3.54v-72.66h10.76v28.3h200.83l3.68,21-.26.22-157.59,135.13h145.27v-19.91c.5-5.27,3.87-8.66,10.01-10.14l.74-.18v74.59ZM207.44,636.68h8.34v-71.84c-5.18,1.44-7.91,4.33-8.35,8.83v21.06s-149.74,0-149.74,0l159.81-137.03-3.39-19.33H13.09v-28.3H4.74v70.25h8.34v-28.3h139.14L4.74,577.78v58.9h8.34v-28.3h194.35v28.3Z"/>
      </g>
      <g>
        <path d="M4.14,313.67c0-26.18,6.25-49.05,18.75-68.62,19.34-29.71,48.7-44.57,88.08-44.57,30.9,0,56.13,10.38,75.7,31.13,19.81,21.22,29.71,48.23,29.71,81.01v105.41h-9.55v-28.3H13.69v28.3H4.14v-104.35ZM13.69,340.2h193.14v-26.88c0-11.08-2.24-20.4-6.72-27.95-11.55-19.57-41.86-29.36-90.91-29.36-24.52,0-44.22,2.36-59.07,7.07-24.29,8.26-36.44,24.76-36.44,49.52v27.59Z"/>
        <path class="cls-1" d="M216.99,418.63h-10.76v-28.3H14.3v28.3H3.54v-104.96c0-26.17,6.34-49.36,18.84-68.95,19.37-29.76,49.18-44.85,88.59-44.85,30.92,0,56.54,10.54,76.14,31.32,19.83,21.24,29.88,48.64,29.88,81.42v106.02ZM207.44,417.42h8.34v-104.81c0-32.47-9.94-59.58-29.55-80.59-19.36-20.53-44.68-30.94-75.26-30.94-38.98,0-68.44,14.9-87.58,44.3-12.37,19.39-18.65,42.36-18.65,68.3v103.75h8.34v-28.3h194.35v28.3ZM207.44,340.8H13.09v-28.19c0-24.93,12.4-41.78,36.84-50.1,14.86-4.72,34.8-7.11,59.27-7.11,49.05,0,79.82,9.98,91.43,29.66,4.52,7.6,6.8,17.11,6.8,28.25v27.49ZM14.3,339.6h191.93v-26.28c0-10.92-2.23-20.22-6.64-27.64-11.38-19.29-41.8-29.06-90.39-29.06-24.34,0-44.16,2.37-58.89,7.05-23.89,8.12-36.01,24.59-36.01,48.95v26.99Z"/>
      </g>
      <g>
        <path d="M216.38,155.6h-9.55v-30.07h-80.3L13.69,189.56v16.63H4.14v-99.05h9.55v26.88l97.99-51.65L13.69,34.62v28.3H4.14V.66c4.95.48,8.14,3.66,9.55,9.55.24,7.31,3.54,13.21,9.9,17.69l100.46,48.11h82.77v-20.52c.48-4.95,3.66-8.14,9.55-9.55v109.66Z"/>
        <path class="cls-1" d="M14.3,206.79H3.54v-100.25h10.76v26.49l96.05-50.62L14.3,35.59v27.94H3.54V0l.66.06c5.21.5,8.6,3.87,10.08,10.01l.02.12c.23,7.07,3.46,12.85,9.61,17.18l100.29,48.03h82.03v-19.91c.5-5.27,3.87-8.66,10.01-10.14l.74-.18v111.03h-10.76v-30.07h-79.54L14.3,189.91v16.88ZM4.74,205.58h8.34v-16.37l113.29-64.28h81.06v30.07h8.34V46.72c-5.18,1.44-7.91,4.33-8.35,8.83v21.06s-83.51,0-83.51,0l-.12-.06L23.25,28.4c-6.48-4.56-9.9-10.65-10.16-18.1C11.79,4.94,9.06,2,4.74,1.35v60.97h8.34v-28.66l99.92,48.7L13.09,135.02v-27.28H4.74v97.84Z"/>
      </g>
      <g>
        <path d="M419.38,1027h-9.55v-28.3h-193.14v28.3h-9.55v-106.12h9.55v28.3h88.08v-89.85h-88.08v28.3h-9.55v-106.12h9.55v28.3h193.14v-18.75c.48-4.95,3.66-8.14,9.55-9.55v106.12h-9.55v-28.3h-94.45v89.85h94.45v-18.75c.48-4.95,3.66-8.14,9.55-9.55v106.12Z"/>
        <path class="cls-1" d="M419.99,1027.6h-10.76v-28.3h-191.93v28.3h-10.76v-107.33h10.76v28.3h86.87v-88.64h-86.87v28.3h-10.76v-107.33h10.76v28.3h191.93v-18.14c.5-5.27,3.87-8.66,10.01-10.14l.74-.18v107.49h-10.76v-28.3h-93.24v88.64h93.24v-18.14c.5-5.27,3.87-8.66,10.01-10.14l.74-.18v107.49ZM410.44,1026.39h8.34v-104.74c-5.18,1.44-7.91,4.33-8.35,8.83v19.29s-95.65,0-95.65,0v-91.06h95.66v28.3h8.34v-104.74c-5.18,1.44-7.91,4.33-8.35,8.83v19.29s-194.35,0-194.35,0v-28.3h-8.34v104.91h8.34v-28.3h89.29v91.06h-89.29v-28.3h-8.34v104.91h8.34v-28.3h194.35v28.3Z"/>
      </g>
      <g>
        <path d="M207.14,788.28v-106.12h9.55v28.3h122.04c13.44,0,25-1.06,34.67-3.18,25.94-5.66,38.91-20.39,38.91-44.22-.23-37.73-24.76-56.71-73.58-56.95h-122.04v28.3h-9.55v-69.69h9.55v28.3h119.92c16.75,0,31.01,1.89,42.8,5.66,29.01,9.91,43.51,33.84,43.51,71.81-.24,59.2-27.35,89.03-81.36,89.5h-124.87v28.3h-9.55Z"/>
        <path class="cls-1" d="M217.3,788.88h-10.76v-107.33h10.76v28.3h121.44c13.34,0,24.96-1.07,34.54-3.17,25.5-5.56,38.44-20.24,38.44-43.63-.11-18.58-6.28-32.73-18.34-42.06-12.1-9.37-30.48-14.17-54.64-14.29h-121.43v28.3h-10.76v-70.89h10.76v28.3h119.31c16.72,0,31.18,1.91,42.99,5.69,29.15,9.96,43.93,34.31,43.93,72.38-.12,29.62-7.07,52.22-20.67,67.18-13.61,14.98-34.23,22.69-61.28,22.92h-124.27v28.3ZM207.74,787.67h8.34v-28.3h125.47c26.7-.23,47.02-7.81,60.4-22.53,6.69-7.36,11.79-16.66,15.17-27.65,3.39-11.02,5.13-24.04,5.19-38.71,0-37.5-14.5-61.47-43.1-71.24-11.67-3.73-26.01-5.63-42.61-5.63h-120.52v-28.3h-8.34v68.48h8.34v-28.3h122.64c48.99.24,73.95,19.6,74.18,57.55,0,24.04-13.25,39.11-39.39,44.81-9.66,2.12-21.37,3.2-34.8,3.2h-122.64v-28.3h-8.34v104.92Z"/>
      </g>
      <g>
        <path d="M321.75,341.56h9.55v22.99h88.08l-7.43,42.8c7.08,15.56,10.61,32.78,10.61,51.65,0,23.82-5.78,44.92-17.33,63.32-19.57,30.42-50.46,45.63-92.68,45.63-32.78,0-59.07-9.67-78.88-29.01-20.04-20.28-30.07-46.57-30.07-78.88,0-17.92,3.42-35.02,10.26-51.29l-6.72-33.25,74.99-1.42v10.97h-.71c-44.57,8.96-66.86,30.31-66.86,64.03,0,2.83.12,5.66.35,8.49,4.01,37.03,37.03,55.54,99.05,55.54,20.75,0,38.2-1.88,52.35-5.66,30.19-8.25,45.28-26.76,45.28-55.54,0-14.86-4.25-27.71-12.73-38.56h-67.56v30.07h-9.55v-101.88Z"/>
        <path class="cls-1" d="M312.56,568.56c-32.79,0-59.47-9.82-79.31-29.18-20.07-20.31-30.25-47-30.25-79.31,0-17.85,3.44-35.13,10.23-51.35l-6.83-33.78,76.33-1.44v12.18h-1.25c-22.04,4.44-38.79,12.03-49.79,22.56-10.97,10.5-16.53,24.25-16.53,40.86,0,2.75.12,5.59.35,8.44,1.97,18.21,11.21,32.06,27.46,41.18,16.34,9.16,40.22,13.81,70.98,13.81,20.61,0,38.17-1.9,52.2-5.64,29.75-8.13,44.83-26.62,44.83-54.95,0-14.54-4.18-27.31-12.43-37.95h-66.67v30.07h-10.76v-103.08h10.76v22.99h88.19l-7.52,43.33c7.03,15.53,10.59,32.93,10.59,51.73,0,23.83-5.86,45.24-17.43,63.64-19.6,30.47-50.96,45.91-93.19,45.91ZM207.88,376.11l6.61,32.72-.07.17c-6.78,16.13-10.21,33.3-10.21,51.06,0,31.99,10.06,58.39,29.89,78.46,19.59,19.13,45.99,28.83,78.45,28.83,41.8,0,72.81-15.26,92.17-45.35,11.44-18.2,17.24-39.4,17.24-62.99,0-18.69-3.55-35.98-10.56-51.4l-.08-.17,7.34-42.28h-87.97v-22.99h-8.34v100.67h8.34v-30.07h68.46l.18.23c8.53,10.91,12.86,24.01,12.86,38.93,0,28.95-15.38,47.83-45.72,56.12-14.13,3.77-31.8,5.68-52.51,5.68-62.09,0-95.61-18.87-99.65-56.07-.24-2.89-.36-5.77-.36-8.55,0-33.89,22.66-55.63,67.34-64.62h.22v-9.76l-73.65,1.39Z"/>
      </g>
      <g>
        <path d="M419.38,344.8h-9.55v-28.3h-193.14v28.3h-9.55v-106.12h9.55v28.3h88.08v-89.85h-88.08v28.3h-9.55v-106.12h9.55v28.3h193.14v-18.75c.48-4.95,3.66-8.14,9.55-9.55v106.12h-9.55v-28.3h-94.45v89.85h94.45v-18.75c.48-4.95,3.66-8.14,9.55-9.55v106.12Z"/>
        <path class="cls-1" d="M419.99,345.4h-10.76v-28.3h-191.93v28.3h-10.76v-107.33h10.76v28.3h86.87v-88.64h-86.87v28.3h-10.76v-107.33h10.76v28.3h191.93v-18.14c.5-5.27,3.87-8.66,10.01-10.14l.74-.18v107.49h-10.76v-28.3h-93.24v88.64h93.24v-18.14c.5-5.27,3.87-8.66,10.01-10.14l.74-.18v107.49ZM410.44,344.19h8.34v-104.74c-5.18,1.44-7.91,4.33-8.35,8.83v19.29s-95.65,0-95.65,0v-91.06h95.66v28.3h8.34v-104.74c-5.18,1.44-7.91,4.33-8.35,8.83v19.29s-194.35,0-194.35,0v-28.3h-8.34v104.91h8.34v-28.3h89.29v91.06h-89.29v-28.3h-8.34v104.91h8.34v-28.3h194.35v28.3Z"/>
      </g>
      <g>
        <path d="M478.06,858.97l-24.41,7.78c-2.12.71-4.24,1.54-6.37,2.48-18.39,7.31-27.59,20.64-27.59,39.97v39.97h88.08v-67.92h10.61v67.92h94.45v-39.97c0-4.48-.47-8.72-1.42-12.73-3.54-13.44-14.38-23.22-32.54-29.36l-24.41-8.14v-10.26l67.92,1.42v176.87h-9.55v-28.3h-193.14v28.3h-9.55v-176.87l67.92-1.42v10.26Z"/>
        <path class="cls-1" d="M622.99,1027.6h-10.76v-28.3h-191.93v28.3h-10.76v-178.06l69.12-1.44v11.32l-24.83,7.92c-2.05.68-4.18,1.51-6.31,2.45-18.08,7.19-27.23,20.45-27.23,39.42v39.37h86.87v-67.92h11.82v67.92h93.24v-39.37c0-4.42-.47-8.65-1.4-12.6-3.46-13.15-14.28-22.89-32.15-28.93l-24.82-8.27v-11.31l69.12,1.44v178.06ZM613.44,1026.39h8.34v-175.67l-66.71-1.39v9.21l24,8c18.28,6.18,29.36,16.19,32.94,29.78.95,4.05,1.43,8.38,1.43,12.89v40.58h-95.66v-67.92h-9.41v67.92h-89.29v-40.58c0-19.52,9.41-33.15,27.97-40.53,2.14-.95,4.3-1.79,6.4-2.49l24-7.65v-9.2l-66.71,1.39v175.67h8.34v-28.3h194.35v28.3Z"/>
      </g>
      <g>
        <path d="M602.93,683.93c15.33,16.04,22.99,39.03,22.99,68.98,0,25.71-6.01,47.64-18.04,65.8,4.01,0,7.2.24,9.55.71,3.77,1.18,5.66,4.95,5.66,11.32h-74.99v-13.79c12.5-.94,23.58-3.54,33.25-7.78,22.88-10.14,34.31-27.71,34.31-52.71,0-6.6-.94-12.61-2.83-18.04-5.66-15.09-16.98-22.64-33.96-22.64-4.95,0-9.78,1.06-14.5,3.18-9.9,4.95-20.16,17.57-30.78,37.85-11.55,22.64-18.27,35.37-20.16,38.2-13.91,22.41-30.65,33.61-50.23,33.61-13.2,0-24.64-4.6-34.31-13.8-14.86-14.38-22.29-35.84-22.29-64.38,0-21.69,4.6-42.33,13.8-61.9-2.12,0-4.01-.12-5.66-.35-4.48-1.18-6.72-5.07-6.72-11.67h64.03v13.8c-12.73.24-23.7,3.3-32.9,9.2-14.62,9.67-21.93,24.18-21.93,43.51,0,4.95.71,9.67,2.12,14.15,4.48,13.44,13.68,20.16,27.59,20.16,5.43,0,10.61-1.18,15.56-3.54,10.14-4.95,20.4-17.33,30.77-37.14,11.56-21.69,18.16-34.08,19.81-37.14,13.92-21.46,30.66-32.19,50.23-32.19,15.56,0,28.77,5.54,39.62,16.63Z"/>
        <path class="cls-1" d="M623.7,831.33h-76.2v-14.96l.56-.04c12.36-.93,23.48-3.53,33.05-7.73,22.53-9.98,33.95-27.53,33.95-52.16,0-6.51-.94-12.51-2.8-17.84-5.53-14.75-16.77-22.23-33.39-22.23-4.84,0-9.64,1.05-14.26,3.13-9.72,4.86-19.98,17.51-30.49,37.58-11.67,22.87-18.28,35.39-20.2,38.26-13.95,22.47-31.02,33.87-50.73,33.87-13.3,0-24.98-4.7-34.73-13.96-14.91-14.44-22.47-36.24-22.47-64.82,0-21.37,4.53-41.99,13.46-61.31-1.78-.03-3.39-.15-4.8-.35-4.83-1.26-7.24-5.39-7.24-12.27v-.6h65.23v14.99h-.59c-12.56.25-23.52,3.31-32.58,9.11-14.37,9.5-21.65,23.97-21.65,43,0,4.87.71,9.57,2.09,13.97,4.37,13.1,13.46,19.74,27.02,19.74,5.31,0,10.46-1.17,15.31-3.48,9.97-4.87,20.23-17.28,30.5-36.88,10.8-20.28,18.02-33.82,19.81-37.15,14-21.59,31.07-32.51,50.76-32.51,15.66,0,29.14,5.65,40.05,16.81h0c15.37,16.08,23.16,39.43,23.16,69.4,0,25.27-5.9,47.2-17.53,65.2,3.52.04,6.39.28,8.56.71,4.1,1.28,6.15,5.28,6.15,11.91v.6ZM548.7,830.12h73.78c-.11-5.75-1.82-9.07-5.23-10.14-2.25-.45-5.42-.68-9.37-.68h-1.12l.62-.94c11.9-17.97,17.94-40,17.94-65.46,0-29.65-7.68-52.72-22.82-68.56-10.68-10.91-23.86-16.44-39.18-16.44-19.26,0-35.99,10.74-49.72,31.92-1.76,3.29-8.98,16.83-19.78,37.1-10.38,19.83-20.83,32.41-31.04,37.4-5.01,2.39-10.34,3.6-15.83,3.6-14.14,0-23.61-6.92-28.16-20.58-1.43-4.53-2.15-9.35-2.15-14.34,0-19.46,7.47-34.27,22.2-44.01,9.12-5.84,20.09-8.96,32.63-9.28v-12.6h-62.81c.13,5.98,2.18,9.41,6.26,10.49,1.54.22,3.41.33,5.51.33h.95l-.4.86c-9.12,19.4-13.74,40.15-13.74,61.65,0,28.23,7.44,49.75,22.1,63.95,9.51,9.04,20.91,13.63,33.89,13.63,19.26,0,35.99-11.21,49.72-33.32,1.88-2.81,8.65-15.64,20.14-38.16,10.63-20.31,21.07-33.13,31.04-38.12,4.8-2.16,9.76-3.25,14.77-3.25,17.18,0,28.79,7.75,34.52,23.03,1.9,5.47,2.87,11.61,2.87,18.25,0,25.15-11.67,43.06-34.67,53.26-9.55,4.19-20.61,6.81-32.89,7.79v12.63Z"/>
      </g>
    </g>
  </g>
</svg>