<?xml version="1.0" encoding="UTF-8"?>
<svg id="Layer_2" data-name="Layer 2" xmlns="http://www.w3.org/2000/svg" viewBox="0 0 627.75 1025.39">
  <defs>
    <style>
      .cls-1 {
        fill: #fff;
      }
    </style>
  </defs>
  <g id="Home_Page_Text_copy" data-name="Home Page Text copy">
    <g id="Bangla_MN" data-name="Bangla MN">
      <g>
        <path d="M211.65,946.19c0-5.29-.73-10.53-2.19-15.72-1.46-5.19-3.62-9.83-6.48-13.94-2.86-4.1-6.37-7.4-10.53-9.88-4.16-2.48-8.99-3.73-14.5-3.73-6.59,0-12.45,1.7-17.58,5.1-5.13,3.4-9.83,7.86-14.1,13.37-4.27,5.51-8.29,11.8-12.07,18.88-3.78,7.08-7.56,14.29-11.34,21.63-3.78,7.35-7.75,14.56-11.91,21.63-4.16,7.08-8.8,13.37-13.94,18.88-5.13,5.51-10.86,9.97-17.18,13.37-6.32,3.4-13.59,5.1-21.8,5.1s-15.83-1.54-22.85-4.62c-7.02-3.08-13.1-7.59-18.23-13.53-5.13-5.94-9.16-13.26-12.07-21.96-2.92-8.7-4.38-18.66-4.38-29.9,0-10.15,1.08-19.23,3.24-27.23,2.16-7.99,5.35-15.02,9.56-21.07,4.21-6.05,9.4-11.18,15.56-15.4,6.16-4.21,13.29-7.62,21.39-10.21l8.43,18.47c-6.59,2.16-12.61,4.92-18.07,8.26-5.45,3.35-10.13,7.35-14.02,11.99-3.89,4.65-6.89,10.02-8.99,16.12-2.11,6.11-3.16,12.99-3.16,20.66,0,6.81.95,12.75,2.84,17.83,1.89,5.08,4.38,9.32,7.45,12.72s6.54,5.94,10.37,7.62c3.84,1.68,7.75,2.51,11.75,2.51,5.62,0,10.78-1.73,15.48-5.19,4.7-3.46,9.13-8.05,13.29-13.77,4.16-5.73,8.18-12.24,12.07-19.53,3.89-7.29,7.83-14.72,11.83-22.28,4-7.56,8.16-14.99,12.48-22.28,4.32-7.29,9.05-13.8,14.18-19.53,5.13-5.72,10.75-10.32,16.85-13.77,6.1-3.46,12.94-5.19,20.5-5.19,8.54,0,16.56,1.62,24.07,4.86,7.51,3.24,14.05,8.1,19.61,14.58,5.57,6.48,9.97,14.53,13.21,24.15,3.24,9.62,4.86,20.8,4.86,33.55,0,10.37-1.13,19.61-3.4,27.71-2.27,8.1-5.56,15.26-9.89,21.47-4.32,6.21-9.59,11.53-15.8,15.96-6.21,4.43-13.31,8.05-21.31,10.86l-7.94-19.28c7.02-2.27,13.29-5.32,18.8-9.16,5.51-3.83,10.18-8.29,14.02-13.37,3.84-5.08,6.78-10.72,8.83-16.93,2.05-6.21,3.08-12.83,3.08-19.85Z"/>
        <path class="cls-1" d="M174.59,1025.39l-8.32-20.2.5-.16c6.95-2.24,13.23-5.3,18.67-9.09,5.45-3.79,10.12-8.25,13.91-13.26,3.79-5.01,6.74-10.66,8.76-16.79,2.03-6.13,3.05-12.76,3.05-19.7,0-5.22-.73-10.47-2.17-15.59-1.44-5.11-3.59-9.75-6.41-13.79-2.81-4.03-6.3-7.3-10.38-9.75-4.06-2.43-8.86-3.66-14.25-3.66-6.46,0-12.29,1.69-17.31,5.02-5.06,3.36-9.77,7.82-13.98,13.26-4.22,5.45-8.27,11.78-12.03,18.81-3.76,7.03-7.57,14.31-11.34,21.63-3.77,7.32-7.78,14.61-11.92,21.66-4.15,7.07-8.86,13.45-14,18.96-5.14,5.52-10.96,10.05-17.3,13.47-6.36,3.43-13.77,5.16-22.03,5.16s-15.99-1.57-23.05-4.66c-7.06-3.09-13.25-7.69-18.4-13.66-5.15-5.96-9.24-13.4-12.17-22.12-2.92-8.7-4.4-18.82-4.4-30.05,0-10.15,1.1-19.35,3.26-27.35,2.17-8.01,5.41-15.15,9.63-21.22,4.23-6.07,9.5-11.29,15.68-15.52,6.17-4.22,13.41-7.68,21.52-10.27l.41-.13,8.83,19.36-.52.17c-6.52,2.14-12.57,4.91-17.97,8.22-5.39,3.31-10.06,7.31-13.9,11.89-3.83,4.58-6.83,9.95-8.91,15.97-2.08,6.03-3.13,12.93-3.13,20.5,0,6.71.94,12.65,2.81,17.66,1.86,5,4.34,9.22,7.36,12.57,3.02,3.34,6.45,5.86,10.21,7.5,3.75,1.64,7.64,2.47,11.55,2.47,5.49,0,10.6-1.71,15.19-5.09,4.64-3.41,9.08-8.01,13.18-13.67,4.12-5.67,8.17-12.23,12.04-19.47,3.89-7.29,7.83-14.72,11.83-22.28,3.98-7.54,8.19-15.04,12.49-22.3,4.31-7.28,9.1-13.87,14.24-19.6,5.14-5.74,10.85-10.4,16.98-13.87,6.15-3.48,13.13-5.25,20.74-5.25,8.56,0,16.73,1.65,24.26,4.9,7.54,3.25,14.2,8.21,19.79,14.71,5.58,6.5,10.05,14.67,13.3,24.31,3.24,9.62,4.89,20.96,4.89,33.7,0,10.37-1.15,19.73-3.42,27.84-2.27,8.12-5.62,15.4-9.96,21.62-4.33,6.23-9.69,11.64-15.92,16.08-6.22,4.44-13.43,8.11-21.43,10.92l-.44.15ZM167.57,1005.8l7.57,18.37c7.74-2.76,14.72-6.34,20.75-10.64,6.14-4.38,11.42-9.71,15.68-15.84,4.27-6.13,7.57-13.31,9.82-21.33,2.25-8.02,3.39-17.3,3.39-27.58,0-12.63-1.63-23.87-4.84-33.39-3.21-9.51-7.62-17.58-13.12-23.99-5.49-6.4-12.03-11.26-19.43-14.46-7.41-3.2-15.44-4.82-23.87-4.82-7.44,0-14.26,1.72-20.26,5.12-6.03,3.42-11.66,8.02-16.73,13.68-5.09,5.68-9.84,12.23-14.12,19.45-4.3,7.25-8.49,14.74-12.47,22.26-4,7.56-7.94,14.99-11.83,22.28-3.89,7.29-7.96,13.87-12.11,19.58-4.16,5.74-8.67,10.41-13.39,13.88-4.76,3.5-10.07,5.28-15.76,5.28-4.05,0-8.07-.86-11.94-2.55-3.88-1.69-7.43-4.3-10.54-7.74-3.11-3.43-5.65-7.77-7.55-12.88-1.9-5.11-2.87-11.17-2.87-18,0-7.69,1.07-14.69,3.19-20.82,2.12-6.13,5.17-11.61,9.08-16.28,3.9-4.66,8.66-8.73,14.14-12.09,5.32-3.26,11.26-6,17.66-8.14l-8.02-17.59c-7.85,2.55-14.87,5.92-20.85,10.01-6.08,4.16-11.27,9.3-15.43,15.27-4.16,5.97-7.35,13.01-9.49,20.92-2.14,7.92-3.22,17.04-3.22,27.1,0,11.13,1.46,21.14,4.35,29.75,2.88,8.6,6.91,15.93,11.98,21.79,5.06,5.86,11.13,10.37,18.06,13.4,6.93,3.04,14.55,4.58,22.65,4.58s15.35-1.7,21.57-5.05c6.25-3.37,11.99-7.83,17.05-13.27,5.09-5.46,9.76-11.79,13.87-18.79,4.14-7.04,8.14-14.31,11.9-21.61,3.77-7.32,7.59-14.6,11.35-21.64,3.78-7.08,7.86-13.45,12.12-18.95,4.28-5.53,9.06-10.06,14.21-13.48,5.19-3.44,11.2-5.19,17.85-5.19,5.57,0,10.54,1.28,14.75,3.8,4.2,2.51,7.8,5.88,10.68,10.02,2.88,4.13,5.09,8.87,6.55,14.08,1.46,5.21,2.21,10.54,2.21,15.85,0,7.04-1.04,13.77-3.1,20-2.06,6.23-5.05,11.98-8.91,17.08-3.84,5.09-8.6,9.63-14.13,13.48-5.39,3.75-11.59,6.8-18.43,9.06Z"/>
      </g>
      <g>
        <path d="M.49,746.05l219.75-101.12v36.79l-71.63,32.74v92.21l71.63,33.87v18.15L.49,755.12v-9.08ZM134.67,800.34v-79.25l-85.08,39.06,85.08,40.19Z"/>
        <path class="cls-1" d="M220.72,859.44l-.69-.33L0,755.43v-9.7l.28-.13,220.44-101.44v37.86l-71.63,32.74v91.59l71.63,33.87v19.22ZM.97,754.81l218.78,103.1v-17.08l-71.63-33.87v-92.83l71.63-32.74v-35.72L.97,746.36v8.46ZM135.16,801.1l-86.72-40.96,86.72-39.81v80.77ZM50.74,760.15l83.44,39.42v-77.72l-83.44,38.3Z"/>
      </g>
      <g>
        <path d="M5.35,620.94v-20.26l157.2-140.83v-1.62H5.35v-15.88h219.91v8.43l-174.7,152.5v1.3h169.67v16.37H5.35Z"/>
        <path class="cls-1" d="M220.72,621.43H4.86v-20.96l.16-.15,157.03-140.68v-.92H4.86v-16.85h220.89v9.13l-.17.15-174.53,152.35v.59h169.67v17.34ZM5.83,620.46h213.92v-15.4H50.08v-2l.17-.15,174.53-152.35v-7.72H5.83v14.91h157.2v2.32l-.16.15L5.83,600.9v19.55Z"/>
      </g>
      <g>
        <path d="M5.35,401.52v-71.63c0-22.04,2.05-41,6.16-56.88,4.11-15.88,10.7-29.11,19.77-39.7,10.37-12.1,22.26-21.2,35.65-27.31,13.4-6.1,28.04-9.16,43.92-9.16s29.33,2.73,42.62,8.18c13.29,5.46,24.88,13.45,34.76,23.98,9.89,10.53,17.69,23.55,23.42,39.06,5.73,15.5,8.59,33.25,8.59,53.24v80.22H5.35ZM204.52,365.38v-38.41c0-12.1-2-23.5-6-34.19-4-10.7-9.94-20.01-17.83-27.95-7.89-7.94-17.58-14.21-29.09-18.8-11.51-4.59-24.82-6.89-39.95-6.89-13.29,0-25.47,2.16-36.54,6.48-11.07,4.32-20.61,10.37-28.6,18.15-7.99,7.78-14.21,17.04-18.64,27.79-4.43,10.75-6.64,22.5-6.64,35.25v38.57h183.29Z"/>
        <path class="cls-1" d="M220.72,402.01H4.86v-72.12c0-21.97,2.08-41.15,6.17-57,4.11-15.88,10.79-29.3,19.87-39.9,10.37-12.1,22.42-21.33,35.82-27.43,13.4-6.1,28.25-9.2,44.12-9.2s29.52,2.77,42.81,8.22c13.29,5.46,25.04,13.57,34.93,24.1,9.88,10.53,17.8,23.73,23.52,39.22,5.72,15.48,8.62,33.45,8.62,53.4v80.7ZM5.83,401.04h213.92v-79.73c0-19.84-2.88-37.69-8.56-53.07-5.68-15.37-13.52-28.45-23.32-38.89-9.79-10.43-21.43-18.46-34.59-23.87-13.17-5.41-27.45-8.15-42.44-8.15-15.73,0-30.44,3.07-43.72,9.11-13.27,6.05-25.21,15.19-35.49,27.18-8.98,10.48-15.6,23.77-19.67,39.51-4.08,15.77-6.14,34.87-6.14,56.76v71.14ZM205,365.87H20.74v-39.06c0-12.75,2.25-24.67,6.68-35.43,4.44-10.76,10.75-20.17,18.75-27.96,8-7.79,17.68-13.93,28.77-18.25,11.08-4.32,23.44-6.52,36.72-6.52,15.11,0,28.62,2.33,40.13,6.92,11.52,4.6,21.36,10.96,29.25,18.91,7.9,7.95,13.94,17.42,17.94,28.13,4,10.7,6.03,22.26,6.03,34.36v38.89ZM21.72,364.9h182.31v-37.92c0-11.99-2.01-23.44-5.97-34.02-3.95-10.58-9.91-19.93-17.72-27.78-7.8-7.85-17.53-14.14-28.92-18.69-11.4-4.55-24.78-6.85-39.77-6.85-13.16,0-25.4,2.17-36.37,6.45-10.96,4.28-20.53,10.35-28.44,18.05-7.91,7.69-14.14,16.99-18.53,27.63-4.38,10.64-6.61,22.44-6.61,35.06v38.08Z"/>
      </g>
      <g>
        <path d="M5.35,169.3l108.9-74.55L5.35,20.53V.92l122.03,83.3h92.86v36.14h-89.46L5.35,206.25v-36.95Z"/>
        <path class="cls-1" d="M4.86,207.17v-38.13l108.53-74.29L4.86,20.79V0l122.67,83.73h93.19v37.11h-89.79L4.86,207.17ZM5.83,169.55v35.77l124.8-85.45h89.12v-35.17h-92.52l-.12-.08L5.83,1.84v18.43l109.28,74.48L5.83,169.55Z"/>
      </g>
      <g>
        <path d="M318.17,980.38h103.07v36.14h-214.89v-36.14h97.88v-107.93h-97.88v-36.14h214.89v36.14h-103.07v107.93Z"/>
        <path class="cls-1" d="M421.72,1017h-215.86v-37.11h97.88v-106.96h-97.88v-37.11h215.86v37.11h-103.07v106.96h103.07v37.11ZM206.83,1016.03h213.92v-35.17h-103.07v-108.9h103.07v-35.17h-213.92v35.17h97.88v108.9h-97.88v35.17Z"/>
      </g>
      <g>
        <path d="M206.35,798.55v-36.14h139.53c9.18,0,17.8-1.57,25.85-4.7,8.05-3.13,15.1-7.62,21.15-13.45,6.05-5.83,10.83-12.88,14.34-21.15,3.51-8.26,5.27-17.47,5.27-27.63s-1.75-19.5-5.27-27.71c-3.51-8.21-8.29-15.21-14.34-20.99-6.05-5.78-13.1-10.21-21.15-13.29-8.05-3.08-16.66-4.62-25.85-4.62h-139.53v-15.88h139.53c11.02,0,21.39,1.78,31.12,5.35,9.72,3.57,18.23,9.16,25.52,16.77,7.29,7.62,13.07,17.37,17.34,29.25,4.27,11.89,6.4,26.15,6.4,42.78,0,14.8-2.13,27.9-6.4,39.3-4.27,11.4-10.07,20.96-17.42,28.68-7.35,7.73-15.96,13.56-25.85,17.5-9.89,3.94-20.44,5.92-31.68,5.92h-138.56Z"/>
        <path class="cls-1" d="M344.91,799.04h-139.05v-37.11h140.02c9.08,0,17.72-1.57,25.67-4.67,7.95-3.09,15.01-7.58,20.99-13.35,5.98-5.76,10.76-12.82,14.23-20.99,3.47-8.16,5.23-17.4,5.23-27.44s-1.76-19.41-5.23-27.52c-3.47-8.11-8.26-15.12-14.23-20.83-5.98-5.71-13.04-10.15-20.99-13.19-7.95-3.04-16.59-4.59-25.67-4.59h-140.02v-16.85h140.02c11.02,0,21.55,1.81,31.28,5.38,9.75,3.57,18.4,9.26,25.71,16.89,7.31,7.63,13.18,17.53,17.45,29.42,4.27,11.89,6.43,26.33,6.43,42.95,0,14.79-2.16,28.07-6.43,39.47-4.27,11.41-10.17,21.12-17.52,28.85-7.36,7.74-16.11,13.67-26.02,17.62-9.89,3.95-20.61,5.95-31.86,5.95ZM206.83,798.07h138.07c11.12,0,21.72-1.98,31.5-5.88,9.77-3.9,18.41-9.75,25.68-17.39,7.27-7.64,13.09-17.23,17.32-28.52,4.23-11.29,6.37-24.46,6.37-39.13,0-16.5-2.14-30.84-6.37-42.62-4.22-11.76-10.02-21.55-17.23-29.08-7.21-7.53-15.73-13.13-25.34-16.65-9.63-3.53-20.04-5.32-30.95-5.32h-139.05v14.91h139.05c9.2,0,17.96,1.56,26.02,4.65,8.07,3.09,15.24,7.59,21.31,13.39,6.07,5.8,10.93,12.91,14.45,21.15,3.52,8.23,5.31,17.62,5.31,27.9s-1.79,19.54-5.31,27.82c-3.52,8.29-8.38,15.46-14.45,21.31-6.07,5.85-13.24,10.41-21.31,13.55-8.06,3.14-16.82,4.73-26.02,4.73h-139.05v35.17Z"/>
      </g>
      <g>
        <path d="M216.88,447.54c0,12.96,2.3,24.93,6.89,35.9,4.59,10.97,11.18,20.42,19.77,28.36,8.59,7.94,18.96,14.13,31.12,18.56,12.15,4.43,25.74,6.64,40.76,6.64s28.77-2.4,40.92-7.21c12.15-4.81,22.5-11.4,31.03-19.77,8.54-8.37,15.1-18.23,19.69-29.58,4.59-11.34,6.89-23.5,6.89-36.46,0-9.4-1.27-17.88-3.81-25.44-2.54-7.56-6.18-14.37-10.94-20.42h-75.36v40.68h-12.8v-76.81h94.48c3.35,6.27,6.32,12.59,8.91,18.96,2.59,6.38,4.76,13.26,6.48,20.66,1.73,7.4,3.05,15.53,3.97,24.39.92,8.86,1.38,18.91,1.38,30.14,0,11.89-1.32,23.17-3.97,33.87-2.65,10.7-6.4,20.61-11.26,29.74-4.86,9.13-10.67,17.37-17.42,24.71-6.75,7.35-14.23,13.59-22.44,18.72-8.21,5.13-17.04,9.1-26.5,11.91-9.45,2.81-19.2,4.21-29.25,4.21s-19.85-1.32-29.41-3.97c-9.56-2.65-18.58-6.45-27.06-11.42-8.48-4.97-16.23-11.02-23.26-18.15-7.02-7.13-13.07-15.18-18.15-24.15-5.08-8.97-9.02-18.74-11.83-29.33-2.81-10.59-4.21-21.82-4.21-33.71s1.54-21.85,4.62-31.52c3.08-9.67,7.16-18.47,12.24-26.42,5.08-7.94,10.94-14.99,17.58-21.15,6.64-6.16,13.59-11.45,20.82-15.88l10.37,15.56c-17.39,9.08-30.11,19.15-38.16,30.22-8.05,11.08-12.07,23.8-12.07,38.16Z"/>
        <path class="cls-1" d="M315.41,579.78c-10.05,0-19.99-1.34-29.54-3.99-9.56-2.65-18.7-6.51-27.18-11.47-8.47-4.96-16.33-11.09-23.36-18.23-7.02-7.13-13.15-15.29-18.23-24.25-5.07-8.96-9.07-18.86-11.88-29.45-2.81-10.58-4.23-21.96-4.23-33.83s1.56-21.99,4.64-31.67c3.08-9.66,7.21-18.59,12.29-26.53,5.08-7.94,11.02-15.09,17.66-21.24,6.63-6.14,13.66-11.51,20.9-15.94l.4-.24,10.93,16.4-.48.25c-17.24,9-30.03,19.12-38,30.08-7.95,10.94-11.98,23.69-11.98,37.88,0,12.84,2.3,24.85,6.85,35.71,4.55,10.85,11.16,20.34,19.65,28.19,8.5,7.86,18.92,14.07,30.95,18.46,12.04,4.39,25.7,6.62,40.59,6.62s28.7-2.42,40.74-7.18c12.04-4.76,22.43-11.38,30.87-19.67,8.45-8.28,15.03-18.18,19.58-29.41,4.55-11.23,6.85-23.44,6.85-36.28,0-9.3-1.27-17.81-3.78-25.29-2.48-7.4-6.09-14.15-10.71-20.09h-74.63v40.68h-13.78v-77.79h95.26l.14.26c3.34,6.25,6.35,12.64,8.93,19.01,2.59,6.38,4.78,13.35,6.51,20.73,1.72,7.39,3.06,15.62,3.98,24.45.92,8.85,1.38,19.01,1.38,30.19,0,11.87-1.34,23.3-3.98,33.99-2.64,10.68-6.45,20.72-11.31,29.85-4.86,9.12-10.74,17.47-17.49,24.81-6.75,7.34-14.33,13.67-22.54,18.8-8.21,5.13-17.16,9.16-26.62,11.96-9.45,2.81-19.34,4.23-29.39,4.23ZM256.6,364.26c-7.05,4.35-13.89,9.59-20.35,15.58-6.58,6.1-12.47,13.18-17.5,21.05-5.03,7.87-9.13,16.72-12.18,26.3-3.05,9.58-4.6,20.13-4.6,31.37s1.41,23.08,4.2,33.58c2.79,10.5,6.75,20.33,11.78,29.22,5.03,8.89,11.11,16.98,18.07,24.04,6.97,7.07,14.76,13.15,23.15,18.07,8.41,4.93,17.47,8.75,26.95,11.38,9.47,2.62,19.32,3.95,29.28,3.95s19.75-1.41,29.11-4.19c9.37-2.78,18.25-6.77,26.38-11.86,8.14-5.08,15.66-11.35,22.34-18.63,6.69-7.28,12.53-15.56,17.35-24.61,4.82-9.05,8.6-19.02,11.22-29.63,2.63-10.61,3.96-21.97,3.96-33.75,0-11.15-.46-21.27-1.37-30.09-.91-8.79-2.25-16.98-3.96-24.33-1.71-7.33-3.88-14.26-6.46-20.59-2.54-6.25-5.49-12.52-8.75-18.66h-93.7v75.84h11.83v-40.68h76.08l.15.19c4.77,6.07,8.47,12.99,11.02,20.56,2.54,7.58,3.83,16.19,3.83,25.6,0,12.97-2.33,25.3-6.92,36.65-4.6,11.36-11.26,21.36-19.8,29.74-8.54,8.38-19.04,15.07-31.2,19.88-12.15,4.81-25.98,7.25-41.1,7.25s-28.78-2.25-40.92-6.67c-12.16-4.43-22.68-10.71-31.28-18.66-8.6-7.95-15.29-17.55-19.89-28.53-4.6-10.98-6.93-23.12-6.93-36.08,0-14.4,4.09-27.34,12.17-38.45,7.98-10.98,20.72-21.11,37.85-30.12l-9.81-14.72Z"/>
      </g>
      <g>
        <path d="M318.17,282.41h103.07v36.14h-214.89v-36.14h97.88v-107.93h-97.88v-36.14h214.89v36.14h-103.07v107.93Z"/>
        <path class="cls-1" d="M421.72,319.04h-215.86v-37.11h97.88v-106.96h-97.88v-37.11h215.86v37.11h-103.07v106.96h103.07v37.11ZM206.83,318.06h213.92v-35.17h-103.07v-108.9h103.07v-35.17h-213.92v35.17h97.88v108.9h-97.88v35.17Z"/>
      </g>
      <g>
        <path d="M407.35,867.1h13.94v113.28h76.82v-75.84h13.94v75.84h96.26v-113.28h13.94v149.42h-214.89v-149.42Z"/>
        <path class="cls-1" d="M622.72,1017h-215.86v-150.39h14.91v113.28h75.84v-75.84h14.91v75.84h95.29v-113.28h14.91v150.39ZM407.83,1016.03h213.92v-148.44h-12.96v113.28h-97.23v-75.84h-12.96v75.84h-77.79v-113.28h-12.96v148.44Z"/>
      </g>
      <g>
        <path d="M613.65,760.15c0-5.29-.73-10.53-2.19-15.72-1.46-5.19-3.62-9.83-6.48-13.94-2.86-4.1-6.37-7.4-10.53-9.88-4.16-2.48-8.99-3.73-14.5-3.73-6.59,0-12.45,1.7-17.58,5.1-5.13,3.4-9.83,7.86-14.1,13.37-4.27,5.51-8.29,11.8-12.07,18.88-3.78,7.08-7.56,14.29-11.34,21.63-3.78,7.35-7.75,14.56-11.91,21.63-4.16,7.08-8.8,13.37-13.94,18.88-5.13,5.51-10.86,9.97-17.18,13.37-6.32,3.4-13.59,5.1-21.8,5.1s-15.83-1.54-22.85-4.62c-7.02-3.08-13.1-7.59-18.23-13.53-5.13-5.94-9.16-13.26-12.07-21.96-2.92-8.7-4.38-18.66-4.38-29.9,0-10.15,1.08-19.23,3.24-27.23,2.16-7.99,5.35-15.02,9.56-21.07,4.21-6.05,9.4-11.18,15.56-15.4,6.16-4.21,13.29-7.62,21.39-10.21l8.43,18.47c-6.59,2.16-12.61,4.92-18.07,8.26-5.45,3.35-10.13,7.35-14.02,11.99-3.89,4.65-6.89,10.02-8.99,16.12-2.11,6.11-3.16,12.99-3.16,20.66,0,6.81.95,12.75,2.84,17.83,1.89,5.08,4.38,9.32,7.45,12.72s6.54,5.94,10.37,7.62c3.84,1.68,7.75,2.51,11.75,2.51,5.62,0,10.78-1.73,15.48-5.19,4.7-3.46,9.13-8.05,13.29-13.77,4.16-5.73,8.18-12.24,12.07-19.53,3.89-7.29,7.83-14.72,11.83-22.28,4-7.56,8.16-14.99,12.48-22.28,4.32-7.29,9.05-13.8,14.18-19.53,5.13-5.72,10.75-10.32,16.85-13.77,6.1-3.46,12.94-5.19,20.5-5.19,8.54,0,16.56,1.62,24.07,4.86,7.51,3.24,14.05,8.1,19.61,14.58,5.57,6.48,9.97,14.53,13.21,24.15,3.24,9.62,4.86,20.8,4.86,33.55,0,10.37-1.13,19.61-3.4,27.71-2.27,8.1-5.56,15.26-9.89,21.47-4.32,6.21-9.59,11.53-15.8,15.96-6.21,4.43-13.31,8.05-21.31,10.86l-7.94-19.28c7.02-2.27,13.29-5.32,18.8-9.16,5.51-3.83,10.18-8.29,14.02-13.37,3.84-5.08,6.78-10.72,8.83-16.93,2.05-6.21,3.08-12.83,3.08-19.85Z"/>
        <path class="cls-1" d="M576.59,839.35l-8.32-20.2.5-.16c6.95-2.24,13.23-5.3,18.67-9.09,5.45-3.79,10.12-8.25,13.91-13.26,3.79-5.01,6.74-10.66,8.76-16.79,2.03-6.13,3.05-12.76,3.05-19.7,0-5.22-.73-10.47-2.17-15.59-1.44-5.11-3.59-9.75-6.41-13.79-2.81-4.03-6.3-7.3-10.38-9.75-4.06-2.43-8.86-3.66-14.25-3.66-6.46,0-12.29,1.69-17.31,5.02-5.06,3.36-9.77,7.82-13.98,13.26-4.22,5.45-8.27,11.78-12.03,18.81-3.76,7.03-7.57,14.31-11.34,21.63-3.77,7.32-7.78,14.61-11.92,21.66-4.15,7.07-8.86,13.45-14,18.96-5.14,5.52-10.96,10.05-17.3,13.47-6.36,3.43-13.77,5.16-22.03,5.16s-15.99-1.57-23.05-4.66c-7.06-3.09-13.25-7.69-18.4-13.66-5.15-5.96-9.24-13.4-12.17-22.12-2.92-8.7-4.4-18.82-4.4-30.05,0-10.15,1.1-19.35,3.26-27.35,2.17-8.01,5.41-15.15,9.63-21.22,4.23-6.07,9.5-11.29,15.68-15.52,6.17-4.22,13.41-7.68,21.52-10.27l.41-.13,8.83,19.36-.52.17c-6.52,2.14-12.57,4.91-17.97,8.22-5.39,3.31-10.06,7.31-13.9,11.89-3.83,4.58-6.83,9.95-8.91,15.97-2.08,6.03-3.13,12.93-3.13,20.5,0,6.71.94,12.65,2.81,17.66,1.86,5,4.34,9.22,7.36,12.57,3.02,3.34,6.45,5.86,10.21,7.5,3.75,1.64,7.64,2.47,11.55,2.47,5.49,0,10.6-1.71,15.19-5.09,4.64-3.41,9.08-8.01,13.18-13.67,4.12-5.67,8.17-12.23,12.04-19.47,3.89-7.29,7.83-14.72,11.83-22.28,3.98-7.54,8.19-15.04,12.49-22.3,4.31-7.28,9.1-13.87,14.24-19.6,5.14-5.74,10.85-10.4,16.98-13.87,6.15-3.48,13.13-5.25,20.74-5.25,8.56,0,16.73,1.65,24.26,4.9,7.54,3.25,14.2,8.21,19.79,14.71,5.58,6.5,10.05,14.67,13.3,24.31,3.24,9.62,4.89,20.96,4.89,33.7,0,10.37-1.15,19.73-3.42,27.84-2.27,8.12-5.62,15.4-9.96,21.62-4.33,6.23-9.69,11.64-15.92,16.08-6.22,4.44-13.43,8.11-21.43,10.92l-.44.15ZM569.57,819.76l7.57,18.37c7.74-2.76,14.72-6.34,20.75-10.64,6.14-4.38,11.42-9.71,15.68-15.84,4.27-6.13,7.57-13.31,9.82-21.33,2.25-8.02,3.39-17.3,3.39-27.58,0-12.63-1.63-23.87-4.84-33.39-3.21-9.51-7.62-17.58-13.12-23.99-5.49-6.4-12.03-11.26-19.43-14.46-7.41-3.2-15.44-4.82-23.87-4.82-7.44,0-14.26,1.72-20.26,5.12-6.03,3.42-11.66,8.02-16.73,13.68-5.09,5.68-9.84,12.23-14.12,19.45-4.3,7.25-8.49,14.74-12.47,22.26-4,7.56-7.94,14.99-11.83,22.28-3.89,7.29-7.96,13.87-12.11,19.58-4.16,5.74-8.67,10.41-13.39,13.88-4.76,3.5-10.07,5.28-15.76,5.28-4.05,0-8.07-.86-11.94-2.55-3.88-1.69-7.43-4.3-10.54-7.74-3.11-3.43-5.65-7.77-7.55-12.88-1.9-5.11-2.87-11.17-2.87-18,0-7.69,1.07-14.69,3.19-20.82,2.12-6.13,5.17-11.61,9.08-16.28,3.9-4.66,8.66-8.73,14.14-12.09,5.32-3.26,11.26-6,17.66-8.14l-8.02-17.59c-7.85,2.55-14.87,5.92-20.85,10.01-6.08,4.16-11.27,9.3-15.43,15.27-4.16,5.97-7.35,13.01-9.49,20.92-2.14,7.92-3.22,17.04-3.22,27.1,0,11.13,1.46,21.14,4.35,29.75,2.88,8.6,6.91,15.93,11.98,21.79,5.06,5.86,11.13,10.37,18.06,13.4,6.93,3.04,14.55,4.58,22.65,4.58s15.35-1.7,21.57-5.05c6.25-3.37,11.99-7.83,17.05-13.27,5.09-5.46,9.76-11.79,13.87-18.79,4.14-7.04,8.14-14.31,11.9-21.61,3.77-7.32,7.59-14.6,11.35-21.64,3.78-7.08,7.86-13.45,12.12-18.95,4.28-5.53,9.06-10.06,14.21-13.48,5.19-3.44,11.2-5.19,17.85-5.19,5.57,0,10.54,1.28,14.75,3.8,4.2,2.51,7.8,5.88,10.68,10.02,2.88,4.13,5.09,8.87,6.55,14.08,1.46,5.21,2.21,10.54,2.21,15.85,0,7.04-1.04,13.77-3.1,20-2.06,6.23-5.05,11.98-8.91,17.08-3.84,5.09-8.6,9.63-14.13,13.48-5.39,3.75-11.59,6.8-18.43,9.06Z"/>
      </g>
    </g>
  </g>
</svg>