<?xml version="1.0" encoding="UTF-8"?>
<svg id="Layer_2" data-name="Layer 2" xmlns="http://www.w3.org/2000/svg" viewBox="0 0 631.48 1022.96">
  <defs>
    <style>
      .cls-1 {
        fill: #fff;
      }
    </style>
  </defs>
  <g id="Home_Page_Text_copy" data-name="Home Page Text copy">
    <g id="Chevalier_Stripes" data-name="Chevalier Stripes">
      <g>
        <path d="M80.67,847.84v4.77c-11.72,5.53-21.46,11.03-29.21,16.5-7.75,5.47-14.84,11.93-21.27,19.4-15.32,17.71-22.97,36.11-22.97,55.2,0,5.95.76,11.41,2.27,16.39,1.52,4.98,3.64,9.23,6.39,12.76s6.06,6.26,9.94,8.2c3.88,1.94,8.19,2.9,12.92,2.9,4.35,0,8.38-1,12.07-3.01,3.7-2,6.58-4.6,8.66-7.78,2.27-3.59,4.26-8.12,5.96-13.59,1.7-5.46,3.59-12.76,5.68-21.89l8.52-38.59c2.08-9.96,4.97-19.23,8.66-27.81,3.69-8.58,7.52-15.28,11.5-20.13,11.36-13.14,28.3-19.71,50.83-19.71,10.6,0,20.17,1.59,28.69,4.77,8.52,3.18,15.72,7.71,21.59,13.59,5.86,5.88,10.36,13.07,13.49,21.58,3.12,8.51,4.68,18.09,4.68,28.74s-1.7,20.68-5.1,30.5c-3.4,9.82-8.42,18.88-15.03,27.18-1.52,1.94-3.35,4.08-5.53,6.43-2.17,2.35-5.25,5.6-9.22,9.75l29.78,29.47v5.39h-84.52v-5.39c21.18-9.54,39.14-22.27,53.89-38.18,10.02-10.65,17.3-21.09,21.84-31.33,4.54-10.24,6.81-21.3,6.81-33.2,0-13.42-2.46-23.58-7.37-30.5-4.92-6.92-12.01-10.38-21.27-10.38-5.86,0-10.78,1.38-14.75,4.15-3.97,2.77-7.37,7.26-10.21,13.49-.57,1.52-1.28,3.5-2.13,5.91-.85,2.42-1.7,5.02-2.55,7.78-.85,2.77-1.65,5.54-2.41,8.3-.75,2.77-1.32,5.19-1.7,7.26l-8.51,43.37c-8.51,42.33-31.29,63.5-68.35,63.5-10.4,0-20.04-1.76-28.93-5.29-8.89-3.53-16.54-8.4-22.97-14.63-6.43-6.22-11.44-13.62-15.03-22.2-3.59-8.58-5.39-17.98-5.39-28.22,0-12.04,2.46-23.24,7.37-33.62,4.92-10.38,12.76-20.89,23.54-31.54l-27.92-26.77v-3.53h77.27ZM20.83,861.12l12.48,11.21v-11.21h-12.48ZM42.38,995.16c-3.59-.69-6.71-1.45-9.36-2.28-2.65-.83-5.39-2-8.23-3.53,2.27,2.77,4.82,5.19,7.66,7.26,2.84,2.08,6.15,4.01,9.93,5.81v-7.26ZM38.41,872.32c1.33-1.11,2.51-2.08,3.55-2.91,1.04-.83,2.13-1.62,3.26-2.39,1.13-.76,2.37-1.62,3.69-2.59,1.33-.97,3.03-2.08,5.1-3.32h-15.6v11.21ZM47.49,1004.5c2.65.83,4.92,1.49,6.81,1.97,1.89.49,4.16.93,6.81,1.35v-13.49c-2.46.69-4.44,1.11-5.96,1.24-1.51.14-3.5.21-5.96.21h-1.7v8.71ZM66.21,1008.24c1.52.28,2.74.42,3.69.42h5.96c.95,0,2.18-.14,3.69-.42v-26.98c-1.7,2.63-3.55,4.74-5.53,6.33-1.99,1.59-4.58,3.15-7.8,4.67v15.98ZM84.64,1007.61c1.7-.28,3.08-.52,4.11-.73,1.04-.21,1.99-.45,2.84-.73.85-.28,1.75-.59,2.69-.93.95-.34,2.18-.79,3.69-1.35v-91.51l-7.09,35.69c-.94,4.98-1.94,9.31-2.98,12.97-1.04,3.67-2.13,6.95-3.26,9.86v36.73ZM103.08,1001.6c3.22-1.8,5.72-3.39,7.52-4.77,1.8-1.38,3.74-3.25,5.81-5.6v-128.03c-2.65,3.18-5.11,7.06-7.37,11.62-2.27,4.57-4.25,9.62-5.96,15.15v111.64ZM121.51,984.58c1.7-2.35,3.17-4.74,4.4-7.16,1.23-2.42,2.37-5.01,3.4-7.78,1.04-2.77,1.99-5.91,2.84-9.44.85-3.53,1.75-7.64,2.69-12.35v-98.98c-2.84,1.25-5.25,2.53-7.23,3.84-1.99,1.32-4.01,2.87-6.1,4.67v127.2ZM140.23,921.92l2.27-11.41c1.52-7.61,3.22-14.56,5.1-20.85,1.89-6.29,3.88-11.58,5.96-15.87v-29.67c-3.02.42-5.34.8-6.95,1.14-1.6.35-3.73.87-6.38,1.56v75.12ZM183.34,985.83c-3.02,3.04-6.85,6.19-11.49,9.44-4.63,3.25-9.4,6.26-14.32,9.03h25.81v-18.47ZM158.67,865.27c1.89-2.21,3.78-3.97,5.67-5.29,1.89-1.31,4.44-2.73,7.66-4.25v-10.79c-2.46-.42-4.63-.69-6.52-.83-1.89-.14-4.16-.21-6.81-.21v21.37ZM177.1,854.27c1.33-.14,2.41-.24,3.26-.31.85-.07,1.56-.1,2.13-.1,2.65,0,5.25.28,7.8.83,2.55.55,5.63,1.52,9.22,2.9-2.65-2.9-5.62-5.25-8.93-7.05-3.31-1.8-7.8-3.32-13.47-4.57v8.3ZM207.45,1004.3l-19-18.05v18.05h19Z"/>
        <path class="cls-1" d="M72.73,1014.04c-10.4,0-20.18-1.79-29.08-5.32-8.89-3.53-16.67-8.48-23.11-14.71-6.44-6.24-11.53-13.75-15.12-22.34-3.6-8.59-5.42-18.14-5.42-28.38,0-12.04,2.49-23.4,7.41-33.79,4.87-10.27,12.72-20.82,23.33-31.36l-27.74-26.6v-4.11h78.08v5.44l-.23.11c-11.64,5.5-21.45,11.03-29.15,16.46-7.69,5.42-14.82,11.93-21.2,19.33-15.18,17.55-22.87,36.03-22.87,54.93,0,5.88.76,11.36,2.26,16.27,1.5,4.92,3.62,9.16,6.32,12.63,2.7,3.47,6,6.19,9.8,8.08,3.8,1.9,8.09,2.86,12.74,2.86,4.27,0,8.26-1,11.87-2.96,3.61-1.96,6.48-4.53,8.52-7.65,2.24-3.55,4.24-8.09,5.92-13.49,1.69-5.42,3.6-12.78,5.67-21.86l8.52-38.59c2.07-9.92,5-19.3,8.69-27.88,3.69-8.57,7.58-15.37,11.56-20.23,11.4-13.18,28.6-19.86,51.15-19.86,10.6,0,20.3,1.61,28.83,4.8,8.54,3.19,15.85,7.79,21.73,13.68,5.88,5.9,10.45,13.21,13.58,21.73,3.12,8.52,4.71,18.24,4.71,28.88s-1.73,20.82-5.13,30.64c-3.4,9.82-8.48,19-15.1,27.3-1.53,1.96-3.4,4.13-5.55,6.46-2.02,2.19-4.95,5.29-8.95,9.47l29.62,29.3v5.97h-85.33v-6.06l.24-.11c21.03-9.48,39.12-22.29,53.76-38.09,9.94-10.56,17.27-21.07,21.77-31.22,4.49-10.14,6.77-21.25,6.77-33.04,0-13.26-2.46-23.45-7.3-30.27-4.82-6.77-11.86-10.2-20.94-10.2-5.75,0-10.63,1.37-14.52,4.08-3.89,2.72-7.28,7.2-10.07,13.32-.56,1.5-1.26,3.46-2.11,5.88-.85,2.41-1.7,5.03-2.55,7.77-.84,2.72-1.65,5.51-2.41,8.29-.75,2.75-1.32,5.18-1.69,7.23l-8.51,43.37c-8.51,42.35-31.64,63.82-68.75,63.82ZM3.81,851.19l28.09,26.94-.3.29c-10.69,10.57-18.58,21.14-23.46,31.42-4.87,10.27-7.33,21.53-7.33,33.44,0,10.13,1.8,19.57,5.36,28.06,3.55,8.48,8.58,15.91,14.94,22.07,6.36,6.16,14.05,11.05,22.84,14.54,8.8,3.49,18.48,5.26,28.78,5.26,18.34,0,33.35-5.3,44.61-15.76,11.27-10.47,19.13-26.42,23.35-47.4l8.51-43.37c.38-2.06.95-4.52,1.71-7.29.76-2.79,1.58-5.59,2.42-8.31.85-2.75,1.71-5.37,2.56-7.8.85-2.42,1.56-4.39,2.13-5.92,2.86-6.29,6.34-10.88,10.36-13.68,4.02-2.8,9.06-4.22,14.98-4.22,9.36,0,16.62,3.55,21.6,10.55,4.94,6.96,7.45,17.3,7.45,30.74,0,11.9-2.3,23.12-6.84,33.37-4.54,10.24-11.91,20.82-21.91,31.45-14.66,15.81-32.75,28.65-53.78,38.17v4.73h83.71v-4.82l-29.94-29.63.28-.29c4.14-4.32,7.15-7.51,9.21-9.75,2.13-2.31,3.99-4.46,5.51-6.41,6.56-8.23,11.6-17.34,14.97-27.07,3.37-9.73,5.08-19.95,5.08-30.37s-1.57-20.17-4.66-28.6c-3.09-8.41-7.6-15.62-13.4-21.43-5.8-5.81-13.01-10.35-21.44-13.5-8.43-3.15-18.04-4.75-28.54-4.75-22.3,0-39.3,6.58-50.53,19.57-3.93,4.79-7.78,11.53-11.43,20.02-3.67,8.53-6.57,17.85-8.64,27.73l-8.52,38.6c-2.08,9.11-3.99,16.48-5.69,21.92-1.7,5.47-3.72,10.07-6.01,13.69-2.12,3.23-5.08,5.9-8.81,7.92-3.73,2.03-7.86,3.06-12.26,3.06-4.78,0-9.19-.99-13.1-2.95-3.91-1.95-7.3-4.75-10.08-8.31-2.76-3.54-4.93-7.88-6.46-12.89-1.52-4.99-2.29-10.55-2.29-16.51,0-19.1,7.76-37.76,23.07-55.46,6.42-7.45,13.6-14,21.34-19.47,7.69-5.42,17.46-10.94,29.04-16.42v-4.11H3.81v2.95ZM75.85,1009.06h-5.96c-.97,0-2.24-.14-3.76-.42l-.33-.06v-16.57l.23-.11c3.17-1.5,5.76-3.05,7.72-4.62,1.94-1.55,3.77-3.65,5.44-6.23l.75-1.15v28.69l-.33.06c-1.52.28-2.79.42-3.76.42ZM66.61,1007.9c1.33.23,2.43.35,3.28.35h5.96c.86,0,1.96-.12,3.28-.35v-25.31c-1.51,2.15-3.15,3.94-4.87,5.32-1.96,1.57-4.53,3.12-7.65,4.61v15.38ZM61.51,1008.3l-.47-.07c-2.67-.42-4.97-.88-6.84-1.36-1.87-.48-4.17-1.14-6.83-1.98l-.28-.09v-9.42h2.11c2.45,0,4.44-.07,5.92-.21,1.48-.13,3.46-.55,5.88-1.23l.52-.15v14.5ZM47.89,1004.2c2.53.79,4.71,1.42,6.5,1.88,1.74.45,3.86.87,6.3,1.27v-12.48c-2.24.61-4.09.99-5.51,1.11-1.5.14-3.52.21-5.99.21h-1.3v8.01ZM84.23,1008.09l.03-37.35c1.14-2.91,2.23-6.21,3.25-9.82,1.03-3.63,2.03-7.98,2.97-12.93l7.09-35.69.8.08v91.79l-1.25.46c-1.07.39-1.97.72-2.71.99-.95.35-1.85.66-2.71.94-.85.28-1.79.52-2.88.74-1.06.21-2.45.46-4.13.73l-.47.08ZM85.05,970.96v36.17c1.46-.24,2.68-.46,3.63-.65,1.06-.21,1.97-.44,2.79-.71.85-.27,1.74-.58,2.68-.93.74-.27,1.64-.6,2.71-.99l.71-.26v-87.1l-6.29,31.64c-.94,4.97-1.95,9.35-2.99,13-1.02,3.6-2.11,6.91-3.25,9.82ZM208.47,1004.7h-20.43v-19.41l20.43,19.41ZM188.85,1003.89h17.58l-17.58-16.7v16.7ZM183.75,1004.7h-27.77l1.35-.76c4.88-2.74,9.69-5.77,14.29-9,4.59-3.22,8.44-6.38,11.43-9.4l.69-.7v19.86ZM159.07,1003.89h23.87v-17.09c-2.92,2.84-6.56,5.8-10.85,8.8-4.2,2.95-8.58,5.74-13.02,8.29ZM42.79,1003.07l-.58-.28c-3.78-1.8-7.14-3.77-9.99-5.85-2.85-2.09-5.46-4.56-7.73-7.33l.51-.62c2.79,1.5,5.53,2.67,8.15,3.5,2.63.82,5.77,1.59,9.31,2.27l.33.06v8.24ZM26.46,990.67c1.89,2.09,3.98,3.98,6.23,5.62,2.66,1.95,5.78,3.79,9.28,5.49v-6.28c-3.44-.67-6.5-1.42-9.07-2.23-2.08-.65-4.24-1.53-6.44-2.6ZM102.67,1002.29l.02-112.45c1.7-5.53,3.71-10.65,5.98-15.21,2.27-4.56,4.77-8.5,7.43-11.7l.72-.86v129.31l-.1.12c-2.09,2.37-4.06,4.27-5.87,5.66-1.81,1.4-4.36,3.01-7.56,4.8l-.6.34ZM103.48,890.02v110.88c2.89-1.64,5.2-3.12,6.86-4.4,1.74-1.33,3.64-3.16,5.66-5.44v-126.73c-2.35,2.98-4.57,6.56-6.6,10.65-2.24,4.51-4.23,9.56-5.91,15.03ZM121.11,985.84v-128.64l.14-.12c2.1-1.81,4.16-3.39,6.14-4.7,2-1.32,4.45-2.62,7.29-3.87l.57-.25v99.6c-.94,4.72-1.85,8.88-2.71,12.44-.85,3.54-1.81,6.73-2.85,9.49-1.04,2.77-2.19,5.4-3.42,7.82-1.23,2.42-2.72,4.85-4.43,7.21l-.74,1.02ZM121.92,857.57v125.73c1.38-2,2.6-4.03,3.63-6.07,1.22-2.4,2.36-5,3.39-7.74,1.03-2.73,1.98-5.89,2.82-9.39.86-3.55,1.76-7.7,2.69-12.33v-98.27c-2.57,1.15-4.78,2.34-6.61,3.55-1.9,1.26-3.89,2.78-5.92,4.52ZM140.63,922l-.8-.08v-75.43l.3-.08c2.64-.69,4.8-1.21,6.4-1.56,1.64-.35,3.99-.74,6.98-1.15l.46-.06-.04,30.32c-2.06,4.25-4.05,9.57-5.93,15.81-1.88,6.25-3.59,13.26-5.1,20.82l-2.27,11.41ZM140.64,847.12v70.68l1.46-7.37c1.51-7.58,3.23-14.61,5.11-20.89,1.88-6.25,3.88-11.58,5.94-15.85v-29.11c-2.75.38-4.92.75-6.46,1.07-1.53.33-3.57.83-6.06,1.47ZM33.71,873.23l-13.95-12.52h13.95v12.52ZM21.89,861.53l11.01,9.89v-9.89h-11.01ZM38,873.19v-12.48h17.47l-1.26.75c-2.04,1.22-3.74,2.33-5.07,3.3-1.3.95-2.54,1.83-3.7,2.6-1.11.75-2.2,1.54-3.23,2.37-1.03.83-2.22,1.79-3.54,2.9l-.67.56ZM38.82,861.53v9.93c1.06-.88,2.02-1.67,2.89-2.36,1.05-.84,2.16-1.65,3.29-2.41,1.15-.77,2.38-1.64,3.67-2.58,1.07-.78,2.38-1.65,3.9-2.59h-13.74ZM158.26,866.37v-22.88h.41c2.62,0,4.92.07,6.84.21,1.91.14,4.12.42,6.56.83l.34.06v11.39l-.23.11c-3.18,1.51-5.74,2.93-7.6,4.22-1.85,1.29-3.74,3.05-5.6,5.22l-.71.83ZM159.07,844.3v19.89c1.67-1.85,3.36-3.38,5.03-4.55,1.85-1.29,4.37-2.69,7.48-4.18v-10.19c-2.28-.38-4.35-.64-6.15-.77-1.8-.13-3.94-.2-6.37-.21ZM199.36,857.97c-3.56-1.37-6.64-2.34-9.16-2.89-2.52-.54-5.12-.82-7.71-.82-.55,0-1.25.03-2.09.1-.85.07-1.93.17-3.25.31l-.45.05v-9.26l.49.11c5.68,1.25,10.25,2.8,13.58,4.61,3.33,1.81,6.37,4.21,9.04,7.14l-.45.65ZM182.49,853.45c2.66,0,5.31.28,7.89.84,2.15.47,4.71,1.24,7.61,2.29-2.3-2.29-4.85-4.2-7.6-5.69-3.17-1.72-7.49-3.21-12.87-4.42v7.34c1.13-.11,2.07-.2,2.82-.27.88-.07,1.58-.11,2.16-.11Z"/>
      </g>
      <g>
        <path d="M155.55,794.72c2.09.55,3.95.93,5.56,1.14,1.62.21,3.47.31,5.56.31,7.42,0,14.41-1.42,20.97-4.25,6.56-2.83,11.17-6.46,13.84-10.89,1.33-2.08,2.28-4.32,2.85-6.74.57-2.42,1.05-5.98,1.43-10.69h6.81v82.17h-6.81c-.38-7.61-4.87-15.01-13.47-22.2-8.6-7.19-21.7-14.45-39.28-21.79L1.54,739.31v-5.39l171.87-70.55c6.43-2.63,11.73-5.12,15.88-7.47,4.16-2.35,7.47-4.77,9.93-7.26,2.46-2.49,4.16-5.22,5.11-8.2.94-2.97,1.42-6.46,1.42-10.48v-3.11h6.81v118.69h-6.81v-11.62c0-4.29-1.29-7.75-3.85-10.38-2.57-2.63-6.04-3.94-10.41-3.94-1.52,0-3.23.24-5.13.73-1.9.49-3.9,1.07-5.99,1.76l-24.82,9.96v62.67ZM27.63,744.09l14.75,6.23v-12.24l-14.75,6.02ZM47.49,736v16.39l13.61,5.6v-27.6l-13.61,5.6ZM66.21,728.32v31.96l2.84,1.25,10.49-4.36v-34.24l-13.33,5.4ZM76.98,764.42l71.76,28.63v-57.69l-71.76,29.05ZM84.64,720.64v34.45l13.33-5.4v-34.45l-13.33,5.4ZM103.08,713.17v34.45l13.33-5.4v-34.65l-13.33,5.6ZM121.51,705.49v34.65l13.33-5.39v-34.86l-13.33,5.6ZM140.23,697.81v34.86l13.33-5.4.08-34.86-13.41,5.39ZM158.67,690.14v34.86l13.33-5.39v-34.86l-13.33,5.39ZM177.1,682.67v34.86l2.55-1.04c2.46-.97,4.3-1.56,5.53-1.76,1.23-.21,2.98-.45,5.25-.73v-36.94l-13.33,5.6ZM190.43,807.38c-.94.28-1.75.42-2.41.42h-1.84c-1.7,0-4.72-.21-9.08-.62,3.22,1.66,5.72,3.01,7.52,4.05,1.8,1.04,3.74,2.32,5.81,3.84v-7.68ZM195.82,714.21c2.08.28,3.83.73,5.25,1.35,1.42.62,2.98,1.56,4.68,2.8v-47.52l-9.93,4.15v39.22ZM195.82,818.79c2.65,2.35,4.58,4.15,5.81,5.39,1.23,1.25,2.6,2.84,4.11,4.77v-25.73c-1.89.83-3.5,1.49-4.82,1.97-1.32.49-3.03.93-5.1,1.35v12.24Z"/>
        <path class="cls-1" d="M212.96,846.17h-7.6l-.02-.39c-.37-7.46-4.86-14.83-13.33-21.91-8.53-7.13-21.71-14.44-39.18-21.72L1.13,739.59v-5.94l.25-.1,171.87-70.55c6.39-2.61,11.71-5.11,15.84-7.45,4.1-2.32,7.41-4.74,9.84-7.19,2.4-2.43,4.08-5.14,5.01-8.03.93-2.92,1.4-6.41,1.4-10.36v-3.52h7.62v119.5h-7.62v-12.03c0-4.16-1.26-7.55-3.74-10.09-2.48-2.53-5.89-3.82-10.12-3.82-1.47,0-3.17.24-5.03.71-1.9.49-3.91,1.08-5.96,1.76l-24.54,9.85v62.08c1.93.5,3.68.86,5.21,1.05,1.59.2,3.45.31,5.51.31,7.33,0,14.33-1.42,20.8-4.22,6.44-2.78,11.04-6.39,13.65-10.73,1.3-2.03,2.24-4.26,2.8-6.63.56-2.4,1.04-5.98,1.42-10.62l.03-.37h7.59v82.98ZM206.13,845.36h6.02v-81.36h-6.03c-.38,4.5-.85,7.99-1.41,10.37-.58,2.46-1.56,4.77-2.9,6.87-2.7,4.48-7.41,8.2-14.02,11.05-6.58,2.84-13.69,4.29-21.13,4.29-2.1,0-3.99-.11-5.61-.31-1.64-.21-3.53-.6-5.61-1.15l-.3-.08v-63.25l25.07-10.06c2.1-.69,4.12-1.29,6.04-1.78,1.93-.49,3.69-.74,5.23-.74,4.46,0,8.06,1.37,10.7,4.06,2.63,2.7,3.97,6.28,3.97,10.66v11.21h5.99v-117.88h-5.99v2.71c0,4.03-.48,7.6-1.44,10.6-.96,3.02-2.71,5.83-5.2,8.36-2.48,2.51-5.85,4.98-10.02,7.33-4.15,2.35-9.51,4.87-15.93,7.49L1.95,734.19v4.85l151.2,62.35c17.54,7.32,30.8,14.67,39.39,21.85,8.51,7.11,13.08,14.55,13.59,22.11ZM206.15,830.13l-.73-.93c-1.51-1.93-2.88-3.52-4.08-4.74-1.21-1.22-3.16-3.03-5.8-5.38l-.14-.12v-12.76l.33-.07c2.06-.41,3.76-.86,5.04-1.33,1.31-.48,2.93-1.14,4.8-1.96l.57-.25v27.53ZM196.23,818.61c2.61,2.33,4.48,4.06,5.7,5.29,1.03,1.04,2.17,2.35,3.42,3.89v-23.94c-1.65.71-3.08,1.3-4.28,1.73-1.27.47-2.86.89-4.84,1.3v11.73ZM190.84,815.85l-.65-.47c-2.07-1.51-4.01-2.8-5.78-3.82-1.79-1.04-4.32-2.39-7.5-4.04l.22-.77c4.31.41,7.36.62,9.04.62h1.84c.63,0,1.4-.13,2.3-.4l.52-.15v9.02ZM179.12,807.76c2.34,1.23,4.25,2.27,5.7,3.1,1.61.93,3.35,2.07,5.2,3.39v-6.35c-.75.19-1.43.29-2,.29h-1.84c-1.42,0-3.79-.15-7.05-.43ZM149.15,793.66l-.56-.22-72.69-29.01,73.25-29.66v58.89ZM78.07,764.42l70.26,28.04v-56.48l-70.26,28.45ZM69.04,761.96l-3.24-1.42v-32.49l14.14-5.72v35.11l-10.9,4.53ZM66.61,760.01l2.43,1.07,10.08-4.19v-33.36l-12.52,5.07v31.42ZM61.51,758.6l-14.43-5.94v-16.94l14.43-5.94v28.81ZM47.89,752.12l12.8,5.27v-26.38l-12.8,5.27v15.85ZM84.23,755.69v-35.32l14.14-5.72v35.32l-14.14,5.72ZM85.05,720.91v33.57l12.52-5.07v-33.57l-12.52,5.07ZM42.79,750.93l-16.21-6.84,16.21-6.62v13.46ZM28.69,744.09l13.28,5.61v-11.03l-13.28,5.42ZM102.67,748.22v-35.32l14.14-5.94v35.54l-14.14,5.72ZM103.48,713.44v33.57l12.52-5.07v-33.77l-12.52,5.26ZM121.11,740.75v-35.52l14.14-5.94v35.75l-14.14,5.72ZM121.92,705.76v33.78l12.52-5.07v-33.98l-12.52,5.26ZM139.82,733.28v-35.74l14.22-5.72-.08,35.74-14.14,5.72ZM140.64,698.09v33.98l12.52-5.07.08-33.98-12.6,5.07ZM158.26,725.6v-35.74l14.14-5.72v35.74l-14.14,5.72ZM159.07,690.41v33.98l12.52-5.07v-33.98l-12.52,5.07ZM206.15,719.16l-.65-.47c-1.67-1.22-3.22-2.15-4.6-2.76-1.37-.6-3.1-1.04-5.14-1.32l-.35-.05v-39.84l10.74-4.49v48.93ZM196.23,713.85c1.96.29,3.65.73,5,1.33,1.26.55,2.64,1.35,4.11,2.38v-46.12l-9.11,3.81v38.59ZM176.69,718.13v-35.73l14.14-5.94v37.91l-.36.04c-2.31.28-4.02.52-5.23.72-1.19.2-3.02.79-5.45,1.74l-3.11,1.26ZM177.51,682.94v33.99l1.99-.81c2.52-.99,4.36-1.58,5.62-1.79,1.16-.19,2.77-.42,4.91-.68v-35.96l-12.52,5.26Z"/>
      </g>
      <g>
        <path d="M119.81,447.15h-50.33c-36.59,0-55.17,11.14-55.74,33.41h-6.81v-76.36h6.81c.38,5.95,1.38,10.69,3,14.21,1.62,3.53,4.34,6.82,8.15,9.86,10.11,8.16,25.02,12.24,44.71,12.24h149.47v4.98l-173.29,135.5h104.27c18.19,0,31.96-2.83,41.34-8.51,9.37-5.67,14.15-14.04,14.34-25.11h6.81v76.57h-6.81c-.38-5.95-1.37-10.69-2.99-14.21-1.61-3.53-4.32-6.81-8.11-9.86-10.05-8.16-24.94-12.24-44.66-12.24H38.2l-6.54,5.39c-1.13.97-2.51,2.21-4.12,3.74-1.61,1.52-3.23,3.15-4.84,4.88-1.61,1.73-3.04,3.39-4.27,4.98-1.23,1.59-2.13,2.87-2.7,3.84-.57,1.11-1.04,2.73-1.42,4.88-.38,2.15-.57,4.25-.57,6.33v.83h-6.81v-86.53l112.88-88.81ZM20.54,441.97c-1.89-.83-3.16-1.45-3.83-1.87-.66-.42-1.65-1.11-2.98-2.08v22.62c1.33-1.38,2.32-2.42,2.98-3.11.67-.69,1.94-1.87,3.83-3.53v-12.04ZM13.74,556.3v47.31c1.56-1.94,2.97-3.63,4.23-5.08,1.26-1.45,3.26-3.35,5.98-5.71v-44.2l-10.21,7.68ZM25.93,450.47c2.65-1.38,4.59-2.35,5.81-2.9,1.23-.55,2.89-1.11,4.96-1.66-2.27-.28-4.11-.55-5.53-.83-1.42-.28-3.16-.76-5.25-1.45v6.85ZM29.05,587.84c1.33-1.11,2.37-1.97,3.12-2.59.76-.62,1.61-1.35,2.55-2.18l7.66-6.02v-42.95l-13.33,10.38v43.37ZM47.49,573.11l13.61-10.58v-42.95l-13.61,10.38v43.16ZM66.21,558.38l13.33-10.58v-42.75l-13.33,10.38v42.95ZM84.64,543.85l13.33-10.58v-42.75l-13.33,10.58v42.75ZM103.08,529.33l13.33-10.58v-42.75l-13.33,10.58v42.75ZM121.51,514.8l13.33-10.58v-42.75l-13.33,10.58v42.75ZM140.23,500.27l13.33-10.38v-42.95l-13.33,10.58v42.75ZM158.67,485.75l13.33-10.38v-29.67h-13.33v40.05ZM177.1,471.22l13.33-10.38v-15.15h-13.33v25.52ZM193.55,584.94c-2.46.69-4.44,1.14-5.96,1.35-1.51.21-3.59.45-6.24.73,2.46.69,4.4,1.32,5.81,1.87,1.42.55,3.55,1.59,6.38,3.11v-7.05ZM195.54,456.7l14.3-11h-14.3v11ZM198.94,595.52c1.89,1.52,3.21,2.63,3.97,3.32.75.69,1.7,1.73,2.84,3.11v-22.41c-1.33.97-2.32,1.63-2.98,1.97-.66.35-1.94.93-3.83,1.76v12.24Z"/>
        <path class="cls-1" d="M212.96,624.35h-7.59l-.02-.38c-.38-5.88-1.37-10.61-2.95-14.07-1.58-3.45-4.27-6.72-7.99-9.71-9.93-8.06-24.87-12.15-44.41-12.15H38.34l-6.43,5.3c-1.12.95-2.5,2.21-4.1,3.72-1.6,1.51-3.23,3.15-4.82,4.86-1.6,1.71-3.02,3.38-4.24,4.95-1.21,1.56-2.11,2.84-2.67,3.8-.53,1.04-.99,2.64-1.37,4.74-.38,2.11-.57,4.22-.57,6.26v1.24h-7.62v-87.13l.16-.12,111.96-88.08h-49.16c-36.15,0-54.77,11.11-55.33,33.01v.4h-7.62v-77.17h7.59l.02.38c.38,5.87,1.38,10.6,2.97,14.07,1.59,3.45,4.29,6.72,8.04,9.71,9.99,8.07,24.95,12.15,44.46,12.15h149.87v5.58l-.16.12-172.36,134.77h103.1c18.03,0,31.87-2.84,41.13-8.45,9.2-5.57,13.96-13.9,14.15-24.77v-.4h7.62v77.38ZM206.13,623.54h6.02v-75.76h-6c-.3,10.97-5.19,19.4-14.53,25.05-9.39,5.68-23.37,8.57-41.55,8.57H44.61l.93-.73,173.14-135.38v-4.38H69.61c-19.7,0-34.83-4.15-44.97-12.33-3.85-3.07-6.63-6.43-8.27-10-1.6-3.48-2.61-8.18-3.02-13.98h-6.02v75.55h6.01c.79-22.17,19.67-33.41,56.13-33.41h51.51L7.34,536.16v85.92h5.99v-.42c0-2.09.19-4.24.58-6.4.39-2.21.87-3.84,1.46-4.99.6-1.01,1.52-2.32,2.74-3.9,1.23-1.59,2.68-3.28,4.29-5.01,1.61-1.72,3.24-3.37,4.86-4.89,1.61-1.52,3.01-2.78,4.14-3.75l6.66-5.49h111.94c19.73,0,34.84,4.15,44.92,12.33,3.82,3.07,6.59,6.44,8.22,10,1.59,3.47,2.6,8.17,3,13.98ZM13.33,604.76v-48.67l11.02-8.29v45.2l-.14.12c-2.71,2.34-4.7,4.25-5.94,5.67-1.23,1.42-2.61,3.07-4.22,5.07l-.72.9ZM14.14,556.5v45.96c1.31-1.61,2.47-3,3.52-4.2,1.26-1.44,3.18-3.28,5.88-5.62v-43.2l-9.4,7.07ZM206.15,603.08l-.72-.88c-1.11-1.35-2.05-2.38-2.8-3.07-.74-.68-2.04-1.76-3.95-3.3l-.15-.12v-12.7l.24-.11c1.91-.84,3.15-1.41,3.8-1.75.63-.33,1.62-.98,2.93-1.94l.65-.47v24.34ZM199.35,595.32c1.84,1.49,3.1,2.54,3.84,3.21.61.56,1.33,1.33,2.16,2.29v-20.5c-1.03.74-1.82,1.24-2.38,1.54-.64.33-1.82.88-3.61,1.67v11.78ZM193.96,592.67l-.6-.32c-2.81-1.51-4.94-2.55-6.34-3.09-1.4-.54-3.34-1.17-5.78-1.86l.07-.79c2.59-.27,4.68-.51,6.23-.72,1.51-.21,3.49-.66,5.9-1.34l.52-.15v8.27ZM183.44,587.2c1.56.47,2.86.91,3.88,1.3,1.32.52,3.28,1.46,5.83,2.81v-5.84c-2.22.61-4.06,1.02-5.49,1.22-1.12.15-2.53.32-4.21.51ZM28.65,588.71v-44.43l14.14-11.01v43.98l-7.81,6.14c-.93.82-1.78,1.55-2.55,2.17-.75.62-1.79,1.49-3.12,2.59l-.67.56ZM29.46,544.67v42.3c1.01-.84,1.83-1.52,2.46-2.04.76-.62,1.6-1.34,2.54-2.17l7.52-5.91v-41.92l-12.52,9.74ZM47.08,573.94v-44.19l14.43-10.99v43.97l-14.43,11.21ZM47.89,530.15v42.13l12.8-9.95v-41.93l-12.8,9.76ZM65.8,559.22v-43.99l14.14-11.01v43.77l-14.14,11.23ZM66.61,515.62v41.91l12.52-9.94v-41.72l-12.52,9.74ZM84.23,544.69v-43.78l14.14-11.23v43.78l-14.14,11.23ZM85.05,501.3v41.71l12.52-9.94v-41.71l-12.52,9.94ZM102.67,530.17v-43.78l14.14-11.23v43.78l-14.14,11.23ZM103.48,486.78v41.71l12.52-9.94v-41.71l-12.52,9.94ZM121.11,515.64v-43.78l14.14-11.23v43.78l-14.14,11.23ZM121.92,472.25v41.71l12.52-9.94v-41.71l-12.52,9.94ZM139.82,501.11v-43.77l14.14-11.23v43.99l-14.14,11.01ZM140.64,457.73v41.72l12.52-9.74v-41.91l-12.52,9.94ZM158.26,486.58v-41.28h14.14v30.28l-14.14,11.01ZM159.07,446.11v38.81l12.52-9.74v-29.07h-12.52ZM176.69,472.06v-26.76h14.14v15.75l-14.14,11.01ZM177.51,446.11v24.29l12.52-9.74v-14.54h-12.52ZM13.33,461.65v-24.43l.65.47c1.3.95,2.29,1.64,2.95,2.06.65.4,1.92,1.02,3.78,1.84l.24.11v12.48l-.14.12c-1.86,1.63-3.14,2.81-3.8,3.5-.66.69-1.65,1.73-2.98,3.11l-.7.73ZM14.14,438.82v20.81c.98-1.02,1.74-1.82,2.28-2.38.67-.69,1.92-1.85,3.72-3.43v-11.59c-1.79-.79-2.98-1.38-3.64-1.79-.56-.35-1.35-.9-2.36-1.62ZM195.13,457.52v-12.23h15.9l-15.9,12.23ZM195.94,446.11v9.77l12.7-9.77h-12.7ZM25.53,451.14v-8.08l.53.18c2.05.68,3.8,1.17,5.2,1.44,1.39.27,3.24.55,5.5.83l.06.8c-2.04.54-3.69,1.09-4.9,1.64-1.2.54-3.09,1.49-5.79,2.89l-.59.31ZM26.34,444.19v5.62c2.4-1.24,4.12-2.1,5.24-2.61.85-.38,1.89-.76,3.12-1.14-1.41-.19-2.62-.39-3.6-.58-1.3-.25-2.9-.69-4.76-1.29Z"/>
      </g>
      <g>
        <path d="M205.75,399.43v-7.26c0-5.95-.38-10.34-1.14-13.18-.76-2.83-2.28-5.22-4.55-7.16-2.28-2.08-5.45-3.49-9.53-4.25-4.08-.76-10.48-1.14-19.2-1.14H48.16c-8.72,0-15.12.38-19.2,1.14-4.08.76-7.25,2.18-9.53,4.25-2.08,1.94-3.55,4.33-4.41,7.16-.85,2.84-1.28,7.23-1.28,13.18v7.26h-6.81v-116.52c0-6.49.19-12.3.57-17.41.38-5.11,1.04-9.78,1.98-13.99.95-4.21,2.18-8.12,3.69-11.71,1.52-3.59,3.4-7.19,5.67-10.78,3.78-6.22,8.89-11.88,15.32-17,6.43-5.11,13.71-9.53,21.84-13.26,8.13-3.73,16.92-6.63,26.38-8.71,9.46-2.07,19-3.11,28.65-3.11s19.48,1.07,28.93,3.21c9.46,2.14,18.25,5.18,26.38,9.12,8.13,3.94,15.36,8.6,21.7,13.99,6.34,5.39,11.3,11.33,14.89,17.82,3.02,5.25,5.39,12.88,7.09,22.9,1.7,10.02,2.55,20.97,2.55,32.85v112.58h-6.81ZM23.95,241.86c-3.11,3.6-5.44,7.22-7,10.89-1.56,3.66-2.62,7.99-3.21,12.96,1.37-2.07,2.68-3.76,3.94-5.08,1.27-1.31,3.35-3.01,6.27-5.08v-13.69ZM205.75,299.21v-8.71c0-2.35-.1-4.32-.28-5.91-.19-1.59-.33-2.9-.43-3.94-.1-1.04-.34-2.11-.71-3.22-1.52-5.67-4.27-10.34-8.25-14.01-3.98-3.66-9.58-6.74-16.79-9.23-8.15-2.77-18.16-4.88-30.01-6.33s-25.18-2.18-39.97-2.18c-22.38,0-40.16,1.21-53.34,3.63-13.18,2.42-23.47,6.26-30.86,11.52-2.28,1.66-4.13,3.39-5.55,5.19-1.42,1.8-2.56,4.01-3.41,6.64-.85,2.63-1.47,5.78-1.85,9.44-.38,3.67-.57,8.13-.57,13.38v17.85h192.01v-14.11ZM13.74,330.54v37.77c1.89-1.52,3.36-2.63,4.4-3.32,1.04-.69,2.89-1.45,5.53-2.28v-32.16h-9.93ZM29.05,252.24c2.27-1.24,4.35-2.24,6.24-3.01,1.89-.76,4.25-1.62,7.09-2.59v-20.31c-3.02,1.94-5.48,3.6-7.37,4.98-1.89,1.38-3.87,3.04-5.96,4.97v15.96ZM29.05,361.46c3.03-.42,5.3-.69,6.81-.83,1.52-.14,3.69-.21,6.52-.21v-29.88h-13.33v30.92ZM47.49,245.07c2.65-.55,4.92-1,6.81-1.34,1.89-.34,4.16-.72,6.81-1.13v-25.18c-3.21,1.24-5.72,2.27-7.52,3.1-1.79.83-3.83,1.79-6.1,2.89v21.67ZM47.49,360.42h13.61v-29.88h-13.61v29.88ZM66.21,241.94c2.65-.28,4.87-.48,6.67-.62,1.8-.14,4.02-.34,6.67-.62v-28.84c-2.65.69-4.91,1.28-6.81,1.76-1.89.49-4.06,1.14-6.52,1.97v26.35ZM66.21,360.42h13.33v-29.88h-13.33v29.88ZM84.64,240.28c2.27-.14,4.25-.21,5.96-.21s4.16-.07,7.37-.21v-31.13c-2.84.28-5.06.55-6.67.83-1.6.28-3.83.69-6.67,1.25v29.47ZM84.64,360.42h13.33v-29.88h-13.33v29.88ZM103.08,239.65h9.64c.95,0,2.18.07,3.69.21v-31.96h-8.51c-1.13,0-2.74.07-4.82.21v31.54ZM103.08,360.42h13.33v-29.88h-13.33v29.88ZM121.51,239.86c3.22.28,5.53.42,6.95.42s3.54.14,6.38.42v-30.91c-2.65-.42-4.87-.69-6.67-.83-1.79-.14-4.02-.35-6.67-.63v31.53ZM121.51,360.42h13.33v-29.88h-13.33v29.88ZM140.23,241.08c2.65.28,4.73.49,6.24.62,1.52.14,3.88.49,7.09,1.04v-28.01c-2.65-.83-4.87-1.48-6.67-1.97-1.79-.48-4.01-1.07-6.67-1.76v30.09ZM140.23,360.42h13.33v-29.88h-13.33v29.88ZM158.67,243.53c2.27.42,4.4.83,6.38,1.25s4.3.97,6.95,1.66v-23.63c-2.46-1.24-4.63-2.31-6.52-3.21-1.89-.9-4.16-1.9-6.81-3.01v26.95ZM158.67,360.42h13.33v-29.88h-13.33v29.88ZM177.1,247.88c2.65.83,4.96,1.63,6.95,2.39s4.11,1.76,6.38,3v-17.41c-2.27-1.93-4.4-3.66-6.38-5.18-1.99-1.52-4.3-3.11-6.95-4.77v21.97ZM177.1,360.42c3.22.14,5.53.24,6.95.31,1.42.07,3.54.31,6.38.73v-30.92h-13.33v29.88ZM195.54,256.18c2.14,1.52,3.84,2.83,5.11,3.94,1.26,1.11,2.96,2.97,5.1,5.59-.78-5.52-1.9-10.08-3.35-13.67-1.46-3.59-3.74-7.18-6.86-10.78v14.92ZM195.82,362.7c2.46.83,4.25,1.56,5.39,2.18,1.13.62,2.65,1.76,4.54,3.42v-37.77h-9.93v32.16Z"/>
        <path class="cls-1" d="M212.96,399.84h-7.62v-7.67c0-5.88-.38-10.28-1.13-13.07-.74-2.74-2.23-5.08-4.42-6.95-2.22-2.02-5.36-3.42-9.34-4.16-4.05-.75-10.48-1.13-19.13-1.13H48.16c-8.65,0-15.08.38-19.13,1.13-3.98.74-7.12,2.14-9.33,4.15-2.02,1.88-3.46,4.23-4.29,6.98-.84,2.8-1.26,7.19-1.26,13.06v7.67h-7.62v-116.92c0-6.46.19-12.32.57-17.44.38-5.12,1.05-9.85,1.99-14.05.95-4.23,2.2-8.19,3.71-11.78,1.52-3.61,3.44-7.25,5.7-10.84,3.79-6.22,8.97-11.98,15.41-17.1,6.43-5.11,13.8-9.59,21.92-13.32,8.12-3.72,17.02-6.66,26.46-8.73,19.08-4.18,39.04-4.13,57.75.1,9.44,2.14,18.34,5.22,26.46,9.15,8.12,3.93,15.45,8.66,21.78,14.05,6.33,5.39,11.37,11.42,14.98,17.93,3.03,5.27,5.44,13.02,7.14,23.03,1.7,9.99,2.56,21.07,2.56,32.92v112.99ZM206.15,399.02h5.99v-112.18c0-11.8-.86-22.83-2.55-32.78-1.68-9.91-4.05-17.57-7.04-22.77-3.56-6.44-8.54-12.39-14.8-17.72-6.28-5.35-13.55-10.03-21.61-13.93-8.06-3.91-16.91-6.96-26.29-9.09-18.6-4.21-38.43-4.26-57.4-.1-9.38,2.06-18.23,4.98-26.29,8.68-8.06,3.7-15.38,8.15-21.76,13.21-6.36,5.06-11.48,10.74-15.22,16.89-2.24,3.55-4.14,7.16-5.65,10.72-1.49,3.54-2.72,7.46-3.67,11.64-.93,4.16-1.6,8.85-1.98,13.93-.38,5.1-.57,10.94-.57,17.38v116.11h5.99v-6.86c0-5.95.44-10.42,1.3-13.29.87-2.89,2.39-5.36,4.52-7.34,2.33-2.12,5.6-3.58,9.73-4.36,4.1-.76,10.58-1.15,19.28-1.15h123.17c8.7,0,15.18.39,19.28,1.15,4.13.77,7.4,2.24,9.73,4.35,2.31,1.97,3.89,4.45,4.67,7.35.77,2.86,1.15,7.33,1.15,13.28v6.86ZM206.15,369.2l-.67-.59c-1.86-1.63-3.37-2.77-4.47-3.37-1.1-.6-2.89-1.33-5.32-2.15l-.28-.09v-32.86h10.74v39.07ZM196.23,362.41c2.34.8,4.08,1.51,5.18,2.11,1.03.56,2.32,1.51,3.94,2.89v-36.47h-9.11v31.47ZM13.33,369.15v-39.02h10.74v32.87l-.28.09c-2.59.81-4.42,1.56-5.43,2.23-1.04.7-2.51,1.81-4.37,3.3l-.66.53ZM14.14,330.95v36.52c1.57-1.24,2.83-2.19,3.76-2.81,1.03-.69,2.83-1.44,5.35-2.24v-31.46h-9.11ZM190.84,361.93l-.46-.07c-2.79-.41-4.92-.65-6.34-.72-1.42-.07-3.73-.17-6.95-.31l-.39-.02v-30.68h14.14v31.79ZM177.51,360.03c3.02.13,5.2.23,6.56.29,1.37.07,3.37.29,5.96.66v-30.04h-12.52v29.09ZM28.65,361.92v-31.79h14.14v30.69h-.41c-2.78,0-4.97.07-6.49.21-1.53.14-3.81.42-6.79.83l-.46.06ZM29.46,330.95v30.05c2.77-.38,4.9-.63,6.36-.77,1.47-.13,3.54-.2,6.15-.21v-29.07h-12.52ZM172.4,360.83h-14.14v-30.69h14.14v30.69ZM159.07,360.01h12.52v-29.07h-12.52v29.07ZM153.97,360.83h-14.14v-30.69h14.14v30.69ZM140.64,360.01h12.52v-29.07h-12.52v29.07ZM135.25,360.83h-14.14v-30.69h14.14v30.69ZM121.92,360.01h12.52v-29.07h-12.52v29.07ZM116.81,360.83h-14.14v-30.69h14.14v30.69ZM103.48,360.01h12.52v-29.07h-12.52v29.07ZM98.38,360.83h-14.14v-30.69h14.14v30.69ZM85.05,360.01h12.52v-29.07h-12.52v29.07ZM79.94,360.83h-14.14v-30.69h14.14v30.69ZM66.61,360.01h12.52v-29.07h-12.52v29.07ZM61.51,360.83h-14.43v-30.69h14.43v30.69ZM47.89,360.01h12.8v-29.07h-12.8v29.07ZM206.15,313.72H13.33v-18.25c0-5.25.19-9.76.57-13.43.38-3.68,1.01-6.88,1.87-9.52.86-2.66,2.03-4.94,3.48-6.77,1.44-1.82,3.34-3.59,5.63-5.26,7.41-5.27,17.85-9.17,31.03-11.59,13.15-2.41,31.12-3.64,53.41-3.64,14.74,0,28.21.73,40.02,2.18,11.82,1.45,21.94,3.58,30.09,6.35,7.23,2.5,12.93,5.63,16.93,9.32,4.02,3.71,6.84,8.48,8.36,14.2.37,1.1.62,2.21.73,3.28.09,1.04.23,2.35.42,3.93.19,1.63.29,3.63.29,5.96v23.23ZM14.14,312.91h191.2v-22.42c0-2.3-.09-4.27-.28-5.87-.19-1.59-.33-2.91-.43-3.95-.1-1.01-.33-2.06-.69-3.12-1.5-5.59-4.23-10.24-8.14-13.84-3.92-3.61-9.52-6.69-16.64-9.15-8.09-2.74-18.16-4.87-29.92-6.31-11.78-1.44-25.21-2.18-39.92-2.18-22.24,0-40.16,1.22-53.26,3.62-13.06,2.4-23.39,6.25-30.7,11.45-2.23,1.62-4.07,3.34-5.47,5.11-1.39,1.76-2.51,3.95-3.34,6.51-.84,2.59-1.45,5.74-1.83,9.36-.38,3.63-.57,8.12-.57,13.34v17.44ZM206.35,267.09l-.92-1.13c-2.12-2.59-3.82-4.46-5.06-5.54-1.25-1.09-2.96-2.41-5.07-3.91l-.17-.12v-16.22l.71.82c3.12,3.6,5.45,7.27,6.92,10.89,1.46,3.6,2.6,8.23,3.38,13.77l.2,1.44ZM195.94,255.97c2.06,1.47,3.73,2.76,4.97,3.84,1.08.95,2.5,2.47,4.22,4.52-.76-4.83-1.81-8.91-3.11-12.14-1.33-3.26-3.37-6.56-6.07-9.82v13.6ZM14.08,265.93l-.74-.27c.59-5,1.68-9.39,3.24-13.07,1.57-3.69,3.95-7.39,7.07-10.99l.71-.82v14.98l-.17.12c-2.88,2.05-4.97,3.74-6.21,5.03-1.24,1.29-2.55,2.98-3.89,5.02ZM23.54,242.97c-2.71,3.27-4.81,6.61-6.22,9.94-1.35,3.19-2.35,6.94-2.96,11.17,1.04-1.46,2.05-2.71,3.02-3.73,1.26-1.3,3.33-2.99,6.16-5.01v-12.37ZM190.84,253.96l-.6-.33c-2.25-1.23-4.38-2.23-6.33-2.98-2.01-.77-4.34-1.57-6.93-2.38l-.28-.09v-23l.62.39c2.63,1.65,4.98,3.26,6.98,4.79,1.97,1.51,4.12,3.26,6.4,5.19l.14.12v18.28ZM177.51,247.59c2.49.78,4.74,1.56,6.69,2.3,1.81.69,3.77,1.6,5.83,2.7v-16.54c-2.21-1.88-4.31-3.58-6.22-5.05-1.82-1.39-3.94-2.85-6.3-4.35v20.94ZM28.65,252.92v-16.82l.13-.12c2.1-1.95,4.11-3.63,5.99-5,1.89-1.38,4.38-3.06,7.39-4.99l.63-.4v21.35l-.28.09c-2.77.94-5.15,1.81-7.07,2.58-1.88.76-3.96,1.76-6.2,2.99l-.6.33ZM29.46,236.46v15.1c2.04-1.09,3.95-2,5.68-2.7,1.87-.75,4.17-1.59,6.84-2.5v-19.28c-2.72,1.75-4.98,3.29-6.73,4.56-1.81,1.33-3.76,2.95-5.79,4.82ZM172.4,246.96l-.51-.13c-2.6-.68-4.94-1.24-6.93-1.65-1.97-.41-4.11-.83-6.37-1.24l-.33-.06v-27.89l.56.23c2.64,1.1,4.94,2.12,6.82,3.01,1.96.93,4.15,2.01,6.53,3.22l.22.11v24.4ZM159.07,243.19c2.14.39,4.18.79,6.06,1.19,1.88.39,4.05.91,6.46,1.53v-22.85c-2.29-1.16-4.4-2.2-6.29-3.1-1.74-.83-3.83-1.76-6.23-2.76v26ZM47.08,245.57v-22.42l.23-.11c2.27-1.1,4.31-2.06,6.1-2.89,1.84-.84,4.37-1.89,7.54-3.11l.55-.21v26.11l-.34.05c-2.76.43-4.98.8-6.8,1.13-1.86.34-4.15.79-6.8,1.34l-.49.1ZM47.89,223.66v20.91c2.45-.51,4.57-.92,6.33-1.24,1.74-.32,3.86-.67,6.47-1.08v-24.24c-2.9,1.12-5.23,2.09-6.94,2.87-1.73.8-3.69,1.72-5.86,2.77ZM153.97,243.22l-.48-.08c-3.25-.56-5.56-.9-7.06-1.03-1.51-.14-3.59-.34-6.25-.62l-.36-.04v-30.98l.51.13c2.65.69,4.87,1.28,6.67,1.76,1.83.49,4.07,1.16,6.68,1.98l.28.09v28.79ZM140.64,240.71c2.47.26,4.43.45,5.87.58,1.44.13,3.62.45,6.65.96v-27.23c-2.48-.77-4.62-1.4-6.36-1.88-1.68-.45-3.73-.99-6.15-1.63v29.2ZM65.8,242.39v-27.09l.28-.09c2.42-.82,4.63-1.48,6.55-1.98,1.89-.48,4.16-1.07,6.81-1.76l.51-.13v29.73l-.36.04c-2.65.28-4.89.49-6.68.62-1.78.14-4.02.35-6.65.62l-.45.05ZM66.61,215.88v25.61c2.45-.25,4.54-.45,6.23-.58,1.69-.13,3.81-.32,6.29-.58v-27.95c-2.43.64-4.53,1.18-6.3,1.63-1.83.47-3.92,1.1-6.22,1.87ZM135.25,241.14l-.45-.04c-2.81-.28-4.94-.42-6.34-.42s-3.77-.14-6.98-.42l-.37-.03v-32.36l.45.05c2.72.29,4.89.49,6.65.63,1.78.14,4.04.42,6.7.84l.34.05v31.7ZM121.92,239.48c3,.26,5.2.38,6.54.38s3.36.13,5.98.38v-30.11c-2.49-.38-4.6-.65-6.29-.78-1.67-.13-3.71-.32-6.23-.58v30.71ZM84.23,240.71v-30.23l.33-.06c2.8-.54,5.05-.96,6.67-1.25,1.6-.27,3.85-.56,6.69-.83l.45-.04v31.96l-.39.02c-3.19.14-5.67.21-7.39.21s-3.61.07-5.93.21l-.43.03ZM85.05,211.15v28.7c2.15-.12,3.96-.18,5.55-.18s3.98-.06,6.97-.19v-30.29c-2.61.26-4.69.53-6.19.78-1.56.27-3.68.67-6.33,1.18ZM116.81,240.31l-.44-.04c-1.54-.14-2.73-.21-3.65-.21h-10.05v-32.33l.38-.02c2.15-.14,3.74-.21,4.85-.21h8.92v32.81ZM103.48,239.25h9.24c.85,0,1.93.06,3.28.17v-31.11h-8.1c-1.03,0-2.47.06-4.42.18v30.75Z"/>
      </g>
      <g>
        <path d="M73.47,64.73c-5.69-2.91-11-5.05-15.93-6.43-4.93-1.38-9.95-2.08-15.08-2.08-8.91,0-15.93,2.11-21.05,6.33-5.12,4.22-7.68,9.93-7.68,17.12v4.36h-6.81V.41h6.81c.76,9.96,6.12,19.68,16.07,29.15,9.96,9.48,25.65,19.61,47.08,30.4l42.95,22.2h51.49c8.73,0,15.12-.38,19.2-1.14,4.08-.76,7.25-2.18,9.53-4.25,2.27-1.94,3.79-4.32,4.55-7.16.76-2.83,1.14-7.16,1.14-12.97v-7.26h6.81v118.9h-6.81v-7.26c0-5.95-.38-10.34-1.14-13.18-.76-2.83-2.28-5.22-4.55-7.16-2.28-2.08-5.45-3.49-9.53-4.25-4.08-.76-10.48-1.14-19.2-1.14h-36.13l-100.13,51.67c-7.58,4.01-13.03,8.16-16.35,12.45-3.32,4.29-4.98,9.47-4.98,15.56v4.98h-6.81v-119.73h6.81v8.09c0,11.62,3.98,17.43,11.95,17.43,3.41,0,7.78-1.38,13.09-4.15l71.4-37.56-36.69-19.3ZM23.66,38.59c-1.51-1.11-2.88-2.14-4.11-3.11-1.23-.97-3.16-2.49-5.81-4.56v29.88c2.08-1.52,3.59-2.59,4.54-3.22.95-.62,2.74-1.56,5.39-2.8v-16.19ZM23.66,147.11c-2.08-.28-3.73-.65-4.96-1.14-1.23-.48-2.88-1.49-4.96-3.01v52.5c1.52-1.94,2.93-3.49,4.25-4.67,1.33-1.17,3.22-2.52,5.67-4.05v-39.63ZM29.05,52.9c2.65-.69,5.2-1.21,7.66-1.56,2.46-.34,5.3-.52,8.51-.52-3.78-1.8-6.67-3.25-8.65-4.36-1.99-1.11-4.49-2.63-7.52-4.56v11ZM42.38,141.51l-4.25,2.28c-2.08,1.11-3.59,1.8-4.54,2.08-.94.28-2.46.62-4.54,1.04v36.94l13.33-7.05v-35.28ZM61.1,131.96l-13.61,6.85v35.28l13.61-6.85v-35.27ZM79.54,122.42l-13.33,6.85v35.28l13.33-7.06v-35.07ZM97.97,112.66l-13.33,7.06v35.07l13.33-6.85v-35.28ZM116.41,103.12l-13.33,7.06v35.07l13.33-7.06v-35.07ZM123.5,99.38l-1.99,1.04v35.07l11.91-6.23h1.42v-29.88h-11.34ZM140.23,129.26h13.33v-29.88h-13.33v29.88ZM158.67,129.26h13.33v-29.88h-13.33v29.88ZM177.1,129.26c3.22.14,5.53.24,6.95.31,1.42.07,3.54.31,6.38.73v-31.12c-1.51.14-2.74.21-3.69.21h-9.64v29.88ZM195.82,131.55c2.46.83,4.25,1.56,5.39,2.18,1.13.62,2.65,1.76,4.54,3.42v-42.33c-2.08,1.25-3.69,2.08-4.82,2.49-1.13.42-2.84.9-5.1,1.45v32.79Z"/>
        <path class="cls-1" d="M14.14,220.35h-7.62v-120.54h7.62v8.5c0,11.46,3.78,17.02,11.54,17.02,3.34,0,7.68-1.38,12.9-4.1l70.71-37.2-36.01-18.94c-5.63-2.88-10.97-5.03-15.85-6.4-4.88-1.37-9.91-2.06-14.97-2.06-8.77,0-15.77,2.1-20.79,6.24-5,4.12-7.53,9.78-7.53,16.81v4.76h-7.62V0h7.59l.03.38c.75,9.81,6.12,19.53,15.95,28.89,9.88,9.4,25.69,19.61,46.98,30.33l42.87,22.16h51.39c8.66,0,15.1-.38,19.13-1.13,3.98-.74,7.12-2.14,9.33-4.15,2.21-1.88,3.69-4.22,4.43-6.96.75-2.79,1.12-7.12,1.12-12.86v-7.67h7.62v119.71h-7.62v-7.67c0-5.88-.38-10.28-1.13-13.07-.74-2.74-2.23-5.08-4.42-6.95-2.22-2.02-5.36-3.42-9.34-4.16-4.05-.75-10.48-1.13-19.13-1.13h-36.03l-100.04,51.62c-7.49,3.97-12.95,8.12-16.22,12.34-3.25,4.2-4.9,9.35-4.9,15.31v5.39ZM7.34,219.54h5.99v-4.57c0-6.15,1.7-11.47,5.07-15.81,3.34-4.31,8.89-8.54,16.48-12.56l100.22-51.72h36.22c8.7,0,15.18.39,19.28,1.15,4.13.77,7.4,2.24,9.73,4.35,2.31,1.97,3.89,4.45,4.67,7.35.77,2.86,1.15,7.33,1.15,13.28v6.86h5.99V49.78h-5.99v6.86c0,5.81-.39,10.21-1.15,13.07-.78,2.91-2.35,5.38-4.68,7.36-2.32,2.11-5.59,3.58-9.72,4.34-4.08.76-10.56,1.15-19.28,1.15h-51.58l-43.04-22.25c-21.36-10.76-37.23-21.01-47.17-30.47C19.67,20.47,14.24,10.7,13.36.81h-6.03v82.81h5.99v-3.95c0-7.28,2.63-13.15,7.83-17.43,5.17-4.26,12.34-6.42,21.31-6.42,5.13,0,10.24.7,15.19,2.09,4.94,1.39,10.32,3.56,16.01,6.46h0s37.38,19.66,37.38,19.66l-72.08,37.92c-5.34,2.79-9.81,4.2-13.28,4.2-8.2,0-12.35-6-12.35-17.84v-7.69h-5.99v118.92ZM13.33,196.63v-54.48l.65.47c2.04,1.5,3.68,2.49,4.87,2.96,1.19.47,2.83.85,4.87,1.12l.35.05v40.21l-.19.12c-2.43,1.51-4.32,2.86-5.62,4.01-1.29,1.15-2.71,2.71-4.2,4.61l-.73.93ZM14.14,143.75v50.55c1.26-1.54,2.46-2.82,3.58-3.81,1.3-1.15,3.16-2.48,5.54-3.97v-39.05c-1.94-.27-3.52-.65-4.71-1.12-1.14-.45-2.59-1.3-4.41-2.59ZM28.65,184.51v-37.94l.33-.07c2.11-.42,3.58-.76,4.5-1.03.92-.27,2.42-.95,4.46-2.04l4.85-2.6v36.2l-14.14,7.48ZM29.46,147.24v35.93l12.52-6.62v-34.35l-3.66,1.96c-2.12,1.13-3.63,1.82-4.62,2.11-.89.26-2.29.59-4.25.98ZM47.08,174.74v-36.18l14.43-7.26v36.18l-14.43,7.26ZM47.89,139.06v34.37l12.8-6.44v-34.37l-12.8,6.44ZM65.8,165.21v-36.2l14.14-7.26v35.98l-14.14,7.48ZM66.61,129.51v34.35l12.52-6.63v-34.16l-12.52,6.43ZM84.23,155.45v-35.98l14.14-7.48v36.2l-14.14,7.26ZM85.05,119.96v34.16l12.52-6.43v-34.35l-12.52,6.63ZM102.67,145.92v-35.99l14.14-7.48v35.99l-14.14,7.48ZM103.48,110.42v34.15l12.52-6.63v-34.15l-12.52,6.63ZM206.15,138.05l-.67-.59c-1.86-1.63-3.37-2.77-4.47-3.37-1.1-.6-2.89-1.33-5.32-2.15l-.28-.09v-33.4l.31-.08c2.23-.54,3.93-1.03,5.06-1.44,1.1-.4,2.7-1.23,4.75-2.46l.61-.37v43.94ZM196.23,131.26c2.34.8,4.08,1.51,5.18,2.11,1.03.56,2.32,1.51,3.94,2.89v-40.73c-1.83,1.07-3.23,1.78-4.28,2.16-1.11.4-2.73.87-4.84,1.39v32.18ZM121.11,136.16v-35.98l2.39-1.2h11.75v30.69h-1.72l-12.42,6.49ZM121.92,100.67v34.15l11.51-5.96h1.01v-29.07h-10.84l-1.68.88ZM190.84,130.77l-.46-.07c-2.79-.41-4.92-.65-6.34-.72-1.42-.07-3.73-.17-6.95-.31l-.39-.02v-30.68h10.05c.94,0,2.17-.07,3.65-.21l.44-.04v32.04ZM177.51,128.88c3.02.13,5.2.23,6.56.29,1.37.07,3.37.29,5.96.66v-30.21c-1.31.11-2.41.17-3.28.17h-9.24v29.09ZM172.4,129.67h-14.14v-30.69h14.14v30.69ZM159.07,128.86h12.52v-29.07h-12.52v29.07ZM153.97,129.67h-14.14v-30.69h14.14v30.69ZM140.64,128.86h12.52v-29.07h-12.52v29.07ZM13.33,61.59v-31.51l.66.51c2.65,2.08,4.59,3.6,5.81,4.57,1.25.98,2.63,2.02,4.1,3.1l.17.12v16.65l-.23.11c-2.61,1.23-4.41,2.16-5.34,2.77-.91.6-2.39,1.65-4.52,3.21l-.65.47ZM14.14,31.74v28.25c1.8-1.3,3.08-2.21,3.91-2.76.94-.61,2.69-1.53,5.21-2.72v-15.72c-1.42-1.04-2.75-2.05-3.96-3-1.12-.88-2.84-2.24-5.16-4.05ZM28.65,53.43v-12.27l.63.4c3.01,1.93,5.53,3.46,7.49,4.55,1.96,1.1,4.87,2.56,8.63,4.35l-.17.77c-3.16,0-6.01.17-8.45.52-2.43.34-4.99.86-7.61,1.55l-.51.13ZM29.46,42.65v9.73c2.47-.63,4.89-1.11,7.19-1.43,2.02-.28,4.31-.45,6.81-.5-3.02-1.46-5.4-2.67-7.1-3.62-1.84-1.03-4.16-2.43-6.91-4.18Z"/>
      </g>
      <g>
        <path d="M306.52,869.21h-52.36c-8.72,0-15.12.38-19.2,1.14-4.08.76-7.26,2.18-9.54,4.25-2.08,1.94-3.55,4.33-4.41,7.16-.85,2.84-1.28,7.23-1.28,13.18v1.25h-6.81v-113.09h6.81v7.26c0,5.95.43,10.34,1.28,13.18.86,2.84,2.33,5.22,4.41,7.16,2.28,2.07,5.45,3.5,9.53,4.25,4.08.76,10.48,1.14,19.2,1.14h123.17c8.73,0,15.12-.38,19.2-1.14,4.08-.76,7.25-2.18,9.53-4.25,2.27-1.94,3.79-4.32,4.55-7.16.76-2.83,1.14-7.23,1.14-13.18v-7.26h6.81v113.09h-6.81v-1.25c0-5.95-.38-10.34-1.13-13.18-.76-2.83-2.28-5.22-4.56-7.16-2.28-2.08-5.45-3.49-9.53-4.25-4.08-.76-10.48-1.14-19.2-1.14h-63.43v67.23h63.43c8.73,0,15.12-.38,19.2-1.14,4.08-.76,7.25-2.18,9.53-4.25,2.28-1.94,3.79-4.32,4.56-7.16.75-2.83,1.13-7.16,1.13-12.97v-1.25h6.81v112.88h-6.81v-7.26c0-5.95-.38-10.34-1.14-13.18-.76-2.83-2.28-5.22-4.55-7.16-2.28-2.08-5.45-3.49-9.53-4.25-4.08-.76-10.48-1.14-19.2-1.14h-123.17c-8.72,0-15.12.38-19.2,1.14-4.08.76-7.25,2.18-9.53,4.25-2.08,1.94-3.55,4.33-4.41,7.16-.85,2.84-1.28,7.23-1.28,13.18v7.26h-6.81v-113.09h6.81v1.25c0,5.95.43,10.34,1.28,13.18.86,2.84,2.33,5.22,4.41,7.16,2.28,2.08,5.46,3.5,9.54,4.25,4.08.76,10.48,1.14,19.2,1.14h52.36v-67.23ZM229.66,832.69c-2.08-.55-3.69-1.04-4.82-1.45-1.13-.42-2.84-1.25-5.11-2.49v42.33c1.7-1.52,3.12-2.63,4.25-3.32,1.13-.69,3.03-1.45,5.67-2.28v-32.79ZM229.66,953.04c-2.08-.55-3.69-1.04-4.82-1.45-1.13-.42-2.84-1.24-5.11-2.49v42.33c1.89-1.52,3.36-2.63,4.4-3.32,1.04-.69,2.89-1.45,5.53-2.28v-32.79ZM235.05,864.23c3.03-.42,5.3-.69,6.81-.83,1.52-.14,3.69-.21,6.52-.21v-29.88h-9.78c-1.04,0-2.22-.07-3.55-.21v31.12ZM235.05,984.58c3.03-.42,5.3-.69,6.81-.83,1.52-.14,3.69-.21,6.52-.21v-29.88h-9.78c-1.04,0-2.22-.07-3.55-.21v31.12ZM253.49,863.19h13.61v-29.88h-13.61v29.88ZM253.49,983.55h13.61v-29.88h-13.61v29.88ZM272.21,863.19h13.33v-29.88h-13.33v29.88ZM272.21,983.55h13.33v-29.88h-13.33v29.88ZM290.64,863.19h13.33v-29.88h-13.33v29.88ZM290.64,983.55h13.33v-29.88h-13.33v29.88ZM309.08,863.19h13.33v-29.88h-13.33v29.88ZM309.08,983.55h13.33v-29.88h-13.33v29.88ZM327.51,863.19h13.33v-29.88h-13.33v29.88ZM327.51,983.55h13.33v-29.88h-13.33v29.88ZM346.23,863.19h13.33v-29.88h-13.33v29.88ZM346.23,983.55h13.33v-29.88h-13.33v29.88ZM364.67,863.19h13.33v-29.88h-13.33v29.88ZM364.67,983.55h13.33v-29.88h-13.33v29.88ZM383.1,863.19c3.03,0,5.25.07,6.67.21,1.42.14,3.64.42,6.67.83v-31.12c-1.32.14-2.5.21-3.55.21h-9.78v29.88ZM383.1,983.55c3.22.14,5.53.24,6.95.31,1.42.07,3.54.31,6.38.73v-31.12c-1.32.14-2.5.21-3.55.21h-9.78v29.88ZM401.82,865.48c2.65.83,4.49,1.56,5.53,2.18,1.04.62,2.5,1.76,4.4,3.42v-42.33c-2.08,1.25-3.64,2.08-4.68,2.49-1.04.42-2.79.9-5.25,1.45v32.79ZM401.82,985.83c2.46.83,4.25,1.56,5.39,2.18,1.13.62,2.65,1.76,4.54,3.42v-42.33c-2.08,1.25-3.64,2.07-4.68,2.49-1.04.42-2.79.9-5.25,1.45v32.79Z"/>
        <path class="cls-1" d="M418.96,1022.96h-7.62v-7.67c0-5.88-.38-10.28-1.12-13.07-.74-2.74-2.23-5.08-4.42-6.96-2.22-2.02-5.36-3.42-9.34-4.16-4.05-.75-10.48-1.13-19.13-1.13h-123.17c-8.65,0-15.08.38-19.13,1.13-3.98.74-7.12,2.14-9.33,4.15-2.02,1.88-3.46,4.23-4.29,6.98-.84,2.8-1.26,7.19-1.26,13.06v7.67h-7.62v-113.9h7.62v1.65c0,5.87.42,10.27,1.26,13.06.83,2.75,2.28,5.1,4.3,6.98,2.21,2.01,5.35,3.41,9.33,4.15,4.03.75,10.46,1.13,19.13,1.13h51.95v-66.42h-51.95c-8.65,0-15.08.38-19.13,1.13-3.99.75-7.13,2.14-9.34,4.15-2.02,1.88-3.46,4.23-4.29,6.98-.84,2.8-1.26,7.19-1.26,13.06v1.65h-7.62v-113.9h7.62v7.67c0,5.87.42,10.27,1.26,13.06.83,2.75,2.27,5.1,4.3,6.98,2.21,2.02,5.35,3.41,9.33,4.15,4.02.75,10.46,1.13,19.13,1.13h123.17c8.67,0,15.1-.38,19.13-1.13,3.98-.74,7.11-2.14,9.33-4.15,2.21-1.88,3.69-4.22,4.43-6.96.75-2.79,1.12-7.19,1.12-13.07v-7.67h7.62v113.9h-7.62v-1.65c0-5.87-.38-10.27-1.12-13.07-.74-2.74-2.23-5.08-4.43-6.95-2.22-2.02-5.36-3.42-9.34-4.16-4.05-.75-10.48-1.13-19.13-1.13h-63.02v66.42h63.02c8.67,0,15.1-.38,19.13-1.13,3.98-.74,7.12-2.14,9.33-4.15,2.21-1.88,3.7-4.22,4.44-6.96.74-2.8,1.12-7.13,1.12-12.86v-1.65h7.62v113.69ZM412.15,1022.15h5.99v-112.07h-5.99v.84c0,5.81-.39,10.21-1.15,13.07-.78,2.91-2.36,5.39-4.69,7.36-2.32,2.11-5.59,3.58-9.72,4.34-4.08.76-10.56,1.15-19.28,1.15h-63.83v-68.04h63.83c8.7,0,15.18.39,19.28,1.15,4.13.77,7.4,2.24,9.73,4.35,2.32,1.97,3.89,4.45,4.67,7.35.76,2.87,1.15,7.34,1.15,13.28v.84h5.99v-112.28h-5.99v6.86c0,5.95-.39,10.42-1.15,13.28-.78,2.91-2.35,5.38-4.68,7.36-2.32,2.11-5.59,3.58-9.72,4.34-4.07.76-10.56,1.15-19.28,1.15h-123.17c-8.72,0-15.2-.39-19.28-1.15-4.12-.77-7.4-2.23-9.73-4.35-2.13-1.98-3.65-4.45-4.52-7.34-.86-2.87-1.3-7.34-1.3-13.29v-6.86h-5.99v112.28h5.99v-.84c0-5.95.44-10.42,1.3-13.29.87-2.89,2.39-5.36,4.52-7.34,2.33-2.12,5.6-3.58,9.74-4.36,4.09-.76,10.58-1.15,19.28-1.15h52.77v68.04h-52.77c-8.72,0-15.2-.39-19.28-1.15-4.13-.77-7.41-2.23-9.74-4.35-2.13-1.98-3.65-4.45-4.52-7.34-.86-2.87-1.3-7.34-1.3-13.29v-.84h-5.99v112.28h5.99v-6.86c0-5.95.44-10.42,1.3-13.29.87-2.89,2.39-5.36,4.52-7.34,2.33-2.12,5.6-3.58,9.73-4.36,4.09-.76,10.58-1.15,19.28-1.15h123.17c8.7,0,15.18.39,19.28,1.15,4.13.77,7.4,2.24,9.73,4.35,2.31,1.97,3.89,4.45,4.67,7.35.77,2.86,1.15,7.33,1.15,13.28v6.86ZM412.15,992.33l-.67-.59c-1.86-1.64-3.37-2.77-4.47-3.37-1.1-.6-2.89-1.33-5.32-2.15l-.28-.09v-33.4l.32-.07c2.41-.54,4.16-1.03,5.19-1.43,1.01-.41,2.57-1.23,4.62-2.46l.61-.37v43.94ZM402.23,985.54c2.37.81,4.06,1.5,5.18,2.11,1.03.56,2.32,1.51,3.94,2.89v-40.73c-1.79,1.05-3.17,1.77-4.12,2.15-1.02.41-2.7.88-4.99,1.4v32.17ZM219.33,992.28v-43.86l.6.33c2.24,1.23,3.94,2.06,5.05,2.46,1.13.42,2.74.9,4.79,1.44l.3.08v33.4l-.28.09c-2.59.81-4.42,1.57-5.43,2.23-1.04.7-2.51,1.81-4.37,3.3l-.66.53ZM220.14,949.78v40.8c1.57-1.24,2.83-2.19,3.76-2.81,1.03-.69,2.83-1.44,5.35-2.24v-32.18c-1.92-.52-3.46-.98-4.55-1.38-1.05-.38-2.58-1.12-4.56-2.19ZM396.84,985.05l-.46-.07c-2.79-.41-4.92-.65-6.34-.72-1.42-.07-3.73-.17-6.95-.31l-.39-.02v-30.68h10.19c1.03,0,2.21-.07,3.5-.21l.45-.05v32.05ZM383.51,983.16c3.02.13,5.2.23,6.56.29,1.36.07,3.37.29,5.96.66v-30.21c-1.15.11-2.2.16-3.14.16h-9.38v29.09ZM234.65,985.05v-32.04l.45.05c1.3.14,2.48.21,3.5.21h10.19v30.69h-.41c-2.78,0-4.96.07-6.49.21-1.53.14-3.81.42-6.79.83l-.46.06ZM235.46,953.91v30.21c2.77-.38,4.9-.63,6.36-.77,1.47-.13,3.54-.2,6.15-.21v-29.07h-9.38c-.93,0-1.99-.06-3.14-.17ZM378.4,983.95h-14.14v-30.69h14.14v30.69ZM365.07,983.14h12.52v-29.07h-12.52v29.07ZM359.97,983.95h-14.14v-30.69h14.14v30.69ZM346.64,983.14h12.52v-29.07h-12.52v29.07ZM341.25,983.95h-14.14v-30.69h14.14v30.69ZM327.92,983.14h12.52v-29.07h-12.52v29.07ZM322.81,983.95h-14.14v-30.69h14.14v30.69ZM309.48,983.14h12.52v-29.07h-12.52v29.07ZM304.38,983.95h-14.14v-30.69h14.14v30.69ZM291.05,983.14h12.52v-29.07h-12.52v29.07ZM285.94,983.95h-14.14v-30.69h14.14v30.69ZM272.61,983.14h12.52v-29.07h-12.52v29.07ZM267.51,983.95h-14.43v-30.69h14.43v30.69ZM253.89,983.14h12.8v-29.07h-12.8v29.07ZM219.33,871.99v-43.92l.6.33c2.24,1.23,3.94,2.06,5.05,2.46,1.13.42,2.74.9,4.79,1.44l.3.08v33.4l-.28.09c-2.6.82-4.48,1.57-5.58,2.24-1.11.68-2.52,1.78-4.19,3.28l-.68.6ZM220.14,829.43v40.75c1.42-1.23,2.64-2.16,3.64-2.77,1.12-.68,2.96-1.43,5.48-2.23v-32.18c-1.92-.52-3.46-.98-4.55-1.38-1.04-.38-2.58-1.12-4.56-2.19ZM412.15,871.98l-.67-.59c-1.86-1.63-3.32-2.77-4.34-3.38-1.01-.6-2.84-1.32-5.44-2.14l-.28-.09v-33.41l.32-.07c2.41-.54,4.16-1.03,5.19-1.43,1.01-.41,2.57-1.23,4.62-2.46l.61-.37v43.94ZM402.23,865.18c2.55.81,4.29,1.51,5.33,2.13.93.56,2.2,1.53,3.78,2.88v-40.73c-1.79,1.05-3.18,1.78-4.12,2.15-1.02.41-2.7.88-4.99,1.4v32.16ZM396.84,864.7l-.46-.06c-2.96-.41-5.2-.69-6.65-.83-1.42-.14-3.65-.21-6.62-.21h-.41v-30.69h10.19c1.03,0,2.21-.07,3.5-.21l.45-.05v32.04ZM383.51,862.79c2.8,0,4.92.08,6.3.21,1.38.14,3.48.39,6.22.77v-30.21c-1.15.11-2.2.16-3.14.16h-9.38v29.07ZM234.65,864.7v-32.04l.45.05c1.3.14,2.48.21,3.5.21h10.19v30.69h-.41c-2.79,0-4.97.07-6.49.21-1.53.14-3.81.42-6.79.83l-.46.06ZM235.46,833.56v30.21c2.77-.38,4.9-.63,6.36-.77,1.47-.13,3.54-.2,6.15-.21v-29.07h-9.38c-.93,0-1.99-.06-3.14-.17ZM378.4,863.6h-14.14v-30.69h14.14v30.69ZM365.07,862.79h12.52v-29.07h-12.52v29.07ZM359.97,863.6h-14.14v-30.69h14.14v30.69ZM346.64,862.79h12.52v-29.07h-12.52v29.07ZM341.25,863.6h-14.14v-30.69h14.14v30.69ZM327.92,862.79h12.52v-29.07h-12.52v29.07ZM322.81,863.6h-14.14v-30.69h14.14v30.69ZM309.48,862.79h12.52v-29.07h-12.52v29.07ZM304.38,863.6h-14.14v-30.69h14.14v30.69ZM291.05,862.79h12.52v-29.07h-12.52v29.07ZM285.94,863.6h-14.14v-30.69h14.14v30.69ZM272.61,862.79h12.52v-29.07h-12.52v29.07ZM267.51,863.6h-14.43v-30.69h14.43v30.69ZM253.89,862.79h12.8v-29.07h-12.8v29.07Z"/>
      </g>
      <g>
        <path d="M332.62,596.56c11.34,0,20.61.42,27.79,1.25,7.19.83,13.8,2.28,19.85,4.36,29.68,10.1,44.53,34.58,44.53,73.46,0,26.29-9.55,45.1-28.65,56.44-3.59,2.21-7.33,4.08-11.2,5.6-3.87,1.52-8.22,2.73-13.05,3.63-4.82.9-10.25,1.52-16.31,1.87-6.05.35-13.05.52-20.99.52h-80.55c-8.69,0-15.08.38-19.14,1.14-4.06.76-7.23,2.18-9.5,4.25-2.08,1.94-3.54,4.33-4.4,7.16-.85,2.84-1.28,7.23-1.28,13.18v7.26h-6.81v-119.11h6.81v7.26c0,5.95.43,10.34,1.28,13.18.85,2.84,2.32,5.22,4.4,7.16,2.27,2.08,5.44,3.5,9.5,4.25,4.07.76,10.45,1.14,19.14,1.14h109.76c7.94,0,14.66-.59,20.14-1.76,5.49-1.17,10.4-3.08,14.75-5.71,5.1-3.18,9.17-7.26,12.2-12.24,3.02-4.98,4.54-10.3,4.54-15.98,0-4.29-.76-8.58-2.27-12.87-1.52-4.29-3.59-8.37-6.24-12.24-2.65-3.87-5.77-7.4-9.36-10.58-3.59-3.18-7.56-5.81-11.91-7.88-3.21-1.52-6.52-2.8-9.93-3.84-3.4-1.04-7.23-1.87-11.49-2.49-4.25-.62-9.12-1.07-14.61-1.35-5.48-.28-12-.42-19.57-.42h-54.74c-36.49,0-55.02,11.14-55.59,33.41h-6.81v-72h6.81c1.52,10.38,7,18.3,16.45,23.76,9.46,5.47,22.5,8.2,39.14,8.2h57.29ZM225.69,597.59c-1.51-.69-2.55-1.21-3.12-1.56-.57-.34-1.51-1-2.84-1.97v22.62c1.13-1.25,2.03-2.14,2.69-2.7.67-.55,1.75-1.52,3.26-2.9v-13.49ZM229.66,707.15c-2.08-.55-3.69-1.04-4.82-1.45-1.13-.42-2.84-1.25-5.11-2.49v42.33c1.7-1.52,3.17-2.63,4.4-3.32,1.23-.69,3.08-1.45,5.53-2.28v-32.79ZM231.08,607.35c2.46-1.52,4.59-2.66,6.38-3.42,1.8-.76,3.93-1.49,6.38-2.18-2.65-.14-4.72-.34-6.24-.62-1.51-.28-3.69-.83-6.52-1.66v7.88ZM248.38,707.78h-9.78c-1.04,0-2.22-.07-3.55-.21v31.13c3.03-.42,5.25-.66,6.67-.73,1.42-.07,3.64-.17,6.67-.31v-29.88ZM267.1,707.78h-13.61v29.88h13.61v-29.88ZM285.54,707.78h-13.33v29.88h13.33v-29.88ZM303.97,707.78h-13.33v29.88h13.33v-29.88ZM322.41,707.78h-13.33v29.88h13.33v-29.88ZM340.84,707.78h-13.33v29.88h13.33v-29.88ZM359.56,707.78h-13.33v29.88c2.65,0,4.92-.03,6.81-.1,1.89-.07,4.07-.24,6.52-.52v-29.26ZM378,706.95c-2.46.28-4.44.45-5.96.52-1.51.07-3.97.17-7.37.31v28.63c3.22-.42,5.67-.79,7.37-1.14,1.7-.34,3.69-.86,5.96-1.56v-26.77ZM396.43,702.38c-2.46.97-4.63,1.73-6.52,2.28-1.89.55-4.16,1.11-6.81,1.66v25.73c2.84-1.11,5.2-2.18,7.09-3.22,1.89-1.04,3.97-2.46,6.24-4.25v-22.2ZM401.54,720.23c5.11-4.84,9.08-10.24,11.91-16.19,2.84-5.95,4.25-11.76,4.25-17.43-2.65,3.32-5.06,5.88-7.23,7.68-2.18,1.8-5.15,3.73-8.93,5.81v20.13Z"/>
        <path class="cls-1" d="M220.14,777.07h-7.62v-119.92h7.62v7.67c0,5.88.42,10.28,1.26,13.06.83,2.75,2.27,5.1,4.28,6.98,2.2,2.01,5.33,3.41,9.3,4.15,4.02.75,10.44,1.13,19.07,1.13h109.76c7.88,0,14.63-.59,20.05-1.75,5.41-1.16,10.33-3.06,14.62-5.66,5.02-3.13,9.08-7.2,12.06-12.11,2.97-4.9,4.48-10.2,4.48-15.77,0-4.22-.76-8.5-2.25-12.73-1.5-4.24-3.58-8.33-6.19-12.15-2.62-3.83-5.75-7.37-9.29-10.51-3.55-3.14-7.52-5.77-11.82-7.82-3.18-1.5-6.5-2.79-9.87-3.82-3.37-1.03-7.21-1.86-11.43-2.48-4.2-.61-9.1-1.07-14.57-1.34-5.47-.27-12.05-.41-19.55-.41h-54.74c-36.06,0-54.63,11.11-55.18,33.01v.4h-7.62v-72.82h7.56l.05.35c1.49,10.2,6.96,18.09,16.25,23.47,9.35,5.4,22.45,8.14,38.94,8.14h57.29c11.31,0,20.68.42,27.84,1.25,7.18.83,13.89,2.3,19.94,4.38,29.73,10.12,44.8,34.96,44.8,73.84,0,26.32-9.7,45.42-28.84,56.79-3.58,2.21-7.37,4.11-11.26,5.63-3.87,1.52-8.28,2.75-13.12,3.65-4.81.9-10.32,1.53-16.36,1.87-6.01.34-13.08.52-21.01.52h-80.55c-8.62,0-15.03.38-19.07,1.13-3.97.74-7.1,2.14-9.3,4.15-2.01,1.88-3.46,4.23-4.28,6.98-.84,2.79-1.26,7.18-1.26,13.06v7.67ZM213.34,776.26h5.99v-6.86c0-5.96.44-10.43,1.29-13.29.87-2.89,2.38-5.36,4.51-7.34,2.32-2.12,5.58-3.58,9.7-4.36,4.09-.76,10.55-1.15,19.22-1.15h80.55c7.92,0,14.97-.17,20.96-.52,6.01-.34,11.48-.97,16.26-1.86,4.79-.89,9.15-2.11,12.97-3.61,3.84-1.51,7.59-3.38,11.14-5.57,18.88-11.21,28.45-30.09,28.45-56.09,0-38.5-14.89-63.08-44.25-73.07-5.99-2.06-12.64-3.52-19.77-4.34-7.13-.82-16.47-1.24-27.75-1.24h-57.29c-16.63,0-29.87-2.78-39.34-8.25-9.41-5.44-15-13.41-16.6-23.7h-6.05v71.19h6.01c.78-22.17,19.62-33.41,55.98-33.41h54.74c7.51,0,14.1.14,19.59.42,5.49.28,10.42.73,14.64,1.35,4.26.62,8.14,1.46,11.55,2.5,3.41,1.04,6.77,2.34,9.98,3.86,4.37,2.08,8.4,4.76,12.01,7.95,3.59,3.18,6.76,6.77,9.42,10.66,2.65,3.88,4.76,8.03,6.29,12.34,1.52,4.32,2.29,8.69,2.29,13,0,5.72-1.55,11.16-4.6,16.19-3.05,5.01-7.19,9.18-12.33,12.38-4.38,2.65-9.38,4.58-14.88,5.76-5.48,1.18-12.28,1.77-20.22,1.77h-109.76c-8.68,0-15.15-.39-19.22-1.15-4.12-.77-7.38-2.23-9.7-4.35-2.13-1.98-3.64-4.45-4.51-7.34-.86-2.86-1.29-7.33-1.29-13.29v-6.86h-5.99v118.29ZM219.33,746.45v-43.92l.6.33c2.24,1.23,3.94,2.06,5.05,2.46,1.14.42,2.75.9,4.79,1.44l.3.08v33.39l-.28.09c-2.41.82-4.25,1.57-5.46,2.25-1.2.68-2.66,1.78-4.32,3.27l-.68.6ZM220.14,703.9v40.75c1.43-1.23,2.7-2.16,3.79-2.78,1.21-.68,3-1.42,5.32-2.22v-32.18c-1.92-.52-3.45-.98-4.55-1.38-1.04-.38-2.58-1.12-4.56-2.19ZM234.65,739.16v-32.04l.45.05c1.3.14,2.47.21,3.5.21h10.19v30.67l-.39.02c-3.02.14-5.25.24-6.66.31-1.42.07-3.65.32-6.63.72l-.46.06ZM235.46,708.02v30.21c2.77-.37,4.87-.6,6.24-.67,1.36-.07,3.45-.16,6.28-.29v-29.09h-9.38c-.94,0-1.99-.06-3.14-.17ZM346.23,738.06h-.41v-30.69h14.14v30.03l-.36.04c-2.44.28-4.65.45-6.55.52-1.85.07-4.08.1-6.82.1ZM346.64,708.18v29.07c2.55,0,4.64-.04,6.39-.1,1.79-.06,3.85-.22,6.13-.48v-28.49h-12.52ZM341.25,738.06h-14.14v-30.69h14.14v30.69ZM327.92,737.25h12.52v-29.07h-12.52v29.07ZM322.81,738.06h-14.14v-30.69h14.14v30.69ZM309.48,737.25h12.52v-29.07h-12.52v29.07ZM304.38,738.06h-14.14v-30.69h14.14v30.69ZM291.05,737.25h12.52v-29.07h-12.52v29.07ZM285.94,738.06h-14.14v-30.69h14.14v30.69ZM272.61,737.25h12.52v-29.07h-12.52v29.07ZM267.51,738.06h-14.43v-30.69h14.43v30.69ZM253.89,737.25h12.8v-29.07h-12.8v29.07ZM364.26,736.87v-29.49l.39-.02c3.4-.14,5.86-.24,7.37-.31,1.51-.07,3.51-.24,5.93-.52l.45-.05v27.52l-.29.09c-2.27.69-4.28,1.22-5.99,1.57-1.71.35-4.14.72-7.4,1.14l-.46.06ZM365.07,708.17v27.78c2.98-.39,5.3-.75,6.89-1.08,1.61-.33,3.51-.82,5.63-1.46v-26.01c-2.24.25-4.1.41-5.53.47-1.45.07-3.78.17-6.99.3ZM382.69,732.65v-26.65l.32-.07c2.61-.54,4.89-1.1,6.78-1.65,1.87-.55,4.05-1.31,6.49-2.27l.56-.22v23l-.15.12c-2.28,1.8-4.4,3.25-6.3,4.29-1.89,1.04-4.3,2.13-7.14,3.24l-.55.22ZM383.51,706.66v24.8c2.57-1.02,4.75-2.02,6.49-2.98,1.82-1,3.85-2.38,6.03-4.09v-21.41c-2.24.87-4.25,1.57-6,2.08-1.83.54-4.02,1.07-6.51,1.6ZM401.13,721.17v-21.31l.21-.12c3.74-2.05,6.73-4,8.87-5.77,2.14-1.77,4.55-4.33,7.17-7.62l.72-.91v1.16c0,5.71-1.44,11.63-4.29,17.6-2.84,5.97-6.88,11.45-12,16.31l-.69.65ZM401.94,700.34v18.93c4.72-4.62,8.47-9.8,11.14-15.41,2.6-5.45,4.01-10.86,4.19-16.08-2.37,2.89-4.57,5.18-6.55,6.82-2.14,1.77-5.1,3.7-8.79,5.74ZM219.33,617.73v-24.47l.65.47c1.34.98,2.26,1.62,2.81,1.95.55.33,1.58.85,3.08,1.53l.24.11v13.93l-.13.12c-1.59,1.45-2.63,2.38-3.28,2.92-.65.55-1.54,1.44-2.65,2.66l-.71.78ZM220.14,594.86v20.78c.81-.86,1.49-1.53,2.03-1.97.62-.51,1.61-1.4,3.12-2.77v-13.05c-1.42-.65-2.37-1.13-2.93-1.47-.47-.29-1.2-.79-2.22-1.52ZM230.67,608.08v-9.16l.52.15c2.81.82,4.99,1.38,6.48,1.65,1.49.27,3.57.48,6.19.62l.09.8c-2.43.69-4.56,1.41-6.33,2.16-1.77.75-3.89,1.89-6.33,3.4l-.62.38ZM231.49,600v6.62c2.21-1.34,4.17-2.37,5.82-3.07,1.25-.53,2.68-1.05,4.25-1.54-1.62-.13-2.97-.29-4.03-.48-1.42-.26-3.45-.77-6.04-1.52Z"/>
      </g>
      <g>
        <path d="M287.24,406.9l1.42,5.81c-7.94,2.77-15.98,6.33-24.11,10.69-8.13,4.36-15.5,8.96-22.12,13.8-17.58,12.87-26.38,27.6-26.38,44.2,0,12.17,6.62,21.24,19.85,27.18,9.27,4.01,20.8,7.09,34.6,9.23,13.8,2.15,29.31,3.22,46.51,3.22,34.23,0,60.6-4.08,79.13-12.24,13.42-5.95,20.14-15.42,20.14-28.43,0-15.63-8.04-25.32-24.11-29.05-6.99-1.66-16.92-2.49-29.78-2.49-7.37,0-13.42.31-18.15.93-4.72.62-8.41,1.83-11.06,3.63-2.65,1.8-4.44,4.22-5.39,7.26-.94,3.04-1.42,7.06-1.42,12.04v8.51h-6.81v-117.86h6.81v10.79c0,4.84.66,8.75,1.99,11.72,1.32,2.98,3.69,5.33,7.09,7.06,3.4,1.73,8.08,2.9,14.04,3.53s13.66.93,23.11.93c6.05,0,11.3-.03,15.74-.1,4.44-.07,8.37-.17,11.77-.31,3.4-.14,6.47-.38,9.22-.73,2.74-.34,5.53-.73,8.37-1.14l2.55,2.9c-3.22,3.32-5.77,7.33-7.66,12.04-1.89,4.7-2.84,9.54-2.84,14.53,0,3.18.57,7.13,1.7,11.83,1.13,4.7,2.74,9.68,4.82,14.94,1.7,4.43,3.12,8.34,4.25,11.72,1.13,3.39,2.03,6.61,2.69,9.65.66,3.04,1.13,6.05,1.42,9.03.28,2.98.43,6.26.43,9.86,0,5.4-.62,10.86-1.84,16.39-1.23,5.54-2.98,10.93-5.25,16.19-2.27,5.26-5.06,10.24-8.37,14.94-3.31,4.7-7.05,8.99-11.2,12.86-10.02,9.54-22.36,16.91-37.01,22.1-14.65,5.19-30.49,7.78-47.51,7.78-15.5,0-29.97-2.21-43.39-6.64-13.42-4.43-25.24-10.79-35.45-19.09-9.83-8.16-17.06-17.29-21.7-27.39-4.63-10.1-6.95-21.72-6.95-34.86,0-4.29.24-8.2.71-11.72.47-3.53,1.23-6.98,2.27-10.38,1.04-3.39,2.41-6.85,4.11-10.38,1.7-3.53,3.88-7.37,6.52-11.52,3.97-5.95,5.96-11,5.96-15.15,0-3.04-1.28-6.43-3.83-10.17-2.55-3.74-6-7.4-10.35-11v-4.36l75.44-2.28ZM229.95,521.86c-2.65-1.66-4.96-3.22-6.95-4.67-1.99-1.45-4.68-3.56-8.08-6.33,1.7,11.9,6.71,22.41,15.03,31.54v-20.54ZM228.53,423.5c1.32,1.38,2.41,3.25,3.26,5.6.85,2.35,1.28,4.64,1.28,6.85l1.99-1.24v-11.62l-6.52.42ZM235.05,547.79c2.08,1.94,4.16,3.7,6.24,5.29,2.08,1.59,4.44,3.22,7.09,4.88v-27.18c-2.84-1.11-5.1-2.04-6.81-2.8-1.7-.76-3.87-1.83-6.52-3.22v23.03ZM240.16,431.18c3.59-2.21,6.38-3.91,8.37-5.08,1.99-1.17,4.21-2.39,6.67-3.63l-15.03.42v8.3ZM253.49,560.87c2.27,1.25,4.44,2.32,6.52,3.22,2.08.9,4.44,1.9,7.09,3.01v-30.5c-3.21-.69-5.62-1.28-7.23-1.76-1.6-.48-3.73-1.14-6.38-1.97v28.01ZM272.21,568.96c2.27.69,4.4,1.32,6.38,1.87,1.99.55,4.3,1.11,6.95,1.66v-32.16c-2.46-.42-4.63-.76-6.52-1.04-1.89-.28-4.16-.76-6.81-1.45v31.12ZM290.64,573.52c2.65.55,4.87.93,6.67,1.14,1.8.21,4.02.45,6.67.73v-33.41c-2.65-.14-4.91-.28-6.81-.42-1.89-.14-4.06-.34-6.52-.62v32.58ZM309.08,575.6c1.32.14,2.46.21,3.4.21h5.53c1.04,0,2.51-.14,4.4-.42v-32.99h-13.33v33.2ZM335.74,411.88c-1.32-.28-2.6-.59-3.83-.93-1.23-.34-3.07-.93-5.53-1.76v42.54c1.89-1.25,3.4-2.14,4.54-2.7,1.13-.55,2.74-1.25,4.82-2.07v-35.07ZM327.51,574.98c2.65-.28,4.87-.55,6.67-.83,1.8-.28,4.02-.69,6.67-1.25v-31.33c-2.27.28-4.3.45-6.1.52-1.79.07-4.21.18-7.23.31v32.58ZM340.84,445.7c3.22-.42,5.58-.69,7.09-.83,1.52-.14,3.59-.28,6.24-.42v-30.92c-2.84-.14-5.1-.24-6.81-.31-1.7-.07-3.87-.24-6.52-.52v32.99ZM346.23,571.66c2.46-.69,4.64-1.28,6.52-1.76,1.89-.48,4.16-1.21,6.81-2.18v-28.84c-3.21.55-5.72.97-7.52,1.25-1.79.28-3.73.55-5.81.83v30.71ZM359.56,444.25h8.23c1.13,0,2.84.07,5.1.21v-30.92h-13.33v30.71ZM364.67,565.64c2.65-1.11,4.87-2.11,6.67-3.01,1.8-.9,4.02-2.04,6.67-3.42v-25.11c-2.65.83-4.87,1.49-6.67,1.97-1.79.49-4.02,1.07-6.67,1.76v27.8ZM378,444.67c3.22.28,5.72.52,7.52.73,1.8.21,3.74.45,5.81.73v-32.58h-13.33v31.13ZM383.1,555.89c2.46-1.52,4.82-3.25,7.09-5.19,2.27-1.94,4.35-3.94,6.24-6.02v-17.84c-2.27,1.11-4.35,2.04-6.24,2.8-1.89.76-4.25,1.7-7.09,2.8v23.45ZM396.43,447.36c3.03.83,5.44,1.63,7.23,2.39,1.79.76,4.01,1.9,6.67,3.42-2.46-6.36-4.21-11.69-5.25-15.98-1.04-4.29-1.56-8.44-1.56-12.45,0-1.94.09-3.66.28-5.19.19-1.52.66-3.53,1.42-6.02h-8.79v33.82ZM401.54,538.66c2.27-2.91,4.25-5.91,5.96-9.03,1.7-3.11,3.69-7.43,5.96-12.97-1.52,1.11-2.74,1.97-3.69,2.59-.95.62-1.84,1.21-2.69,1.76-.85.55-1.7,1.07-2.55,1.56-.85.49-1.84,1.07-2.98,1.76v14.32Z"/>
        <path class="cls-1" d="M313.9,582.23c-15.48,0-30.12-2.24-43.52-6.66-13.41-4.42-25.38-10.87-35.58-19.16-9.83-8.17-17.17-17.43-21.81-27.54-4.64-10.11-6.99-21.89-6.99-35.03,0-4.26.24-8.23.71-11.78.47-3.52,1.24-7.03,2.28-10.44,1.05-3.41,2.44-6.92,4.14-10.43,1.7-3.52,3.9-7.41,6.55-11.56,3.91-5.86,5.89-10.88,5.89-14.93,0-2.95-1.26-6.29-3.76-9.94-2.52-3.69-5.98-7.36-10.28-10.91l-.15-.12v-4.94l76.17-2.3,1.58,6.49-.35.12c-7.89,2.75-15.98,6.34-24.05,10.66-8.06,4.32-15.49,8.96-22.07,13.77-8.71,6.37-15.33,13.29-19.67,20.58-4.34,7.27-6.54,15.1-6.54,23.29,0,11.94,6.6,20.96,19.61,26.81,9.18,3.98,20.79,7.07,34.5,9.2,13.71,2.13,29.33,3.21,46.45,3.21,34.01,0,60.58-4.11,78.97-12.21,13.2-5.85,19.89-15.29,19.89-28.06,0-15.34-8.01-24.98-23.79-28.65-6.93-1.65-16.92-2.48-29.69-2.48-7.32,0-13.41.31-18.1.93-4.63.61-8.3,1.81-10.89,3.56-2.55,1.74-4.31,4.11-5.23,7.05-.93,3-1.4,7-1.4,11.91v8.91h-7.62v-118.67h7.62v11.2c0,4.76.66,8.65,1.95,11.56,1.28,2.87,3.6,5.18,6.9,6.86,3.34,1.7,8.01,2.87,13.9,3.49,5.91.62,13.68.93,23.07.93,6.25,0,11.4-.03,15.73-.1,4.41-.07,8.36-.17,11.76-.31,3.36-.13,6.45-.38,9.18-.72,2.65-.33,5.46-.72,8.36-1.14l.22-.03,2.95,3.35-.26.27c-3.16,3.26-5.71,7.27-7.57,11.9-1.86,4.63-2.81,9.47-2.81,14.37,0,3.14.57,7.08,1.69,11.73,1.13,4.68,2.75,9.69,4.8,14.89,1.7,4.42,3.13,8.38,4.26,11.74,1.12,3.36,2.04,6.62,2.71,9.69.66,3.06,1.14,6.11,1.43,9.07.28,2.97.43,6.3.43,9.9,0,5.39-.62,10.94-1.85,16.48-1.23,5.55-3.01,11.02-5.27,16.26-2.26,5.25-5.09,10.3-8.41,15.01-3.31,4.7-7.1,9.05-11.26,12.93-10.01,9.54-22.51,17-37.15,22.19-14.63,5.18-30.66,7.8-47.64,7.8ZM212.2,413.35c4.29,3.57,7.75,7.25,10.28,10.96,2.59,3.79,3.9,7.28,3.9,10.4,0,4.21-2.03,9.39-6.02,15.37-2.63,4.12-4.81,7.98-6.5,11.47-1.68,3.48-3.06,6.95-4.09,10.32-1.03,3.36-1.79,6.83-2.25,10.31-.47,3.51-.71,7.44-.71,11.67,0,13.02,2.33,24.69,6.91,34.69,4.59,10,11.85,19.16,21.59,27.25,10.12,8.23,22.01,14.63,35.32,19.02,13.32,4.39,27.88,6.62,43.27,6.62,16.89,0,32.83-2.61,47.37-7.76,14.53-5.14,26.94-12.55,36.87-22.01,4.12-3.84,7.87-8.15,11.15-12.8,3.28-4.67,6.08-9.67,8.33-14.87,2.24-5.19,4-10.61,5.22-16.11,1.22-5.48,1.83-10.97,1.83-16.3,0-3.57-.14-6.87-.42-9.82-.28-2.93-.75-5.95-1.41-8.98-.66-3.04-1.57-6.27-2.68-9.61-1.12-3.36-2.55-7.3-4.25-11.71-2.07-5.22-3.7-10.27-4.84-14.99-1.14-4.71-1.71-8.72-1.71-11.92,0-5.01.96-9.95,2.87-14.68,1.85-4.6,4.37-8.61,7.48-11.9l-2.16-2.46c-2.83.41-5.57.79-8.16,1.11-2.75.35-5.87.59-9.25.73-3.4.14-7.37.24-11.78.31-4.34.07-9.49.1-15.75.1-9.43,0-17.22-.31-23.16-.94-5.98-.62-10.75-1.83-14.18-3.57-3.47-1.76-5.92-4.2-7.28-7.25-1.34-3.02-2.02-7.02-2.02-11.89v-10.38h-5.99v117.05h5.99v-8.1c0-4.99.48-9.08,1.44-12.16.97-3.12,2.84-5.64,5.55-7.48,2.7-1.83,6.48-3.07,11.24-3.7,4.73-.62,10.85-.94,18.21-.94,12.83,0,22.88.84,29.87,2.5,16.2,3.77,24.42,13.67,24.42,29.45,0,13.12-6.86,22.81-20.38,28.8-18.49,8.15-45.17,12.28-79.29,12.28-17.16,0-32.83-1.08-46.58-3.22-13.77-2.14-25.45-5.25-34.7-9.26-13.34-5.99-20.1-15.26-20.1-27.56,0-16.66,8.93-31.64,26.54-44.53,6.61-4.83,14.07-9.49,22.17-13.83,7.99-4.28,16-7.84,23.82-10.59l-1.25-5.13-74.72,2.26v3.77ZM318.01,576.21h-5.53c-.96,0-2.12-.07-3.45-.21l-.36-.04v-33.97h14.14v33.75l-.35.05c-1.89.28-3.39.42-4.46.42ZM309.48,575.23c1.14.11,2.15.17,3,.17h5.53c.96,0,2.31-.12,3.99-.36v-32.24h-12.52v32.43ZM304.38,575.84l-.45-.05c-2.65-.28-4.87-.52-6.67-.73-1.8-.21-4.06-.59-6.7-1.15l-.32-.07v-33.36l.45.05c2.46.28,4.64.49,6.51.62,1.94.14,4.23.28,6.8.42l.39.02v34.24ZM291.05,573.19c2.48.51,4.6.87,6.31,1.07,1.7.2,3.77.42,6.21.68v-32.57c-2.42-.13-4.58-.26-6.43-.4-1.76-.13-3.8-.32-6.09-.57v31.79ZM327.11,575.43v-33.42l.39-.02c3.03-.14,5.44-.24,7.23-.31,1.79-.07,3.83-.24,6.06-.52l.46-.06v32.12l-.32.07c-2.64.55-4.89.97-6.69,1.25-1.79.28-4.04.56-6.68.83l-.45.05ZM327.92,542.79v31.74c2.44-.26,4.52-.52,6.2-.78,1.71-.26,3.83-.66,6.32-1.17v-30.54c-2.08.25-3.99.4-5.68.47-1.72.07-4,.17-6.84.29ZM285.94,572.99l-.49-.1c-2.63-.55-4.98-1.11-6.98-1.67-1.95-.54-4.1-1.17-6.39-1.87l-.29-.09v-31.95l.51.13c2.62.68,4.89,1.17,6.76,1.44,2.03.3,4.23.65,6.53,1.04l.34.06v33ZM272.61,568.66c2.17.66,4.22,1.26,6.08,1.78,1.86.52,4.02,1.04,6.43,1.55v-31.32c-2.17-.37-4.25-.69-6.18-.98-1.78-.26-3.91-.71-6.34-1.33v30.3ZM345.82,572.19v-31.6l.35-.05c2.08-.28,4.01-.55,5.81-.83,1.78-.27,4.3-.69,7.51-1.24l.48-.08v29.61l-.27.1c-2.64.97-4.94,1.71-6.85,2.19-1.93.5-4.13,1.09-6.51,1.76l-.52.15ZM346.64,541.3v29.82c2.19-.61,4.22-1.16,6.02-1.62,1.81-.46,4-1.16,6.5-2.07v-28.08c-2.99.51-5.36.91-7.05,1.16-1.7.26-3.52.52-5.47.78ZM267.51,567.7l-.56-.23c-2.65-1.11-5.01-2.11-7.09-3.01-2.08-.9-4.29-1.99-6.56-3.23l-.21-.12v-28.81l.53.17c2.65.83,4.77,1.49,6.38,1.97,1.58.48,4,1.07,7.2,1.75l.32.07v31.44ZM253.89,560.63c2.17,1.19,4.28,2.22,6.28,3.08,1.93.84,4.11,1.76,6.52,2.77v-29.56c-3.1-.67-5.38-1.23-6.94-1.7-1.5-.45-3.45-1.05-5.86-1.81v27.22ZM364.26,566.25v-28.73l.3-.08c2.65-.69,4.87-1.28,6.66-1.76,1.78-.48,3.95-1.12,6.65-1.97l.53-.17v25.91l-.22.11c-2.64,1.38-4.88,2.54-6.67,3.43-1.79.9-4.04,1.92-6.69,3.02l-.56.23ZM365.07,538.15v26.88c2.39-1.01,4.43-1.93,6.08-2.76,1.73-.87,3.9-1.98,6.44-3.31v-24.31c-2.46.77-4.48,1.36-6.15,1.81-1.73.47-3.85,1.03-6.36,1.68ZM248.79,558.7l-.62-.39c-2.64-1.66-5.04-3.31-7.12-4.9-2.07-1.58-4.18-3.37-6.27-5.32l-.13-.12v-23.88l.59.31c2.7,1.41,4.83,2.46,6.5,3.21,1.69.76,3.97,1.7,6.79,2.79l.26.1v28.19ZM235.46,547.62c2.03,1.88,4.07,3.61,6.08,5.15,1.9,1.45,4.06,2.95,6.44,4.46v-26.17c-2.71-1.06-4.92-1.97-6.57-2.71-1.56-.7-3.52-1.66-5.95-2.92v22.19ZM382.69,556.61v-24.45l.26-.1c2.83-1.11,5.2-2.04,7.09-2.8,1.87-.75,3.96-1.69,6.21-2.79l.58-.29v18.65l-.11.12c-1.88,2.07-4,4.11-6.28,6.05-2.27,1.94-4.67,3.7-7.14,5.22l-.62.38ZM383.51,532.72v22.44c2.21-1.41,4.37-3.01,6.42-4.76,2.21-1.89,4.26-3.86,6.1-5.87v-17.04c-2.05.99-3.96,1.84-5.68,2.53-1.83.74-4.11,1.64-6.83,2.7ZM230.35,543.45l-.71-.78c-8.34-9.15-13.43-19.83-15.13-31.76l-.15-1.03.81.65c3.35,2.73,6.07,4.85,8.07,6.32,1.96,1.44,4.29,3,6.92,4.65l.19.12v21.82ZM215.47,511.84c1.77,11,6.5,20.92,14.07,29.5v-19.26c-2.57-1.62-4.85-3.15-6.78-4.57-1.84-1.35-4.29-3.26-7.28-5.68ZM401.13,539.84v-15.73l.2-.12c1.14-.69,2.13-1.28,2.99-1.77.83-.47,1.68-.99,2.53-1.54.67-.43,1.36-.88,2.08-1.36l.61-.4c.95-.63,2.19-1.5,3.67-2.58l1.16-.85-.55,1.33c-2.26,5.52-4.27,9.89-5.98,13.01-1.7,3.12-3.72,6.17-5.99,9.08l-.73.93ZM401.94,524.57v12.89c1.95-2.59,3.69-5.28,5.19-8.02,1.55-2.84,3.36-6.74,5.39-11.6-.99.71-1.84,1.3-2.54,1.76l-.61.4c-.72.48-1.42.93-2.08,1.36-.87.56-1.73,1.09-2.57,1.57-.8.46-1.72,1-2.77,1.64ZM411.12,454.1l-.99-.57c-2.63-1.51-4.86-2.65-6.62-3.4-1.79-.75-4.2-1.55-7.18-2.37l-.3-.08v-34.54h9.75l-.16.52c-.75,2.46-1.22,4.46-1.4,5.95-.19,1.49-.28,3.22-.28,5.14,0,3.97.52,8.13,1.55,12.35,1.03,4.25,2.79,9.6,5.23,15.93l.41,1.07ZM396.84,447.05c2.88.8,5.23,1.58,6.98,2.32,1.57.67,3.49,1.63,5.72,2.89-2.25-5.9-3.88-10.93-4.86-14.97-1.04-4.29-1.57-8.51-1.57-12.55,0-1.95.1-3.71.29-5.24.17-1.42.6-3.29,1.27-5.56h-7.84v33.11ZM325.97,452.47v-43.86l.54.18c2.52.85,4.32,1.42,5.51,1.76,1.21.34,2.49.65,3.8.93l.32.07v35.67l-.26.1c-2.04.81-3.65,1.51-4.79,2.06-1.12.55-2.63,1.44-4.49,2.67l-.63.41ZM326.78,409.75v41.22c1.61-1.04,2.94-1.82,3.95-2.31,1.11-.54,2.66-1.21,4.59-1.98v-34.46c-1.22-.26-2.4-.55-3.53-.87-1.11-.31-2.76-.83-5.01-1.59ZM391.73,446.58l-.46-.06c-2.08-.28-4.01-.52-5.81-.73-1.73-.2-4.19-.44-7.5-.72l-.37-.03v-31.9h14.14v33.45ZM378.4,444.29c3.14.27,5.48.5,7.16.69,1.67.19,3.45.42,5.36.67v-31.71h-12.52v30.35ZM340.44,446.17v-33.91l.45.05c2.62.28,4.8.45,6.5.52,1.7.07,3.97.18,6.81.31l.39.02v31.69l-.38.02c-2.6.14-4.7.28-6.23.41-1.51.14-3.9.42-7.07.83l-.46.06ZM341.25,413.16v32.08c2.96-.38,5.2-.64,6.65-.77,1.46-.13,3.44-.26,5.87-.4v-30.15c-2.66-.13-4.79-.22-6.42-.29-1.61-.06-3.66-.22-6.1-.47ZM373.3,444.89l-.43-.03c-2.32-.14-3.98-.21-5.08-.21h-8.63v-31.52h14.14v31.76ZM359.97,443.84h7.82c1.05,0,2.59.06,4.7.18v-30.08h-12.52v29.9ZM232.66,436.68v-.73c0-2.15-.42-4.41-1.25-6.71-.83-2.29-1.9-4.13-3.17-5.46l-.6-.63,7.83-.5v12.28l-2.8,1.75ZM229.38,423.85c1.11,1.34,2.04,3.06,2.79,5.11.77,2.13,1.2,4.23,1.29,6.26l1.19-.74v-10.96l-5.26.33ZM239.75,431.9v-9.42l15.43-.43.19.77c-2.43,1.23-4.67,2.45-6.64,3.62-1.91,1.13-4.64,2.79-8.36,5.08l-.62.38ZM240.56,423.27v7.18c3.41-2.09,5.95-3.64,7.75-4.71,1.55-.92,3.26-1.87,5.1-2.83l-12.85.35Z"/>
      </g>
      <g>
        <path d="M306.52,233.64h-52.36c-8.72,0-15.12.38-19.2,1.14-4.08.76-7.26,2.18-9.54,4.25-2.08,1.94-3.55,4.32-4.41,7.16-.85,2.84-1.28,7.23-1.28,13.18v1.25h-6.81v-113.09h6.81v7.26c0,5.95.43,10.34,1.28,13.18.86,2.84,2.33,5.22,4.41,7.16,2.28,2.08,5.45,3.5,9.53,4.25,4.08.76,10.48,1.14,19.2,1.14h123.17c8.73,0,15.12-.38,19.2-1.14,4.08-.76,7.25-2.18,9.53-4.25,2.27-1.94,3.79-4.32,4.55-7.16.76-2.83,1.14-7.23,1.14-13.18v-7.26h6.81v113.09h-6.81v-1.25c0-5.95-.38-10.34-1.13-13.18-.76-2.83-2.28-5.22-4.56-7.16-2.28-2.08-5.45-3.49-9.53-4.25-4.08-.76-10.48-1.14-19.2-1.14h-63.43v67.23h63.43c8.73,0,15.12-.38,19.2-1.14,4.08-.76,7.25-2.18,9.53-4.25,2.28-1.94,3.79-4.32,4.56-7.16.75-2.83,1.13-7.16,1.13-12.97v-1.25h6.81v112.88h-6.81v-7.26c0-5.95-.38-10.34-1.14-13.18-.76-2.83-2.28-5.22-4.55-7.16-2.28-2.08-5.45-3.49-9.53-4.25-4.08-.76-10.48-1.14-19.2-1.14h-123.17c-8.72,0-15.12.38-19.2,1.14-4.08.76-7.25,2.18-9.53,4.25-2.08,1.94-3.55,4.33-4.41,7.16-.85,2.84-1.28,7.23-1.28,13.18v7.26h-6.81v-113.09h6.81v1.25c0,5.95.43,10.34,1.28,13.18.86,2.84,2.33,5.22,4.41,7.16,2.28,2.08,5.46,3.5,9.54,4.25,4.08.76,10.48,1.14,19.2,1.14h52.36v-67.23ZM229.66,197.12c-2.08-.55-3.69-1.04-4.82-1.45-1.13-.42-2.84-1.24-5.11-2.49v42.33c1.7-1.52,3.12-2.63,4.25-3.32,1.13-.69,3.03-1.45,5.67-2.28v-32.79ZM229.66,317.47c-2.08-.55-3.69-1.04-4.82-1.45-1.13-.42-2.84-1.25-5.11-2.49v42.33c1.89-1.52,3.36-2.63,4.4-3.32,1.04-.69,2.89-1.45,5.53-2.28v-32.79ZM235.05,228.66c3.03-.41,5.3-.69,6.81-.83,1.52-.14,3.69-.21,6.52-.21v-29.88h-9.78c-1.04,0-2.22-.07-3.55-.21v31.12ZM235.05,349.01c3.03-.42,5.3-.69,6.81-.83,1.52-.14,3.69-.21,6.52-.21v-29.88h-9.78c-1.04,0-2.22-.07-3.55-.21v31.13ZM253.49,227.62h13.61v-29.88h-13.61v29.88ZM253.49,347.97h13.61v-29.88h-13.61v29.88ZM272.21,227.62h13.33v-29.88h-13.33v29.88ZM272.21,347.97h13.33v-29.88h-13.33v29.88ZM290.64,227.62h13.33v-29.88h-13.33v29.88ZM290.64,347.97h13.33v-29.88h-13.33v29.88ZM309.08,227.62h13.33v-29.88h-13.33v29.88ZM309.08,347.97h13.33v-29.88h-13.33v29.88ZM327.51,227.62h13.33v-29.88h-13.33v29.88ZM327.51,347.97h13.33v-29.88h-13.33v29.88ZM346.23,227.62h13.33v-29.88h-13.33v29.88ZM346.23,347.97h13.33v-29.88h-13.33v29.88ZM364.67,227.62h13.33v-29.88h-13.33v29.88ZM364.67,347.97h13.33v-29.88h-13.33v29.88ZM383.1,227.62c3.03,0,5.25.07,6.67.21,1.42.14,3.64.42,6.67.83v-31.12c-1.32.14-2.5.21-3.55.21h-9.78v29.88ZM383.1,347.97c3.22.14,5.53.24,6.95.31,1.42.07,3.54.31,6.38.73v-31.13c-1.32.14-2.5.21-3.55.21h-9.78v29.88ZM401.82,229.9c2.65.83,4.49,1.56,5.53,2.18,1.04.62,2.5,1.76,4.4,3.42v-42.33c-2.08,1.25-3.64,2.07-4.68,2.49-1.04.42-2.79.9-5.25,1.45v32.79ZM401.82,350.25c2.46.83,4.25,1.56,5.39,2.18,1.13.62,2.65,1.76,4.54,3.42v-42.33c-2.08,1.25-3.64,2.08-4.68,2.49-1.04.42-2.79.9-5.25,1.45v32.79Z"/>
        <path class="cls-1" d="M418.96,387.39h-7.62v-7.67c0-5.88-.38-10.28-1.12-13.07-.74-2.74-2.23-5.08-4.42-6.95-2.22-2.02-5.36-3.42-9.34-4.16-4.05-.75-10.48-1.13-19.13-1.13h-123.17c-8.65,0-15.08.38-19.13,1.13-3.98.74-7.12,2.14-9.33,4.15-2.02,1.88-3.46,4.23-4.29,6.98-.84,2.8-1.26,7.19-1.26,13.06v7.67h-7.62v-113.9h7.62v1.65c0,5.87.42,10.27,1.26,13.06.83,2.75,2.28,5.1,4.3,6.98,2.21,2.01,5.35,3.41,9.33,4.15,4.03.75,10.46,1.13,19.13,1.13h51.95v-66.42h-51.95c-8.65,0-15.08.38-19.13,1.13-3.99.74-7.13,2.14-9.34,4.15-2.02,1.88-3.46,4.23-4.29,6.98-.84,2.8-1.26,7.19-1.26,13.06v1.65h-7.62v-113.9h7.62v7.67c0,5.87.42,10.27,1.26,13.06.83,2.75,2.28,5.1,4.3,6.98,2.21,2.01,5.35,3.41,9.33,4.15,4.03.75,10.46,1.13,19.13,1.13h123.17c8.66,0,15.1-.38,19.13-1.13,3.98-.74,7.12-2.14,9.33-4.15,2.21-1.88,3.69-4.22,4.43-6.96.75-2.79,1.12-7.19,1.12-13.07v-7.67h7.62v113.9h-7.62v-1.65c0-5.87-.38-10.27-1.12-13.07-.74-2.74-2.23-5.08-4.43-6.95-2.22-2.02-5.36-3.42-9.34-4.16-4.04-.75-10.48-1.13-19.13-1.13h-63.02v66.42h63.02c8.66,0,15.1-.38,19.13-1.13,3.98-.74,7.12-2.14,9.33-4.15,2.21-1.88,3.7-4.22,4.44-6.96.74-2.8,1.12-7.13,1.12-12.86v-1.65h7.62v113.69ZM412.15,386.58h5.99v-112.07h-5.99v.84c0,5.81-.39,10.21-1.15,13.07-.78,2.91-2.36,5.39-4.69,7.36-2.32,2.11-5.59,3.58-9.72,4.34-4.08.76-10.56,1.15-19.28,1.15h-63.83v-68.04h63.83c8.7,0,15.18.39,19.28,1.15,4.13.77,7.4,2.24,9.73,4.35,2.32,1.97,3.89,4.45,4.67,7.35.76,2.87,1.15,7.34,1.15,13.28v.84h5.99v-112.28h-5.99v6.86c0,5.95-.39,10.42-1.15,13.28-.78,2.91-2.36,5.38-4.68,7.36-2.32,2.11-5.59,3.58-9.72,4.34-4.08.76-10.56,1.15-19.28,1.15h-123.17c-8.71,0-15.2-.39-19.28-1.15-4.13-.77-7.4-2.23-9.73-4.35-2.13-1.98-3.65-4.45-4.52-7.34-.86-2.87-1.3-7.34-1.3-13.29v-6.86h-5.99v112.28h5.99v-.84c0-5.95.44-10.42,1.3-13.29.87-2.89,2.39-5.36,4.52-7.34,2.33-2.12,5.6-3.58,9.74-4.36,4.09-.76,10.58-1.15,19.28-1.15h52.77v68.04h-52.77c-8.71,0-15.2-.39-19.28-1.15-4.13-.77-7.41-2.23-9.74-4.35-2.13-1.98-3.65-4.45-4.52-7.34-.86-2.87-1.3-7.34-1.3-13.29v-.84h-5.99v112.28h5.99v-6.86c0-5.95.44-10.42,1.3-13.29.87-2.89,2.39-5.36,4.52-7.34,2.33-2.12,5.6-3.58,9.73-4.36,4.1-.76,10.58-1.15,19.28-1.15h123.17c8.7,0,15.18.39,19.28,1.15,4.13.77,7.4,2.24,9.73,4.35,2.31,1.97,3.89,4.45,4.67,7.35.77,2.86,1.15,7.33,1.15,13.28v6.86ZM412.15,356.75l-.67-.59c-1.86-1.63-3.37-2.77-4.47-3.37-1.1-.6-2.89-1.33-5.32-2.15l-.28-.09v-33.4l.32-.07c2.41-.54,4.16-1.02,5.19-1.43,1.01-.4,2.57-1.23,4.62-2.46l.61-.37v43.94ZM402.23,349.96c2.34.8,4.08,1.51,5.18,2.11,1.03.56,2.32,1.51,3.94,2.89v-40.73c-1.79,1.05-3.18,1.78-4.12,2.15-1.02.41-2.7.88-4.99,1.4v32.17ZM219.33,356.7v-43.86l.6.33c2.24,1.23,3.94,2.06,5.05,2.46,1.13.41,2.74.9,4.79,1.44l.3.08v33.4l-.28.09c-2.59.81-4.42,1.56-5.43,2.23-1.04.7-2.51,1.81-4.37,3.3l-.66.53ZM220.14,314.21v40.8c1.57-1.24,2.83-2.19,3.76-2.81,1.03-.69,2.83-1.44,5.35-2.24v-32.18c-1.92-.52-3.45-.98-4.55-1.38-1.04-.38-2.58-1.12-4.56-2.19ZM396.84,349.48l-.46-.07c-2.79-.41-4.92-.65-6.34-.72-1.42-.07-3.73-.17-6.95-.31l-.39-.02v-30.68h10.19c1.04,0,2.21-.07,3.5-.21l.45-.05v32.05ZM383.51,347.58c3.02.13,5.2.23,6.56.29,1.37.07,3.37.29,5.96.66v-30.21c-1.14.11-2.2.16-3.14.16h-9.38v29.09ZM234.65,349.47v-32.04l.45.05c1.29.14,2.47.21,3.5.21h10.19v30.69h-.41c-2.78,0-4.97.07-6.49.21-1.53.14-3.81.42-6.79.83l-.46.06ZM235.46,318.33v30.21c2.77-.38,4.9-.63,6.36-.77,1.47-.13,3.54-.2,6.15-.21v-29.07h-9.38c-.94,0-1.99-.06-3.14-.17ZM378.4,348.38h-14.14v-30.69h14.14v30.69ZM365.07,347.56h12.52v-29.07h-12.52v29.07ZM359.97,348.38h-14.14v-30.69h14.14v30.69ZM346.64,347.56h12.52v-29.07h-12.52v29.07ZM341.25,348.38h-14.14v-30.69h14.14v30.69ZM327.92,347.56h12.52v-29.07h-12.52v29.07ZM322.81,348.38h-14.14v-30.69h14.14v30.69ZM309.48,347.56h12.52v-29.07h-12.52v29.07ZM304.38,348.38h-14.14v-30.69h14.14v30.69ZM291.05,347.56h12.52v-29.07h-12.52v29.07ZM285.94,348.38h-14.14v-30.69h14.14v30.69ZM272.61,347.56h12.52v-29.07h-12.52v29.07ZM267.51,348.38h-14.43v-30.69h14.43v30.69ZM253.89,347.56h12.8v-29.07h-12.8v29.07ZM219.33,236.41v-43.92l.6.33c2.24,1.23,3.94,2.06,5.05,2.46,1.13.41,2.74.9,4.79,1.44l.3.08v33.4l-.28.09c-2.6.82-4.48,1.57-5.58,2.24-1.11.68-2.52,1.78-4.19,3.28l-.68.6ZM220.14,193.86v40.75c1.42-1.23,2.64-2.16,3.64-2.77,1.12-.68,2.96-1.43,5.48-2.23v-32.18c-1.92-.52-3.45-.98-4.55-1.38-1.05-.38-2.58-1.12-4.56-2.19ZM412.15,236.4l-.67-.59c-1.86-1.63-3.32-2.77-4.34-3.38-1.01-.6-2.84-1.32-5.44-2.14l-.28-.09v-33.41l.32-.07c2.41-.54,4.16-1.02,5.19-1.43,1.01-.41,2.57-1.23,4.62-2.46l.61-.37v43.94ZM402.23,229.6c2.55.81,4.29,1.51,5.33,2.13.93.56,2.2,1.53,3.78,2.88v-40.73c-1.79,1.05-3.18,1.77-4.12,2.15-1.02.41-2.7.88-4.99,1.4v32.16ZM396.84,229.12l-.46-.06c-2.98-.41-5.22-.69-6.65-.83-1.42-.14-3.65-.21-6.63-.21h-.41v-30.69h10.19c1.04,0,2.21-.07,3.5-.21l.45-.05v32.04ZM383.51,227.21c2.8,0,4.92.08,6.3.21,1.37.13,3.46.39,6.22.77v-30.21c-1.14.11-2.2.16-3.14.16h-9.38v29.07ZM234.65,229.12v-32.04l.45.05c1.29.14,2.47.21,3.5.21h10.19v30.69h-.41c-2.78,0-4.97.07-6.49.21-1.51.14-3.8.42-6.79.83l-.46.06ZM235.46,197.98v30.21c2.78-.38,4.92-.64,6.36-.77,1.47-.13,3.54-.2,6.15-.21v-29.07h-9.38c-.94,0-1.99-.06-3.14-.17ZM378.4,228.03h-14.14v-30.69h14.14v30.69ZM365.07,227.21h12.52v-29.07h-12.52v29.07ZM359.97,228.03h-14.14v-30.69h14.14v30.69ZM346.64,227.21h12.52v-29.07h-12.52v29.07ZM341.25,228.03h-14.14v-30.69h14.14v30.69ZM327.92,227.21h12.52v-29.07h-12.52v29.07ZM322.81,228.03h-14.14v-30.69h14.14v30.69ZM309.48,227.21h12.52v-29.07h-12.52v29.07ZM304.38,228.03h-14.14v-30.69h14.14v30.69ZM291.05,227.21h12.52v-29.07h-12.52v29.07ZM285.94,228.03h-14.14v-30.69h14.14v30.69ZM272.61,227.21h12.52v-29.07h-12.52v29.07ZM267.51,228.03h-14.43v-30.69h14.43v30.69ZM253.89,227.21h12.8v-29.07h-12.8v29.07Z"/>
      </g>
      <g>
        <path d="M493.24,834.97v4.98c-10.21,5.67-19.19,11.28-26.94,16.81-7.75,5.54-15.22,11.55-22.41,18.05-3.4,3.32-6.28,6.4-8.65,9.23-2.36,2.84-4.25,5.71-5.67,8.61-1.42,2.9-2.41,5.98-2.98,9.23-.57,3.25-.85,6.88-.85,10.89v23.66h87.64v-5.81c0-8.85-2.88-16.67-8.65-23.45-5.77-6.78-14.79-12.79-27.09-18.05v-5.39h78.56v5.39c-11.91,5.26-20.89,11.41-26.94,18.47-6.05,7.06-9.08,14.73-9.08,23.03v5.81h97.56v-17.84c0-4.57-.43-8.85-1.28-12.87-.85-4.01-2.18-7.88-3.97-11.62-1.8-3.74-4.11-7.43-6.95-11.1-2.84-3.66-6.24-7.43-10.21-11.31-6.62-6.22-13.52-12.04-20.7-17.43-7.18-5.4-15.5-10.86-24.96-16.39v-4.77h74.88v189.45h-6.81v-7.26c0-5.95-.38-10.34-1.14-13.18-.76-2.83-2.28-5.22-4.55-7.16-2.28-2.08-5.45-3.49-9.53-4.25-4.08-.76-10.48-1.14-19.2-1.14h-123.17c-8.72,0-15.12.38-19.2,1.14-4.08.76-7.25,2.18-9.53,4.25-2.08,1.94-3.55,4.33-4.41,7.16-.85,2.84-1.28,7.23-1.28,13.18v7.26h-6.81v-187.58h74.31ZM425.74,850.74v35.9c.95-1.11,1.75-2.04,2.41-2.8.66-.76,1.37-1.59,2.13-2.49.76-.9,1.7-1.94,2.84-3.11,1.13-1.17,2.65-2.8,4.54-4.88v-22.62h-11.91ZM425.74,953.66v37.77c1.89-1.52,3.4-2.63,4.54-3.32,1.13-.69,2.93-1.45,5.39-2.28v-32.16h-9.93ZM441.05,984.58c2.84-.42,5.01-.66,6.52-.73,1.52-.07,3.78-.17,6.81-.31v-29.88h-13.33v30.92ZM443.04,868.59c4.35-3.87,8.32-7.16,11.91-9.86,3.59-2.7,7.56-5.36,11.91-7.99h-23.82v17.85ZM459.49,983.55h13.61v-29.88h-13.61v29.88ZM478.21,983.55h13.33v-29.88h-13.33v29.88ZM496.64,983.55h13.33v-29.88h-13.33v29.88ZM514.23,895.98h-15.07c2.65,1.66,5.44,3.94,8.37,6.85,2.93,2.91,5.15,5.6,6.67,8.09l.04-14.94ZM515.36,983.55h13.33v-29.88h-13.33v29.88ZM519.33,911.96c1.52-2.77,3.74-5.63,6.67-8.61,2.93-2.97,6-5.43,9.22-7.37h-15.88v15.98ZM533.51,983.55h13.33v-29.88h-13.33v29.88ZM552.23,983.55h13.33v-29.88h-13.33v29.88ZM570.67,983.55h13.33v-29.88h-13.33v29.88ZM600.45,848.88h-24.67c4.16,2.63,8.04,5.4,11.63,8.3,3.59,2.91,7.94,6.78,13.05,11.62v-19.92ZM589.1,983.55c3.22.14,5.53.24,6.95.31,1.42.07,3.54.31,6.38.73v-30.92h-13.33v29.88ZM605.83,873.78c1.7,1.8,3.07,3.36,4.11,4.67,1.04,1.32,1.99,2.59,2.84,3.84.85,1.25,1.65,2.46,2.41,3.63.75,1.18,1.6,2.59,2.55,4.25v-41.29h-11.91v24.9ZM607.82,985.83c2.46.83,4.25,1.56,5.39,2.18,1.13.62,2.65,1.76,4.54,3.42v-37.77h-9.93v32.16Z"/>
        <path class="cls-1" d="M624.96,1022.96h-7.62v-7.67c0-5.88-.38-10.28-1.13-13.07-.74-2.74-2.23-5.08-4.42-6.96-2.22-2.02-5.36-3.42-9.34-4.16-4.05-.75-10.48-1.13-19.13-1.13h-123.17c-8.65,0-15.08.38-19.13,1.13-3.98.74-7.12,2.14-9.33,4.15-2.02,1.88-3.46,4.23-4.29,6.98-.84,2.8-1.26,7.19-1.26,13.06v7.67h-7.62v-188.39h75.12v5.62l-.21.12c-10.13,5.63-19.19,11.28-26.91,16.78-7.69,5.49-15.22,11.56-22.37,18.02-3.34,3.26-6.24,6.36-8.61,9.19-2.33,2.8-4.23,5.67-5.62,8.53-1.39,2.86-2.38,5.93-2.94,9.12-.56,3.21-.84,6.86-.84,10.82v23.25h86.83v-5.4c0-8.71-2.88-16.52-8.55-23.19-5.7-6.7-14.76-12.73-26.94-17.94l-.25-.11v-6.07h79.38v6.07l-.24.11c-11.8,5.21-20.82,11.39-26.8,18.36-5.96,6.95-8.98,14.61-8.98,22.77v5.4h96.75v-17.44c0-4.51-.43-8.81-1.27-12.78-.84-3.96-2.16-7.83-3.94-11.53-1.78-3.7-4.1-7.41-6.9-11.03-2.82-3.64-6.24-7.43-10.17-11.27-6.58-6.19-13.53-12.04-20.66-17.4-7.13-5.36-15.52-10.87-24.92-16.37l-.2-.12v-5.41h75.69v190.26ZM618.15,1022.15h5.99v-188.64h-74.06v4.13c9.35,5.48,17.69,10.96,24.8,16.3,7.15,5.37,14.13,11.24,20.74,17.46,3.96,3.87,7.41,7.69,10.25,11.36,2.83,3.66,5.19,7.42,6.99,11.17,1.8,3.75,3.15,7.69,4,11.71.85,4.02,1.29,8.38,1.29,12.95v18.25h-98.38v-6.22c0-8.36,3.09-16.2,9.17-23.3,6.02-7.02,15.05-13.23,26.85-18.47v-4.72h-77.75v4.72c12.17,5.24,21.25,11.31,26.99,18.06,5.8,6.82,8.75,14.8,8.75,23.71v6.22h-88.45v-24.06c0-4.01.29-7.7.86-10.96.57-3.27,1.58-6.42,3.01-9.34,1.42-2.91,3.35-5.84,5.73-8.69,2.38-2.86,5.3-5.97,8.68-9.27,7.18-6.5,14.73-12.58,22.45-18.09,7.69-5.49,16.7-11.11,26.77-16.72v-4.33h-73.5v186.77h5.99v-6.86c0-5.95.44-10.42,1.3-13.29.87-2.89,2.39-5.36,4.52-7.34,2.33-2.12,5.6-3.58,9.73-4.36,4.09-.76,10.58-1.15,19.28-1.15h123.17c8.7,0,15.18.39,19.28,1.15,4.13.77,7.4,2.24,9.73,4.35,2.31,1.97,3.89,4.45,4.67,7.35.77,2.86,1.15,7.33,1.15,13.28v6.86ZM618.15,992.33l-.67-.59c-1.86-1.64-3.37-2.77-4.47-3.37-1.1-.6-2.89-1.33-5.32-2.15l-.28-.09v-32.86h10.74v39.07ZM608.23,985.54c2.37.81,4.06,1.5,5.18,2.11,1.03.56,2.32,1.51,3.94,2.89v-36.47h-9.11v31.47ZM425.33,992.28v-39.02h10.74v32.86l-.28.09c-2.42.82-4.2,1.57-5.31,2.24-1.11.68-2.62,1.79-4.49,3.29l-.66.53ZM426.14,954.07v36.52c1.6-1.26,2.91-2.21,3.92-2.82,1.11-.68,2.86-1.42,5.19-2.23v-31.47h-9.11ZM602.84,985.05l-.46-.07c-2.79-.41-4.92-.65-6.34-.72-1.42-.07-3.73-.17-6.95-.31l-.39-.02v-30.68h14.14v31.79ZM589.51,983.16c3.02.13,5.2.23,6.56.29,1.36.07,3.37.29,5.96.66v-30.04h-12.52v29.09ZM440.65,985.05v-31.79h14.14v30.67l-7.19.33c-1.51.07-3.69.31-6.48.72l-.46.07ZM441.46,954.07v30.04c2.59-.37,4.65-.59,6.1-.66l6.42-.29v-29.09h-12.52ZM584.4,983.95h-14.14v-30.69h14.14v30.69ZM571.07,983.14h12.52v-29.07h-12.52v29.07ZM565.97,983.95h-14.14v-30.69h14.14v30.69ZM552.64,983.14h12.52v-29.07h-12.52v29.07ZM547.25,983.95h-14.14v-30.69h14.14v30.69ZM533.92,983.14h12.52v-29.07h-12.52v29.07ZM529.1,983.95h-14.14v-30.69h14.14v30.69ZM515.77,983.14h12.52v-29.07h-12.52v29.07ZM510.38,983.95h-14.14v-30.69h14.14v30.69ZM497.05,983.14h12.52v-29.07h-12.52v29.07ZM491.94,983.95h-14.14v-30.69h14.14v30.69ZM478.61,983.14h12.52v-29.07h-12.52v29.07ZM473.51,983.95h-14.43v-30.69h14.43v30.69ZM459.89,983.14h12.8v-29.07h-12.8v29.07ZM514.59,912.37l-.75-1.24c-1.49-2.45-3.71-5.15-6.6-8.02-2.9-2.87-5.69-5.16-8.3-6.79l-1.2-.75h16.89l-.04,16.79ZM500.52,896.39c2.32,1.59,4.77,3.65,7.29,6.15,2.49,2.47,4.5,4.82,5.98,7l.03-13.16h-13.3ZM519.69,912.15l-.76-.2v-16.38h17.75l-1.25.75c-3.17,1.91-6.24,4.37-9.14,7.3-2.89,2.93-5.11,5.8-6.6,8.52ZM519.74,896.39v14.07c1.48-2.39,3.48-4.87,5.97-7.4,2.58-2.61,5.29-4.85,8.1-6.67h-14.06ZM618.15,891.7l-.76-1.33c-.93-1.63-1.79-3.06-2.54-4.24-.76-1.17-1.56-2.38-2.4-3.62-.82-1.2-1.74-2.45-2.82-3.82-1.04-1.31-2.41-2.87-4.09-4.64l-.11-.12v-25.47h12.72v43.23ZM606.24,873.62c1.64,1.74,3,3.28,4.02,4.58,1.09,1.38,2.02,2.65,2.85,3.86.85,1.25,1.66,2.46,2.42,3.64.55.86,1.16,1.85,1.81,2.96v-39.37h-11.1v24.33ZM425.33,887.74v-37.4h12.72v23.18l-.11.12c-1.86,2.04-3.39,3.69-4.55,4.88-1.11,1.15-2.05,2.19-2.82,3.09-.75.9-1.46,1.74-2.13,2.5-.66.76-1.46,1.69-2.41,2.8l-.71.83ZM426.14,851.15v34.4c.64-.75,1.21-1.41,1.7-1.97.66-.76,1.37-1.59,2.12-2.49.78-.92,1.74-1.97,2.85-3.13,1.13-1.17,2.62-2.77,4.42-4.75v-22.05h-11.1ZM600.85,869.74l-.69-.65c-5.09-4.83-9.47-8.73-13.02-11.6-3.55-2.87-7.45-5.66-11.59-8.27l-1.19-.75h26.48v21.27ZM577.16,849.28c3.73,2.41,7.26,4.96,10.49,7.58,3.41,2.75,7.57,6.45,12.38,10.99v-18.57h-22.88ZM442.63,869.49v-19.16h25.69l-1.25.75c-4.32,2.61-8.32,5.29-11.88,7.97-3.54,2.66-7.54,5.97-11.89,9.83l-.68.6ZM443.44,851.15v16.54c4.1-3.62,7.88-6.74,11.26-9.28,3.24-2.43,6.84-4.87,10.71-7.26h-21.97Z"/>
      </g>
      <g>
        <path d="M492.67,660.26v4.77c-11.72,5.53-21.46,11.03-29.21,16.5-7.75,5.47-14.84,11.93-21.27,19.4-15.32,17.71-22.97,36.11-22.97,55.2,0,5.95.76,11.41,2.27,16.39,1.52,4.98,3.64,9.23,6.39,12.76s6.06,6.26,9.94,8.2c3.88,1.94,8.19,2.9,12.92,2.9,4.35,0,8.38-1,12.07-3.01,3.7-2,6.58-4.6,8.66-7.78,2.27-3.59,4.26-8.12,5.96-13.59,1.7-5.46,3.59-12.76,5.68-21.89l8.52-38.59c2.08-9.96,4.97-19.23,8.66-27.81,3.69-8.58,7.52-15.28,11.5-20.13,11.36-13.14,28.3-19.71,50.83-19.71,10.6,0,20.17,1.59,28.69,4.77,8.52,3.18,15.72,7.71,21.59,13.59,5.86,5.88,10.36,13.07,13.49,21.58,3.12,8.51,4.68,18.09,4.68,28.74s-1.7,20.68-5.1,30.5c-3.4,9.82-8.42,18.88-15.03,27.18-1.52,1.94-3.35,4.08-5.53,6.43-2.17,2.35-5.25,5.6-9.22,9.75l29.78,29.47v5.39h-84.52v-5.39c21.18-9.54,39.14-22.27,53.89-38.18,10.02-10.65,17.3-21.09,21.84-31.33,4.54-10.24,6.81-21.3,6.81-33.2,0-13.42-2.46-23.58-7.37-30.5-4.92-6.92-12.01-10.38-21.27-10.38-5.86,0-10.78,1.38-14.75,4.15-3.97,2.77-7.37,7.26-10.21,13.49-.57,1.52-1.28,3.5-2.13,5.91-.85,2.42-1.7,5.02-2.55,7.78-.85,2.77-1.65,5.54-2.41,8.3-.75,2.77-1.32,5.19-1.7,7.26l-8.51,43.37c-8.51,42.33-31.29,63.5-68.35,63.5-10.4,0-20.04-1.76-28.93-5.29-8.89-3.53-16.54-8.4-22.97-14.63-6.43-6.22-11.44-13.62-15.03-22.2-3.59-8.58-5.39-17.98-5.39-28.22,0-12.04,2.46-23.24,7.37-33.62,4.92-10.38,12.76-20.89,23.54-31.54l-27.92-26.77v-3.53h77.27ZM432.83,673.54l12.48,11.21v-11.21h-12.48ZM454.38,807.58c-3.59-.69-6.71-1.45-9.36-2.28-2.65-.83-5.39-2-8.23-3.53,2.27,2.77,4.82,5.19,7.66,7.26,2.84,2.08,6.15,4.01,9.93,5.81v-7.26ZM450.41,684.74c1.33-1.11,2.51-2.08,3.55-2.91,1.04-.83,2.13-1.62,3.26-2.39,1.13-.76,2.37-1.62,3.69-2.59,1.33-.97,3.03-2.08,5.1-3.32h-15.6v11.21ZM459.49,816.92c2.65.83,4.92,1.49,6.81,1.97,1.89.49,4.16.93,6.81,1.35v-13.49c-2.46.69-4.44,1.11-5.96,1.24-1.51.14-3.5.21-5.96.21h-1.7v8.71ZM478.21,820.66c1.52.28,2.74.42,3.69.42h5.96c.95,0,2.18-.14,3.69-.42v-26.98c-1.7,2.63-3.55,4.74-5.53,6.33-1.99,1.59-4.58,3.15-7.8,4.67v15.98ZM496.64,820.03c1.7-.28,3.08-.52,4.11-.73,1.04-.21,1.99-.45,2.84-.73.85-.28,1.75-.59,2.69-.93.95-.34,2.18-.79,3.69-1.35v-91.51l-7.09,35.69c-.94,4.98-1.94,9.31-2.98,12.97-1.04,3.67-2.13,6.95-3.26,9.86v36.73ZM515.08,814.02c3.22-1.8,5.72-3.39,7.52-4.77,1.8-1.38,3.74-3.25,5.81-5.6v-128.03c-2.65,3.18-5.11,7.06-7.37,11.62-2.27,4.57-4.25,9.62-5.96,15.15v111.64ZM533.51,797c1.7-2.35,3.17-4.74,4.4-7.16,1.23-2.42,2.37-5.01,3.4-7.78,1.04-2.77,1.99-5.91,2.84-9.44.85-3.53,1.75-7.64,2.69-12.35v-98.98c-2.84,1.25-5.25,2.53-7.23,3.84-1.99,1.32-4.01,2.87-6.1,4.67v127.2ZM552.23,734.34l2.27-11.41c1.52-7.61,3.22-14.56,5.1-20.85,1.89-6.29,3.88-11.58,5.96-15.87v-29.67c-3.02.42-5.34.8-6.95,1.14-1.6.35-3.73.87-6.38,1.56v75.12ZM595.34,798.25c-3.02,3.04-6.85,6.19-11.49,9.44-4.63,3.25-9.4,6.26-14.32,9.03h25.81v-18.47ZM570.67,677.69c1.89-2.21,3.78-3.97,5.67-5.29,1.89-1.31,4.44-2.73,7.66-4.25v-10.79c-2.46-.42-4.63-.69-6.52-.83-1.89-.14-4.16-.21-6.81-.21v21.37ZM589.1,666.69c1.33-.14,2.41-.24,3.26-.31.85-.07,1.56-.1,2.13-.1,2.65,0,5.25.28,7.8.83,2.55.55,5.63,1.52,9.22,2.9-2.65-2.9-5.62-5.25-8.93-7.05-3.31-1.8-7.8-3.32-13.47-4.57v8.3ZM619.45,816.72l-19-18.05v18.05h19Z"/>
        <path class="cls-1" d="M484.73,826.46c-10.4,0-20.18-1.79-29.08-5.32-8.89-3.53-16.67-8.48-23.11-14.71-6.44-6.24-11.53-13.75-15.12-22.34-3.6-8.59-5.42-18.14-5.42-28.38,0-12.04,2.49-23.4,7.41-33.79,4.87-10.27,12.72-20.82,23.33-31.36l-27.74-26.6v-4.11h78.08v5.44l-.23.11c-11.64,5.5-21.45,11.03-29.15,16.46-7.69,5.42-14.82,11.93-21.2,19.33-15.18,17.55-22.87,36.03-22.87,54.93,0,5.88.76,11.36,2.26,16.27,1.5,4.92,3.62,9.16,6.32,12.63,2.7,3.47,6,6.19,9.8,8.08,3.8,1.9,8.09,2.86,12.74,2.86,4.27,0,8.26-1,11.87-2.96,3.61-1.96,6.48-4.53,8.52-7.65,2.24-3.55,4.24-8.09,5.92-13.49,1.69-5.42,3.6-12.78,5.67-21.86l8.52-38.59c2.07-9.92,5-19.3,8.69-27.88,3.69-8.57,7.58-15.37,11.56-20.23,11.4-13.18,28.6-19.86,51.15-19.86,10.6,0,20.3,1.61,28.83,4.8,8.54,3.19,15.85,7.79,21.73,13.68,5.88,5.9,10.45,13.21,13.58,21.73,3.12,8.52,4.71,18.24,4.71,28.88s-1.73,20.82-5.13,30.64c-3.4,9.82-8.48,19-15.1,27.3-1.53,1.96-3.4,4.13-5.55,6.46-2.02,2.19-4.95,5.29-8.95,9.47l29.62,29.3v5.97h-85.33v-6.06l.24-.11c21.03-9.48,39.12-22.29,53.76-38.09,9.94-10.56,17.27-21.07,21.77-31.22,4.49-10.14,6.77-21.25,6.77-33.04,0-13.26-2.46-23.45-7.3-30.27-4.82-6.77-11.86-10.2-20.94-10.2-5.75,0-10.63,1.37-14.52,4.08-3.89,2.72-7.28,7.2-10.07,13.32-.56,1.5-1.26,3.46-2.11,5.88-.85,2.41-1.7,5.03-2.55,7.77-.84,2.72-1.65,5.51-2.41,8.29-.75,2.75-1.32,5.18-1.69,7.23l-8.51,43.37c-8.51,42.35-31.64,63.82-68.75,63.82ZM415.81,663.61l28.09,26.94-.3.29c-10.69,10.57-18.58,21.14-23.46,31.42-4.87,10.27-7.33,21.53-7.33,33.44,0,10.13,1.8,19.57,5.36,28.06,3.55,8.48,8.58,15.91,14.94,22.07,6.36,6.16,14.05,11.05,22.84,14.54,8.8,3.49,18.48,5.26,28.78,5.26,18.34,0,33.35-5.3,44.61-15.76,11.27-10.47,19.13-26.42,23.35-47.4l8.51-43.37c.38-2.06.95-4.52,1.71-7.29.76-2.79,1.58-5.59,2.42-8.31.85-2.75,1.71-5.37,2.56-7.8.85-2.42,1.56-4.39,2.13-5.92,2.86-6.29,6.34-10.88,10.36-13.68,4.02-2.8,9.06-4.22,14.98-4.22,9.36,0,16.62,3.55,21.6,10.55,4.94,6.96,7.45,17.3,7.45,30.74,0,11.9-2.3,23.12-6.84,33.37-4.54,10.24-11.91,20.82-21.91,31.45-14.66,15.81-32.75,28.65-53.78,38.17v4.73h83.71v-4.82l-29.94-29.63.28-.29c4.14-4.32,7.15-7.51,9.21-9.75,2.13-2.31,3.99-4.46,5.51-6.41,6.56-8.23,11.6-17.34,14.97-27.07,3.37-9.73,5.08-19.95,5.08-30.37s-1.57-20.17-4.66-28.6c-3.09-8.41-7.6-15.62-13.4-21.43-5.8-5.81-13.01-10.35-21.44-13.5-8.43-3.15-18.04-4.75-28.54-4.75-22.3,0-39.3,6.58-50.53,19.57-3.93,4.79-7.78,11.53-11.43,20.02-3.67,8.53-6.57,17.85-8.64,27.73l-8.52,38.6c-2.08,9.11-3.99,16.48-5.69,21.92-1.7,5.47-3.72,10.07-6.01,13.69-2.12,3.23-5.08,5.9-8.81,7.92-3.73,2.03-7.86,3.06-12.26,3.06-4.78,0-9.19-.99-13.1-2.95-3.91-1.95-7.3-4.75-10.08-8.31-2.76-3.54-4.93-7.88-6.46-12.89-1.52-4.99-2.29-10.55-2.29-16.51,0-19.1,7.76-37.76,23.07-55.46,6.42-7.45,13.6-14,21.34-19.47,7.69-5.42,17.46-10.94,29.04-16.42v-4.11h-76.46v2.95ZM487.85,821.48h-5.96c-.97,0-2.24-.14-3.76-.42l-.33-.06v-16.57l.23-.11c3.17-1.5,5.76-3.05,7.72-4.62,1.94-1.55,3.77-3.65,5.44-6.23l.75-1.15v28.69l-.33.06c-1.52.28-2.79.42-3.76.42ZM478.61,820.32c1.33.23,2.43.35,3.28.35h5.96c.86,0,1.96-.12,3.28-.35v-25.31c-1.51,2.15-3.15,3.94-4.87,5.32-1.96,1.57-4.53,3.12-7.65,4.61v15.38ZM473.51,820.72l-.47-.07c-2.67-.42-4.97-.88-6.84-1.36-1.87-.48-4.17-1.14-6.83-1.98l-.28-.09v-9.42h2.11c2.45,0,4.44-.07,5.92-.21,1.48-.13,3.46-.55,5.88-1.23l.52-.15v14.5ZM459.89,816.62c2.53.79,4.71,1.42,6.5,1.88,1.74.45,3.86.87,6.3,1.27v-12.48c-2.24.61-4.09.99-5.51,1.11-1.5.14-3.52.21-5.99.21h-1.3v8.01ZM496.23,820.51l.03-37.35c1.14-2.91,2.23-6.21,3.25-9.82,1.03-3.63,2.03-7.98,2.97-12.93l7.09-35.69.8.08v91.79l-1.25.46c-1.07.39-1.97.72-2.71.99-.95.35-1.85.66-2.71.94-.85.28-1.79.52-2.88.74-1.06.21-2.45.46-4.13.73l-.47.08ZM497.05,783.38v36.17c1.46-.24,2.68-.46,3.63-.65,1.06-.21,1.97-.44,2.79-.71.85-.27,1.74-.58,2.68-.93.74-.27,1.64-.6,2.71-.99l.71-.26v-87.1l-6.29,31.64c-.94,4.97-1.95,9.35-2.99,13-1.02,3.6-2.11,6.91-3.25,9.82ZM620.47,817.12h-20.43v-19.41l20.43,19.41ZM600.85,816.31h17.58l-17.58-16.7v16.7ZM595.75,817.12h-27.77l1.35-.76c4.88-2.74,9.69-5.77,14.29-9,4.59-3.22,8.44-6.38,11.43-9.4l.69-.7v19.86ZM571.07,816.31h23.87v-17.09c-2.92,2.84-6.56,5.8-10.85,8.8-4.2,2.95-8.58,5.74-13.02,8.29ZM454.79,815.49l-.58-.28c-3.78-1.8-7.14-3.77-9.99-5.85-2.85-2.09-5.46-4.56-7.73-7.33l.51-.62c2.79,1.5,5.53,2.67,8.15,3.5,2.63.82,5.77,1.59,9.31,2.27l.33.06v8.24ZM438.46,803.09c1.89,2.09,3.98,3.98,6.23,5.62,2.66,1.95,5.78,3.79,9.28,5.49v-6.28c-3.44-.67-6.5-1.42-9.07-2.23-2.08-.65-4.24-1.53-6.44-2.6ZM514.67,814.71l.02-112.45c1.7-5.53,3.71-10.65,5.98-15.21,2.27-4.56,4.77-8.5,7.43-11.7l.72-.86v129.31l-.1.12c-2.09,2.37-4.06,4.27-5.87,5.66-1.81,1.4-4.36,3.01-7.56,4.8l-.6.34ZM515.48,702.44v110.88c2.89-1.64,5.2-3.12,6.86-4.4,1.74-1.33,3.64-3.16,5.66-5.44v-126.73c-2.35,2.98-4.57,6.56-6.6,10.65-2.24,4.51-4.23,9.56-5.91,15.03ZM533.11,798.26v-128.64l.14-.12c2.1-1.81,4.16-3.39,6.14-4.7,2-1.32,4.45-2.62,7.29-3.87l.57-.25v99.6c-.94,4.72-1.85,8.88-2.71,12.44-.85,3.54-1.81,6.73-2.85,9.49-1.04,2.77-2.19,5.4-3.42,7.82-1.23,2.42-2.72,4.85-4.43,7.21l-.74,1.02ZM533.92,669.99v125.73c1.38-2,2.6-4.03,3.63-6.07,1.22-2.4,2.36-5,3.39-7.74,1.03-2.73,1.98-5.89,2.82-9.39.86-3.55,1.76-7.7,2.69-12.33v-98.27c-2.57,1.15-4.78,2.34-6.61,3.55-1.9,1.26-3.89,2.78-5.92,4.52ZM552.63,734.42l-.8-.08v-75.43l.3-.08c2.64-.69,4.8-1.21,6.4-1.56,1.64-.35,3.99-.74,6.98-1.15l.46-.06-.04,30.32c-2.06,4.25-4.05,9.57-5.93,15.81-1.88,6.25-3.59,13.26-5.1,20.82l-2.27,11.41ZM552.64,659.54v70.68l1.46-7.37c1.51-7.58,3.23-14.61,5.11-20.89,1.88-6.25,3.88-11.58,5.94-15.85v-29.11c-2.75.38-4.92.75-6.46,1.07-1.53.33-3.57.83-6.06,1.47ZM445.71,685.65l-13.95-12.52h13.95v12.52ZM433.89,673.95l11.01,9.89v-9.89h-11.01ZM450,685.61v-12.48h17.47l-1.26.75c-2.04,1.22-3.74,2.33-5.07,3.3-1.3.95-2.54,1.83-3.7,2.6-1.11.75-2.2,1.54-3.23,2.37-1.03.83-2.22,1.79-3.54,2.9l-.67.56ZM450.82,673.95v9.93c1.06-.88,2.02-1.67,2.89-2.36,1.05-.84,2.16-1.65,3.29-2.41,1.15-.77,2.38-1.64,3.67-2.58,1.07-.78,2.38-1.65,3.9-2.59h-13.74ZM570.26,678.79v-22.88h.41c2.62,0,4.92.07,6.84.21,1.91.14,4.12.42,6.56.83l.34.06v11.39l-.23.11c-3.18,1.51-5.74,2.93-7.6,4.22-1.85,1.29-3.74,3.05-5.6,5.22l-.71.83ZM571.07,656.72v19.89c1.67-1.85,3.36-3.38,5.03-4.55,1.85-1.29,4.37-2.69,7.48-4.18v-10.19c-2.28-.38-4.35-.64-6.15-.77-1.8-.13-3.94-.2-6.37-.21ZM611.36,670.39c-3.56-1.37-6.64-2.34-9.16-2.89-2.52-.54-5.12-.82-7.71-.82-.55,0-1.25.03-2.09.1-.85.07-1.93.17-3.25.31l-.45.05v-9.26l.49.11c5.68,1.25,10.25,2.8,13.58,4.61,3.33,1.81,6.37,4.21,9.04,7.14l-.45.65ZM594.49,665.87c2.66,0,5.31.28,7.89.84,2.15.47,4.71,1.24,7.61,2.29-2.3-2.29-4.85-4.2-7.6-5.69-3.17-1.72-7.49-3.21-12.87-4.42v7.34c1.13-.11,2.07-.2,2.82-.27.88-.07,1.58-.11,2.16-.11Z"/>
      </g>
    </g>
  </g>
</svg>