<?xml version="1.0" encoding="UTF-8"?>
<svg id="Layer_2" data-name="Layer 2" xmlns="http://www.w3.org/2000/svg" viewBox="0 0 620.77 1005.32">
  <defs>
    <style>
      .cls-1 {
        fill: #fff;
      }
    </style>
  </defs>
  <g id="Home_Page_Text_copy" data-name="Home Page Text copy">
    <g id="DS-Digital">
      <g>
        <path d="M13.1,815.99l11.88,16.85v131.88l-11.88,16.59-11.57-16.62v-132.08l11.57-16.62ZM91.6,970.52l14.7,21.11-8.76,12.58H29.05l-11.88-16.62,11.88-17.07h62.55ZM99.1,851.48l11.73-17.07,11.73,17.07v117.25l-11.73,16.62-11.73-16.62v-117.25ZM192.3,815.99l11.88,16.85-11.88,16.85h-62.55l-14.7-21.4,9.07-12.29h68.17ZM220.13,987.6l-11.57,16.62-11.88-16.62v-132.08l11.88-16.62,11.57,16.62v132.08Z"/>
        <path class="cls-1" d="M208.57,1005.32l-12.53-17.52v-132.48l12.53-17.52,12.2,17.53v132.48l-12.2,17.53ZM197.31,987.39l11.24,15.72,10.94-15.72v-131.68l-10.94-15.72-11.24,15.72v131.67ZM97.87,1004.86H28.73l-12.34-17.25,12.33-17.71h63.21l15.14,21.75-9.2,13.22ZM29.38,1003.58h67.83l8.31-11.94-14.25-20.48H29.39l-11.44,16.43,11.43,15.99ZM110.83,986.46l-12.36-17.53v-117.65l12.36-18,12.37,18v117.65l-12.37,17.53ZM99.74,968.53l11.09,15.72,11.09-15.72v-116.85l-11.09-16.14-11.09,16.14v116.85ZM13.1,982.41l-12.2-17.53v-132.48l12.21-17.53,12.52,17.76v132.29l-.12.17-12.41,17.33ZM2.17,964.48l10.94,15.72,11.24-15.69v-131.47l-11.24-15.94-10.94,15.71v131.68ZM192.63,850.32h-63.21l-15.15-22.05,9.53-12.92h68.83l12.33,17.48-12.33,17.48ZM130.09,849.04h61.88l11.43-16.21-11.43-16.21h-67.52l-8.61,11.67,14.25,20.75Z"/>
      </g>
      <g>
        <path d="M1.53,614.73l23.45,33.24v109.17l-23.45,33.24v-175.65ZM91.6,642.14H29.05l-23.45-33.69h91.94l8.76,12.29-14.7,21.4ZM97.54,796.67H5.6l23.45-33.69h62.55l14.7,21.11-8.76,12.58ZM99.1,643.93l11.73-17.07,11.73,17.07v117.25l-11.73,16.62-11.73-16.62v-117.25ZM124.12,608.44h96.01l-23.45,33.69h-66.92l-14.7-21.4,9.07-12.29ZM129.76,762.98h66.97l23.47,33.69h-96.09l-9.07-12.58,14.71-21.11Z"/>
        <path class="cls-1" d="M221.43,797.31h-97.63l-9.52-13.21,15.16-21.76h67.64l.19.27,24.17,34.7ZM124.45,796.04h94.54l-22.59-32.42h-66.31l-14.26,20.47,8.61,11.95ZM97.87,797.31H4.38l24.34-34.97h63.21l15.14,21.75-9.2,13.22ZM6.82,796.04h90.39l8.31-11.94-14.25-20.48H29.39l-22.57,32.42ZM.9,792.39v-179.67l24.73,35.05v109.57L.9,792.39ZM2.17,616.74v171.63l22.18-31.44v-108.76l-22.18-31.44ZM110.83,778.91l-12.36-17.53v-117.65l12.36-18,12.37,18v117.65l-12.37,17.53ZM99.74,760.98l11.09,15.72,11.09-15.72v-116.85l-11.09-16.14-11.09,16.14v116.85ZM197.01,642.77h-67.59l-15.15-22.05,9.53-12.92h97.55l-24.34,34.97ZM130.09,641.5h66.26l22.57-32.42h-94.46l-8.61,11.67,14.25,20.75ZM91.93,642.77H28.72l-24.34-34.97h93.49l9.21,12.92-15.14,22.05ZM29.39,641.5h61.88l14.26-20.76-8.31-11.66H6.82l22.57,32.42Z"/>
      </g>
      <g>
        <path d="M91.6,439.53H24.68L1.22,405.84h96.32l8.76,12.29-14.7,21.4ZM97.56,594.07H1.46l23.4-33.69h66.78l14.66,21.11-8.74,12.58ZM41.42,552.53l-16.74.21v-23.7l56.92-81.41h16.57s-.05,23.28-.05,23.28l-56.7,81.63ZM124.12,405.84h96.01l-23.45,33.69h-66.92l-14.7-21.4,9.07-12.29ZM129.76,560.38h66.97l23.47,33.69h-96.09l-9.07-12.58,14.71-21.11Z"/>
        <path class="cls-1" d="M221.43,594.71h-97.63l-9.52-13.21,15.16-21.76h67.64l.19.27,24.17,34.7ZM124.45,593.43h94.54l-22.59-32.42h-66.31l-14.26,20.47,8.61,11.95ZM97.89,594.71H.24l24.29-34.97h67.44l15.11,21.75-9.18,13.22ZM2.67,593.43h94.55l8.29-11.94-14.22-20.48H25.19l-22.52,32.42ZM24.04,553.39v-24.55l.12-.16,57.11-81.68h17.54s-.06,24.11-.06,24.11l-.11.16-56.88,81.9-17.71.22ZM25.31,529.24v22.86l15.77-.2,56.4-81.19.05-22.45h-15.6s-56.62,80.98-56.62,80.98ZM197.01,440.17h-67.59l-15.15-22.05,9.53-12.92h97.55l-24.34,34.97ZM130.09,438.9h66.26l22.57-32.42h-94.46l-8.61,11.67,14.25,20.75ZM91.93,440.17H24.34L0,405.2h97.87l9.21,12.92-15.14,22.05ZM25.01,438.9h66.26l14.26-20.76-8.31-11.66H2.44l22.57,32.42Z"/>
      </g>
      <g>
        <path d="M13.1,226.15l11.88,16.62v109.17L1.53,385.18v-142.41l11.57-16.62ZM91.6,357.78l14.7,21.11-8.76,12.58H5.6l23.45-33.69h62.55ZM97.54,203.24l8.76,12.29-14.7,21.4H29.05l-11.88-16.85,11.88-16.85h68.49ZM192.3,203.24l11.88,16.85-11.88,16.85h-62.55l-14.7-21.4,9.07-12.29h68.17ZM192.3,357.78l23.45,33.69h-91.63l-9.07-12.58,14.7-21.11h62.55ZM208.56,226.15l11.57,16.62v142.41l-23.45-33.24v-109.17l11.88-16.62Z"/>
        <path class="cls-1" d="M216.97,392.11h-93.18l-9.52-13.21,15.15-21.76h63.21l24.34,34.97ZM124.45,390.83h90.08l-22.57-32.42h-61.88l-14.25,20.47,8.61,11.95ZM97.87,392.11H4.38l24.34-34.97h63.21l15.14,21.75-9.2,13.22ZM6.82,390.83h90.39l8.31-11.94-14.25-20.48H29.39l-22.57,32.42ZM220.77,387.19l-24.73-35.05v-109.57l12.53-17.52,12.2,17.53v144.62ZM197.31,351.74l22.18,31.44v-140.2l-10.94-15.72-11.24,15.72v108.76ZM.9,387.19v-144.62l12.2-17.53,12.53,17.52v109.57L.9,387.19ZM2.17,242.97v140.2l22.18-31.44v-108.76l-11.24-15.72-10.94,15.72ZM192.63,237.57h-63.21l-15.15-22.05,9.53-12.92h68.83l12.33,17.48-12.33,17.48ZM130.09,236.29h61.88l11.43-16.21-11.43-16.21h-67.52l-8.61,11.67,14.25,20.75ZM91.93,237.57H28.72l-12.33-17.48,12.33-17.48h69.15l9.21,12.92-15.14,22.05ZM29.38,236.29h61.88l14.26-20.76-8.31-11.66H29.38l-11.43,16.21,11.43,16.21Z"/>
      </g>
      <g>
        <path d="M1.22,188.87l23.45-33.69h66.92l14.7,21.11-8.76,12.58H1.22ZM1.46.64l23.4,33.69h66.78l14.66-21.4L97.56.64H1.46ZM99.1,153.38l11.73,16.62,11.73-16.62V36.13l-11.73-17.07-11.73,17.07v117.25ZM124.12.64l-9.07,12.29,14.7,21.4h62.55l11.88-16.85L192.3.64h-68.17ZM220.13,40.17l-11.57-16.62-11.88,16.62v109.17l11.88,16.62,11.57-16.62V40.17Z"/>
        <path class="cls-1" d="M97.87,189.51H0l24.34-34.97h67.59l15.14,21.75-9.2,13.22ZM2.44,188.23h94.77l8.31-11.94-14.25-20.48H25.01L2.44,188.23ZM110.83,171.11l-12.36-17.53V35.93l12.36-18,12.37,18v117.65l-12.37,17.53ZM99.74,153.18l11.09,15.72,11.09-15.72V36.33l-11.09-16.14-11.09,16.14v116.85ZM208.57,167.06l-12.53-17.52V39.97l12.53-17.52,12.2,17.53v109.57l-12.2,17.53ZM197.31,149.13l11.24,15.72,10.94-15.72V40.37l-10.94-15.72-11.24,15.72v108.76ZM192.63,34.97h-63.21l-15.15-22.05L123.8,0h68.83l12.33,17.48-12.33,17.48ZM130.09,33.69h61.88l11.43-16.21-11.43-16.21h-67.52l-8.61,11.67,14.25,20.75ZM91.97,34.97H24.52L.24,0h97.65l9.19,12.92-15.11,22.05ZM25.19,33.69h66.11l14.22-20.76-8.29-11.66H2.67l22.52,32.42Z"/>
      </g>
      <g>
        <path d="M291.6,849.68h-66.92l-23.45-33.69h96.32l8.76,12.29-14.7,21.4ZM297.56,1004.22h-96.1l23.4-33.69h66.78l14.66,21.11-8.74,12.58ZM299.1,851.48l11.73-17.07,11.73,17.07v117.25l-11.73,16.62-11.73-16.62v-117.25ZM324.12,815.99h96.01l-23.45,33.69h-66.92l-14.7-21.4,9.07-12.29ZM329.76,970.52h66.97l23.47,33.69h-96.09l-9.07-12.58,14.71-21.11Z"/>
        <path class="cls-1" d="M421.43,1004.86h-97.63l-9.52-13.21,15.16-21.76h67.64l.19.27,24.17,34.7ZM324.45,1003.58h94.54l-22.59-32.42h-66.31l-14.26,20.47,8.61,11.95ZM297.89,1004.86h-97.66l24.29-34.97h67.44l15.11,21.75-9.18,13.22ZM202.67,1003.58h94.55l8.29-11.94-14.22-20.48h-66.11l-22.52,32.42ZM310.83,986.46l-12.36-17.53v-117.65l12.36-18,12.37,18v117.65l-12.37,17.53ZM299.74,968.53l11.09,15.72,11.09-15.72v-116.85l-11.09-16.14-11.09,16.14v116.85ZM397.01,850.32h-67.59l-15.14-22.05,9.53-12.92h97.55l-24.34,34.97ZM330.09,849.04h66.26l22.57-32.42h-94.46l-8.61,11.67,14.25,20.75ZM291.93,850.32h-67.59l-24.34-34.97h97.87l9.21,12.92-15.14,22.05ZM225.01,849.04h66.26l14.26-20.76-8.31-11.66h-94.77l22.57,32.42Z"/>
      </g>
      <g>
        <path d="M291.6,637.19h-66.92l-23.45-33.69h96.32l8.76,12.29-14.7,21.4ZM297.54,791.73h-96.09l23.4-33.69h66.78l14.66,21.11-8.76,12.58ZM392.3,603.5l11.88,16.85-11.88,16.85h-62.55l-14.7-21.4,9.07-12.29h68.17ZM392.3,791.73l11.88-16.62-11.88-17.07h-62.55l-14.7,21.11,9.07,12.58h68.17ZM420.13,752.2l-11.57,16.62-11.88-16.62v-109.17l11.88-16.62,11.57,16.62v109.17Z"/>
        <path class="cls-1" d="M392.63,792.37h-68.83l-9.52-13.21,15.15-21.76h63.21l12.33,17.71-12.34,17.25ZM324.45,791.09h67.52l11.43-15.99-11.44-16.43h-61.88l-14.25,20.47,8.61,11.95ZM297.87,792.37h-97.64l24.29-34.97h67.44l15.11,21.75-9.2,13.22ZM202.67,791.09h94.53l8.31-11.94-14.22-20.48h-66.11l-22.52,32.42ZM408.57,769.93l-12.53-17.52v-109.57l12.53-17.52,12.2,17.53v109.57l-12.2,17.53ZM397.31,752l11.24,15.72,10.94-15.72v-108.76l-10.94-15.72-11.24,15.72v108.76ZM392.63,637.83h-63.21l-15.15-22.05,9.53-12.92h68.83l12.33,17.48-12.33,17.48ZM330.09,636.56h61.88l11.43-16.21-11.43-16.21h-67.52l-8.61,11.67,14.25,20.75ZM291.93,637.83h-67.59l-24.34-34.97h97.87l9.21,12.92-15.14,22.05ZM225.01,636.56h66.26l14.26-20.76-8.31-11.66h-94.77l22.57,32.42Z"/>
      </g>
      <g>
        <path d="M201.53,407.19l23.45,33.24v109.17l-11.88,16.62-11.57-16.62v-142.41ZM291.6,555.44l14.7,21.11-8.76,12.58h-68.49l-11.88-16.62,11.88-17.07h62.55ZM310.83,419.32l11.73,17.07v37.74l-11.73,16.62-11.73-16.62v-37.74l11.73-17.07ZM392.3,400.9l11.88,16.85-11.88,16.85h-62.55l-14.7-21.4,9.07-12.29h68.17ZM392.3,555.44l11.88,17.07-11.88,16.62h-68.17l-9.07-12.58,14.7-21.11h62.55ZM420.13,440.43l-11.57-16.62-11.88,16.62v109.17l11.88,16.62,11.57-16.62v-109.17Z"/>
        <path class="cls-1" d="M392.63,589.77h-68.83l-9.52-13.21,15.15-21.76h63.21l12.33,17.71-12.34,17.25ZM324.45,588.49h67.52l11.43-15.99-11.44-16.43h-61.88l-14.25,20.47,8.61,11.95ZM297.87,589.77h-69.15l-12.34-17.25,12.33-17.71h63.21l15.14,21.75-9.2,13.22ZM229.38,588.49h67.83l8.31-11.94-14.25-20.48h-61.88l-11.44,16.43,11.43,15.99ZM408.57,567.33l-12.53-17.52v-109.57l12.53-17.52,12.2,17.53v109.57l-12.2,17.53ZM397.31,549.39l11.24,15.72,10.94-15.72v-108.76l-10.94-15.72-11.24,15.72v108.76ZM213.1,567.33l-12.2-17.53v-144.62l24.73,35.05v109.57l-12.53,17.52ZM202.17,549.4l10.94,15.72,11.24-15.72v-108.76l-22.18-31.44v140.2ZM310.83,491.85l-12.36-17.53v-38.14l12.36-18,12.37,18v38.14l-12.37,17.53ZM299.74,473.92l11.09,15.72,11.09-15.72v-37.34l-11.09-16.14-11.09,16.14v37.34ZM392.63,435.23h-63.21l-15.15-22.05,9.53-12.92h68.83l12.33,17.48-12.33,17.48ZM330.09,433.95h61.88l11.43-16.21-11.43-16.21h-67.52l-8.61,11.67,14.25,20.75Z"/>
      </g>
      <g>
        <path d="M291.6,231.99h-66.92l-23.45-33.69h96.32l8.76,12.29-14.7,21.4ZM297.56,386.53h-96.1l23.4-33.69h66.78l14.66,21.11-8.74,12.58ZM299.1,233.79l11.73-17.07,11.73,17.07v117.25l-11.73,16.62-11.73-16.62v-117.25ZM324.12,198.3h96.01l-23.45,33.69h-66.92l-14.7-21.4,9.07-12.29ZM329.76,352.84h66.97l23.47,33.69h-96.09l-9.07-12.58,14.71-21.11Z"/>
        <path class="cls-1" d="M421.43,387.17h-97.63l-9.52-13.21,15.16-21.76h67.64l.19.27,24.17,34.7ZM324.45,385.89h94.54l-22.59-32.42h-66.31l-14.26,20.47,8.61,11.95ZM297.89,387.17h-97.66l24.29-34.97h67.44l15.11,21.75-9.18,13.22ZM202.67,385.89h94.55l8.29-11.94-14.22-20.48h-66.11l-22.52,32.42ZM310.83,368.77l-12.36-17.53v-117.65l12.36-18,12.37,18v117.65l-12.37,17.53ZM299.74,350.84l11.09,15.72,11.09-15.72v-116.85l-11.09-16.14-11.09,16.14v116.85ZM397.01,232.63h-67.59l-15.15-22.05,9.53-12.92h97.55l-24.34,34.97ZM330.09,231.35h66.26l22.57-32.42h-94.46l-8.61,11.67,14.25,20.75ZM291.93,232.63h-67.59l-24.34-34.97h97.87l9.21,12.92-15.14,22.05ZM225.01,231.35h66.26l14.26-20.76-8.31-11.66h-94.77l22.57,32.42Z"/>
      </g>
      <g>
        <path d="M401.53,815.99l23.45,33.24v115.45l-23.45,33.24v-181.94ZM497.54,1004.22h-91.94l23.45-33.69h62.55l14.7,21.11-8.76,12.58ZM499.1,851.48l11.73-17.07,11.73,17.07v117.25l-11.73,16.62-11.73-16.62v-117.25ZM529.75,970.52h62.55l23.45,33.69h-91.63l-9.07-12.58,14.7-21.11ZM620.13,815.99v181.94l-23.45-33.24v-115.45l23.45-33.24Z"/>
        <path class="cls-1" d="M616.97,1004.86h-93.18l-9.52-13.21,15.15-21.76h63.21l24.34,34.97ZM524.45,1003.58h90.08l-22.57-32.42h-61.88l-14.25,20.47,8.61,11.95ZM497.87,1004.86h-93.5l24.34-34.97h63.21l15.14,21.75-9.2,13.22ZM406.82,1003.58h90.39l8.31-11.94-14.25-20.48h-61.88l-22.57,32.42ZM620.77,999.94l-24.73-35.05v-115.86l24.73-35.05v185.96ZM597.31,964.48l22.18,31.44v-177.92l-22.18,31.44v115.05ZM400.9,999.94v-185.96l24.73,35.05v115.86l-24.73,35.05ZM402.17,818v177.92l22.18-31.44v-115.05l-22.18-31.44ZM510.83,986.46l-12.36-17.53v-117.65l12.36-18,12.37,18v117.65l-12.37,17.53ZM499.74,968.53l11.09,15.72,11.09-15.72v-116.85l-11.09-16.14-11.09,16.14v116.85Z"/>
      </g>
      <g>
        <path d="M413.1,613.38l11.88,16.85v131.88l-11.88,16.59-11.57-16.62v-132.08l11.57-16.62ZM491.6,767.92l14.7,21.11-8.76,12.58h-68.49l-11.88-16.62,11.88-17.07h62.55ZM499.1,648.88l11.73-17.07,11.73,17.07v117.25l-11.73,16.62-11.73-16.62v-117.25ZM592.3,613.38l11.88,16.85-11.88,16.85h-62.55l-14.7-21.4,9.07-12.29h68.17ZM620.13,784.99l-11.57,16.62-11.88-16.62v-132.08l11.88-16.62,11.57,16.62v132.08Z"/>
        <path class="cls-1" d="M608.57,802.72l-12.53-17.52v-132.48l12.53-17.52,12.2,17.53v132.48l-12.2,17.53ZM597.31,784.79l11.24,15.72,10.94-15.72v-131.68l-10.94-15.72-11.24,15.72v131.67ZM497.87,802.25h-69.15l-12.34-17.25,12.33-17.71h63.21l15.14,21.75-9.2,13.22ZM429.38,800.98h67.83l8.31-11.94-14.25-20.48h-61.88l-11.44,16.43,11.43,15.99ZM510.83,783.85l-12.36-17.53v-117.65l12.36-18,12.37,18v117.65l-12.37,17.53ZM499.74,765.92l11.09,15.72,11.09-15.72v-116.85l-11.09-16.14-11.09,16.14v116.85ZM413.1,779.81l-12.2-17.53v-132.48l12.21-17.53,12.52,17.76v132.29l-.12.17-12.41,17.33ZM402.17,761.88l10.94,15.72,11.24-15.69v-131.47l-11.24-15.94-10.94,15.71v131.68ZM592.63,647.72h-63.21l-15.15-22.05,9.53-12.92h68.83l12.33,17.48-12.33,17.48ZM530.09,646.44h61.88l11.43-16.21-11.43-16.21h-67.52l-8.61,11.67,14.25,20.75Z"/>
      </g>
    </g>
  </g>
</svg>