<?xml version="1.0" encoding="UTF-8"?>
<svg id="Layer_2" data-name="Layer 2" xmlns="http://www.w3.org/2000/svg" viewBox="0 0 631.68 1017.16">
  <defs>
    <style>
      .cls-1 {
        fill: #fff;
      }
    </style>
  </defs>
  <g id="Home_Page_Text_copy" data-name="Home Page Text copy">
    <g id="Helvetica">
      <g>
        <path d="M197.28,925.2c0-10.96-1.21-19.86-3.62-26.71-4.63-12.98-13.23-19.46-25.8-19.46-7.34,0-13.02,3.22-17.05,9.66-3.92,6.44-7.39,16.55-10.41,30.33l-5.28,23.54c-5.23,23.14-10.91,39.13-17.05,47.98-10.26,14.99-26.3,22.48-48.13,22.48-19.92,0-36.46-7.24-49.64-21.73-13.18-14.48-19.77-35.76-19.77-63.82,0-23.44,6.21-43.43,18.63-59.97,12.42-16.54,30.45-25.22,54.09-26.03v44.66c-13.38.81-22.88,6.64-28.52,17.5-3.72,7.24-5.58,16.25-5.58,27.01,0,11.97,2.41,21.53,7.24,28.67,4.83,7.14,11.57,10.71,20.22,10.71,7.95,0,13.88-3.52,17.8-10.56,2.62-4.53,5.68-14.18,9.2-28.97l9.2-38.32c4.02-16.8,9.41-29.47,16.14-38.02,10.46-13.28,25.6-19.92,45.41-19.92s37.19,7.77,50.62,23.31c13.43,15.54,20.14,37.49,20.14,65.86s-6.61,51.75-19.84,68.35c-13.23,16.6-31.41,24.9-54.54,24.9v-44.36c10.16-1.41,17.75-4.17,22.78-8.3,9.15-7.54,13.73-20.47,13.73-38.78Z"/>
        <path class="cls-1" d="M160.77,1017.16h-.53v-45.35l.46-.06c10.01-1.39,17.59-4.14,22.52-8.18,8.98-7.4,13.54-20.31,13.54-38.36,0-10.85-1.21-19.78-3.59-26.53-4.52-12.68-13.03-19.11-25.3-19.11-7.11,0-12.7,3.16-16.6,9.41-3.87,6.35-7.35,16.5-10.34,30.16l-5.28,23.54c-5.22,23.09-10.98,39.3-17.13,48.17-10.31,15.07-26.65,22.71-48.57,22.71-19.98,0-36.81-7.37-50.03-21.9-13.21-14.52-19.9-36.11-19.9-64.18,0-23.44,6.3-43.73,18.74-60.29,12.47-16.6,30.8-25.43,54.5-26.24l.55-.02v45.71l-.5.03c-13.12.79-22.56,6.58-28.08,17.22-3.66,7.13-5.52,16.14-5.52,26.76,0,11.81,2.41,21.35,7.15,28.37,4.7,6.95,11.35,10.48,19.78,10.48,7.7,0,13.54-3.46,17.34-10.29,2.58-4.47,5.66-14.17,9.15-28.83l9.2-38.32c4.02-16.79,9.49-29.65,16.24-38.23,10.52-13.35,25.94-20.12,45.83-20.12s37.55,7.91,51.02,23.5c13.45,15.57,20.27,37.84,20.27,66.21s-6.71,52.06-19.96,68.68c-13.27,16.65-31.76,25.1-54.96,25.1ZM161.3,972.73v43.36c22.61-.13,40.64-8.43,53.59-24.69,13.09-16.42,19.73-39.3,19.73-68.02s-6.73-50.14-20.01-65.51c-13.26-15.35-30.16-23.13-50.22-23.13s-34.69,6.63-45,19.71c-6.66,8.45-12.06,21.17-16.04,37.82l-9.2,38.32c-3.52,14.77-6.63,24.56-9.26,29.11-4,7.18-10.15,10.83-18.26,10.83-8.8,0-15.75-3.68-20.66-10.95-4.87-7.2-7.33-16.94-7.33-28.96,0-10.79,1.9-19.96,5.64-27.25,5.63-10.85,15.2-16.83,28.46-17.76v-43.61c-23.09.91-40.97,9.59-53.13,25.79-12.29,16.38-18.53,36.45-18.53,59.65,0,27.79,6.6,49.15,19.63,63.46,13.01,14.3,29.58,21.55,49.25,21.55,21.54,0,37.59-7.49,47.69-22.25,6.07-8.75,11.78-24.83,16.97-47.79l5.28-23.54c3.02-13.77,6.54-24.03,10.48-30.49,4.11-6.58,10-9.91,17.5-9.91,12.77,0,21.61,6.67,26.3,19.82,2.42,6.87,3.65,15.91,3.65,26.88,0,18.39-4.68,31.57-13.92,39.19-5.01,4.11-12.6,6.92-22.59,8.35Z"/>
      </g>
      <g>
        <path d="M183.7,675.17v81.93l45.72,15.39v48.58L7.02,741.71v-52.51l222.4-78.76v50.39l-45.72,14.33ZM145.38,688.15l-87.51,27.76,87.51,28.67v-56.43Z"/>
        <path class="cls-1" d="M229.95,821.83l-.71-.25L6.49,742.08v-53.26l.35-.12,223.1-79.01v51.54l-45.72,14.33v81.15l45.72,15.39v49.72ZM7.55,741.33l221.33,78.98v-47.45l-45.72-15.39v-82.7l45.72-14.33v-49.25L7.55,689.58v51.75ZM145.91,745.31l-89.77-29.41,89.77-28.48v57.89ZM59.6,715.92l85.24,27.92v-54.97l-85.24,27.04Z"/>
      </g>
      <g>
        <path d="M229.42,404.86v46.47l-157.97,90.83h157.97v43.3H7.02v-48.73l155.25-88.57H7.02v-43.3h222.4Z"/>
        <path class="cls-1" d="M229.95,585.99H6.49v-49.57l.27-.15,153.51-87.57H6.49v-44.37h223.46v47.31l-156.51,89.99h156.51v44.37ZM7.55,584.93h221.33v-42.24H69.45l159.43-91.67v-45.63H7.55v42.24h156.73L7.55,537.03v47.89Z"/>
      </g>
      <g>
        <path d="M229.42,280.58v95.81H7.02v-95.81c.2-13.78,1.81-25.25,4.83-34.4,5.13-15.59,14.54-28.21,28.21-37.87,11.07-7.74,23.04-13.02,35.91-15.84,12.88-2.81,25.15-4.22,36.81-4.22,29.57,0,54.62,5.94,75.14,17.8,27.66,16.09,41.49,40.94,41.49,74.53ZM63.75,246.03c-12.07,7.14-18.11,21.27-18.11,42.4v42.85h145.15v-42.85c0-21.93-10.81-37.21-32.44-45.87-11.87-4.73-26-7.09-42.4-7.09-22.63,0-40.03,3.52-52.2,10.56Z"/>
        <path class="cls-1" d="M229.95,376.92H6.49v-96.34c.2-13.78,1.84-25.41,4.85-34.57,5.14-15.63,14.7-28.46,28.41-38.14,11.07-7.75,23.22-13.11,36.1-15.93,12.86-2.81,25.28-4.24,36.93-4.24,29.53,0,54.9,6.01,75.4,17.88,27.71,16.12,41.76,41.35,41.76,74.99v96.34ZM7.55,375.86h221.33v-95.28c0-33.24-13.87-58.16-41.23-74.07-20.34-11.77-45.53-17.73-74.87-17.73-11.57,0-23.92,1.42-36.7,4.21-12.74,2.79-24.76,8.09-35.72,15.76-13.52,9.54-22.94,22.2-28.01,37.6-2.99,9.06-4.6,20.58-4.8,34.24v95.27ZM191.32,331.81H45.11v-43.38c0-21.22,6.18-35.64,18.37-42.85h0c12.2-7.06,29.85-10.64,52.47-10.64,16.39,0,30.72,2.4,42.59,7.13,21.75,8.7,32.77,24.3,32.77,46.36v43.38ZM46.18,330.74h144.08v-42.32c0-21.58-10.8-36.85-32.1-45.37-11.75-4.68-25.95-7.05-42.2-7.05-22.43,0-39.9,3.53-51.94,10.49-11.84,7.01-17.84,21.12-17.84,41.94v42.32Z"/>
      </g>
      <g>
        <path d="M7.02.89l138.81,74.38h83.59v46.47h-83.59L7.02,198.69v-54.77l96.86-46.17L7.02,53.54V.89Z"/>
        <path class="cls-1" d="M6.49,199.59v-56.01l.3-.14,95.83-45.68L6.49,53.89V0l139.47,74.74h83.98v47.53h-83.98L6.49,199.59ZM7.55,144.26v53.53l138.14-76.58h83.19v-45.41h-83.19l-.12-.06L7.55,1.78v51.43l97.59,44.54L7.55,144.26Z"/>
      </g>
      <g>
        <path d="M427.42,873.29h-99.28v86.91h99.28v46.02h-222.4v-46.02h84.79v-86.91h-84.79v-46.17h222.4v46.17Z"/>
        <path class="cls-1" d="M427.95,1006.75h-223.46v-47.08h84.79v-85.84h-84.79v-47.23h223.46v47.23h-99.28v85.84h99.28v47.08ZM205.55,1005.69h221.33v-44.95h-99.28v-87.97h99.28v-45.1h-221.33v45.1h84.79v87.97h-84.79v44.95Z"/>
      </g>
      <g>
        <path d="M341.72,666.04h-136.7v-47.22h136.7c23.64,0,42.05,3.67,55.22,11.01,24.14,13.68,36.21,39.78,36.21,78.31s-12.07,64.68-36.21,78.46c-13.18,7.34-31.58,11.01-55.22,11.01h-136.7v-47.22h136.7c15.29,0,26.46-1.81,33.5-5.43,12.47-5.63,18.71-17.9,18.71-36.81s-6.24-31.03-18.71-36.66c-7.04-3.62-18.2-5.43-33.5-5.43Z"/>
        <path class="cls-1" d="M341.72,798.13h-137.23v-48.29h137.23c15.13,0,26.32-1.81,33.25-5.37,12.23-5.52,18.42-17.75,18.42-36.34s-6.19-30.67-18.4-36.18c-6.96-3.58-18.14-5.38-33.28-5.38h-137.23v-48.29h137.23c23.62,0,42.28,3.73,55.48,11.08,24.21,13.72,36.48,40.22,36.48,78.77s-12.27,65.1-36.48,78.92c-13.2,7.36-31.86,11.08-55.49,11.08ZM205.55,797.07h136.16c23.44,0,41.93-3.68,54.96-10.95,23.84-13.61,35.94-39.85,35.94-77.99s-12.09-64.33-35.94-77.84c-13.03-7.26-31.53-10.94-54.96-10.94h-136.16v46.16h136.16c15.3,0,26.66,1.85,33.74,5.49,12.6,5.69,19,18.19,19,37.14s-6.4,31.6-19.02,37.3c-7.06,3.63-18.41,5.48-33.71,5.48h-136.16v46.16Z"/>
      </g>
      <g>
        <path d="M421.98,446.71c7.54,12.27,11.32,27.36,11.32,45.26,0,29.47-10.21,53.61-30.63,72.42-20.52,19.61-48.58,29.42-84.19,29.42s-64.88-9.91-86.6-29.72c-21.73-19.81-32.59-46.02-32.59-78.61,0-28.26,7.17-50.97,21.5-68.12,14.33-17.15,32.21-26.98,53.64-29.5v45.72c-15.19,3.52-25.8,12.12-31.84,25.8-3.32,7.65-4.98,16.14-4.98,25.5,0,17.91,6.77,32.62,20.29,44.13,13.53,11.52,33.87,17.28,61.03,17.28s46.72-6.24,58.09-18.71c11.37-12.47,17.05-26.65,17.05-42.55s-4.5-28.36-13.5-38.32c-9-9.96-20.8-16.09-35.38-18.41v51.45h-37.12v-92.64h119.35v30.78l-27.76,4.68c10.56,8.95,18.01,17,22.33,24.14Z"/>
        <path class="cls-1" d="M318.48,594.35c-35.98,0-65.24-10.05-86.96-29.86-21.74-19.83-32.76-46.41-32.76-79,0-28.26,7.27-51.29,21.62-68.46,14.36-17.18,32.52-27.16,53.98-29.68l.59-.07v46.74l-.41.1c-14.95,3.47-25.53,12.04-31.47,25.5-3.27,7.54-4.93,16.05-4.93,25.28,0,17.66,6.76,32.37,20.11,43.73,13.37,11.38,33.78,17.15,60.69,17.15s46.49-6.24,57.7-18.54c11.22-12.31,16.91-26.5,16.91-42.19s-4.5-28.16-13.37-37.97c-8.75-9.68-20.34-15.78-34.46-18.14v51.36h-38.18v-93.7h120.41v31.76l-27.08,4.56c10.11,8.66,17.36,16.57,21.57,23.53,7.56,12.3,11.39,27.62,11.39,45.54,0,29.49-10.36,53.99-30.8,72.81-20.52,19.61-48.97,29.56-84.55,29.56ZM273.89,388.47c-20.93,2.6-38.65,12.44-52.7,29.24-14.18,16.97-21.38,39.78-21.38,67.78,0,32.28,10.91,58.6,32.42,78.21,21.52,19.63,50.54,29.58,86.25,29.58s63.5-9.85,83.82-29.27c20.22-18.62,30.46-42.85,30.46-72.04,0-17.72-3.78-32.85-11.24-44.98h0c-4.27-7.06-11.75-15.13-22.22-24.01l-.87-.74,28.45-4.79v-29.8h-118.28v91.58h36.05v-51.54l.62.1c14.64,2.32,26.65,8.57,35.69,18.58,9.05,10.01,13.64,23.02,13.64,38.68s-5.78,30.39-17.19,42.91c-11.42,12.53-31.09,18.88-58.48,18.88s-47.81-5.86-61.38-17.4c-13.59-11.57-20.48-26.55-20.48-44.54,0-9.38,1.69-18.03,5.02-25.71,6.02-13.65,16.72-22.4,31.79-26.01v-44.7Z"/>
      </g>
      <g>
        <path d="M427.42,218.79h-99.28v86.91h99.28v46.02h-222.4v-46.02h84.79v-86.91h-84.79v-46.17h222.4v46.17Z"/>
        <path class="cls-1" d="M427.95,352.24h-223.46v-47.08h84.79v-85.84h-84.79v-47.23h223.46v47.23h-99.28v85.84h99.28v47.08ZM205.55,351.18h221.33v-44.95h-99.28v-87.97h99.28v-45.1h-221.33v45.1h84.79v87.97h-84.79v44.95Z"/>
      </g>
      <g>
        <path d="M528.25,851.12v108.03h57.18v-123.12h39.98v168.53h-222.4v-163.1h39.38v117.68h47.23v-108.03h38.62Z"/>
        <path class="cls-1" d="M625.95,1005.09h-223.46v-164.16h40.44v117.68h46.16v-108.03h39.69v108.03h56.12v-123.12h41.05v169.59ZM403.55,1004.03h221.33v-167.47h-38.92v123.12h-58.25v-108.03h-37.56v108.03h-48.29v-117.68h-38.32v162.03Z"/>
      </g>
      <g>
        <path d="M593.28,721.57c0-10.96-1.21-19.86-3.62-26.71-4.63-12.98-13.23-19.46-25.8-19.46-7.34,0-13.02,3.22-17.05,9.66-3.92,6.44-7.39,16.55-10.41,30.33l-5.28,23.54c-5.23,23.14-10.91,39.13-17.05,47.98-10.26,14.99-26.3,22.48-48.13,22.48-19.92,0-36.46-7.24-49.64-21.73-13.18-14.48-19.77-35.76-19.77-63.82,0-23.44,6.21-43.43,18.63-59.97,12.42-16.54,30.45-25.22,54.09-26.03v44.66c-13.38.81-22.88,6.64-28.52,17.5-3.72,7.24-5.58,16.25-5.58,27.01,0,11.97,2.41,21.53,7.24,28.67,4.83,7.14,11.57,10.71,20.22,10.71,7.95,0,13.88-3.52,17.8-10.56,2.62-4.53,5.68-14.18,9.2-28.97l9.2-38.32c4.02-16.8,9.41-29.47,16.14-38.02,10.46-13.28,25.6-19.92,45.41-19.92s37.19,7.77,50.62,23.31c13.43,15.54,20.14,37.49,20.14,65.86s-6.61,51.75-19.84,68.35c-13.23,16.6-31.41,24.9-54.54,24.9v-44.36c10.16-1.41,17.75-4.17,22.78-8.3,9.15-7.54,13.73-20.47,13.73-38.78Z"/>
        <path class="cls-1" d="M556.77,813.53h-.53v-45.35l.46-.06c10.01-1.39,17.59-4.14,22.52-8.18,8.98-7.4,13.54-20.31,13.54-38.36,0-10.85-1.21-19.78-3.59-26.53-4.52-12.68-13.03-19.11-25.3-19.11-7.11,0-12.7,3.16-16.6,9.41-3.87,6.35-7.35,16.5-10.34,30.16l-5.28,23.54c-5.22,23.09-10.98,39.3-17.13,48.17-10.31,15.07-26.65,22.71-48.57,22.71-19.98,0-36.81-7.37-50.03-21.9-13.21-14.52-19.9-36.11-19.9-64.18,0-23.44,6.3-43.73,18.74-60.29,12.47-16.6,30.8-25.43,54.5-26.24l.55-.02v45.71l-.5.03c-13.12.79-22.56,6.58-28.08,17.22-3.66,7.13-5.52,16.14-5.52,26.76,0,11.81,2.41,21.35,7.15,28.37,4.7,6.95,11.35,10.48,19.78,10.48,7.7,0,13.54-3.46,17.34-10.29,2.58-4.47,5.66-14.17,9.15-28.83l9.2-38.32c4.02-16.79,9.49-29.65,16.24-38.23,10.52-13.35,25.94-20.12,45.83-20.12s37.55,7.91,51.02,23.5c13.45,15.57,20.27,37.84,20.27,66.21s-6.71,52.06-19.96,68.68c-13.27,16.65-31.76,25.1-54.96,25.1ZM557.3,769.11v43.36c22.61-.13,40.64-8.43,53.59-24.69,13.09-16.42,19.73-39.3,19.73-68.02s-6.73-50.14-20.01-65.51c-13.26-15.35-30.16-23.13-50.22-23.13s-34.69,6.63-45,19.71c-6.66,8.45-12.06,21.17-16.04,37.82l-9.2,38.32c-3.52,14.77-6.63,24.56-9.26,29.11-4,7.18-10.15,10.83-18.26,10.83-8.8,0-15.75-3.68-20.66-10.95-4.87-7.2-7.33-16.94-7.33-28.96,0-10.79,1.9-19.96,5.64-27.25,5.63-10.85,15.2-16.83,28.46-17.76v-43.61c-23.09.91-40.97,9.59-53.13,25.79-12.29,16.38-18.53,36.45-18.53,59.65,0,27.79,6.6,49.15,19.63,63.46,13.01,14.3,29.58,21.55,49.25,21.55,21.54,0,37.59-7.49,47.69-22.25,6.07-8.75,11.78-24.83,16.97-47.79l5.28-23.54c3.02-13.77,6.54-24.03,10.48-30.49,4.11-6.58,10-9.91,17.5-9.91,12.77,0,21.61,6.67,26.3,19.82,2.42,6.87,3.65,15.91,3.65,26.88,0,18.39-4.68,31.57-13.92,39.19-5.01,4.11-12.6,6.92-22.59,8.35Z"/>
      </g>
    </g>
  </g>
</svg>