<?xml version="1.0" encoding="UTF-8"?>
<svg id="Layer_2" data-name="Layer 2" xmlns="http://www.w3.org/2000/svg" viewBox="0 0 631.26 1006.43">
  <defs>
    <style>
      .cls-1 {
        fill: #fff;
      }
    </style>
  </defs>
  <g id="Home_Page_Text_copy" data-name="Home Page Text copy">
    <g id="Roboto_Terrible" data-name="Roboto Terrible">
      <g>
        <path d="M187.81,791.35c-8.69,0-15.73,3.31-9.8,32.71-5.38,6.62-10.35,18.49-27.74,112.61-4.97,20.29-11.59,36.02-46.78,48.02-9.8,11.18-22.22,16.84-51.75-4-15.87,0-28.98-5.93-29.67-41.4-10.49-12.01-15.73-27.74,9.25-51.75,0-76.31,6.07-93.15,35.47-87.08,12.01-12.56,26.08-18.63,35.74,6.35l-23.18,8.42-19.87,9.94c-11.45,0-20.84,4-25.39-13.25-7.45,8-11.18,18.22,11.45,74.52,0,12.56,3.04,22.08,30.91,41.54,6.07,6.35,14.08,9.52,24.84,34.91,8.83,0,16.15-3.59.97,3.59,5.8-7.18,10.9-18.91-8.14-100.33,5.38-20.7,12.01-36.43,16.97-72.17,9.38-10.76,21.39-16.15,54.92-33.26,16.42,0,29.95,6.49,65.14,25.81,10.63,12.83,16.01,29.39,23.87,73.83,0,74.66-5.38,91.77-32.29,126.27-10.9,14.9-25.39,22.08-68.86,18.77l-12.01-23.05,13.11-47.75c12.56,0,22.36-4.83,54.65-15.04,6.9-9.52,10.35-20.29,24.7-66.52,0-12.7-3.31-22.91-19.73-7.18-6.62-7.59-15.04-11.32-50.09-7.04l23.32-47.47Z"/>
        <path class="cls-1" d="M172.79,1006.43c-5.62,0-11.9-.26-18.94-.8h-.13s-.06-.13-.06-.13l-12.05-23.13.02-.09,13.16-47.93h.19c9.12,0,17.03-2.64,32.8-7.91,5.79-1.93,12.99-4.34,21.7-7.09,6.79-9.4,10.13-19.69,24.61-66.35,0-8.49-1.48-13.25-4.51-14.54-3.17-1.35-8.15,1.2-14.81,7.58l-.18.18-.17-.19c-6.46-7.4-14.86-10.59-42.82-7.75-4.28,13.48-10.31,40.25-21.06,98.44-4.87,19.9-11.42,36.07-46.88,48.19-10.64,12.11-23.56,16.05-51.97-3.97-15.07-.02-29.1-5.1-29.83-41.55-6.36-7.3-9.11-14.13-8.68-21.48.56-9.43,6.42-19.39,17.92-30.47,0-15.27.27-27.94.86-38.46-6.95-24.42-3.53-31.33,1.96-37.23l.3-.32.11.43c.58,2.19,1.23,4.03,1.96,5.57,2.04-7.01,4.76-11.52,8.3-14.41,4.99-4.06,11.82-4.94,22.13-2.83,7.94-8.28,15.06-11.87,21.15-10.65,5.94,1.19,10.96,6.96,14.9,17.17l.09.23-.23.08-23.18,8.42-19.96,9.95c-1.88,0-3.69.11-5.45.21-7.37.44-13.49.8-17.6-6.79-2.08,7.62-3.32,17.6-4.03,30,2.71,9.5,6.99,21.67,13.36,37.52l.02.09c0,13.72,4.45,22.94,30.81,41.34,1.23,1.28,2.51,2.41,3.86,3.61,5.51,4.88,12.37,10.96,21,31.26,1.07,0,2.11-.06,3.09-.14,4.45-9.05,5.17-28.6-10.66-96.29v-.06s0-.06,0-.06c1.42-5.46,2.9-10.49,4.47-15.81,4.35-14.77,8.85-30.04,12.5-56.34v-.07s.06-.05.06-.05c8.42-9.65,19.13-15.09,45-28.23,3.1-1.58,6.43-3.26,10-5.08l.11-.03c16.7,0,30.39,6.7,65.25,25.84l.07.06c10.69,12.91,16.06,29.5,23.93,73.94,0,40.27-1.64,61.48-6.06,78.3-4.8,18.25-13.27,31.48-26.28,48.16-9.1,12.45-20.6,19.66-50.13,19.66ZM154.02,1005.16c43.68,3.31,57.78-4.01,68.51-18.68,17.14-21.97,22.58-34.24,26.2-47.99,4.41-16.78,6.05-37.95,6.05-78.13-7.84-44.26-13.18-60.81-23.79-73.64-34.71-19.06-48.36-25.74-64.92-25.75-3.55,1.81-6.86,3.49-9.94,5.06-25.77,13.08-36.46,18.51-44.81,28.06-3.66,26.29-8.16,41.56-12.51,56.34-1.56,5.3-3.03,10.3-4.45,15.74,15.68,67.06,15.11,87.02,10.74,96.3,1.45-.14,2.75-.33,3.76-.47,1.9-.28,2.3-.33,2.4.01.13.42-.15.58-7.57,4.08l-1.34.63-.29-.37c.79-.97,1.54-2.04,2.21-3.32-.95.07-1.96.12-2.99.12h-.16l-.06-.15c-8.61-20.31-15.44-26.37-20.94-31.23-1.36-1.21-2.65-2.35-3.86-3.61-26.47-18.47-30.97-27.79-30.98-41.66-6.07-15.1-10.25-26.89-12.98-36.21-.56,10.66-.75,23.07-.75,37.26v.1l-.07.07c-26.08,25.08-18.64,40.65-9.23,51.42l.06.07v.09c.71,36.17,14.56,41.16,29.43,41.16h.08l.06.04c28.19,19.89,40.95,16,51.43,4.04l.04-.05.06-.02c35.28-12.04,41.79-28.1,46.62-47.85,10.71-58,16.69-84.73,20.97-98.28-2.06.21-4.22.46-6.49.73l-.44.05,12.09-24.6c-1.28-10.08-.51-16.54,2.35-20.03,2.43-2.97,6.07-3.38,9.31-3.38h.39l-11.53,23.47c.36,2.86.89,6,1.58,9.43l.02.11-.07.09c-1.96,2.41-3.89,5.58-6.46,13.56,27.77-2.79,36.33.37,42.86,7.74,6.82-6.49,11.77-8.94,15.15-7.5,3.24,1.38,4.81,6.3,4.81,15.03v.07c-14.56,46.85-17.87,57.1-24.75,66.59l-.05.06-.08.02c-8.74,2.76-15.96,5.18-21.77,7.12-15.71,5.25-23.65,7.9-32.77,7.94l-13.04,47.48,11.9,22.84ZM104.85,962.96c-.55,1.08-1.15,2.01-1.78,2.86l.42-.2c3.68-1.74,6.03-2.85,6.93-3.37-.38.04-.92.12-1.49.2-1.09.16-2.5.36-4.08.5ZM33.96,812.4c-5.11,5.62-8.2,12.46-1.93,35.12.78-12.81,2.08-22.31,4.04-29.37-.78-1.58-1.49-3.47-2.11-5.74ZM176.28,815.39l-11.37,23.14c2.19-.26,4.27-.5,6.26-.7,2.58-8.07,4.55-11.31,6.58-13.83-.63-3.11-1.12-5.98-1.48-8.61ZM36.62,818.13c4.01,7.8,10.05,7.44,17.37,7.01,1.75-.1,3.56-.21,5.42-.21l19.82-9.91,22.98-8.34c-3.87-9.9-8.73-15.5-14.46-16.64-5.94-1.18-12.93,2.38-20.79,10.6l-.09.1-.13-.03c-10.23-2.11-16.97-1.28-21.85,2.7-3.63,2.96-6.31,7.85-8.27,14.73ZM187.42,791.6c-3.02.03-6.33.5-8.54,3.2-2.65,3.25-3.43,9.47-2.32,18.91l10.86-22.1Z"/>
      </g>
      <g>
        <path d="M199.54,767.76l32.98,35.05-24.56,21.11L.27,727.19l16.15-98.12,225.35-67.76,11.04,50.65-65.14,39.33,11.87,116.47ZM150.55,662.46l-107.09,16.01-.69-24.56,106.54,70.93,1.24-62.38Z"/>
        <path class="cls-1" d="M208,824.21l-.14-.07L0,727.33l.03-.18,16.17-98.27.15-.04,225.61-67.83.06.26,11.08,50.82-65.15,39.34,11.84,116.24,33.1,35.18-24.88,21.38ZM.54,727.04l207.38,96.59,24.25-20.85-32.86-34.93v-.08s-11.89-116.62-11.89-116.62l.13-.08,64.99-39.24-10.95-50.22-224.96,67.64L.54,727.04ZM149.54,725.29l-.37-.25-76.2-50.74-29.74,4.45-.71-25.31,30.57,20.35,77.71-11.62v.29s-1.26,62.82-1.26,62.82ZM73.69,674.2l75.39,50.19,1.23-61.65-76.62,11.45ZM43.03,654.37l.67,23.82,28.67-4.29-29.34-19.54Z"/>
      </g>
      <g>
        <path d="M211,431.32l-163.81,129.17,13.39-20.98,177.74-.69,14.35,48.16-210.04,23.46-24.98-22.91,135.24-170.71,6.35-25.39-128.06-7.87,19.6-10.9,197.06,25.12-36.85,33.53Z"/>
        <path class="cls-1" d="M42.55,610.69l-.08-.08-25.14-23.06.14-.18,135.21-170.67,6.26-25.06-128.6-7.9,20.39-11.34h.08s197.59,25.19,197.59,25.19l-37.25,33.9-136.59,107.7,163.94-.64.05.17,14.44,48.44-.29.03-210.15,23.47ZM17.99,587.51l24.73,22.68,209.64-23.42-14.22-47.71-164.2.64-26.6,20.98-.35-.32,13.46-21.09h.13s13.2-.05,13.2-.05l137.07-108.08,36.45-33.17-196.46-25.04-18.8,10.46,127.53,7.83-.07.28-6.39,25.48L17.99,587.51ZM60.71,539.75l-12.54,19.65,24.99-19.7-12.44.05Z"/>
      </g>
      <g>
        <path d="M2.62,365.49l21.11-77.42c0-81.42,8.14-102.53,47.61-108.47,16.15-16.01,36.98-24.01,66.65.97l7.87,17.11c25.67,0,46.51,8,38.09,17.25,16.01,16.01,24.01,37.12,16.42,94.25l16.15,43.61L2.62,365.49ZM221.48,371.43l-24.98-31.74c0-73.83-6.07-88.46-35.47-117.99-12.28-10.76-28.01-16.15-40.57-40.71l-2.76-7.87c-18.91,0-34.5,5.38-27.19,32.29-12.28,10.76-18.35,25.39-21.39,124.34l-22.77,47.2,175.12-5.52Z"/>
        <path class="cls-1" d="M45.97,377.2l6.97-14.45-50.65,3.01.09-.33,21.11-77.39c0-44.35,2.53-67.51,9.02-82.6,6.6-15.35,17.82-22.9,38.71-26.06,20.61-20.4,41.88-20.08,66.93,1.01l.06.08,7.8,16.97c20.08.02,36.74,4.78,39.63,11.33.89,2.02.43,4.09-1.37,6.15,15.71,15.8,23.91,37.17,16.34,94.24l16.24,43.86-9.12.54,14.24,18.09-176,5.55ZM53.5,362.72l-6.74,13.98,174.24-5.49-13.85-17.6-153.65,9.12ZM102.5,164.83c-10.74,0-20.94,4.98-30.99,14.94l-.06.06h-.08c-20.75,3.13-31.88,10.6-38.42,25.79-7.46,17.33-8.98,45.49-8.98,82.45v.06S2.94,365.23,2.94,365.23l50.24-2.98,15.71-32.56c3.01-98,8.83-113.32,21.36-124.36-2.92-10.83-2.34-18.71,1.76-24.08,4.37-5.71,12.53-8.37,25.7-8.37h.17l2.82,8.03c9.16,17.91,20.24,25.74,30.02,32.64,3.7,2.61,7.19,5.08,10.48,7.97,14.69,14.76,23.63,25.9,28.83,42.49,4.9,15.63,6.72,36.13,6.72,75.6l10.62,13.49,8.81-.52-16.05-43.36v-.06c7.6-57.11-.62-78.33-16.35-94.05l-.16-.16.16-.17c1.79-1.96,2.27-3.92,1.44-5.8-2.78-6.29-19.7-11.04-39.34-11.04h-.16l-7.91-17.2c-12.6-10.59-24.23-15.89-35.29-15.89ZM117.54,173.36c-12.9.02-20.89,2.62-25.14,8.18-4.03,5.27-4.56,13.05-1.64,23.8l.04.15-.11.1c-12.5,10.96-18.3,26.01-21.31,124.16l-.02.1-15.61,32.36,153.04-9.08-10.51-13.36v-.08c0-39.47-1.82-59.94-6.7-75.53-5.17-16.5-14.07-27.59-28.7-42.28-3.26-2.86-6.75-5.32-10.43-7.92-9.82-6.94-20.96-14.8-30.18-32.85l-2.72-7.73Z"/>
      </g>
      <g>
        <path d="M49.81,16.91L28.97.21l105.98,60.72,66.24-25.12,18.77,65.14-48.16,6.35-119.51,93.56-16.15-11.32,76.04-55.34L49.81,16.91Z"/>
        <path class="cls-1" d="M52.3,201.17l-.15-.1-16.42-11.51,76.14-55.41L49.62,17.07,28.82.4l.27-.4,105.88,60.66,66.38-25.17.07.25,18.85,65.41-.28.04-48.1,6.34-119.6,93.63ZM36.57,189.54l15.72,11.02,119.42-93.49h.07s47.88-6.32,47.88-6.32l-18.62-64.61-66.1,25.06-.1-.06L31.56,1.97l18.46,14.82,62.48,117.49-75.93,55.26Z"/>
      </g>
      <g>
        <path d="M405.76,822.96l-105.98-18.77,6.62,128.2,112.88-7.87,19.6,43.47-203.14,25.12-22.77-16.01,69.14-13.25-.69-178.16-69.69-14.21,23.32-17.11,204.24,24.98-33.53,43.61Z"/>
        <path class="cls-1" d="M235.68,993.36l-.08-.05-23.24-16.34.56-.11,68.94-13.21-.69-177.76-70.03-14.28,23.84-17.49h.1s204.66,25.04,204.66,25.04l-33.88,44.06-.15-.03-105.68-18.71,6.6,127.65,112.81-7.86.07.15,19.73,43.77-.33.04-203.23,25.13ZM213.58,977.23l22.22,15.62,202.72-25.06-19.39-43.02-112.96,7.87v-.25s-6.65-128.51-6.65-128.51l.3.05,105.84,18.74,33.18-43.15-203.72-24.91-22.8,16.73,69.35,14.14v.2s.69,178.36.69,178.36l-.2.04-68.58,13.14Z"/>
      </g>
      <g>
        <path d="M369.46,548.89c22.08,0,39.33,7.18,52.58,46.92,12.42,14.35,18.63,32.84-2.21,125.03,0,21.8-6.21,39.61-42.23,43.75-12.42,13.94-29.67,20.84-56.03-4.28l-113.85-17.11,24.56-20.84,140.48,24.15c15.32,0,27.32-4.42,20.01,6.49,8.69-8.83,13.11-20.15-12.14-36.98,0-69.97-4.28-81.97-24.15-113.99-8.69-9.25-20.7-13.8-23.05-35.6l-107.23-.69,14.35-6.21,128.89-10.63Z"/>
        <path class="cls-1" d="M353.93,777.35c-9.82,0-20.73-5.65-32.46-16.81l-114.3-17.18.41-.35,24.65-20.91.11.02,140.48,24.15c3.82,0,7.45-.28,10.65-.53,6-.46,10.35-.8,11.48,1.14.54.92.31,2.28-.71,4.2,3.89-4.45,5.51-8.56,5.07-12.79-.71-6.9-6.86-14.12-18.8-22.08l-.11-.07v-.13c0-69-3.95-81.38-24.11-113.86-1.94-2.06-4.14-3.96-6.26-5.79-7.34-6.36-14.94-12.93-16.8-29.7l-107.01-.69-.1-.47,14.43-6.23,128.91-10.63c22.9,0,39.73,7.87,52.79,47.04,6.68,7.72,10.91,16.03,11.4,33.44.54,19.24-3.78,48.4-13.58,91.76,0,13.03-2.36,21.86-7.65,28.59-6.59,8.38-17.94,13.39-34.69,15.33-7.23,8.09-14.68,12.18-22.77,12.51-.34.01-.69.02-1.03.02ZM208.29,743.04l113.4,17.04.06.05c12.06,11.5,23.24,17.13,33.19,16.71,7.97-.33,15.33-4.39,22.49-12.42l.06-.07h.09c16.67-1.93,27.94-6.88,34.46-15.17,5.23-6.64,7.56-15.38,7.56-28.35,9.8-43.38,14.11-72.5,13.58-91.69-.48-17.3-4.68-25.52-11.31-33.17l-.05-.08c-12.98-38.93-29.65-46.75-52.34-46.75l-128.84,10.62-13.26,5.74,106.29.68.02.21c1.8,16.74,9.35,23.28,16.66,29.6,2.13,1.84,4.33,3.75,6.32,5.87,20.24,32.6,24.21,45.01,24.22,114.02,11.99,8.01,18.18,15.33,18.9,22.36.51,4.94-1.66,9.68-6.83,14.93l-.37-.31c1.9-2.84,2.54-4.71,1.94-5.73-.98-1.68-5.41-1.33-11.02-.9-3.21.25-6.85.53-10.73.53l-140.41-24.13-24.07,20.42Z"/>
      </g>
      <g>
        <path d="M389.61,384.54c7.45,4.83,14.35,13.11-2.76,15.04,6.21,11.87,9.38,27.19,4.97,20.98,0,78.38-7.73,97.57-4.28,95.63-15.32,15.18-35.19,22.77-34.91,29.12l-32.71,24.15c-24.43,0-44.3-7.31-75.76-2.21-15.32-14.63-23.05-33.53-48.3-114.68,0-22.36,5.93-40.02,6.62-75.76,11.87-12.97,27.05-19.32,58.51-40.71l26.22-.41,14.35,47.06c-12.28,0-22.49,4-40.57,35.33-8.14,7.87-12.14,19.04-37.12,37.95,0,70.52,5.8,82.94.14,73.55,11.45,9.38,26.08,14.08,50.37-10.49l65-7.87c17.8,0,32.57-4.97,63.76,1.38,11.59-9.94,17.39-22.63,14.35-68.17,0-11.87-1.52-21.25-27.46-17.11-3.04-6.9-6.62-12.01-32.57-28.57l-45.95-25.39,21.11,31.33,2.07,10.07,4.14-47.75,54.65,17.11-3.86.41Z"/>
        <path class="cls-1" d="M320,569.7h-.08c-8.88,0-17-.95-25.59-1.95-14.81-1.73-30.12-3.51-50.13-.26l-.12.02-.09-.08c-15.13-14.45-22.81-32.68-48.36-114.78v-.07c-.01-10.31,1.23-19.52,2.68-30.17,1.67-12.34,3.56-26.34,3.94-45.6v-.09s.06-.07.06-.07c7.62-8.33,16.66-13.97,30.33-22.5,7.53-4.7,16.91-10.55,28.22-18.24l.06-.04h.07s26.4-.42,26.4-.42l.05.17,14.45,47.37h-.33c-13.29,0-23.19,5.45-40.36,35.21l-.04.05c-2.5,2.42-4.62,5.16-7.07,8.33-5.38,6.97-12.75,16.51-29.98,29.56,0,34.92,1.42,55.38,2.17,66.37.34,4.96.51,7.52.42,8.81,18.26,12.81,34.21,1.03,47.5-12.41l.06-.06h.08s65-7.88,65-7.88c5.2,0,10.09-.42,15.27-.86,9.03-.77,18.94-1.62,32.23-.28.08-.67.16-1.4.26-2.2,1.38-11.7,4.19-35.44,4.45-80.32-.49.07-.99.15-1.49.23l-.19.03-.08-.17c-3.22-7.31-7.47-12.5-32.48-28.46l-20.06-11.09-2.33,26.91-.48.03-2.06-10.03-21.09-31.29.32-.35,25.22,13.94,1.77-20.39,54.94,17.2-.05.47-3.19.34c2.54,1.72,8.26,6.1,7.35,9.99-.62,2.62-4.12,4.33-10.42,5.09,4.57,8.87,8.17,21.3,6.44,22.36-.4.25-.92-.03-1.61-.87,0,1.87,0,3.69-.02,5.49,10.66-1.48,17.47-.62,21.34,2.69,4.01,3.42,4.34,9.03,4.34,14.97,2.98,44.76-2.52,58.14-14.44,68.36l-.09.08-.12-.02c-5.78-1.18-11.02-1.96-15.81-2.46-.39,3.42-.55,5.44-.18,5.69.05.03.17,0,.32-.08l.29.38c-7.14,7.08-15.32,12.54-21.89,16.93-7.32,4.89-13.1,8.75-12.95,12.01v.13s-.1.08-.1.08l-32.77,24.2ZM266.53,565.2c10.05,0,19.04,1.05,27.85,2.07,8.56,1,16.64,1.94,25.46,1.94l32.54-24.03c-.01-3.49,5.53-7.2,13.17-12.3,6.4-4.28,14.33-9.58,21.33-16.39-.02,0-.04-.02-.05-.03-.59-.4-.51-1.95-.03-6.14-13.25-1.34-23.13-.49-32.13.28-5.19.44-10.09.86-15.28.86l-64.89,7.85c-22.96,23.2-37.17,20.2-47.85,12.58-.08.4-.22.57-.42.64-.51.16-1.05-.57-2.42-2.84l.36-.31c.7.57,1.4,1.11,2.09,1.61.03-1.51-.18-4.51-.45-8.46-.76-11.01-2.17-31.51-2.17-66.52v-.12l.1-.07c17.24-13.05,24.61-22.59,29.98-29.55,2.46-3.18,4.58-5.93,7.09-8.36,17.14-29.7,27.13-35.33,40.44-35.42l-14.2-46.57-25.96.41c-11.29,7.67-20.65,13.52-28.18,18.21-13.6,8.49-22.61,14.11-30.17,22.35-.38,19.24-2.27,33.23-3.94,45.56-1.44,10.62-2.68,19.8-2.68,30.07,25.46,81.81,33.15,100.1,48.14,114.46,8.11-1.31,15.45-1.79,22.29-1.79ZM224.95,530.64c.46.72.94,1.41,1.14,1.43.06-.06.1-.21.13-.47-.43-.31-.85-.64-1.27-.96ZM387.34,509.89c4.77.5,9.98,1.28,15.73,2.45,11.73-10.1,17.14-23.44,14.18-67.9,0-5.83-.32-11.33-4.17-14.62-3.72-3.17-10.61-4.02-21.03-2.57-.26,44.95-3.07,68.73-4.45,80.44-.09.78-.18,1.51-.26,2.19ZM337.31,387.34l20.27,11.2c24.94,15.92,29.35,21.2,32.6,28.51.47-.07.93-.14,1.39-.21.01-2.05.02-4.14.02-6.28v-.76l.44.62c1.06,1.49,1.4,1.32,1.4,1.32,1.01-.62-1.34-11.64-6.78-22.04l-.16-.31.35-.04c6.3-.71,9.78-2.31,10.36-4.76.73-3.1-3.5-7.12-7.7-9.84l-.57-.37,3.38-.36-53.25-16.67-1.73,20.01ZM312.27,374.06l20.59,30.58,1.73,8.44,2.21-25.46-24.53-13.55Z"/>
      </g>
      <g>
        <path d="M405.76,195.62l-105.98-18.77,6.62,128.2,112.88-7.87,19.6,43.47-203.14,25.12-22.77-16.01,69.14-13.25-.69-178.16-69.69-14.21,23.32-17.11,204.24,24.98-33.53,43.61Z"/>
        <path class="cls-1" d="M235.68,366.02l-.08-.05-23.24-16.34.56-.11,68.94-13.21-.69-177.76-70.03-14.28,23.84-17.49h.1s204.66,25.04,204.66,25.04l-.26.34-33.62,43.72-.15-.03-105.68-18.71,6.6,127.65,112.81-7.86.07.15,19.73,43.77-.33.04-203.23,25.13ZM213.58,349.9l22.22,15.62,202.72-25.06-19.39-43.02-112.96,7.87-6.65-128.75,106.14,18.8,33.18-43.15-203.72-24.91-22.8,16.73,69.35,14.14v.2s.69,178.36.69,178.36l-.2.04-68.58,13.14Z"/>
      </g>
      <g>
        <path d="M514.13,925.35l91.49,16.28-3.04-126.68-1.52,11.18-21.67,165.74-200.79-25.39,21.11-191.68,44.71,10.07,4.14,175.26,46.23,17.11-24.56-144.35,12.97-24.29,30.91,116.75Z"/>
        <path class="cls-1" d="M579.62,992.14l-.24-.03-201.03-25.42.03-.24,21.14-191.95,45.16,10.18v.19s4.14,175.1,4.14,175.1l45.68,16.91-24.51-144.01,13.3-24.91.16.6,30.87,116.6,71.88,12.79,14.62-111.84,1.52-11.18.48.03,3.04,126.98-19.25-3.43-7.01,53.64ZM378.88,966.27l200.31,25.33,6.95-53.18-72.21-12.85-30.79-116.3-12.64,23.67,24.62,144.68-.39-.15-46.38-17.17-4.14-175.24-44.26-9.97-21.06,191.17ZM586.69,938.02l18.69,3.33-2.96-123.34-1.11,8.16-14.62,111.86Z"/>
      </g>
      <g>
        <path d="M563.81,617.34c-8.69,0-15.73,3.31-9.8,32.71-5.38,6.62-10.35,18.49-27.74,112.61-4.97,20.29-11.59,36.02-46.78,48.02-9.8,11.18-22.22,16.84-51.75-4-15.87,0-28.98-5.93-29.67-41.4-10.49-12.01-15.73-27.74,9.25-51.75,0-76.31,6.07-93.15,35.47-87.08,12.01-12.56,26.08-18.63,35.74,6.35l-23.18,8.42-19.87,9.94c-11.45,0-20.84,4-25.39-13.25-7.45,8-11.18,18.22,11.45,74.52,0,12.56,3.04,22.08,30.91,41.54,6.07,6.35,14.08,9.52,24.84,34.91,8.83,0,16.15-3.59.97,3.59,5.8-7.18,10.9-18.91-8.14-100.33,5.38-20.7,12.01-36.43,16.97-72.17,9.38-10.76,21.39-16.15,54.92-33.26,16.42,0,29.95,6.49,65.14,25.81,10.63,12.83,16.01,29.39,23.87,73.83,0,74.66-5.38,91.77-32.29,126.27-10.9,14.9-25.39,22.08-68.86,18.77l-12.01-23.05,13.11-47.75c12.56,0,22.36-4.83,54.65-15.04,6.9-9.52,10.35-20.29,24.7-66.52,0-12.7-3.31-22.91-19.73-7.18-6.62-7.59-15.04-11.32-50.09-7.04l23.32-47.47Z"/>
        <path class="cls-1" d="M548.79,832.42c-5.62,0-11.9-.26-18.94-.8h-.13s-.06-.13-.06-.13l-12.05-23.13.02-.09,13.16-47.93h.19c9.12,0,17.03-2.64,32.8-7.91,5.79-1.93,12.99-4.34,21.7-7.09,6.79-9.4,10.13-19.69,24.61-66.35,0-8.49-1.48-13.25-4.51-14.54-3.17-1.35-8.15,1.2-14.81,7.58l-.18.18-.17-.19c-6.46-7.4-14.86-10.59-42.82-7.75-4.28,13.48-10.31,40.25-21.06,98.44-4.87,19.9-11.42,36.07-46.88,48.19-10.64,12.11-23.56,16.05-51.97-3.97-15.07-.02-29.1-5.1-29.83-41.55-6.36-7.3-9.11-14.13-8.68-21.48.56-9.43,6.42-19.39,17.92-30.47,0-15.27.27-27.94.86-38.46-6.95-24.42-3.53-31.33,1.96-37.23l.3-.32.11.43c.58,2.19,1.23,4.03,1.96,5.57,2.04-7.01,4.76-11.52,8.3-14.41,4.99-4.06,11.82-4.94,22.13-2.83,7.94-8.28,15.06-11.87,21.15-10.65,5.94,1.19,10.96,6.96,14.9,17.17l.09.23-.23.08-23.18,8.42-19.96,9.95c-1.88,0-3.69.11-5.45.21-7.37.44-13.49.8-17.6-6.79-2.08,7.62-3.32,17.6-4.03,30,2.71,9.5,6.99,21.67,13.36,37.52l.02.09c0,13.72,4.45,22.94,30.81,41.34,1.23,1.28,2.51,2.41,3.86,3.61,5.51,4.88,12.37,10.96,21,31.26,1.07,0,2.11-.06,3.09-.14,4.45-9.06,5.17-28.6-10.66-96.29v-.06s0-.06,0-.06c1.42-5.46,2.9-10.49,4.47-15.81,4.35-14.77,8.85-30.04,12.5-56.34v-.07s.06-.05.06-.05c8.42-9.65,19.13-15.09,45-28.23,3.1-1.58,6.43-3.26,10-5.08l.11-.03c16.7,0,30.39,6.7,65.25,25.84l.07.06c10.69,12.91,16.06,29.5,23.93,73.94,0,40.27-1.64,61.48-6.06,78.3-4.8,18.25-13.27,31.48-26.28,48.16-9.1,12.45-20.6,19.66-50.13,19.66ZM530.02,831.15c43.68,3.31,57.78-4.01,68.51-18.68,17.14-21.97,22.58-34.24,26.2-47.99,4.41-16.78,6.05-37.95,6.05-78.13-7.84-44.26-13.18-60.81-23.79-73.64-34.71-19.06-48.36-25.74-64.92-25.75-3.55,1.81-6.86,3.49-9.94,5.06-25.77,13.08-36.46,18.51-44.81,28.06-3.66,26.29-8.16,41.56-12.51,56.34-1.56,5.3-3.03,10.3-4.45,15.74,15.68,67.06,15.11,87.02,10.74,96.3,1.45-.14,2.75-.33,3.76-.47,1.9-.28,2.3-.33,2.4.01.13.42-.15.58-7.57,4.08l-1.34.63-.29-.37c.79-.97,1.54-2.04,2.21-3.32-.95.07-1.96.12-2.99.12h-.16l-.06-.15c-8.61-20.31-15.44-26.37-20.94-31.23-1.36-1.21-2.65-2.35-3.86-3.61-26.47-18.47-30.97-27.79-30.98-41.66-6.07-15.1-10.25-26.89-12.98-36.21-.56,10.66-.75,23.07-.75,37.26v.1l-.07.07c-26.09,25.08-18.64,40.65-9.23,51.42l.06.07v.09c.71,36.18,14.56,41.16,29.43,41.16h.08l.06.04c28.19,19.89,40.94,16,51.43,4.04l.04-.05.06-.02c35.28-12.04,41.79-28.1,46.62-47.85,10.71-58,16.69-84.73,20.97-98.28-2.06.21-4.22.46-6.49.73l-.44.05,12.09-24.6c-1.28-10.08-.51-16.54,2.35-20.03,2.43-2.97,6.07-3.38,9.31-3.38h.39l-11.53,23.47c.36,2.86.89,6,1.58,9.43l.02.11-.07.09c-1.96,2.41-3.89,5.58-6.46,13.56,27.77-2.79,36.33.38,42.86,7.74,6.82-6.49,11.77-8.94,15.15-7.5,3.24,1.38,4.81,6.3,4.81,15.03v.07c-14.56,46.85-17.87,57.1-24.75,66.59l-.05.06-.08.02c-8.74,2.76-15.96,5.18-21.77,7.12-15.71,5.25-23.65,7.9-32.77,7.94l-13.04,47.48,11.9,22.84ZM480.85,788.95c-.55,1.08-1.15,2.01-1.78,2.86l.42-.2c3.68-1.74,6.03-2.85,6.93-3.37-.38.04-.92.12-1.49.2-1.09.16-2.5.36-4.08.5ZM409.96,638.39c-5.11,5.62-8.2,12.46-1.93,35.12.78-12.81,2.08-22.31,4.04-29.37-.78-1.58-1.49-3.47-2.11-5.74ZM552.28,641.37l-11.37,23.14c2.19-.26,4.27-.5,6.26-.7,2.58-8.07,4.55-11.31,6.58-13.83-.63-3.11-1.12-5.98-1.48-8.61ZM412.62,644.11c4.01,7.8,10.06,7.44,17.37,7.01,1.75-.1,3.56-.21,5.42-.21l19.82-9.91,22.98-8.35c-3.87-9.9-8.73-15.5-14.46-16.64-5.94-1.19-12.93,2.38-20.79,10.6l-.09.1-.13-.03c-10.23-2.11-16.97-1.28-21.85,2.7-3.63,2.96-6.31,7.85-8.27,14.73ZM563.42,617.59c-3.02.03-6.33.5-8.54,3.2-2.66,3.24-3.43,9.47-2.32,18.91l10.86-22.1Z"/>
      </g>
    </g>
  </g>
</svg>