<?xml version="1.0" encoding="UTF-8"?>
<svg id="Layer_2" data-name="Layer 2" xmlns="http://www.w3.org/2000/svg" viewBox="0 0 633.68 1020.61">
  <defs>
    <style>
      .cls-1 {
        fill: #fff;
      }
    </style>
  </defs>
  <g id="Home_Page_Text_copy" data-name="Home Page Text copy">
    <g id="Zapf_Dingbats" data-name="Zapf Dingbats">
      <g>
        <path d="M123.27,797.78l-2.81,100.69,69-73.22,10.3,10.3-73.22,69,100.69-2.81v14.36l-100.69-2.81,73.22,69-10.3,10.3-69-73.22,2.81,100.69h-14.36l3.28-100.69-69.16,73.22-10.15-10.3,73.22-69-100.69,2.81v-14.36l100.69,2.81-73.22-69,10.15-10.3,69.16,73.22-2.81-100.69h13.89Z"/>
        <path class="cls-1" d="M123.82,1020.61h-15.46l.02-.55,3.23-99.29-68.57,72.6-10.92-11.09.4-.37,72.2-68.04-99.84,2.79v-15.46l.55.02,99.29,2.77-72.6-68.42,10.92-11.08,68.58,72.6-2.79-99.84h14.99l-2.79,99.84,68.42-72.6,11.08,11.08-.4.38-72.2,68.04,99.84-2.79v15.46l-.55-.02-99.29-2.77,72.6,68.42-11.08,11.08-68.42-72.6,2.79,99.84ZM109.46,1019.55h13.26l-2.83-101.54,69.58,73.84,9.53-9.53-73.84-69.58,101.54,2.83v-13.27l-101.54,2.83,73.84-69.58-9.53-9.53-69.58,73.83,2.83-101.54h-12.8l2.83,101.54-69.74-73.83-9.38,9.52,73.84,69.59-101.54-2.83v13.27l101.54-2.83-73.84,69.59,9.38,9.52,69.74-73.84-3.31,101.55Z"/>
      </g>
      <g>
        <path d="M174.16,626.06v66.19l57.92,33.25-57.92,33.25v66.19l-57.29-32.94-57.45,32.94v-66.19L1.81,725.5l57.61-33.25v-66.19l57.45,32.63,57.29-32.63ZM59.42,705.37l-35.13,20.14,35.13,20.14v-40.28ZM70.97,645.89v39.65l34.19-20.14-34.19-19.51ZM70.97,765.47v39.65l34.19-19.83-34.19-19.83ZM116.87,671.49l-45.58,27.16v53.39l45.58,27.16,45.74-27.16v-53.39l-45.74-27.16ZM162.92,645.89l-34.81,19.51,34.81,19.83v-39.34ZM162.92,765.47l-34.5,20.14,34.5,19.83v-39.96ZM174.16,705.05v39.96l34.81-19.51-34.81-20.45Z"/>
        <path class="cls-1" d="M174.7,825.87l-57.83-33.25-57.98,33.25v-66.8L.75,725.5l58.14-33.56v-66.8l57.98,32.93,57.83-32.93v66.8l58.46,33.56-58.46,33.56v66.8ZM2.88,725.5l57.07,32.94v65.58l56.92-32.63,56.76,32.63v-65.58l.27-.15,57.11-32.79-57.38-32.94v-65.58l-56.76,32.32-.26-.15-56.65-32.17v65.58l-.27.15-56.81,32.79ZM163.46,806.36l-36.1-20.74,36.1-21.07v41.81ZM129.49,785.6l32.91,18.91v-38.12l-32.91,19.21ZM70.44,806.05v-41.5l35.78,20.75-35.78,20.75ZM71.51,766.39v37.8l32.59-18.9-32.59-18.9ZM116.87,779.83l-46.12-27.48v-54l.26-.16,45.86-27.33,46.27,27.48v54l-.26.15-46.01,27.33ZM71.82,751.74l45.05,26.85,45.21-26.85v-52.78l-45.21-26.85-45.05,26.85v52.78ZM59.95,746.56l-36.73-21.06,36.73-21.06v42.12ZM25.37,725.5l33.52,19.22v-38.44l-33.52,19.22ZM173.63,745.93v-41.8l36.42,21.39-36.42,20.41ZM174.7,705.99v38.12l33.21-18.62-33.21-19.51ZM70.44,686.47v-41.5l35.78,20.42-35.78,21.08ZM71.51,646.81v37.8l32.59-19.2-32.59-18.6ZM163.46,686.15l-36.43-20.75,36.43-20.42v41.17ZM129.19,665.41l33.2,18.91v-37.51l-33.2,18.61Z"/>
      </g>
      <g>
        <path d="M86.27,410.95l59.17,67.44,85.71-21.39-47.77,74.46,47.77,74.62-85.71-21.54-59.17,67.6-5.15-88.36L2.13,531.47l78.99-32.16,5.15-88.36ZM96.73,441.39l-3.75,66.19-58.85,23.88,58.85,24.04,3.75,66.19,44.49-50.58,63.07,15.77-35.28-55.42,35.28-55.26-63.07,15.61-44.49-50.42ZM107.04,471.68l29.66,34.03,41.06-10.3-23.1,36.06,23.1,36.22-41.06-10.3-29.66,33.88-2.5-44.02-38.09-15.77,38.09-15.61,2.5-44.18Z"/>
        <path class="cls-1" d="M85.82,653.47l-5.21-89.32L.72,531.47l79.89-32.52,5.21-89.32,59.81,68.17,86.69-21.63-48.31,75.31,48.31,75.47-86.69-21.79-59.81,68.33ZM3.54,531.47l78.1,31.95,5.1,87.4,58.52-66.86.32.08,84.4,21.22-47.23-73.78.18-.29,47.05-73.33-84.72,21.14-58.52-66.71-5.1,87.4-78.1,31.79ZM96.27,623.03l-3.8-67.15-59.75-24.41,59.75-24.25,3.8-67.15,45.14,51.15,64.05-15.85-35.82,56.1,35.82,56.26-64.05-16.01-45.14,51.31ZM35.54,531.47l57.95,23.67,3.69,65.23,43.85-49.85.31.08,61.77,15.44-34.75-54.58.18-.29,34.56-54.14-62.09,15.37-43.85-49.69-3.69,65.23-57.95,23.52ZM106.58,592.59l-2.55-44.99-38.98-16.13,38.98-15.97,2.55-45.15,30.31,34.77,42.04-10.55-23.65,36.91,23.64,37.06-42.04-10.55-30.31,34.61ZM67.85,531.47l37.21,15.4,2.44,43.06,29.02-33.14,40.07,10.06-22.57-35.38,22.56-35.22-40.07,10.06-29.02-33.29-2.44,43.21-.31.13-36.89,15.12Z"/>
      </g>
      <g>
        <path d="M111.87,317.29c-.62-10.82-6.5-21.59-17.64-32.32l-.62-.62c-7.39-7.28-12.28-13.37-14.67-18.26-2.39-4.89-3.59-10.3-3.59-16.24,0-11.76,3.98-21.67,11.94-29.74,7.96-8.06,17.72-12.1,29.27-12.1s21.47,4.03,29.43,12.1c7.96,8.07,11.94,17.98,11.94,29.74,0,5.93-1.25,11.37-3.75,16.31-2.5,4.94-7.34,11.01-14.52,18.19,0,.1-.05.16-.16.16-11.45,11.03-17.38,22.07-17.8,33.1,10.72-.73,21.39-6.45,32-17.17.42-.41.73-.73.94-.94,7.18-7.18,13.27-12.02,18.27-14.52,5-2.5,10.41-3.75,16.24-3.75,11.76,0,21.7,3.98,29.82,11.94,8.12,7.96,12.18,17.72,12.18,29.27s-4.03,21.44-12.1,29.35c-8.06,7.91-18.03,11.86-29.9,11.86-5.83,0-11.19-1.19-16.08-3.59-4.89-2.39-11.03-7.23-18.42-14.52l-1.4-1.4c-10.51-10.62-21.13-16.13-31.85-16.55.83,10.62,6.61,21.28,17.33,32l.94.94c7.29,7.29,12.15,13.37,14.6,18.27,2.45,4.89,3.67,10.3,3.67,16.24,0,11.97-3.95,21.93-11.86,29.9-7.91,7.96-17.74,11.94-29.51,11.94s-21.31-4.03-29.27-12.1c-7.96-8.06-11.94-17.98-11.94-29.74,0-5.93,1.2-11.34,3.59-16.24,2.4-4.89,7.29-10.98,14.67-18.27l1.4-1.4c10.62-10.51,16.13-21.13,16.55-31.85-10.51.62-21.02,6.19-31.54,16.7-.62.62-1.09,1.15-1.4,1.56-7.39,7.29-13.53,12.13-18.42,14.52-4.89,2.4-10.3,3.59-16.24,3.59-11.76,0-21.67-3.95-29.74-11.86-8.06-7.91-12.1-17.69-12.1-29.35s4.03-21.31,12.1-29.27c8.07-7.96,17.98-11.94,29.74-11.94,5.93,0,11.4,1.25,16.39,3.75,5,2.5,11.08,7.34,18.27,14.52l.94.94c10.83,10.83,21.6,16.45,32.32,16.86Z"/>
        <path class="cls-1" d="M116.56,437.41c-11.65,0-21.62-4.12-29.65-12.26-8.03-8.13-12.1-18.26-12.1-30.11,0-5.98,1.23-11.52,3.64-16.47,2.41-4.92,7.38-11.12,14.78-18.41l1.4-1.4c10.27-10.17,15.78-20.56,16.36-30.9-10.13.79-20.43,6.34-30.6,16.51-.6.6-1.06,1.1-1.36,1.5-7.45,7.35-13.69,12.27-18.61,14.68-4.94,2.42-10.48,3.64-16.47,3.64-11.85,0-21.98-4.04-30.11-12.02-8.13-7.98-12.26-17.98-12.26-29.73s4.12-21.62,12.26-29.65c8.13-8.03,18.26-12.1,30.11-12.1,5.99,0,11.58,1.28,16.63,3.8,5.02,2.51,11.22,7.43,18.4,14.62l.94.94c10.48,10.48,21.03,16.08,31.37,16.68-.79-10.44-6.66-20.99-17.44-31.37l-.63-.63c-7.39-7.29-12.36-13.48-14.78-18.41-2.42-4.94-3.64-10.49-3.64-16.47,0-11.85,4.07-21.98,12.1-30.11,8.03-8.13,18.01-12.26,29.65-12.26s21.78,4.12,29.81,12.26c8.03,8.13,12.1,18.26,12.1,30.11,0,5.99-1.28,11.56-3.8,16.55-2.5,4.94-7.38,11.07-14.51,18.22-.07.17-.2.31-.38.37-11.02,10.65-16.9,21.42-17.5,32.03,10.34-.89,20.79-6.59,31.06-16.97.42-.42.73-.73.94-.94,7.19-7.19,13.38-12.11,18.41-14.62,5.05-2.52,10.59-3.8,16.47-3.8,11.85,0,22.01,4.07,30.19,12.09,8.19,8.03,12.34,18,12.34,29.65s-4.12,21.75-12.26,29.73c-8.13,7.97-18.31,12.02-30.27,12.02-5.89,0-11.37-1.23-16.31-3.64-4.92-2.41-11.16-7.32-18.56-14.62l-1.41-1.41c-10.17-10.27-20.55-15.77-30.89-16.36.99,10.24,6.75,20.69,17.12,31.06l.94.94c7.29,7.29,12.24,13.49,14.7,18.4,2.47,4.94,3.72,10.48,3.72,16.47,0,12.06-4.04,22.24-12.02,30.27-7.97,8.03-18.03,12.1-29.88,12.1ZM112.12,326.72l-.02.59c-.42,10.81-6.04,21.64-16.71,32.21l-1.4,1.4c-7.31,7.21-12.21,13.31-14.57,18.12-2.35,4.8-3.54,10.18-3.54,16,0,11.56,3.97,21.44,11.79,29.36,7.82,7.92,17.54,11.94,28.89,11.94s21.36-3.97,29.13-11.79c7.77-7.82,11.71-17.75,11.71-29.52,0-5.82-1.22-11.2-3.61-16-2.41-4.81-7.28-10.91-14.5-18.13l-.94-.94c-10.76-10.76-16.64-21.64-17.48-32.34l-.05-.6.6.02c10.81.42,21.65,6.04,32.21,16.71l1.4,1.4c7.31,7.21,13.46,12.06,18.28,14.42,4.79,2.35,10.12,3.54,15.85,3.54,11.67,0,21.6-3.94,29.52-11.71,7.92-7.77,11.94-17.51,11.94-28.97s-4.04-21.07-12.02-28.89c-7.98-7.82-17.88-11.79-29.44-11.79-5.72,0-11.1,1.24-16,3.69-4.92,2.46-11.02,7.31-18.13,14.42-.21.21-.52.52-.94.94-10.66,10.76-21.54,16.59-32.34,17.33l-.59.04.02-.59c.42-11.12,6.46-22.37,17.95-33.45h0s.16-.16.16-.16c7.11-7.11,11.96-13.18,14.42-18.05,2.45-4.84,3.69-10.25,3.69-16.07,0-11.56-3.97-21.44-11.79-29.36-7.82-7.92-17.6-11.94-29.05-11.94s-21.07,4.02-28.89,11.94c-7.82,7.93-11.79,17.81-11.79,29.36,0,5.82,1.19,11.21,3.54,16,2.36,4.82,7.26,10.91,14.57,18.12l.63.63c11.18,10.76,17.17,21.75,17.8,32.66l.03.59-.59-.02c-10.81-.42-21.8-6.14-32.67-17.02l-.94-.94c-7.11-7.11-13.21-11.96-18.13-14.42-4.9-2.45-10.33-3.69-16.15-3.69-11.56,0-21.44,3.97-29.37,11.79-7.92,7.82-11.94,17.54-11.94,28.89s4.02,21.2,11.94,28.97c7.92,7.77,17.81,11.71,29.37,11.71,5.83,0,11.21-1.19,16-3.54,4.82-2.36,10.97-7.21,18.28-14.42.28-.38.77-.92,1.4-1.56,10.56-10.56,21.29-16.23,31.88-16.86l.59-.04Z"/>
      </g>
      <g>
        <path d="M116.56,2.11l15.14,57.76,42.15-42.46-15.61,57.6,57.45-15.77-42.46,42.31,57.92,14.99-57.92,14.99,42.46,42.31-57.45-15.77,15.61,57.6-42.15-42.62-15.14,57.92-14.99-57.92-42.15,42.62,15.61-57.6-57.45,15.77,42.46-42.31L2.13,116.54l57.92-14.99L17.58,59.25l57.45,15.77-15.61-57.6,42.15,42.46L116.56,2.11Z"/>
        <path class="cls-1" d="M116.56,233.09l-15.26-58.99-42.91,43.39,15.9-58.66-58.5,16.06,43.23-43.07L0,116.54l59.01-15.27L15.77,58.2l58.5,16.06-15.89-58.65,42.91,43.23L116.56,0l15.42,58.84,42.91-43.23-15.89,58.65,58.5-16.06-43.23,43.07,59.01,15.27-59.01,15.27,43.23,43.07-58.5-16.06,15.9,58.66-42.92-43.39-15.42,58.99ZM101.85,172.01l14.71,56.84,14.86-56.84,41.39,41.85-15.33-56.55,56.4,15.48-41.69-41.54,56.83-14.71-56.83-14.71,41.69-41.54-56.4,15.48,15.33-56.56-41.39,41.69-14.86-56.69-14.71,56.69L60.46,19.22l15.33,56.56-56.4-15.48,41.69,41.54-56.83,14.71,56.83,14.71-41.69,41.54,56.4-15.48-15.33,56.55,41.39-41.85Z"/>
      </g>
      <g>
        <path d="M290.39,777.95l54.02,74.31,87.74-28.57-54.17,74.46,54.17,74.62-87.74-28.57-54.02,74.15v-91.64l-87.27-28.57,87.27-28.41v-91.79Z"/>
        <path class="cls-1" d="M289.86,1020v-92.89l-88.45-28.96,88.45-28.8v-93.05l54.75,75.32,88.93-28.96-54.91,75.48,54.91,75.64-88.93-28.96-54.75,75.16ZM204.84,898.16l86.08,28.18v90.39l53.28-73.14.37.12,86.18,28.06-53.44-73.61,53.43-73.45-86.54,28.18-53.28-73.3v90.54l-.37.12-85.72,27.91Z"/>
      </g>
      <g>
        <path d="M320.52,573.14l15.3,70.56,60.73-39.34,4.21,4.21-39.34,60.73,70.72,15.3v5.78l-70.72,15.46,39.34,60.73-4.21,4.06-60.73-39.34-15.3,70.72h-5.78l-15.3-70.72-60.73,39.34-4.21-4.06,39.34-60.73-70.72-15.46v-5.78l70.72-15.3-39.34-60.73,4.21-4.21,60.73,39.34,15.3-70.56h5.78ZM312.56,687.57h-97.88l65.88,14.05,32-14.05ZM244.65,614.67l36.53,56.51,32.94,12.8-69.47-69.31ZM314.12,691l-69.47,69.47,56.67-36.53,12.8-32.94ZM317.56,584.54l-14.05,65.88,14.05,32v-97.88ZM317.56,692.72v97.73l14.21-65.88-14.21-31.85ZM390.46,614.67l-56.51,36.37-12.8,32.94,69.31-69.31ZM321.15,691l69.31,69.47-36.37-56.67-32.94-12.8ZM354.71,673.52l-32,14.05h97.88l-65.88-14.05Z"/>
        <path class="cls-1" d="M320.95,802.53h-6.64l-15.23-70.39-60.44,39.15-4.84-4.66.24-.37,38.92-60.08-70.39-15.38v-6.63l70.39-15.23-39.16-60.44,4.82-4.82,60.44,39.16,15.23-70.23h6.64l15.23,70.23,60.44-39.16,4.82,4.82-39.16,60.44,70.39,15.23v6.63l-70.39,15.38,39.16,60.45-4.84,4.66-60.44-39.15-15.23,70.39ZM315.18,801.47h4.92l15.37-71.05,61.02,39.53,3.59-3.46-39.52-61,71.05-15.53v-4.92l-71.05-15.37,39.53-61.01-3.61-3.61-61.01,39.52-15.37-70.9h-4.92l-15.37,70.9-61.01-39.52-3.61,3.61,39.53,61.01-71.05,15.37v4.92l71.05,15.53-39.52,61,3.59,3.46,61.02-39.53,15.37,71.05ZM318.08,790.56l-1.05-.11v-97.73l1.02-.22,14.28,32.01-14.24,66.05ZM318.09,695.23v90.22l13.12-60.82-13.12-29.4ZM244.94,760.92l-.67-.83,69.47-69.47.87.57-12.86,33.1-56.81,36.62ZM312.71,693.17l-64.15,64.15,52.33-33.73,11.82-30.42ZM390.09,760.85l-69.31-69.47.57-.87,33.1,12.87.09.15,36.37,56.67-.83.66ZM323.31,692.42l64.02,64.16-33.6-52.34-30.42-11.82ZM280.62,702.18l-.17-.04-65.88-14.05.11-1.05h97.88l.21,1.02-32.16,14.12ZM219.73,688.1l60.77,12.96,29.52-12.96h-90.29ZM420.59,688.1h-97.88l-.21-1.02,32.16-14.12.17.04,65.88,14.05-.11,1.05ZM325.25,687.04h90.29l-60.77-12.96-29.52,12.96ZM313.93,684.48l-33.1-12.86-.09-.15-36.53-56.51.82-.67,69.47,69.31-.57.87ZM281.54,670.74l30.41,11.82-64.14-63.99,33.73,52.17ZM321.53,684.36l-.87-.57,12.86-33.1,56.66-36.47.67.83-69.31,69.31ZM334.38,651.4l-11.82,30.42,64.01-64.01-52.19,33.59ZM317.07,682.63l-14.12-32.16.04-.17,14.05-65.88,1.05.11v97.88l-1.02.21ZM304.06,650.36l12.96,29.52v-90.29l-12.96,60.77Z"/>
      </g>
      <g>
        <path d="M320.84,367.24c7.81,18.84,14.83,33.85,21.08,45.04,6.24,11.19,12.44,19.9,18.58,26.15,6.14,6.14,14.78,12.33,25.91,18.58,11.14,6.24,26.38,13.37,45.74,21.39v6.4c-19.36,8.12-34.6,15.3-45.74,21.54-11.14,6.24-19.77,12.39-25.91,18.42-6.14,6.24-12.33,14.96-18.58,26.15-6.24,11.19-13.27,26.25-21.08,45.19h-6.4c-7.81-19.04-14.83-34.16-21.08-45.35-6.24-11.19-12.44-19.85-18.58-25.99-6.14-6.03-14.78-12.18-25.92-18.42-11.14-6.24-26.38-13.43-45.74-21.54v-6.4c19.36-8.01,34.61-15.14,45.74-21.39,11.14-6.24,19.78-12.44,25.92-18.58,6.14-6.03,12.33-14.65,18.58-25.84,6.24-11.19,13.27-26.3,21.08-45.35h6.4ZM318.18,377.07h-1.25c-1.46,14.57-4.06,28.49-7.81,41.76-3.75,13.27-8.79,26.3-15.14,39.11-12.8,6.35-25.86,11.42-39.18,15.22-13.32,3.8-27.21,6.43-41.68,7.88v1.25c14.47,1.46,28.36,4.09,41.68,7.88,13.32,3.8,26.38,8.82,39.18,15.06,6.35,13.32,11.42,26.62,15.22,39.89,3.8,13.27,6.38,26.98,7.73,41.13h1.25c1.46-14.15,4.09-27.87,7.88-41.13,3.8-13.27,8.87-26.56,15.22-39.89,13.22-6.35,26.49-11.4,39.81-15.14,13.32-3.75,27.01-6.35,41.06-7.81v-1.25c-14.05-1.46-27.73-4.06-41.06-7.81-13.32-3.75-26.59-8.84-39.81-15.3-6.35-12.8-11.42-25.84-15.22-39.11-3.8-13.27-6.42-27.19-7.88-41.76Z"/>
        <path class="cls-1" d="M321.19,596.63h-7.12l-.14-.33c-7.76-18.94-14.84-34.17-21.05-45.29-6.19-11.09-12.41-19.8-18.49-25.88-6.08-5.98-14.76-12.15-25.8-18.33-11.06-6.2-26.43-13.44-45.69-21.52l-.33-.14v-7.11l.33-.14c19.25-7.97,34.62-15.15,45.68-21.36,11.04-6.19,19.73-12.41,25.8-18.49,6.08-5.97,12.3-14.62,18.49-25.72,6.2-11.11,13.28-26.35,21.05-45.29l.14-.33h7.11l.14.33c7.76,18.74,14.85,33.87,21.05,44.98,6.19,11.09,12.41,19.85,18.49,26.04,6.07,6.07,14.75,12.29,25.8,18.49,11.08,6.21,26.45,13.4,45.68,21.36l.33.14v7.11l-.33.14c-19.24,8.07-34.61,15.31-45.69,21.52-11.03,6.19-19.72,12.36-25.8,18.34-6.07,6.17-12.29,14.93-18.49,26.03-6.21,11.12-13.29,26.3-21.05,45.14l-.14.33ZM314.79,595.57h5.69c7.72-18.72,14.78-33.83,20.97-44.92,6.24-11.18,12.52-20.01,18.66-26.26,6.16-6.05,14.92-12.28,26.03-18.51,11.04-6.19,26.34-13.4,45.47-21.43v-5.69c-19.12-7.92-34.42-15.08-45.47-21.28-11.13-6.24-19.88-12.52-26.03-18.67-6.15-6.26-12.43-15.09-18.67-26.27-6.19-11.08-13.24-26.14-20.97-44.77h-5.69c-7.73,18.83-14.78,33.99-20.97,45.08-6.24,11.19-12.52,19.92-18.67,25.96-6.14,6.14-14.9,12.42-26.03,18.66-11.04,6.19-26.34,13.35-45.47,21.28v5.69c19.14,8.03,34.43,15.24,45.47,21.43,11.12,6.23,19.88,12.46,26.03,18.51,6.15,6.15,12.43,14.93,18.67,26.11,6.19,11.09,13.24,26.25,20.97,45.08ZM318.66,586.8h-2.21l-.05-.48c-1.34-14.06-3.94-27.86-7.71-41.04-3.75-13.12-8.84-26.45-15.11-39.64-12.66-6.16-25.75-11.19-38.93-14.95-13.22-3.77-27.22-6.42-41.59-7.87l-.48-.05v-2.21l.48-.05c14.37-1.45,28.37-4.09,41.59-7.87,13.17-3.75,26.27-8.84,38.93-15.11,6.27-12.66,11.32-25.73,15.03-38.85,3.72-13.18,6.34-27.2,7.79-41.67l.05-.48h2.21l.05.48c1.45,14.47,4.09,28.49,7.87,41.67,3.76,13.12,8.84,26.19,15.11,38.85,13.07,6.37,26.38,11.48,39.56,15.19,13.24,3.72,27.02,6.34,40.97,7.79l.48.05v2.21l-.48.05c-13.96,1.45-27.75,4.07-40.97,7.79-13.17,3.7-26.47,8.76-39.55,15.03-6.27,13.18-11.35,26.52-15.11,39.63-3.77,13.17-6.42,26.98-7.87,41.04l-.05.48ZM317.42,585.73h.28c1.47-13.96,4.11-27.67,7.85-40.75,3.79-13.23,8.92-26.68,15.25-39.97l.08-.17.17-.08c13.19-6.33,26.61-11.44,39.9-15.18,13.13-3.69,26.81-6.31,40.67-7.77v-.29c-13.85-1.46-27.53-4.08-40.67-7.77-13.3-3.74-26.72-8.9-39.9-15.33l-.16-.08-.08-.16c-6.33-12.77-11.46-25.96-15.26-39.2-3.75-13.09-6.39-27.01-7.85-41.37h-.29c-1.46,14.36-4.08,28.28-7.77,41.37-3.74,13.24-8.85,26.43-15.18,39.2l-.08.16-.16.08c-12.77,6.34-25.99,11.47-39.28,15.26-13.14,3.75-27.03,6.39-41.3,7.85v.29c14.27,1.47,28.16,4.11,41.3,7.85,13.29,3.79,26.51,8.87,39.27,15.1l.17.08.08.17c6.33,13.29,11.47,26.74,15.25,39.97,3.75,13.09,6.34,26.79,7.7,40.75Z"/>
      </g>
      <g>
        <path d="M290.39,151.03l54.02,74.31,87.74-28.57-54.17,74.47,54.17,74.62-87.74-28.57-54.02,74.15v-91.64l-87.27-28.57,87.27-28.41v-91.79Z"/>
        <path class="cls-1" d="M289.86,393.08v-92.89l-88.45-28.96,88.45-28.8v-93.05l54.75,75.32,88.93-28.96-54.91,75.48,54.91,75.64-88.93-28.96-54.75,75.16ZM204.84,271.24l86.08,28.18v90.39l53.28-73.14.37.12,86.18,28.06-53.44-73.61,53.43-73.45-86.54,28.18-.23-.31-53.05-72.98v90.54l-.37.12-85.72,27.91Z"/>
      </g>
      <g>
        <path d="M499.82,817.6c-.73-1.46-1.25-2.91-1.56-4.37-.31-1.46-.47-2.97-.47-4.53,0-5.72,2.03-10.62,6.09-14.67s8.95-6.09,14.67-6.09,10.9,2,14.91,6.01c4.01,4.01,6.01,8.93,6.01,14.75,0,1.56-.18,3.07-.55,4.53-.36,1.46-.86,2.91-1.48,4.37h.62c5.72,0,10.56,2,14.52,6.01,3.96,4.01,5.93,8.93,5.93,14.75s-2,10.77-6.01,14.83c-4.01,4.06-8.92,6.09-14.75,6.09-2.5,0-4.89-.47-7.18-1.41-2.29-.94-4.68-2.39-7.18-4.37v44.02h44.18c-1.98-2.5-3.43-4.89-4.37-7.18-.94-2.29-1.41-4.68-1.41-7.18,0-5.72,2.03-10.62,6.09-14.67,4.06-4.06,8.95-6.09,14.67-6.09s10.75,1.98,14.75,5.93c4.01,3.96,6.01,8.8,6.01,14.52v.62c1.67-.62,3.23-1.09,4.68-1.41,1.46-.31,2.86-.47,4.22-.47,5.83,0,10.77,2,14.83,6.01,4.06,4.01,6.09,8.92,6.09,14.75s-2.03,10.75-6.09,14.75c-4.06,4.01-9,6.01-14.83,6.01-1.56,0-3.07-.16-4.53-.47-1.46-.31-2.91-.78-4.37-1.4v.62c0,5.72-2,10.56-6.01,14.52-4,3.96-8.92,5.93-14.75,5.93s-10.62-2.03-14.67-6.09-6.09-8.95-6.09-14.67c0-2.39.47-4.79,1.41-7.18.94-2.39,2.4-4.79,4.37-7.18h-44.18v44.02c2.5-1.98,4.89-3.41,7.18-4.29,2.29-.88,4.68-1.33,7.18-1.33,5.83,0,10.75,1.98,14.75,5.93,4.01,3.96,6.01,8.9,6.01,14.83s-1.98,10.75-5.93,14.75c-3.95,4.01-8.79,6.01-14.52,6.01h-.62c.62,1.46,1.12,2.92,1.48,4.37.37,1.46.55,2.97.55,4.53,0,5.83-2,10.75-6.01,14.75-4.01,4.01-8.98,6.01-14.91,6.01s-10.62-2.03-14.67-6.09c-4.06-4.06-6.09-8.95-6.09-14.67,0-1.35.16-2.78.47-4.29.31-1.51.83-3.04,1.56-4.61h-.78c-5.62,0-10.43-2-14.44-6.01-4.01-4-6.01-8.92-6.01-14.75s2.03-10.75,6.09-14.75c4.06-4,9-6.01,14.83-6.01,2.5,0,4.94.47,7.34,1.41,2.4.94,4.74,2.34,7.02,4.21v-44.02h-44.18c1.98,2.5,3.43,4.89,4.37,7.18.94,2.29,1.4,4.68,1.4,7.18,0,5.83-2,10.75-6.01,14.75-4.01,4.01-8.92,6.01-14.75,6.01s-10.74-1.98-14.75-5.93c-4.01-3.95-6.01-8.79-6.01-14.52v-.62c-1.46.62-2.94,1.09-4.45,1.4-1.51.31-3.04.47-4.61.47-5.83,0-10.75-2-14.75-6.01s-6.01-8.92-6.01-14.75,2.01-10.75,6.01-14.75c4.01-4,8.93-6.01,14.75-6.01,1.56,0,3.1.16,4.61.47,1.51.31,2.99.78,4.45,1.41v-.62c0-5.62,2-10.43,6.01-14.44,4.01-4.01,8.93-6.01,14.75-6.01s10.75,2,14.75,6.01c4.01,4.01,6.01,8.92,6.01,14.75,0,2.5-.47,4.89-1.4,7.18-.94,2.29-2.39,4.68-4.37,7.18h44.18v-44.02c-2.29,1.87-4.63,3.31-7.02,4.29-2.39.99-4.84,1.48-7.34,1.48-5.83,0-10.77-2.03-14.83-6.09-4.06-4.06-6.09-9-6.09-14.83s2.01-10.75,6.01-14.75c4.01-4,8.82-6.01,14.44-6.01h.78Z"/>
        <path class="cls-1" d="M518.56,1017.33c-5.84,0-10.91-2.1-15.05-6.25s-6.24-9.21-6.24-15.05c0-1.38.16-2.86.48-4.4.27-1.29.69-2.62,1.26-3.96-5.72,0-10.69-2.08-14.78-6.17-4.09-4.09-6.17-9.18-6.17-15.13s2.1-11.04,6.25-15.13c4.15-4.09,9.26-6.17,15.21-6.17,2.55,0,5.09.49,7.53,1.44,2.13.83,4.25,2.05,6.3,3.61v-42.39h-42.56c1.67,2.22,2.94,4.38,3.78,6.45.96,2.34,1.44,4.83,1.44,7.38,0,5.95-2.07,11.04-6.17,15.13-4.09,4.09-9.18,6.17-15.13,6.17s-11.04-2.05-15.13-6.09c-4.05-4-6.13-8.96-6.17-14.73-1.25.49-2.53.87-3.81,1.13-1.54.32-3.12.48-4.71.48-5.95,0-11.04-2.08-15.13-6.17-4.09-4.09-6.17-9.18-6.17-15.13s2.07-11.04,6.17-15.13c4.09-4.09,9.19-6.17,15.13-6.17,1.59,0,3.18.16,4.71.48,1.28.27,2.56.65,3.81,1.13.04-5.67,2.11-10.59,6.17-14.65,4.09-4.09,9.18-6.17,15.13-6.17s11.04,2.08,15.13,6.17c4.09,4.09,6.17,9.18,6.17,15.13,0,2.56-.49,5.04-1.44,7.38-.84,2.06-2.11,4.22-3.78,6.45h42.56v-42.39c-2.05,1.57-4.16,2.81-6.29,3.68-2.44,1.01-4.98,1.52-7.54,1.52-5.95,0-11.06-2.1-15.21-6.25-4.14-4.14-6.24-9.26-6.24-15.21s2.07-11.04,6.17-15.13c4.08-4.08,9.04-6.15,14.76-6.17-.56-1.24-.98-2.49-1.24-3.73-.32-1.49-.48-3.05-.48-4.64,0-5.84,2.1-10.91,6.24-15.05,4.14-4.14,9.21-6.24,15.05-6.24s11.19,2.08,15.29,6.17c4.09,4.09,6.17,9.18,6.17,15.13,0,1.61-.19,3.17-.56,4.66-.31,1.23-.71,2.47-1.2,3.71,5.77.04,10.72,2.12,14.73,6.17,4.04,4.09,6.09,9.18,6.09,15.13s-2.07,11.06-6.16,15.2c-4.09,4.15-9.18,6.25-15.13,6.25-2.55,0-5.04-.49-7.38-1.45-2.06-.84-4.23-2.11-6.45-3.78v42.41h42.56c-1.67-2.23-2.94-4.39-3.78-6.45-.96-2.34-1.44-4.83-1.44-7.38,0-5.84,2.1-10.91,6.24-15.05,4.14-4.14,9.21-6.24,15.05-6.24s11.04,2.05,15.13,6.09c4.06,4.01,6.14,8.97,6.17,14.76,1.42-.5,2.77-.89,4.04-1.16,1.49-.32,2.94-.48,4.33-.48,5.94,0,11.06,2.07,15.2,6.16,4.15,4.09,6.25,9.18,6.25,15.13s-2.1,11.04-6.25,15.13c-4.14,4.09-9.26,6.17-15.2,6.17-1.59,0-3.15-.16-4.64-.48-1.23-.26-2.48-.64-3.73-1.13-.04,5.77-2.11,10.73-6.17,14.73-4.09,4.04-9.18,6.09-15.13,6.09s-10.91-2.1-15.05-6.24c-4.14-4.14-6.24-9.21-6.24-15.05,0-2.45.48-4.93,1.44-7.38.84-2.14,2.1-4.31,3.76-6.45h-42.54v42.41c2.23-1.66,4.39-2.91,6.46-3.71,2.35-.9,4.83-1.36,7.37-1.36,5.95,0,11.04,2.05,15.13,6.09,4.09,4.04,6.17,9.16,6.17,15.21s-2.05,11.04-6.09,15.13c-4,4.05-8.95,6.13-14.73,6.17.49,1.24.9,2.48,1.2,3.71.37,1.49.56,3.05.56,4.66,0,5.95-2.07,11.04-6.17,15.13-4.09,4.09-9.23,6.17-15.29,6.17ZM499.51,946.15c-5.65,0-10.52,1.97-14.46,5.86-3.94,3.89-5.93,8.72-5.93,14.37s1.97,10.49,5.85,14.38c3.88,3.88,8.62,5.85,14.06,5.85h1.62l-.35.76c-.71,1.52-1.22,3.03-1.52,4.49-.3,1.47-.46,2.88-.46,4.18,0,5.55,2,10.36,5.93,14.3,3.94,3.94,8.75,5.93,14.3,5.93s10.65-1.97,14.53-5.85c3.88-3.88,5.85-8.72,5.85-14.38,0-1.52-.18-3-.53-4.4-.35-1.42-.84-2.86-1.46-4.29l-.32-.74h1.43c5.55,0,10.31-1.97,14.14-5.85,3.83-3.88,5.78-8.72,5.78-14.38s-1.97-10.62-5.85-14.45c-3.88-3.83-8.72-5.78-14.38-5.78-2.41,0-4.77.43-6.99,1.29-2.23.86-4.6,2.28-7.04,4.21l-.86.68v-45.66h45.84l-.72.87c-1.93,2.35-3.38,4.71-4.29,7.04-.91,2.32-1.37,4.67-1.37,6.99,0,5.55,2,10.36,5.93,14.3,3.94,3.94,8.75,5.93,14.3,5.93s10.5-1.94,14.38-5.78c3.88-3.83,5.85-8.59,5.85-14.14v-1.43l.74.32c1.42.61,2.86,1.07,4.27,1.37,1.42.3,2.9.46,4.42.46,5.66,0,10.52-1.97,14.46-5.86,3.94-3.88,5.93-8.72,5.93-14.37s-2-10.49-5.93-14.37c-3.94-3.89-8.8-5.86-14.46-5.86-1.31,0-2.69.15-4.1.46-1.43.31-2.98.77-4.61,1.38l-.72.27v-1.39c0-5.55-1.97-10.31-5.85-14.14-3.88-3.83-8.72-5.78-14.38-5.78s-10.36,2-14.3,5.93-5.93,8.75-5.93,14.3c0,2.42.46,4.77,1.37,6.98.91,2.23,2.36,4.6,4.3,7.05l.68.86h-45.81v-45.66l.86.68c2.44,1.94,4.82,3.38,7.05,4.3,2.22.91,4.56,1.37,6.98,1.37,5.66,0,10.49-2,14.37-5.93,3.89-3.94,5.86-8.8,5.86-14.46s-1.94-10.49-5.78-14.38c-3.83-3.88-8.59-5.85-14.14-5.85h-1.43l.32-.74c.61-1.43,1.1-2.87,1.46-4.29.35-1.4.53-2.88.53-4.4,0-5.65-1.97-10.49-5.85-14.38s-8.77-5.85-14.53-5.85-10.36,2-14.3,5.93c-3.94,3.94-5.93,8.75-5.93,14.3,0,1.52.15,3,.46,4.42.3,1.4.81,2.83,1.52,4.24l.38.77h-1.64c-5.44,0-10.18,1.97-14.06,5.85-3.88,3.89-5.85,8.72-5.85,14.38s2,10.52,5.93,14.45c3.94,3.94,8.8,5.93,14.45,5.93,2.42,0,4.82-.49,7.13-1.44,2.33-.96,4.65-2.38,6.89-4.21l.87-.71v45.68h-45.81l.68-.86c1.94-2.45,3.38-4.82,4.3-7.05.91-2.21,1.37-4.56,1.37-6.98,0-5.66-1.97-10.49-5.85-14.38-3.88-3.88-8.72-5.85-14.38-5.85s-10.49,1.97-14.38,5.85c-3.88,3.89-5.85,8.62-5.85,14.06v1.43l-.74-.32c-1.41-.61-2.88-1.07-4.35-1.37-1.46-.3-2.98-.46-4.5-.46-5.65,0-10.49,1.97-14.38,5.85-3.88,3.89-5.85,8.72-5.85,14.38s1.97,10.49,5.85,14.38,8.72,5.85,14.38,5.85c1.52,0,3.03-.15,4.5-.46,1.46-.3,2.93-.76,4.35-1.37l.74-.32v1.43c0,5.55,1.97,10.31,5.85,14.14,3.88,3.83,8.72,5.78,14.38,5.78s10.49-1.97,14.38-5.85c3.88-3.88,5.85-8.72,5.85-14.38,0-2.42-.46-4.76-1.37-6.98-.92-2.24-2.36-4.61-4.3-7.05l-.68-.86h45.81v45.68l-.87-.71c-2.23-1.83-4.55-3.22-6.88-4.13-2.32-.91-4.72-1.37-7.14-1.37Z"/>
      </g>
      <g>
        <path d="M525.27,592.19l-2.81,100.69,69-73.22,10.3,10.3-73.22,69,100.69-2.81v14.36l-100.69-2.81,73.22,69-10.3,10.3-69-73.22,2.81,100.69h-14.36l3.28-100.69-69.16,73.22-10.15-10.3,73.22-69-100.69,2.81v-14.36l100.69,2.81-73.22-69,10.15-10.3,69.16,73.22-2.81-100.69h13.89Z"/>
        <path class="cls-1" d="M525.82,815.02h-15.46l.02-.55,3.23-99.29-68.57,72.6-10.92-11.09.4-.37,72.2-68.04-99.84,2.79v-15.46l.55.02,99.29,2.77-72.6-68.42,10.92-11.08,68.58,72.6-2.79-99.84h14.99l-2.79,99.84,68.42-72.6,11.08,11.08-.4.38-72.2,68.04,99.84-2.79v15.46l-.55-.02-99.29-2.77,72.6,68.42-11.08,11.08-68.42-72.6,2.79,99.84ZM511.46,813.96h13.26l-2.83-101.54,69.58,73.84,9.53-9.53-73.84-69.58,101.54,2.83v-13.27l-101.54,2.83,73.84-69.58-9.53-9.53-69.58,73.83,2.83-101.54h-12.8l2.83,101.54-69.74-73.83-9.38,9.52,73.84,69.59-101.54-2.83v13.27l101.54-2.83-73.84,69.59,9.38,9.52,69.74-73.84-3.31,101.55Z"/>
      </g>
    </g>
  </g>
</svg>